ISO-10303-21;
HEADER;
FILE_DESCRIPTION (( 'STEP AP214' ),
    '1' );
FILE_NAME ('009_003_Left_right_connector_bearing_grip.STEP',
    '2024-07-21T08:24:29',
    ( '' ),
    ( '' ),
    'SwSTEP 2.0',
    'SolidWorks 2019',
    '' );
FILE_SCHEMA (( 'AUTOMOTIVE_DESIGN' ));
ENDSEC;

DATA;
#1 = CARTESIAN_POINT ( 'NONE',  ( -23.89888317056918865, -24.26218009989058899, -3.500000000000000000 ) ) ;
#2 = ORIENTED_EDGE ( 'NONE', *, *, #910, .F. ) ;
#3 = DIRECTION ( 'NONE',  ( 0.9390347003403544113, -0.3438223837342483935, 0.000000000000000000 ) ) ;
#4 = CARTESIAN_POINT ( 'NONE',  ( -27.40216101987912012, -28.30409107250541823, -12.00000000000000000 ) ) ;
#5 = VECTOR ( 'NONE', #33, 1000.000000000000000 ) ;
#6 = ORIENTED_EDGE ( 'NONE', *, *, #1065, .F. ) ;
#7 = CARTESIAN_POINT ( 'NONE',  ( 2.581895379025481940, -33.95797132120551254, -7.500000000000000000 ) ) ;
#8 = DIRECTION ( 'NONE',  ( -0.1439447874037436403, 0.9895857204806922658, 0.000000000000000000 ) ) ;
#9 = EDGE_CURVE ( 'NONE', #210, #552, #281, .T. ) ;
#10 = ORIENTED_EDGE ( 'NONE', *, *, #980, .F. ) ;
#11 = CARTESIAN_POINT ( 'NONE',  ( -5.469256828845310281, -46.93069070171666368, -7.000000000000000000 ) ) ;
#12 = FACE_OUTER_BOUND ( 'NONE', #842, .T. ) ;
#13 = EDGE_CURVE ( 'NONE', #783, #106, #486, .T. ) ;
#14 = DIRECTION ( 'NONE',  ( 0.7489098233560317341, 0.6626719222064847425, 0.000000000000000000 ) ) ;
#15 = AXIS2_PLACEMENT_3D ( 'NONE', #265, #333, #930 ) ;
#16 = EDGE_LOOP ( 'NONE', ( #606, #334 ) ) ;
#17 = AXIS2_PLACEMENT_3D ( 'NONE', #259, #859, #255 ) ;
#18 = DIRECTION ( 'NONE',  ( 0.3438223837342489486, 0.9390347003403540782, 0.000000000000000000 ) ) ;
#19 = AXIS2_PLACEMENT_3D ( 'NONE', #7, #279, #445 ) ;
#20 = DIRECTION ( 'NONE',  ( 0.000000000000000000, 0.000000000000000000, -1.000000000000000000 ) ) ;
#21 =( NAMED_UNIT ( * ) SI_UNIT ( $, .STERADIAN. ) SOLID_ANGLE_UNIT ( ) );
#22 = ORIENTED_EDGE ( 'NONE', *, *, #1002, .F. ) ;
#23 = DIRECTION ( 'NONE',  ( -0.000000000000000000, -0.000000000000000000, 1.000000000000000000 ) ) ;
#24 = DIRECTION ( 'NONE',  ( -0.9390347003403544113, 0.3438223837342484490, 1.156482317317871971E-16 ) ) ;
#25 = PRESENTATION_STYLE_ASSIGNMENT (( #967 ) ) ;
#26 = EDGE_CURVE ( 'NONE', #170, #112, #431, .T. ) ;
#27 = ADVANCED_FACE ( 'NONE', ( #109 ), #709, .F. ) ;
#28 = EDGE_LOOP ( 'NONE', ( #554, #647, #512, #398, #706, #378, #152, #347, #774, #254, #1070, #342, #182, #45, #179 ) ) ;
#29 = DIRECTION ( 'NONE',  ( -0.4208786653179258930, 0.9071169434423553835, 8.177564888980732997E-17 ) ) ;
#30 = CARTESIAN_POINT ( 'NONE',  ( 0.000000000000000000, 0.000000000000000000, -12.00000000000000000 ) ) ;
#31 = DIRECTION ( 'NONE',  ( -0.000000000000000000, -0.000000000000000000, -1.000000000000000000 ) ) ;
#32 = EDGE_LOOP ( 'NONE', ( #310, #803, #925, #986, #638 ) ) ;
#33 = DIRECTION ( 'NONE',  ( -0.000000000000000000, -0.000000000000000000, 1.000000000000000000 ) ) ;
#34 = EDGE_CURVE ( 'NONE', #303, #252, #292, .T. ) ;
#35 = AXIS2_PLACEMENT_3D ( 'NONE', #155, #502, #328 ) ;
#36 = CARTESIAN_POINT ( 'NONE',  ( -0.1701547100088345310, -38.27494020079862480, -4.163336342344337027E-14 ) ) ;
#37 = AXIS2_PLACEMENT_3D ( 'NONE', #58, #400, #171 ) ;
#38 = DIRECTION ( 'NONE',  ( -1.000000000000000000, 0.000000000000000000, 0.000000000000000000 ) ) ;
#39 = ORIENTED_EDGE ( 'NONE', *, *, #646, .T. ) ;
#40 = FACE_OUTER_BOUND ( 'NONE', #975, .T. ) ;
#41 = DIRECTION ( 'NONE',  ( -0.3438223837342488931, -0.9390347003403541892, 0.000000000000000000 ) ) ;
#42 = AXIS2_PLACEMENT_3D ( 'NONE', #1028, #87, #681 ) ;
#43 = EDGE_CURVE ( 'NONE', #299, #1102, #974, .T. ) ;
#44 = DIRECTION ( 'NONE',  ( -1.000000000000000000, 0.000000000000000000, 0.000000000000000000 ) ) ;
#45 = ORIENTED_EDGE ( 'NONE', *, *, #309, .T. ) ;
#46 = PLANE ( 'NONE',  #42 ) ;
#47 = DIRECTION ( 'NONE',  ( -0.000000000000000000, -0.000000000000000000, 1.000000000000000000 ) ) ;
#48 = DIRECTION ( 'NONE',  ( 0.000000000000000000, 0.000000000000000000, -1.000000000000000000 ) ) ;
#49 = ADVANCED_FACE ( 'NONE', ( #985 ), #811, .T. ) ;
#50 = ORIENTED_EDGE ( 'NONE', *, *, #764, .F. ) ;
#51 = CARTESIAN_POINT ( 'NONE',  ( 8.902277329375777981, -30.94752749980057160, -4.163336342344309259E-14 ) ) ;
#52 = DIRECTION ( 'NONE',  ( -1.085977026291371086E-16, 3.976245070871082594E-17, -1.000000000000000000 ) ) ;
#53 = AXIS2_PLACEMENT_3D ( 'NONE', #1015, #133, #591 ) ;
#54 = DIRECTION ( 'NONE',  ( 0.000000000000000000, 0.000000000000000000, -1.000000000000000000 ) ) ;
#55 = PRESENTATION_LAYER_ASSIGNMENT (  '', '', ( #582 ) ) ;
#56 = ORIENTED_EDGE ( 'NONE', *, *, #528, .F. ) ;
#57 = DIRECTION ( 'NONE',  ( -0.000000000000000000, -0.000000000000000000, -1.000000000000000000 ) ) ;
#58 = CARTESIAN_POINT ( 'NONE',  ( -14.11390885230431458, -38.54737444896743881, -4.163336342344337027E-14 ) ) ;
#59 = DIRECTION ( 'NONE',  ( -1.000000000000000000, 0.000000000000000000, 0.000000000000000000 ) ) ;
#60 = ORIENTED_EDGE ( 'NONE', *, *, #43, .T. ) ;
#61 =( NAMED_UNIT ( * ) PLANE_ANGLE_UNIT ( ) SI_UNIT ( $, .RADIAN. ) );
#62 = ADVANCED_FACE ( 'NONE', ( #186 ), #559, .F. ) ;
#63 = VERTEX_POINT ( 'NONE', #1057 ) ;
#64 = CARTESIAN_POINT ( 'NONE',  ( -12.37760581443320618, -33.80524921225347867, -7.000000000000000000 ) ) ;
#65 = PLANE ( 'NONE',  #1047 ) ;
#66 = VERTEX_POINT ( 'NONE', #901 ) ;
#67 = CARTESIAN_POINT ( 'NONE',  ( 6.495520643236051050, -37.52077040218304660, -12.00000000000000000 ) ) ;
#68 = ORIENTED_EDGE ( 'NONE', *, *, #146, .T. ) ;
#69 = DIRECTION ( 'NONE',  ( 0.000000000000000000, 0.000000000000000000, -1.000000000000000000 ) ) ;
#70 = CIRCLE ( 'NONE', #193, 1.749999999989377164 ) ;
#71 = AXIS2_PLACEMENT_3D ( 'NONE', #1056, #718, #1066 ) ;
#72 = AXIS2_PLACEMENT_3D ( 'NONE', #451, #201, #440 ) ;
#73 = ORIENTED_EDGE ( 'NONE', *, *, #397, .T. ) ;
#74 = LINE ( 'NONE', #513, #289 ) ;
#75 = VERTEX_POINT ( 'NONE', #790 ) ;
#76 = CYLINDRICAL_SURFACE ( 'NONE', #561, 2.999999999989377386 ) ;
#77 = DIRECTION ( 'NONE',  ( 0.3438223837342482270, 0.9390347003403545223, 0.000000000000000000 ) ) ;
#78 = EDGE_CURVE ( 'NONE', #121, #514, #371, .T. ) ;
#79 = ADVANCED_FACE ( 'NONE', ( #629 ), #720, .F. ) ;
#80 = CIRCLE ( 'NONE', #727, 1.749999999986245225 ) ;
#81 = VERTEX_POINT ( 'NONE', #1069 ) ;
#82 = DIRECTION ( 'NONE',  ( -1.000000000000000000, 0.000000000000000000, 0.000000000000000000 ) ) ;
#83 = ORIENTED_EDGE ( 'NONE', *, *, #100, .T. ) ;
#84 = DIRECTION ( 'NONE',  ( -1.000000000000000000, 0.000000000000000000, 0.000000000000000000 ) ) ;
#85 = DIRECTION ( 'NONE',  ( -1.000000000000000000, 0.000000000000000000, 0.000000000000000000 ) ) ;
#86 = EDGE_CURVE ( 'NONE', #839, #278, #287, .T. ) ;
#87 = DIRECTION ( 'NONE',  ( 0.000000000000000000, 0.000000000000000000, -1.000000000000000000 ) ) ;
#88 = ORIENTED_EDGE ( 'NONE', *, *, #273, .F. ) ;
#89 = CARTESIAN_POINT ( 'NONE',  ( -17.11390885229055669, -38.54737444896743881, -3.500000000000000000 ) ) ;
#90 = CARTESIAN_POINT ( 'NONE',  ( -29.18779796969743501, -24.45551982028161220, -12.00000000000000000 ) ) ;
#91 = AXIS2_PLACEMENT_3D ( 'NONE', #277, #891, #726 ) ;
#92 = AXIS2_PLACEMENT_3D ( 'NONE', #623, #366, #452 ) ;
#93 = CIRCLE ( 'NONE', #602, 2.999999999989378274 ) ;
#94 = VERTEX_POINT ( 'NONE', #453 ) ;
#95 = FILL_AREA_STYLE ('',( #501 ) ) ;
#96 = CARTESIAN_POINT ( 'NONE',  ( 2.581895379025481940, -33.95797132120551254, -4.336808689942017736E-14 ) ) ;
#97 = AXIS2_PLACEMENT_3D ( 'NONE', #557, #206, #122 ) ;
#98 = EDGE_LOOP ( 'NONE', ( #534, #880 ) ) ;
#99 = CARTESIAN_POINT ( 'NONE',  ( -10.32938170374410092, 3.782046221076813985, -7.000000000000000000 ) ) ;
#100 = EDGE_CURVE ( 'NONE', #117, #187, #962, .T. ) ;
#101 = ORIENTED_EDGE ( 'NONE', *, *, #551, .F. ) ;
#102 = EDGE_LOOP ( 'NONE', ( #404, #1074, #546, #268 ) ) ;
#103 = CARTESIAN_POINT ( 'NONE',  ( 2.646949391012232145, -39.30640735200137215, -12.00000000000000000 ) ) ;
#104 = CARTESIAN_POINT ( 'NONE',  ( -14.11390885230431458, -38.54737444896743881, -7.500000000000000000 ) ) ;
#105 = CIRCLE ( 'NONE', #489, 4.950000000000000178 ) ;
#106 = VERTEX_POINT ( 'NONE', #924 ) ;
#107 = COLOUR_RGB ( '',0.000000000000000000, 1.000000000000000000, 1.000000000000000000 ) ;
#108 = DIRECTION ( 'NONE',  ( -1.000000000000000000, 0.000000000000000000, 0.000000000000000000 ) ) ;
#109 = FACE_OUTER_BOUND ( 'NONE', #467, .T. ) ;
#110 = ADVANCED_FACE ( 'NONE', ( #322, #484, #227, #396 ), #65, .T. ) ;
#111 = ADVANCED_FACE ( 'NONE', ( #238 ), #578, .F. ) ;
#112 = VERTEX_POINT ( 'NONE', #998 ) ;
#113 = DIRECTION ( 'NONE',  ( -1.085977026291371086E-16, 3.976245070871082594E-17, -1.000000000000000000 ) ) ;
#114 = FACE_OUTER_BOUND ( 'NONE', #858, .T. ) ;
#115 = VERTEX_POINT ( 'NONE', #834 ) ;
#116 = EDGE_CURVE ( 'NONE', #920, #336, #433, .T. ) ;
#117 = VERTEX_POINT ( 'NONE', #401 ) ;
#118 = DIRECTION ( 'NONE',  ( -0.4208786653179285020, 0.9071169434423541622, 0.000000000000000000 ) ) ;
#119 = DIRECTION ( 'NONE',  ( -0.9390347003403545223, 0.3438223837342483380, 0.000000000000000000 ) ) ;
#120 = DIRECTION ( 'NONE',  ( -0.000000000000000000, -0.000000000000000000, -1.000000000000000000 ) ) ;
#121 = VERTEX_POINT ( 'NONE', #743 ) ;
#122 = DIRECTION ( 'NONE',  ( -1.000000000000000000, 0.000000000000000000, 0.000000000000000000 ) ) ;
#123 = VECTOR ( 'NONE', #731, 1000.000000000000000 ) ;
#124 = ADVANCED_FACE ( 'NONE', ( #407 ), #232, .F. ) ;
#125 = CYLINDRICAL_SURFACE ( 'NONE', #919, 2.999999999989377386 ) ;
#126 = AXIS2_PLACEMENT_3D ( 'NONE', #660, #754, #230 ) ;
#127 = CARTESIAN_POINT ( 'NONE',  ( -11.11390885231807246, -38.54737444896743881, -12.00000000000000000 ) ) ;
#128 = ORIENTED_EDGE ( 'NONE', *, *, #297, .T. ) ;
#129 = CARTESIAN_POINT ( 'NONE',  ( -15.86390885229056025, -38.54737444896743881, 4.949747468277162277 ) ) ;
#130 = PRODUCT_DEFINITION_FORMATION_WITH_SPECIFIED_SOURCE ( 'ANY', '', #317, .NOT_KNOWN. ) ;
#131 = ADVANCED_FACE ( 'NONE', ( #298 ), #479, .F. ) ;
#132 = CARTESIAN_POINT ( 'NONE',  ( 0.000000000000000000, 0.000000000000000000, -2.000000000000000000 ) ) ;
#133 = DIRECTION ( 'NONE',  ( 0.000000000000000000, 0.000000000000000000, -1.000000000000000000 ) ) ;
#134 = ORIENTED_EDGE ( 'NONE', *, *, #608, .T. ) ;
#135 = DIRECTION ( 'NONE',  ( 0.9071169434423553835, 0.4208786653179258930, 0.000000000000000000 ) ) ;
#136 = ORIENTED_EDGE ( 'NONE', *, *, #878, .T. ) ;
#137 = DIRECTION ( 'NONE',  ( -0.000000000000000000, -0.000000000000000000, 1.000000000000000000 ) ) ;
#138 = UNCERTAINTY_MEASURE_WITH_UNIT (LENGTH_MEASURE( 1.000000000000000082E-05 ), #671, 'distance_accuracy_value', 'NONE');
#139 = CARTESIAN_POINT ( 'NONE',  ( 0.000000000000000000, 0.000000000000000000, -2.000000000000000000 ) ) ;
#140 = ORIENTED_EDGE ( 'NONE', *, *, #389, .T. ) ;
#141 = DIRECTION ( 'NONE',  ( 0.000000000000000000, 0.000000000000000000, -1.000000000000000000 ) ) ;
#142 = DIRECTION ( 'NONE',  ( 0.000000000000000000, 0.000000000000000000, -1.000000000000000000 ) ) ;
#143 = VECTOR ( 'NONE', #1041, 1000.000000000000000 ) ;
#144 = FACE_OUTER_BOUND ( 'NONE', #164, .T. ) ;
#145 = CIRCLE ( 'NONE', #1101, 2.999999999989378274 ) ;
#146 = EDGE_CURVE ( 'NONE', #552, #895, #953, .T. ) ;
#147 = ORIENTED_EDGE ( 'NONE', *, *, #442, .F. ) ;
#148 = ORIENTED_EDGE ( 'NONE', *, *, #608, .F. ) ;
#149 = DIRECTION ( 'NONE',  ( -1.000000000000000000, 0.000000000000000000, -0.000000000000000000 ) ) ;
#150 = DIRECTION ( 'NONE',  ( -1.000000000000000000, 0.000000000000000000, 0.000000000000000000 ) ) ;
#151 = VECTOR ( 'NONE', #428, 1000.000000000000227 ) ;
#152 = ORIENTED_EDGE ( 'NONE', *, *, #633, .T. ) ;
#153 = APPLICATION_PROTOCOL_DEFINITION ( 'draft international standard', 'automotive_design', 1998, #482 ) ;
#154 = ORIENTED_EDGE ( 'NONE', *, *, #845, .F. ) ;
#155 = CARTESIAN_POINT ( 'NONE',  ( -15.79863853258898310, -43.14864448064001579, -7.000000000000000000 ) ) ;
#156 = VERTEX_POINT ( 'NONE', #650 ) ;
#157 = DIRECTION ( 'NONE',  ( -0.000000000000000000, -0.000000000000000000, -1.000000000000000000 ) ) ;
#158 = EDGE_LOOP ( 'NONE', ( #236, #922, #963, #166 ) ) ;
#159 = DIRECTION ( 'NONE',  ( 0.000000000000000000, 0.000000000000000000, -1.000000000000000000 ) ) ;
#160 = EDGE_CURVE ( 'NONE', #741, #203, #847, .T. ) ;
#161 = DIRECTION ( 'NONE',  ( -0.9390347003403544113, 0.3438223837342483935, 1.156482317317871971E-16 ) ) ;
#162 = VECTOR ( 'NONE', #497, 1000.000000000000000 ) ;
#163 = VECTOR ( 'NONE', #181, 1000.000000000000000 ) ;
#164 = EDGE_LOOP ( 'NONE', ( #693, #1107, #697, #1112 ) ) ;
#165 = CARTESIAN_POINT ( 'NONE',  ( 6.495520643236041280, -37.52077040218305370, -4.163336342344337027E-14 ) ) ;
#166 = ORIENTED_EDGE ( 'NONE', *, *, #272, .F. ) ;
#167 = ADVANCED_FACE ( 'NONE', ( #144 ), #1090, .F. ) ;
#168 = CARTESIAN_POINT ( 'NONE',  ( 4.309478828295825181, 0.6268552596521423936, -2.000000000000000000 ) ) ;
#169 = DIRECTION ( 'NONE',  ( -0.000000000000000000, -0.000000000000000000, -1.000000000000000000 ) ) ;
#170 = VERTEX_POINT ( 'NONE', #912 ) ;
#171 = DIRECTION ( 'NONE',  ( -1.000000000000000000, 0.000000000000000000, 1.085977026291382056E-16 ) ) ;
#172 = DIRECTION ( 'NONE',  ( -0.9390347003403544113, 0.3438223837342481715, 0.000000000000000000 ) ) ;
#173 = ORIENTED_EDGE ( 'NONE', *, *, #551, .T. ) ;
#174 = LINE ( 'NONE', #89, #267 ) ;
#175 = DIRECTION ( 'NONE',  ( 1.085977026291371086E-16, -3.976245070871082594E-17, 1.000000000000000000 ) ) ;
#176 = AXIS2_PLACEMENT_3D ( 'NONE', #782, #77, #172 ) ;
#177 = SHAPE_DEFINITION_REPRESENTATION ( #503, #791 ) ;
#178 = AXIS2_PLACEMENT_3D ( 'NONE', #224, #915, #905 ) ;
#179 = ORIENTED_EDGE ( 'NONE', *, *, #34, .T. ) ;
#180 = LINE ( 'NONE', #717, #233 ) ;
#181 = DIRECTION ( 'NONE',  ( -0.000000000000000000, -0.000000000000000000, -1.000000000000000000 ) ) ;
#182 = ORIENTED_EDGE ( 'NONE', *, *, #528, .T. ) ;
#183 = ORIENTED_EDGE ( 'NONE', *, *, #241, .T. ) ;
#184 = LINE ( 'NONE', #11, #641 ) ;
#185 = CARTESIAN_POINT ( 'NONE',  ( 17.84165930646650722, -6.532625290950634600, -7.000000000000000000 ) ) ;
#186 = FACE_OUTER_BOUND ( 'NONE', #464, .T. ) ;
#187 = VERTEX_POINT ( 'NONE', #666 ) ;
#188 = CARTESIAN_POINT ( 'NONE',  ( -23.39463228564583375, -31.90127239185738972, -4.163336342344337027E-14 ) ) ;
#189 = EDGE_CURVE ( 'NONE', #112, #367, #312, .T. ) ;
#190 = FACE_OUTER_BOUND ( 'NONE', #455, .T. ) ;
#191 = EDGE_CURVE ( 'NONE', #879, #1103, #560, .T. ) ;
#192 = ORIENTED_EDGE ( 'NONE', *, *, #78, .F. ) ;
#193 = AXIS2_PLACEMENT_3D ( 'NONE', #96, #175, #1111 ) ;
#194 = ORIENTED_EDGE ( 'NONE', *, *, #293, .T. ) ;
#195 = MECHANICAL_DESIGN_GEOMETRIC_PRESENTATION_REPRESENTATION (  '', ( #582 ), #973 ) ;
#196 = CARTESIAN_POINT ( 'NONE',  ( -23.89888317056918865, -24.26218009989058899, -12.00000000000000000 ) ) ;
#197 = EDGE_CURVE ( 'NONE', #1073, #958, #507, .T. ) ;
#198 = CARTESIAN_POINT ( 'NONE',  ( -29.18779796969743856, -24.45551982028161220, -7.000000000000000000 ) ) ;
#199 = ORIENTED_EDGE ( 'NONE', *, *, #499, .T. ) ;
#200 = CIRCLE ( 'NONE', #474, 3.000000000000002220 ) ;
#201 = DIRECTION ( 'NONE',  ( 0.000000000000000000, 0.000000000000000000, -1.000000000000000000 ) ) ;
#202 = LINE ( 'NONE', #956, #163 ) ;
#203 = VERTEX_POINT ( 'NONE', #127 ) ;
#204 = ADVANCED_FACE ( 'NONE', ( #657 ), #661, .T. ) ;
#205 = EDGE_LOOP ( 'NONE', ( #913, #943, #88, #154, #50, #247, #419, #772, #778, #1018, #6, #1054 ) ) ;
#206 = DIRECTION ( 'NONE',  ( -0.000000000000000000, -0.000000000000000000, -1.000000000000000000 ) ) ;
#207 = CARTESIAN_POINT ( 'NONE',  ( -26.78104128355770186, -17.88227691789913010, -4.163336342344337027E-14 ) ) ;
#208 = DIRECTION ( 'NONE',  ( 0.2431191390622111370, 0.6639978043801444407, 0.7071067811865451302 ) ) ;
#209 = EDGE_CURVE ( 'NONE', #429, #1098, #736, .T. ) ;
#210 = VERTEX_POINT ( 'NONE', #990 ) ;
#211 = CARTESIAN_POINT ( 'NONE',  ( 5.581895379014859770, -33.95797132120551254, -12.00000000000000000 ) ) ;
#212 = AXIS2_PLACEMENT_3D ( 'NONE', #352, #31, #38 ) ;
#213 = CIRCLE ( 'NONE', #434, 4.950000000000000178 ) ;
#214 = FACE_OUTER_BOUND ( 'NONE', #852, .T. ) ;
#215 = CIRCLE ( 'NONE', #851, 2.999999999989872101 ) ;
#216 = DIRECTION ( 'NONE',  ( -0.000000000000000000, -0.000000000000000000, -1.000000000000000000 ) ) ;
#217 = ORIENTED_EDGE ( 'NONE', *, *, #550, .T. ) ;
#218 = CARTESIAN_POINT ( 'NONE',  ( 10.32938170374369058, -3.782046221076662107, -7.000000000000000000 ) ) ;
#219 = AXIS2_PLACEMENT_3D ( 'NONE', #740, #648, #1088 ) ;
#220 = DIRECTION ( 'NONE',  ( -0.000000000000000000, -0.000000000000000000, -1.000000000000000000 ) ) ;
#221 = DIRECTION ( 'NONE',  ( -0.000000000000000000, -0.000000000000000000, -1.000000000000000000 ) ) ;
#222 = ORIENTED_EDGE ( 'NONE', *, *, #523, .F. ) ;
#223 = CARTESIAN_POINT ( 'NONE',  ( -27.40216101987912012, -28.30409107250541823, -7.000000000000000000 ) ) ;
#224 = CARTESIAN_POINT ( 'NONE',  ( -14.11390885230431458, -38.54737444896743881, 4.949747468277162277 ) ) ;
#225 = EDGE_CURVE ( 'NONE', #1098, #115, #105, .T. ) ;
#226 = EDGE_CURVE ( 'NONE', #1103, #879, #70, .T. ) ;
#227 = FACE_BOUND ( 'NONE', #16, .T. ) ;
#228 = EDGE_LOOP ( 'NONE', ( #952, #658 ) ) ;
#229 = DIRECTION ( 'NONE',  ( -0.4208786653179258930, 0.9071169434423553835, 0.000000000000000000 ) ) ;
#230 = DIRECTION ( 'NONE',  ( -1.000000000000000000, 0.000000000000000000, 0.000000000000000000 ) ) ;
#231 = VECTOR ( 'NONE', #1072, 1000.000000000000114 ) ;
#232 = CYLINDRICAL_SURFACE ( 'NONE', #759, 1.749999999989377164 ) ;
#233 = VECTOR ( 'NONE', #358, 1000.000000000000000 ) ;
#234 = EDGE_CURVE ( 'NONE', #712, #596, #1083, .T. ) ;
#235 = EDGE_LOOP ( 'NONE', ( #173, #865, #39, #1079 ) ) ;
#236 = ORIENTED_EDGE ( 'NONE', *, *, #665, .T. ) ;
#237 = CYLINDRICAL_SURFACE ( 'NONE', #703, 4.950000000000000178 ) ;
#238 = FACE_OUTER_BOUND ( 'NONE', #487, .T. ) ;
#239 = AXIS2_PLACEMENT_3D ( 'NONE', #597, #1012, #939 ) ;
#240 = EDGE_LOOP ( 'NONE', ( #402, #586, #662, #819, #330, #1023 ) ) ;
#241 = EDGE_CURVE ( 'NONE', #944, #306, #737, .T. ) ;
#242 = CARTESIAN_POINT ( 'NONE',  ( 0.8318953790361046652, -33.95797132120551254, -4.317804091982033974E-14 ) ) ;
#243 = VERTEX_POINT ( 'NONE', #869 ) ;
#244 = LINE ( 'NONE', #349, #971 ) ;
#245 = ORIENTED_EDGE ( 'NONE', *, *, #146, .F. ) ;
#246 = CYLINDRICAL_SURFACE ( 'NONE', #239, 3.000000000000001776 ) ;
#247 = ORIENTED_EDGE ( 'NONE', *, *, #100, .F. ) ;
#248 = CARTESIAN_POINT ( 'NONE',  ( 8.902277329375779757, -30.94752749980057160, -7.000000000000000000 ) ) ;
#249 = CARTESIAN_POINT ( 'NONE',  ( -15.86390885229056025, -38.54737444896743881, -4.144331744384387343E-14 ) ) ;
#250 = AXIS2_PLACEMENT_3D ( 'NONE', #425, #1117, #613 ) ;
#251 = VECTOR ( 'NONE', #41, 1000.000000000000114 ) ;
#252 = VERTEX_POINT ( 'NONE', #603 ) ;
#253 = CARTESIAN_POINT ( 'NONE',  ( -2.735868878158038253, -39.46536483401086315, -12.00000000000000000 ) ) ;
#254 = ORIENTED_EDGE ( 'NONE', *, *, #197, .T. ) ;
#255 = DIRECTION ( 'NONE',  ( -0.9390347003402372827, 0.3438223837345684708, 1.156482317317871971E-16 ) ) ;
#256 = CARTESIAN_POINT ( 'NONE',  ( -27.40216101987912367, -28.30409107250541467, -4.163336342344337027E-14 ) ) ;
#257 = CARTESIAN_POINT ( 'NONE',  ( 0.000000000000000000, 0.000000000000000000, 4.500000000000000000 ) ) ;
#258 = ORIENTED_EDGE ( 'NONE', *, *, #785, .T. ) ;
#259 = CARTESIAN_POINT ( 'NONE',  ( -2.748143767214655042E-16, 2.668971531891348629E-15, -4.163336342344337027E-14 ) ) ;
#260 = CARTESIAN_POINT ( 'NONE',  ( 0.000000000000000000, 0.000000000000000000, -2.000000000000000000 ) ) ;
#261 = EDGE_CURVE ( 'NONE', #1115, #514, #1020, .T. ) ;
#262 =( NAMED_UNIT ( * ) PLANE_ANGLE_UNIT ( ) SI_UNIT ( $, .RADIAN. ) );
#263 = ORIENTED_EDGE ( 'NONE', *, *, #1086, .F. ) ;
#264 = DIRECTION ( 'NONE',  ( 0.000000000000000000, 0.000000000000000000, -1.000000000000000000 ) ) ;
#265 = CARTESIAN_POINT ( 'NONE',  ( -23.89888317056918865, -24.26218009989058899, -3.989863994746656317E-14 ) ) ;
#266 = AXIS2_PLACEMENT_3D ( 'NONE', #30, #972, #809 ) ;
#267 = VECTOR ( 'NONE', #590, 1000.000000000000000 ) ;
#268 = ORIENTED_EDGE ( 'NONE', *, *, #86, .F. ) ;
#269 = DIRECTION ( 'NONE',  ( -1.000000000000000000, 0.000000000000000000, 0.000000000000000000 ) ) ;
#270 = DIRECTION ( 'NONE',  ( -1.000000000000000000, 0.000000000000000000, 0.000000000000000000 ) ) ;
#271 = AXIS2_PLACEMENT_3D ( 'NONE', #994, #135, #229 ) ;
#272 = EDGE_CURVE ( 'NONE', #410, #1073, #415, .T. ) ;
#273 = EDGE_CURVE ( 'NONE', #357, #529, #1025, .T. ) ;
#274 = ORIENTED_EDGE ( 'NONE', *, *, #1032, .T. ) ;
#275 = DIRECTION ( 'NONE',  ( -0.000000000000000000, -0.000000000000000000, -1.000000000000000000 ) ) ;
#276 = CARTESIAN_POINT ( 'NONE',  ( 2.581895379025481940, -33.95797132120551254, -12.00000000000000000 ) ) ;
#277 = CARTESIAN_POINT ( 'NONE',  ( 0.000000000000000000, 0.000000000000000000, 4.500000000000000000 ) ) ;
#278 = VERTEX_POINT ( 'NONE', #4 ) ;
#279 = DIRECTION ( 'NONE',  ( 0.000000000000000000, 0.000000000000000000, -1.000000000000000000 ) ) ;
#280 = DIRECTION ( 'NONE',  ( 0.000000000000000000, 0.000000000000000000, 1.000000000000000000 ) ) ;
#281 = LINE ( 'NONE', #636, #970 ) ;
#282 = AXIS2_PLACEMENT_3D ( 'NONE', #537, #634, #961 ) ;
#283 = VERTEX_POINT ( 'NONE', #609 ) ;
#284 = CIRCLE ( 'NONE', #884, 1.749999999989877653 ) ;
#285 = CARTESIAN_POINT ( 'NONE',  ( -26.78104128355769831, -17.88227691789912654, -12.00000000000000000 ) ) ;
#286 = PLANE ( 'NONE',  #449 ) ;
#287 = LINE ( 'NONE', #979, #689 ) ;
#288 = ORIENTED_EDGE ( 'NONE', *, *, #550, .F. ) ;
#289 = VECTOR ( 'NONE', #341, 1000.000000000000000 ) ;
#290 = PLANE ( 'NONE',  #695 ) ;
#291 = PLANE ( 'NONE',  #1029 ) ;
#292 = LINE ( 'NONE', #443, #918 ) ;
#293 = EDGE_CURVE ( 'NONE', #106, #203, #763, .T. ) ;
#294 = ORIENTED_EDGE ( 'NONE', *, *, #620, .F. ) ;
#295 = DIRECTION ( 'NONE',  ( -1.000000000000000000, 0.000000000000000000, 0.000000000000000000 ) ) ;
#296 = FACE_OUTER_BOUND ( 'NONE', #313, .T. ) ;
#297 = EDGE_CURVE ( 'NONE', #1073, #1043, #942, .T. ) ;
#298 = FACE_OUTER_BOUND ( 'NONE', #235, .T. ) ;
#299 = VERTEX_POINT ( 'NONE', #90 ) ;
#300 = DIRECTION ( 'NONE',  ( -0.9390347003403543003, 0.3438223837342488931, 0.000000000000000000 ) ) ;
#301 = VECTOR ( 'NONE', #14, 1000.000000000000000 ) ;
#302 = CIRCLE ( 'NONE', #1067, 1.749999999989877653 ) ;
#303 = VERTEX_POINT ( 'NONE', #775 ) ;
#304 = DIRECTION ( 'NONE',  ( -0.000000000000000000, -0.000000000000000000, 1.000000000000000000 ) ) ;
#305 = DIRECTION ( 'NONE',  ( 0.000000000000000000, 0.000000000000000000, -1.000000000000000000 ) ) ;
#306 = VERTEX_POINT ( 'NONE', #249 ) ;
#307 = DIRECTION ( 'NONE',  ( -0.000000000000000000, -0.000000000000000000, -1.000000000000000000 ) ) ;
#308 = EDGE_CURVE ( 'NONE', #716, #1098, #860, .T. ) ;
#309 = EDGE_CURVE ( 'NONE', #831, #303, #244, .T. ) ;
#310 = ORIENTED_EDGE ( 'NONE', *, *, #308, .F. ) ;
#311 = DIRECTION ( 'NONE',  ( 1.085977026291371086E-16, -3.976245070871082594E-17, 1.000000000000000000 ) ) ;
#312 = LINE ( 'NONE', #387, #162 ) ;
#313 = EDGE_LOOP ( 'NONE', ( #750, #258 ) ) ;
#314 = CARTESIAN_POINT ( 'NONE',  ( 0.8318953790361037770, -33.95797132120551254, -7.500000000000000000 ) ) ;
#315 = DIRECTION ( 'NONE',  ( -0.000000000000000000, -0.000000000000000000, -1.000000000000000000 ) ) ;
#316 = DIRECTION ( 'NONE',  ( -0.000000000000000000, -0.000000000000000000, -1.000000000000000000 ) ) ;
#317 = PRODUCT ( '009_003_Left_right_connector_bearing_grip', '009_003_Left_right_connector_bearing_grip', '', ( #630 ) ) ;
#318 = ORIENTED_EDGE ( 'NONE', *, *, #957, .T. ) ;
#319 = CYLINDRICAL_SURFACE ( 'NONE', #1037, 4.950000000000000178 ) ;
#320 = EDGE_LOOP ( 'NONE', ( #673, #798, #823, #928 ) ) ;
#321 = AXIS2_PLACEMENT_3D ( 'NONE', #841, #906, #59 ) ;
#322 = FACE_BOUND ( 'NONE', #844, .T. ) ;
#323 = VECTOR ( 'NONE', #304, 1000.000000000000000 ) ;
#324 = ORIENTED_EDGE ( 'NONE', *, *, #829, .T. ) ;
#325 = DIRECTION ( 'NONE',  ( -1.000000000000000000, 0.000000000000000000, 0.000000000000000000 ) ) ;
#326 = ORIENTED_EDGE ( 'NONE', *, *, #116, .F. ) ;
#327 =( NAMED_UNIT ( * ) PLANE_ANGLE_UNIT ( ) SI_UNIT ( $, .RADIAN. ) );
#328 = DIRECTION ( 'NONE',  ( -0.9390347003403543003, 0.3438223837342483935, 0.000000000000000000 ) ) ;
#329 = ADVANCED_FACE ( 'NONE', ( #510 ), #1105, .F. ) ;
#330 = ORIENTED_EDGE ( 'NONE', *, *, #209, .F. ) ;
#331 = LINE ( 'NONE', #403, #1106 ) ;
#332 = EDGE_LOOP ( 'NONE', ( #506, #949, #423, #539 ) ) ;
#333 = DIRECTION ( 'NONE',  ( 1.085977026291371086E-16, -3.976245070871082594E-17, 1.000000000000000000 ) ) ;
#334 = ORIENTED_EDGE ( 'NONE', *, *, #864, .F. ) ;
#335 = LINE ( 'NONE', #1114, #818 ) ;
#336 = VERTEX_POINT ( 'NONE', #522 ) ;
#337 = DIRECTION ( 'NONE',  ( -0.000000000000000000, -0.000000000000000000, 1.000000000000000000 ) ) ;
#338 = LINE ( 'NONE', #696, #143 ) ;
#339 = VECTOR ( 'NONE', #8, 1000.000000000000227 ) ;
#340 = AXIS2_PLACEMENT_3D ( 'NONE', #132, #142, #491 ) ;
#341 = DIRECTION ( 'NONE',  ( -0.000000000000000000, -0.000000000000000000, -1.000000000000000000 ) ) ;
#342 = ORIENTED_EDGE ( 'NONE', *, *, #951, .T. ) ;
#343 = CARTESIAN_POINT ( 'NONE',  ( 2.581895379025481940, -33.95797132120551254, -7.500000000000000000 ) ) ;
#344 = EDGE_CURVE ( 'NONE', #920, #66, #936, .T. ) ;
#345 = DIRECTION ( 'NONE',  ( 0.000000000000000000, 0.000000000000000000, -1.000000000000000000 ) ) ;
#346 = COLOUR_RGB ( '',0.000000000000000000, 1.000000000000000000, 1.000000000000000000 ) ;
#347 = ORIENTED_EDGE ( 'NONE', *, *, #519, .T. ) ;
#348 = DIRECTION ( 'NONE',  ( -0.4208786653179372172, 0.9071169434423501654, 0.000000000000000000 ) ) ;
#349 = CARTESIAN_POINT ( 'NONE',  ( -5.469256828845310281, -46.93069070171666368, -12.00000000000000000 ) ) ;
#350 = EDGE_LOOP ( 'NONE', ( #417, #364, #739, #68 ) ) ;
#351 = DIRECTION ( 'NONE',  ( -1.000000000000000000, 0.000000000000000000, 0.000000000000000000 ) ) ;
#352 = CARTESIAN_POINT ( 'NONE',  ( -14.11390885230431458, -38.54737444896743881, 4.949747468277162277 ) ) ;
#353 = AXIS2_PLACEMENT_3D ( 'NONE', #1052, #966, #270 ) ;
#354 = ADVANCED_FACE ( 'NONE', ( #595 ), #432, .F. ) ;
#355 = CIRCLE ( 'NONE', #37, 1.749999999986245225 ) ;
#356 = AXIS2_PLACEMENT_3D ( 'NONE', #365, #275, #351 ) ;
#357 = VERTEX_POINT ( 'NONE', #770 ) ;
#358 = DIRECTION ( 'NONE',  ( -0.000000000000000000, -0.000000000000000000, -1.000000000000000000 ) ) ;
#359 = DIRECTION ( 'NONE',  ( -0.3438223837342482825, -0.9390347003403544113, 0.000000000000000000 ) ) ;
#360 = DIRECTION ( 'NONE',  ( -1.000000000000000000, 0.000000000000000000, 0.000000000000000000 ) ) ;
#361 = AXIS2_PLACEMENT_3D ( 'NONE', #1, #587, #82 ) ;
#362 = EDGE_CURVE ( 'NONE', #156, #874, #668, .T. ) ;
#363 = CARTESIAN_POINT ( 'NONE',  ( 0.000000000000000000, 0.000000000000000000, 0.000000000000000000 ) ) ;
#364 = ORIENTED_EDGE ( 'NONE', *, *, #680, .F. ) ;
#365 = CARTESIAN_POINT ( 'NONE',  ( 2.581895379025481940, -33.95797132120551254, 4.949747468277162277 ) ) ;
#366 = DIRECTION ( 'NONE',  ( 0.000000000000000000, 0.000000000000000000, -1.000000000000000000 ) ) ;
#367 = VERTEX_POINT ( 'NONE', #421 ) ;
#368 = ORIENTED_EDGE ( 'NONE', *, *, #711, .F. ) ;
#369 = CARTESIAN_POINT ( 'NONE',  ( 4.331895379014858882, -33.95797132120551254, -4.355813287902001498E-14 ) ) ;
#370 = CARTESIAN_POINT ( 'NONE',  ( 4.648221766684756950, -1.701920799484525126, -12.00000000000000000 ) ) ;
#371 = LINE ( 'NONE', #796, #301 ) ;
#372 = AXIS2_PLACEMENT_3D ( 'NONE', #458, #1061, #806 ) ;
#373 = ORIENTED_EDGE ( 'NONE', *, *, #446, .F. ) ;
#374 = VECTOR ( 'NONE', #793, 1000.000000000000114 ) ;
#375 = DIRECTION ( 'NONE',  ( -0.3438223837342488376, -0.9390347003403541892, 0.000000000000000000 ) ) ;
#376 = EDGE_CURVE ( 'NONE', #839, #357, #338, .T. ) ;
#377 = DIRECTION ( 'NONE',  ( 1.000000000000000000, 0.000000000000000000, -0.000000000000000000 ) ) ;
#378 = ORIENTED_EDGE ( 'NONE', *, *, #427, .T. ) ;
#379 = VERTEX_POINT ( 'NONE', #36 ) ;
#380 = PRESENTATION_LAYER_ASSIGNMENT (  '', '', ( #494 ) ) ;
#381 = CARTESIAN_POINT ( 'NONE',  ( -12.36390885231807069, -38.54737444896743881, -4.182340940304286710E-14 ) ) ;
#382 = CARTESIAN_POINT ( 'NONE',  ( -27.40216101987911657, -28.30409107250541823, -4.163336342344337027E-14 ) ) ;
#383 = CARTESIAN_POINT ( 'NONE',  ( 4.648221766684756062, -1.701920799484527569, -7.000000000000000000 ) ) ;
#384 = ORIENTED_EDGE ( 'NONE', *, *, #388, .T. ) ;
#385 = DIRECTION ( 'NONE',  ( -1.000000000000000000, 0.000000000000000000, 0.000000000000000000 ) ) ;
#386 = CARTESIAN_POINT ( 'NONE',  ( 4.648221766684756062, -1.701920799484527125, -12.00000000000000000 ) ) ;
#387 = CARTESIAN_POINT ( 'NONE',  ( 4.950000000000000178, 6.062001655779398511E-16, 4.500000000000000000 ) ) ;
#388 = EDGE_CURVE ( 'NONE', #336, #920, #779, .T. ) ;
#389 = EDGE_CURVE ( 'NONE', #944, #761, #462, .T. ) ;
#390 = ORIENTED_EDGE ( 'NONE', *, *, #571, .T. ) ;
#391 = DIRECTION ( 'NONE',  ( -0.000000000000000000, -0.000000000000000000, 1.000000000000000000 ) ) ;
#392 = VECTOR ( 'NONE', #161, 1000.000000000000000 ) ;
#393 = AXIS2_PLACEMENT_3D ( 'NONE', #496, #52, #405 ) ;
#394 = ORIENTED_EDGE ( 'NONE', *, *, #600, .F. ) ;
#395 = LINE ( 'NONE', #1094, #251 ) ;
#396 = FACE_BOUND ( 'NONE', #562, .T. ) ;
#397 = EDGE_CURVE ( 'NONE', #504, #892, #581, .T. ) ;
#398 = ORIENTED_EDGE ( 'NONE', *, *, #600, .T. ) ;
#399 = DIRECTION ( 'NONE',  ( 0.9390347003403544113, -0.3438223837342483935, -1.156482317317871971E-16 ) ) ;
#400 = DIRECTION ( 'NONE',  ( 1.085977026291371086E-16, -3.976245070871082594E-17, 1.000000000000000000 ) ) ;
#401 = CARTESIAN_POINT ( 'NONE',  ( -5.469256828845310281, -46.93069070171666368, -4.163336342344337027E-14 ) ) ;
#402 = ORIENTED_EDGE ( 'NONE', *, *, #189, .F. ) ;
#403 = CARTESIAN_POINT ( 'NONE',  ( -10.71141746695362151, -3.663090346191347546, -18.87740596778478519 ) ) ;
#404 = ORIENTED_EDGE ( 'NONE', *, *, #376, .T. ) ;
#405 = DIRECTION ( 'NONE',  ( -1.000000000000000000, 0.000000000000000000, 1.085977026291366279E-16 ) ) ;
#406 = ADVANCED_FACE ( 'NONE', ( #114 ), #714, .T. ) ;
#407 = FACE_OUTER_BOUND ( 'NONE', #1000, .T. ) ;
#408 = ORIENTED_EDGE ( 'NONE', *, *, #1078, .F. ) ;
#409 = FILL_AREA_STYLE_COLOUR ( '', #346 ) ;
#410 = VERTEX_POINT ( 'NONE', #800 ) ;
#411 = AXIS2_PLACEMENT_3D ( 'NONE', #916, #48, #44 ) ;
#412 = CARTESIAN_POINT ( 'NONE',  ( -4.950000000000000178, 0.000000000000000000, 4.500000000000000000 ) ) ;
#413 = VECTOR ( 'NONE', #3, 1000.000000000000000 ) ;
#414 = EDGE_CURVE ( 'NONE', #81, #117, #894, .T. ) ;
#415 = LINE ( 'NONE', #691, #882 ) ;
#416 = AXIS2_PLACEMENT_3D ( 'NONE', #540, #348, #893 ) ;
#417 = ORIENTED_EDGE ( 'NONE', *, *, #477, .F. ) ;
#418 = SURFACE_SIDE_STYLE ('',( #849 ) ) ;
#419 = ORIENTED_EDGE ( 'NONE', *, *, #414, .F. ) ;
#420 = DIRECTION ( 'NONE',  ( 0.000000000000000000, 0.000000000000000000, -1.000000000000000000 ) ) ;
#421 = CARTESIAN_POINT ( 'NONE',  ( 4.950000000000000178, 6.062001655779398511E-16, -12.00000000000000000 ) ) ;
#422 = ORIENTED_EDGE ( 'NONE', *, *, #116, .T. ) ;
#423 = ORIENTED_EDGE ( 'NONE', *, *, #446, .T. ) ;
#424 = FACE_OUTER_BOUND ( 'NONE', #350, .T. ) ;
#425 = CARTESIAN_POINT ( 'NONE',  ( -14.11390885230431458, -38.54737444896743881, -4.163336342344337027E-14 ) ) ;
#426 = ADVANCED_FACE ( 'NONE', ( #883 ), #441, .F. ) ;
#427 = EDGE_CURVE ( 'NONE', #1115, #367, #756, .T. ) ;
#428 = DIRECTION ( 'NONE',  ( -0.9390347003403544113, 0.3438223837342482270, 1.156482317317871971E-16 ) ) ;
#429 = VERTEX_POINT ( 'NONE', #370 ) ;
#430 = CARTESIAN_POINT ( 'NONE',  ( 9.589922096844276211, -29.06945809911985634, -2.000000000000000000 ) ) ;
#431 = CIRCLE ( 'NONE', #91, 4.950000000000000178 ) ;
#432 = PLANE ( 'NONE',  #176 ) ;
#433 = CIRCLE ( 'NONE', #321, 2.999999999989872101 ) ;
#434 = AXIS2_PLACEMENT_3D ( 'NONE', #1039, #159, #437 ) ;
#435 = ADVANCED_FACE ( 'NONE', ( #190, #1060 ), #872, .T. ) ;
#436 = EDGE_LOOP ( 'NONE', ( #288, #792, #274, #493 ) ) ;
#437 = DIRECTION ( 'NONE',  ( -1.000000000000000000, 0.000000000000000000, 0.000000000000000000 ) ) ;
#438 = DIRECTION ( 'NONE',  ( -0.3438223837342475053, -0.9390347003403547443, 0.000000000000000000 ) ) ;
#439 = ORIENTED_EDGE ( 'NONE', *, *, #389, .F. ) ;
#440 = DIRECTION ( 'NONE',  ( -1.000000000000000000, 0.000000000000000000, 0.000000000000000000 ) ) ;
#441 = PLANE ( 'NONE',  #866 ) ;
#442 = EDGE_CURVE ( 'NONE', #203, #741, #738, .T. ) ;
#443 = CARTESIAN_POINT ( 'NONE',  ( -26.12802023633310711, -39.36659825956319025, -12.00000000000000000 ) ) ;
#444 = VERTEX_POINT ( 'NONE', #702 ) ;
#445 = DIRECTION ( 'NONE',  ( -1.000000000000000000, 0.000000000000000000, 0.000000000000000000 ) ) ;
#446 = EDGE_CURVE ( 'NONE', #895, #552, #145, .T. ) ;
#447 = DIRECTION ( 'NONE',  ( -0.000000000000000000, -0.000000000000000000, 1.000000000000000000 ) ) ;
#448 = AXIS2_PLACEMENT_3D ( 'NONE', #749, #221, #1095 ) ;
#449 = AXIS2_PLACEMENT_3D ( 'NONE', #617, #977, #965 ) ;
#450 = ORIENTED_EDGE ( 'NONE', *, *, #241, .F. ) ;
#451 = CARTESIAN_POINT ( 'NONE',  ( -14.11390885230431458, -38.54737444896743881, -7.500000000000000000 ) ) ;
#452 = DIRECTION ( 'NONE',  ( -1.000000000000000000, 0.000000000000000000, 0.000000000000000000 ) ) ;
#453 = CARTESIAN_POINT ( 'NONE',  ( -0.1701547100088351971, -38.27494020079862480, -12.00000000000000000 ) ) ;
#454 =( GEOMETRIC_REPRESENTATION_CONTEXT ( 3 ) GLOBAL_UNCERTAINTY_ASSIGNED_CONTEXT ( ( #1068 ) ) GLOBAL_UNIT_ASSIGNED_CONTEXT ( ( #625, #262, #21 ) ) REPRESENTATION_CONTEXT ( 'NONE', 'WORKASPACE' ) );
#455 = EDGE_LOOP ( 'NONE', ( #384, #422 ) ) ;
#456 = DIRECTION ( 'NONE',  ( -1.000000000000000000, 0.000000000000000000, 1.085977026291365170E-16 ) ) ;
#457 = CARTESIAN_POINT ( 'NONE',  ( -5.469256828845309393, -46.93069070171666368, -4.163336342344337027E-14 ) ) ;
#458 = CARTESIAN_POINT ( 'NONE',  ( -14.11390885230431458, -38.54737444896743881, -3.500000000000000000 ) ) ;
#459 = ADVANCED_FACE ( 'NONE', ( #12 ), #286, .F. ) ;
#460 = ORIENTED_EDGE ( 'NONE', *, *, #518, .T. ) ;
#461 = LINE ( 'NONE', #808, #5 ) ;
#462 = LINE ( 'NONE', #794, #1064 ) ;
#463 = PRODUCT_DEFINITION_CONTEXT ( 'detailed design', #542, 'design' ) ;
#464 = EDGE_LOOP ( 'NONE', ( #439, #183, #498, #1013 ) ) ;
#465 = PRODUCT_RELATED_PRODUCT_CATEGORY ( 'part', '', ( #317 ) ) ;
#466 = AXIS2_PLACEMENT_3D ( 'NONE', #1004, #471, #817 ) ;
#467 = EDGE_LOOP ( 'NONE', ( #807, #194, #757, #549 ) ) ;
#468 = VECTOR ( 'NONE', #137, 1000.000000000000000 ) ;
#469 = PLANE ( 'NONE',  #767 ) ;
#470 = CARTESIAN_POINT ( 'NONE',  ( -25.64888317055906697, -24.26218009989058899, -3.970859396786666875E-14 ) ) ;
#471 = DIRECTION ( 'NONE',  ( -0.000000000000000000, -0.000000000000000000, 1.000000000000000000 ) ) ;
#472 = AXIS2_PLACEMENT_3D ( 'NONE', #580, #898, #914 ) ;
#473 = ORIENTED_EDGE ( 'NONE', *, *, #226, .T. ) ;
#474 = AXIS2_PLACEMENT_3D ( 'NONE', #889, #113, #456 ) ;
#475 = CARTESIAN_POINT ( 'NONE',  ( -14.11390885230431458, -38.54737444896743881, -7.500000000000000000 ) ) ;
#476 = DIRECTION ( 'NONE',  ( 0.3438223837342478384, 0.9390347003403545223, 3.948002311598281399E-29 ) ) ;
#477 = EDGE_CURVE ( 'NONE', #283, #895, #202, .T. ) ;
#478 = EDGE_CURVE ( 'NONE', #1102, #75, #531, .T. ) ;
#479 = CYLINDRICAL_SURFACE ( 'NONE', #937, 1.749999999989877653 ) ;
#480 = ORIENTED_EDGE ( 'NONE', *, *, #996, .F. ) ;
#481 = FACE_OUTER_BOUND ( 'NONE', #500, .T. ) ;
#482 = APPLICATION_CONTEXT ( 'automotive_design' ) ;
#483 = CARTESIAN_POINT ( 'NONE',  ( 2.581895379025481940, -33.95797132120551254, -3.500000000000000000 ) ) ;
#484 = FACE_OUTER_BOUND ( 'NONE', #28, .T. ) ;
#485 = EDGE_CURVE ( 'NONE', #529, #1102, #652, .T. ) ;
#486 = CIRCLE ( 'NONE', #777, 2.999999999986243004 ) ;
#487 = EDGE_LOOP ( 'NONE', ( #192, #940, #1019, #873, #134 ) ) ;
#488 = DIRECTION ( 'NONE',  ( -0.1439447874037436403, 0.9895857204806922658, 0.000000000000000000 ) ) ;
#489 = AXIS2_PLACEMENT_3D ( 'NONE', #260, #684, #846 ) ;
#490 = VECTOR ( 'NONE', #969, 1000.000000000000227 ) ;
#491 = DIRECTION ( 'NONE',  ( -1.000000000000000000, 0.000000000000000000, 0.000000000000000000 ) ) ;
#492 = CARTESIAN_POINT ( 'NONE',  ( -26.37069386867637277, -25.48698697148435954, -12.00000000000000000 ) ) ;
#493 = ORIENTED_EDGE ( 'NONE', *, *, #797, .T. ) ;
#494 = STYLED_ITEM ( 'NONE', ( #25 ), #791 ) ;
#495 = EDGE_LOOP ( 'NONE', ( #1081, #626, #768, #543 ) ) ;
#496 = CARTESIAN_POINT ( 'NONE',  ( -26.37069386867637277, -25.48698697148435954, -4.163336342344337027E-14 ) ) ;
#497 = DIRECTION ( 'NONE',  ( -0.000000000000000000, -0.000000000000000000, -1.000000000000000000 ) ) ;
#498 = ORIENTED_EDGE ( 'NONE', *, *, #996, .T. ) ;
#499 = EDGE_CURVE ( 'NONE', #303, #187, #573, .T. ) ;
#500 = EDGE_LOOP ( 'NONE', ( #460, #744, #888, #583, #368 ) ) ;
#501 = FILL_AREA_STYLE_COLOUR ( '', #107 ) ;
#502 = DIRECTION ( 'NONE',  ( 0.3438223837342484490, 0.9390347003403544113, 0.000000000000000000 ) ) ;
#503 = PRODUCT_DEFINITION_SHAPE ( 'NONE', 'NONE',  #984 ) ;
#504 = VERTEX_POINT ( 'NONE', #748 ) ;
#505 = LINE ( 'NONE', #165, #835 ) ;
#506 = ORIENTED_EDGE ( 'NONE', *, *, #710, .F. ) ;
#507 = CIRCLE ( 'NONE', #53, 3.000000000000005329 ) ;
#508 = CARTESIAN_POINT ( 'NONE',  ( 0.000000000000000000, 0.000000000000000000, 4.500000000000000000 ) ) ;
#509 = AXIS2_PLACEMENT_3D ( 'NONE', #541, #789, #724 ) ;
#510 = FACE_OUTER_BOUND ( 'NONE', #1048, .T. ) ;
#511 = CIRCLE ( 'NONE', #19, 1.749999999989378052 ) ;
#512 = ORIENTED_EDGE ( 'NONE', *, *, #523, .T. ) ;
#513 = CARTESIAN_POINT ( 'NONE',  ( -26.89888317055906342, -24.26218009989058899, -3.500000000000000000 ) ) ;
#514 = VERTEX_POINT ( 'NONE', #899 ) ;
#515 = LINE ( 'NONE', #412, #955 ) ;
#516 = CIRCLE ( 'NONE', #708, 1.749999999986245225 ) ;
#517 = CARTESIAN_POINT ( 'NONE',  ( -20.89888317057931744, -24.26218009989058899, -3.500000000000000000 ) ) ;
#518 = EDGE_CURVE ( 'NONE', #728, #75, #821, .T. ) ;
#519 = EDGE_CURVE ( 'NONE', #429, #410, #923, .T. ) ;
#520 = ORIENTED_EDGE ( 'NONE', *, *, #995, .T. ) ;
#521 = CARTESIAN_POINT ( 'NONE',  ( 2.581895379025481940, -33.95797132120551254, -3.500000000000000000 ) ) ;
#522 = CARTESIAN_POINT ( 'NONE',  ( -26.89888317055906342, -24.26218009989058899, -7.500000000000000000 ) ) ;
#523 = EDGE_CURVE ( 'NONE', #278, #299, #669, .T. ) ;
#524 = ORIENTED_EDGE ( 'NONE', *, *, #1033, .T. ) ;
#525 = CARTESIAN_POINT ( 'NONE',  ( -26.78104128355769831, -17.88227691789912654, -12.00000000000000000 ) ) ;
#526 = CARTESIAN_POINT ( 'NONE',  ( -4.648221766684755174, 1.701920799484529345, -7.000000000000000000 ) ) ;
#527 = CIRCLE ( 'NONE', #340, 4.950000000000000178 ) ;
#528 = EDGE_CURVE ( 'NONE', #1027, #831, #395, .T. ) ;
#529 = VERTEX_POINT ( 'NONE', #382 ) ;
#530 = DIRECTION ( 'NONE',  ( 0.000000000000000000, 0.000000000000000000, -1.000000000000000000 ) ) ;
#531 = LINE ( 'NONE', #207, #760 ) ;
#532 =( GEOMETRIC_REPRESENTATION_CONTEXT ( 3 ) GLOBAL_UNCERTAINTY_ASSIGNED_CONTEXT ( ( #1034 ) ) GLOBAL_UNIT_ASSIGNED_CONTEXT ( ( #838, #61, #773 ) ) REPRESENTATION_CONTEXT ( 'NONE', 'WORKASPACE' ) );
#533 = ORIENTED_EDGE ( 'NONE', *, *, #427, .F. ) ;
#534 = ORIENTED_EDGE ( 'NONE', *, *, #226, .F. ) ;
#535 = FACE_OUTER_BOUND ( 'NONE', #685, .T. ) ;
#536 = ADVANCED_FACE ( 'NONE', ( #742 ), #125, .F. ) ;
#537 = CARTESIAN_POINT ( 'NONE',  ( -23.89888317056918865, -24.26218009989058899, -7.500000000000000000 ) ) ;
#538 = EDGE_LOOP ( 'NONE', ( #10, #861, #533, #1109, #148, #294 ) ) ;
#539 = ORIENTED_EDGE ( 'NONE', *, *, #9, .F. ) ;
#540 = CARTESIAN_POINT ( 'NONE',  ( 14.58270175684989844, -31.42999855982793633, -7.000000000000000000 ) ) ;
#541 = CARTESIAN_POINT ( 'NONE',  ( -14.11390885230431458, -38.54737444896743881, -12.00000000000000000 ) ) ;
#542 = APPLICATION_CONTEXT ( 'automotive_design' ) ;
#543 = ORIENTED_EDGE ( 'NONE', *, *, #362, .T. ) ;
#544 = VECTOR ( 'NONE', #863, 1000.000000000000000 ) ;
#545 = AXIS2_PLACEMENT_3D ( 'NONE', #343, #935, #612 ) ;
#546 = ORIENTED_EDGE ( 'NONE', *, *, #995, .F. ) ;
#547 = CARTESIAN_POINT ( 'NONE',  ( -5.469256828845310281, -46.93069070171666368, -12.00000000000000000 ) ) ;
#548 = DIRECTION ( 'NONE',  ( -0.000000000000000000, -0.000000000000000000, -1.000000000000000000 ) ) ;
#549 = ORIENTED_EDGE ( 'NONE', *, *, #687, .F. ) ;
#550 = EDGE_CURVE ( 'NONE', #879, #504, #1089, .T. ) ;
#551 = EDGE_CURVE ( 'NONE', #596, #712, #284, .T. ) ;
#552 = VERTEX_POINT ( 'NONE', #816 ) ;
#553 = LINE ( 'NONE', #960, #1010 ) ;
#554 = ORIENTED_EDGE ( 'NONE', *, *, #752, .T. ) ;
#555 = ADVANCED_FACE ( 'NONE', ( #997 ), #291, .F. ) ;
#556 = EDGE_LOOP ( 'NONE', ( #592, #450 ) ) ;
#557 = CARTESIAN_POINT ( 'NONE',  ( -23.89888317056918865, -24.26218009989058899, 4.949747468277162277 ) ) ;
#558 = DIRECTION ( 'NONE',  ( -1.000000000000000000, 0.000000000000000000, 1.085977026291381810E-16 ) ) ;
#559 = CYLINDRICAL_SURFACE ( 'NONE', #212, 1.749999999986245225 ) ;
#560 = CIRCLE ( 'NONE', #989, 1.749999999989377164 ) ;
#561 = AXIS2_PLACEMENT_3D ( 'NONE', #521, #871, #269 ) ;
#562 = EDGE_LOOP ( 'NONE', ( #245, #373 ) ) ;
#563 = CIRCLE ( 'NONE', #704, 2.999999999989872101 ) ;
#564 = CARTESIAN_POINT ( 'NONE',  ( -20.89888317057931744, -24.26218009989058899, -7.500000000000000000 ) ) ;
#565 = ADVANCED_FACE ( 'NONE', ( #296, #1007 ), #1082, .T. ) ;
#566 = CYLINDRICAL_SURFACE ( 'NONE', #178, 1.749999999986245225 ) ;
#567 = CARTESIAN_POINT ( 'NONE',  ( -23.89888317056918865, -24.26218009989058899, 4.949747468277162277 ) ) ;
#568 = VECTOR ( 'NONE', #399, 1000.000000000000000 ) ;
#569 = EDGE_LOOP ( 'NONE', ( #520, #1005, #870, #222 ) ) ;
#570 = CARTESIAN_POINT ( 'NONE',  ( -14.11390885230431458, -38.54737444896743881, -7.500000000000000000 ) ) ;
#571 = EDGE_CURVE ( 'NONE', #94, #379, #584, .T. ) ;
#572 = ORIENTED_EDGE ( 'NONE', *, *, #876, .F. ) ;
#573 = LINE ( 'NONE', #833, #323 ) ;
#574 = DIRECTION ( 'NONE',  ( -1.000000000000000000, 0.000000000000000000, 0.000000000000000000 ) ) ;
#575 = VERTEX_POINT ( 'NONE', #983 ) ;
#576 = LINE ( 'NONE', #129, #857 ) ;
#577 = DIRECTION ( 'NONE',  ( 0.3438223837342483935, 0.9390347003403545223, 0.000000000000000000 ) ) ;
#578 = PLANE ( 'NONE',  #812 ) ;
#579 = ORIENTED_EDGE ( 'NONE', *, *, #885, .F. ) ;
#580 = CARTESIAN_POINT ( 'NONE',  ( -2.885824400808579604, 3.261375908382994737, -7.000000000000000000 ) ) ;
#581 = CIRCLE ( 'NONE', #92, 1.749999999989378052 ) ;
#582 = STYLED_ITEM ( 'NONE', ( #769 ), #719 ) ;
#583 = ORIENTED_EDGE ( 'NONE', *, *, #261, .F. ) ;
#584 = LINE ( 'NONE', #840, #468 ) ;
#585 = DIRECTION ( 'NONE',  ( -1.000000000000000000, 0.000000000000000000, -0.000000000000000000 ) ) ;
#586 = ORIENTED_EDGE ( 'NONE', *, *, #26, .F. ) ;
#587 = DIRECTION ( 'NONE',  ( -0.000000000000000000, -0.000000000000000000, -1.000000000000000000 ) ) ;
#588 = VECTOR ( 'NONE', #766, 1000.000000000000114 ) ;
#589 = ORIENTED_EDGE ( 'NONE', *, *, #747, .F. ) ;
#590 = DIRECTION ( 'NONE',  ( -0.000000000000000000, -0.000000000000000000, -1.000000000000000000 ) ) ;
#591 = DIRECTION ( 'NONE',  ( -1.000000000000000000, 0.000000000000000000, 0.000000000000000000 ) ) ;
#592 = ORIENTED_EDGE ( 'NONE', *, *, #614, .F. ) ;
#593 = ORIENTED_EDGE ( 'NONE', *, *, #309, .F. ) ;
#594 = CARTESIAN_POINT ( 'NONE',  ( -23.89888317056918865, -24.26218009989058899, -7.500000000000000000 ) ) ;
#595 = FACE_OUTER_BOUND ( 'NONE', #837, .T. ) ;
#596 = VERTEX_POINT ( 'NONE', #470 ) ;
#597 = CARTESIAN_POINT ( 'NONE',  ( 3.678416542214977270, -36.48930325098030636, -7.000000000000000000 ) ) ;
#598 = ORIENTED_EDGE ( 'NONE', *, *, #710, .T. ) ;
#599 = DIRECTION ( 'NONE',  ( -1.000000000000000000, 0.000000000000000000, 0.000000000000000000 ) ) ;
#600 = EDGE_CURVE ( 'NONE', #299, #728, #649, .T. ) ;
#601 = ADVANCED_FACE ( 'NONE', ( #214 ), #566, .F. ) ;
#602 = AXIS2_PLACEMENT_3D ( 'NONE', #694, #69, #1014 ) ;
#603 = CARTESIAN_POINT ( 'NONE',  ( -23.39463228564583019, -31.90127239185738972, -12.00000000000000000 ) ) ;
#604 = ORIENTED_EDGE ( 'NONE', *, *, #13, .F. ) ;
#605 = CARTESIAN_POINT ( 'NONE',  ( -4.648221766684755174, 1.701920799484529345, -12.00000000000000000 ) ) ;
#606 = ORIENTED_EDGE ( 'NONE', *, *, #802, .F. ) ;
#607 = SURFACE_SIDE_STYLE ('',( #929 ) ) ;
#608 = EDGE_CURVE ( 'NONE', #115, #514, #527, .T. ) ;
#609 = CARTESIAN_POINT ( 'NONE',  ( 5.581895379014859770, -33.95797132120551254, -7.500000000000000000 ) ) ;
#610 = DIRECTION ( 'NONE',  ( 0.5622825637789045095, 0.4975350245678627492, -0.6605279841145856867 ) ) ;
#611 = ORIENTED_EDGE ( 'NONE', *, *, #896, .T. ) ;
#612 = DIRECTION ( 'NONE',  ( -1.000000000000000000, 0.000000000000000000, 0.000000000000000000 ) ) ;
#613 = DIRECTION ( 'NONE',  ( -1.000000000000000000, 0.000000000000000000, 1.085977026291382056E-16 ) ) ;
#614 = EDGE_CURVE ( 'NONE', #306, #944, #355, .T. ) ;
#615 = ORIENTED_EDGE ( 'NONE', *, *, #687, .T. ) ;
#616 = CARTESIAN_POINT ( 'NONE',  ( -2.735868878158039141, -39.46536483401085604, -4.163336342344337027E-14 ) ) ;
#617 = CARTESIAN_POINT ( 'NONE',  ( -17.84165930646699749, 6.532625290950804242, -7.000000000000000000 ) ) ;
#618 = AXIS2_PLACEMENT_3D ( 'NONE', #1084, #54, #574 ) ;
#619 = VECTOR ( 'NONE', #735, 1000.000000000000114 ) ;
#620 = EDGE_CURVE ( 'NONE', #170, #115, #515, .T. ) ;
#621 = ORIENTED_EDGE ( 'NONE', *, *, #771, .F. ) ;
#622 = CARTESIAN_POINT ( 'NONE',  ( -22.14888317057931388, -24.26218009989058899, -7.500000000000000000 ) ) ;
#623 = CARTESIAN_POINT ( 'NONE',  ( 2.581895379025481940, -33.95797132120551254, -7.500000000000000000 ) ) ;
#624 = DIRECTION ( 'NONE',  ( -0.9390347003403546333, 0.3438223837342477274, 0.000000000000000000 ) ) ;
#625 =( LENGTH_UNIT ( ) NAMED_UNIT ( * ) SI_UNIT ( .MILLI., .METRE. ) );
#626 = ORIENTED_EDGE ( 'NONE', *, *, #234, .T. ) ;
#627 = LINE ( 'NONE', #616, #992 ) ;
#628 = DIRECTION ( 'NONE',  ( -1.000000000000000000, 0.000000000000000000, 0.000000000000000000 ) ) ;
#629 = FACE_OUTER_BOUND ( 'NONE', #814, .T. ) ;
#630 = PRODUCT_CONTEXT ( 'NONE', #482, 'mechanical' ) ;
#631 = ORIENTED_EDGE ( 'NONE', *, *, #876, .T. ) ;
#632 = DIRECTION ( 'NONE',  ( -0.9071169434423501654, -0.4208786653179371617, 8.177564888975165365E-17 ) ) ;
#633 = EDGE_CURVE ( 'NONE', #367, #429, #213, .T. ) ;
#634 = DIRECTION ( 'NONE',  ( 0.000000000000000000, 0.000000000000000000, -1.000000000000000000 ) ) ;
#635 = ADVANCED_FACE ( 'NONE', ( #780, #950, #945, #1110 ), #862, .F. ) ;
#636 = CARTESIAN_POINT ( 'NONE',  ( -0.4181046209638956124, -33.95797132120551254, -3.500000000000000000 ) ) ;
#637 = AXIS2_PLACEMENT_3D ( 'NONE', #677, #345, #85 ) ;
#638 = ORIENTED_EDGE ( 'NONE', *, *, #209, .T. ) ;
#639 = DIRECTION ( 'NONE',  ( -0.000000000000000000, -0.000000000000000000, 1.000000000000000000 ) ) ;
#640 = ORIENTED_EDGE ( 'NONE', *, *, #160, .T. ) ;
#641 = VECTOR ( 'NONE', #23, 1000.000000000000000 ) ;
#642 = ORIENTED_EDGE ( 'NONE', *, *, #571, .F. ) ;
#643 = CARTESIAN_POINT ( 'NONE',  ( 4.309478828295825181, 0.6268552596521423936, -7.000000000000000000 ) ) ;
#644 = CARTESIAN_POINT ( 'NONE',  ( -14.11390885230431458, -38.54737444896743881, -7.500000000000000000 ) ) ;
#645 = DIRECTION ( 'NONE',  ( 0.3438223837342489486, 0.9390347003403540782, 0.000000000000000000 ) ) ;
#646 = EDGE_CURVE ( 'NONE', #874, #156, #302, .T. ) ;
#647 = ORIENTED_EDGE ( 'NONE', *, *, #86, .T. ) ;
#648 = DIRECTION ( 'NONE',  ( 0.000000000000000000, 0.000000000000000000, 1.000000000000000000 ) ) ;
#649 = LINE ( 'NONE', #825, #991 ) ;
#650 = CARTESIAN_POINT ( 'NONE',  ( -25.64888317055906697, -24.26218009989058899, -7.500000000000000000 ) ) ;
#651 = VECTOR ( 'NONE', #24, 1000.000000000000000 ) ;
#652 = CIRCLE ( 'NONE', #393, 2.999999999999999112 ) ;
#653 = ADVANCED_FACE ( 'NONE', ( #683 ), #237, .T. ) ;
#654 = ORIENTED_EDGE ( 'NONE', *, *, #1113, .F. ) ;
#655 = LINE ( 'NONE', #1071, #959 ) ;
#656 = CARTESIAN_POINT ( 'NONE',  ( -23.89888317056918865, -24.26218009989058899, -3.989863994746656317E-14 ) ) ;
#657 = FACE_OUTER_BOUND ( 'NONE', #569, .T. ) ;
#658 = ORIENTED_EDGE ( 'NONE', *, *, #646, .F. ) ;
#659 = LINE ( 'NONE', #663, #568 ) ;
#660 = CARTESIAN_POINT ( 'NONE',  ( -26.37069386867637277, -25.48698697148435954, -12.00000000000000000 ) ) ;
#661 = CYLINDRICAL_SURFACE ( 'NONE', #466, 2.999999999999999112 ) ;
#662 = ORIENTED_EDGE ( 'NONE', *, *, #620, .T. ) ;
#663 = CARTESIAN_POINT ( 'NONE',  ( 8.902277329375772652, -30.94752749980057160, -4.163336342344337027E-14 ) ) ;
#664 = DIRECTION ( 'NONE',  ( -1.000000000000000000, 0.000000000000000000, 0.000000000000000000 ) ) ;
#665 = EDGE_CURVE ( 'NONE', #410, #968, #690, .T. ) ;
#666 = CARTESIAN_POINT ( 'NONE',  ( -26.12802023633311066, -39.36659825956319025, -4.163336342344337027E-14 ) ) ;
#667 = ORIENTED_EDGE ( 'NONE', *, *, #197, .F. ) ;
#668 = CIRCLE ( 'NONE', #637, 1.749999999989877653 ) ;
#669 = CIRCLE ( 'NONE', #126, 2.999999999999999112 ) ;
#670 = EDGE_LOOP ( 'NONE', ( #128, #136, #22, #667 ) ) ;
#671 =( LENGTH_UNIT ( ) NAMED_UNIT ( * ) SI_UNIT ( .MILLI., .METRE. ) );
#672 = DIRECTION ( 'NONE',  ( -1.000000000000000000, 0.000000000000000000, 1.085977026291375400E-16 ) ) ;
#673 = ORIENTED_EDGE ( 'NONE', *, *, #885, .T. ) ;
#674 = VECTOR ( 'NONE', #391, 1000.000000000000000 ) ;
#675 = ORIENTED_EDGE ( 'NONE', *, *, #397, .F. ) ;
#676 = LINE ( 'NONE', #430, #413 ) ;
#677 = CARTESIAN_POINT ( 'NONE',  ( -23.89888317056918865, -24.26218009989058899, -7.500000000000000000 ) ) ;
#678 = EDGE_CURVE ( 'NONE', #121, #716, #676, .T. ) ;
#679 = ORIENTED_EDGE ( 'NONE', *, *, #293, .F. ) ;
#680 = EDGE_CURVE ( 'NONE', #210, #283, #1085, .T. ) ;
#681 = DIRECTION ( 'NONE',  ( -1.000000000000000000, 0.000000000000000000, -0.000000000000000000 ) ) ;
#682 = ORIENTED_EDGE ( 'NONE', *, *, #957, .F. ) ;
#683 = FACE_OUTER_BOUND ( 'NONE', #538, .T. ) ;
#684 = DIRECTION ( 'NONE',  ( 0.000000000000000000, 0.000000000000000000, -1.000000000000000000 ) ) ;
#685 = EDGE_LOOP ( 'NONE', ( #199, #1030, #579, #688 ) ) ;
#686 = CARTESIAN_POINT ( 'NONE',  ( 6.495520643236041280, -37.52077040218305370, -4.163336342344337027E-14 ) ) ;
#687 = EDGE_CURVE ( 'NONE', #783, #741, #174, .T. ) ;
#688 = ORIENTED_EDGE ( 'NONE', *, *, #34, .F. ) ;
#689 = VECTOR ( 'NONE', #624, 1000.000000000000114 ) ;
#690 = LINE ( 'NONE', #248, #830 ) ;
#691 = CARTESIAN_POINT ( 'NONE',  ( 8.902277329375779757, -30.94752749980057160, -12.00000000000000000 ) ) ;
#692 = CYLINDRICAL_SURFACE ( 'NONE', #361, 2.999999999989872101 ) ;
#693 = ORIENTED_EDGE ( 'NONE', *, *, #344, .F. ) ;
#694 = CARTESIAN_POINT ( 'NONE',  ( 2.581895379025481940, -33.95797132120551254, -7.500000000000000000 ) ) ;
#695 = AXIS2_PLACEMENT_3D ( 'NONE', #643, #745, #488 ) ;
#696 = CARTESIAN_POINT ( 'NONE',  ( -24.58505691885804012, -29.33555822370816912, -7.000000000000000000 ) ) ;
#697 = ORIENTED_EDGE ( 'NONE', *, *, #1078, .T. ) ;
#698 = CARTESIAN_POINT ( 'NONE',  ( -17.11390885229055669, -38.54737444896743881, -12.00000000000000000 ) ) ;
#699 = CARTESIAN_POINT ( 'NONE',  ( -11.11390885231807246, -38.54737444896743881, -3.500000000000000000 ) ) ;
#700 = ORIENTED_EDGE ( 'NONE', *, *, #951, .F. ) ;
#701 = CARTESIAN_POINT ( 'NONE',  ( -17.11390885229055669, -38.54737444896743881, -7.500000000000000000 ) ) ;
#702 = CARTESIAN_POINT ( 'NONE',  ( 2.646949391012232589, -39.30640735200137215, -4.163336342344349017E-14 ) ) ;
#703 = AXIS2_PLACEMENT_3D ( 'NONE', #508, #1104, #84 ) ;
#704 = AXIS2_PLACEMENT_3D ( 'NONE', #1050, #530, #108 ) ;
#705 = EDGE_LOOP ( 'NONE', ( #326, #765, #722, #408 ) ) ;
#706 = ORIENTED_EDGE ( 'NONE', *, *, #711, .T. ) ;
#707 = CARTESIAN_POINT ( 'NONE',  ( -12.36390885231807069, -38.54737444896743881, -7.500000000000000000 ) ) ;
#708 = AXIS2_PLACEMENT_3D ( 'NONE', #475, #815, #295 ) ;
#709 = CYLINDRICAL_SURFACE ( 'NONE', #372, 2.999999999986243004 ) ;
#710 = EDGE_CURVE ( 'NONE', #283, #210, #93, .T. ) ;
#711 = EDGE_CURVE ( 'NONE', #728, #1115, #853, .T. ) ;
#712 = VERTEX_POINT ( 'NONE', #762 ) ;
#713 = CARTESIAN_POINT ( 'NONE',  ( -23.39463228564583019, -31.90127239185738972, -12.00000000000000000 ) ) ;
#714 = PLANE ( 'NONE',  #721 ) ;
#715 = CARTESIAN_POINT ( 'NONE',  ( 8.902277329375777981, -30.94752749980057516, 2.081668171172168513E-14 ) ) ;
#716 = VERTEX_POINT ( 'NONE', #1031 ) ;
#717 = CARTESIAN_POINT ( 'NONE',  ( -22.14888317057931388, -24.26218009989058899, 4.949747468277162277 ) ) ;
#718 = DIRECTION ( 'NONE',  ( 0.000000000000000000, 0.000000000000000000, -1.000000000000000000 ) ) ;
#719 = MANIFOLD_SOLID_BREP ( 'Dodanie-wyci¹gniêcie7', #810 ) ;
#720 = CYLINDRICAL_SURFACE ( 'NONE', #353, 2.999999999986243004 ) ;
#721 = AXIS2_PLACEMENT_3D ( 'NONE', #805, #280, #377 ) ;
#722 = ORIENTED_EDGE ( 'NONE', *, *, #864, .T. ) ;
#723 = FACE_OUTER_BOUND ( 'NONE', #1011, .T. ) ;
#724 = DIRECTION ( 'NONE',  ( -1.000000000000000000, 0.000000000000000000, 0.000000000000000000 ) ) ;
#725 = ADVANCED_FACE ( 'NONE', ( #424 ), #76, .F. ) ;
#726 = DIRECTION ( 'NONE',  ( 1.000000000000000000, 0.000000000000000000, 0.000000000000000000 ) ) ;
#727 = AXIS2_PLACEMENT_3D ( 'NONE', #570, #141, #385 ) ;
#728 = VERTEX_POINT ( 'NONE', #285 ) ;
#729 = CARTESIAN_POINT ( 'NONE',  ( -0.1701547100088351971, -38.27494020079862480, -12.00000000000000000 ) ) ;
#730 = CARTESIAN_POINT ( 'NONE',  ( -26.78104128355769831, -17.88227691789912654, -7.000000000000000000 ) ) ;
#731 = DIRECTION ( 'NONE',  ( -0.000000000000000000, -0.000000000000000000, 1.000000000000000000 ) ) ;
#732 = ADVANCED_FACE ( 'NONE', ( #535 ), #875, .F. ) ;
#733 = EDGE_LOOP ( 'NONE', ( #981, #675 ) ) ;
#734 = CARTESIAN_POINT ( 'NONE',  ( 2.646949391012232145, -39.30640735200137215, -12.00000000000000000 ) ) ;
#735 = DIRECTION ( 'NONE',  ( 0.1439447874037436681, -0.9895857204806922658, 0.000000000000000000 ) ) ;
#736 = LINE ( 'NONE', #383, #123 ) ;
#737 = CIRCLE ( 'NONE', #250, 1.749999999986245225 ) ;
#738 = CIRCLE ( 'NONE', #509, 2.999999999986243004 ) ;
#739 = ORIENTED_EDGE ( 'NONE', *, *, #9, .T. ) ;
#740 = CARTESIAN_POINT ( 'NONE',  ( 0.000000000000000000, 0.000000000000000000, 4.500000000000000000 ) ) ;
#741 = VERTEX_POINT ( 'NONE', #698 ) ;
#742 = FACE_OUTER_BOUND ( 'NONE', #332, .T. ) ;
#743 = CARTESIAN_POINT ( 'NONE',  ( -25.07851670533675303, -16.37580017040811953, -2.000000000000000000 ) ) ;
#744 = ORIENTED_EDGE ( 'NONE', *, *, #1113, .T. ) ;
#745 = DIRECTION ( 'NONE',  ( 0.9895857204806923768, 0.1439447874037436681, 0.000000000000000000 ) ) ;
#746 = EDGE_CURVE ( 'NONE', #712, #874, #180, .T. ) ;
#747 = EDGE_CURVE ( 'NONE', #958, #94, #1059, .T. ) ;
#748 = CARTESIAN_POINT ( 'NONE',  ( 4.331895379014859770, -33.95797132120551254, -7.500000000000000000 ) ) ;
#749 = CARTESIAN_POINT ( 'NONE',  ( -23.89888317056918865, -24.26218009989058899, -3.500000000000000000 ) ) ;
#750 = ORIENTED_EDGE ( 'NONE', *, *, #13, .T. ) ;
#751 = LINE ( 'NONE', #1022, #151 ) ;
#752 = EDGE_CURVE ( 'NONE', #252, #839, #1063, .T. ) ;
#753 = ORIENTED_EDGE ( 'NONE', *, *, #26, .T. ) ;
#754 = DIRECTION ( 'NONE',  ( 0.000000000000000000, 0.000000000000000000, -1.000000000000000000 ) ) ;
#755 = CARTESIAN_POINT ( 'NONE',  ( 2.581895379025481940, -33.95797132120551254, -4.336808689942017736E-14 ) ) ;
#756 = CIRCLE ( 'NONE', #266, 4.950000000000000178 ) ;
#757 = ORIENTED_EDGE ( 'NONE', *, *, #442, .T. ) ;
#758 = LINE ( 'NONE', #1036, #588 ) ;
#759 = AXIS2_PLACEMENT_3D ( 'NONE', #1008, #216, #822 ) ;
#760 = VECTOR ( 'NONE', #476, 1000.000000000000227 ) ;
#761 = VERTEX_POINT ( 'NONE', #707 ) ;
#762 = CARTESIAN_POINT ( 'NONE',  ( -22.14888317057931388, -24.26218009989058899, -4.008868592706645759E-14 ) ) ;
#763 = LINE ( 'NONE', #699, #827 ) ;
#764 = EDGE_CURVE ( 'NONE', #187, #243, #784, .T. ) ;
#765 = ORIENTED_EDGE ( 'NONE', *, *, #344, .T. ) ;
#766 = DIRECTION ( 'NONE',  ( 0.1080739517359866481, -0.7429823706910448911, 0.6605279841145887954 ) ) ;
#767 = AXIS2_PLACEMENT_3D ( 'NONE', #218, #300, #375 ) ;
#768 = ORIENTED_EDGE ( 'NONE', *, *, #917, .T. ) ;
#769 = PRESENTATION_STYLE_ASSIGNMENT (( #1024 ) ) ;
#770 = CARTESIAN_POINT ( 'NONE',  ( -24.58505691885803301, -29.33555822370817268, -4.163336342344337027E-14 ) ) ;
#771 = EDGE_CURVE ( 'NONE', #1027, #81, #553, .T. ) ;
#772 = ORIENTED_EDGE ( 'NONE', *, *, #829, .F. ) ;
#773 =( NAMED_UNIT ( * ) SI_UNIT ( $, .STERADIAN. ) SOLID_ANGLE_UNIT ( ) );
#774 = ORIENTED_EDGE ( 'NONE', *, *, #272, .T. ) ;
#775 = CARTESIAN_POINT ( 'NONE',  ( -26.12802023633310711, -39.36659825956319025, -12.00000000000000000 ) ) ;
#776 = FACE_OUTER_BOUND ( 'NONE', #670, .T. ) ;
#777 = AXIS2_PLACEMENT_3D ( 'NONE', #104, #20, #360 ) ;
#778 = ORIENTED_EDGE ( 'NONE', *, *, #1033, .F. ) ;
#779 = CIRCLE ( 'NONE', #282, 2.999999999989872101 ) ;
#780 = FACE_BOUND ( 'NONE', #98, .T. ) ;
#781 = VECTOR ( 'NONE', #47, 1000.000000000000000 ) ;
#782 = CARTESIAN_POINT ( 'NONE',  ( -12.37760581443320262, -33.80524921225348578, -7.000000000000000000 ) ) ;
#783 = VERTEX_POINT ( 'NONE', #701 ) ;
#784 = LINE ( 'NONE', #188, #374 ) ;
#785 = EDGE_CURVE ( 'NONE', #106, #783, #850, .T. ) ;
#786 = CARTESIAN_POINT ( 'NONE',  ( 6.495520643236051050, -37.52077040218304660, -7.000000000000000000 ) ) ;
#787 = ORIENTED_EDGE ( 'NONE', *, *, #1032, .F. ) ;
#788 = PLANE ( 'NONE',  #416 ) ;
#789 = DIRECTION ( 'NONE',  ( 0.000000000000000000, 0.000000000000000000, -1.000000000000000000 ) ) ;
#790 = CARTESIAN_POINT ( 'NONE',  ( -26.78104128355769831, -17.88227691789912654, 1.994931997373328159E-14 ) ) ;
#791 = ADVANCED_BREP_SHAPE_REPRESENTATION ( '009_003_Left_right_connector_bearing_grip', ( #719, #890 ), #532 ) ;
#792 = ORIENTED_EDGE ( 'NONE', *, *, #191, .T. ) ;
#793 = DIRECTION ( 'NONE',  ( 0.3438223837342489486, 0.9390347003403541892, 3.933211169625389109E-29 ) ) ;
#794 = CARTESIAN_POINT ( 'NONE',  ( -12.36390885231807069, -38.54737444896743881, 4.949747468277162277 ) ) ;
#795 = AXIS2_PLACEMENT_3D ( 'NONE', #644, #909, #149 ) ;
#796 = CARTESIAN_POINT ( 'NONE',  ( -2.885824400808579604, 3.261375908382994737, -2.000000000000000000 ) ) ;
#797 = EDGE_CURVE ( 'NONE', #892, #504, #511, .T. ) ;
#798 = ORIENTED_EDGE ( 'NONE', *, *, #845, .T. ) ;
#799 = DIRECTION ( 'NONE',  ( 0.9390347003403541892, -0.3438223837342490041, 0.000000000000000000 ) ) ;
#800 = CARTESIAN_POINT ( 'NONE',  ( 8.902277329375779757, -30.94752749980057160, -12.00000000000000000 ) ) ;
#801 = CARTESIAN_POINT ( 'NONE',  ( -26.12802023633311777, -39.36659825956319025, -4.163336342344337027E-14 ) ) ;
#802 = EDGE_CURVE ( 'NONE', #575, #66, #215, .T. ) ;
#803 = ORIENTED_EDGE ( 'NONE', *, *, #1086, .T. ) ;
#804 = CARTESIAN_POINT ( 'NONE',  ( -24.58505691885803301, -29.33555822370816912, -4.163336342344337027E-14 ) ) ;
#805 = CARTESIAN_POINT ( 'NONE',  ( 0.000000000000000000, 0.000000000000000000, 4.500000000000000000 ) ) ;
#806 = DIRECTION ( 'NONE',  ( -1.000000000000000000, 0.000000000000000000, 0.000000000000000000 ) ) ;
#807 = ORIENTED_EDGE ( 'NONE', *, *, #785, .F. ) ;
#808 = CARTESIAN_POINT ( 'NONE',  ( 2.646949391012232145, -39.30640735200137215, -7.000000000000000000 ) ) ;
#809 = DIRECTION ( 'NONE',  ( -1.000000000000000000, 0.000000000000000000, 0.000000000000000000 ) ) ;
#810 = CLOSED_SHELL ( 'NONE', ( #1046, #27, #536, #653, #124, #601, #131, #948, #62, #828, #111, #1099, #406, #555, #204, #459, #947, #926, #426, #1040, #354, #836, #911, #329, #732, #933, #635, #49, #725, #79, #167, #110, #1016, #565, #435 ) ) ;
#811 = PLANE ( 'NONE',  #900 ) ;
#812 = AXIS2_PLACEMENT_3D ( 'NONE', #139, #1077, #585 ) ;
#813 = AXIS2_PLACEMENT_3D ( 'NONE', #99, #799, #18 ) ;
#814 = EDGE_LOOP ( 'NONE', ( #679, #604, #615, #640 ) ) ;
#815 = DIRECTION ( 'NONE',  ( 0.000000000000000000, 0.000000000000000000, -1.000000000000000000 ) ) ;
#816 = CARTESIAN_POINT ( 'NONE',  ( -0.4181046209638965006, -33.95797132120551254, -12.00000000000000000 ) ) ;
#817 = DIRECTION ( 'NONE',  ( 1.000000000000000000, 0.000000000000000000, 0.000000000000000000 ) ) ;
#818 = VECTOR ( 'NONE', #157, 1000.000000000000000 ) ;
#819 = ORIENTED_EDGE ( 'NONE', *, *, #225, .F. ) ;
#820 = FACE_BOUND ( 'NONE', #733, .T. ) ;
#821 = LINE ( 'NONE', #730, #781 ) ;
#822 = DIRECTION ( 'NONE',  ( -1.000000000000000000, 0.000000000000000000, 0.000000000000000000 ) ) ;
#823 = ORIENTED_EDGE ( 'NONE', *, *, #376, .F. ) ;
#824 = LINE ( 'NONE', #729, #1091 ) ;
#825 = CARTESIAN_POINT ( 'NONE',  ( -29.18779796969743501, -24.45551982028161220, -12.00000000000000000 ) ) ;
#826 = DIRECTION ( 'NONE',  ( -1.000000000000000000, 0.000000000000000000, -0.000000000000000000 ) ) ;
#827 = VECTOR ( 'NONE', #854, 1000.000000000000000 ) ;
#828 = ADVANCED_FACE ( 'NONE', ( #1055 ), #1044, .F. ) ;
#829 = EDGE_CURVE ( 'NONE', #379, #81, #627, .T. ) ;
#830 = VECTOR ( 'NONE', #337, 1000.000000000000000 ) ;
#831 = VERTEX_POINT ( 'NONE', #547 ) ;
#832 = LINE ( 'NONE', #1093, #674 ) ;
#833 = CARTESIAN_POINT ( 'NONE',  ( -26.12802023633310711, -39.36659825956319025, -7.000000000000000000 ) ) ;
#834 = CARTESIAN_POINT ( 'NONE',  ( -4.950000000000000178, 0.000000000000000000, -2.000000000000000000 ) ) ;
#835 = VECTOR ( 'NONE', #1097, 1000.000000000000114 ) ;
#836 = ADVANCED_FACE ( 'NONE', ( #964 ), #788, .F. ) ;
#837 = EDGE_LOOP ( 'NONE', ( #934, #524, #642, #589 ) ) ;
#838 =( LENGTH_UNIT ( ) NAMED_UNIT ( * ) SI_UNIT ( .MILLI., .METRE. ) );
#839 = VERTEX_POINT ( 'NONE', #881 ) ;
#840 = CARTESIAN_POINT ( 'NONE',  ( -0.1701547100088351971, -38.27494020079862480, -7.000000000000000000 ) ) ;
#841 = CARTESIAN_POINT ( 'NONE',  ( -23.89888317056918865, -24.26218009989058899, -7.500000000000000000 ) ) ;
#842 = EDGE_LOOP ( 'NONE', ( #60, #1021, #938, #394 ) ) ;
#843 = FACE_OUTER_BOUND ( 'NONE', #240, .T. ) ;
#844 = EDGE_LOOP ( 'NONE', ( #848, #147 ) ) ;
#845 = EDGE_CURVE ( 'NONE', #243, #357, #954, .T. ) ;
#846 = DIRECTION ( 'NONE',  ( -1.000000000000000000, 0.000000000000000000, 0.000000000000000000 ) ) ;
#847 = CIRCLE ( 'NONE', #411, 2.999999999986243004 ) ;
#848 = ORIENTED_EDGE ( 'NONE', *, *, #160, .F. ) ;
#849 = SURFACE_STYLE_FILL_AREA ( #932 ) ;
#850 = CIRCLE ( 'NONE', #72, 2.999999999986243004 ) ;
#851 = AXIS2_PLACEMENT_3D ( 'NONE', #196, #264, #976 ) ;
#852 = EDGE_LOOP ( 'NONE', ( #1062, #140, #318, #480 ) ) ;
#853 = LINE ( 'NONE', #525, #902 ) ;
#854 = DIRECTION ( 'NONE',  ( -0.000000000000000000, -0.000000000000000000, -1.000000000000000000 ) ) ;
#855 = EDGE_LOOP ( 'NONE', ( #390, #324, #621, #700 ) ) ;
#856 = CARTESIAN_POINT ( 'NONE',  ( -29.18779796969743501, -24.45551982028161220, -4.128641872824800885E-14 ) ) ;
#857 = VECTOR ( 'NONE', #57, 1000.000000000000000 ) ;
#858 = EDGE_LOOP ( 'NONE', ( #753, #903 ) ) ;
#859 = DIRECTION ( 'NONE',  ( -1.085977026291371086E-16, 3.976245070871083211E-17, -1.000000000000000000 ) ) ;
#860 = LINE ( 'NONE', #168, #339 ) ;
#861 = ORIENTED_EDGE ( 'NONE', *, *, #189, .T. ) ;
#862 = PLANE ( 'NONE',  #17 ) ;
#863 = DIRECTION ( 'NONE',  ( -0.000000000000000000, -0.000000000000000000, 1.000000000000000000 ) ) ;
#864 = EDGE_CURVE ( 'NONE', #66, #575, #563, .T. ) ;
#865 = ORIENTED_EDGE ( 'NONE', *, *, #746, .T. ) ;
#866 = AXIS2_PLACEMENT_3D ( 'NONE', #185, #119, #359 ) ;
#867 = DIRECTION ( 'NONE',  ( -0.000000000000000000, -0.000000000000000000, -1.000000000000000000 ) ) ;
#868 = VECTOR ( 'NONE', #118, 1000.000000000000000 ) ;
#869 = CARTESIAN_POINT ( 'NONE',  ( -23.39463228564583375, -31.90127239185738972, -4.163336342344337027E-14 ) ) ;
#870 = ORIENTED_EDGE ( 'NONE', *, *, #43, .F. ) ;
#871 = DIRECTION ( 'NONE',  ( -0.000000000000000000, -0.000000000000000000, -1.000000000000000000 ) ) ;
#872 = PLANE ( 'NONE',  #71 ) ;
#873 = ORIENTED_EDGE ( 'NONE', *, *, #225, .T. ) ;
#874 = VERTEX_POINT ( 'NONE', #622 ) ;
#875 = PLANE ( 'NONE',  #813 ) ;
#876 = EDGE_CURVE ( 'NONE', #831, #117, #184, .T. ) ;
#877 = DIRECTION ( 'NONE',  ( 0.000000000000000000, 0.000000000000000000, -1.000000000000000000 ) ) ;
#878 = EDGE_CURVE ( 'NONE', #1043, #444, #200, .T. ) ;
#879 = VERTEX_POINT ( 'NONE', #369 ) ;
#880 = ORIENTED_EDGE ( 'NONE', *, *, #191, .F. ) ;
#881 = CARTESIAN_POINT ( 'NONE',  ( -24.58505691885804012, -29.33555822370816912, -12.00000000000000000 ) ) ;
#882 = VECTOR ( 'NONE', #438, 1000.000000000000227 ) ;
#883 = FACE_OUTER_BOUND ( 'NONE', #158, .T. ) ;
#884 = AXIS2_PLACEMENT_3D ( 'NONE', #656, #311, #558 ) ;
#885 = EDGE_CURVE ( 'NONE', #252, #243, #832, .T. ) ;
#886 = DIRECTION ( 'NONE',  ( 0.9390347003403544113, -0.3438223837342483380, 0.000000000000000000 ) ) ;
#887 = DIRECTION ( 'NONE',  ( 0.000000000000000000, 0.000000000000000000, 1.000000000000000000 ) ) ;
#888 = ORIENTED_EDGE ( 'NONE', *, *, #78, .T. ) ;
#889 = CARTESIAN_POINT ( 'NONE',  ( 3.678416542214977270, -36.48930325098030636, -4.163336342344337027E-14 ) ) ;
#890 = AXIS2_PLACEMENT_3D ( 'NONE', #363, #887, #1053 ) ;
#891 = DIRECTION ( 'NONE',  ( 0.000000000000000000, 0.000000000000000000, 1.000000000000000000 ) ) ;
#892 = VERTEX_POINT ( 'NONE', #314 ) ;
#893 = DIRECTION ( 'NONE',  ( -0.9071169434423501654, -0.4208786653179372172, 0.000000000000000000 ) ) ;
#894 = LINE ( 'NONE', #457, #231 ) ;
#895 = VERTEX_POINT ( 'NONE', #211 ) ;
#896 = EDGE_CURVE ( 'NONE', #75, #968, #659, .T. ) ;
#897 = ORIENTED_EDGE ( 'NONE', *, *, #499, .F. ) ;
#898 = DIRECTION ( 'NONE',  ( 0.6626719222064847425, -0.7489098233560317341, 0.000000000000000000 ) ) ;
#899 = CARTESIAN_POINT ( 'NONE',  ( -4.648221766684755174, 1.701920799484529345, -2.000000000000000000 ) ) ;
#900 = AXIS2_PLACEMENT_3D ( 'NONE', #715, #208, #886 ) ;
#901 = CARTESIAN_POINT ( 'NONE',  ( -20.89888317057931744, -24.26218009989058899, -12.00000000000000000 ) ) ;
#902 = VECTOR ( 'NONE', #1116, 1000.000000000000114 ) ;
#903 = ORIENTED_EDGE ( 'NONE', *, *, #980, .T. ) ;
#904 = LINE ( 'NONE', #223, #1017 ) ;
#905 = DIRECTION ( 'NONE',  ( -1.000000000000000000, 0.000000000000000000, 0.000000000000000000 ) ) ;
#906 = DIRECTION ( 'NONE',  ( 0.000000000000000000, 0.000000000000000000, -1.000000000000000000 ) ) ;
#907 = ORIENTED_EDGE ( 'NONE', *, *, #678, .F. ) ;
#908 = PLANE ( 'NONE',  #271 ) ;
#909 = DIRECTION ( 'NONE',  ( 0.000000000000000000, 0.000000000000000000, -1.000000000000000000 ) ) ;
#910 = EDGE_CURVE ( 'NONE', #63, #761, #80, .T. ) ;
#911 = ADVANCED_FACE ( 'NONE', ( #40 ), #469, .F. ) ;
#912 = CARTESIAN_POINT ( 'NONE',  ( -4.950000000000000178, 0.000000000000000000, 4.500000000000000000 ) ) ;
#913 = ORIENTED_EDGE ( 'NONE', *, *, #478, .F. ) ;
#914 = DIRECTION ( 'NONE',  ( 0.7489098233560317341, 0.6626719222064847425, 0.000000000000000000 ) ) ;
#915 = DIRECTION ( 'NONE',  ( -0.000000000000000000, -0.000000000000000000, -1.000000000000000000 ) ) ;
#916 = CARTESIAN_POINT ( 'NONE',  ( -14.11390885230431458, -38.54737444896743881, -12.00000000000000000 ) ) ;
#917 = EDGE_CURVE ( 'NONE', #596, #156, #655, .T. ) ;
#918 = VECTOR ( 'NONE', #645, 1000.000000000000114 ) ;
#919 = AXIS2_PLACEMENT_3D ( 'NONE', #483, #315, #664 ) ;
#920 = VERTEX_POINT ( 'NONE', #564 ) ;
#921 = CYLINDRICAL_SURFACE ( 'NONE', #97, 1.749999999989877653 ) ;
#922 = ORIENTED_EDGE ( 'NONE', *, *, #1065, .T. ) ;
#923 = LINE ( 'NONE', #386, #619 ) ;
#924 = CARTESIAN_POINT ( 'NONE',  ( -11.11390885231807246, -38.54737444896743881, -7.500000000000000000 ) ) ;
#925 = ORIENTED_EDGE ( 'NONE', *, *, #665, .F. ) ;
#926 = ADVANCED_FACE ( 'NONE', ( #1080 ), #290, .T. ) ;
#927 = CARTESIAN_POINT ( 'NONE',  ( 4.648221766684756950, -1.701920799484528013, -2.000000000000000000 ) ) ;
#928 = ORIENTED_EDGE ( 'NONE', *, *, #752, .F. ) ;
#929 = SURFACE_STYLE_FILL_AREA ( #95 ) ;
#930 = DIRECTION ( 'NONE',  ( -1.000000000000000000, 0.000000000000000000, 1.085977026291381810E-16 ) ) ;
#931 = EDGE_LOOP ( 'NONE', ( #2, #682 ) ) ;
#932 = FILL_AREA_STYLE ('',( #409 ) ) ;
#933 = ADVANCED_FACE ( 'NONE', ( #982 ), #908, .F. ) ;
#934 = ORIENTED_EDGE ( 'NONE', *, *, #1002, .T. ) ;
#935 = DIRECTION ( 'NONE',  ( 0.000000000000000000, 0.000000000000000000, -1.000000000000000000 ) ) ;
#936 = LINE ( 'NONE', #517, #1118 ) ;
#937 = AXIS2_PLACEMENT_3D ( 'NONE', #567, #316, #150 ) ;
#938 = ORIENTED_EDGE ( 'NONE', *, *, #518, .F. ) ;
#939 = DIRECTION ( 'NONE',  ( 1.000000000000000000, 0.000000000000000000, 0.000000000000000000 ) ) ;
#940 = ORIENTED_EDGE ( 'NONE', *, *, #678, .T. ) ;
#941 =( NAMED_UNIT ( * ) SI_UNIT ( $, .STERADIAN. ) SOLID_ANGLE_UNIT ( ) );
#942 = LINE ( 'NONE', #786, #1026 ) ;
#943 = ORIENTED_EDGE ( 'NONE', *, *, #485, .F. ) ;
#944 = VERTEX_POINT ( 'NONE', #381 ) ;
#945 = FACE_BOUND ( 'NONE', #1096, .T. ) ;
#946 = DIRECTION ( 'NONE',  ( -0.000000000000000000, -0.000000000000000000, -1.000000000000000000 ) ) ;
#947 = ADVANCED_FACE ( 'NONE', ( #481 ), #1006, .F. ) ;
#948 = ADVANCED_FACE ( 'NONE', ( #1001 ), #921, .F. ) ;
#949 = ORIENTED_EDGE ( 'NONE', *, *, #477, .T. ) ;
#950 = FACE_BOUND ( 'NONE', #556, .T. ) ;
#951 = EDGE_CURVE ( 'NONE', #94, #1027, #824, .T. ) ;
#952 = ORIENTED_EDGE ( 'NONE', *, *, #362, .F. ) ;
#953 = CIRCLE ( 'NONE', #618, 2.999999999989378274 ) ;
#954 = LINE ( 'NONE', #804, #1051 ) ;
#955 = VECTOR ( 'NONE', #867, 1000.000000000000000 ) ;
#956 = CARTESIAN_POINT ( 'NONE',  ( 5.581895379014859770, -33.95797132120551254, -3.500000000000000000 ) ) ;
#957 = EDGE_CURVE ( 'NONE', #761, #63, #516, .T. ) ;
#958 = VERTEX_POINT ( 'NONE', #734 ) ;
#959 = VECTOR ( 'NONE', #307, 1000.000000000000000 ) ;
#960 = CARTESIAN_POINT ( 'NONE',  ( -2.735868878158038253, -39.46536483401086315, -7.000000000000000000 ) ) ;
#961 = DIRECTION ( 'NONE',  ( -1.000000000000000000, 0.000000000000000000, 0.000000000000000000 ) ) ;
#962 = LINE ( 'NONE', #801, #651 ) ;
#963 = ORIENTED_EDGE ( 'NONE', *, *, #297, .F. ) ;
#964 = FACE_OUTER_BOUND ( 'NONE', #855, .T. ) ;
#965 = DIRECTION ( 'NONE',  ( 0.3438223837342478939, 0.9390347003403545223, 0.000000000000000000 ) ) ;
#966 = DIRECTION ( 'NONE',  ( -0.000000000000000000, -0.000000000000000000, -1.000000000000000000 ) ) ;
#967 = SURFACE_STYLE_USAGE ( .BOTH. , #418 ) ;
#968 = VERTEX_POINT ( 'NONE', #51 ) ;
#969 = DIRECTION ( 'NONE',  ( -0.9390347003403544113, 0.3438223837342481159, 0.000000000000000000 ) ) ;
#970 = VECTOR ( 'NONE', #120, 1000.000000000000000 ) ;
#971 = VECTOR ( 'NONE', #1045, 1000.000000000000227 ) ;
#972 = DIRECTION ( 'NONE',  ( 0.000000000000000000, 0.000000000000000000, -1.000000000000000000 ) ) ;
#973 =( GEOMETRIC_REPRESENTATION_CONTEXT ( 3 ) GLOBAL_UNCERTAINTY_ASSIGNED_CONTEXT ( ( #138 ) ) GLOBAL_UNIT_ASSIGNED_CONTEXT ( ( #671, #327, #941 ) ) REPRESENTATION_CONTEXT ( 'NONE', 'WORKASPACE' ) );
#974 = LINE ( 'NONE', #198, #1009 ) ;
#975 = EDGE_LOOP ( 'NONE', ( #1092, #1087, #572, #56 ) ) ;
#976 = DIRECTION ( 'NONE',  ( -1.000000000000000000, 0.000000000000000000, 0.000000000000000000 ) ) ;
#977 = DIRECTION ( 'NONE',  ( 0.9390347003403546333, -0.3438223837342479494, 0.000000000000000000 ) ) ;
#978 = MECHANICAL_DESIGN_GEOMETRIC_PRESENTATION_REPRESENTATION (  '', ( #494 ), #454 ) ;
#979 = CARTESIAN_POINT ( 'NONE',  ( -24.58505691885804012, -29.33555822370816912, -12.00000000000000000 ) ) ;
#980 = EDGE_CURVE ( 'NONE', #112, #170, #999, .T. ) ;
#981 = ORIENTED_EDGE ( 'NONE', *, *, #797, .F. ) ;
#982 = FACE_OUTER_BOUND ( 'NONE', #320, .T. ) ;
#983 = CARTESIAN_POINT ( 'NONE',  ( -26.89888317055906342, -24.26218009989058899, -12.00000000000000000 ) ) ;
#984 = PRODUCT_DEFINITION ( 'UNKNOWN', '', #130, #463 ) ;
#985 = FACE_OUTER_BOUND ( 'NONE', #1038, .T. ) ;
#986 = ORIENTED_EDGE ( 'NONE', *, *, #519, .F. ) ;
#987 = DIRECTION ( 'NONE',  ( -0.000000000000000000, -0.000000000000000000, 1.000000000000000000 ) ) ;
#988 = DIRECTION ( 'NONE',  ( 0.3438223837342480604, 0.9390347003403544113, 0.000000000000000000 ) ) ;
#989 = AXIS2_PLACEMENT_3D ( 'NONE', #755, #1100, #672 ) ;
#990 = CARTESIAN_POINT ( 'NONE',  ( -0.4181046209638965006, -33.95797132120551254, -7.500000000000000000 ) ) ;
#991 = VECTOR ( 'NONE', #988, 1000.000000000000227 ) ;
#992 = VECTOR ( 'NONE', #632, 1000.000000000000000 ) ;
#993 = ORIENTED_EDGE ( 'NONE', *, *, #680, .T. ) ;
#994 = CARTESIAN_POINT ( 'NONE',  ( -31.42999855982841240, -14.58270175684964798, -7.000000000000000000 ) ) ;
#995 = EDGE_CURVE ( 'NONE', #278, #529, #904, .T. ) ;
#996 = EDGE_CURVE ( 'NONE', #306, #63, #576, .T. ) ;
#997 = FACE_OUTER_BOUND ( 'NONE', #102, .T. ) ;
#998 = CARTESIAN_POINT ( 'NONE',  ( 4.950000000000000178, 6.062001655779398511E-16, 4.500000000000000000 ) ) ;
#999 = CIRCLE ( 'NONE', #219, 4.950000000000000178 ) ;
#1000 = EDGE_LOOP ( 'NONE', ( #473, #217, #73, #787 ) ) ;
#1001 = FACE_OUTER_BOUND ( 'NONE', #495, .T. ) ;
#1002 = EDGE_CURVE ( 'NONE', #958, #444, #461, .T. ) ;
#1003 = DIRECTION ( 'NONE',  ( -0.9390347003403544113, 0.3438223837342483380, 0.000000000000000000 ) ) ;
#1004 = CARTESIAN_POINT ( 'NONE',  ( -26.37069386867637277, -25.48698697148435954, -7.000000000000000000 ) ) ;
#1005 = ORIENTED_EDGE ( 'NONE', *, *, #485, .T. ) ;
#1006 = PLANE ( 'NONE',  #472 ) ;
#1007 = FACE_BOUND ( 'NONE', #931, .T. ) ;
#1008 = CARTESIAN_POINT ( 'NONE',  ( 2.581895379025481940, -33.95797132120551254, 4.949747468277162277 ) ) ;
#1009 = VECTOR ( 'NONE', #447, 1000.000000000000000 ) ;
#1010 = VECTOR ( 'NONE', #639, 1000.000000000000000 ) ;
#1011 = EDGE_LOOP ( 'NONE', ( #993, #598 ) ) ;
#1012 = DIRECTION ( 'NONE',  ( -0.000000000000000000, -0.000000000000000000, 1.000000000000000000 ) ) ;
#1013 = ORIENTED_EDGE ( 'NONE', *, *, #910, .T. ) ;
#1014 = DIRECTION ( 'NONE',  ( -1.000000000000000000, 0.000000000000000000, 0.000000000000000000 ) ) ;
#1015 = CARTESIAN_POINT ( 'NONE',  ( 3.678416542214977270, -36.48930325098030636, -12.00000000000000000 ) ) ;
#1016 = ADVANCED_FACE ( 'NONE', ( #723, #820 ), #46, .T. ) ;
#1017 = VECTOR ( 'NONE', #987, 1000.000000000000000 ) ;
#1018 = ORIENTED_EDGE ( 'NONE', *, *, #878, .F. ) ;
#1019 = ORIENTED_EDGE ( 'NONE', *, *, #308, .T. ) ;
#1020 = LINE ( 'NONE', #526, #544 ) ;
#1021 = ORIENTED_EDGE ( 'NONE', *, *, #478, .T. ) ;
#1022 = CARTESIAN_POINT ( 'NONE',  ( -0.1701547100088397491, -38.27494020079862480, -4.163336342344337027E-14 ) ) ;
#1023 = ORIENTED_EDGE ( 'NONE', *, *, #633, .F. ) ;
#1024 = SURFACE_STYLE_USAGE ( .BOTH. , #607 ) ;
#1025 = LINE ( 'NONE', #256, #392 ) ;
#1026 = VECTOR ( 'NONE', #1035, 1000.000000000000000 ) ;
#1027 = VERTEX_POINT ( 'NONE', #253 ) ;
#1028 = CARTESIAN_POINT ( 'NONE',  ( 2.581895379025481940, -33.95797132120551254, -7.500000000000000000 ) ) ;
#1029 = AXIS2_PLACEMENT_3D ( 'NONE', #64, #577, #1003 ) ;
#1030 = ORIENTED_EDGE ( 'NONE', *, *, #764, .T. ) ;
#1031 = CARTESIAN_POINT ( 'NONE',  ( 8.575042286091862920, -28.69786544593016941, -2.000000000000000000 ) ) ;
#1032 = EDGE_CURVE ( 'NONE', #1103, #892, #335, .T. ) ;
#1033 = EDGE_CURVE ( 'NONE', #444, #379, #751, .T. ) ;
#1034 = UNCERTAINTY_MEASURE_WITH_UNIT (LENGTH_MEASURE( 1.000000000000000082E-05 ), #838, 'distance_accuracy_value', 'NONE');
#1035 = DIRECTION ( 'NONE',  ( -0.000000000000000000, -0.000000000000000000, 1.000000000000000000 ) ) ;
#1036 = CARTESIAN_POINT ( 'NONE',  ( 8.902277329375777981, -30.94752749980057516, 2.081668171172168513E-14 ) ) ;
#1037 = AXIS2_PLACEMENT_3D ( 'NONE', #257, #169, #325 ) ;
#1038 = EDGE_LOOP ( 'NONE', ( #263, #907, #654, #611 ) ) ;
#1039 = CARTESIAN_POINT ( 'NONE',  ( 0.000000000000000000, 0.000000000000000000, -12.00000000000000000 ) ) ;
#1040 = ADVANCED_FACE ( 'NONE', ( #776 ), #246, .T. ) ;
#1041 = DIRECTION ( 'NONE',  ( -0.000000000000000000, -0.000000000000000000, 1.000000000000000000 ) ) ;
#1042 = APPLICATION_PROTOCOL_DEFINITION ( 'draft international standard', 'automotive_design', 1998, #542 ) ;
#1043 = VERTEX_POINT ( 'NONE', #686 ) ;
#1044 = CYLINDRICAL_SURFACE ( 'NONE', #356, 1.749999999989377164 ) ;
#1045 = DIRECTION ( 'NONE',  ( -0.9390347003403543003, 0.3438223837342485045, 0.000000000000000000 ) ) ;
#1046 = ADVANCED_FACE ( 'NONE', ( #1108 ), #692, .F. ) ;
#1047 = AXIS2_PLACEMENT_3D ( 'NONE', #492, #305, #826 ) ;
#1048 = EDGE_LOOP ( 'NONE', ( #631, #83, #897, #593 ) ) ;
#1049 = VECTOR ( 'NONE', #220, 1000.000000000000000 ) ;
#1050 = CARTESIAN_POINT ( 'NONE',  ( -23.89888317056918865, -24.26218009989058899, -12.00000000000000000 ) ) ;
#1051 = VECTOR ( 'NONE', #29, 1000.000000000000114 ) ;
#1052 = CARTESIAN_POINT ( 'NONE',  ( -14.11390885230431458, -38.54737444896743881, -3.500000000000000000 ) ) ;
#1053 = DIRECTION ( 'NONE',  ( 1.000000000000000000, 0.000000000000000000, 0.000000000000000000 ) ) ;
#1054 = ORIENTED_EDGE ( 'NONE', *, *, #896, .F. ) ;
#1055 = FACE_OUTER_BOUND ( 'NONE', #436, .T. ) ;
#1056 = CARTESIAN_POINT ( 'NONE',  ( -23.89888317056918865, -24.26218009989058899, -7.500000000000000000 ) ) ;
#1057 = CARTESIAN_POINT ( 'NONE',  ( -15.86390885229056025, -38.54737444896743881, -7.500000000000000000 ) ) ;
#1058 = ORIENTED_EDGE ( 'NONE', *, *, #234, .F. ) ;
#1059 = LINE ( 'NONE', #103, #490 ) ;
#1060 = FACE_BOUND ( 'NONE', #228, .T. ) ;
#1061 = DIRECTION ( 'NONE',  ( -0.000000000000000000, -0.000000000000000000, -1.000000000000000000 ) ) ;
#1062 = ORIENTED_EDGE ( 'NONE', *, *, #614, .T. ) ;
#1063 = LINE ( 'NONE', #713, #868 ) ;
#1064 = VECTOR ( 'NONE', #548, 1000.000000000000000 ) ;
#1065 = EDGE_CURVE ( 'NONE', #968, #1043, #505, .T. ) ;
#1066 = DIRECTION ( 'NONE',  ( -1.000000000000000000, 0.000000000000000000, -0.000000000000000000 ) ) ;
#1067 = AXIS2_PLACEMENT_3D ( 'NONE', #594, #420, #599 ) ;
#1068 = UNCERTAINTY_MEASURE_WITH_UNIT (LENGTH_MEASURE( 1.000000000000000082E-05 ), #625, 'distance_accuracy_value', 'NONE');
#1069 = CARTESIAN_POINT ( 'NONE',  ( -2.735868878158035589, -39.46536483401085604, -4.163336342344337027E-14 ) ) ;
#1070 = ORIENTED_EDGE ( 'NONE', *, *, #747, .T. ) ;
#1071 = CARTESIAN_POINT ( 'NONE',  ( -25.64888317055906697, -24.26218009989058899, 4.949747468277162277 ) ) ;
#1072 = DIRECTION ( 'NONE',  ( -0.3438223837342488376, -0.9390347003403541892, -3.934443764789796940E-29 ) ) ;
#1073 = VERTEX_POINT ( 'NONE', #67 ) ;
#1074 = ORIENTED_EDGE ( 'NONE', *, *, #273, .T. ) ;
#1075 = DIRECTION ( 'NONE',  ( -0.9071169434423492772, -0.4208786653179388826, 0.000000000000000000 ) ) ;
#1076 = CARTESIAN_POINT ( 'NONE',  ( 4.331895379014858882, -33.95797132120551254, 4.949747468277162277 ) ) ;
#1077 = DIRECTION ( 'NONE',  ( 0.000000000000000000, 0.000000000000000000, -1.000000000000000000 ) ) ;
#1078 = EDGE_CURVE ( 'NONE', #336, #575, #74, .T. ) ;
#1079 = ORIENTED_EDGE ( 'NONE', *, *, #917, .F. ) ;
#1080 = FACE_OUTER_BOUND ( 'NONE', #32, .T. ) ;
#1081 = ORIENTED_EDGE ( 'NONE', *, *, #746, .F. ) ;
#1082 = PLANE ( 'NONE',  #795 ) ;
#1083 = CIRCLE ( 'NONE', #15, 1.749999999989877653 ) ;
#1084 = CARTESIAN_POINT ( 'NONE',  ( 2.581895379025481940, -33.95797132120551254, -12.00000000000000000 ) ) ;
#1085 = CIRCLE ( 'NONE', #545, 2.999999999989378274 ) ;
#1086 = EDGE_CURVE ( 'NONE', #716, #968, #758, .T. ) ;
#1087 = ORIENTED_EDGE ( 'NONE', *, *, #414, .T. ) ;
#1088 = DIRECTION ( 'NONE',  ( 1.000000000000000000, 0.000000000000000000, 0.000000000000000000 ) ) ;
#1089 = LINE ( 'NONE', #1076, #1049 ) ;
#1090 = CYLINDRICAL_SURFACE ( 'NONE', #448, 2.999999999989872101 ) ;
#1091 = VECTOR ( 'NONE', #1075, 1000.000000000000114 ) ;
#1092 = ORIENTED_EDGE ( 'NONE', *, *, #771, .T. ) ;
#1093 = CARTESIAN_POINT ( 'NONE',  ( -23.39463228564583019, -31.90127239185738972, -7.000000000000000000 ) ) ;
#1094 = CARTESIAN_POINT ( 'NONE',  ( -2.735868878158038253, -39.46536483401086315, -12.00000000000000000 ) ) ;
#1095 = DIRECTION ( 'NONE',  ( -1.000000000000000000, 0.000000000000000000, 0.000000000000000000 ) ) ;
#1096 = EDGE_LOOP ( 'NONE', ( #101, #1058 ) ) ;
#1097 = DIRECTION ( 'NONE',  ( -0.3438223837342483380, -0.9390347003403544113, -3.941223038194038889E-29 ) ) ;
#1098 = VERTEX_POINT ( 'NONE', #927 ) ;
#1099 = ADVANCED_FACE ( 'NONE', ( #843 ), #319, .T. ) ;
#1100 = DIRECTION ( 'NONE',  ( 1.085977026291371086E-16, -3.976245070871082594E-17, 1.000000000000000000 ) ) ;
#1101 = AXIS2_PLACEMENT_3D ( 'NONE', #276, #877, #628 ) ;
#1102 = VERTEX_POINT ( 'NONE', #856 ) ;
#1103 = VERTEX_POINT ( 'NONE', #242 ) ;
#1104 = DIRECTION ( 'NONE',  ( -0.000000000000000000, -0.000000000000000000, -1.000000000000000000 ) ) ;
#1105 = PLANE ( 'NONE',  #35 ) ;
#1106 = VECTOR ( 'NONE', #610, 1000.000000000000000 ) ;
#1107 = ORIENTED_EDGE ( 'NONE', *, *, #388, .F. ) ;
#1108 = FACE_OUTER_BOUND ( 'NONE', #705, .T. ) ;
#1109 = ORIENTED_EDGE ( 'NONE', *, *, #261, .T. ) ;
#1110 = FACE_OUTER_BOUND ( 'NONE', #205, .T. ) ;
#1111 = DIRECTION ( 'NONE',  ( -1.000000000000000000, 0.000000000000000000, 1.085977026291375400E-16 ) ) ;
#1112 = ORIENTED_EDGE ( 'NONE', *, *, #802, .T. ) ;
#1113 = EDGE_CURVE ( 'NONE', #75, #121, #331, .T. ) ;
#1114 = CARTESIAN_POINT ( 'NONE',  ( 0.8318953790361046652, -33.95797132120551254, 4.949747468277162277 ) ) ;
#1115 = VERTEX_POINT ( 'NONE', #605 ) ;
#1116 = DIRECTION ( 'NONE',  ( 0.7489098233560317341, 0.6626719222064847425, 0.000000000000000000 ) ) ;
#1117 = DIRECTION ( 'NONE',  ( 1.085977026291371086E-16, -3.976245070871082594E-17, 1.000000000000000000 ) ) ;
#1118 = VECTOR ( 'NONE', #946, 1000.000000000000000 ) ;
ENDSEC;
END-ISO-10303-21;
