ISO-10303-21;
HEADER;
FILE_DESCRIPTION (( 'STEP AP214' ),
    '1' );
FILE_NAME ('009_011_Underside_front_servo_mount.STEP',
    '2024-07-21T08:28:42',
    ( '' ),
    ( '' ),
    'SwSTEP 2.0',
    'SolidWorks 2019',
    '' );
FILE_SCHEMA (( 'AUTOMOTIVE_DESIGN' ));
ENDSEC;

DATA;
#1 = CARTESIAN_POINT ( 'NONE',  ( -9.999999999999994671, -15.99999999999999289, 3.000000000000000000 ) ) ;
#2 = CARTESIAN_POINT ( 'NONE',  ( -24.03333950160445909, -4.000000000000004441, 3.000000000000011102 ) ) ;
#3 = CARTESIAN_POINT ( 'NONE',  ( -22.03333950160447330, 16.00000000000000711, 23.00000000000002132 ) ) ;
#4 = ORIENTED_EDGE ( 'NONE', *, *, #302, .F. ) ;
#5 = EDGE_CURVE ( 'NONE', #1164, #262, #940, .T. ) ;
#6 = DIRECTION ( 'NONE',  ( -7.008983741320429766E-16, -2.312964634635743450E-16, 1.000000000000000000 ) ) ;
#7 = EDGE_CURVE ( 'NONE', #442, #727, #1190, .T. ) ;
#8 = LINE ( 'NONE', #387, #1210 ) ;
#9 = FACE_OUTER_BOUND ( 'NONE', #670, .T. ) ;
#10 = ORIENTED_EDGE ( 'NONE', *, *, #169, .F. ) ;
#11 = CARTESIAN_POINT ( 'NONE',  ( -0.001669750802235636655, -11.00000000000000711, 7.949747468305831788 ) ) ;
#12 = MECHANICAL_DESIGN_GEOMETRIC_PRESENTATION_REPRESENTATION (  '', ( #395 ), #1045 ) ;
#13 = AXIS2_PLACEMENT_3D ( 'NONE', #197, #589, #872 ) ;
#14 = CARTESIAN_POINT ( 'NONE',  ( -18.23333950160446193, -3.999999999999999112, 7.949999999999998401 ) ) ;
#15 = DIRECTION ( 'NONE',  ( 0.000000000000000000, 1.000000000000000000, 0.000000000000000000 ) ) ;
#16 = ORIENTED_EDGE ( 'NONE', *, *, #1256, .T. ) ;
#17 = DIRECTION ( 'NONE',  ( -1.000000000000000000, -0.000000000000000000, -0.000000000000000000 ) ) ;
#18 = PRODUCT_RELATED_PRODUCT_CATEGORY ( 'part', '', ( #1125 ) ) ;
#19 = DIRECTION ( 'NONE',  ( -1.000000000000000000, 0.000000000000000000, 0.000000000000000000 ) ) ;
#20 = DIRECTION ( 'NONE',  ( 1.000000000000000000, 0.000000000000000000, 0.000000000000000000 ) ) ;
#21 = ORIENTED_EDGE ( 'NONE', *, *, #908, .F. ) ;
#22 = FACE_OUTER_BOUND ( 'NONE', #236, .T. ) ;
#23 = EDGE_CURVE ( 'NONE', #727, #335, #935, .T. ) ;
#24 = DIRECTION ( 'NONE',  ( -3.252606517456521191E-16, 1.000000000000000000, 0.000000000000000000 ) ) ;
#25 = EDGE_CURVE ( 'NONE', #421, #775, #160, .T. ) ;
#26 = LINE ( 'NONE', #829, #867 ) ;
#27 = CARTESIAN_POINT ( 'NONE',  ( -9.999999999999994671, 15.99999999999999289, 0.000000000000000000 ) ) ;
#28 = AXIS2_PLACEMENT_3D ( 'NONE', #287, #366, #272 ) ;
#29 = ORIENTED_EDGE ( 'NONE', *, *, #54, .F. ) ;
#30 = DIRECTION ( 'NONE',  ( -0.000000000000000000, -0.000000000000000000, 1.000000000000000000 ) ) ;
#31 = VECTOR ( 'NONE', #716, 1000.000000000000000 ) ;
#32 = AXIS2_PLACEMENT_3D ( 'NONE', #334, #742, #1214 ) ;
#33 = DIRECTION ( 'NONE',  ( -1.000000000000000000, 0.000000000000000000, 0.000000000000000000 ) ) ;
#34 = AXIS2_PLACEMENT_3D ( 'NONE', #944, #643, #939 ) ;
#35 = CARTESIAN_POINT ( 'NONE',  ( -27.03333950160446264, -2.385258065112858054E-14, 6.000000000000009770 ) ) ;
#36 = ORIENTED_EDGE ( 'NONE', *, *, #1056, .T. ) ;
#37 = DIRECTION ( 'NONE',  ( -0.000000000000000000, -0.000000000000000000, 1.000000000000000000 ) ) ;
#38 = ORIENTED_EDGE ( 'NONE', *, *, #738, .T. ) ;
#39 = CARTESIAN_POINT ( 'NONE',  ( -9.999999999999994671, 16.00000000000000711, 7.949999999999998401 ) ) ;
#40 = CYLINDRICAL_SURFACE ( 'NONE', #319, 1.749999999999999778 ) ;
#41 = EDGE_CURVE ( 'NONE', #342, #352, #870, .T. ) ;
#42 = VERTEX_POINT ( 'NONE', #2 ) ;
#43 = DIRECTION ( 'NONE',  ( 0.000000000000000000, 1.000000000000000000, 0.000000000000000000 ) ) ;
#44 = ORIENTED_EDGE ( 'NONE', *, *, #661, .F. ) ;
#45 = CARTESIAN_POINT ( 'NONE',  ( 1.748330249197764141, -11.00000000000000711, 28.05025253169416999 ) ) ;
#46 = EDGE_CURVE ( 'NONE', #775, #365, #623, .T. ) ;
#47 = LINE ( 'NONE', #731, #115 ) ;
#48 = VERTEX_POINT ( 'NONE', #1074 ) ;
#49 = CARTESIAN_POINT ( 'NONE',  ( -24.03333950160446264, -2.125049543716336989E-14, 6.000000000000009770 ) ) ;
#50 = VERTEX_POINT ( 'NONE', #795 ) ;
#51 = CARTESIAN_POINT ( 'NONE',  ( 9.500000000000300204, 0.000000000000000000, 0.000000000000000000 ) ) ;
#52 = LINE ( 'NONE', #821, #542 ) ;
#53 = ORIENTED_EDGE ( 'NONE', *, *, #988, .T. ) ;
#54 = EDGE_CURVE ( 'NONE', #910, #570, #8, .T. ) ;
#55 = DIRECTION ( 'NONE',  ( 1.000000000000000000, 8.673617379884038430E-16, 0.000000000000000000 ) ) ;
#56 = VECTOR ( 'NONE', #245, 1000.000000000000000 ) ;
#57 = ORIENTED_EDGE ( 'NONE', *, *, #1089, .F. ) ;
#58 = DIRECTION ( 'NONE',  ( 0.000000000000000000, 0.000000000000000000, 1.000000000000000000 ) ) ;
#59 = DIRECTION ( 'NONE',  ( -1.000000000000000000, -1.626303258728256651E-16, 0.000000000000000000 ) ) ;
#60 = EDGE_LOOP ( 'NONE', ( #566, #543, #676, #631 ) ) ;
#61 = CARTESIAN_POINT ( 'NONE',  ( -18.03333950160445553, -15.99999999999999289, 3.000000000000009770 ) ) ;
#62 = VERTEX_POINT ( 'NONE', #291 ) ;
#63 = ADVANCED_FACE ( 'NONE', ( #482 ), #109, .F. ) ;
#64 = DIRECTION ( 'NONE',  ( -1.000000000000000000, 0.000000000000000000, 0.000000000000000000 ) ) ;
#65 = CARTESIAN_POINT ( 'NONE',  ( 9.500000000000000000, 16.00000000000000711, 3.000000000000000000 ) ) ;
#66 = CARTESIAN_POINT ( 'NONE',  ( 1.748330249197764141, 11.00000000000007816, 7.949747468305831788 ) ) ;
#67 = LINE ( 'NONE', #1153, #859 ) ;
#68 = EDGE_LOOP ( 'NONE', ( #681, #166, #38, #469 ) ) ;
#69 = CARTESIAN_POINT ( 'NONE',  ( 1.748330249197764141, 11.00000000000007816, -1.000000000000000000 ) ) ;
#70 = CARTESIAN_POINT ( 'NONE',  ( -22.98333950160447259, 1.300000000000051781, 7.949999999999998401 ) ) ;
#71 = EDGE_CURVE ( 'NONE', #257, #1040, #647, .T. ) ;
#72 = ORIENTED_EDGE ( 'NONE', *, *, #996, .F. ) ;
#73 = CARTESIAN_POINT ( 'NONE',  ( -13.25000000000002487, -15.99999999999999289, -0.7499999999999902300 ) ) ;
#74 = ORIENTED_EDGE ( 'NONE', *, *, #605, .T. ) ;
#75 = PRESENTATION_LAYER_ASSIGNMENT (  '', '', ( #395 ) ) ;
#76 = AXIS2_PLACEMENT_3D ( 'NONE', #51, #424, #1006 ) ;
#77 = DIRECTION ( 'NONE',  ( -1.000000000000000000, 0.000000000000000000, 0.000000000000000000 ) ) ;
#78 = EDGE_CURVE ( 'NONE', #62, #1034, #979, .T. ) ;
#79 = ADVANCED_FACE ( 'NONE', ( #104 ), #198, .F. ) ;
#80 = ORIENTED_EDGE ( 'NONE', *, *, #1135, .T. ) ;
#81 = DIRECTION ( 'NONE',  ( 0.000000000000000000, 0.000000000000000000, 1.000000000000000000 ) ) ;
#82 = ORIENTED_EDGE ( 'NONE', *, *, #41, .T. ) ;
#83 = CARTESIAN_POINT ( 'NONE',  ( 4.074573354723061514E-14, -15.99999999999992362, 33.00000000000000000 ) ) ;
#84 = DIRECTION ( 'NONE',  ( -1.000000000000000000, 0.000000000000000000, 0.000000000000000000 ) ) ;
#85 = CARTESIAN_POINT ( 'NONE',  ( -9.999999999999994671, 16.00000000000000000, 33.00000000000000000 ) ) ;
#86 = ORIENTED_EDGE ( 'NONE', *, *, #5, .F. ) ;
#87 =( LENGTH_UNIT ( ) NAMED_UNIT ( * ) SI_UNIT ( .MILLI., .METRE. ) );
#88 = CIRCLE ( 'NONE', #28, 1.749999999999999778 ) ;
#89 = CYLINDRICAL_SURFACE ( 'NONE', #294, 1.749999999999999778 ) ;
#90 = VECTOR ( 'NONE', #1078, 1000.000000000000000 ) ;
#91 = DIRECTION ( 'NONE',  ( 1.000000000000000000, 0.000000000000000000, 0.000000000000000000 ) ) ;
#92 = CARTESIAN_POINT ( 'NONE',  ( -18.23333950160446193, -4.000000000000007105, 54.85040045399626507 ) ) ;
#93 = STYLED_ITEM ( 'NONE', ( #698 ), #762 ) ;
#94 = EDGE_CURVE ( 'NONE', #352, #342, #1130, .T. ) ;
#95 = ORIENTED_EDGE ( 'NONE', *, *, #738, .F. ) ;
#96 = AXIS2_PLACEMENT_3D ( 'NONE', #351, #170, #77 ) ;
#97 = CARTESIAN_POINT ( 'NONE',  ( 9.500000000000300204, 16.00000000000000000, 33.00000000000000000 ) ) ;
#98 = CARTESIAN_POINT ( 'NONE',  ( -0.001669750802235636655, 11.00000000000007816, 33.00000000000000000 ) ) ;
#99 = DIRECTION ( 'NONE',  ( 0.000000000000000000, 0.000000000000000000, 1.000000000000000000 ) ) ;
#100 = ORIENTED_EDGE ( 'NONE', *, *, #7, .T. ) ;
#101 = EDGE_CURVE ( 'NONE', #1247, #1241, #193, .T. ) ;
#102 = ADVANCED_FACE ( 'NONE', ( #680, #595, #1162 ), #590, .T. ) ;
#103 = LINE ( 'NONE', #490, #669 ) ;
#104 = FACE_OUTER_BOUND ( 'NONE', #68, .T. ) ;
#105 = DIRECTION ( 'NONE',  ( 0.000000000000000000, -0.000000000000000000, -1.000000000000000000 ) ) ;
#106 = VERTEX_POINT ( 'NONE', #14 ) ;
#107 = ORIENTED_EDGE ( 'NONE', *, *, #881, .F. ) ;
#108 = LINE ( 'NONE', #1174, #1168 ) ;
#109 = CYLINDRICAL_SURFACE ( 'NONE', #486, 2.749999999999997335 ) ;
#110 = ADVANCED_FACE ( 'NONE', ( #691, #1169, #1082 ), #213, .F. ) ;
#111 =( NAMED_UNIT ( * ) PLANE_ANGLE_UNIT ( ) SI_UNIT ( $, .RADIAN. ) );
#112 = ORIENTED_EDGE ( 'NONE', *, *, #1071, .T. ) ;
#113 = DIRECTION ( 'NONE',  ( -1.000000000000000000, 0.000000000000000000, 0.000000000000000000 ) ) ;
#114 = DIRECTION ( 'NONE',  ( 0.000000000000000000, 1.000000000000000000, 0.000000000000000000 ) ) ;
#115 = VECTOR ( 'NONE', #147, 1000.000000000000000 ) ;
#116 = AXIS2_PLACEMENT_3D ( 'NONE', #356, #258, #264 ) ;
#117 = ADVANCED_FACE ( 'NONE', ( #398 ), #790, .F. ) ;
#118 = CIRCLE ( 'NONE', #887, 2.999999999999999112 ) ;
#119 = DIRECTION ( 'NONE',  ( -1.000000000000000000, 0.000000000000000000, 0.000000000000000000 ) ) ;
#120 = VECTOR ( 'NONE', #465, 1000.000000000000000 ) ;
#121 = ORIENTED_EDGE ( 'NONE', *, *, #248, .F. ) ;
#122 = CARTESIAN_POINT ( 'NONE',  ( 9.500000000000300204, 16.00000000000000000, 36.00000000000000711 ) ) ;
#123 = EDGE_CURVE ( 'NONE', #708, #1004, #599, .T. ) ;
#124 = CARTESIAN_POINT ( 'NONE',  ( -12.99999999999999645, -15.99999999999999289, 7.949999999999998401 ) ) ;
#125 = CARTESIAN_POINT ( 'NONE',  ( -9.500000000000000000, 16.00000000000000711, 3.000000000000000000 ) ) ;
#126 = SURFACE_STYLE_FILL_AREA ( #307 ) ;
#127 = ORIENTED_EDGE ( 'NONE', *, *, #1036, .T. ) ;
#128 = CARTESIAN_POINT ( 'NONE',  ( -27.03333950160446264, -4.000000000000007105, 3.000000000000011546 ) ) ;
#129 = CARTESIAN_POINT ( 'NONE',  ( -0.001669750802235636655, -11.00000000000000711, -1.000000000000000000 ) ) ;
#130 = LINE ( 'NONE', #719, #927 ) ;
#131 = ORIENTED_EDGE ( 'NONE', *, *, #847, .T. ) ;
#132 = CARTESIAN_POINT ( 'NONE',  ( 9.500000000000000000, 16.00000000000000711, 3.000000000000000000 ) ) ;
#133 = EDGE_LOOP ( 'NONE', ( #559, #127 ) ) ;
#134 = DIRECTION ( 'NONE',  ( 0.000000000000000000, 2.312964634635743450E-16, -1.000000000000000000 ) ) ;
#135 = VECTOR ( 'NONE', #192, 1000.000000000000000 ) ;
#136 = LINE ( 'NONE', #560, #507 ) ;
#137 = VERTEX_POINT ( 'NONE', #1069 ) ;
#138 = CARTESIAN_POINT ( 'NONE',  ( -16.99999999999997513, 15.99999999999999289, 33.00000000000000000 ) ) ;
#139 = EDGE_LOOP ( 'NONE', ( #21, #385, #711, #303, #1199, #29 ) ) ;
#140 = EDGE_CURVE ( 'NONE', #293, #349, #666, .T. ) ;
#141 = CARTESIAN_POINT ( 'NONE',  ( 10.60345844755196332, 0.000000000000000000, 28.04999999999999716 ) ) ;
#142 = CARTESIAN_POINT ( 'NONE',  ( -27.03333950160446264, -4.000000000000007105, 6.000000000000009770 ) ) ;
#143 = VERTEX_POINT ( 'NONE', #488 ) ;
#144 = DIRECTION ( 'NONE',  ( 0.000000000000000000, 1.000000000000000000, 0.000000000000000000 ) ) ;
#145 = ORIENTED_EDGE ( 'NONE', *, *, #1080, .F. ) ;
#146 = CARTESIAN_POINT ( 'NONE',  ( -22.03333950160447330, 7.000000000000007994, 10.25000000000002309 ) ) ;
#147 = DIRECTION ( 'NONE',  ( 1.084202172485504434E-16, -1.000000000000000000, 0.000000000000000000 ) ) ;
#148 = ORIENTED_EDGE ( 'NONE', *, *, #755, .F. ) ;
#149 = CARTESIAN_POINT ( 'NONE',  ( -50.41392782238702353, 16.00000000000000355, 3.000000000000009770 ) ) ;
#150 = VECTOR ( 'NONE', #545, 1000.000000000000000 ) ;
#151 = ORIENTED_EDGE ( 'NONE', *, *, #7, .F. ) ;
#152 = AXIS2_PLACEMENT_3D ( 'NONE', #353, #144, #532 ) ;
#153 = DIRECTION ( 'NONE',  ( 1.626303258728256651E-16, -1.000000000000000000, 0.000000000000000000 ) ) ;
#154 = ORIENTED_EDGE ( 'NONE', *, *, #530, .F. ) ;
#155 = CARTESIAN_POINT ( 'NONE',  ( 1.748330249197764141, -11.00000000000000711, 7.949747468305831788 ) ) ;
#156 = CIRCLE ( 'NONE', #767, 2.999999999999999112 ) ;
#157 = ORIENTED_EDGE ( 'NONE', *, *, #552, .F. ) ;
#158 = DIRECTION ( 'NONE',  ( 0.000000000000000000, 0.000000000000000000, 1.000000000000000000 ) ) ;
#159 = CARTESIAN_POINT ( 'NONE',  ( 9.500000000000310862, -15.99999999999992362, 37.00000000000000711 ) ) ;
#160 = LINE ( 'NONE', #66, #321 ) ;
#161 = LINE ( 'NONE', #551, #1124 ) ;
#162 = VERTEX_POINT ( 'NONE', #439 ) ;
#163 = PRODUCT_DEFINITION_SHAPE ( 'NONE', 'NONE',  #200 ) ;
#164 = AXIS2_PLACEMENT_3D ( 'NONE', #1000, #1115, #816 ) ;
#165 = DIRECTION ( 'NONE',  ( 0.000000000000000000, -0.000000000000000000, -1.000000000000000000 ) ) ;
#166 = ORIENTED_EDGE ( 'NONE', *, *, #418, .T. ) ;
#167 = CARTESIAN_POINT ( 'NONE',  ( -9.499999999999996447, -15.99999999999999289, 3.000000000000000000 ) ) ;
#168 = ORIENTED_EDGE ( 'NONE', *, *, #1036, .F. ) ;
#169 = EDGE_CURVE ( 'NONE', #50, #226, #909, .T. ) ;
#170 = DIRECTION ( 'NONE',  ( -0.000000000000000000, -0.000000000000000000, -1.000000000000000000 ) ) ;
#171 = ORIENTED_EDGE ( 'NONE', *, *, #512, .T. ) ;
#172 = CARTESIAN_POINT ( 'NONE',  ( -16.99999999999997513, -15.99999999999992362, 33.00000000000000000 ) ) ;
#173 = ORIENTED_EDGE ( 'NONE', *, *, #1097, .T. ) ;
#174 = VECTOR ( 'NONE', #24, 1000.000000000000000 ) ;
#175 = DIRECTION ( 'NONE',  ( 1.000000000000000000, 8.673617379884038430E-16, 0.000000000000000000 ) ) ;
#176 = LINE ( 'NONE', #747, #804 ) ;
#177 = ORIENTED_EDGE ( 'NONE', *, *, #1089, .T. ) ;
#178 = CARTESIAN_POINT ( 'NONE',  ( -27.03333950160446264, -2.385258065112858054E-14, 1.748601263784626284E-15 ) ) ;
#179 = ORIENTED_EDGE ( 'NONE', *, *, #277, .F. ) ;
#180 = DIRECTION ( 'NONE',  ( -0.000000000000000000, -0.000000000000000000, -1.000000000000000000 ) ) ;
#181 = ADVANCED_FACE ( 'NONE', ( #1087 ), #346, .T. ) ;
#182 = EDGE_LOOP ( 'NONE', ( #444, #1096, #1047, #1249, #860, #1077 ) ) ;
#183 = LINE ( 'NONE', #575, #1059 ) ;
#184 = ORIENTED_EDGE ( 'NONE', *, *, #71, .F. ) ;
#185 = AXIS2_PLACEMENT_3D ( 'NONE', #761, #384, #81 ) ;
#186 = LINE ( 'NONE', #965, #641 ) ;
#187 = VECTOR ( 'NONE', #892, 1000.000000000000000 ) ;
#188 = VECTOR ( 'NONE', #1237, 1000.000000000000000 ) ;
#189 = CARTESIAN_POINT ( 'NONE',  ( -0.001669750802235636655, -11.00000000000000711, 37.00000000000000711 ) ) ;
#190 = ORIENTED_EDGE ( 'NONE', *, *, #1142, .T. ) ;
#191 = EDGE_CURVE ( 'NONE', #226, #42, #156, .T. ) ;
#192 = DIRECTION ( 'NONE',  ( -7.008983741320430752E-16, -5.411895585612823913E-31, 1.000000000000000000 ) ) ;
#193 = LINE ( 'NONE', #207, #235 ) ;
#194 = ORIENTED_EDGE ( 'NONE', *, *, #915, .T. ) ;
#195 = ORIENTED_EDGE ( 'NONE', *, *, #707, .T. ) ;
#196 = EDGE_CURVE ( 'NONE', #652, #1144, #52, .T. ) ;
#197 = CARTESIAN_POINT ( 'NONE',  ( -0.001669750802235636655, 11.00000000000007816, 28.05025253169416999 ) ) ;
#198 = CYLINDRICAL_SURFACE ( 'NONE', #808, 1.749999999999999778 ) ;
#199 = LINE ( 'NONE', #27, #701 ) ;
#200 = PRODUCT_DEFINITION ( 'UNKNOWN', '', #933, #524 ) ;
#201 = ORIENTED_EDGE ( 'NONE', *, *, #922, .T. ) ;
#202 = ORIENTED_EDGE ( 'NONE', *, *, #1216, .F. ) ;
#203 = EDGE_CURVE ( 'NONE', #359, #162, #26, .T. ) ;
#204 = DIRECTION ( 'NONE',  ( 0.000000000000000000, 0.000000000000000000, 1.000000000000000000 ) ) ;
#205 = VECTOR ( 'NONE', #774, 1000.000000000000000 ) ;
#206 = ADVANCED_FACE ( 'NONE', ( #1109 ), #40, .F. ) ;
#207 = CARTESIAN_POINT ( 'NONE',  ( -18.03333950160442356, -44.65811026761230096, 28.04999999999999716 ) ) ;
#208 = CIRCLE ( 'NONE', #1122, 2.749999999999997335 ) ;
#209 = ORIENTED_EDGE ( 'NONE', *, *, #793, .T. ) ;
#210 = PLANE ( 'NONE',  #1079 ) ;
#211 = LINE ( 'NONE', #318, #786 ) ;
#212 = VECTOR ( 'NONE', #608, 1000.000000000000000 ) ;
#213 = PLANE ( 'NONE',  #1106 ) ;
#214 = DIRECTION ( 'NONE',  ( 0.000000000000000000, 0.000000000000000000, 1.000000000000000000 ) ) ;
#215 = AXIS2_PLACEMENT_3D ( 'NONE', #189, #975, #20 ) ;
#216 = VERTEX_POINT ( 'NONE', #629 ) ;
#217 = DIRECTION ( 'NONE',  ( 0.000000000000000000, 0.000000000000000000, -1.000000000000000000 ) ) ;
#218 = CARTESIAN_POINT ( 'NONE',  ( -24.03333950160445909, -4.000000000000004441, 6.000000000000009770 ) ) ;
#219 = EDGE_CURVE ( 'NONE', #137, #455, #229, .T. ) ;
#220 = EDGE_LOOP ( 'NONE', ( #947, #194, #177, #504 ) ) ;
#221 = CARTESIAN_POINT ( 'NONE',  ( -28.25000000000002487, 16.00000000000000711, 21.74999999999981526 ) ) ;
#222 = CARTESIAN_POINT ( 'NONE',  ( -12.99999999999999645, -15.99999999999999289, -1.000000000000000000 ) ) ;
#223 = VERTEX_POINT ( 'NONE', #425 ) ;
#224 = EDGE_CURVE ( 'NONE', #455, #442, #130, .T. ) ;
#225 = CARTESIAN_POINT ( 'NONE',  ( -9.999999999999994671, 16.00000000000000711, 40.09031735997639601 ) ) ;
#226 = VERTEX_POINT ( 'NONE', #142 ) ;
#227 = EDGE_CURVE ( 'NONE', #271, #972, #714, .T. ) ;
#228 = DIRECTION ( 'NONE',  ( 0.000000000000000000, 0.000000000000000000, 1.000000000000000000 ) ) ;
#229 = LINE ( 'NONE', #1204, #212 ) ;
#230 = PRODUCT_CONTEXT ( 'NONE', #611, 'mechanical' ) ;
#231 = AXIS2_PLACEMENT_3D ( 'NONE', #650, #548, #1223 ) ;
#232 = VECTOR ( 'NONE', #438, 1000.000000000000000 ) ;
#233 = VERTEX_POINT ( 'NONE', #1212 ) ;
#234 = FACE_OUTER_BOUND ( 'NONE', #240, .T. ) ;
#235 = VECTOR ( 'NONE', #783, 1000.000000000000000 ) ;
#236 = EDGE_LOOP ( 'NONE', ( #929, #44, #732, #10 ) ) ;
#237 = LINE ( 'NONE', #527, #565 ) ;
#238 = EDGE_CURVE ( 'NONE', #405, #1141, #47, .T. ) ;
#239 = FACE_BOUND ( 'NONE', #322, .T. ) ;
#240 = EDGE_LOOP ( 'NONE', ( #674, #958 ) ) ;
#241 = LINE ( 'NONE', #225, #1246 ) ;
#242 = ORIENTED_EDGE ( 'NONE', *, *, #468, .F. ) ;
#243 = CARTESIAN_POINT ( 'NONE',  ( -9.999999999999994671, -15.99999999999999289, 40.09031735997639601 ) ) ;
#244 = ADVANCED_FACE ( 'NONE', ( #914 ), #432, .T. ) ;
#245 = DIRECTION ( 'NONE',  ( 8.673617379884033500E-16, -1.000000000000000000, 0.000000000000000000 ) ) ;
#246 = ORIENTED_EDGE ( 'NONE', *, *, #771, .T. ) ;
#247 = DIRECTION ( 'NONE',  ( 8.673617379884033500E-16, -1.000000000000000000, 0.000000000000000000 ) ) ;
#248 = EDGE_CURVE ( 'NONE', #498, #1100, #515, .T. ) ;
#249 = VECTOR ( 'NONE', #43, 1000.000000000000000 ) ;
#250 = ORIENTED_EDGE ( 'NONE', *, *, #196, .F. ) ;
#251 = VECTOR ( 'NONE', #511, 1000.000000000000000 ) ;
#252 = PLANE ( 'NONE',  #984 ) ;
#253 = CIRCLE ( 'NONE', #416, 2.749999999999997335 ) ;
#254 = CYLINDRICAL_SURFACE ( 'NONE', #96, 1.749999999999999778 ) ;
#255 = DIRECTION ( 'NONE',  ( -1.000000000000000000, -8.673617379884038430E-16, 2.312964634635743450E-15 ) ) ;
#256 = PLANE ( 'NONE',  #373 ) ;
#257 = VERTEX_POINT ( 'NONE', #326 ) ;
#258 = DIRECTION ( 'NONE',  ( 0.000000000000000000, 0.000000000000000000, -1.000000000000000000 ) ) ;
#259 = CARTESIAN_POINT ( 'NONE',  ( -22.03333950160447330, 7.000000000000007994, 13.00000000000001954 ) ) ;
#260 = ORIENTED_EDGE ( 'NONE', *, *, #227, .T. ) ;
#261 = FACE_OUTER_BOUND ( 'NONE', #493, .T. ) ;
#262 = VERTEX_POINT ( 'NONE', #222 ) ;
#263 = EDGE_CURVE ( 'NONE', #1188, #1213, #274, .T. ) ;
#264 = DIRECTION ( 'NONE',  ( 0.000000000000000000, 1.000000000000000000, 0.000000000000000000 ) ) ;
#265 = DIRECTION ( 'NONE',  ( 0.000000000000000000, 0.000000000000000000, 1.000000000000000000 ) ) ;
#266 = EDGE_LOOP ( 'NONE', ( #377, #844, #597, #389 ) ) ;
#267 = CARTESIAN_POINT ( 'NONE',  ( -12.99999999999997691, -15.99999999999992362, 37.00000000000000711 ) ) ;
#268 = ADVANCED_FACE ( 'NONE', ( #987, #239, #1014 ), #921, .F. ) ;
#269 = ORIENTED_EDGE ( 'NONE', *, *, #679, .F. ) ;
#270 = LINE ( 'NONE', #83, #120 ) ;
#271 = VERTEX_POINT ( 'NONE', #320 ) ;
#272 = DIRECTION ( 'NONE',  ( 1.000000000000000000, 0.000000000000000000, 0.000000000000000000 ) ) ;
#273 = ORIENTED_EDGE ( 'NONE', *, *, #304, .T. ) ;
#274 = CIRCLE ( 'NONE', #981, 1.749999999999999778 ) ;
#275 = VECTOR ( 'NONE', #1217, 1000.000000000000000 ) ;
#276 = CARTESIAN_POINT ( 'NONE',  ( 0.000000000000000000, 0.000000000000000000, 3.000000000000000000 ) ) ;
#277 = EDGE_CURVE ( 'NONE', #1144, #1164, #999, .T. ) ;
#278 = VECTOR ( 'NONE', #84, 1000.000000000000000 ) ;
#279 = FACE_OUTER_BOUND ( 'NONE', #510, .T. ) ;
#280 = ORIENTED_EDGE ( 'NONE', *, *, #1147, .T. ) ;
#281 = LINE ( 'NONE', #843, #1119 ) ;
#282 = EDGE_LOOP ( 'NONE', ( #184, #95 ) ) ;
#283 = DIRECTION ( 'NONE',  ( 1.000000000000000000, 0.000000000000000000, 0.000000000000000000 ) ) ;
#284 = CYLINDRICAL_SURFACE ( 'NONE', #1228, 1.749999999999999778 ) ;
#285 = EDGE_CURVE ( 'NONE', #570, #296, #136, .T. ) ;
#286 = CARTESIAN_POINT ( 'NONE',  ( -0.001669750802235636655, -11.00000000000000711, 33.00000000000000000 ) ) ;
#287 = CARTESIAN_POINT ( 'NONE',  ( -0.001669750802235636655, -11.00000000000000711, 33.00000000000000000 ) ) ;
#288 = ORIENTED_EDGE ( 'NONE', *, *, #1234, .T. ) ;
#289 = VECTOR ( 'NONE', #754, 1000.000000000000000 ) ;
#290 = CARTESIAN_POINT ( 'NONE',  ( -0.001669750802235636655, 11.00000000000007816, 28.05025253169416999 ) ) ;
#291 = CARTESIAN_POINT ( 'NONE',  ( -18.03333950160445553, -15.99999999999999645, 7.949999999999998401 ) ) ;
#292 = DIRECTION ( 'NONE',  ( 1.000000000000000000, 0.000000000000000000, 0.000000000000000000 ) ) ;
#293 = VERTEX_POINT ( 'NONE', #858 ) ;
#294 = AXIS2_PLACEMENT_3D ( 'NONE', #290, #594, #1073 ) ;
#295 = EDGE_CURVE ( 'NONE', #421, #912, #630, .T. ) ;
#296 = VERTEX_POINT ( 'NONE', #950 ) ;
#297 = DIRECTION ( 'NONE',  ( -0.7071067811865435759, 1.635512977795608695E-16, -0.7071067811865514585 ) ) ;
#298 = VECTOR ( 'NONE', #1029, 1000.000000000000000 ) ;
#299 = DIRECTION ( 'NONE',  ( 0.000000000000000000, 0.000000000000000000, -1.000000000000000000 ) ) ;
#300 =( NAMED_UNIT ( * ) PLANE_ANGLE_UNIT ( ) SI_UNIT ( $, .RADIAN. ) );
#301 = ORIENTED_EDGE ( 'NONE', *, *, #1147, .F. ) ;
#302 = EDGE_CURVE ( 'NONE', #162, #1164, #556, .T. ) ;
#303 = ORIENTED_EDGE ( 'NONE', *, *, #554, .F. ) ;
#304 = EDGE_CURVE ( 'NONE', #143, #756, #270, .T. ) ;
#305 = CARTESIAN_POINT ( 'NONE',  ( -22.03333950160447330, 16.00000000000000711, 20.25000000000002487 ) ) ;
#306 = DIRECTION ( 'NONE',  ( -1.000000000000000000, 0.000000000000000000, -0.000000000000000000 ) ) ;
#307 = FILL_AREA_STYLE ('',( #692 ) ) ;
#308 = ORIENTED_EDGE ( 'NONE', *, *, #494, .F. ) ;
#309 = DIRECTION ( 'NONE',  ( 0.000000000000000000, 0.000000000000000000, 1.000000000000000000 ) ) ;
#310 = CARTESIAN_POINT ( 'NONE',  ( -22.03333950160447330, 7.000000000000007994, 23.00000000000002132 ) ) ;
#311 = AXIS2_PLACEMENT_3D ( 'NONE', #3, #15, #214 ) ;
#312 = DIRECTION ( 'NONE',  ( -1.942890293094029369E-16, -2.106485876673545235E-32, -1.000000000000000000 ) ) ;
#313 = AXIS2_PLACEMENT_3D ( 'NONE', #617, #435, #632 ) ;
#314 = ORIENTED_EDGE ( 'NONE', *, *, #962, .F. ) ;
#315 = AXIS2_PLACEMENT_3D ( 'NONE', #953, #936, #861 ) ;
#316 = CARTESIAN_POINT ( 'NONE',  ( -22.03333950160447330, 16.00000000000000711, 25.75000000000001421 ) ) ;
#317 = EDGE_CURVE ( 'NONE', #106, #633, #176, .T. ) ;
#318 = CARTESIAN_POINT ( 'NONE',  ( -9.999999999999994671, -15.99999999999999289, 40.09031735997639601 ) ) ;
#319 = AXIS2_PLACEMENT_3D ( 'NONE', #815, #419, #726 ) ;
#320 = CARTESIAN_POINT ( 'NONE',  ( -24.03333950160447685, 15.99999999999999645, 33.00000000000000000 ) ) ;
#321 = VECTOR ( 'NONE', #971, 1000.000000000000000 ) ;
#322 = EDGE_LOOP ( 'NONE', ( #413, #916 ) ) ;
#323 = LINE ( 'NONE', #1084, #479 ) ;
#324 = DIRECTION ( 'NONE',  ( -8.673617379884033500E-16, 1.000000000000000000, -0.000000000000000000 ) ) ;
#325 = EDGE_CURVE ( 'NONE', #365, #775, #618, .T. ) ;
#326 = CARTESIAN_POINT ( 'NONE',  ( 1.748330249197764141, -11.00000000000000711, 37.00000000000000711 ) ) ;
#327 = ADVANCED_FACE ( 'NONE', ( #369 ), #254, .F. ) ;
#328 = ORIENTED_EDGE ( 'NONE', *, *, #1071, .F. ) ;
#329 = CARTESIAN_POINT ( 'NONE',  ( 1.748330249197764141, 11.00000000000007816, 28.05025253169416999 ) ) ;
#330 = ORIENTED_EDGE ( 'NONE', *, *, #755, .T. ) ;
#331 = DIRECTION ( 'NONE',  ( -1.000000000000000000, 0.000000000000000000, -0.000000000000000000 ) ) ;
#332 = CARTESIAN_POINT ( 'NONE',  ( -0.001669750802235636655, 11.00000000000007816, 37.00000000000000711 ) ) ;
#333 = ORIENTED_EDGE ( 'NONE', *, *, #528, .T. ) ;
#334 = CARTESIAN_POINT ( 'NONE',  ( -12.99999999999998757, -4.000000000000003553, 37.00000000000003553 ) ) ;
#335 = VERTEX_POINT ( 'NONE', #1123 ) ;
#336 = EDGE_CURVE ( 'NONE', #352, #1188, #541, .T. ) ;
#337 = LINE ( 'NONE', #408, #668 ) ;
#338 = DIRECTION ( 'NONE',  ( 1.000000000000000000, 0.000000000000000000, 0.000000000000000000 ) ) ;
#339 = VECTOR ( 'NONE', #297, 1000.000000000000000 ) ;
#340 = ORIENTED_EDGE ( 'NONE', *, *, #777, .T. ) ;
#341 = CARTESIAN_POINT ( 'NONE',  ( -1.751669750802235415, 11.00000000000007816, 3.000000000000000000 ) ) ;
#342 = VERTEX_POINT ( 'NONE', #1138 ) ;
#343 = EDGE_CURVE ( 'NONE', #832, #50, #518, .T. ) ;
#344 = CARTESIAN_POINT ( 'NONE',  ( -12.99999999999998757, 16.00000000000000000, 37.00000000000000711 ) ) ;
#345 = ADVANCED_FACE ( 'NONE', ( #928 ), #934, .F. ) ;
#346 = PLANE ( 'NONE',  #380 ) ;
#347 = EDGE_LOOP ( 'NONE', ( #242, #784, #201, #80 ) ) ;
#348 = CARTESIAN_POINT ( 'NONE',  ( -18.23333950160446193, 0.000000000000000000, 28.04999999999999716 ) ) ;
#349 = VERTEX_POINT ( 'NONE', #759 ) ;
#350 = CARTESIAN_POINT ( 'NONE',  ( -27.03333950160446264, -4.000000000000007105, 3.000000000000011546 ) ) ;
#351 = CARTESIAN_POINT ( 'NONE',  ( -0.001669750802235636655, -11.00000000000000711, 7.949747468305831788 ) ) ;
#352 = VERTEX_POINT ( 'NONE', #472 ) ;
#353 = CARTESIAN_POINT ( 'NONE',  ( -22.03333950160447330, 16.00000000000000711, 23.00000000000002132 ) ) ;
#354 = AXIS2_PLACEMENT_3D ( 'NONE', #178, #675, #959 ) ;
#355 = ORIENTED_EDGE ( 'NONE', *, *, #304, .F. ) ;
#356 = CARTESIAN_POINT ( 'NONE',  ( 22.01666049839552741, 1.300000000000051115, 33.00000000000000000 ) ) ;
#357 = AXIS2_PLACEMENT_3D ( 'NONE', #481, #403, #204 ) ;
#358 = PLANE ( 'NONE',  #580 ) ;
#359 = VERTEX_POINT ( 'NONE', #1218 ) ;
#360 = DIRECTION ( 'NONE',  ( 0.7071067811865439090, -0.000000000000000000, -0.7071067811865512365 ) ) ;
#361 = EDGE_LOOP ( 'NONE', ( #1133, #473, #260, #1207, #989, #1022, #466, #949, #340, #760, #526, #824, #1102, #699, #523, #173, #314, #688 ) ) ;
#362 = CARTESIAN_POINT ( 'NONE',  ( 10.60345844755196332, 15.99999999999999289, 28.04999999999999716 ) ) ;
#363 = CARTESIAN_POINT ( 'NONE',  ( -50.41392782238702353, -5.805396703584132556E-15, 3.000000000000009770 ) ) ;
#364 = EDGE_CURVE ( 'NONE', #533, #627, #253, .T. ) ;
#365 = VERTEX_POINT ( 'NONE', #1143 ) ;
#366 = DIRECTION ( 'NONE',  ( -0.000000000000000000, -0.000000000000000000, -1.000000000000000000 ) ) ;
#367 = EDGE_LOOP ( 'NONE', ( #301, #531, #576, #769 ) ) ;
#368 = DIRECTION ( 'NONE',  ( 3.252606517456521191E-16, -1.000000000000000000, 0.000000000000000000 ) ) ;
#369 = FACE_OUTER_BOUND ( 'NONE', #797, .T. ) ;
#370 = EDGE_LOOP ( 'NONE', ( #780, #195, #1229, #476 ) ) ;
#371 = PLANE ( 'NONE',  #354 ) ;
#372 = VERTEX_POINT ( 'NONE', #159 ) ;
#373 = AXIS2_PLACEMENT_3D ( 'NONE', #539, #1200, #517 ) ;
#374 =( NAMED_UNIT ( * ) SI_UNIT ( $, .STERADIAN. ) SOLID_ANGLE_UNIT ( ) );
#375 = VECTOR ( 'NONE', #904, 1000.000000000000000 ) ;
#376 = DIRECTION ( 'NONE',  ( -0.000000000000000000, 1.000000000000000000, -0.000000000000000000 ) ) ;
#377 = ORIENTED_EDGE ( 'NONE', *, *, #561, .F. ) ;
#378 = CARTESIAN_POINT ( 'NONE',  ( -16.99999999999998579, -15.99999999999999289, 3.000000000000009770 ) ) ;
#379 = ORIENTED_EDGE ( 'NONE', *, *, #996, .T. ) ;
#380 = AXIS2_PLACEMENT_3D ( 'NONE', #1099, #522, #1008 ) ;
#381 = DIRECTION ( 'NONE',  ( -0.000000000000000000, 0.000000000000000000, 1.000000000000000000 ) ) ;
#382 = DIRECTION ( 'NONE',  ( 0.000000000000000000, 0.000000000000000000, 1.000000000000000000 ) ) ;
#383 = CARTESIAN_POINT ( 'NONE',  ( -0.001669750802235636655, -11.00000000000000711, -1.000000000000000000 ) ) ;
#384 = DIRECTION ( 'NONE',  ( 0.000000000000000000, 1.000000000000000000, 0.000000000000000000 ) ) ;
#385 = ORIENTED_EDGE ( 'NONE', *, *, #317, .T. ) ;
#386 = FACE_OUTER_BOUND ( 'NONE', #447, .T. ) ;
#387 = CARTESIAN_POINT ( 'NONE',  ( -12.99999999999999645, 16.00000000000000711, 7.949999999999998401 ) ) ;
#388 = DIRECTION ( 'NONE',  ( 0.000000000000000000, 0.000000000000000000, 1.000000000000000000 ) ) ;
#389 = ORIENTED_EDGE ( 'NONE', *, *, #707, .F. ) ;
#390 = DIRECTION ( 'NONE',  ( 8.673617379884033500E-16, -1.000000000000000000, -0.000000000000000000 ) ) ;
#391 = DIRECTION ( 'NONE',  ( 1.000000000000000000, 0.000000000000000000, 0.000000000000000000 ) ) ;
#392 = APPLICATION_PROTOCOL_DEFINITION ( 'draft international standard', 'automotive_design', 1998, #611 ) ;
#393 = ADVANCED_FACE ( 'NONE', ( #1231 ), #651, .F. ) ;
#394 = ORIENTED_EDGE ( 'NONE', *, *, #203, .T. ) ;
#395 = STYLED_ITEM ( 'NONE', ( #1177 ), #781 ) ;
#396 = CIRCLE ( 'NONE', #828, 1.749999999999999778 ) ;
#397 = FACE_OUTER_BOUND ( 'NONE', #220, .T. ) ;
#398 = FACE_OUTER_BOUND ( 'NONE', #905, .T. ) ;
#399 = DIRECTION ( 'NONE',  ( 0.000000000000000000, 0.000000000000000000, 1.000000000000000000 ) ) ;
#400 = EDGE_LOOP ( 'NONE', ( #553, #1255 ) ) ;
#401 = FACE_BOUND ( 'NONE', #753, .T. ) ;
#402 = ORIENTED_EDGE ( 'NONE', *, *, #418, .F. ) ;
#403 = DIRECTION ( 'NONE',  ( -1.000000000000000000, 0.000000000000000000, 0.000000000000000000 ) ) ;
#404 = CARTESIAN_POINT ( 'NONE',  ( -0.001669750802235636655, -11.00000000000000711, 28.05025253169416999 ) ) ;
#405 = VERTEX_POINT ( 'NONE', #1033 ) ;
#406 = SURFACE_STYLE_FILL_AREA ( #712 ) ;
#407 = ADVANCED_FACE ( 'NONE', ( #664 ), #452, .F. ) ;
#408 = CARTESIAN_POINT ( 'NONE',  ( -9.999999999999984013, -15.99999999999991651, 6.628519554447891990E-15 ) ) ;
#409 = PRESENTATION_LAYER_ASSIGNMENT (  '', '', ( #93 ) ) ;
#410 = DIRECTION ( 'NONE',  ( 0.000000000000000000, 0.000000000000000000, 1.000000000000000000 ) ) ;
#411 = DIRECTION ( 'NONE',  ( 1.000000000000000000, 0.000000000000000000, 0.000000000000000000 ) ) ;
#412 = CIRCLE ( 'NONE', #741, 1.749999999999999778 ) ;
#413 = ORIENTED_EDGE ( 'NONE', *, *, #1201, .F. ) ;
#414 = CIRCLE ( 'NONE', #1076, 2.749999999999995559 ) ;
#415 = SURFACE_SIDE_STYLE ('',( #406 ) ) ;
#416 = AXIS2_PLACEMENT_3D ( 'NONE', #259, #1020, #635 ) ;
#417 = CYLINDRICAL_SURFACE ( 'NONE', #985, 2.749999999999995559 ) ;
#418 = EDGE_CURVE ( 'NONE', #349, #1040, #1044, .T. ) ;
#419 = DIRECTION ( 'NONE',  ( -0.000000000000000000, -0.000000000000000000, 1.000000000000000000 ) ) ;
#420 = VECTOR ( 'NONE', #312, 1000.000000000000000 ) ;
#421 = VERTEX_POINT ( 'NONE', #835 ) ;
#422 = CARTESIAN_POINT ( 'NONE',  ( 1.748330249197764141, -11.00000000000000711, -1.000000000000000000 ) ) ;
#423 = ORIENTED_EDGE ( 'NONE', *, *, #450, .T. ) ;
#424 = DIRECTION ( 'NONE',  ( -1.000000000000000000, 0.000000000000000000, 0.000000000000000000 ) ) ;
#425 = CARTESIAN_POINT ( 'NONE',  ( -22.03333950160447330, 16.00000000000000711, 15.75000000000001776 ) ) ;
#426 = ADVANCED_FACE ( 'NONE', ( #846 ), #358, .T. ) ;
#427 = ORIENTED_EDGE ( 'NONE', *, *, #1107, .F. ) ;
#428 = CARTESIAN_POINT ( 'NONE',  ( -12.99999999999997691, -15.99999999999992362, 37.00000000000000711 ) ) ;
#429 = ORIENTED_EDGE ( 'NONE', *, *, #757, .F. ) ;
#430 = ADVANCED_FACE ( 'NONE', ( #386 ), #284, .F. ) ;
#431 = DIRECTION ( 'NONE',  ( -0.000000000000000000, -0.000000000000000000, 1.000000000000000000 ) ) ;
#432 = PLANE ( 'NONE',  #825 ) ;
#433 = ADVANCED_FACE ( 'NONE', ( #397 ), #794, .F. ) ;
#434 = VERTEX_POINT ( 'NONE', #305 ) ;
#435 = DIRECTION ( 'NONE',  ( 0.000000000000000000, 1.000000000000000000, 0.000000000000000000 ) ) ;
#436 = ADVANCED_FACE ( 'NONE', ( #888 ), #89, .F. ) ;
#437 = ORIENTED_EDGE ( 'NONE', *, *, #46, .T. ) ;
#438 = DIRECTION ( 'NONE',  ( 1.000000000000000000, 1.084202172485504311E-16, -0.000000000000000000 ) ) ;
#439 = CARTESIAN_POINT ( 'NONE',  ( 9.500000000000000000, 16.00000000000000711, -1.000000000000000000 ) ) ;
#440 = VECTOR ( 'NONE', #718, 1000.000000000000000 ) ;
#441 = AXIS2_PLACEMENT_3D ( 'NONE', #520, #704, #134 ) ;
#442 = VERTEX_POINT ( 'NONE', #880 ) ;
#443 = CARTESIAN_POINT ( 'NONE',  ( -0.001669750802235636655, 11.00000000000007816, 7.949747468305831788 ) ) ;
#444 = ORIENTED_EDGE ( 'NONE', *, *, #1013, .F. ) ;
#445 = LINE ( 'NONE', #833, #275 ) ;
#446 = CARTESIAN_POINT ( 'NONE',  ( -1.751669750802235415, -11.00000000000000711, 28.05025253169416999 ) ) ;
#447 = EDGE_LOOP ( 'NONE', ( #612, #1196, #246, #1173 ) ) ;
#448 = CARTESIAN_POINT ( 'NONE',  ( -22.03333950160447330, 7.000000000000007994, 23.00000000000002132 ) ) ;
#449 = ORIENTED_EDGE ( 'NONE', *, *, #852, .F. ) ;
#450 = EDGE_CURVE ( 'NONE', #233, #434, #186, .T. ) ;
#451 = LINE ( 'NONE', #344, #827 ) ;
#452 = PLANE ( 'NONE',  #1128 ) ;
#453 = ORIENTED_EDGE ( 'NONE', *, *, #459, .F. ) ;
#454 = CARTESIAN_POINT ( 'NONE',  ( -18.23333950160446193, 15.99999999999999289, 28.04999999999999716 ) ) ;
#455 = VERTEX_POINT ( 'NONE', #495 ) ;
#456 = EDGE_CURVE ( 'NONE', #1241, #455, #1068, .T. ) ;
#457 = VECTOR ( 'NONE', #114, 1000.000000000000000 ) ;
#458 = DIRECTION ( 'NONE',  ( 0.000000000000000000, 0.000000000000000000, -1.000000000000000000 ) ) ;
#459 = EDGE_CURVE ( 'NONE', #271, #442, #696, .T. ) ;
#460 = ORIENTED_EDGE ( 'NONE', *, *, #1201, .T. ) ;
#461 = PLANE ( 'NONE',  #1244 ) ;
#462 = AXIS2_PLACEMENT_3D ( 'NONE', #1236, #555, #175 ) ;
#463 = ORIENTED_EDGE ( 'NONE', *, *, #1007, .T. ) ;
#464 = CYLINDRICAL_SURFACE ( 'NONE', #462, 2.999999999999999112 ) ;
#465 = DIRECTION ( 'NONE',  ( 1.000000000000000000, 0.000000000000000000, 0.000000000000000000 ) ) ;
#466 = ORIENTED_EDGE ( 'NONE', *, *, #248, .T. ) ;
#467 = LINE ( 'NONE', #92, #289 ) ;
#468 = EDGE_CURVE ( 'NONE', #652, #484, #978, .T. ) ;
#469 = ORIENTED_EDGE ( 'NONE', *, *, #663, .F. ) ;
#470 = VECTOR ( 'NONE', #614, 1000.000000000000000 ) ;
#471 = DIRECTION ( 'NONE',  ( 0.000000000000000000, 1.000000000000000000, 0.000000000000000000 ) ) ;
#472 = CARTESIAN_POINT ( 'NONE',  ( -1.751669750802235415, 11.00000000000007816, 33.00000000000000000 ) ) ;
#473 = ORIENTED_EDGE ( 'NONE', *, *, #503, .T. ) ;
#474 = CARTESIAN_POINT ( 'NONE',  ( -22.03333950160447330, 7.000000000000007994, 13.00000000000001954 ) ) ;
#475 = ADVANCED_FACE ( 'NONE', ( #279 ), #1156, .T. ) ;
#476 = ORIENTED_EDGE ( 'NONE', *, *, #679, .T. ) ;
#477 = AXIS2_PLACEMENT_3D ( 'NONE', #1163, #105, #411 ) ;
#478 = CARTESIAN_POINT ( 'NONE',  ( -24.03333950160447685, 16.00000000000000711, 3.000000000000009770 ) ) ;
#479 = VECTOR ( 'NONE', #17, 1000.000000000000000 ) ;
#480 = AXIS2_PLACEMENT_3D ( 'NONE', #474, #1035, #1248 ) ;
#481 = CARTESIAN_POINT ( 'NONE',  ( -18.23333950160446193, -4.000000000000007105, 54.85040045399626507 ) ) ;
#482 = FACE_OUTER_BOUND ( 'NONE', #616, .T. ) ;
#483 = LINE ( 'NONE', #868, #636 ) ;
#484 = VERTEX_POINT ( 'NONE', #956 ) ;
#485 = VECTOR ( 'NONE', #901, 1000.000000000000000 ) ;
#486 = AXIS2_PLACEMENT_3D ( 'NONE', #1179, #889, #778 ) ;
#487 = CYLINDRICAL_SURFACE ( 'NONE', #13, 1.749999999999999778 ) ;
#488 = CARTESIAN_POINT ( 'NONE',  ( -9.999999999999984013, -15.99999999999992362, 33.00000000000000000 ) ) ;
#489 = VERTEX_POINT ( 'NONE', #500 ) ;
#490 = CARTESIAN_POINT ( 'NONE',  ( -18.03333950160442711, -15.99999999999991651, -6.011018782397826168E-15 ) ) ;
#491 = CARTESIAN_POINT ( 'NONE',  ( -0.001669750802235636655, 11.00000000000007816, 33.00000000000000000 ) ) ;
#492 = DIRECTION ( 'NONE',  ( 0.000000000000000000, 1.000000000000000000, 0.000000000000000000 ) ) ;
#493 = EDGE_LOOP ( 'NONE', ( #744, #280, #86, #179, #250, #592, #1235, #1066 ) ) ;
#494 = EDGE_CURVE ( 'NONE', #533, #223, #673, .T. ) ;
#495 = CARTESIAN_POINT ( 'NONE',  ( -18.03333950160446264, -3.999999999999999112, 33.00000000000000000 ) ) ;
#496 = CARTESIAN_POINT ( 'NONE',  ( -0.001669750802235636655, 11.00000000000007816, -1.000000000000000000 ) ) ;
#497 = DIRECTION ( 'NONE',  ( -0.000000000000000000, 1.000000000000000000, -0.000000000000000000 ) ) ;
#498 = VERTEX_POINT ( 'NONE', #97 ) ;
#499 = VECTOR ( 'NONE', #113, 1000.000000000000000 ) ;
#500 = CARTESIAN_POINT ( 'NONE',  ( -22.03333950160447330, 7.000000000000007994, 25.75000000000001421 ) ) ;
#501 = DIRECTION ( 'NONE',  ( -0.000000000000000000, -0.000000000000000000, -1.000000000000000000 ) ) ;
#502 = CARTESIAN_POINT ( 'NONE',  ( 1.748330249197764141, 11.00000000000007816, 37.00000000000000711 ) ) ;
#503 = EDGE_CURVE ( 'NONE', #335, #271, #118, .T. ) ;
#504 = ORIENTED_EDGE ( 'NONE', *, *, #908, .T. ) ;
#505 = LINE ( 'NONE', #672, #187 ) ;
#506 = LINE ( 'NONE', #813, #622 ) ;
#507 = VECTOR ( 'NONE', #736, 1000.000000000000000 ) ;
#508 = DIRECTION ( 'NONE',  ( 1.000000000000000000, 0.000000000000000000, 0.000000000000000000 ) ) ;
#509 = SURFACE_SIDE_STYLE ('',( #126 ) ) ;
#510 = EDGE_LOOP ( 'NONE', ( #1205, #763, #766, #1215 ) ) ;
#511 = DIRECTION ( 'NONE',  ( 1.000000000000000000, 9.123502176980002264E-16, -1.942890293094029369E-16 ) ) ;
#512 = EDGE_CURVE ( 'NONE', #717, #633, #1252, .T. ) ;
#513 = DIRECTION ( 'NONE',  ( 2.110233787937695948E-31, -2.312964634635743450E-16, 1.000000000000000000 ) ) ;
#514 = VECTOR ( 'NONE', #639, 1000.000000000000000 ) ;
#515 = LINE ( 'NONE', #895, #485 ) ;
#516 = VERTEX_POINT ( 'NONE', #772 ) ;
#517 = DIRECTION ( 'NONE',  ( -9.123502176980158065E-16, 1.000000000000000000, -1.853823127269377743E-29 ) ) ;
#518 = CIRCLE ( 'NONE', #684, 3.000000000000000000 ) ;
#519 = ORIENTED_EDGE ( 'NONE', *, *, #41, .F. ) ;
#520 = CARTESIAN_POINT ( 'NONE',  ( 74.51666049839553807, -15.99999999999992006, 17.99999999999999645 ) ) ;
#521 = ADVANCED_FACE ( 'NONE', ( #579 ), #487, .F. ) ;
#522 = DIRECTION ( 'NONE',  ( 0.000000000000000000, 1.000000000000000000, 0.000000000000000000 ) ) ;
#523 = ORIENTED_EDGE ( 'NONE', *, *, #203, .F. ) ;
#524 = PRODUCT_DEFINITION_CONTEXT ( 'detailed design', #998, 'design' ) ;
#525 = PLANE ( 'NONE',  #32 ) ;
#526 = ORIENTED_EDGE ( 'NONE', *, *, #54, .T. ) ;
#527 = CARTESIAN_POINT ( 'NONE',  ( -24.03333950160446264, 1.707611623148640502E-14, 3.000000000000009770 ) ) ;
#528 = EDGE_CURVE ( 'NONE', #143, #1100, #108, .T. ) ;
#529 = DIRECTION ( 'NONE',  ( 1.000000000000000000, -7.885106708985485090E-16, 0.000000000000000000 ) ) ;
#530 = EDGE_CURVE ( 'NONE', #1247, #137, #103, .T. ) ;
#531 = ORIENTED_EDGE ( 'NONE', *, *, #238, .F. ) ;
#532 = DIRECTION ( 'NONE',  ( 0.000000000000000000, 0.000000000000000000, 1.000000000000000000 ) ) ;
#533 = VERTEX_POINT ( 'NONE', #782 ) ;
#534 = LINE ( 'NONE', #221, #1150 ) ;
#535 = DIRECTION ( 'NONE',  ( -1.000000000000000000, -8.673617379884038430E-16, 0.000000000000000000 ) ) ;
#536 = VECTOR ( 'NONE', #1140, 1000.000000000000000 ) ;
#537 = ORIENTED_EDGE ( 'NONE', *, *, #364, .F. ) ;
#538 = AXIS2_PLACEMENT_3D ( 'NONE', #49, #247, #55 ) ;
#539 = CARTESIAN_POINT ( 'NONE',  ( -18.03333950160448040, 23.49999999999997868, 28.00000000000002132 ) ) ;
#540 = ORIENTED_EDGE ( 'NONE', *, *, #922, .F. ) ;
#541 = LINE ( 'NONE', #851, #964 ) ;
#542 = VECTOR ( 'NONE', #508, 1000.000000000000000 ) ;
#543 = ORIENTED_EDGE ( 'NONE', *, *, #285, .T. ) ;
#544 = EDGE_CURVE ( 'NONE', #1017, #1154, #1166, .T. ) ;
#545 = DIRECTION ( 'NONE',  ( -0.000000000000000000, -0.000000000000000000, -1.000000000000000000 ) ) ;
#546 = AXIS2_PLACEMENT_3D ( 'NONE', #685, #1175, #306 ) ;
#547 = VERTEX_POINT ( 'NONE', #907 ) ;
#548 = DIRECTION ( 'NONE',  ( 0.000000000000000000, 0.000000000000000000, 1.000000000000000000 ) ) ;
#549 = DIRECTION ( 'NONE',  ( 0.000000000000000000, 0.000000000000000000, -1.000000000000000000 ) ) ;
#550 = ORIENTED_EDGE ( 'NONE', *, *, #317, .F. ) ;
#551 = CARTESIAN_POINT ( 'NONE',  ( 9.500000000000310862, -15.99999999999991651, 6.628519554447888834E-15 ) ) ;
#552 = EDGE_CURVE ( 'NONE', #1004, #708, #396, .T. ) ;
#553 = ORIENTED_EDGE ( 'NONE', *, *, #325, .F. ) ;
#554 = EDGE_CURVE ( 'NONE', #296, #62, #1092, .T. ) ;
#555 = DIRECTION ( 'NONE',  ( 8.673617379884033500E-16, -1.000000000000000000, 0.000000000000000000 ) ) ;
#556 = LINE ( 'NONE', #1149, #188 ) ;
#557 = ORIENTED_EDGE ( 'NONE', *, *, #587, .F. ) ;
#558 = CYLINDRICAL_SURFACE ( 'NONE', #480, 2.749999999999997335 ) ;
#559 = ORIENTED_EDGE ( 'NONE', *, *, #1080, .T. ) ;
#560 = CARTESIAN_POINT ( 'NONE',  ( -9.999999999999994671, -15.99999999999999289, 7.949999999999998401 ) ) ;
#561 = EDGE_CURVE ( 'NONE', #972, #694, #534, .T. ) ;
#562 = ORIENTED_EDGE ( 'NONE', *, *, #814, .F. ) ;
#563 = CARTESIAN_POINT ( 'NONE',  ( 9.500000000000005329, -15.99999999999999289, -1.000000000000000000 ) ) ;
#564 = VECTOR ( 'NONE', #1137, 1000.000000000000000 ) ;
#565 = VECTOR ( 'NONE', #324, 1000.000000000000000 ) ;
#566 = ORIENTED_EDGE ( 'NONE', *, *, #926, .F. ) ;
#567 = CARTESIAN_POINT ( 'NONE',  ( -24.03333950160447685, 16.00000000000000711, 6.000000000000009770 ) ) ;
#568 = ADVANCED_FACE ( 'NONE', ( #1098 ), #417, .F. ) ;
#569 = ADVANCED_FACE ( 'NONE', ( #613 ), #997, .T. ) ;
#570 = VERTEX_POINT ( 'NONE', #39 ) ;
#571 = FACE_OUTER_BOUND ( 'NONE', #1002, .T. ) ;
#572 = EDGE_LOOP ( 'NONE', ( #202, #977 ) ) ;
#573 = CARTESIAN_POINT ( 'NONE',  ( -24.03333950160447685, 16.00000000000000711, 30.00000000000000355 ) ) ;
#574 = ORIENTED_EDGE ( 'NONE', *, *, #456, .T. ) ;
#575 = CARTESIAN_POINT ( 'NONE',  ( -18.03333950160446975, 2.373704010007115647E-14, 3.000000000000009770 ) ) ;
#576 = ORIENTED_EDGE ( 'NONE', *, *, #1097, .F. ) ;
#577 = VECTOR ( 'NONE', #360, 1000.000000000000000 ) ;
#578 = CIRCLE ( 'NONE', #800, 1.749999999999999778 ) ;
#579 = FACE_OUTER_BOUND ( 'NONE', #586, .T. ) ;
#580 = AXIS2_PLACEMENT_3D ( 'NONE', #363, #1039, #19 ) ;
#581 = CARTESIAN_POINT ( 'NONE',  ( 9.500000000000300204, -4.000000000000003553, 33.00000000000000000 ) ) ;
#582 = CARTESIAN_POINT ( 'NONE',  ( -18.03333950160445198, -15.99999999999992362, 28.04999999999999716 ) ) ;
#583 = ORIENTED_EDGE ( 'NONE', *, *, #224, .T. ) ;
#584 = DIRECTION ( 'NONE',  ( -1.000000000000000000, -9.123502176980002264E-16, -7.008983741320432725E-16 ) ) ;
#585 = DIRECTION ( 'NONE',  ( -1.000000000000000000, 0.000000000000000000, 0.000000000000000000 ) ) ;
#586 = EDGE_LOOP ( 'NONE', ( #897, #1129, #379, #1067 ) ) ;
#587 = EDGE_CURVE ( 'NONE', #627, #1037, #506, .T. ) ;
#588 = ORIENTED_EDGE ( 'NONE', *, *, #277, .T. ) ;
#589 = DIRECTION ( 'NONE',  ( -0.000000000000000000, -0.000000000000000000, 1.000000000000000000 ) ) ;
#590 = PLANE ( 'NONE',  #546 ) ;
#591 = DIRECTION ( 'NONE',  ( 9.123502176980002264E-16, -1.000000000000000000, 0.000000000000000000 ) ) ;
#592 = ORIENTED_EDGE ( 'NONE', *, *, #620, .F. ) ;
#593 = CARTESIAN_POINT ( 'NONE',  ( 0.000000000000000000, 0.000000000000000000, 37.00000000000000711 ) ) ;
#594 = DIRECTION ( 'NONE',  ( -0.000000000000000000, -0.000000000000000000, 1.000000000000000000 ) ) ;
#595 = FACE_BOUND ( 'NONE', #822, .T. ) ;
#596 = CARTESIAN_POINT ( 'NONE',  ( -22.03333950160447330, 7.000000000000007994, 23.00000000000002132 ) ) ;
#597 = ORIENTED_EDGE ( 'NONE', *, *, #544, .F. ) ;
#598 =( NAMED_UNIT ( * ) PLANE_ANGLE_UNIT ( ) SI_UNIT ( $, .RADIAN. ) );
#599 = CIRCLE ( 'NONE', #1251, 1.749999999999999778 ) ;
#600 = VECTOR ( 'NONE', #217, 1000.000000000000000 ) ;
#601 = CARTESIAN_POINT ( 'NONE',  ( -50.41392782238702353, -15.99999999999999645, 3.000000000000009770 ) ) ;
#602 = DIRECTION ( 'NONE',  ( -0.000000000000000000, -0.000000000000000000, -1.000000000000000000 ) ) ;
#603 = VERTEX_POINT ( 'NONE', #913 ) ;
#604 = FILL_AREA_STYLE_COLOUR ( '', #945 ) ;
#605 = EDGE_CURVE ( 'NONE', #335, #50, #606, .T. ) ;
#606 = LINE ( 'NONE', #807, #600 ) ;
#607 =( GEOMETRIC_REPRESENTATION_CONTEXT ( 3 ) GLOBAL_UNCERTAINTY_ASSIGNED_CONTEXT ( ( #854 ) ) GLOBAL_UNIT_ASSIGNED_CONTEXT ( ( #1075, #300, #796 ) ) REPRESENTATION_CONTEXT ( 'NONE', 'WORKASPACE' ) );
#608 = DIRECTION ( 'NONE',  ( -9.123502176980002264E-16, 1.000000000000000000, -0.000000000000000000 ) ) ;
#609 = ORIENTED_EDGE ( 'NONE', *, *, #336, .T. ) ;
#610 = DIRECTION ( 'NONE',  ( 0.000000000000000000, 0.000000000000000000, 1.000000000000000000 ) ) ;
#611 = APPLICATION_CONTEXT ( 'automotive_design' ) ;
#612 = ORIENTED_EDGE ( 'NONE', *, *, #1007, .F. ) ;
#613 = FACE_OUTER_BOUND ( 'NONE', #748, .T. ) ;
#614 = DIRECTION ( 'NONE',  ( -0.000000000000000000, -0.000000000000000000, -1.000000000000000000 ) ) ;
#615 = AXIS2_PLACEMENT_3D ( 'NONE', #752, #165, #657 ) ;
#616 = EDGE_LOOP ( 'NONE', ( #557, #537, #853, #131 ) ) ;
#617 = CARTESIAN_POINT ( 'NONE',  ( -22.03333950160447330, 7.000000000000007994, 13.00000000000001954 ) ) ;
#618 = CIRCLE ( 'NONE', #34, 1.749999999999999778 ) ;
#619 = ORIENTED_EDGE ( 'NONE', *, *, #1242, .T. ) ;
#620 = EDGE_CURVE ( 'NONE', #296, #652, #211, .T. ) ;
#621 = DIRECTION ( 'NONE',  ( -0.000000000000000000, -0.000000000000000000, -1.000000000000000000 ) ) ;
#622 = VECTOR ( 'NONE', #1081, 1000.000000000000000 ) ;
#623 = CIRCLE ( 'NONE', #1027, 1.749999999999999778 ) ;
#624 = DIRECTION ( 'NONE',  ( 9.123502176980002264E-16, -1.000000000000000000, -0.000000000000000000 ) ) ;
#625 = ORIENTED_EDGE ( 'NONE', *, *, #78, .F. ) ;
#626 = DIRECTION ( 'NONE',  ( 1.000000000000000000, 1.084202172485504311E-16, -0.000000000000000000 ) ) ;
#627 = VERTEX_POINT ( 'NONE', #146 ) ;
#628 = CARTESIAN_POINT ( 'NONE',  ( -12.99999999999998757, 16.00000000000000000, 37.00000000000000711 ) ) ;
#629 = CARTESIAN_POINT ( 'NONE',  ( -9.999999999999984013, -15.99999999999992362, 28.04999999999999716 ) ) ;
#630 = CIRCLE ( 'NONE', #615, 1.749999999999999778 ) ;
#631 = ORIENTED_EDGE ( 'NONE', *, *, #468, .T. ) ;
#632 = DIRECTION ( 'NONE',  ( 0.000000000000000000, -0.000000000000000000, 1.000000000000000000 ) ) ;
#633 = VERTEX_POINT ( 'NONE', #1108 ) ;
#634 = EDGE_CURVE ( 'NONE', #1034, #1141, #1197, .T. ) ;
#635 = DIRECTION ( 'NONE',  ( 0.000000000000000000, 0.000000000000000000, 1.000000000000000000 ) ) ;
#636 = VECTOR ( 'NONE', #1048, 1000.000000000000000 ) ;
#637 = ORIENTED_EDGE ( 'NONE', *, *, #71, .T. ) ;
#638 = VECTOR ( 'NONE', #924, 1000.000000000000000 ) ;
#639 = DIRECTION ( 'NONE',  ( -1.000000000000000000, 0.000000000000000000, 0.000000000000000000 ) ) ;
#640 = EDGE_LOOP ( 'NONE', ( #1194, #328 ) ) ;
#641 = VECTOR ( 'NONE', #1058, 1000.000000000000000 ) ;
#642 = CARTESIAN_POINT ( 'NONE',  ( -22.03333950160447330, 7.000000000000007994, 13.00000000000001954 ) ) ;
#643 = DIRECTION ( 'NONE',  ( 0.000000000000000000, 0.000000000000000000, -1.000000000000000000 ) ) ;
#644 = AXIS2_PLACEMENT_3D ( 'NONE', #1065, #501, #1253 ) ;
#645 = CARTESIAN_POINT ( 'NONE',  ( -27.03333950160447685, 16.00000000000000000, 30.00000000000000355 ) ) ;
#646 = CYLINDRICAL_SURFACE ( 'NONE', #920, 1.749999999999999778 ) ;
#647 = CIRCLE ( 'NONE', #215, 1.749999999999999778 ) ;
#648 = ADVANCED_FACE ( 'NONE', ( #991 ), #1184, .F. ) ;
#649 = ORIENTED_EDGE ( 'NONE', *, *, #1193, .F. ) ;
#650 = CARTESIAN_POINT ( 'NONE',  ( -0.001669750802235636655, -11.00000000000000711, 37.00000000000000711 ) ) ;
#651 = PLANE ( 'NONE',  #1063 ) ;
#652 = VERTEX_POINT ( 'NONE', #801 ) ;
#653 = CARTESIAN_POINT ( 'NONE',  ( -22.03333950160447330, 7.000000000000007994, 25.75000000000001421 ) ) ;
#654 = EDGE_LOOP ( 'NONE', ( #1110, #269, #1011, #288 ) ) ;
#655 = ADVANCED_FACE ( 'NONE', ( #1191 ), #919, .T. ) ;
#656 = CARTESIAN_POINT ( 'NONE',  ( -27.03333950160446264, -4.000000000000007105, 30.00000000000000000 ) ) ;
#657 = DIRECTION ( 'NONE',  ( 1.000000000000000000, 0.000000000000000000, 0.000000000000000000 ) ) ;
#658 = ORIENTED_EDGE ( 'NONE', *, *, #23, .T. ) ;
#659 = LINE ( 'NONE', #768, #743 ) ;
#660 = EDGE_LOOP ( 'NONE', ( #449, #819, #1136, #1238, #1181, #649 ) ) ;
#661 = EDGE_CURVE ( 'NONE', #42, #832, #237, .T. ) ;
#662 = CARTESIAN_POINT ( 'NONE',  ( -1.751669750802235415, -11.00000000000000711, -1.000000000000000000 ) ) ;
#663 = EDGE_CURVE ( 'NONE', #293, #257, #986, .T. ) ;
#664 = FACE_OUTER_BOUND ( 'NONE', #139, .T. ) ;
#665 = ORIENTED_EDGE ( 'NONE', *, *, #224, .F. ) ;
#666 = CIRCLE ( 'NONE', #1187, 1.749999999999999778 ) ;
#667 = CARTESIAN_POINT ( 'NONE',  ( 9.500000000000005329, -15.99999999999999289, 3.000000000000000000 ) ) ;
#668 = VECTOR ( 'NONE', #513, 1000.000000000000000 ) ;
#669 = VECTOR ( 'NONE', #6, 1000.000000000000000 ) ;
#670 = EDGE_LOOP ( 'NONE', ( #937, #145, #982, #460 ) ) ;
#671 = AXIS2_PLACEMENT_3D ( 'NONE', #491, #882, #391 ) ;
#672 = CARTESIAN_POINT ( 'NONE',  ( 4.074573354723061514E-14, -15.99999999999992362, 28.04999999999999716 ) ) ;
#673 = LINE ( 'NONE', #1051, #1046 ) ;
#674 = ORIENTED_EDGE ( 'NONE', *, *, #364, .T. ) ;
#675 = DIRECTION ( 'NONE',  ( -1.000000000000000000, -8.673617379884033500E-16, 0.000000000000000000 ) ) ;
#676 = ORIENTED_EDGE ( 'NONE', *, *, #620, .T. ) ;
#677 = LINE ( 'NONE', #1057, #90 ) ;
#678 = CARTESIAN_POINT ( 'NONE',  ( -24.03333950160445909, -4.000000000000004441, 33.00000000000000000 ) ) ;
#679 = EDGE_CURVE ( 'NONE', #372, #516, #1203, .T. ) ;
#680 = FACE_BOUND ( 'NONE', #400, .T. ) ;
#681 = ORIENTED_EDGE ( 'NONE', *, *, #140, .T. ) ;
#682 = VECTOR ( 'NONE', #890, 1000.000000000000000 ) ;
#683 = DIRECTION ( 'NONE',  ( -0.000000000000000000, 1.000000000000000000, -0.000000000000000000 ) ) ;
#684 = AXIS2_PLACEMENT_3D ( 'NONE', #567, #376, #549 ) ;
#685 = CARTESIAN_POINT ( 'NONE',  ( 0.000000000000000000, 0.000000000000000000, -1.000000000000000000 ) ) ;
#686 =( NAMED_UNIT ( * ) SI_UNIT ( $, .STERADIAN. ) SOLID_ANGLE_UNIT ( ) );
#687 = EDGE_CURVE ( 'NONE', #216, #143, #337, .T. ) ;
#688 = ORIENTED_EDGE ( 'NONE', *, *, #343, .T. ) ;
#689 = EDGE_CURVE ( 'NONE', #633, #62, #1086, .T. ) ;
#690 = CARTESIAN_POINT ( 'NONE',  ( -18.03333950160443777, -3.999999999999999112, -1.263953833684570001E-14 ) ) ;
#691 = FACE_BOUND ( 'NONE', #693, .T. ) ;
#692 = FILL_AREA_STYLE_COLOUR ( '', #1021 ) ;
#693 = EDGE_LOOP ( 'NONE', ( #519, #791 ) ) ;
#694 = VERTEX_POINT ( 'NONE', #628 ) ;
#695 = ADVANCED_FACE ( 'NONE', ( #1012 ), #464, .T. ) ;
#696 = LINE ( 'NONE', #678, #1001 ) ;
#697 = DIRECTION ( 'NONE',  ( 0.000000000000000000, 0.000000000000000000, 1.000000000000000000 ) ) ;
#698 = PRESENTATION_STYLE_ASSIGNMENT (( #896 ) ) ;
#699 = ORIENTED_EDGE ( 'NONE', *, *, #881, .T. ) ;
#700 = CARTESIAN_POINT ( 'NONE',  ( 9.500000000000300204, 16.00000000000000000, 37.00000000000000711 ) ) ;
#701 = VECTOR ( 'NONE', #980, 1000.000000000000000 ) ;
#702 = EDGE_CURVE ( 'NONE', #1139, #910, #826, .T. ) ;
#703 = CIRCLE ( 'NONE', #152, 2.749999999999995559 ) ;
#704 = DIRECTION ( 'NONE',  ( 0.000000000000000000, -1.000000000000000000, -2.312964634635743450E-16 ) ) ;
#705 = DIRECTION ( 'NONE',  ( -0.000000000000000000, -0.000000000000000000, 1.000000000000000000 ) ) ;
#706 = CARTESIAN_POINT ( 'NONE',  ( -18.03333950160446264, -3.999999999999999112, 28.04999999999999716 ) ) ;
#707 = EDGE_CURVE ( 'NONE', #694, #1017, #451, .T. ) ;
#708 = VERTEX_POINT ( 'NONE', #662 ) ;
#709 = DIRECTION ( 'NONE',  ( 0.000000000000000000, 0.000000000000000000, -1.000000000000000000 ) ) ;
#710 = DIRECTION ( 'NONE',  ( -0.7071067811865512365, -7.666467083416910134E-17, -0.7071067811865439090 ) ) ;
#711 = ORIENTED_EDGE ( 'NONE', *, *, #689, .T. ) ;
#712 = FILL_AREA_STYLE ('',( #604 ) ) ;
#713 = DIRECTION ( 'NONE',  ( 0.7071067811865435759, -0.000000000000000000, 0.7071067811865514585 ) ) ;
#714 = LINE ( 'NONE', #809, #1025 ) ;
#715 = ORIENTED_EDGE ( 'NONE', *, *, #1052, .F. ) ;
#716 = DIRECTION ( 'NONE',  ( 0.000000000000000000, -1.000000000000000000, 0.000000000000000000 ) ) ;
#717 = VERTEX_POINT ( 'NONE', #758 ) ;
#718 = DIRECTION ( 'NONE',  ( 9.123502176980002264E-16, -1.000000000000000000, 0.000000000000000000 ) ) ;
#719 = CARTESIAN_POINT ( 'NONE',  ( -27.03333950160446264, -4.000000000000007105, 33.00000000000000000 ) ) ;
#720 = ORIENTED_EDGE ( 'NONE', *, *, #302, .T. ) ;
#721 = ADVANCED_FACE ( 'NONE', ( #1113 ), #845, .F. ) ;
#722 = LINE ( 'NONE', #911, #249 ) ;
#723 = ORIENTED_EDGE ( 'NONE', *, *, #191, .T. ) ;
#724 = DIRECTION ( 'NONE',  ( -0.000000000000000000, 1.000000000000000000, -0.000000000000000000 ) ) ;
#725 = VECTOR ( 'NONE', #431, 1000.000000000000000 ) ;
#726 = DIRECTION ( 'NONE',  ( 1.000000000000000000, 0.000000000000000000, 0.000000000000000000 ) ) ;
#727 = VERTEX_POINT ( 'NONE', #656 ) ;
#728 = LINE ( 'NONE', #348, #31 ) ;
#729 = ORIENTED_EDGE ( 'NONE', *, *, #1193, .T. ) ;
#730 = ADVANCED_FACE ( 'NONE', ( #1038 ), #252, .F. ) ;
#731 = CARTESIAN_POINT ( 'NONE',  ( -16.99999999999998579, -15.99999999999999289, 3.000000000000009770 ) ) ;
#732 = ORIENTED_EDGE ( 'NONE', *, *, #191, .F. ) ;
#733 = LINE ( 'NONE', #1127, #514 ) ;
#734 = ORIENTED_EDGE ( 'NONE', *, *, #25, .F. ) ;
#735 = DIRECTION ( 'NONE',  ( 0.000000000000000000, 0.000000000000000000, 1.000000000000000000 ) ) ;
#736 = DIRECTION ( 'NONE',  ( 0.000000000000000000, -1.000000000000000000, 0.000000000000000000 ) ) ;
#737 = CIRCLE ( 'NONE', #185, 2.749999999999995559 ) ;
#738 = EDGE_CURVE ( 'NONE', #1040, #257, #1005, .T. ) ;
#739 = DIRECTION ( 'NONE',  ( 9.123502176980002264E-16, -1.000000000000000000, -0.000000000000000000 ) ) ;
#740 = UNCERTAINTY_MEASURE_WITH_UNIT (LENGTH_MEASURE( 1.000000000000000082E-05 ), #87, 'distance_accuracy_value', 'NONE');
#741 = AXIS2_PLACEMENT_3D ( 'NONE', #885, #1189, #798 ) ;
#742 = DIRECTION ( 'NONE',  ( -0.7071067811865514585, -0.000000000000000000, 0.7071067811865435759 ) ) ;
#743 = VECTOR ( 'NONE', #948, 1000.000000000000000 ) ;
#744 = ORIENTED_EDGE ( 'NONE', *, *, #634, .T. ) ;
#745 = VECTOR ( 'NONE', #1224, 1000.000000000000000 ) ;
#746 = CARTESIAN_POINT ( 'NONE',  ( -1.751669750802235415, -11.00000000000000711, 7.949747468305831788 ) ) ;
#747 = CARTESIAN_POINT ( 'NONE',  ( -27.03333950160446264, -4.000000000000007105, 7.950000000000000178 ) ) ;
#748 = EDGE_LOOP ( 'NONE', ( #154, #1024, #884, #273, #1031, #427, #1221, #53 ) ) ;
#749 = LINE ( 'NONE', #653, #536 ) ;
#750 = EDGE_CURVE ( 'NONE', #1154, #972, #445, .T. ) ;
#751 = ORIENTED_EDGE ( 'NONE', *, *, #219, .F. ) ;
#752 = CARTESIAN_POINT ( 'NONE',  ( -0.001669750802235636655, 11.00000000000007816, 3.000000000000000000 ) ) ;
#753 = EDGE_LOOP ( 'NONE', ( #619, #1055 ) ) ;
#754 = DIRECTION ( 'NONE',  ( -0.000000000000000000, -0.000000000000000000, -1.000000000000000000 ) ) ;
#755 = EDGE_CURVE ( 'NONE', #226, #727, #938, .T. ) ;
#756 = VERTEX_POINT ( 'NONE', #1120 ) ;
#757 = EDGE_CURVE ( 'NONE', #627, #533, #1103, .T. ) ;
#758 = CARTESIAN_POINT ( 'NONE',  ( -18.03333950160446619, -3.999999999999999112, 3.000000000000009770 ) ) ;
#759 = CARTESIAN_POINT ( 'NONE',  ( -1.751669750802235415, -11.00000000000000711, 33.00000000000000000 ) ) ;
#760 = ORIENTED_EDGE ( 'NONE', *, *, #702, .T. ) ;
#761 = CARTESIAN_POINT ( 'NONE',  ( -22.03333950160447330, 7.000000000000007994, 23.00000000000002132 ) ) ;
#762 = ADVANCED_BREP_SHAPE_REPRESENTATION ( '009_011_Underside_front_servo_mount', ( #781, #164 ), #1161 ) ;
#763 = ORIENTED_EDGE ( 'NONE', *, *, #530, .T. ) ;
#764 = FACE_BOUND ( 'NONE', #1126, .T. ) ;
#765 = DIRECTION ( 'NONE',  ( -1.000000000000000000, 0.000000000000000000, 0.000000000000000000 ) ) ;
#766 = ORIENTED_EDGE ( 'NONE', *, *, #219, .T. ) ;
#767 = AXIS2_PLACEMENT_3D ( 'NONE', #218, #624, #535 ) ;
#768 = CARTESIAN_POINT ( 'NONE',  ( -1.751669750802235415, 11.00000000000007816, 7.949747468305831788 ) ) ;
#769 = ORIENTED_EDGE ( 'NONE', *, *, #1142, .F. ) ;
#770 = DIRECTION ( 'NONE',  ( -1.000000000000000000, -0.000000000000000000, -0.000000000000000000 ) ) ;
#771 = EDGE_CURVE ( 'NONE', #603, #708, #932, .T. ) ;
#772 = CARTESIAN_POINT ( 'NONE',  ( 9.500000000000300204, 16.00000000000000000, 37.00000000000000711 ) ) ;
#773 = CARTESIAN_POINT ( 'NONE',  ( -18.03333950160445553, -15.99999999999999289, -6.291193073312235067E-15 ) ) ;
#774 = DIRECTION ( 'NONE',  ( 1.000000000000000000, 0.000000000000000000, 0.000000000000000000 ) ) ;
#775 = VERTEX_POINT ( 'NONE', #69 ) ;
#776 = CARTESIAN_POINT ( 'NONE',  ( -18.03333950160446264, -3.999999999999999112, 3.000000000000009770 ) ) ;
#777 = EDGE_CURVE ( 'NONE', #931, #1139, #1230, .T. ) ;
#778 = DIRECTION ( 'NONE',  ( 0.000000000000000000, 0.000000000000000000, 1.000000000000000000 ) ) ;
#779 = LINE ( 'NONE', #1170, #682 ) ;
#780 = ORIENTED_EDGE ( 'NONE', *, *, #787, .T. ) ;
#781 = MANIFOLD_SOLID_BREP ( 'Wytnij-wyci¹gniêcie3', #1085 ) ;
#782 = CARTESIAN_POINT ( 'NONE',  ( -22.03333950160447330, 7.000000000000007994, 15.75000000000001776 ) ) ;
#783 = DIRECTION ( 'NONE',  ( -9.123502176980002264E-16, 1.000000000000000000, -0.000000000000000000 ) ) ;
#784 = ORIENTED_EDGE ( 'NONE', *, *, #196, .T. ) ;
#785 = AXIS2_PLACEMENT_3D ( 'NONE', #642, #1026, #158 ) ;
#786 = VECTOR ( 'NONE', #621, 1000.000000000000000 ) ;
#787 = EDGE_CURVE ( 'NONE', #516, #694, #1155, .T. ) ;
#788 = AXIS2_PLACEMENT_3D ( 'NONE', #1219, #739, #255 ) ;
#789 = CARTESIAN_POINT ( 'NONE',  ( -18.03333950160439869, -44.65811026761230096, -1.263953833684570001E-14 ) ) ;
#790 = CYLINDRICAL_SURFACE ( 'NONE', #644, 1.749999999999999778 ) ;
#791 = ORIENTED_EDGE ( 'NONE', *, *, #94, .F. ) ;
#792 = FACE_OUTER_BOUND ( 'NONE', #347, .T. ) ;
#793 = EDGE_CURVE ( 'NONE', #603, #48, #412, .T. ) ;
#794 = PLANE ( 'NONE',  #357 ) ;
#795 = CARTESIAN_POINT ( 'NONE',  ( -27.03333950160447685, 16.00000000000000000, 6.000000000000009770 ) ) ;
#796 =( NAMED_UNIT ( * ) SI_UNIT ( $, .STERADIAN. ) SOLID_ANGLE_UNIT ( ) );
#797 = EDGE_LOOP ( 'NONE', ( #1009, #463, #1070, #954 ) ) ;
#798 = DIRECTION ( 'NONE',  ( 1.000000000000000000, 0.000000000000000000, 0.000000000000000000 ) ) ;
#799 = CIRCLE ( 'NONE', #957, 1.749999999999999778 ) ;
#800 = AXIS2_PLACEMENT_3D ( 'NONE', #857, #983, #1243 ) ;
#801 = CARTESIAN_POINT ( 'NONE',  ( -9.999999999999994671, -15.99999999999999289, 3.000000000000000000 ) ) ;
#802 = MECHANICAL_DESIGN_GEOMETRIC_PRESENTATION_REPRESENTATION (  '', ( #93 ), #607 ) ;
#803 = DIRECTION ( 'NONE',  ( 0.000000000000000000, -1.000000000000000000, 0.000000000000000000 ) ) ;
#804 = VECTOR ( 'NONE', #1245, 1000.000000000000000 ) ;
#805 = EDGE_LOOP ( 'NONE', ( #333, #121, #1176, #355 ) ) ;
#806 = SURFACE_STYLE_USAGE ( .BOTH. , #415 ) ;
#807 = CARTESIAN_POINT ( 'NONE',  ( -27.03333950160447685, 16.00000000000000000, 7.950000000000000178 ) ) ;
#808 = AXIS2_PLACEMENT_3D ( 'NONE', #404, #705, #876 ) ;
#809 = CARTESIAN_POINT ( 'NONE',  ( -27.03333950160446264, 16.00000000000000000, 33.00000000000000000 ) ) ;
#810 = VERTEX_POINT ( 'NONE', #316 ) ;
#811 = CARTESIAN_POINT ( 'NONE',  ( -18.23333950160446193, -4.000000000000007105, 7.949999999999998401 ) ) ;
#812 = ORIENTED_EDGE ( 'NONE', *, *, #528, .F. ) ;
#813 = CARTESIAN_POINT ( 'NONE',  ( -22.03333950160447330, 7.000000000000007994, 10.25000000000002309 ) ) ;
#814 = EDGE_CURVE ( 'NONE', #1241, #1116, #323, .T. ) ;
#815 = CARTESIAN_POINT ( 'NONE',  ( -0.001669750802235636655, -11.00000000000000711, 28.05025253169416999 ) ) ;
#816 = DIRECTION ( 'NONE',  ( 1.000000000000000000, 0.000000000000000000, 0.000000000000000000 ) ) ;
#817 = ORIENTED_EDGE ( 'NONE', *, *, #23, .F. ) ;
#818 = LINE ( 'NONE', #149, #1019 ) ;
#819 = ORIENTED_EDGE ( 'NONE', *, *, #661, .T. ) ;
#820 = DIRECTION ( 'NONE',  ( -1.000000000000000000, 0.000000000000000000, 0.000000000000000000 ) ) ;
#821 = CARTESIAN_POINT ( 'NONE',  ( -9.499999999999996447, -15.99999999999999289, 3.000000000000000000 ) ) ;
#822 = EDGE_LOOP ( 'NONE', ( #967, #157 ) ) ;
#823 = LINE ( 'NONE', #329, #1183 ) ;
#824 = ORIENTED_EDGE ( 'NONE', *, *, #926, .T. ) ;
#825 = AXIS2_PLACEMENT_3D ( 'NONE', #1198, #710, #1192 ) ;
#826 = LINE ( 'NONE', #1211, #564 ) ;
#827 = VECTOR ( 'NONE', #368, 1000.000000000000000 ) ;
#828 = AXIS2_PLACEMENT_3D ( 'NONE', #129, #1178, #33 ) ;
#829 = CARTESIAN_POINT ( 'NONE',  ( -13.00000000000000000, 16.00000000000000711, -1.000000000000000000 ) ) ;
#830 = ORIENTED_EDGE ( 'NONE', *, *, #988, .F. ) ;
#831 = FACE_OUTER_BOUND ( 'NONE', #266, .T. ) ;
#832 = VERTEX_POINT ( 'NONE', #478 ) ;
#833 = CARTESIAN_POINT ( 'NONE',  ( -16.99999999999997513, 15.99999999999998934, 33.00000000000000000 ) ) ;
#834 = ADVANCED_FACE ( 'NONE', ( #994, #955, #990 ), #210, .T. ) ;
#835 = CARTESIAN_POINT ( 'NONE',  ( 1.748330249197764141, 11.00000000000007816, 3.000000000000000000 ) ) ;
#836 = APPLICATION_PROTOCOL_DEFINITION ( 'draft international standard', 'automotive_design', 1998, #998 ) ;
#837 = ORIENTED_EDGE ( 'NONE', *, *, #1056, .F. ) ;
#838 = CARTESIAN_POINT ( 'NONE',  ( -18.23333950160446193, 15.99999999999999289, 7.949999999999998401 ) ) ;
#839 = EDGE_LOOP ( 'NONE', ( #402, #112, #1226, #637 ) ) ;
#840 = DIRECTION ( 'NONE',  ( 0.000000000000000000, 1.000000000000000000, 0.000000000000000000 ) ) ;
#841 = AXIS2_PLACEMENT_3D ( 'NONE', #596, #497, #399 ) ;
#842 = ORIENTED_EDGE ( 'NONE', *, *, #750, .T. ) ;
#843 = CARTESIAN_POINT ( 'NONE',  ( -12.99999999999999645, -15.99999999999999289, -1.000000000000000000 ) ) ;
#844 = ORIENTED_EDGE ( 'NONE', *, *, #750, .F. ) ;
#845 = PLANE ( 'NONE',  #116 ) ;
#846 = FACE_OUTER_BOUND ( 'NONE', #660, .T. ) ;
#847 = EDGE_CURVE ( 'NONE', #223, #1037, #208, .T. ) ;
#848 = ORIENTED_EDGE ( 'NONE', *, *, #862, .T. ) ;
#849 = DIRECTION ( 'NONE',  ( 0.000000000000000000, 1.000000000000000000, 0.000000000000000000 ) ) ;
#850 = ORIENTED_EDGE ( 'NONE', *, *, #852, .T. ) ;
#851 = CARTESIAN_POINT ( 'NONE',  ( -1.751669750802235415, 11.00000000000007816, 28.05025253169416999 ) ) ;
#852 = EDGE_CURVE ( 'NONE', #42, #717, #864, .T. ) ;
#853 = ORIENTED_EDGE ( 'NONE', *, *, #494, .T. ) ;
#854 = UNCERTAINTY_MEASURE_WITH_UNIT (LENGTH_MEASURE( 1.000000000000000082E-05 ), #1075, 'distance_accuracy_value', 'NONE');
#855 = CARTESIAN_POINT ( 'NONE',  ( -18.23333950160446193, -4.000000000000007105, 28.04999999999999716 ) ) ;
#856 = ORIENTED_EDGE ( 'NONE', *, *, #689, .F. ) ;
#857 = CARTESIAN_POINT ( 'NONE',  ( -0.001669750802235636655, -11.00000000000000711, 3.000000000000000000 ) ) ;
#858 = CARTESIAN_POINT ( 'NONE',  ( 1.748330249197764141, -11.00000000000000711, 33.00000000000000000 ) ) ;
#859 = VECTOR ( 'NONE', #1158, 1000.000000000000000 ) ;
#860 = ORIENTED_EDGE ( 'NONE', *, *, #915, .F. ) ;
#861 = DIRECTION ( 'NONE',  ( -1.000000000000000000, -9.123502176980002264E-16, 0.000000000000000000 ) ) ;
#862 = EDGE_CURVE ( 'NONE', #48, #603, #578, .T. ) ;
#863 = ORIENTED_EDGE ( 'NONE', *, *, #5, .T. ) ;
#864 = LINE ( 'NONE', #128, #251 ) ;
#865 = DIRECTION ( 'NONE',  ( -0.000000000000000000, 1.000000000000000000, -0.000000000000000000 ) ) ;
#866 = DIRECTION ( 'NONE',  ( 1.000000000000000000, 0.000000000000000000, -0.000000000000000000 ) ) ;
#867 = VECTOR ( 'NONE', #992, 1000.000000000000000 ) ;
#868 = CARTESIAN_POINT ( 'NONE',  ( -13.25000000000002842, 16.00000000000000711, -0.7499999999999906741 ) ) ;
#869 = ORIENTED_EDGE ( 'NONE', *, *, #847, .F. ) ;
#870 = CIRCLE ( 'NONE', #968, 1.749999999999999778 ) ;
#871 = EDGE_CURVE ( 'NONE', #498, #516, #1250, .T. ) ;
#872 = DIRECTION ( 'NONE',  ( 1.000000000000000000, 0.000000000000000000, 0.000000000000000000 ) ) ;
#873 = DIRECTION ( 'NONE',  ( 1.000000000000000000, 0.000000000000000000, 0.000000000000000000 ) ) ;
#874 = EDGE_LOOP ( 'NONE', ( #812, #1094, #1062, #993 ) ) ;
#875 = DIRECTION ( 'NONE',  ( 9.123502176980002264E-16, -1.000000000000000000, 0.000000000000000000 ) ) ;
#876 = DIRECTION ( 'NONE',  ( 1.000000000000000000, 0.000000000000000000, 0.000000000000000000 ) ) ;
#877 = ADVANCED_FACE ( 'NONE', ( #401, #764, #792 ), #1148, .T. ) ;
#878 = CARTESIAN_POINT ( 'NONE',  ( -0.001669750802235636655, 11.00000000000007816, 37.00000000000000711 ) ) ;
#879 = ORIENTED_EDGE ( 'NONE', *, *, #587, .T. ) ;
#880 = CARTESIAN_POINT ( 'NONE',  ( -24.03333950160445909, -4.000000000000007105, 33.00000000000000000 ) ) ;
#881 = EDGE_CURVE ( 'NONE', #547, #162, #677, .T. ) ;
#882 = DIRECTION ( 'NONE',  ( -0.000000000000000000, -0.000000000000000000, -1.000000000000000000 ) ) ;
#883 = EDGE_CURVE ( 'NONE', #1247, #216, #505, .T. ) ;
#884 = ORIENTED_EDGE ( 'NONE', *, *, #687, .T. ) ;
#885 = CARTESIAN_POINT ( 'NONE',  ( -0.001669750802235636655, -11.00000000000000711, 3.000000000000000000 ) ) ;
#886 = VECTOR ( 'NONE', #735, 1000.000000000000000 ) ;
#887 = AXIS2_PLACEMENT_3D ( 'NONE', #573, #683, #970 ) ;
#888 = FACE_OUTER_BOUND ( 'NONE', #925, .T. ) ;
#889 = DIRECTION ( 'NONE',  ( -0.000000000000000000, 1.000000000000000000, -0.000000000000000000 ) ) ;
#890 = DIRECTION ( 'NONE',  ( 0.000000000000000000, 1.000000000000000000, 0.000000000000000000 ) ) ;
#891 = EDGE_LOOP ( 'NONE', ( #942, #729, #625, #856 ) ) ;
#892 = DIRECTION ( 'NONE',  ( 1.000000000000000000, 0.000000000000000000, 0.000000000000000000 ) ) ;
#893 = AXIS2_PLACEMENT_3D ( 'NONE', #125, #803, #1185 ) ;
#894 = CARTESIAN_POINT ( 'NONE',  ( 9.500000000000310862, -15.99999999999992362, 37.00000000000000711 ) ) ;
#895 = CARTESIAN_POINT ( 'NONE',  ( 9.500000000000300204, 16.00000000000000000, 33.00000000000000000 ) ) ;
#896 = SURFACE_STYLE_USAGE ( .BOTH. , #509 ) ;
#897 = ORIENTED_EDGE ( 'NONE', *, *, #336, .F. ) ;
#898 = DIRECTION ( 'NONE',  ( 1.000000000000000000, 0.000000000000000000, -0.000000000000000000 ) ) ;
#899 = ADVANCED_FACE ( 'NONE', ( #22 ), #1050, .T. ) ;
#900 = CARTESIAN_POINT ( 'NONE',  ( -18.03333950160446975, 2.373704010007115647E-14, 7.949999999999998401 ) ) ;
#901 = DIRECTION ( 'NONE',  ( -1.000000000000000000, -0.000000000000000000, -0.000000000000000000 ) ) ;
#902 = AXIS2_PLACEMENT_3D ( 'NONE', #1028, #765, #265 ) ;
#903 = ORIENTED_EDGE ( 'NONE', *, *, #943, .T. ) ;
#904 = DIRECTION ( 'NONE',  ( -1.626303258728256651E-16, 1.000000000000000000, -0.000000000000000000 ) ) ;
#905 = EDGE_LOOP ( 'NONE', ( #1172, #923, #437, #837 ) ) ;
#906 = ADVANCED_FACE ( 'NONE', ( #1095 ), #646, .F. ) ;
#907 = CARTESIAN_POINT ( 'NONE',  ( 9.500000000000000000, 16.00000000000000711, 3.000000000000000000 ) ) ;
#908 = EDGE_CURVE ( 'NONE', #106, #910, #1003, .T. ) ;
#909 = LINE ( 'NONE', #35, #56 ) ;
#910 = VERTEX_POINT ( 'NONE', #838 ) ;
#911 = CARTESIAN_POINT ( 'NONE',  ( -9.999999999999994671, 0.000000000000000000, 28.04999999999999716 ) ) ;
#912 = VERTEX_POINT ( 'NONE', #341 ) ;
#913 = CARTESIAN_POINT ( 'NONE',  ( -1.751669750802235415, -11.00000000000000711, 3.000000000000000000 ) ) ;
#914 = FACE_OUTER_BOUND ( 'NONE', #367, .T. ) ;
#915 = EDGE_CURVE ( 'NONE', #1139, #1116, #728, .T. ) ;
#916 = ORIENTED_EDGE ( 'NONE', *, *, #943, .F. ) ;
#917 = PLANE ( 'NONE',  #313 ) ;
#918 = ORIENTED_EDGE ( 'NONE', *, *, #227, .F. ) ;
#919 = PLANE ( 'NONE',  #1105 ) ;
#920 = AXIS2_PLACEMENT_3D ( 'NONE', #443, #1206, #1111 ) ;
#921 = PLANE ( 'NONE',  #893 ) ;
#922 = EDGE_CURVE ( 'NONE', #1144, #547, #1195, .T. ) ;
#923 = ORIENTED_EDGE ( 'NONE', *, *, #25, .T. ) ;
#924 = DIRECTION ( 'NONE',  ( 0.000000000000000000, 1.000000000000000000, 0.000000000000000000 ) ) ;
#925 = EDGE_LOOP ( 'NONE', ( #82, #609, #961, #72 ) ) ;
#926 = EDGE_CURVE ( 'NONE', #570, #484, #241, .T. ) ;
#927 = VECTOR ( 'NONE', #1114, 1000.000000000000000 ) ;
#928 = FACE_OUTER_BOUND ( 'NONE', #60, .T. ) ;
#929 = ORIENTED_EDGE ( 'NONE', *, *, #343, .F. ) ;
#930 = FACE_OUTER_BOUND ( 'NONE', #891, .T. ) ;
#931 = VERTEX_POINT ( 'NONE', #1016 ) ;
#932 = LINE ( 'NONE', #746, #1208 ) ;
#933 = PRODUCT_DEFINITION_FORMATION_WITH_SPECIFIED_SOURCE ( 'ANY', '', #1125, .NOT_KNOWN. ) ;
#934 = PLANE ( 'NONE',  #902 ) ;
#935 = LINE ( 'NONE', #645, #298 ) ;
#936 = DIRECTION ( 'NONE',  ( -9.123502176980002264E-16, 1.000000000000000000, 0.000000000000000000 ) ) ;
#937 = ORIENTED_EDGE ( 'NONE', *, *, #450, .F. ) ;
#938 = LINE ( 'NONE', #350, #886 ) ;
#939 = DIRECTION ( 'NONE',  ( -1.000000000000000000, 0.000000000000000000, 0.000000000000000000 ) ) ;
#940 = LINE ( 'NONE', #952, #278 ) ;
#941 = LINE ( 'NONE', #267, #205 ) ;
#942 = ORIENTED_EDGE ( 'NONE', *, *, #512, .F. ) ;
#943 = EDGE_CURVE ( 'NONE', #434, #810, #703, .T. ) ;
#944 = CARTESIAN_POINT ( 'NONE',  ( -0.001669750802235636655, 11.00000000000007816, -1.000000000000000000 ) ) ;
#945 = COLOUR_RGB ( '',0.000000000000000000, 1.000000000000000000, 0.2509803921568627416 ) ;
#946 = VECTOR ( 'NONE', #820, 1000.000000000000000 ) ;
#947 = ORIENTED_EDGE ( 'NONE', *, *, #702, .F. ) ;
#948 = DIRECTION ( 'NONE',  ( -0.000000000000000000, -0.000000000000000000, -1.000000000000000000 ) ) ;
#949 = ORIENTED_EDGE ( 'NONE', *, *, #1225, .T. ) ;
#950 = CARTESIAN_POINT ( 'NONE',  ( -9.999999999999994671, -15.99999999999999289, 7.949999999999998401 ) ) ;
#951 = ADVANCED_FACE ( 'NONE', ( #234 ), #917, .T. ) ;
#952 = CARTESIAN_POINT ( 'NONE',  ( 9.500000000000005329, -15.99999999999999289, -1.000000000000000000 ) ) ;
#953 = CARTESIAN_POINT ( 'NONE',  ( -27.03333950160446264, -4.000000000000007105, 3.000000000000011546 ) ) ;
#954 = ORIENTED_EDGE ( 'NONE', *, *, #771, .F. ) ;
#955 = FACE_BOUND ( 'NONE', #282, .T. ) ;
#956 = CARTESIAN_POINT ( 'NONE',  ( -9.999999999999994671, 16.00000000000000711, 3.000000000000000000 ) ) ;
#957 = AXIS2_PLACEMENT_3D ( 'NONE', #878, #388, #292 ) ;
#958 = ORIENTED_EDGE ( 'NONE', *, *, #757, .T. ) ;
#959 = DIRECTION ( 'NONE',  ( 8.673617379884033500E-16, -1.000000000000000000, 0.000000000000000000 ) ) ;
#960 = VECTOR ( 'NONE', #30, 1000.000000000000000 ) ;
#961 = ORIENTED_EDGE ( 'NONE', *, *, #263, .T. ) ;
#962 = EDGE_CURVE ( 'NONE', #832, #405, #818, .T. ) ;
#963 = CIRCLE ( 'NONE', #1180, 2.749999999999997335 ) ;
#964 = VECTOR ( 'NONE', #1131, 1000.000000000000000 ) ;
#965 = CARTESIAN_POINT ( 'NONE',  ( -22.03333950160447330, 7.000000000000007994, 20.25000000000002487 ) ) ;
#966 = DIRECTION ( 'NONE',  ( 1.000000000000000000, 0.000000000000000000, 0.000000000000000000 ) ) ;
#967 = ORIENTED_EDGE ( 'NONE', *, *, #123, .F. ) ;
#968 = AXIS2_PLACEMENT_3D ( 'NONE', #98, #602, #873 ) ;
#969 = ADVANCED_FACE ( 'NONE', ( #930 ), #256, .F. ) ;
#970 = DIRECTION ( 'NONE',  ( 0.000000000000000000, 0.000000000000000000, -1.000000000000000000 ) ) ;
#971 = DIRECTION ( 'NONE',  ( -0.000000000000000000, -0.000000000000000000, -1.000000000000000000 ) ) ;
#972 = VERTEX_POINT ( 'NONE', #138 ) ;
#973 = CARTESIAN_POINT ( 'NONE',  ( -12.99999999999998934, -15.99999999999992362, 37.00000000000003553 ) ) ;
#974 = ADVANCED_FACE ( 'NONE', ( #831 ), #525, .T. ) ;
#975 = DIRECTION ( 'NONE',  ( 0.000000000000000000, 0.000000000000000000, 1.000000000000000000 ) ) ;
#976 = CARTESIAN_POINT ( 'NONE',  ( -22.03333950160447330, 16.00000000000000711, 13.00000000000001954 ) ) ;
#977 = ORIENTED_EDGE ( 'NONE', *, *, #263, .F. ) ;
#978 = LINE ( 'NONE', #1, #457 ) ;
#979 = LINE ( 'NONE', #773, #420 ) ;
#980 = DIRECTION ( 'NONE',  ( 0.000000000000000000, 0.000000000000000000, -1.000000000000000000 ) ) ;
#981 = AXIS2_PLACEMENT_3D ( 'NONE', #332, #410, #338 ) ;
#982 = ORIENTED_EDGE ( 'NONE', *, *, #1052, .T. ) ;
#983 = DIRECTION ( 'NONE',  ( 0.000000000000000000, -0.000000000000000000, -1.000000000000000000 ) ) ;
#984 = AXIS2_PLACEMENT_3D ( 'NONE', #243, #64, #58 ) ;
#985 = AXIS2_PLACEMENT_3D ( 'NONE', #310, #724, #228 ) ;
#986 = LINE ( 'NONE', #45, #725 ) ;
#987 = FACE_BOUND ( 'NONE', #1083, .T. ) ;
#988 = EDGE_CURVE ( 'NONE', #1154, #137, #733, .T. ) ;
#989 = ORIENTED_EDGE ( 'NONE', *, *, #787, .F. ) ;
#990 = FACE_OUTER_BOUND ( 'NONE', #370, .T. ) ;
#991 = FACE_OUTER_BOUND ( 'NONE', #654, .T. ) ;
#992 = DIRECTION ( 'NONE',  ( 1.000000000000000000, 0.000000000000000000, 0.000000000000000000 ) ) ;
#993 = ORIENTED_EDGE ( 'NONE', *, *, #1225, .F. ) ;
#994 = FACE_BOUND ( 'NONE', #572, .T. ) ;
#995 = EDGE_LOOP ( 'NONE', ( #429, #879, #16, #308 ) ) ;
#996 = EDGE_CURVE ( 'NONE', #342, #1213, #823, .T. ) ;
#997 = PLANE ( 'NONE',  #441 ) ;
#998 = APPLICATION_CONTEXT ( 'automotive_design' ) ;
#999 = LINE ( 'NONE', #1093, #470 ) ;
#1000 = CARTESIAN_POINT ( 'NONE',  ( 0.000000000000000000, 0.000000000000000000, 0.000000000000000000 ) ) ;
#1001 = VECTOR ( 'NONE', #390, 1000.000000000000000 ) ;
#1002 = EDGE_LOOP ( 'NONE', ( #583, #100, #148, #723, #850, #171, #550, #57, #562, #574 ) ) ;
#1003 = LINE ( 'NONE', #811, #638 ) ;
#1004 = VERTEX_POINT ( 'NONE', #422 ) ;
#1005 = CIRCLE ( 'NONE', #231, 1.749999999999999778 ) ;
#1006 = DIRECTION ( 'NONE',  ( 0.000000000000000000, 0.000000000000000000, 1.000000000000000000 ) ) ;
#1007 = EDGE_CURVE ( 'NONE', #48, #1004, #1023, .T. ) ;
#1008 = DIRECTION ( 'NONE',  ( 0.000000000000000000, -0.000000000000000000, 1.000000000000000000 ) ) ;
#1009 = ORIENTED_EDGE ( 'NONE', *, *, #862, .F. ) ;
#1010 = CARTESIAN_POINT ( 'NONE',  ( -22.03333950160447330, 16.00000000000000711, 10.25000000000002309 ) ) ;
#1011 = ORIENTED_EDGE ( 'NONE', *, *, #1121, .F. ) ;
#1012 = FACE_OUTER_BOUND ( 'NONE', #1049, .T. ) ;
#1013 = EDGE_CURVE ( 'NONE', #216, #931, #722, .T. ) ;
#1014 = FACE_OUTER_BOUND ( 'NONE', #361, .T. ) ;
#1015 = ORIENTED_EDGE ( 'NONE', *, *, #325, .T. ) ;
#1016 = CARTESIAN_POINT ( 'NONE',  ( -9.999999999999994671, 15.99999999999999289, 28.04999999999999716 ) ) ;
#1017 = VERTEX_POINT ( 'NONE', #428 ) ;
#1018 = CIRCLE ( 'NONE', #477, 1.749999999999999778 ) ;
#1019 = VECTOR ( 'NONE', #626, 1000.000000000000000 ) ;
#1020 = DIRECTION ( 'NONE',  ( 0.000000000000000000, 1.000000000000000000, 0.000000000000000000 ) ) ;
#1021 = COLOUR_RGB ( '',0.000000000000000000, 1.000000000000000000, 0.2509803921568627416 ) ;
#1022 = ORIENTED_EDGE ( 'NONE', *, *, #871, .F. ) ;
#1023 = LINE ( 'NONE', #155, #150 ) ;
#1024 = ORIENTED_EDGE ( 'NONE', *, *, #883, .T. ) ;
#1025 = VECTOR ( 'NONE', #529, 1000.000000000000000 ) ;
#1026 = DIRECTION ( 'NONE',  ( 0.000000000000000000, 1.000000000000000000, 0.000000000000000000 ) ) ;
#1027 = AXIS2_PLACEMENT_3D ( 'NONE', #496, #299, #119 ) ;
#1028 = CARTESIAN_POINT ( 'NONE',  ( -9.999999999999994671, -15.99999999999999289, 40.09031735997639601 ) ) ;
#1029 = DIRECTION ( 'NONE',  ( -8.673617379884033500E-16, 1.000000000000000000, 0.000000000000000000 ) ) ;
#1030 = FACE_OUTER_BOUND ( 'NONE', #995, .T. ) ;
#1031 = ORIENTED_EDGE ( 'NONE', *, *, #1121, .T. ) ;
#1032 = DIRECTION ( 'NONE',  ( -0.000000000000000000, -0.000000000000000000, -1.000000000000000000 ) ) ;
#1033 = CARTESIAN_POINT ( 'NONE',  ( -16.99999999999999289, 16.00000000000000711, 3.000000000000009770 ) ) ;
#1034 = VERTEX_POINT ( 'NONE', #61 ) ;
#1035 = DIRECTION ( 'NONE',  ( -0.000000000000000000, 1.000000000000000000, -0.000000000000000000 ) ) ;
#1036 = EDGE_CURVE ( 'NONE', #233, #489, #414, .T. ) ;
#1037 = VERTEX_POINT ( 'NONE', #1010 ) ;
#1038 = FACE_OUTER_BOUND ( 'NONE', #874, .T. ) ;
#1039 = DIRECTION ( 'NONE',  ( 0.000000000000000000, 0.000000000000000000, -1.000000000000000000 ) ) ;
#1040 = VERTEX_POINT ( 'NONE', #1254 ) ;
#1041 = UNCERTAINTY_MEASURE_WITH_UNIT (LENGTH_MEASURE( 1.000000000000000082E-05 ), #1061, 'distance_accuracy_value', 'NONE');
#1042 = DIRECTION ( 'NONE',  ( 2.110233787937695948E-31, -2.312964634635743450E-16, 1.000000000000000000 ) ) ;
#1043 = EDGE_LOOP ( 'NONE', ( #394, #720, #863, #190 ) ) ;
#1044 = LINE ( 'NONE', #446, #745 ) ;
#1045 =( GEOMETRIC_REPRESENTATION_CONTEXT ( 3 ) GLOBAL_UNCERTAINTY_ASSIGNED_CONTEXT ( ( #740 ) ) GLOBAL_UNIT_ASSIGNED_CONTEXT ( ( #87, #598, #374 ) ) REPRESENTATION_CONTEXT ( 'NONE', 'WORKASPACE' ) );
#1046 = VECTOR ( 'NONE', #865, 1000.000000000000000 ) ;
#1047 = ORIENTED_EDGE ( 'NONE', *, *, #101, .T. ) ;
#1048 = DIRECTION ( 'NONE',  ( -0.7071067811865439090, -0.000000000000000000, 0.7071067811865512365 ) ) ;
#1049 = EDGE_LOOP ( 'NONE', ( #151, #453, #1159, #817 ) ) ;
#1050 = CYLINDRICAL_SURFACE ( 'NONE', #538, 2.999999999999999112 ) ;
#1051 = CARTESIAN_POINT ( 'NONE',  ( -22.03333950160447330, 7.000000000000007994, 15.75000000000001776 ) ) ;
#1052 = EDGE_CURVE ( 'NONE', #489, #810, #749, .T. ) ;
#1053 = EDGE_LOOP ( 'NONE', ( #330, #658, #74, #1112 ) ) ;
#1054 = CARTESIAN_POINT ( 'NONE',  ( -1.751669750802235415, 11.00000000000007816, 37.00000000000000711 ) ) ;
#1055 = ORIENTED_EDGE ( 'NONE', *, *, #295, .T. ) ;
#1056 = EDGE_CURVE ( 'NONE', #912, #365, #659, .T. ) ;
#1057 = CARTESIAN_POINT ( 'NONE',  ( 9.500000000000000000, 16.00000000000000711, 3.000000000000000000 ) ) ;
#1058 = DIRECTION ( 'NONE',  ( -0.000000000000000000, 1.000000000000000000, -0.000000000000000000 ) ) ;
#1059 = VECTOR ( 'NONE', #591, 1000.000000000000000 ) ;
#1060 = DIRECTION ( 'NONE',  ( -0.000000000000000000, -0.000000000000000000, -1.000000000000000000 ) ) ;
#1061 =( LENGTH_UNIT ( ) NAMED_UNIT ( * ) SI_UNIT ( .MILLI., .METRE. ) );
#1062 = ORIENTED_EDGE ( 'NONE', *, *, #1013, .T. ) ;
#1063 = AXIS2_PLACEMENT_3D ( 'NONE', #65, #59, #153 ) ;
#1064 = DIRECTION ( 'NONE',  ( 0.000000000000000000, 1.000000000000000000, 0.000000000000000000 ) ) ;
#1065 = CARTESIAN_POINT ( 'NONE',  ( -0.001669750802235636655, 11.00000000000007816, 7.949747468305831788 ) ) ;
#1066 = ORIENTED_EDGE ( 'NONE', *, *, #78, .T. ) ;
#1067 = ORIENTED_EDGE ( 'NONE', *, *, #1216, .T. ) ;
#1068 = LINE ( 'NONE', #690, #135 ) ;
#1069 = CARTESIAN_POINT ( 'NONE',  ( -18.03333950160446264, -15.99999999999992362, 33.00000000000000000 ) ) ;
#1070 = ORIENTED_EDGE ( 'NONE', *, *, #552, .T. ) ;
#1071 = EDGE_CURVE ( 'NONE', #349, #293, #88, .T. ) ;
#1072 = ORIENTED_EDGE ( 'NONE', *, *, #1256, .F. ) ;
#1073 = DIRECTION ( 'NONE',  ( 1.000000000000000000, 0.000000000000000000, 0.000000000000000000 ) ) ;
#1074 = CARTESIAN_POINT ( 'NONE',  ( 1.748330249197764141, -11.00000000000000711, 3.000000000000000000 ) ) ;
#1075 =( LENGTH_UNIT ( ) NAMED_UNIT ( * ) SI_UNIT ( .MILLI., .METRE. ) );
#1076 = AXIS2_PLACEMENT_3D ( 'NONE', #448, #1220, #1101 ) ;
#1077 = ORIENTED_EDGE ( 'NONE', *, *, #777, .F. ) ;
#1078 = DIRECTION ( 'NONE',  ( -0.000000000000000000, -0.000000000000000000, -1.000000000000000000 ) ) ;
#1079 = AXIS2_PLACEMENT_3D ( 'NONE', #593, #610, #898 ) ;
#1080 = EDGE_CURVE ( 'NONE', #489, #233, #737, .T. ) ;
#1081 = DIRECTION ( 'NONE',  ( -0.000000000000000000, 1.000000000000000000, -0.000000000000000000 ) ) ;
#1082 = FACE_OUTER_BOUND ( 'NONE', #805, .T. ) ;
#1083 = EDGE_LOOP ( 'NONE', ( #869, #1072 ) ) ;
#1084 = CARTESIAN_POINT ( 'NONE',  ( 10.60345844755196332, -4.000000000000007105, 28.04999999999999716 ) ) ;
#1085 = CLOSED_SHELL ( 'NONE', ( #436, #79, #117, #327, #1104, #568, #730, #721, #407, #969, #393, #268, #1151, #877, #345, #426, #1132, #1171, #433, #655, #110, #648, #475, #569, #1240, #181, #63, #951, #102, #834, #244, #974, #695, #899, #430, #906, #206, #521 ) ) ;
#1086 = LINE ( 'NONE', #900, #440 ) ;
#1087 = FACE_OUTER_BOUND ( 'NONE', #133, .T. ) ;
#1088 = SHAPE_DEFINITION_REPRESENTATION ( #163, #762 ) ;
#1089 = EDGE_CURVE ( 'NONE', #1116, #106, #467, .T. ) ;
#1090 = EDGE_LOOP ( 'NONE', ( #918, #1152, #665, #751, #830, #842 ) ) ;
#1091 = CARTESIAN_POINT ( 'NONE',  ( -22.03333950160447330, 16.00000000000000711, 13.00000000000001954 ) ) ;
#1092 = LINE ( 'NONE', #124, #946 ) ;
#1093 = CARTESIAN_POINT ( 'NONE',  ( 9.500000000000005329, -15.99999999999999289, 3.000000000000000000 ) ) ;
#1094 = ORIENTED_EDGE ( 'NONE', *, *, #687, .F. ) ;
#1095 = FACE_OUTER_BOUND ( 'NONE', #1146, .T. ) ;
#1096 = ORIENTED_EDGE ( 'NONE', *, *, #883, .F. ) ;
#1097 = EDGE_CURVE ( 'NONE', #359, #405, #483, .T. ) ;
#1098 = FACE_OUTER_BOUND ( 'NONE', #1118, .T. ) ;
#1099 = CARTESIAN_POINT ( 'NONE',  ( -22.03333950160447330, 7.000000000000007994, 23.00000000000002132 ) ) ;
#1100 = VERTEX_POINT ( 'NONE', #85 ) ;
#1101 = DIRECTION ( 'NONE',  ( 0.000000000000000000, 0.000000000000000000, 1.000000000000000000 ) ) ;
#1102 = ORIENTED_EDGE ( 'NONE', *, *, #1135, .F. ) ;
#1103 = CIRCLE ( 'NONE', #785, 2.749999999999997335 ) ;
#1104 = ADVANCED_FACE ( 'NONE', ( #1030 ), #558, .F. ) ;
#1105 = AXIS2_PLACEMENT_3D ( 'NONE', #141, #709, #331 ) ;
#1106 = AXIS2_PLACEMENT_3D ( 'NONE', #581, #697, #866 ) ;
#1107 = EDGE_CURVE ( 'NONE', #1017, #372, #941, .T. ) ;
#1108 = CARTESIAN_POINT ( 'NONE',  ( -18.03333950160446264, -3.999999999999999112, 7.949999999999998401 ) ) ;
#1109 = FACE_OUTER_BOUND ( 'NONE', #839, .T. ) ;
#1110 = ORIENTED_EDGE ( 'NONE', *, *, #871, .T. ) ;
#1111 = DIRECTION ( 'NONE',  ( -1.000000000000000000, 0.000000000000000000, 0.000000000000000000 ) ) ;
#1112 = ORIENTED_EDGE ( 'NONE', *, *, #169, .T. ) ;
#1113 = FACE_OUTER_BOUND ( 'NONE', #1090, .T. ) ;
#1114 = DIRECTION ( 'NONE',  ( -1.000000000000000000, 0.000000000000000000, 0.000000000000000000 ) ) ;
#1115 = DIRECTION ( 'NONE',  ( 0.000000000000000000, 0.000000000000000000, 1.000000000000000000 ) ) ;
#1116 = VERTEX_POINT ( 'NONE', #855 ) ;
#1117 = DIRECTION ( 'NONE',  ( -0.000000000000000000, -0.000000000000000000, -1.000000000000000000 ) ) ;
#1118 = EDGE_LOOP ( 'NONE', ( #168, #423, #903, #715 ) ) ;
#1119 = VECTOR ( 'NONE', #1227, 1000.000000000000000 ) ;
#1120 = CARTESIAN_POINT ( 'NONE',  ( 9.500000000000310862, -15.99999999999992362, 33.00000000000000000 ) ) ;
#1121 = EDGE_CURVE ( 'NONE', #756, #372, #161, .T. ) ;
#1122 = AXIS2_PLACEMENT_3D ( 'NONE', #1091, #471, #309 ) ;
#1123 = CARTESIAN_POINT ( 'NONE',  ( -27.03333950160447685, 16.00000000000000000, 30.00000000000000000 ) ) ;
#1124 = VECTOR ( 'NONE', #1042, 1000.000000000000000 ) ;
#1125 = PRODUCT ( '009_011_Underside_front_servo_mount', '009_011_Underside_front_servo_mount', '', ( #230 ) ) ;
#1126 = EDGE_LOOP ( 'NONE', ( #209, #848 ) ) ;
#1127 = CARTESIAN_POINT ( 'NONE',  ( 4.074573354723061514E-14, -15.99999999999992362, 33.00000000000000000 ) ) ;
#1128 = AXIS2_PLACEMENT_3D ( 'NONE', #70, #458, #840 ) ;
#1129 = ORIENTED_EDGE ( 'NONE', *, *, #94, .T. ) ;
#1130 = CIRCLE ( 'NONE', #671, 1.749999999999999778 ) ;
#1131 = DIRECTION ( 'NONE',  ( -0.000000000000000000, -0.000000000000000000, 1.000000000000000000 ) ) ;
#1132 = ADVANCED_FACE ( 'NONE', ( #571 ), #1145, .F. ) ;
#1133 = ORIENTED_EDGE ( 'NONE', *, *, #605, .F. ) ;
#1134 = LINE ( 'NONE', #73, #577 ) ;
#1135 = EDGE_CURVE ( 'NONE', #547, #484, #67, .T. ) ;
#1136 = ORIENTED_EDGE ( 'NONE', *, *, #962, .T. ) ;
#1137 = DIRECTION ( 'NONE',  ( -0.000000000000000000, -0.000000000000000000, -1.000000000000000000 ) ) ;
#1138 = CARTESIAN_POINT ( 'NONE',  ( 1.748330249197764141, 11.00000000000007816, 33.00000000000000000 ) ) ;
#1139 = VERTEX_POINT ( 'NONE', #454 ) ;
#1140 = DIRECTION ( 'NONE',  ( -0.000000000000000000, 1.000000000000000000, -0.000000000000000000 ) ) ;
#1141 = VERTEX_POINT ( 'NONE', #378 ) ;
#1142 = EDGE_CURVE ( 'NONE', #262, #359, #281, .T. ) ;
#1143 = CARTESIAN_POINT ( 'NONE',  ( -1.751669750802235415, 11.00000000000007816, -1.000000000000000000 ) ) ;
#1144 = VERTEX_POINT ( 'NONE', #667 ) ;
#1145 = PLANE ( 'NONE',  #315 ) ;
#1146 = EDGE_LOOP ( 'NONE', ( #734, #1232, #36, #1015 ) ) ;
#1147 = EDGE_CURVE ( 'NONE', #1141, #262, #1134, .T. ) ;
#1148 = PLANE ( 'NONE',  #1182 ) ;
#1149 = CARTESIAN_POINT ( 'NONE',  ( 9.500000000000000000, 16.00000000000000711, -1.000000000000000000 ) ) ;
#1150 = VECTOR ( 'NONE', #713, 1000.000000000000000 ) ;
#1151 = ADVANCED_FACE ( 'NONE', ( #261 ), #461, .F. ) ;
#1152 = ORIENTED_EDGE ( 'NONE', *, *, #459, .T. ) ;
#1153 = CARTESIAN_POINT ( 'NONE',  ( -9.500000000000000000, 16.00000000000000711, 3.000000000000000000 ) ) ;
#1154 = VERTEX_POINT ( 'NONE', #172 ) ;
#1155 = LINE ( 'NONE', #700, #499 ) ;
#1156 = PLANE ( 'NONE',  #1165 ) ;
#1157 = DIRECTION ( 'NONE',  ( 0.000000000000000000, 0.000000000000000000, -1.000000000000000000 ) ) ;
#1158 = DIRECTION ( 'NONE',  ( -1.000000000000000000, -0.000000000000000000, -0.000000000000000000 ) ) ;
#1159 = ORIENTED_EDGE ( 'NONE', *, *, #503, .F. ) ;
#1160 = DIRECTION ( 'NONE',  ( -1.000000000000000000, 0.000000000000000000, 0.000000000000000000 ) ) ;
#1161 =( GEOMETRIC_REPRESENTATION_CONTEXT ( 3 ) GLOBAL_UNCERTAINTY_ASSIGNED_CONTEXT ( ( #1041 ) ) GLOBAL_UNIT_ASSIGNED_CONTEXT ( ( #1061, #111, #686 ) ) REPRESENTATION_CONTEXT ( 'NONE', 'WORKASPACE' ) );
#1162 = FACE_OUTER_BOUND ( 'NONE', #1043, .T. ) ;
#1163 = CARTESIAN_POINT ( 'NONE',  ( -0.001669750802235636655, 11.00000000000007816, 3.000000000000000000 ) ) ;
#1164 = VERTEX_POINT ( 'NONE', #563 ) ;
#1165 = AXIS2_PLACEMENT_3D ( 'NONE', #789, #584, #875 ) ;
#1166 = LINE ( 'NONE', #973, #339 ) ;
#1167 = VECTOR ( 'NONE', #770, 1000.000000000000000 ) ;
#1168 = VECTOR ( 'NONE', #1064, 1000.000000000000000 ) ;
#1169 = FACE_BOUND ( 'NONE', #640, .T. ) ;
#1170 = CARTESIAN_POINT ( 'NONE',  ( 9.500000000000300204, -4.000000000000003553, 33.00000000000000000 ) ) ;
#1171 = ADVANCED_FACE ( 'NONE', ( #1239 ), #371, .T. ) ;
#1172 = ORIENTED_EDGE ( 'NONE', *, *, #295, .F. ) ;
#1173 = ORIENTED_EDGE ( 'NONE', *, *, #123, .T. ) ;
#1174 = CARTESIAN_POINT ( 'NONE',  ( -9.999999999999994671, -4.000000000000003553, 33.00000000000000000 ) ) ;
#1175 = DIRECTION ( 'NONE',  ( 0.000000000000000000, 0.000000000000000000, -1.000000000000000000 ) ) ;
#1176 = ORIENTED_EDGE ( 'NONE', *, *, #1234, .F. ) ;
#1177 = PRESENTATION_STYLE_ASSIGNMENT (( #806 ) ) ;
#1178 = DIRECTION ( 'NONE',  ( 0.000000000000000000, 0.000000000000000000, -1.000000000000000000 ) ) ;
#1179 = CARTESIAN_POINT ( 'NONE',  ( -22.03333950160447330, 7.000000000000007994, 13.00000000000001954 ) ) ;
#1180 = AXIS2_PLACEMENT_3D ( 'NONE', #976, #492, #99 ) ;
#1181 = ORIENTED_EDGE ( 'NONE', *, *, #634, .F. ) ;
#1182 = AXIS2_PLACEMENT_3D ( 'NONE', #276, #381, #283 ) ;
#1183 = VECTOR ( 'NONE', #37, 1000.000000000000000 ) ;
#1184 = PLANE ( 'NONE',  #76 ) ;
#1185 = DIRECTION ( 'NONE',  ( 0.000000000000000000, -0.000000000000000000, -1.000000000000000000 ) ) ;
#1186 = CYLINDRICAL_SURFACE ( 'NONE', #841, 2.749999999999995559 ) ;
#1187 = AXIS2_PLACEMENT_3D ( 'NONE', #286, #1060, #966 ) ;
#1188 = VERTEX_POINT ( 'NONE', #1054 ) ;
#1189 = DIRECTION ( 'NONE',  ( 0.000000000000000000, -0.000000000000000000, -1.000000000000000000 ) ) ;
#1190 = CIRCLE ( 'NONE', #788, 2.999999999999999112 ) ;
#1191 = FACE_OUTER_BOUND ( 'NONE', #182, .T. ) ;
#1192 = DIRECTION ( 'NONE',  ( 1.084202172485504434E-16, -1.000000000000000000, 0.000000000000000000 ) ) ;
#1193 = EDGE_CURVE ( 'NONE', #717, #1034, #183, .T. ) ;
#1194 = ORIENTED_EDGE ( 'NONE', *, *, #140, .F. ) ;
#1195 = LINE ( 'NONE', #132, #375 ) ;
#1196 = ORIENTED_EDGE ( 'NONE', *, *, #793, .F. ) ;
#1197 = LINE ( 'NONE', #601, #232 ) ;
#1198 = CARTESIAN_POINT ( 'NONE',  ( -12.99999999999999822, -1.409462824231155567E-15, -1.000000000000021760 ) ) ;
#1199 = ORIENTED_EDGE ( 'NONE', *, *, #285, .F. ) ;
#1200 = DIRECTION ( 'NONE',  ( 1.000000000000000000, 9.123502176980158065E-16, -1.942890293094029369E-16 ) ) ;
#1201 = EDGE_CURVE ( 'NONE', #810, #434, #1222, .T. ) ;
#1202 = EDGE_LOOP ( 'NONE', ( #588, #4, #107, #540 ) ) ;
#1203 = LINE ( 'NONE', #894, #174 ) ;
#1204 = CARTESIAN_POINT ( 'NONE',  ( -18.03333950160442356, -44.65811026761230096, 33.00000000000000000 ) ) ;
#1205 = ORIENTED_EDGE ( 'NONE', *, *, #101, .F. ) ;
#1206 = DIRECTION ( 'NONE',  ( -0.000000000000000000, -0.000000000000000000, -1.000000000000000000 ) ) ;
#1207 = ORIENTED_EDGE ( 'NONE', *, *, #561, .T. ) ;
#1208 = VECTOR ( 'NONE', #1032, 1000.000000000000000 ) ;
#1209 = VECTOR ( 'NONE', #382, 1000.000000000000000 ) ;
#1210 = VECTOR ( 'NONE', #91, 1000.000000000000000 ) ;
#1211 = CARTESIAN_POINT ( 'NONE',  ( -18.23333950160446193, 15.99999999999999289, 54.85040045399626507 ) ) ;
#1212 = CARTESIAN_POINT ( 'NONE',  ( -22.03333950160447330, 7.000000000000007994, 20.25000000000002487 ) ) ;
#1213 = VERTEX_POINT ( 'NONE', #502 ) ;
#1214 = DIRECTION ( 'NONE',  ( -0.000000000000000000, 1.000000000000000000, 0.000000000000000000 ) ) ;
#1215 = ORIENTED_EDGE ( 'NONE', *, *, #456, .F. ) ;
#1216 = EDGE_CURVE ( 'NONE', #1213, #1188, #799, .T. ) ;
#1217 = DIRECTION ( 'NONE',  ( -0.000000000000000000, 1.000000000000000000, 0.000000000000000000 ) ) ;
#1218 = CARTESIAN_POINT ( 'NONE',  ( -13.00000000000000000, 16.00000000000000711, -1.000000000000000000 ) ) ;
#1219 = CARTESIAN_POINT ( 'NONE',  ( -24.03333950160445909, -4.000000000000004441, 30.00000000000000355 ) ) ;
#1220 = DIRECTION ( 'NONE',  ( 0.000000000000000000, 1.000000000000000000, 0.000000000000000000 ) ) ;
#1221 = ORIENTED_EDGE ( 'NONE', *, *, #544, .T. ) ;
#1222 = CIRCLE ( 'NONE', #311, 2.749999999999995559 ) ;
#1223 = DIRECTION ( 'NONE',  ( 1.000000000000000000, 0.000000000000000000, 0.000000000000000000 ) ) ;
#1224 = DIRECTION ( 'NONE',  ( -0.000000000000000000, -0.000000000000000000, 1.000000000000000000 ) ) ;
#1225 = EDGE_CURVE ( 'NONE', #1100, #931, #199, .T. ) ;
#1226 = ORIENTED_EDGE ( 'NONE', *, *, #663, .T. ) ;
#1227 = DIRECTION ( 'NONE',  ( -1.084202172485504434E-16, 1.000000000000000000, 0.000000000000000000 ) ) ;
#1228 = AXIS2_PLACEMENT_3D ( 'NONE', #11, #180, #1160 ) ;
#1229 = ORIENTED_EDGE ( 'NONE', *, *, #1107, .T. ) ;
#1230 = LINE ( 'NONE', #362, #1167 ) ;
#1231 = FACE_OUTER_BOUND ( 'NONE', #1202, .T. ) ;
#1232 = ORIENTED_EDGE ( 'NONE', *, *, #1242, .F. ) ;
#1233 = DIRECTION ( 'NONE',  ( 0.000000000000000000, -0.000000000000000000, 1.000000000000000000 ) ) ;
#1234 = EDGE_CURVE ( 'NONE', #756, #498, #779, .T. ) ;
#1235 = ORIENTED_EDGE ( 'NONE', *, *, #554, .T. ) ;
#1236 = CARTESIAN_POINT ( 'NONE',  ( -24.03333950160446264, -2.125049543716336989E-14, 30.00000000000000355 ) ) ;
#1237 = DIRECTION ( 'NONE',  ( 1.626303258728256651E-16, -1.000000000000000000, 0.000000000000000000 ) ) ;
#1238 = ORIENTED_EDGE ( 'NONE', *, *, #238, .T. ) ;
#1239 = FACE_OUTER_BOUND ( 'NONE', #1053, .T. ) ;
#1240 = ADVANCED_FACE ( 'NONE', ( #9 ), #1186, .F. ) ;
#1241 = VERTEX_POINT ( 'NONE', #706 ) ;
#1242 = EDGE_CURVE ( 'NONE', #912, #421, #1018, .T. ) ;
#1243 = DIRECTION ( 'NONE',  ( 1.000000000000000000, 0.000000000000000000, 0.000000000000000000 ) ) ;
#1244 = AXIS2_PLACEMENT_3D ( 'NONE', #167, #849, #1233 ) ;
#1245 = DIRECTION ( 'NONE',  ( 1.000000000000000000, 9.123502176980002264E-16, -1.942890293094029369E-16 ) ) ;
#1246 = VECTOR ( 'NONE', #1117, 1000.000000000000000 ) ;
#1247 = VERTEX_POINT ( 'NONE', #582 ) ;
#1248 = DIRECTION ( 'NONE',  ( 0.000000000000000000, 0.000000000000000000, 1.000000000000000000 ) ) ;
#1249 = ORIENTED_EDGE ( 'NONE', *, *, #814, .T. ) ;
#1250 = LINE ( 'NONE', #122, #960 ) ;
#1251 = AXIS2_PLACEMENT_3D ( 'NONE', #383, #1157, #585 ) ;
#1252 = LINE ( 'NONE', #776, #1209 ) ;
#1253 = DIRECTION ( 'NONE',  ( -1.000000000000000000, 0.000000000000000000, 0.000000000000000000 ) ) ;
#1254 = CARTESIAN_POINT ( 'NONE',  ( -1.751669750802235415, -11.00000000000000711, 37.00000000000000711 ) ) ;
#1255 = ORIENTED_EDGE ( 'NONE', *, *, #46, .F. ) ;
#1256 = EDGE_CURVE ( 'NONE', #1037, #223, #963, .T. ) ;
ENDSEC;
END-ISO-10303-21;
