ISO-10303-21;
HEADER;
FILE_DESCRIPTION (( 'STEP AP214' ),
    '1' );
FILE_NAME ('009_010_Spin_servo_mount_2.STEP',
    '2024-07-21T08:28:11',
    ( '' ),
    ( '' ),
    'SwSTEP 2.0',
    'SolidWorks 2019',
    '' );
FILE_SCHEMA (( 'AUTOMOTIVE_DESIGN' ));
ENDSEC;

DATA;
#1 = DIRECTION ( 'NONE',  ( 1.000000000000000000, 0.000000000000000000, 0.000000000000000000 ) ) ;
#2 = SURFACE_STYLE_USAGE ( .BOTH. , #814 ) ;
#3 = VECTOR ( 'NONE', #746, 1000.000000000000000 ) ;
#4 = AXIS2_PLACEMENT_3D ( 'NONE', #378, #1185, #388 ) ;
#5 = ORIENTED_EDGE ( 'NONE', *, *, #816, .F. ) ;
#6 = VECTOR ( 'NONE', #16, 1000.000000000000000 ) ;
#7 = VECTOR ( 'NONE', #434, 1000.000000000000000 ) ;
#8 = EDGE_CURVE ( 'NONE', #785, #60, #215, .T. ) ;
#9 = CARTESIAN_POINT ( 'NONE',  ( -10.05000000000870486, -4.500000000000000000, 25.00000000000000000 ) ) ;
#10 = DIRECTION ( 'NONE',  ( 0.7071067811865511255, 0.000000000000000000, 0.7071067811865440200 ) ) ;
#11 = LINE ( 'NONE', #97, #1261 ) ;
#12 = ORIENTED_EDGE ( 'NONE', *, *, #862, .F. ) ;
#13 = CARTESIAN_POINT ( 'NONE',  ( 10.04999999999437854, 4.500000000000000000, 31.00000000000248335 ) ) ;
#14 = CARTESIAN_POINT ( 'NONE',  ( 15.09999999999317488, -46.63999999999235513, 69.00000000000250111 ) ) ;
#15 = EDGE_CURVE ( 'NONE', #940, #251, #799, .T. ) ;
#16 = DIRECTION ( 'NONE',  ( -1.000000000000000000, -2.046973701650546574E-16, 0.000000000000000000 ) ) ;
#17 = APPLICATION_PROTOCOL_DEFINITION ( 'draft international standard', 'automotive_design', 1998, #1155 ) ;
#18 = ORIENTED_EDGE ( 'NONE', *, *, #177, .T. ) ;
#19 = ORIENTED_EDGE ( 'NONE', *, *, #193, .F. ) ;
#20 = CARTESIAN_POINT ( 'NONE',  ( 10.04999999999159677, -17.13999999999229473, 25.00000000000001421 ) ) ;
#21 = DIRECTION ( 'NONE',  ( -1.000000000000000000, 0.000000000000000000, 0.000000000000000000 ) ) ;
#22 = CARTESIAN_POINT ( 'NONE',  ( 9.049999999991598543, 0.000000000000000000, 26.00000000000000355 ) ) ;
#23 = ORIENTED_EDGE ( 'NONE', *, *, #326, .F. ) ;
#24 = VERTEX_POINT ( 'NONE', #737 ) ;
#25 = CIRCLE ( 'NONE', #648, 12.55000000000000249 ) ;
#26 = CARTESIAN_POINT ( 'NONE',  ( 15.09999999999287468, -32.13999999999213486, -1.110174064921426271E-12 ) ) ;
#27 = AXIS2_PLACEMENT_3D ( 'NONE', #122, #1275, #21 ) ;
#28 = CARTESIAN_POINT ( 'NONE',  ( 19.99999999999287326, -32.13999999999207802, -1.109573987989843966E-12 ) ) ;
#29 = VECTOR ( 'NONE', #1296, 1000.000000000000000 ) ;
#30 = DIRECTION ( 'NONE',  ( -1.000000000000000000, -7.711663511507749890E-14, -6.649773324577289842E-15 ) ) ;
#31 = ADVANCED_FACE ( 'NONE', ( #559 ), #964, .T. ) ;
#32 = ORIENTED_EDGE ( 'NONE', *, *, #607, .F. ) ;
#33 = EDGE_CURVE ( 'NONE', #1294, #1020, #464, .T. ) ;
#34 = ORIENTED_EDGE ( 'NONE', *, *, #134, .F. ) ;
#35 = CARTESIAN_POINT ( 'NONE',  ( -26.05000000000469385, -32.13999999999263224, 26.05000000000517701 ) ) ;
#36 = DIRECTION ( 'NONE',  ( 0.000000000000000000, 0.000000000000000000, -1.000000000000000000 ) ) ;
#37 = CARTESIAN_POINT ( 'NONE',  ( -15.10000000000727738, -17.13999999999244395, -8.246070472125021099E-15 ) ) ;
#38 = EDGE_LOOP ( 'NONE', ( #965, #987, #266, #915 ) ) ;
#39 = EDGE_LOOP ( 'NONE', ( #1131, #363, #256, #84 ) ) ;
#40 = DIRECTION ( 'NONE',  ( 0.000000000000000000, -0.000000000000000000, 1.000000000000000000 ) ) ;
#41 = EDGE_CURVE ( 'NONE', #1226, #1065, #1212, .T. ) ;
#42 = DIRECTION ( 'NONE',  ( 1.000000000000000000, 0.000000000000000000, 0.000000000000000000 ) ) ;
#43 = CARTESIAN_POINT ( 'NONE',  ( 15.09999999999287290, -17.13999999999234447, 66.00000000000260059 ) ) ;
#44 = ORIENTED_EDGE ( 'NONE', *, *, #927, .T. ) ;
#45 = EDGE_LOOP ( 'NONE', ( #749, #1324 ) ) ;
#46 = PLANE ( 'NONE',  #89 ) ;
#47 = VECTOR ( 'NONE', #629, 1000.000000000000000 ) ;
#48 = EDGE_CURVE ( 'NONE', #473, #273, #1077, .T. ) ;
#49 = DIRECTION ( 'NONE',  ( -0.000000000000000000, 3.221629312528145745E-15, -1.000000000000000000 ) ) ;
#50 = VECTOR ( 'NONE', #970, 1000.000000000000000 ) ;
#51 = VECTOR ( 'NONE', #302, 1000.000000000000000 ) ;
#52 = DIRECTION ( 'NONE',  ( 0.000000000000000000, 0.000000000000000000, 1.000000000000000000 ) ) ;
#53 = CARTESIAN_POINT ( 'NONE',  ( -9.050000000008701306, 4.499999999999997335, 31.00000000000194689 ) ) ;
#54 = ORIENTED_EDGE ( 'NONE', *, *, #141, .F. ) ;
#55 = CARTESIAN_POINT ( 'NONE',  ( 4.999999999999104716, -0.5000000000006457057, 9.000000000000000000 ) ) ;
#56 = CARTESIAN_POINT ( 'NONE',  ( 15.09999999999287468, -32.13999999999213486, -1.110174064921426271E-12 ) ) ;
#57 = CARTESIAN_POINT ( 'NONE',  ( -9.050000000008704859, -4.499999999999997335, 26.00000000000000355 ) ) ;
#58 = ADVANCED_FACE ( 'NONE', ( #475 ), #1089, .T. ) ;
#59 = DIRECTION ( 'NONE',  ( 0.000000000000000000, 0.000000000000000000, 1.000000000000000000 ) ) ;
#60 = VERTEX_POINT ( 'NONE', #362 ) ;
#61 = CARTESIAN_POINT ( 'NONE',  ( -10.05000000000870131, -42.62533892259644119, 0.000000000000000000 ) ) ;
#62 = ORIENTED_EDGE ( 'NONE', *, *, #1159, .T. ) ;
#63 = CARTESIAN_POINT ( 'NONE',  ( -20.00000000000712674, -32.13999999999249724, -2.610080727837568710E-13 ) ) ;
#64 = DIRECTION ( 'NONE',  ( -1.000000000000000000, 0.000000000000000000, -2.968879978786176490E-14 ) ) ;
#65 = ORIENTED_EDGE ( 'NONE', *, *, #872, .T. ) ;
#66 = DIRECTION ( 'NONE',  ( -1.000000000000000000, 0.000000000000000000, 0.000000000000000000 ) ) ;
#67 = AXIS2_PLACEMENT_3D ( 'NONE', #82, #1101, #64 ) ;
#68 = DIRECTION ( 'NONE',  ( -1.000000000000000000, 0.000000000000000000, 0.000000000000000000 ) ) ;
#69 = VECTOR ( 'NONE', #916, 1000.000000000000000 ) ;
#70 = AXIS2_PLACEMENT_3D ( 'NONE', #424, #517, #1235 ) ;
#71 = VECTOR ( 'NONE', #49, 1000.000000000000000 ) ;
#72 = ORIENTED_EDGE ( 'NONE', *, *, #857, .T. ) ;
#73 = EDGE_CURVE ( 'NONE', #1331, #1272, #790, .T. ) ;
#74 = CARTESIAN_POINT ( 'NONE',  ( 15.09999999999272013, -17.13999999999224855, 37.00000000000264322 ) ) ;
#75 = LINE ( 'NONE', #896, #50 ) ;
#76 = DIRECTION ( 'NONE',  ( 1.387778780781445676E-16, 0.000000000000000000, -1.000000000000000000 ) ) ;
#77 =( NAMED_UNIT ( * ) PLANE_ANGLE_UNIT ( ) SI_UNIT ( $, .RADIAN. ) );
#78 = ORIENTED_EDGE ( 'NONE', *, *, #959, .F. ) ;
#79 = DIRECTION ( 'NONE',  ( 0.000000000000000000, 0.000000000000000000, 1.000000000000000000 ) ) ;
#80 = ORIENTED_EDGE ( 'NONE', *, *, #385, .T. ) ;
#81 = CARTESIAN_POINT ( 'NONE',  ( -20.10000000000721698, -1.903271935980009306E-15, 32.00000000000260059 ) ) ;
#82 = CARTESIAN_POINT ( 'NONE',  ( 10.04999999999437854, -51.62187929912985140, 32.00000000000251532 ) ) ;
#83 = CARTESIAN_POINT ( 'NONE',  ( -15.10000000000712639, 4.499999999999613642, 37.00000000000264322 ) ) ;
#84 = ORIENTED_EDGE ( 'NONE', *, *, #1214, .F. ) ;
#85 = CARTESIAN_POINT ( 'NONE',  ( 10.04999999999159677, -42.62533892259644119, 26.00000000000000355 ) ) ;
#86 = EDGE_CURVE ( 'NONE', #674, #829, #697, .T. ) ;
#87 = ORIENTED_EDGE ( 'NONE', *, *, #666, .F. ) ;
#88 = PLANE ( 'NONE',  #130 ) ;
#89 = AXIS2_PLACEMENT_3D ( 'NONE', #961, #869, #1181 ) ;
#90 = LINE ( 'NONE', #1028, #843 ) ;
#91 =( NAMED_UNIT ( * ) PLANE_ANGLE_UNIT ( ) SI_UNIT ( $, .RADIAN. ) );
#92 = AXIS2_PLACEMENT_3D ( 'NONE', #537, #117, #1043 ) ;
#93 = ORIENTED_EDGE ( 'NONE', *, *, #986, .T. ) ;
#94 = COLOUR_RGB ( '',1.000000000000000000, 1.000000000000000000, 0.000000000000000000 ) ;
#95 = EDGE_LOOP ( 'NONE', ( #995, #445, #919, #780 ) ) ;
#96 = CARTESIAN_POINT ( 'NONE',  ( 15.09999999999286047, -7.139999999992291180, 37.00000000000264322 ) ) ;
#97 = CARTESIAN_POINT ( 'NONE',  ( -10.05000000000562999, 4.500000000000000000, 32.00000000000191847 ) ) ;
#98 = EDGE_CURVE ( 'NONE', #969, #457, #272, .T. ) ;
#99 = ORIENTED_EDGE ( 'NONE', *, *, #41, .T. ) ;
#100 =( LENGTH_UNIT ( ) NAMED_UNIT ( * ) SI_UNIT ( .MILLI., .METRE. ) );
#101 = LINE ( 'NONE', #1027, #652 ) ;
#102 = CARTESIAN_POINT ( 'NONE',  ( 0.000000000000000000, -31.88999999999266066, 61.15025253169725516 ) ) ;
#103 = EDGE_CURVE ( 'NONE', #188, #834, #1108, .T. ) ;
#104 = EDGE_LOOP ( 'NONE', ( #1197, #549, #1252, #136 ) ) ;
#105 = CARTESIAN_POINT ( 'NONE',  ( 15.09999999999287290, -17.13999999999234447, 66.00000000000260059 ) ) ;
#106 = DIRECTION ( 'NONE',  ( -1.000000000000000000, -2.046973701650546574E-16, 1.186005436325725039E-47 ) ) ;
#107 = EDGE_LOOP ( 'NONE', ( #93, #960 ) ) ;
#108 = CIRCLE ( 'NONE', #92, 2.750000000000000000 ) ;
#109 = CIRCLE ( 'NONE', #310, 9.549999999999998934 ) ;
#110 = LINE ( 'NONE', #26, #1165 ) ;
#111 = ADVANCED_FACE ( 'NONE', ( #1307 ), #784, .F. ) ;
#112 = CARTESIAN_POINT ( 'NONE',  ( -5.000000000000895284, -0.5000000000007429612, 9.000000000000000000 ) ) ;
#113 = DIRECTION ( 'NONE',  ( 2.478176394251903707E-16, 0.000000000000000000, -1.000000000000000000 ) ) ;
#114 = EDGE_LOOP ( 'NONE', ( #471, #685 ) ) ;
#115 = VERTEX_POINT ( 'NONE', #985 ) ;
#116 = CARTESIAN_POINT ( 'NONE',  ( 7.749999999999104716, -0.5000000000006454837, 9.000000000000000000 ) ) ;
#117 = DIRECTION ( 'NONE',  ( 0.000000000000000000, 0.000000000000000000, -1.000000000000000000 ) ) ;
#118 = CARTESIAN_POINT ( 'NONE',  ( -15.10000000000712639, 4.499999999999613642, 37.00000000000264322 ) ) ;
#119 = EDGE_LOOP ( 'NONE', ( #1070, #72, #452, #619 ) ) ;
#120 = EDGE_LOOP ( 'NONE', ( #585, #1142, #422, #989, #565, #447, #729, #1150, #914, #383, #631, #1259 ) ) ;
#121 = DIRECTION ( 'NONE',  ( -0.000000000000000000, -0.000000000000000000, -1.000000000000000000 ) ) ;
#122 = CARTESIAN_POINT ( 'NONE',  ( -5.000000000000895284, -0.5000000000007429612, 9.000000000000000000 ) ) ;
#123 = EDGE_CURVE ( 'NONE', #739, #390, #496, .T. ) ;
#124 = PLANE ( 'NONE',  #1238 ) ;
#125 = EDGE_CURVE ( 'NONE', #1141, #465, #925, .T. ) ;
#126 = ORIENTED_EDGE ( 'NONE', *, *, #530, .F. ) ;
#127 = ORIENTED_EDGE ( 'NONE', *, *, #187, .T. ) ;
#128 = VECTOR ( 'NONE', #1246, 1000.000000000000000 ) ;
#129 = CARTESIAN_POINT ( 'NONE',  ( 15.09999999999287112, 4.500000000000000000, 37.00000000000264322 ) ) ;
#130 = AXIS2_PLACEMENT_3D ( 'NONE', #195, #804, #503 ) ;
#131 = FACE_OUTER_BOUND ( 'NONE', #553, .T. ) ;
#132 = AXIS2_PLACEMENT_3D ( 'NONE', #1190, #169, #1085 ) ;
#133 = DIRECTION ( 'NONE',  ( 0.000000000000000000, 1.000000000000000000, -0.000000000000000000 ) ) ;
#134 = EDGE_CURVE ( 'NONE', #1278, #1017, #1193, .T. ) ;
#135 = ORIENTED_EDGE ( 'NONE', *, *, #177, .F. ) ;
#136 = ORIENTED_EDGE ( 'NONE', *, *, #913, .F. ) ;
#137 = DIRECTION ( 'NONE',  ( 0.000000000000000000, 0.000000000000000000, 1.000000000000000000 ) ) ;
#138 = CARTESIAN_POINT ( 'NONE',  ( 15.09999999999287468, -32.13999999999224855, 37.00000000000264322 ) ) ;
#139 = CARTESIAN_POINT ( 'NONE',  ( 19.99999999999139888, 1.542297601672932631E-12, 1.330143062892034512E-13 ) ) ;
#140 = VERTEX_POINT ( 'NONE', #1195 ) ;
#141 = EDGE_CURVE ( 'NONE', #773, #834, #999, .T. ) ;
#142 = EDGE_LOOP ( 'NONE', ( #168, #1010, #890, #19 ) ) ;
#143 = DIRECTION ( 'NONE',  ( 8.016282236494658369E-17, -1.000000000000000000, 0.000000000000000000 ) ) ;
#144 = LINE ( 'NONE', #61, #174 ) ;
#145 = ORIENTED_EDGE ( 'NONE', *, *, #1244, .T. ) ;
#146 = DIRECTION ( 'NONE',  ( 0.000000000000000000, 0.000000000000000000, -1.000000000000000000 ) ) ;
#147 = VERTEX_POINT ( 'NONE', #489 ) ;
#148 = ORIENTED_EDGE ( 'NONE', *, *, #226, .F. ) ;
#149 = DIRECTION ( 'NONE',  ( 1.000000000000000000, 9.912705577010322197E-15, 0.000000000000000000 ) ) ;
#150 = AXIS2_PLACEMENT_3D ( 'NONE', #102, #318, #1 ) ;
#151 = ADVANCED_FACE ( 'NONE', ( #778 ), #897, .T. ) ;
#152 = LINE ( 'NONE', #571, #71 ) ;
#153 = CIRCLE ( 'NONE', #1079, 1.000000000000000888 ) ;
#154 = ORIENTED_EDGE ( 'NONE', *, *, #1024, .T. ) ;
#155 = CARTESIAN_POINT ( 'NONE',  ( 0.000000000000000000, 0.000000000000000000, 69.00000000000260059 ) ) ;
#156 = ORIENTED_EDGE ( 'NONE', *, *, #887, .T. ) ;
#157 = CARTESIAN_POINT ( 'NONE',  ( -9.050000000008701306, -17.13999999999230184, 31.00000000000194689 ) ) ;
#158 = EDGE_CURVE ( 'NONE', #390, #370, #606, .T. ) ;
#159 = ORIENTED_EDGE ( 'NONE', *, *, #1057, .F. ) ;
#160 = PLANE ( 'NONE',  #865 ) ;
#161 = DIRECTION ( 'NONE',  ( -1.025221574302293624E-14, 1.000000000000000000, 3.222349726206034258E-15 ) ) ;
#162 = ORIENTED_EDGE ( 'NONE', *, *, #959, .T. ) ;
#163 = CARTESIAN_POINT ( 'NONE',  ( -15.10000000000712994, 4.500000000000000000, 37.00000000000265032 ) ) ;
#164 = ORIENTED_EDGE ( 'NONE', *, *, #252, .T. ) ;
#165 = DIRECTION ( 'NONE',  ( 0.000000000000000000, 1.000000000000000000, 0.000000000000000000 ) ) ;
#166 = CARTESIAN_POINT ( 'NONE',  ( 9.049999999991598543, 4.499999999999997335, 31.00000000000248335 ) ) ;
#167 = EDGE_CURVE ( 'NONE', #1207, #403, #1005, .T. ) ;
#168 = ORIENTED_EDGE ( 'NONE', *, *, #745, .T. ) ;
#169 = DIRECTION ( 'NONE',  ( -0.000000000000000000, -0.000000000000000000, -1.000000000000000000 ) ) ;
#170 = AXIS2_PLACEMENT_3D ( 'NONE', #1287, #1000, #1109 ) ;
#171 = AXIS2_PLACEMENT_3D ( 'NONE', #293, #425, #1120 ) ;
#172 = DIRECTION ( 'NONE',  ( 0.000000000000000000, -0.000000000000000000, 1.000000000000000000 ) ) ;
#173 = VECTOR ( 'NONE', #771, 1000.000000000000000 ) ;
#174 = VECTOR ( 'NONE', #462, 1000.000000000000000 ) ;
#175 = DIRECTION ( 'NONE',  ( 0.000000000000000000, -0.000000000000000000, 1.000000000000000000 ) ) ;
#176 = CARTESIAN_POINT ( 'NONE',  ( -7.534771417905261615E-12, -14.64000000000141632, 69.00000000000260059 ) ) ;
#177 = EDGE_CURVE ( 'NONE', #1065, #785, #265, .T. ) ;
#178 = ORIENTED_EDGE ( 'NONE', *, *, #123, .F. ) ;
#179 = CARTESIAN_POINT ( 'NONE',  ( -9.050000000008731504, -17.13999999999230539, 32.00000000000194689 ) ) ;
#180 = VERTEX_POINT ( 'NONE', #512 ) ;
#181 = CARTESIAN_POINT ( 'NONE',  ( 9.549999999992463628, -14.64000000000141455, 74.00000000000260059 ) ) ;
#182 = DIRECTION ( 'NONE',  ( 1.000000000000000000, 0.000000000000000000, 0.000000000000000000 ) ) ;
#183 = DIRECTION ( 'NONE',  ( 1.000000000000000000, 0.000000000000000000, 0.000000000000000000 ) ) ;
#184 = VERTEX_POINT ( 'NONE', #727 ) ;
#185 = EDGE_CURVE ( 'NONE', #953, #184, #1228, .T. ) ;
#186 = CARTESIAN_POINT ( 'NONE',  ( -7.534771417905261615E-12, -14.64000000000141632, 74.00000000000260059 ) ) ;
#187 = EDGE_CURVE ( 'NONE', #1106, #785, #90, .T. ) ;
#188 = VERTEX_POINT ( 'NONE', #604 ) ;
#189 = CARTESIAN_POINT ( 'NONE',  ( 9.049999999991598543, -42.62533892259644119, 31.00000000000248335 ) ) ;
#190 = DIRECTION ( 'NONE',  ( -4.555552027409469771E-32, 4.811009610343194060E-16, -1.000000000000000000 ) ) ;
#191 =( NAMED_UNIT ( * ) SI_UNIT ( $, .STERADIAN. ) SOLID_ANGLE_UNIT ( ) );
#192 = EDGE_LOOP ( 'NONE', ( #159, #770, #1289, #1039, #409, #541, #861, #1122 ) ) ;
#193 = EDGE_CURVE ( 'NONE', #776, #115, #833, .T. ) ;
#194 = VERTEX_POINT ( 'NONE', #507 ) ;
#195 = CARTESIAN_POINT ( 'NONE',  ( -9.499999999999998224, 4.500000000000000000, 25.00000000000000000 ) ) ;
#196 = CIRCLE ( 'NONE', #1240, 1.749999999999807265 ) ;
#197 = CARTESIAN_POINT ( 'NONE',  ( 10.04999999999159677, -17.13999999999229829, 31.00000000000248335 ) ) ;
#198 = VECTOR ( 'NONE', #936, 1000.000000000000000 ) ;
#199 = ORIENTED_EDGE ( 'NONE', *, *, #927, .F. ) ;
#200 = VECTOR ( 'NONE', #1105, 1000.000000000000000 ) ;
#201 = CARTESIAN_POINT ( 'NONE',  ( 20.09999999999316955, -32.13999999999218460, 32.00000000000239453 ) ) ;
#202 = DIRECTION ( 'NONE',  ( -0.000000000000000000, 1.000000000000000000, 0.000000000000000000 ) ) ;
#203 = EDGE_CURVE ( 'NONE', #1230, #945, #820, .T. ) ;
#204 = LINE ( 'NONE', #518, #305 ) ;
#205 = ORIENTED_EDGE ( 'NONE', *, *, #48, .T. ) ;
#206 =( NAMED_UNIT ( * ) SI_UNIT ( $, .STERADIAN. ) SOLID_ANGLE_UNIT ( ) );
#207 = CYLINDRICAL_SURFACE ( 'NONE', #328, 1.000000000000000888 ) ;
#208 = DIRECTION ( 'NONE',  ( 1.000000000000000000, 0.000000000000000000, 0.000000000000000000 ) ) ;
#209 = EDGE_CURVE ( 'NONE', #794, #1003, #612, .T. ) ;
#210 = ORIENTED_EDGE ( 'NONE', *, *, #380, .T. ) ;
#211 = CARTESIAN_POINT ( 'NONE',  ( 9.049999999991568345, -17.13999999999230184, 32.00000000000248690 ) ) ;
#212 = DIRECTION ( 'NONE',  ( -0.000000000000000000, -0.000000000000000000, -1.000000000000000000 ) ) ;
#213 = CARTESIAN_POINT ( 'NONE',  ( -2.250000000000895284, -0.5000000000007426282, 0.000000000000000000 ) ) ;
#214 = AXIS2_PLACEMENT_3D ( 'NONE', #668, #1223, #183 ) ;
#215 = CIRCLE ( 'NONE', #524, 1.000000000000000888 ) ;
#216 = ORIENTED_EDGE ( 'NONE', *, *, #470, .T. ) ;
#217 = VECTOR ( 'NONE', #880, 1000.000000000000000 ) ;
#218 = ORIENTED_EDGE ( 'NONE', *, *, #579, .F. ) ;
#219 = CARTESIAN_POINT ( 'NONE',  ( 10.06243012396666714, -7.139999999992311608, 16.25120485427522610 ) ) ;
#220 = CARTESIAN_POINT ( 'NONE',  ( 9.049999999991598543, -4.500000000000000000, 25.00000000000000000 ) ) ;
#221 = CARTESIAN_POINT ( 'NONE',  ( 0.000000000000000000, -31.88999999999266066, 69.00000000000260059 ) ) ;
#222 = VERTEX_POINT ( 'NONE', #213 ) ;
#223 = VERTEX_POINT ( 'NONE', #197 ) ;
#224 = ADVANCED_FACE ( 'NONE', ( #1236 ), #1019, .T. ) ;
#225 = FACE_OUTER_BOUND ( 'NONE', #854, .T. ) ;
#226 = EDGE_CURVE ( 'NONE', #1191, #1272, #923, .T. ) ;
#227 = LINE ( 'NONE', #956, #1194 ) ;
#228 = DIRECTION ( 'NONE',  ( 1.000000000000000000, 0.000000000000000000, 0.000000000000000000 ) ) ;
#229 = ORIENTED_EDGE ( 'NONE', *, *, #1186, .T. ) ;
#230 = EDGE_LOOP ( 'NONE', ( #1338, #1277 ) ) ;
#231 = FACE_OUTER_BOUND ( 'NONE', #910, .T. ) ;
#232 = CARTESIAN_POINT ( 'NONE',  ( -20.00000000000712674, -32.13999999999249724, -2.610080727837568710E-13 ) ) ;
#233 = EDGE_CURVE ( 'NONE', #1013, #1052, #723, .T. ) ;
#234 = CARTESIAN_POINT ( 'NONE',  ( 12.54999999999246718, -14.64000000000141455, 69.00000000000260059 ) ) ;
#235 = ORIENTED_EDGE ( 'NONE', *, *, #872, .F. ) ;
#236 = VECTOR ( 'NONE', #992, 1000.000000000000000 ) ;
#237 = ORIENTED_EDGE ( 'NONE', *, *, #1274, .F. ) ;
#238 = AXIS2_PLACEMENT_3D ( 'NONE', #1346, #1325, #415 ) ;
#239 = LINE ( 'NONE', #35, #1326 ) ;
#240 = AXIS2_PLACEMENT_3D ( 'NONE', #542, #1164, #442 ) ;
#241 = CARTESIAN_POINT ( 'NONE',  ( 10.04999999999437321, -17.13999999999230184, 32.00000000000251532 ) ) ;
#242 = VECTOR ( 'NONE', #955, 1000.000000000000000 ) ;
#243 = DIRECTION ( 'NONE',  ( -7.711663511507759987E-14, 1.000000000000000000, 0.000000000000000000 ) ) ;
#244 = ADVANCED_FACE ( 'NONE', ( #1336 ), #306, .F. ) ;
#245 = ORIENTED_EDGE ( 'NONE', *, *, #438, .F. ) ;
#246 = ORIENTED_EDGE ( 'NONE', *, *, #649, .T. ) ;
#247 = CARTESIAN_POINT ( 'NONE',  ( 19.99999999999105427, 4.500000000000385469, 3.326770642060022160E-14 ) ) ;
#248 = FACE_OUTER_BOUND ( 'NONE', #120, .T. ) ;
#249 = ORIENTED_EDGE ( 'NONE', *, *, #884, .T. ) ;
#250 = DIRECTION ( 'NONE',  ( -1.000000000000000000, 0.000000000000000000, -1.387778780781445922E-16 ) ) ;
#251 = VERTEX_POINT ( 'NONE', #718 ) ;
#252 = EDGE_CURVE ( 'NONE', #1343, #1116, #932, .T. ) ;
#253 = ORIENTED_EDGE ( 'NONE', *, *, #1170, .T. ) ;
#254 = CARTESIAN_POINT ( 'NONE',  ( 3.236870097352244313E-13, -32.13999999999227697, -1.035539723097969384E-13 ) ) ;
#255 = DIRECTION ( 'NONE',  ( -7.434529182755078059E-16, 0.000000000000000000, 1.000000000000000000 ) ) ;
#256 = ORIENTED_EDGE ( 'NONE', *, *, #185, .T. ) ;
#257 = DIRECTION ( 'NONE',  ( 0.000000000000000000, 0.000000000000000000, -1.000000000000000000 ) ) ;
#258 = DIRECTION ( 'NONE',  ( -0.000000000000000000, -0.000000000000000000, -1.000000000000000000 ) ) ;
#259 = ORIENTED_EDGE ( 'NONE', *, *, #1233, .T. ) ;
#260 = VECTOR ( 'NONE', #190, 1000.000000000000000 ) ;
#261 = DIRECTION ( 'NONE',  ( -7.711663511507794066E-14, 1.000000000000000000, 5.057793200174423840E-14 ) ) ;
#262 = VECTOR ( 'NONE', #323, 1000.000000000000000 ) ;
#263 = CIRCLE ( 'NONE', #1016, 12.55000000000000249 ) ;
#264 = DIRECTION ( 'NONE',  ( -9.469014606862200900E-17, 1.000000000000000000, 0.000000000000000000 ) ) ;
#265 = LINE ( 'NONE', #878, #480 ) ;
#266 = ORIENTED_EDGE ( 'NONE', *, *, #209, .T. ) ;
#267 = ADVANCED_FACE ( 'NONE', ( #1222 ), #405, .F. ) ;
#268 = CARTESIAN_POINT ( 'NONE',  ( -3.294700853571020087E-30, -31.88999999999266066, 66.00000000000255795 ) ) ;
#269 = EDGE_CURVE ( 'NONE', #60, #1045, #11, .T. ) ;
#270 = ORIENTED_EDGE ( 'NONE', *, *, #468, .F. ) ;
#271 = DIRECTION ( 'NONE',  ( -0.000000000000000000, -0.000000000000000000, -1.000000000000000000 ) ) ;
#272 = LINE ( 'NONE', #1206, #372 ) ;
#273 = VERTEX_POINT ( 'NONE', #1130 ) ;
#274 = DIRECTION ( 'NONE',  ( 0.000000000000000000, 1.000000000000000000, 0.000000000000000000 ) ) ;
#275 = PLANE ( 'NONE',  #972 ) ;
#276 = EDGE_CURVE ( 'NONE', #1163, #850, #533, .T. ) ;
#277 = DIRECTION ( 'NONE',  ( 0.000000000000000000, -1.000000000000000000, 0.000000000000000000 ) ) ;
#278 = ORIENTED_EDGE ( 'NONE', *, *, #857, .F. ) ;
#279 = LINE ( 'NONE', #693, #200 ) ;
#280 = AXIS2_PLACEMENT_3D ( 'NONE', #1320, #1213, #672 ) ;
#281 = ORIENTED_EDGE ( 'NONE', *, *, #158, .T. ) ;
#282 = LINE ( 'NONE', #696, #1167 ) ;
#283 = VECTOR ( 'NONE', #1153, 1000.000000000000000 ) ;
#284 = CIRCLE ( 'NONE', #736, 1.749999999999807265 ) ;
#285 = EDGE_CURVE ( 'NONE', #1331, #663, #204, .T. ) ;
#286 = DIRECTION ( 'NONE',  ( 1.000000000000000000, 0.000000000000000000, 0.000000000000000000 ) ) ;
#287 = CARTESIAN_POINT ( 'NONE',  ( 2.222274187036564422E-27, -2.173473385418203305E-13, 66.00000000000265743 ) ) ;
#288 = AXIS2_PLACEMENT_3D ( 'NONE', #55, #774, #1329 ) ;
#289 = ORIENTED_EDGE ( 'NONE', *, *, #438, .T. ) ;
#290 = DIRECTION ( 'NONE',  ( 0.000000000000000000, 0.000000000000000000, 1.000000000000000000 ) ) ;
#291 = ORIENTED_EDGE ( 'NONE', *, *, #8, .F. ) ;
#292 = LINE ( 'NONE', #105, #886 ) ;
#293 = CARTESIAN_POINT ( 'NONE',  ( 15.09999999999287468, -32.13999999999213486, -1.110174064921426271E-12 ) ) ;
#294 = FACE_BOUND ( 'NONE', #355, .T. ) ;
#295 = ORIENTED_EDGE ( 'NONE', *, *, #1042, .T. ) ;
#296 = EDGE_CURVE ( 'NONE', #1183, #1045, #616, .T. ) ;
#297 = SURFACE_STYLE_USAGE ( .BOTH. , #1219 ) ;
#298 = ORIENTED_EDGE ( 'NONE', *, *, #634, .T. ) ;
#299 = CARTESIAN_POINT ( 'NONE',  ( -15.10000000000712284, -32.13999999999255408, 37.00000000000264322 ) ) ;
#300 = CARTESIAN_POINT ( 'NONE',  ( -10.05000000000870486, -42.62533892259644119, 26.00000000000000355 ) ) ;
#301 = ORIENTED_EDGE ( 'NONE', *, *, #193, .T. ) ;
#302 = DIRECTION ( 'NONE',  ( -1.000000000000000000, -2.046973701650546574E-16, 0.000000000000000000 ) ) ;
#303 = ORIENTED_EDGE ( 'NONE', *, *, #1344, .T. ) ;
#304 = CARTESIAN_POINT ( 'NONE',  ( 15.09999999999317488, -46.63999999999235513, 69.00000000000250111 ) ) ;
#305 = VECTOR ( 'NONE', #1328, 1000.000000000000000 ) ;
#306 = PLANE ( 'NONE',  #171 ) ;
#307 = PRESENTATION_STYLE_ASSIGNMENT (( #2 ) ) ;
#308 = AXIS2_PLACEMENT_3D ( 'NONE', #589, #271, #1205 ) ;
#309 = ORIENTED_EDGE ( 'NONE', *, *, #745, .F. ) ;
#310 = AXIS2_PLACEMENT_3D ( 'NONE', #810, #79, #701 ) ;
#311 = CARTESIAN_POINT ( 'NONE',  ( -15.10000000000712284, -32.13999999999244039, -5.658131636521553812E-14 ) ) ;
#312 = CARTESIAN_POINT ( 'NONE',  ( -10.05000000000870486, -42.62533892259644119, 31.00000000000194689 ) ) ;
#313 = EDGE_CURVE ( 'NONE', #1207, #724, #709, .T. ) ;
#314 = DIRECTION ( 'NONE',  ( -2.046973701650546820E-16, 1.000000000000000000, 4.776315140823657918E-16 ) ) ;
#315 = ORIENTED_EDGE ( 'NONE', *, *, #538, .T. ) ;
#316 = CARTESIAN_POINT ( 'NONE',  ( -12.55000000000753779, -14.64000000000141632, 69.00000000000260059 ) ) ;
#317 = LINE ( 'NONE', #726, #1033 ) ;
#318 = DIRECTION ( 'NONE',  ( -0.000000000000000000, -0.000000000000000000, 1.000000000000000000 ) ) ;
#319 = EDGE_CURVE ( 'NONE', #605, #1278, #420, .T. ) ;
#320 = ORIENTED_EDGE ( 'NONE', *, *, #468, .T. ) ;
#321 = CARTESIAN_POINT ( 'NONE',  ( -15.10000000000682263, -46.63999999999266066, 69.00000000000250111 ) ) ;
#322 = PLANE ( 'NONE',  #781 ) ;
#323 = DIRECTION ( 'NONE',  ( -1.084202172485506036E-16, 4.811009610343194060E-16, -1.000000000000000000 ) ) ;
#324 = CIRCLE ( 'NONE', #1237, 9.549999999999998934 ) ;
#325 = VECTOR ( 'NONE', #208, 1000.000000000000000 ) ;
#326 = EDGE_CURVE ( 'NONE', #432, #724, #1154, .T. ) ;
#327 = VERTEX_POINT ( 'NONE', #859 ) ;
#328 = AXIS2_PLACEMENT_3D ( 'NONE', #189, #202, #1245 ) ;
#329 = EDGE_CURVE ( 'NONE', #855, #1163, #539, .T. ) ;
#330 = VECTOR ( 'NONE', #344, 1000.000000000000000 ) ;
#331 = ORIENTED_EDGE ( 'NONE', *, *, #8, .T. ) ;
#332 = DIRECTION ( 'NONE',  ( -0.000000000000000000, 1.000000000000000000, 0.000000000000000000 ) ) ;
#333 = CARTESIAN_POINT ( 'NONE',  ( -5.000000000000895284, -0.5000000000007429612, 9.000000000000000000 ) ) ;
#334 = DIRECTION ( 'NONE',  ( 0.000000000000000000, 0.000000000000000000, 1.000000000000000000 ) ) ;
#335 = DIRECTION ( 'NONE',  ( 0.000000000000000000, -1.000000000000000000, 0.000000000000000000 ) ) ;
#336 = ORIENTED_EDGE ( 'NONE', *, *, #185, .F. ) ;
#337 = LINE ( 'NONE', #531, #351 ) ;
#338 = EDGE_CURVE ( 'NONE', #1343, #739, #25, .T. ) ;
#339 = DIRECTION ( 'NONE',  ( 0.000000000000000000, -1.000000000000000000, 0.000000000000000000 ) ) ;
#340 = FACE_OUTER_BOUND ( 'NONE', #575, .T. ) ;
#341 = ORIENTED_EDGE ( 'NONE', *, *, #1057, .T. ) ;
#342 = EDGE_LOOP ( 'NONE', ( #1202, #1273, #1074, #1082 ) ) ;
#343 = DIRECTION ( 'NONE',  ( -1.000000000000000000, 0.000000000000000000, 0.000000000000000000 ) ) ;
#344 = DIRECTION ( 'NONE',  ( 1.000000000000000000, 9.912705577010322197E-15, 4.171974620786556745E-14 ) ) ;
#345 = CARTESIAN_POINT ( 'NONE',  ( 10.06243012396666714, -7.139999999992311608, 69.00000000000260059 ) ) ;
#346 = EDGE_LOOP ( 'NONE', ( #18, #331, #1179, #349, #1220, #1113, #162, #99 ) ) ;
#347 = STYLED_ITEM ( 'NONE', ( #307 ), #1254 ) ;
#348 = VECTOR ( 'NONE', #353, 1000.000000000000000 ) ;
#349 = ORIENTED_EDGE ( 'NONE', *, *, #805, .T. ) ;
#350 = VECTOR ( 'NONE', #609, 1000.000000000000000 ) ;
#351 = VECTOR ( 'NONE', #740, 1000.000000000000000 ) ;
#352 = FACE_OUTER_BOUND ( 'NONE', #107, .T. ) ;
#353 = DIRECTION ( 'NONE',  ( -0.000000000000000000, -0.000000000000000000, -1.000000000000000000 ) ) ;
#354 = EDGE_CURVE ( 'NONE', #327, #491, #196, .T. ) ;
#355 = EDGE_LOOP ( 'NONE', ( #509, #1239 ) ) ;
#356 = ORIENTED_EDGE ( 'NONE', *, *, #285, .T. ) ;
#357 = CARTESIAN_POINT ( 'NONE',  ( 0.000000000000000000, 0.000000000000000000, 69.00000000000260059 ) ) ;
#358 = DIRECTION ( 'NONE',  ( -2.046973701650546574E-16, 1.000000000000000000, 4.811009610343194060E-16 ) ) ;
#359 = ORIENTED_EDGE ( 'NONE', *, *, #666, .T. ) ;
#360 = DIRECTION ( 'NONE',  ( -1.000000000000000000, 0.000000000000000000, 0.000000000000000000 ) ) ;
#361 = EDGE_CURVE ( 'NONE', #873, #834, #764, .T. ) ;
#362 = CARTESIAN_POINT ( 'NONE',  ( -10.05000000000562999, 4.500000000000000000, 31.00000000000194689 ) ) ;
#363 = ORIENTED_EDGE ( 'NONE', *, *, #816, .T. ) ;
#364 = FACE_OUTER_BOUND ( 'NONE', #38, .T. ) ;
#365 = CARTESIAN_POINT ( 'NONE',  ( -10.05000000000870131, -4.500000000000000000, 0.000000000000000000 ) ) ;
#366 = EDGE_LOOP ( 'NONE', ( #560, #654, #393, #1087, #148, #1187, #65, #973, #315, #982, #12, #336 ) ) ;
#367 = FACE_OUTER_BOUND ( 'NONE', #114, .T. ) ;
#368 = CARTESIAN_POINT ( 'NONE',  ( 10.04999999999159677, -4.500000000000000000, 25.00000000000000000 ) ) ;
#369 = ADVANCED_FACE ( 'NONE', ( #340 ), #124, .F. ) ;
#370 = VERTEX_POINT ( 'NONE', #345 ) ;
#371 = ADVANCED_FACE ( 'NONE', ( #636 ), #845, .T. ) ;
#372 = VECTOR ( 'NONE', #580, 1000.000000000000000 ) ;
#373 = DIRECTION ( 'NONE',  ( 0.000000000000000000, 0.000000000000000000, 1.000000000000000000 ) ) ;
#374 = AXIS2_PLACEMENT_3D ( 'NONE', #436, #1265, #963 ) ;
#375 = ORIENTED_EDGE ( 'NONE', *, *, #98, .T. ) ;
#376 = VECTOR ( 'NONE', #121, 1000.000000000000000 ) ;
#377 = LINE ( 'NONE', #882, #482 ) ;
#378 = CARTESIAN_POINT ( 'NONE',  ( -7.534771417905261615E-12, -14.64000000000141632, 37.00000000000264322 ) ) ;
#379 = ORIENTED_EDGE ( 'NONE', *, *, #634, .F. ) ;
#380 = EDGE_CURVE ( 'NONE', #194, #885, #1099, .T. ) ;
#381 = DIRECTION ( 'NONE',  ( -1.000000000000000000, -2.046973701650546574E-16, -3.898549099547496302E-29 ) ) ;
#382 = DIRECTION ( 'NONE',  ( 0.000000000000000000, 0.000000000000000000, 1.000000000000000000 ) ) ;
#383 = ORIENTED_EDGE ( 'NONE', *, *, #73, .F. ) ;
#384 = LINE ( 'NONE', #1002, #630 ) ;
#385 = EDGE_CURVE ( 'NONE', #1272, #724, #1056, .T. ) ;
#386 = ORIENTED_EDGE ( 'NONE', *, *, #233, .T. ) ;
#387 = DIRECTION ( 'NONE',  ( 1.936656130602091040E-16, 4.776315140823657918E-16, -1.000000000000000000 ) ) ;
#388 = DIRECTION ( 'NONE',  ( -1.000000000000000000, 0.000000000000000000, 0.000000000000000000 ) ) ;
#389 = PLANE ( 'NONE',  #842 ) ;
#390 = VERTEX_POINT ( 'NONE', #234 ) ;
#391 = CARTESIAN_POINT ( 'NONE',  ( 15.09999999999287468, -7.139999999992305391, 69.00000000000260059 ) ) ;
#392 = AXIS2_PLACEMENT_3D ( 'NONE', #866, #1149, #1069 ) ;
#393 = ORIENTED_EDGE ( 'NONE', *, *, #313, .T. ) ;
#394 = DIRECTION ( 'NONE',  ( 0.000000000000000000, 0.000000000000000000, -1.000000000000000000 ) ) ;
#395 = AXIS2_PLACEMENT_3D ( 'NONE', #81, #1335, #1341 ) ;
#396 = VECTOR ( 'NONE', #836, 1000.000000000000000 ) ;
#397 = DIRECTION ( 'NONE',  ( -0.000000000000000000, 3.221629312528080664E-15, -1.000000000000000000 ) ) ;
#398 = ADVANCED_FACE ( 'NONE', ( #558 ), #647, .F. ) ;
#399 = DIRECTION ( 'NONE',  ( -3.366972598925940337E-29, 3.293034395074616957E-15, -1.000000000000000000 ) ) ;
#400 = EDGE_LOOP ( 'NONE', ( #303, #632 ) ) ;
#401 = PRODUCT_DEFINITION_CONTEXT ( 'detailed design', #1155, 'design' ) ;
#402 = DIRECTION ( 'NONE',  ( 1.025221574302293624E-14, -1.000000000000000000, 0.000000000000000000 ) ) ;
#403 = VERTEX_POINT ( 'NONE', #43 ) ;
#404 = CARTESIAN_POINT ( 'NONE',  ( -15.10000000000682263, -46.63999999999265356, 66.00000000000250111 ) ) ;
#405 = CYLINDRICAL_SURFACE ( 'NONE', #150, 1.749999999999806155 ) ;
#406 = ADVANCED_FACE ( 'NONE', ( #943 ), #754, .F. ) ;
#407 = ORIENTED_EDGE ( 'NONE', *, *, #808, .T. ) ;
#408 = CARTESIAN_POINT ( 'NONE',  ( 15.09999999999286402, -7.139999999992305391, 69.00000000000260059 ) ) ;
#409 = ORIENTED_EDGE ( 'NONE', *, *, #1178, .T. ) ;
#410 = CARTESIAN_POINT ( 'NONE',  ( -7.750000000000895284, -0.5000000000007429612, 9.000000000000000000 ) ) ;
#411 = CARTESIAN_POINT ( 'NONE',  ( 15.09999999999317488, -46.63999999999234092, 66.00000000000250111 ) ) ;
#412 = ORIENTED_EDGE ( 'NONE', *, *, #354, .F. ) ;
#413 = DIRECTION ( 'NONE',  ( -0.000000000000000000, -0.000000000000000000, -1.000000000000000000 ) ) ;
#414 = ADVANCED_FACE ( 'NONE', ( #552 ), #1169, .T. ) ;
#415 = DIRECTION ( 'NONE',  ( 1.000000000000000000, 0.000000000000000000, 0.000000000000000000 ) ) ;
#416 = PRODUCT ( '009_010_Spin_servo_mount_2', '009_010_Spin_servo_mount_2', '', ( #918 ) ) ;
#417 = AXIS2_PLACEMENT_3D ( 'NONE', #644, #1053, #343 ) ;
#418 = AXIS2_PLACEMENT_3D ( 'NONE', #544, #30, #444 ) ;
#419 = AXIS2_PLACEMENT_3D ( 'NONE', #583, #1075, #68 ) ;
#420 = LINE ( 'NONE', #828, #348 ) ;
#421 = VECTOR ( 'NONE', #521, 1000.000000000000000 ) ;
#422 = ORIENTED_EDGE ( 'NONE', *, *, #772, .F. ) ;
#423 = DIRECTION ( 'NONE',  ( -1.000000000000000000, 0.000000000000000000, 2.297646988048751389E-16 ) ) ;
#424 = CARTESIAN_POINT ( 'NONE',  ( 4.999999999999104716, -0.5000000000006457057, 9.000000000000000000 ) ) ;
#425 = DIRECTION ( 'NONE',  ( 1.000000000000000000, 1.025221574302293624E-14, 3.302883875608454718E-29 ) ) ;
#426 = ORIENTED_EDGE ( 'NONE', *, *, #33, .T. ) ;
#427 = CARTESIAN_POINT ( 'NONE',  ( 15.09999999999317488, -46.63999999999234092, 66.00000000000250111 ) ) ;
#428 = ADVANCED_FACE ( 'NONE', ( #456 ), #742, .T. ) ;
#429 = CARTESIAN_POINT ( 'NONE',  ( -15.10000000000712994, -7.139999999992298285, 37.00000000000265032 ) ) ;
#430 =( LENGTH_UNIT ( ) NAMED_UNIT ( * ) SI_UNIT ( .MILLI., .METRE. ) );
#431 = EDGE_CURVE ( 'NONE', #1052, #370, #864, .T. ) ;
#432 = VERTEX_POINT ( 'NONE', #429 ) ;
#433 = ORIENTED_EDGE ( 'NONE', *, *, #296, .F. ) ;
#434 = DIRECTION ( 'NONE',  ( -1.387778780781445922E-16, -4.811009610343194060E-16, 1.000000000000000000 ) ) ;
#435 = FACE_OUTER_BOUND ( 'NONE', #591, .T. ) ;
#436 = CARTESIAN_POINT ( 'NONE',  ( -9.050000000008704859, -42.62533892259644119, 26.00000000000000355 ) ) ;
#437 = VECTOR ( 'NONE', #161, 1000.000000000000000 ) ;
#438 = EDGE_CURVE ( 'NONE', #180, #432, #837, .T. ) ;
#439 = CARTESIAN_POINT ( 'NONE',  ( 9.049999999991598543, 4.500000000000000000, 26.00000000000000355 ) ) ;
#440 = VECTOR ( 'NONE', #988, 1000.000000000000000 ) ;
#441 = ORIENTED_EDGE ( 'NONE', *, *, #699, .T. ) ;
#442 = DIRECTION ( 'NONE',  ( -1.000000000000000000, -9.912705577010322197E-15, 0.000000000000000000 ) ) ;
#443 = CARTESIAN_POINT ( 'NONE',  ( 10.04999999999159677, -4.500000000000000000, 26.00000000000000355 ) ) ;
#444 = DIRECTION ( 'NONE',  ( 7.711663511507749890E-14, -1.000000000000000000, 0.000000000000000000 ) ) ;
#445 = ORIENTED_EDGE ( 'NONE', *, *, #319, .T. ) ;
#446 = EDGE_CURVE ( 'NONE', #465, #1141, #675, .T. ) ;
#447 = ORIENTED_EDGE ( 'NONE', *, *, #103, .T. ) ;
#448 = DIRECTION ( 'NONE',  ( -0.7071067811865511255, -4.731305400051746909E-15, -0.7071067811865440200 ) ) ;
#449 = LINE ( 'NONE', #232, #330 ) ;
#450 = CARTESIAN_POINT ( 'NONE',  ( 4.999999999999104716, -0.5000000000006457057, 9.000000000000000000 ) ) ;
#451 = ORIENTED_EDGE ( 'NONE', *, *, #1040, .F. ) ;
#452 = ORIENTED_EDGE ( 'NONE', *, *, #913, .T. ) ;
#453 = FACE_OUTER_BOUND ( 'NONE', #192, .T. ) ;
#454 = EDGE_CURVE ( 'NONE', #473, #140, #1088, .T. ) ;
#455 = DIRECTION ( 'NONE',  ( -1.000000000000000000, -1.022452909681694297E-14, 0.000000000000000000 ) ) ;
#456 = FACE_OUTER_BOUND ( 'NONE', #400, .T. ) ;
#457 = VERTEX_POINT ( 'NONE', #63 ) ;
#458 = EDGE_LOOP ( 'NONE', ( #199, #216, #1258, #375 ) ) ;
#459 = AXIS2_PLACEMENT_3D ( 'NONE', #450, #146, #1062 ) ;
#460 = CARTESIAN_POINT ( 'NONE',  ( -15.10000000000712639, 4.499999999999613642, 69.00000000000260059 ) ) ;
#461 = AXIS2_PLACEMENT_3D ( 'NONE', #1270, #36, #1160 ) ;
#462 = DIRECTION ( 'NONE',  ( -0.000000000000000000, 1.000000000000000000, -0.000000000000000000 ) ) ;
#463 = CARTESIAN_POINT ( 'NONE',  ( 9.049999999991598543, -17.13999999999229829, 31.00000000000248335 ) ) ;
#464 = LINE ( 'NONE', #1266, #1014 ) ;
#465 = VERTEX_POINT ( 'NONE', #564 ) ;
#466 = LINE ( 'NONE', #787, #29 ) ;
#467 = CARTESIAN_POINT ( 'NONE',  ( 2.249999999999105160, -0.5000000000006457057, 9.000000000000000000 ) ) ;
#468 = EDGE_CURVE ( 'NONE', #1163, #1183, #568, .T. ) ;
#469 = CARTESIAN_POINT ( 'NONE',  ( -7.750000000000895284, -0.5000000000007429612, 9.000000000000000000 ) ) ;
#470 = EDGE_CURVE ( 'NONE', #147, #494, #377, .T. ) ;
#471 = ORIENTED_EDGE ( 'NONE', *, *, #1337, .T. ) ;
#472 = CARTESIAN_POINT ( 'NONE',  ( -1.749999999999806155, -31.88999999999266066, 61.15025253169725516 ) ) ;
#473 = VERTEX_POINT ( 'NONE', #877 ) ;
#474 = CARTESIAN_POINT ( 'NONE',  ( -1.749999999999807043, -31.88999999999266066, 66.00000000000255795 ) ) ;
#475 = FACE_OUTER_BOUND ( 'NONE', #895, .T. ) ;
#476 = EDGE_CURVE ( 'NONE', #953, #1013, #484, .T. ) ;
#477 = VERTEX_POINT ( 'NONE', #789 ) ;
#478 = VECTOR ( 'NONE', #1158, 1000.000000000000000 ) ;
#479 = VECTOR ( 'NONE', #228, 1000.000000000000000 ) ;
#480 = VECTOR ( 'NONE', #1299, 1000.000000000000000 ) ;
#481 = CARTESIAN_POINT ( 'NONE',  ( -7.534771417905261615E-12, -14.64000000000141632, 74.00000000000260059 ) ) ;
#482 = VECTOR ( 'NONE', #573, 1000.000000000000000 ) ;
#483 = VECTOR ( 'NONE', #1136, 1000.000000000000000 ) ;
#484 = LINE ( 'NONE', #678, #1124 ) ;
#485 = DIRECTION ( 'NONE',  ( 1.000000000000000000, 0.000000000000000000, 0.000000000000000000 ) ) ;
#486 = VERTEX_POINT ( 'NONE', #467 ) ;
#487 = FACE_BOUND ( 'NONE', #838, .T. ) ;
#488 = CARTESIAN_POINT ( 'NONE',  ( 15.09999999999286047, -7.139999999992291180, 37.00000000000264322 ) ) ;
#489 = CARTESIAN_POINT ( 'NONE',  ( -20.00000000000633449, -32.13999999999258961, 32.10000000000348308 ) ) ;
#490 = FACE_OUTER_BOUND ( 'NONE', #104, .T. ) ;
#491 = VERTEX_POINT ( 'NONE', #474 ) ;
#492 = DIRECTION ( 'NONE',  ( 1.000000000000000000, 0.000000000000000000, 0.000000000000000000 ) ) ;
#493 = ADVANCED_FACE ( 'NONE', ( #783 ), #160, .F. ) ;
#494 = VERTEX_POINT ( 'NONE', #1313 ) ;
#495 = LINE ( 'NONE', #96, #993 ) ;
#496 = LINE ( 'NONE', #796, #1143 ) ;
#497 = LINE ( 'NONE', #460, #1284 ) ;
#498 = EDGE_LOOP ( 'NONE', ( #412, #278 ) ) ;
#499 = CARTESIAN_POINT ( 'NONE',  ( -7.534771417905261615E-12, -14.64000000000141632, 69.00000000000260059 ) ) ;
#500 =( GEOMETRIC_REPRESENTATION_CONTEXT ( 3 ) GLOBAL_UNCERTAINTY_ASSIGNED_CONTEXT ( ( #599 ) ) GLOBAL_UNIT_ASSIGNED_CONTEXT ( ( #430, #91, #1139 ) ) REPRESENTATION_CONTEXT ( 'NONE', 'WORKASPACE' ) );
#501 = VECTOR ( 'NONE', #735, 1000.000000000000000 ) ;
#502 = ORIENTED_EDGE ( 'NONE', *, *, #326, .T. ) ;
#503 = DIRECTION ( 'NONE',  ( 0.000000000000000000, -0.000000000000000000, -1.000000000000000000 ) ) ;
#504 = VECTOR ( 'NONE', #721, 1000.000000000000000 ) ;
#505 = EDGE_CURVE ( 'NONE', #1292, #486, #1241, .T. ) ;
#506 = AXIS2_PLACEMENT_3D ( 'NONE', #311, #1333, #402 ) ;
#507 = CARTESIAN_POINT ( 'NONE',  ( 2.249999999999105160, -0.5000000000006457057, 0.000000000000000000 ) ) ;
#508 = ORIENTED_EDGE ( 'NONE', *, *, #123, .T. ) ;
#509 = ORIENTED_EDGE ( 'NONE', *, *, #446, .F. ) ;
#510 = LINE ( 'NONE', #1022, #69 ) ;
#511 = ADVANCED_FACE ( 'NONE', ( #1298 ), #1200, .F. ) ;
#512 = CARTESIAN_POINT ( 'NONE',  ( -15.10000000000712461, -7.139999999992303614, 69.00000000000260059 ) ) ;
#513 = CARTESIAN_POINT ( 'NONE',  ( 0.000000000000000000, 0.000000000000000000, 0.000000000000000000 ) ) ;
#514 = ADVANCED_FACE ( 'NONE', ( #683 ), #891, .F. ) ;
#515 = ORIENTED_EDGE ( 'NONE', *, *, #579, .T. ) ;
#516 = DIRECTION ( 'NONE',  ( 1.000000000000000000, 0.000000000000000000, 0.000000000000000000 ) ) ;
#517 = DIRECTION ( 'NONE',  ( -0.000000000000000000, -0.000000000000000000, -1.000000000000000000 ) ) ;
#518 = CARTESIAN_POINT ( 'NONE',  ( -15.10000000000712284, -32.13999999999244039, -5.658131636521553812E-14 ) ) ;
#519 = EDGE_LOOP ( 'NONE', ( #1038, #893, #54, #946, #860, #320 ) ) ;
#520 = ADVANCED_FACE ( 'NONE', ( #1093 ), #1210, .T. ) ;
#521 = DIRECTION ( 'NONE',  ( -0.000000000000000000, -1.000000000000000000, -0.000000000000000000 ) ) ;
#522 = LINE ( 'NONE', #404, #350 ) ;
#523 = AXIS2_PLACEMENT_3D ( 'NONE', #513, #618, #1229 ) ;
#524 = AXIS2_PLACEMENT_3D ( 'NONE', #53, #1172, #848 ) ;
#525 = CIRCLE ( 'NONE', #1015, 2.750000000000000000 ) ;
#526 = CARTESIAN_POINT ( 'NONE',  ( 15.09999999999272013, -17.13999999999213131, -1.061838819028335746E-12 ) ) ;
#527 = AXIS2_PLACEMENT_3D ( 'NONE', #1151, #941, #137 ) ;
#528 = ORIENTED_EDGE ( 'NONE', *, *, #505, .F. ) ;
#529 = ADVANCED_FACE ( 'NONE', ( #367 ), #275, .T. ) ;
#530 = EDGE_CURVE ( 'NONE', #432, #473, #1192, .T. ) ;
#531 = CARTESIAN_POINT ( 'NONE',  ( -20.00000000000922640, 4.499999999999613642, 42.00000000000267875 ) ) ;
#532 = DIRECTION ( 'NONE',  ( -1.000000000000000000, 0.000000000000000000, 0.000000000000000000 ) ) ;
#533 = LINE ( 'NONE', #1342, #325 ) ;
#534 = ORIENTED_EDGE ( 'NONE', *, *, #1186, .F. ) ;
#535 = ORIENTED_EDGE ( 'NONE', *, *, #1178, .F. ) ;
#536 = CARTESIAN_POINT ( 'NONE',  ( -9.050000000008704859, -4.500000000000000000, 25.00000000000000000 ) ) ;
#537 = CARTESIAN_POINT ( 'NONE',  ( -5.000000000000895284, -0.5000000000007429612, 0.000000000000000000 ) ) ;
#538 = EDGE_CURVE ( 'NONE', #1135, #223, #153, .T. ) ;
#539 = LINE ( 'NONE', #1044, #673 ) ;
#540 = ORIENTED_EDGE ( 'NONE', *, *, #454, .F. ) ;
#541 = ORIENTED_EDGE ( 'NONE', *, *, #431, .T. ) ;
#542 = CARTESIAN_POINT ( 'NONE',  ( 3.236870097352245323E-13, -32.13999999999229118, -1.035539723097980870E-13 ) ) ;
#543 = CARTESIAN_POINT ( 'NONE',  ( 4.776887931385406268E-13, -46.63999999999234092, -1.360705726171872207E-13 ) ) ;
#544 = CARTESIAN_POINT ( 'NONE',  ( -20.00000000000860112, -1.542297601674257816E-12, -1.330143062893168957E-13 ) ) ;
#545 = VECTOR ( 'NONE', #622, 1000.000000000000000 ) ;
#546 = ORIENTED_EDGE ( 'NONE', *, *, #788, .T. ) ;
#547 = AXIS2_PLACEMENT_3D ( 'NONE', #22, #133, #334 ) ;
#548 = VECTOR ( 'NONE', #730, 1000.000000000000000 ) ;
#549 = ORIENTED_EDGE ( 'NONE', *, *, #984, .T. ) ;
#550 = CARTESIAN_POINT ( 'NONE',  ( -15.10000000000682263, -46.63999999999266066, 69.00000000000250111 ) ) ;
#551 = LINE ( 'NONE', #28, #198 ) ;
#552 = FACE_OUTER_BOUND ( 'NONE', #643, .T. ) ;
#553 = EDGE_LOOP ( 'NONE', ( #707, #767, #803, #407 ) ) ;
#554 = EDGE_CURVE ( 'NONE', #924, #1191, #75, .T. ) ;
#555 = ORIENTED_EDGE ( 'NONE', *, *, #296, .T. ) ;
#556 = LINE ( 'NONE', #935, #826 ) ;
#557 = CARTESIAN_POINT ( 'NONE',  ( -9.050000000008704859, 4.499999999999997335, 26.00000000000000355 ) ) ;
#558 = FACE_OUTER_BOUND ( 'NONE', #1318, .T. ) ;
#559 = FACE_OUTER_BOUND ( 'NONE', #711, .T. ) ;
#560 = ORIENTED_EDGE ( 'NONE', *, *, #1140, .F. ) ;
#561 = FACE_OUTER_BOUND ( 'NONE', #1176, .T. ) ;
#562 = CARTESIAN_POINT ( 'NONE',  ( 0.000000000000000000, 0.000000000000000000, 0.000000000000000000 ) ) ;
#563 = ORIENTED_EDGE ( 'NONE', *, *, #233, .F. ) ;
#564 = CARTESIAN_POINT ( 'NONE',  ( 1.749999999999806155, -31.88999999999266066, 69.00000000000260059 ) ) ;
#565 = ORIENTED_EDGE ( 'NONE', *, *, #862, .T. ) ;
#566 = AXIS2_PLACEMENT_3D ( 'NONE', #590, #892, #182 ) ;
#567 = ORIENTED_EDGE ( 'NONE', *, *, #476, .F. ) ;
#568 = CIRCLE ( 'NONE', #757, 1.000000000000000888 ) ;
#569 = CARTESIAN_POINT ( 'NONE',  ( -15.10000000000712284, -32.13999999999244039, -5.658131636521553812E-14 ) ) ;
#570 = VECTOR ( 'NONE', #255, 1000.000000000000000 ) ;
#571 = CARTESIAN_POINT ( 'NONE',  ( -20.00000000000712674, -32.13999999999249724, -2.610080727837568710E-13 ) ) ;
#572 = EDGE_CURVE ( 'NONE', #486, #194, #282, .T. ) ;
#573 = DIRECTION ( 'NONE',  ( -7.711663511507699403E-14, 1.000000000000000000, -7.702194496900759215E-14 ) ) ;
#574 = DIRECTION ( 'NONE',  ( 0.000000000000000000, 0.000000000000000000, 1.000000000000000000 ) ) ;
#575 = EDGE_LOOP ( 'NONE', ( #253, #555, #1322, #1234, #1268, #874 ) ) ;
#576 = CARTESIAN_POINT ( 'NONE',  ( 1.749999999999806155, -31.88999999999266066, 61.15025253169725516 ) ) ;
#577 = ORIENTED_EDGE ( 'NONE', *, *, #1198, .T. ) ;
#578 = CARTESIAN_POINT ( 'NONE',  ( 4.407615557255891019E-12, -17.13999999999228763, 1.530024247358112623E-14 ) ) ;
#579 = EDGE_CURVE ( 'NONE', #1013, #1230, #871, .T. ) ;
#580 = DIRECTION ( 'NONE',  ( 7.711663511507754938E-14, -1.000000000000000000, -8.290439947787797247E-15 ) ) ;
#581 = ORIENTED_EDGE ( 'NONE', *, *, #431, .F. ) ;
#582 = CYLINDRICAL_SURFACE ( 'NONE', #132, 9.549999999999998934 ) ;
#583 = CARTESIAN_POINT ( 'NONE',  ( -7.534771417905261615E-12, -14.64000000000141632, 74.00000000000260059 ) ) ;
#584 = DIRECTION ( 'NONE',  ( 0.000000000000000000, 0.000000000000000000, -1.000000000000000000 ) ) ;
#585 = ORIENTED_EDGE ( 'NONE', *, *, #623, .F. ) ;
#586 = AXIS2_PLACEMENT_3D ( 'NONE', #254, #661, #149 ) ;
#587 = CARTESIAN_POINT ( 'NONE',  ( -10.05000000000870486, -17.13999999999230539, 31.00000000000194689 ) ) ;
#588 = VECTOR ( 'NONE', #332, 1000.000000000000000 ) ;
#589 = CARTESIAN_POINT ( 'NONE',  ( 4.999999999999104716, -0.5000000000006457057, 9.000000000000000000 ) ) ;
#590 = CARTESIAN_POINT ( 'NONE',  ( -7.534771417905261615E-12, -14.64000000000141632, 69.00000000000260059 ) ) ;
#591 = EDGE_LOOP ( 'NONE', ( #758, #868, #905, #760 ) ) ;
#592 = EDGE_CURVE ( 'NONE', #954, #674, #525, .T. ) ;
#593 = LINE ( 'NONE', #1323, #951 ) ;
#594 = VERTEX_POINT ( 'NONE', #304 ) ;
#595 = CARTESIAN_POINT ( 'NONE',  ( -9.050000000008701306, -51.62187929912985140, 31.00000000000194689 ) ) ;
#596 = CARTESIAN_POINT ( 'NONE',  ( -7.534771417905261615E-12, -14.64000000000141632, 69.00000000000260059 ) ) ;
#597 = CARTESIAN_POINT ( 'NONE',  ( -12.55000000000753779, -14.64000000000141632, 74.00000000000260059 ) ) ;
#598 = ORIENTED_EDGE ( 'NONE', *, *, #623, .T. ) ;
#599 = UNCERTAINTY_MEASURE_WITH_UNIT (LENGTH_MEASURE( 1.000000000000000082E-05 ), #430, 'distance_accuracy_value', 'NONE');
#600 = ADVANCED_FACE ( 'NONE', ( #1114 ), #929, .F. ) ;
#601 = CARTESIAN_POINT ( 'NONE',  ( -10.05000000000562821, 4.500000000000000000, 26.00000000000000355 ) ) ;
#602 = ORIENTED_EDGE ( 'NONE', *, *, #1344, .F. ) ;
#603 = FACE_OUTER_BOUND ( 'NONE', #638, .T. ) ;
#604 = CARTESIAN_POINT ( 'NONE',  ( 10.04999999999160032, -17.13999999999229118, 0.000000000000000000 ) ) ;
#605 = VERTEX_POINT ( 'NONE', #181 ) ;
#606 = CIRCLE ( 'NONE', #1031, 12.55000000000000249 ) ;
#607 = EDGE_CURVE ( 'NONE', #494, #945, #101, .T. ) ;
#608 = ORIENTED_EDGE ( 'NONE', *, *, #944, .T. ) ;
#609 = DIRECTION ( 'NONE',  ( -1.023192829898184652E-14, 1.000000000000000000, 3.293034395074616957E-15 ) ) ;
#610 = ADVANCED_FACE ( 'NONE', ( #911 ), #207, .F. ) ;
#611 = MECHANICAL_DESIGN_GEOMETRIC_PRESENTATION_REPRESENTATION (  '', ( #846 ), #1168 ) ;
#612 = LINE ( 'NONE', #1012, #733 ) ;
#613 = ORIENTED_EDGE ( 'NONE', *, *, #572, .T. ) ;
#614 = DIRECTION ( 'NONE',  ( -0.7071067811865507924, -9.287377266767689334E-15, 0.7071067811865441310 ) ) ;
#615 = DIRECTION ( 'NONE',  ( 1.000000000000000000, 0.000000000000000000, 1.387778780781445922E-16 ) ) ;
#616 = LINE ( 'NONE', #300, #627 ) ;
#617 = ADVANCED_FACE ( 'NONE', ( #603, #1011 ), #88, .F. ) ;
#618 = DIRECTION ( 'NONE',  ( 0.000000000000000000, 0.000000000000000000, 1.000000000000000000 ) ) ;
#619 = ORIENTED_EDGE ( 'NONE', *, *, #446, .T. ) ;
#620 = CYLINDRICAL_SURFACE ( 'NONE', #930, 9.549999999999998934 ) ;
#621 = DIRECTION ( 'NONE',  ( 1.387778780781445922E-16, 0.000000000000000000, -1.000000000000000000 ) ) ;
#622 = DIRECTION ( 'NONE',  ( -1.000000000000000000, 0.000000000000000000, 2.297646988048751389E-16 ) ) ;
#623 = EDGE_CURVE ( 'NONE', #1294, #969, #510, .T. ) ;
#624 = VERTEX_POINT ( 'NONE', #1132 ) ;
#625 = DIRECTION ( 'NONE',  ( -2.297646988048751389E-16, 0.000000000000000000, -1.000000000000000000 ) ) ;
#626 = DIRECTION ( 'NONE',  ( 0.000000000000000000, 1.000000000000000000, -0.000000000000000000 ) ) ;
#627 = VECTOR ( 'NONE', #704, 1000.000000000000000 ) ;
#628 = AXIS2_PLACEMENT_3D ( 'NONE', #640, #1048, #42 ) ;
#629 = DIRECTION ( 'NONE',  ( -0.000000000000000000, -0.000000000000000000, -1.000000000000000000 ) ) ;
#630 = VECTOR ( 'NONE', #1242, 1000.000000000000000 ) ;
#631 = ORIENTED_EDGE ( 'NONE', *, *, #832, .F. ) ;
#632 = ORIENTED_EDGE ( 'NONE', *, *, #505, .T. ) ;
#633 = CARTESIAN_POINT ( 'NONE',  ( 15.09999999999287112, -61.14045454309901118, 37.00000000000264322 ) ) ;
#634 = EDGE_CURVE ( 'NONE', #403, #776, #292, .T. ) ;
#635 = CARTESIAN_POINT ( 'NONE',  ( -9.050000000008704859, 4.500000000000000000, 25.00000000000000000 ) ) ;
#636 = FACE_OUTER_BOUND ( 'NONE', #458, .T. ) ;
#637 = ORIENTED_EDGE ( 'NONE', *, *, #1152, .F. ) ;
#638 = EDGE_LOOP ( 'NONE', ( #934, #763, #249, #1180, #598, #901 ) ) ;
#639 = CARTESIAN_POINT ( 'NONE',  ( 15.09999999999272013, -17.13999999999213131, -1.061838819028335746E-12 ) ) ;
#640 = CARTESIAN_POINT ( 'NONE',  ( -7.534771417905261615E-12, -14.64000000000141632, 74.00000000000260059 ) ) ;
#641 = DIRECTION ( 'NONE',  ( -0.000000000000000000, -1.000000000000000000, -0.000000000000000000 ) ) ;
#642 = ORIENTED_EDGE ( 'NONE', *, *, #476, .T. ) ;
#643 = EDGE_LOOP ( 'NONE', ( #426, #229, #1312, #608 ) ) ;
#644 = CARTESIAN_POINT ( 'NONE',  ( 4.999999999999104716, -0.5000000000006457057, 0.000000000000000000 ) ) ;
#645 = CARTESIAN_POINT ( 'NONE',  ( 10.04999999999160032, -4.500000000000000000, 0.000000000000000000 ) ) ;
#646 = ADVANCED_FACE ( 'NONE', ( #708 ), #1221, .F. ) ;
#647 = CYLINDRICAL_SURFACE ( 'NONE', #374, 1.000000000000000888 ) ;
#648 = AXIS2_PLACEMENT_3D ( 'NONE', #1283, #657, #1276 ) ;
#649 = EDGE_CURVE ( 'NONE', #115, #1207, #522, .T. ) ;
#650 = CIRCLE ( 'NONE', #1035, 1.000000000000000888 ) ;
#651 = ORIENTED_EDGE ( 'NONE', *, *, #1140, .T. ) ;
#652 = VECTOR ( 'NONE', #10, 1000.000000000000000 ) ;
#653 = CIRCLE ( 'NONE', #694, 0.9999999999999974465 ) ;
#654 = ORIENTED_EDGE ( 'NONE', *, *, #167, .F. ) ;
#655 = CARTESIAN_POINT ( 'NONE',  ( -1.749999999999806155, -31.88999999999266066, 69.00000000000260059 ) ) ;
#656 = CYLINDRICAL_SURFACE ( 'NONE', #27, 2.750000000000000000 ) ;
#657 = DIRECTION ( 'NONE',  ( 0.000000000000000000, 0.000000000000000000, 1.000000000000000000 ) ) ;
#658 = ADVANCED_FACE ( 'NONE', ( #831 ), #1018, .F. ) ;
#659 = DIRECTION ( 'NONE',  ( 0.000000000000000000, 0.000000000000000000, -1.000000000000000000 ) ) ;
#660 = ORIENTED_EDGE ( 'NONE', *, *, #1064, .T. ) ;
#661 = DIRECTION ( 'NONE',  ( 9.912705577010322197E-15, -1.000000000000000000, -3.221629312528080664E-15 ) ) ;
#662 = DIRECTION ( 'NONE',  ( -0.000000000000000000, 0.000000000000000000, 1.000000000000000000 ) ) ;
#663 = VERTEX_POINT ( 'NONE', #299 ) ;
#664 = DIRECTION ( 'NONE',  ( -1.387778780781445922E-16, 0.000000000000000000, 1.000000000000000000 ) ) ;
#665 = ORIENTED_EDGE ( 'NONE', *, *, #689, .F. ) ;
#666 = EDGE_CURVE ( 'NONE', #273, #1013, #495, .T. ) ;
#667 = ORIENTED_EDGE ( 'NONE', *, *, #15, .F. ) ;
#668 = CARTESIAN_POINT ( 'NONE',  ( 0.000000000000000000, -31.88999999999266066, 61.15025253169725516 ) ) ;
#669 = CARTESIAN_POINT ( 'NONE',  ( 14.99999999999159428, -17.13999999999228407, 1.929781804276008307E-28 ) ) ;
#670 = ORIENTED_EDGE ( 'NONE', *, *, #252, .F. ) ;
#671 = DIRECTION ( 'NONE',  ( -0.000000000000000000, -0.000000000000000000, 1.000000000000000000 ) ) ;
#672 = DIRECTION ( 'NONE',  ( 1.936656130602091040E-16, 4.776315140823657918E-16, -1.000000000000000000 ) ) ;
#673 = VECTOR ( 'NONE', #641, 1000.000000000000000 ) ;
#674 = VERTEX_POINT ( 'NONE', #410 ) ;
#675 = CIRCLE ( 'NONE', #800, 1.749999999999806155 ) ;
#676 = ADVANCED_FACE ( 'NONE', ( #1249 ), #819, .F. ) ;
#677 = DIRECTION ( 'NONE',  ( -3.294700853571369991E-29, 3.222349726206033863E-15, -1.000000000000000000 ) ) ;
#678 = CARTESIAN_POINT ( 'NONE',  ( 15.09999999999287112, 4.500000000000383693, 37.00000000000264322 ) ) ;
#679 = CARTESIAN_POINT ( 'NONE',  ( 10.04999999999160032, -42.62533892259644119, 0.000000000000000000 ) ) ;
#680 = ORIENTED_EDGE ( 'NONE', *, *, #1094, .F. ) ;
#681 = CARTESIAN_POINT ( 'NONE',  ( 7.749999999999104716, -0.5000000000006454837, 0.000000000000000000 ) ) ;
#682 = ADVANCED_FACE ( 'NONE', ( #716 ), #1128, .T. ) ;
#683 = FACE_OUTER_BOUND ( 'NONE', #1173, .T. ) ;
#684 = CARTESIAN_POINT ( 'NONE',  ( 0.000000000000000000, -31.88999999999266066, 69.00000000000260059 ) ) ;
#685 = ORIENTED_EDGE ( 'NONE', *, *, #134, .T. ) ;
#686 = CARTESIAN_POINT ( 'NONE',  ( 10.04999999999438387, 4.500000000000000000, 25.00000000000000000 ) ) ;
#687 = DIRECTION ( 'NONE',  ( 1.000000000000000000, 0.000000000000000000, -0.000000000000000000 ) ) ;
#688 = DIRECTION ( 'NONE',  ( -0.000000000000000000, -0.000000000000000000, -1.000000000000000000 ) ) ;
#689 = EDGE_CURVE ( 'NONE', #60, #924, #825, .T. ) ;
#690 = ORIENTED_EDGE ( 'NONE', *, *, #1310, .F. ) ;
#691 = VECTOR ( 'NONE', #76, 1000.000000000000000 ) ;
#692 = AXIS2_PLACEMENT_3D ( 'NONE', #139, #1148, #243 ) ;
#693 = CARTESIAN_POINT ( 'NONE',  ( 15.09999999999317488, -46.63999999999235513, 69.00000000000250111 ) ) ;
#694 = AXIS2_PLACEMENT_3D ( 'NONE', #157, #358, #373 ) ;
#695 = ORIENTED_EDGE ( 'NONE', *, *, #572, .F. ) ;
#696 = CARTESIAN_POINT ( 'NONE',  ( 2.249999999999105160, -0.5000000000006457057, 9.000000000000000000 ) ) ;
#697 = LINE ( 'NONE', #469, #779 ) ;
#698 = CARTESIAN_POINT ( 'NONE',  ( 9.549999999992463628, -14.64000000000141455, 69.00000000000260059 ) ) ;
#699 = EDGE_CURVE ( 'NONE', #724, #663, #317, .T. ) ;
#700 = ORIENTED_EDGE ( 'NONE', *, *, #1086, .F. ) ;
#701 = DIRECTION ( 'NONE',  ( 1.000000000000000000, 0.000000000000000000, 0.000000000000000000 ) ) ;
#702 = ORIENTED_EDGE ( 'NONE', *, *, #1129, .T. ) ;
#703 = CARTESIAN_POINT ( 'NONE',  ( -5.000000000000895284, -0.5000000000007429612, 9.000000000000000000 ) ) ;
#704 = DIRECTION ( 'NONE',  ( 0.000000000000000000, 1.000000000000000000, 0.000000000000000000 ) ) ;
#705 = ORIENTED_EDGE ( 'NONE', *, *, #1064, .F. ) ;
#706 = EDGE_CURVE ( 'NONE', #222, #829, #108, .T. ) ;
#707 = ORIENTED_EDGE ( 'NONE', *, *, #714, .F. ) ;
#708 = FACE_OUTER_BOUND ( 'NONE', #818, .T. ) ;
#709 = LINE ( 'NONE', #1023, #260 ) ;
#710 = SURFACE_STYLE_FILL_AREA ( #1121 ) ;
#711 = EDGE_LOOP ( 'NONE', ( #178, #798, #164, #1118 ) ) ;
#712 = LINE ( 'NONE', #201, #802 ) ;
#713 = AXIS2_PLACEMENT_3D ( 'NONE', #1201, #979, #175 ) ;
#714 = EDGE_CURVE ( 'NONE', #954, #222, #227, .T. ) ;
#715 = ORIENTED_EDGE ( 'NONE', *, *, #141, .T. ) ;
#716 = FACE_OUTER_BOUND ( 'NONE', #815, .T. ) ;
#717 = AXIS2_PLACEMENT_3D ( 'NONE', #777, #257, #360 ) ;
#718 = CARTESIAN_POINT ( 'NONE',  ( 10.04999999999438387, 4.500000000000000000, 26.00000000000000355 ) ) ;
#719 = ORIENTED_EDGE ( 'NONE', *, *, #329, .F. ) ;
#720 = FACE_OUTER_BOUND ( 'NONE', #1103, .T. ) ;
#721 = DIRECTION ( 'NONE',  ( -0.000000000000000000, -1.000000000000000000, -0.000000000000000000 ) ) ;
#722 = EDGE_CURVE ( 'NONE', #1106, #1135, #863, .T. ) ;
#723 = LINE ( 'NONE', #1138, #883 ) ;
#724 = VERTEX_POINT ( 'NONE', #942 ) ;
#725 = PLANE ( 'NONE',  #1126 ) ;
#726 = CARTESIAN_POINT ( 'NONE',  ( -15.10000000000712284, -32.13999999999206381, 37.00000000000264322 ) ) ;
#727 = CARTESIAN_POINT ( 'NONE',  ( 15.09999999999272013, -17.13999999999213131, -1.061838819028335746E-12 ) ) ;
#728 = EDGE_CURVE ( 'NONE', #477, #605, #1216, .T. ) ;
#729 = ORIENTED_EDGE ( 'NONE', *, *, #361, .F. ) ;
#730 = DIRECTION ( 'NONE',  ( -1.387778780781445676E-16, -0.000000000000000000, 1.000000000000000000 ) ) ;
#731 = CARTESIAN_POINT ( 'NONE',  ( -7.750000000000895284, -0.5000000000007429612, 0.000000000000000000 ) ) ;
#732 = CIRCLE ( 'NONE', #288, 2.750000000000000000 ) ;
#733 = VECTOR ( 'NONE', #397, 1000.000000000000000 ) ;
#734 = VECTOR ( 'NONE', #1271, 1000.000000000000000 ) ;
#735 = DIRECTION ( 'NONE',  ( 9.469014606862317997E-17, -1.000000000000000000, 0.000000000000000000 ) ) ;
#736 = AXIS2_PLACEMENT_3D ( 'NONE', #268, #677, #274 ) ;
#737 = CARTESIAN_POINT ( 'NONE',  ( 19.99999999999287326, -32.13999999999218460, 32.10000000000189857 ) ) ;
#738 = PRODUCT_DEFINITION ( 'UNKNOWN', '', #906, #401 ) ;
#739 = VERTEX_POINT ( 'NONE', #1054 ) ;
#740 = DIRECTION ( 'NONE',  ( 6.649773324577331651E-15, -2.065146995210351266E-17, -1.000000000000000000 ) ) ;
#741 = DIRECTION ( 'NONE',  ( -0.000000000000000000, -2.392722035830078873E-15, 1.000000000000000000 ) ) ;
#742 = PLANE ( 'NONE',  #459 ) ;
#743 = EDGE_LOOP ( 'NONE', ( #700, #540, #126, #245 ) ) ;
#744 = ORIENTED_EDGE ( 'NONE', *, *, #805, .F. ) ;
#745 = EDGE_CURVE ( 'NONE', #776, #594, #1255, .T. ) ;
#746 = DIRECTION ( 'NONE',  ( 0.000000000000000000, 3.589083053745118507E-15, -1.000000000000000000 ) ) ;
#747 = DIRECTION ( 'NONE',  ( -0.000000000000000000, -0.000000000000000000, -1.000000000000000000 ) ) ;
#748 = DIRECTION ( 'NONE',  ( 0.000000000000000000, 1.000000000000000000, 0.000000000000000000 ) ) ;
#749 = ORIENTED_EDGE ( 'NONE', *, *, #808, .F. ) ;
#750 = ORIENTED_EDGE ( 'NONE', *, *, #470, .F. ) ;
#751 = CARTESIAN_POINT ( 'NONE',  ( -10.05000000000870486, -4.500000000000000000, 26.00000000000000355 ) ) ;
#752 = DIRECTION ( 'NONE',  ( -1.000000000000000000, 0.000000000000000000, -0.000000000000000000 ) ) ;
#753 = ADVANCED_FACE ( 'NONE', ( #131 ), #656, .F. ) ;
#754 = CYLINDRICAL_SURFACE ( 'NONE', #547, 1.000000000000000888 ) ;
#755 = AXIS2_PLACEMENT_3D ( 'NONE', #357, #40, #768 ) ;
#756 = VECTOR ( 'NONE', #106, 1000.000000000000000 ) ;
#757 = AXIS2_PLACEMENT_3D ( 'NONE', #57, #165, #382 ) ;
#758 = ORIENTED_EDGE ( 'NONE', *, *, #592, .F. ) ;
#759 = CIRCLE ( 'NONE', #1264, 12.55000000000000249 ) ;
#760 = ORIENTED_EDGE ( 'NONE', *, *, #86, .F. ) ;
#761 = PLANE ( 'NONE',  #755 ) ;
#762 = FACE_BOUND ( 'NONE', #230, .T. ) ;
#763 = ORIENTED_EDGE ( 'NONE', *, *, #203, .F. ) ;
#764 = LINE ( 'NONE', #1177, #479 ) ;
#765 = ADVANCED_FACE ( 'NONE', ( #962 ), #322, .F. ) ;
#766 = EDGE_LOOP ( 'NONE', ( #451, #508, #281, #1334, #899, #811, #341, #670 ) ) ;
#767 = ORIENTED_EDGE ( 'NONE', *, *, #986, .F. ) ;
#768 = DIRECTION ( 'NONE',  ( 1.000000000000000000, 0.000000000000000000, -0.000000000000000000 ) ) ;
#769 = CARTESIAN_POINT ( 'NONE',  ( 19.99999999999272049, -17.13999999999186130, -1.061238742096752835E-12 ) ) ;
#770 = ORIENTED_EDGE ( 'NONE', *, *, #1086, .T. ) ;
#771 = DIRECTION ( 'NONE',  ( -0.000000000000000000, 1.000000000000000000, -0.000000000000000000 ) ) ;
#772 = EDGE_CURVE ( 'NONE', #1003, #624, #551, .T. ) ;
#773 = VERTEX_POINT ( 'NONE', #443 ) ;
#774 = DIRECTION ( 'NONE',  ( 0.000000000000000000, 0.000000000000000000, -1.000000000000000000 ) ) ;
#775 = CARTESIAN_POINT ( 'NONE',  ( 9.049999999991596766, 4.500000000000000000, 25.00000000000000000 ) ) ;
#776 = VERTEX_POINT ( 'NONE', #427 ) ;
#777 = CARTESIAN_POINT ( 'NONE',  ( 4.999999999999104716, -0.5000000000006457057, 9.000000000000000000 ) ) ;
#778 = FACE_OUTER_BOUND ( 'NONE', #1110, .T. ) ;
#779 = VECTOR ( 'NONE', #688, 1000.000000000000000 ) ;
#780 = ORIENTED_EDGE ( 'NONE', *, *, #1042, .F. ) ;
#781 = AXIS2_PLACEMENT_3D ( 'NONE', #543, #948, #455 ) ;
#782 = FACE_OUTER_BOUND ( 'NONE', #1286, .T. ) ;
#783 = FACE_OUTER_BOUND ( 'NONE', #366, .T. ) ;
#784 = PLANE ( 'NONE',  #713 ) ;
#785 = VERTEX_POINT ( 'NONE', #858 ) ;
#786 = UNCERTAINTY_MEASURE_WITH_UNIT (LENGTH_MEASURE( 1.000000000000000082E-05 ), #100, 'distance_accuracy_value', 'NONE');
#787 = CARTESIAN_POINT ( 'NONE',  ( -9.499999999999998224, 4.500000000000000000, 25.00000000000000000 ) ) ;
#788 = EDGE_CURVE ( 'NONE', #850, #940, #1034, .T. ) ;
#789 = CARTESIAN_POINT ( 'NONE',  ( -9.550000000007534240, -14.64000000000141632, 74.00000000000260059 ) ) ;
#790 = LINE ( 'NONE', #1314, #437 ) ;
#791 = APPLICATION_CONTEXT ( 'automotive_design' ) ;
#792 = ORIENTED_EDGE ( 'NONE', *, *, #884, .F. ) ;
#793 = LINE ( 'NONE', #408, #51 ) ;
#794 = VERTEX_POINT ( 'NONE', #138 ) ;
#795 = CARTESIAN_POINT ( 'NONE',  ( 15.09999999999287112, 4.500000000000384581, 32.00000000000260059 ) ) ;
#796 = CARTESIAN_POINT ( 'NONE',  ( 12.54999999999246718, -14.64000000000141455, 74.00000000000260059 ) ) ;
#797 = LINE ( 'NONE', #83, #822 ) ;
#798 = ORIENTED_EDGE ( 'NONE', *, *, #338, .F. ) ;
#799 = CIRCLE ( 'NONE', #971, 1.000000000000000888 ) ;
#800 = AXIS2_PLACEMENT_3D ( 'NONE', #221, #983, #1304 ) ;
#801 = DIRECTION ( 'NONE',  ( 0.000000000000000000, -3.221629312528080664E-15, 1.000000000000000000 ) ) ;
#802 = VECTOR ( 'NONE', #614, 1000.000000000000114 ) ;
#803 = ORIENTED_EDGE ( 'NONE', *, *, #86, .T. ) ;
#804 = DIRECTION ( 'NONE',  ( 0.000000000000000000, -1.000000000000000000, 0.000000000000000000 ) ) ;
#805 = EDGE_CURVE ( 'NONE', #1045, #855, #650, .T. ) ;
#806 = CARTESIAN_POINT ( 'NONE',  ( -15.00000000000870592, -17.13999999999229118, 0.000000000000000000 ) ) ;
#807 = DIRECTION ( 'NONE',  ( 0.000000000000000000, 1.000000000000000000, 3.293034395074616957E-15 ) ) ;
#808 = EDGE_CURVE ( 'NONE', #829, #222, #1243, .T. ) ;
#809 = EDGE_LOOP ( 'NONE', ( #1063, #939, #1297, #237, #289, #502 ) ) ;
#810 = CARTESIAN_POINT ( 'NONE',  ( -7.534771417905261615E-12, -14.64000000000141632, 74.00000000000260059 ) ) ;
#811 = ORIENTED_EDGE ( 'NONE', *, *, #454, .T. ) ;
#812 = CARTESIAN_POINT ( 'NONE',  ( 10.04999999999159677, -42.62533892259644119, 25.00000000000000000 ) ) ;
#813 = CARTESIAN_POINT ( 'NONE',  ( 15.09999999999287112, 4.500000000000000000, 37.00000000000264322 ) ) ;
#814 = SURFACE_SIDE_STYLE ('',( #710 ) ) ;
#815 = EDGE_LOOP ( 'NONE', ( #156, #958, #879, #546 ) ) ;
#816 = EDGE_CURVE ( 'NONE', #794, #953, #1281, .T. ) ;
#817 = CARTESIAN_POINT ( 'NONE',  ( -9.550000000007534240, -14.64000000000141632, 69.00000000000260059 ) ) ;
#818 = EDGE_LOOP ( 'NONE', ( #235, #665, #291, #1051 ) ) ;
#819 = CYLINDRICAL_SURFACE ( 'NONE', #70, 2.750000000000000000 ) ;
#820 = LINE ( 'NONE', #813, #545 ) ;
#821 = ORIENTED_EDGE ( 'NONE', *, *, #203, .T. ) ;
#822 = VECTOR ( 'NONE', #904, 1000.000000000000000 ) ;
#823 = PRODUCT_RELATED_PRODUCT_CATEGORY ( 'part', '', ( #416 ) ) ;
#824 = DIRECTION ( 'NONE',  ( 1.000000000000000000, 0.000000000000000000, 0.000000000000000000 ) ) ;
#825 = LINE ( 'NONE', #312, #504 ) ;
#826 = VECTOR ( 'NONE', #1041, 1000.000000000000000 ) ;
#827 = AXIS2_PLACEMENT_3D ( 'NONE', #997, #1302, #66 ) ;
#828 = CARTESIAN_POINT ( 'NONE',  ( 9.549999999992463628, -14.64000000000141455, 74.00000000000260059 ) ) ;
#829 = VERTEX_POINT ( 'NONE', #731 ) ;
#830 = LINE ( 'NONE', #20, #7 ) ;
#831 = FACE_OUTER_BOUND ( 'NONE', #1095, .T. ) ;
#832 = EDGE_CURVE ( 'NONE', #457, #1331, #449, .T. ) ;
#833 = LINE ( 'NONE', #411, #128 ) ;
#834 = VERTEX_POINT ( 'NONE', #645 ) ;
#835 = CARTESIAN_POINT ( 'NONE',  ( 10.04999999999159677, -42.62533892259644119, 31.00000000000248335 ) ) ;
#836 = DIRECTION ( 'NONE',  ( -1.025221574302293624E-14, 1.000000000000000000, 1.015752559695421910E-14 ) ) ;
#837 = LINE ( 'NONE', #1256, #262 ) ;
#838 = EDGE_LOOP ( 'NONE', ( #1340, #705 ) ) ;
#839 = ORIENTED_EDGE ( 'NONE', *, *, #1250, .T. ) ;
#840 = LINE ( 'NONE', #9, #548 ) ;
#841 = PLANE ( 'NONE',  #974 ) ;
#842 = AXIS2_PLACEMENT_3D ( 'NONE', #287, #399, #807 ) ;
#843 = VECTOR ( 'NONE', #1036, 1000.000000000000000 ) ;
#844 = VECTOR ( 'NONE', #741, 1000.000000000000000 ) ;
#845 = PLANE ( 'NONE',  #418 ) ;
#846 = STYLED_ITEM ( 'NONE', ( #1008 ), #1078 ) ;
#847 = ADVANCED_FACE ( 'NONE', ( #352 ), #841, .T. ) ;
#848 = DIRECTION ( 'NONE',  ( 0.000000000000000000, 0.000000000000000000, -1.000000000000000000 ) ) ;
#849 = ADVANCED_FACE ( 'NONE', ( #435 ), #1146, .F. ) ;
#850 = VERTEX_POINT ( 'NONE', #220 ) ;
#851 = LINE ( 'NONE', #219, #478 ) ;
#852 = DIRECTION ( 'NONE',  ( 0.000000000000000000, 0.000000000000000000, -1.000000000000000000 ) ) ;
#853 = DIRECTION ( 'NONE',  ( 0.000000000000000000, 0.000000000000000000, -1.000000000000000000 ) ) ;
#854 = EDGE_LOOP ( 'NONE', ( #356, #839, #44, #1007 ) ) ;
#855 = VERTEX_POINT ( 'NONE', #635 ) ;
#856 = CARTESIAN_POINT ( 'NONE',  ( 15.09999999999287290, -17.13999999999212775, 69.00000000000260059 ) ) ;
#857 = EDGE_CURVE ( 'NONE', #491, #327, #284, .T. ) ;
#858 = CARTESIAN_POINT ( 'NONE',  ( -9.050000000008731504, 4.500000000000000000, 32.00000000000194689 ) ) ;
#859 = CARTESIAN_POINT ( 'NONE',  ( 1.749999999999807043, -31.88999999999266066, 66.00000000000255795 ) ) ;
#860 = ORIENTED_EDGE ( 'NONE', *, *, #276, .F. ) ;
#861 = ORIENTED_EDGE ( 'NONE', *, *, #158, .F. ) ;
#862 = EDGE_CURVE ( 'NONE', #184, #188, #1182, .T. ) ;
#863 = LINE ( 'NONE', #241, #283 ) ;
#864 = LINE ( 'NONE', #937, #6 ) ;
#865 = AXIS2_PLACEMENT_3D ( 'NONE', #578, #1319, #387 ) ;
#866 = CARTESIAN_POINT ( 'NONE',  ( -7.534771417905261615E-12, -14.64000000000141632, 74.00000000000260059 ) ) ;
#867 = AXIS2_PLACEMENT_3D ( 'NONE', #333, #212, #532 ) ;
#868 = ORIENTED_EDGE ( 'NONE', *, *, #714, .T. ) ;
#869 = DIRECTION ( 'NONE',  ( 1.000000000000000000, 9.469014606862317997E-17, 0.000000000000000000 ) ) ;
#870 = LINE ( 'NONE', #472, #217 ) ;
#871 = LINE ( 'NONE', #1290, #173 ) ;
#872 = EDGE_CURVE ( 'NONE', #924, #1106, #653, .T. ) ;
#873 = VERTEX_POINT ( 'NONE', #365 ) ;
#874 = ORIENTED_EDGE ( 'NONE', *, *, #967, .T. ) ;
#875 = LINE ( 'NONE', #966, #1030 ) ;
#876 = DIRECTION ( 'NONE',  ( 0.7071067811865507924, -0.000000000000000000, -0.7071067811865441310 ) ) ;
#877 = CARTESIAN_POINT ( 'NONE',  ( -10.06243012398173597, -7.139999999992309831, 37.00000000000265032 ) ) ;
#878 = CARTESIAN_POINT ( 'NONE',  ( 10.04999999999437854, 4.500000000000000000, 32.00000000000251532 ) ) ;
#879 = ORIENTED_EDGE ( 'NONE', *, *, #276, .T. ) ;
#880 = DIRECTION ( 'NONE',  ( -0.000000000000000000, -0.000000000000000000, 1.000000000000000000 ) ) ;
#881 = ORIENTED_EDGE ( 'NONE', *, *, #103, .F. ) ;
#882 = CARTESIAN_POINT ( 'NONE',  ( -20.00000000000881784, 1.351058607218200112E-14, 32.10000000000100329 ) ) ;
#883 = VECTOR ( 'NONE', #1133, 1000.000000000000000 ) ;
#884 = EDGE_CURVE ( 'NONE', #1230, #1020, #1199, .T. ) ;
#885 = VERTEX_POINT ( 'NONE', #681 ) ;
#886 = VECTOR ( 'NONE', #902, 1000.000000000000000 ) ;
#887 = EDGE_CURVE ( 'NONE', #940, #855, #466, .T. ) ;
#888 = CIRCLE ( 'NONE', #1081, 12.55000000000000249 ) ;
#889 = CARTESIAN_POINT ( 'NONE',  ( 8.799999999997639932, 4.500000000000000000, 43.29999999999781579 ) ) ;
#890 = ORIENTED_EDGE ( 'NONE', *, *, #1231, .T. ) ;
#891 = CYLINDRICAL_SURFACE ( 'NONE', #308, 2.750000000000000000 ) ;
#892 = DIRECTION ( 'NONE',  ( 0.000000000000000000, 0.000000000000000000, 1.000000000000000000 ) ) ;
#893 = ORIENTED_EDGE ( 'NONE', *, *, #361, .T. ) ;
#894 = DIRECTION ( 'NONE',  ( 0.000000000000000000, 0.000000000000000000, 1.000000000000000000 ) ) ;
#895 = EDGE_LOOP ( 'NONE', ( #1162, #127, #135, #1092 ) ) ;
#896 = CARTESIAN_POINT ( 'NONE',  ( -10.05000000000870486, -17.13999999999230184, 25.00000000000001421 ) ) ;
#897 = PLANE ( 'NONE',  #280 ) ;
#898 = DIRECTION ( 'NONE',  ( -0.000000000000000000, -1.000000000000000000, -0.000000000000000000 ) ) ;
#899 = ORIENTED_EDGE ( 'NONE', *, *, #48, .F. ) ;
#900 = CARTESIAN_POINT ( 'NONE',  ( -7.534771417905261615E-12, -14.64000000000141632, 69.00000000000260059 ) ) ;
#901 = ORIENTED_EDGE ( 'NONE', *, *, #1127, .F. ) ;
#902 = DIRECTION ( 'NONE',  ( 1.023192829898184810E-14, -1.000000000000000000, -3.293034395074617746E-15 ) ) ;
#903 = CARTESIAN_POINT ( 'NONE',  ( -15.10000000000712461, -17.13999999999265356, 66.00000000000260059 ) ) ;
#904 = DIRECTION ( 'NONE',  ( 9.469014606862317997E-17, -1.000000000000000000, 0.000000000000000000 ) ) ;
#905 = ORIENTED_EDGE ( 'NONE', *, *, #706, .T. ) ;
#906 = PRODUCT_DEFINITION_FORMATION_WITH_SPECIFIED_SOURCE ( 'ANY', '', #416, .NOT_KNOWN. ) ;
#907 = AXIS2_PLACEMENT_3D ( 'NONE', #595, #1119, #1004 ) ;
#908 = CARTESIAN_POINT ( 'NONE',  ( 19.99999999999083755, 4.500000000000000000, 32.10000000000471942 ) ) ;
#909 = AXIS2_PLACEMENT_3D ( 'NONE', #481, #894, #1316 ) ;
#910 = EDGE_LOOP ( 'NONE', ( #205, #359, #515, #821, #1059, #1090 ) ) ;
#911 = FACE_OUTER_BOUND ( 'NONE', #342, .T. ) ;
#912 = DIRECTION ( 'NONE',  ( 1.936656130602091040E-16, 4.776315140823657918E-16, -1.000000000000000000 ) ) ;
#913 = EDGE_CURVE ( 'NONE', #327, #465, #1073, .T. ) ;
#914 = ORIENTED_EDGE ( 'NONE', *, *, #226, .T. ) ;
#915 = ORIENTED_EDGE ( 'NONE', *, *, #772, .T. ) ;
#916 = DIRECTION ( 'NONE',  ( -1.000000000000000000, -0.000000000000000000, -0.000000000000000000 ) ) ;
#917 = CARTESIAN_POINT ( 'NONE',  ( -12.55000000000753424, -14.64000000000141632, 74.00000000000260059 ) ) ;
#918 = PRODUCT_CONTEXT ( 'NONE', #791, 'mechanical' ) ;
#919 = ORIENTED_EDGE ( 'NONE', *, *, #1337, .F. ) ;
#920 = UNCERTAINTY_MEASURE_WITH_UNIT (LENGTH_MEASURE( 1.000000000000000082E-05 ), #1188, 'distance_accuracy_value', 'NONE');
#921 = CARTESIAN_POINT ( 'NONE',  ( -7.534771417905261615E-12, -14.64000000000141632, 74.00000000000260059 ) ) ;
#922 = DIRECTION ( 'NONE',  ( 1.000000000000000000, 2.046973701650547560E-16, -2.297646988048751389E-16 ) ) ;
#923 = LINE ( 'NONE', #806, #756 ) ;
#924 = VERTEX_POINT ( 'NONE', #587 ) ;
#925 = CIRCLE ( 'NONE', #1123, 1.749999999999806155 ) ;
#926 =( NAMED_UNIT ( * ) PLANE_ANGLE_UNIT ( ) SI_UNIT ( $, .RADIAN. ) );
#927 = EDGE_CURVE ( 'NONE', #147, #457, #152, .T. ) ;
#928 = AXIS2_PLACEMENT_3D ( 'NONE', #1068, #853, #1161 ) ;
#929 = PLANE ( 'NONE',  #1306 ) ;
#930 = AXIS2_PLACEMENT_3D ( 'NONE', #921, #413, #1026 ) ;
#931 = CIRCLE ( 'NONE', #417, 2.750000000000000000 ) ;
#932 = LINE ( 'NONE', #917, #47 ) ;
#933 = FILL_AREA_STYLE_COLOUR ( '', #1076 ) ;
#934 = ORIENTED_EDGE ( 'NONE', *, *, #607, .T. ) ;
#935 = CARTESIAN_POINT ( 'NONE',  ( 19.99999999999118572, -1.351058607270290175E-14, 32.10000000000437836 ) ) ;
#936 = DIRECTION ( 'NONE',  ( 1.000000000000000000, 9.912705577010322197E-15, 1.224646799147282210E-16 ) ) ;
#937 = CARTESIAN_POINT ( 'NONE',  ( 15.09999999999286402, -7.139999999992305391, 69.00000000000260059 ) ) ;
#938 = APPLICATION_PROTOCOL_DEFINITION ( 'draft international standard', 'automotive_design', 1998, #791 ) ;
#939 = ORIENTED_EDGE ( 'NONE', *, *, #649, .F. ) ;
#940 = VERTEX_POINT ( 'NONE', #775 ) ;
#941 = DIRECTION ( 'NONE',  ( 0.000000000000000000, 1.000000000000000000, 0.000000000000000000 ) ) ;
#942 = CARTESIAN_POINT ( 'NONE',  ( -15.10000000000727738, -17.13999999999256119, 37.00000000000264322 ) ) ;
#943 = FACE_OUTER_BOUND ( 'NONE', #1046, .T. ) ;
#944 = EDGE_CURVE ( 'NONE', #624, #1294, #1091, .T. ) ;
#945 = VERTEX_POINT ( 'NONE', #163 ) ;
#946 = ORIENTED_EDGE ( 'NONE', *, *, #1152, .T. ) ;
#947 = CARTESIAN_POINT ( 'NONE',  ( -15.10000000000712461, -17.13999999999265356, 66.00000000000260059 ) ) ;
#948 = DIRECTION ( 'NONE',  ( -1.022452909681694297E-14, 1.000000000000000000, 2.392722035830078873E-15 ) ) ;
#949 = VECTOR ( 'NONE', #626, 1000.000000000000000 ) ;
#950 = CARTESIAN_POINT ( 'NONE',  ( -10.05000000000870486, -42.62533892259644119, 25.00000000000000000 ) ) ;
#951 = VECTOR ( 'NONE', #801, 1000.000000000000000 ) ;
#952 = ADVANCED_FACE ( 'NONE', ( #1311 ), #582, .F. ) ;
#953 = VERTEX_POINT ( 'NONE', #74 ) ;
#954 = VERTEX_POINT ( 'NONE', #1203 ) ;
#955 = DIRECTION ( 'NONE',  ( -8.016282236494488271E-17, 1.000000000000000000, 0.000000000000000000 ) ) ;
#956 = CARTESIAN_POINT ( 'NONE',  ( -2.250000000000895284, -0.5000000000007426282, 9.000000000000000000 ) ) ;
#957 = DIRECTION ( 'NONE',  ( -3.294700853571369991E-29, 3.222349726206033863E-15, -1.000000000000000000 ) ) ;
#958 = ORIENTED_EDGE ( 'NONE', *, *, #329, .T. ) ;
#959 = EDGE_CURVE ( 'NONE', #251, #1226, #981, .T. ) ;
#960 = ORIENTED_EDGE ( 'NONE', *, *, #592, .T. ) ;
#961 = CARTESIAN_POINT ( 'NONE',  ( -15.10000000000712639, 4.499999999999613642, 32.00000000000260059 ) ) ;
#962 = FACE_OUTER_BOUND ( 'NONE', #142, .T. ) ;
#963 = DIRECTION ( 'NONE',  ( 0.000000000000000000, 0.000000000000000000, 1.000000000000000000 ) ) ;
#964 = CYLINDRICAL_SURFACE ( 'NONE', #392, 12.54999999999999893 ) ;
#965 = ORIENTED_EDGE ( 'NONE', *, *, #1111, .T. ) ;
#966 = CARTESIAN_POINT ( 'NONE',  ( 9.049999999991568345, -51.62187929912985140, 32.00000000000248690 ) ) ;
#967 = EDGE_CURVE ( 'NONE', #1191, #873, #144, .T. ) ;
#968 = CARTESIAN_POINT ( 'NONE',  ( 15.09999999999287112, -7.139999999992291180, 37.00000000000264322 ) ) ;
#969 = VERTEX_POINT ( 'NONE', #1096 ) ;
#970 = DIRECTION ( 'NONE',  ( 1.387778780781445922E-16, 4.811009610343194060E-16, -1.000000000000000000 ) ) ;
#971 = AXIS2_PLACEMENT_3D ( 'NONE', #439, #335, #659 ) ;
#972 = AXIS2_PLACEMENT_3D ( 'NONE', #155, #172, #687 ) ;
#973 = ORIENTED_EDGE ( 'NONE', *, *, #722, .T. ) ;
#974 = AXIS2_PLACEMENT_3D ( 'NONE', #112, #1137, #752 ) ;
#975 = ORIENTED_EDGE ( 'NONE', *, *, #319, .F. ) ;
#976 = CYLINDRICAL_SURFACE ( 'NONE', #214, 1.749999999999806155 ) ;
#977 = PLANE ( 'NONE',  #909 ) ;
#978 = DIRECTION ( 'NONE',  ( -1.000000000000000000, -9.469014606862200900E-17, 0.000000000000000000 ) ) ;
#979 = DIRECTION ( 'NONE',  ( 0.000000000000000000, 1.000000000000000000, 0.000000000000000000 ) ) ;
#980 = ORIENTED_EDGE ( 'NONE', *, *, #73, .T. ) ;
#981 = LINE ( 'NONE', #686, #570 ) ;
#982 = ORIENTED_EDGE ( 'NONE', *, *, #1159, .F. ) ;
#983 = DIRECTION ( 'NONE',  ( 0.000000000000000000, 0.000000000000000000, 1.000000000000000000 ) ) ;
#984 = EDGE_CURVE ( 'NONE', #491, #1141, #870, .T. ) ;
#985 = CARTESIAN_POINT ( 'NONE',  ( -15.10000000000682263, -46.63999999999265356, 66.00000000000250111 ) ) ;
#986 = EDGE_CURVE ( 'NONE', #674, #954, #996, .T. ) ;
#987 = ORIENTED_EDGE ( 'NONE', *, *, #1094, .T. ) ;
#988 = DIRECTION ( 'NONE',  ( -0.000000000000000000, -0.000000000000000000, 1.000000000000000000 ) ) ;
#989 = ORIENTED_EDGE ( 'NONE', *, *, #1214, .T. ) ;
#990 = CARTESIAN_POINT ( 'NONE',  ( -10.06243012398173597, -7.139999999992309831, 16.25120485427522610 ) ) ;
#991 = VECTOR ( 'NONE', #1115, 1000.000000000000000 ) ;
#992 = DIRECTION ( 'NONE',  ( -0.000000000000000000, 1.000000000000000000, -0.000000000000000000 ) ) ;
#993 = VECTOR ( 'NONE', #922, 1000.000000000000000 ) ;
#994 = ADVANCED_FACE ( 'NONE', ( #782, #487 ), #977, .T. ) ;
#995 = ORIENTED_EDGE ( 'NONE', *, *, #728, .T. ) ;
#996 = CIRCLE ( 'NONE', #827, 2.750000000000000000 ) ;
#997 = CARTESIAN_POINT ( 'NONE',  ( -5.000000000000895284, -0.5000000000007429612, 9.000000000000000000 ) ) ;
#998 = DIRECTION ( 'NONE',  ( -2.046973701650546574E-16, 1.000000000000000000, 4.811009610343194060E-16 ) ) ;
#999 = LINE ( 'NONE', #368, #691 ) ;
#1000 = DIRECTION ( 'NONE',  ( 0.7071067811865442421, 6.695604439666701845E-17, 0.7071067811865509034 ) ) ;
#1001 = EDGE_LOOP ( 'NONE', ( #1301, #602, #613, #210 ) ) ;
#1002 = CARTESIAN_POINT ( 'NONE',  ( -9.550000000007534240, -14.64000000000141632, 74.00000000000260059 ) ) ;
#1003 = VERTEX_POINT ( 'NONE', #56 ) ;
#1004 = DIRECTION ( 'NONE',  ( 0.000000000000000000, 0.000000000000000000, 1.000000000000000000 ) ) ;
#1005 = LINE ( 'NONE', #903, #1327 ) ;
#1006 = PLANE ( 'NONE',  #170 ) ;
#1007 = ORIENTED_EDGE ( 'NONE', *, *, #832, .T. ) ;
#1008 = PRESENTATION_STYLE_ASSIGNMENT (( #297 ) ) ;
#1009 = ADVANCED_FACE ( 'NONE', ( #762, #1175, #248 ), #1288, .F. ) ;
#1010 = ORIENTED_EDGE ( 'NONE', *, *, #1100, .T. ) ;
#1011 = FACE_BOUND ( 'NONE', #346, .T. ) ;
#1012 = CARTESIAN_POINT ( 'NONE',  ( 15.09999999999287468, -32.13999999999213486, -1.110174064921426271E-12 ) ) ;
#1013 = VERTEX_POINT ( 'NONE', #968 ) ;
#1014 = VECTOR ( 'NONE', #1156, 1000.000000000000000 ) ;
#1015 = AXIS2_PLACEMENT_3D ( 'NONE', #703, #394, #1227 ) ;
#1016 = AXIS2_PLACEMENT_3D ( 'NONE', #900, #1125, #516 ) ;
#1017 = VERTEX_POINT ( 'NONE', #817 ) ;
#1018 = PLANE ( 'NONE',  #395 ) ;
#1019 = PLANE ( 'NONE',  #1305 ) ;
#1020 = VERTEX_POINT ( 'NONE', #908 ) ;
#1021 = PLANE ( 'NONE',  #506 ) ;
#1022 = CARTESIAN_POINT ( 'NONE',  ( -9.499999999999998224, 4.500000000000000000, 0.000000000000000000 ) ) ;
#1023 = CARTESIAN_POINT ( 'NONE',  ( -15.10000000000712461, -17.13999999999229118, 1.530024247358112623E-14 ) ) ;
#1024 = EDGE_CURVE ( 'NONE', #251, #773, #1117, .T. ) ;
#1025 = ORIENTED_EDGE ( 'NONE', *, *, #788, .F. ) ;
#1026 = DIRECTION ( 'NONE',  ( -1.000000000000000000, 0.000000000000000000, 0.000000000000000000 ) ) ;
#1027 = CARTESIAN_POINT ( 'NONE',  ( -18.30000000000485372, 4.500000000000000000, 33.80000000000494254 ) ) ;
#1028 = CARTESIAN_POINT ( 'NONE',  ( -9.050000000008731504, -51.62187929912985140, 32.00000000000194689 ) ) ;
#1029 = ORIENTED_EDGE ( 'NONE', *, *, #1040, .T. ) ;
#1030 = VECTOR ( 'NONE', #898, 1000.000000000000000 ) ;
#1031 = AXIS2_PLACEMENT_3D ( 'NONE', #596, #574, #286 ) ;
#1032 = PLANE ( 'NONE',  #240 ) ;
#1033 = VECTOR ( 'NONE', #1166, 1000.000000000000000 ) ;
#1034 = LINE ( 'NONE', #1061, #949 ) ;
#1035 = AXIS2_PLACEMENT_3D ( 'NONE', #557, #339, #852 ) ;
#1036 = DIRECTION ( 'NONE',  ( 0.000000000000000000, 1.000000000000000000, 0.000000000000000000 ) ) ;
#1037 = SHAPE_DEFINITION_REPRESENTATION ( #1211, #1254 ) ;
#1038 = ORIENTED_EDGE ( 'NONE', *, *, #1170, .F. ) ;
#1039 = ORIENTED_EDGE ( 'NONE', *, *, #1100, .F. ) ;
#1040 = EDGE_CURVE ( 'NONE', #739, #1343, #888, .T. ) ;
#1041 = DIRECTION ( 'NONE',  ( 7.711663511507810474E-14, -1.000000000000000000, -7.702194496900876598E-14 ) ) ;
#1042 = EDGE_CURVE ( 'NONE', #477, #1017, #384, .T. ) ;
#1043 = DIRECTION ( 'NONE',  ( -1.000000000000000000, 0.000000000000000000, 0.000000000000000000 ) ) ;
#1044 = CARTESIAN_POINT ( 'NONE',  ( -9.050000000008704859, 0.000000000000000000, 25.00000000000000000 ) ) ;
#1045 = VERTEX_POINT ( 'NONE', #601 ) ;
#1046 = EDGE_LOOP ( 'NONE', ( #637, #1224, #667, #1025 ) ) ;
#1047 = LINE ( 'NONE', #639, #483 ) ;
#1048 = DIRECTION ( 'NONE',  ( 0.000000000000000000, 0.000000000000000000, 1.000000000000000000 ) ) ;
#1049 = ADVANCED_FACE ( 'NONE', ( #720 ), #1021, .F. ) ;
#1050 = CARTESIAN_POINT ( 'NONE',  ( -3.294700853571020087E-30, -31.88999999999266066, 66.00000000000255795 ) ) ;
#1051 = ORIENTED_EDGE ( 'NONE', *, *, #187, .F. ) ;
#1052 = VERTEX_POINT ( 'NONE', #391 ) ;
#1053 = DIRECTION ( 'NONE',  ( 0.000000000000000000, 0.000000000000000000, -1.000000000000000000 ) ) ;
#1054 = CARTESIAN_POINT ( 'NONE',  ( 12.54999999999246718, -14.64000000000141455, 74.00000000000260059 ) ) ;
#1055 = CLOSED_SHELL ( 'NONE', ( #1291, #1072, #520, #514, #849, #493, #1134, #224, #151, #529, #511, #1267, #1300, #371, #1049, #1189, #111, #617, #682, #1009, #753, #847, #676, #428, #600, #369, #58, #398, #646, #610, #406, #414, #244, #1317, #1293, #658, #994, #31, #952, #765, #267, #1282 ) ) ;
#1056 = LINE ( 'NONE', #37, #734 ) ;
#1057 = EDGE_CURVE ( 'NONE', #140, #1116, #759, .T. ) ;
#1058 = ORIENTED_EDGE ( 'NONE', *, *, #338, .T. ) ;
#1059 = ORIENTED_EDGE ( 'NONE', *, *, #1310, .T. ) ;
#1060 = LINE ( 'NONE', #856, #242 ) ;
#1061 = CARTESIAN_POINT ( 'NONE',  ( 9.049999999991598543, 0.000000000000000000, 25.00000000000000000 ) ) ;
#1062 = DIRECTION ( 'NONE',  ( -1.000000000000000000, 0.000000000000000000, -0.000000000000000000 ) ) ;
#1063 = ORIENTED_EDGE ( 'NONE', *, *, #313, .F. ) ;
#1064 = EDGE_CURVE ( 'NONE', #605, #477, #109, .T. ) ;
#1065 = VERTEX_POINT ( 'NONE', #1232 ) ;
#1066 = FACE_OUTER_BOUND ( 'NONE', #809, .T. ) ;
#1067 = DIRECTION ( 'NONE',  ( 1.000000000000000000, 0.000000000000000000, 0.000000000000000000 ) ) ;
#1068 = CARTESIAN_POINT ( 'NONE',  ( 4.999999999999104716, -0.5000000000006457057, 0.000000000000000000 ) ) ;
#1069 = DIRECTION ( 'NONE',  ( -1.000000000000000000, 0.000000000000000000, 0.000000000000000000 ) ) ;
#1070 = ORIENTED_EDGE ( 'NONE', *, *, #984, .F. ) ;
#1071 = CARTESIAN_POINT ( 'NONE',  ( 7.749999999999104716, -0.5000000000006454837, 9.000000000000000000 ) ) ;
#1072 = ADVANCED_FACE ( 'NONE', ( #1112 ), #620, .F. ) ;
#1073 = LINE ( 'NONE', #576, #440 ) ;
#1074 = ORIENTED_EDGE ( 'NONE', *, *, #41, .F. ) ;
#1075 = DIRECTION ( 'NONE',  ( -0.000000000000000000, -0.000000000000000000, -1.000000000000000000 ) ) ;
#1076 = COLOUR_RGB ( '',1.000000000000000000, 1.000000000000000000, 0.000000000000000000 ) ;
#1077 = CIRCLE ( 'NONE', #4, 12.55000000000000249 ) ;
#1078 = MANIFOLD_SOLID_BREP ( 'Dodanie-wyci¹gniêcie16', #1055 ) ;
#1079 = AXIS2_PLACEMENT_3D ( 'NONE', #463, #998, #52 ) ;
#1080 = DIRECTION ( 'NONE',  ( 1.000000000000000000, 1.022452909681694297E-14, 0.000000000000000000 ) ) ;
#1081 = AXIS2_PLACEMENT_3D ( 'NONE', #186, #290, #492 ) ;
#1082 = ORIENTED_EDGE ( 'NONE', *, *, #1198, .F. ) ;
#1083 = FACE_BOUND ( 'NONE', #498, .T. ) ;
#1084 = EDGE_CURVE ( 'NONE', #1116, #390, #263, .T. ) ;
#1085 = DIRECTION ( 'NONE',  ( -1.000000000000000000, 0.000000000000000000, 0.000000000000000000 ) ) ;
#1086 = EDGE_CURVE ( 'NONE', #140, #180, #793, .T. ) ;
#1087 = ORIENTED_EDGE ( 'NONE', *, *, #385, .F. ) ;
#1088 = LINE ( 'NONE', #990, #1145 ) ;
#1089 = PLANE ( 'NONE',  #67 ) ;
#1090 = ORIENTED_EDGE ( 'NONE', *, *, #530, .T. ) ;
#1091 = LINE ( 'NONE', #769, #1196 ) ;
#1092 = ORIENTED_EDGE ( 'NONE', *, *, #1257, .T. ) ;
#1093 = FACE_OUTER_BOUND ( 'NONE', #766, .T. ) ;
#1094 = EDGE_CURVE ( 'NONE', #24, #794, #712, .T. ) ;
#1095 = EDGE_LOOP ( 'NONE', ( #1217, #23, #690, #32, #750, #1303 ) ) ;
#1096 = CARTESIAN_POINT ( 'NONE',  ( -20.00000000000894929, 4.499999999999612754, -3.326770642060266392E-14 ) ) ;
#1097 = DIRECTION ( 'NONE',  ( 1.000000000000000000, 2.046973701650547560E-16, -2.297646988048751389E-16 ) ) ;
#1098 = MECHANICAL_DESIGN_GEOMETRIC_PRESENTATION_REPRESENTATION (  '', ( #347 ), #500 ) ;
#1099 = CIRCLE ( 'NONE', #928, 2.750000000000000000 ) ;
#1100 = EDGE_CURVE ( 'NONE', #594, #1157, #279, .T. ) ;
#1101 = DIRECTION ( 'NONE',  ( 2.968879978786176490E-14, 0.000000000000000000, -1.000000000000000000 ) ) ;
#1102 = VECTOR ( 'NONE', #1097, 1000.000000000000000 ) ;
#1103 = EDGE_LOOP ( 'NONE', ( #80, #441, #1309, #980 ) ) ;
#1104 = CIRCLE ( 'NONE', #527, 1.000000000000000888 ) ;
#1105 = DIRECTION ( 'NONE',  ( -1.000000000000000000, -1.033941144621938120E-14, 0.000000000000000000 ) ) ;
#1106 = VERTEX_POINT ( 'NONE', #179 ) ;
#1107 = DIRECTION ( 'NONE',  ( -0.000000000000000000, -0.000000000000000000, -1.000000000000000000 ) ) ;
#1108 = LINE ( 'NONE', #679, #236 ) ;
#1109 = DIRECTION ( 'NONE',  ( -9.469014606862200900E-17, 1.000000000000000000, 0.000000000000000000 ) ) ;
#1110 = EDGE_LOOP ( 'NONE', ( #87, #259, #581, #563 ) ) ;
#1111 = EDGE_CURVE ( 'NONE', #624, #24, #593, .T. ) ;
#1112 = FACE_OUTER_BOUND ( 'NONE', #95, .T. ) ;
#1113 = ORIENTED_EDGE ( 'NONE', *, *, #15, .T. ) ;
#1114 = FACE_OUTER_BOUND ( 'NONE', #1247, .T. ) ;
#1115 = DIRECTION ( 'NONE',  ( -0.000000000000000000, 3.221629312528080664E-15, -1.000000000000000000 ) ) ;
#1116 = VERTEX_POINT ( 'NONE', #316 ) ;
#1117 = LINE ( 'NONE', #85, #421 ) ;
#1118 = ORIENTED_EDGE ( 'NONE', *, *, #1084, .T. ) ;
#1119 = DIRECTION ( 'NONE',  ( 0.000000000000000000, 1.000000000000000000, 0.000000000000000000 ) ) ;
#1120 = DIRECTION ( 'NONE',  ( -1.025221574302293624E-14, 1.000000000000000000, 0.000000000000000000 ) ) ;
#1121 = FILL_AREA_STYLE ('',( #933 ) ) ;
#1122 = ORIENTED_EDGE ( 'NONE', *, *, #1084, .F. ) ;
#1123 = AXIS2_PLACEMENT_3D ( 'NONE', #684, #59, #485 ) ;
#1124 = VECTOR ( 'NONE', #264, 1000.000000000000000 ) ;
#1125 = DIRECTION ( 'NONE',  ( 0.000000000000000000, 0.000000000000000000, 1.000000000000000000 ) ) ;
#1126 = AXIS2_PLACEMENT_3D ( 'NONE', #633, #625, #423 ) ;
#1127 = EDGE_CURVE ( 'NONE', #494, #969, #337, .T. ) ;
#1128 = PLANE ( 'NONE',  #238 ) ;
#1129 = EDGE_CURVE ( 'NONE', #1292, #885, #1269, .T. ) ;
#1130 = CARTESIAN_POINT ( 'NONE',  ( 10.06243012396666714, -7.139999999992311608, 37.00000000000264322 ) ) ;
#1131 = ORIENTED_EDGE ( 'NONE', *, *, #209, .F. ) ;
#1132 = CARTESIAN_POINT ( 'NONE',  ( 19.99999999999287326, -32.13999999999207802, -1.109573987989843966E-12 ) ) ;
#1133 = DIRECTION ( 'NONE',  ( 1.084202172485505790E-16, -4.811009610343194060E-16, 1.000000000000000000 ) ) ;
#1134 = ADVANCED_FACE ( 'NONE', ( #231 ), #725, .F. ) ;
#1135 = VERTEX_POINT ( 'NONE', #211 ) ;
#1136 = DIRECTION ( 'NONE',  ( -0.000000000000000000, 3.221629312528080664E-15, -1.000000000000000000 ) ) ;
#1137 = DIRECTION ( 'NONE',  ( 0.000000000000000000, 0.000000000000000000, -1.000000000000000000 ) ) ;
#1138 = CARTESIAN_POINT ( 'NONE',  ( 15.09999999999287112, -7.139999999992291180, 37.00000000000267164 ) ) ;
#1139 =( NAMED_UNIT ( * ) SI_UNIT ( $, .STERADIAN. ) SOLID_ANGLE_UNIT ( ) );
#1140 = EDGE_CURVE ( 'NONE', #403, #953, #1047, .T. ) ;
#1141 = VERTEX_POINT ( 'NONE', #655 ) ;
#1142 = ORIENTED_EDGE ( 'NONE', *, *, #944, .F. ) ;
#1143 = VECTOR ( 'NONE', #258, 1000.000000000000000 ) ;
#1144 = CARTESIAN_POINT ( 'NONE',  ( -10.05000000000563176, -17.13999999999232671, -3.735567596801608553E-13 ) ) ;
#1145 = VECTOR ( 'NONE', #671, 1000.000000000000000 ) ;
#1146 = CYLINDRICAL_SURFACE ( 'NONE', #867, 2.750000000000000000 ) ;
#1147 = VECTOR ( 'NONE', #381, 1000.000000000000000 ) ;
#1148 = DIRECTION ( 'NONE',  ( 1.000000000000000000, 7.711663511507759987E-14, 6.649773324577366361E-15 ) ) ;
#1149 = DIRECTION ( 'NONE',  ( -0.000000000000000000, -0.000000000000000000, -1.000000000000000000 ) ) ;
#1150 = ORIENTED_EDGE ( 'NONE', *, *, #967, .F. ) ;
#1151 = CARTESIAN_POINT ( 'NONE',  ( 9.049999999991598543, -4.500000000000000000, 26.00000000000000355 ) ) ;
#1152 = EDGE_CURVE ( 'NONE', #773, #850, #1104, .T. ) ;
#1153 = DIRECTION ( 'NONE',  ( 1.000000000000000000, 2.046973701650403839E-16, 2.968879978786176490E-14 ) ) ;
#1154 = LINE ( 'NONE', #118, #501 ) ;
#1155 = APPLICATION_CONTEXT ( 'automotive_design' ) ;
#1156 = DIRECTION ( 'NONE',  ( -6.649773324577365572E-15, 0.000000000000000000, 1.000000000000000000 ) ) ;
#1157 = VERTEX_POINT ( 'NONE', #550 ) ;
#1158 = DIRECTION ( 'NONE',  ( -0.000000000000000000, -0.000000000000000000, 1.000000000000000000 ) ) ;
#1159 = EDGE_CURVE ( 'NONE', #188, #223, #830, .T. ) ;
#1160 = DIRECTION ( 'NONE',  ( -1.000000000000000000, 0.000000000000000000, 0.000000000000000000 ) ) ;
#1161 = DIRECTION ( 'NONE',  ( -1.000000000000000000, 0.000000000000000000, 0.000000000000000000 ) ) ;
#1162 = ORIENTED_EDGE ( 'NONE', *, *, #722, .F. ) ;
#1163 = VERTEX_POINT ( 'NONE', #536 ) ;
#1164 = DIRECTION ( 'NONE',  ( -9.912705577010322197E-15, 1.000000000000000000, 3.221629312528145745E-15 ) ) ;
#1165 = VECTOR ( 'NONE', #1248, 1000.000000000000000 ) ;
#1166 = DIRECTION ( 'NONE',  ( 1.025221574302293466E-14, -1.000000000000000000, 1.015752559695420963E-14 ) ) ;
#1167 = VECTOR ( 'NONE', #1107, 1000.000000000000000 ) ;
#1168 =( GEOMETRIC_REPRESENTATION_CONTEXT ( 3 ) GLOBAL_UNCERTAINTY_ASSIGNED_CONTEXT ( ( #786 ) ) GLOBAL_UNIT_ASSIGNED_CONTEXT ( ( #100, #926, #206 ) ) REPRESENTATION_CONTEXT ( 'NONE', 'WORKASPACE' ) );
#1169 = PLANE ( 'NONE',  #692 ) ;
#1170 = EDGE_CURVE ( 'NONE', #873, #1183, #840, .T. ) ;
#1171 = PRESENTATION_LAYER_ASSIGNMENT (  '', '', ( #347 ) ) ;
#1172 = DIRECTION ( 'NONE',  ( 0.000000000000000000, -1.000000000000000000, 0.000000000000000000 ) ) ;
#1173 = EDGE_LOOP ( 'NONE', ( #528, #702, #145, #695 ) ) ;
#1174 = PLANE ( 'NONE',  #586 ) ;
#1175 = FACE_BOUND ( 'NONE', #45, .T. ) ;
#1176 = EDGE_LOOP ( 'NONE', ( #792, #218, #567, #5, #680, #534 ) ) ;
#1177 = CARTESIAN_POINT ( 'NONE',  ( -9.499999999999996447, -4.500000000000000000, 0.000000000000000000 ) ) ;
#1178 = EDGE_CURVE ( 'NONE', #594, #1052, #1060, .T. ) ;
#1179 = ORIENTED_EDGE ( 'NONE', *, *, #269, .T. ) ;
#1180 = ORIENTED_EDGE ( 'NONE', *, *, #33, .F. ) ;
#1181 = DIRECTION ( 'NONE',  ( -9.469014606862317997E-17, 1.000000000000000000, 0.000000000000000000 ) ) ;
#1182 = LINE ( 'NONE', #669, #1147 ) ;
#1183 = VERTEX_POINT ( 'NONE', #751 ) ;
#1184 = DIRECTION ( 'NONE',  ( 9.469014606862200900E-17, -1.000000000000000000, 0.000000000000000000 ) ) ;
#1185 = DIRECTION ( 'NONE',  ( -2.297646988048751389E-16, -0.000000000000000000, -1.000000000000000000 ) ) ;
#1186 = EDGE_CURVE ( 'NONE', #1020, #24, #556, .T. ) ;
#1187 = ORIENTED_EDGE ( 'NONE', *, *, #554, .F. ) ;
#1188 =( LENGTH_UNIT ( ) NAMED_UNIT ( * ) SI_UNIT ( .MILLI., .METRE. ) );
#1189 = ADVANCED_FACE ( 'NONE', ( #225 ), #1032, .F. ) ;
#1190 = CARTESIAN_POINT ( 'NONE',  ( -7.534771417905261615E-12, -14.64000000000141632, 74.00000000000260059 ) ) ;
#1191 = VERTEX_POINT ( 'NONE', #1144 ) ;
#1192 = LINE ( 'NONE', #488, #1102 ) ;
#1193 = CIRCLE ( 'NONE', #566, 9.549999999999998934 ) ;
#1194 = VECTOR ( 'NONE', #747, 1000.000000000000000 ) ;
#1195 = CARTESIAN_POINT ( 'NONE',  ( -10.06243012398173597, -7.139999999992310720, 69.00000000000260059 ) ) ;
#1196 = VECTOR ( 'NONE', #261, 1000.000000000000000 ) ;
#1197 = ORIENTED_EDGE ( 'NONE', *, *, #354, .T. ) ;
#1198 = EDGE_CURVE ( 'NONE', #223, #1226, #1262, .T. ) ;
#1199 = LINE ( 'NONE', #889, #1218 ) ;
#1200 = PLANE ( 'NONE',  #1330 ) ;
#1201 = CARTESIAN_POINT ( 'NONE',  ( -9.499999999999996447, -4.500000000000000000, 25.00000000000000000 ) ) ;
#1202 = ORIENTED_EDGE ( 'NONE', *, *, #538, .F. ) ;
#1203 = CARTESIAN_POINT ( 'NONE',  ( -2.250000000000895284, -0.5000000000007426282, 9.000000000000000000 ) ) ;
#1204 = EDGE_LOOP ( 'NONE', ( #379, #651, #642, #386, #535, #309 ) ) ;
#1205 = DIRECTION ( 'NONE',  ( -1.000000000000000000, 0.000000000000000000, 0.000000000000000000 ) ) ;
#1206 = CARTESIAN_POINT ( 'NONE',  ( -20.00000000000894929, 4.499999999999612754, -3.326770642060266392E-14 ) ) ;
#1207 = VERTEX_POINT ( 'NONE', #947 ) ;
#1208 = DIRECTION ( 'NONE',  ( 0.000000000000000000, 0.000000000000000000, 1.000000000000000000 ) ) ;
#1209 = EDGE_LOOP ( 'NONE', ( #246, #1285, #298, #301 ) ) ;
#1210 = CYLINDRICAL_SURFACE ( 'NONE', #419, 12.54999999999999893 ) ;
#1211 = PRODUCT_DEFINITION_SHAPE ( 'NONE', 'NONE',  #738 ) ;
#1212 = CIRCLE ( 'NONE', #1280, 1.000000000000000888 ) ;
#1213 = DIRECTION ( 'NONE',  ( -2.046973701650546820E-16, 1.000000000000000000, 4.776315140823657918E-16 ) ) ;
#1214 = EDGE_CURVE ( 'NONE', #1003, #184, #110, .T. ) ;
#1215 = DIRECTION ( 'NONE',  ( 1.000000000000000000, 0.000000000000000000, 0.000000000000000000 ) ) ;
#1216 = CIRCLE ( 'NONE', #628, 9.549999999999998934 ) ;
#1217 = ORIENTED_EDGE ( 'NONE', *, *, #699, .F. ) ;
#1218 = VECTOR ( 'NONE', #876, 1000.000000000000114 ) ;
#1219 = SURFACE_SIDE_STYLE ('',( #1345 ) ) ;
#1220 = ORIENTED_EDGE ( 'NONE', *, *, #887, .F. ) ;
#1221 = CYLINDRICAL_SURFACE ( 'NONE', #907, 0.9999999999999974465 ) ;
#1222 = FACE_OUTER_BOUND ( 'NONE', #119, .T. ) ;
#1223 = DIRECTION ( 'NONE',  ( -0.000000000000000000, -0.000000000000000000, 1.000000000000000000 ) ) ;
#1224 = ORIENTED_EDGE ( 'NONE', *, *, #1024, .F. ) ;
#1225 = FILL_AREA_STYLE ('',( #1339 ) ) ;
#1226 = VERTEX_POINT ( 'NONE', #13 ) ;
#1227 = DIRECTION ( 'NONE',  ( -1.000000000000000000, 0.000000000000000000, 0.000000000000000000 ) ) ;
#1228 = LINE ( 'NONE', #526, #991 ) ;
#1229 = DIRECTION ( 'NONE',  ( 1.000000000000000000, 0.000000000000000000, 0.000000000000000000 ) ) ;
#1230 = VERTEX_POINT ( 'NONE', #129 ) ;
#1231 = EDGE_CURVE ( 'NONE', #1157, #115, #1253, .T. ) ;
#1232 = CARTESIAN_POINT ( 'NONE',  ( 9.049999999991568345, 4.500000000000000000, 32.00000000000248690 ) ) ;
#1233 = EDGE_CURVE ( 'NONE', #273, #370, #851, .T. ) ;
#1234 = ORIENTED_EDGE ( 'NONE', *, *, #689, .T. ) ;
#1235 = DIRECTION ( 'NONE',  ( -1.000000000000000000, 0.000000000000000000, 0.000000000000000000 ) ) ;
#1236 = FACE_OUTER_BOUND ( 'NONE', #743, .T. ) ;
#1237 = AXIS2_PLACEMENT_3D ( 'NONE', #176, #1295, #1215 ) ;
#1238 = AXIS2_PLACEMENT_3D ( 'NONE', #950, #250, #664 ) ;
#1239 = ORIENTED_EDGE ( 'NONE', *, *, #125, .F. ) ;
#1240 = AXIS2_PLACEMENT_3D ( 'NONE', #1050, #957, #748 ) ;
#1241 = CIRCLE ( 'NONE', #717, 2.750000000000000000 ) ;
#1242 = DIRECTION ( 'NONE',  ( -0.000000000000000000, -0.000000000000000000, -1.000000000000000000 ) ) ;
#1243 = CIRCLE ( 'NONE', #461, 2.750000000000000000 ) ;
#1244 = EDGE_CURVE ( 'NONE', #885, #194, #931, .T. ) ;
#1245 = DIRECTION ( 'NONE',  ( 0.000000000000000000, 0.000000000000000000, 1.000000000000000000 ) ) ;
#1246 = DIRECTION ( 'NONE',  ( -1.000000000000000000, -1.033941144621938120E-14, 0.000000000000000000 ) ) ;
#1247 = EDGE_LOOP ( 'NONE', ( #62, #577, #78, #154, #715, #881 ) ) ;
#1248 = DIRECTION ( 'NONE',  ( -1.025221574302293624E-14, 1.000000000000000000, 3.222349726206034258E-15 ) ) ;
#1249 = FACE_OUTER_BOUND ( 'NONE', #1001, .T. ) ;
#1250 = EDGE_CURVE ( 'NONE', #663, #147, #239, .T. ) ;
#1251 = CARTESIAN_POINT ( 'NONE',  ( 4.405568583554240002E-12, -7.139999999992270752, 2.011125208392432818E-14 ) ) ;
#1252 = ORIENTED_EDGE ( 'NONE', *, *, #125, .T. ) ;
#1253 = LINE ( 'NONE', #321, #3 ) ;
#1254 = ADVANCED_BREP_SHAPE_REPRESENTATION ( '009_010_Spin_servo_mount_2', ( #1078, #523 ), #1260 ) ;
#1255 = LINE ( 'NONE', #14, #844 ) ;
#1256 = CARTESIAN_POINT ( 'NONE',  ( -15.10000000000712994, -7.139999999992291180, 37.00000000000267875 ) ) ;
#1257 = EDGE_CURVE ( 'NONE', #1065, #1135, #875, .T. ) ;
#1258 = ORIENTED_EDGE ( 'NONE', *, *, #1127, .T. ) ;
#1259 = ORIENTED_EDGE ( 'NONE', *, *, #98, .F. ) ;
#1260 =( GEOMETRIC_REPRESENTATION_CONTEXT ( 3 ) GLOBAL_UNCERTAINTY_ASSIGNED_CONTEXT ( ( #920 ) ) GLOBAL_UNIT_ASSIGNED_CONTEXT ( ( #1188, #77, #191 ) ) REPRESENTATION_CONTEXT ( 'NONE', 'WORKASPACE' ) );
#1261 = VECTOR ( 'NONE', #113, 1000.000000000000000 ) ;
#1262 = LINE ( 'NONE', #835, #588 ) ;
#1263 = CARTESIAN_POINT ( 'NONE',  ( 15.09999999999287468, -32.13999999999251145, 37.00000000000264322 ) ) ;
#1264 = AXIS2_PLACEMENT_3D ( 'NONE', #499, #1208, #824 ) ;
#1265 = DIRECTION ( 'NONE',  ( 0.000000000000000000, 1.000000000000000000, 0.000000000000000000 ) ) ;
#1266 = CARTESIAN_POINT ( 'NONE',  ( 19.99999999999105427, 4.500000000000385469, 3.326770642060022160E-14 ) ) ;
#1267 = ADVANCED_FACE ( 'NONE', ( #1066 ), #46, .F. ) ;
#1268 = ORIENTED_EDGE ( 'NONE', *, *, #554, .T. ) ;
#1269 = LINE ( 'NONE', #116, #376 ) ;
#1270 = CARTESIAN_POINT ( 'NONE',  ( -5.000000000000895284, -0.5000000000007429612, 0.000000000000000000 ) ) ;
#1271 = DIRECTION ( 'NONE',  ( 0.000000000000000000, -3.221629312528161522E-15, 1.000000000000000000 ) ) ;
#1272 = VERTEX_POINT ( 'NONE', #1279 ) ;
#1273 = ORIENTED_EDGE ( 'NONE', *, *, #1257, .F. ) ;
#1274 = EDGE_CURVE ( 'NONE', #180, #1157, #497, .T. ) ;
#1275 = DIRECTION ( 'NONE',  ( -0.000000000000000000, -0.000000000000000000, -1.000000000000000000 ) ) ;
#1276 = DIRECTION ( 'NONE',  ( 1.000000000000000000, 0.000000000000000000, 0.000000000000000000 ) ) ;
#1277 = ORIENTED_EDGE ( 'NONE', *, *, #1244, .F. ) ;
#1278 = VERTEX_POINT ( 'NONE', #698 ) ;
#1279 = CARTESIAN_POINT ( 'NONE',  ( -15.10000000000727738, -17.13999999999229118, 1.186005436308785554E-48 ) ) ;
#1280 = AXIS2_PLACEMENT_3D ( 'NONE', #166, #277, #584 ) ;
#1281 = LINE ( 'NONE', #1263, #396 ) ;
#1282 = ADVANCED_FACE ( 'NONE', ( #1321, #1083 ), #389, .T. ) ;
#1283 = CARTESIAN_POINT ( 'NONE',  ( -7.534771417905261615E-12, -14.64000000000141632, 74.00000000000260059 ) ) ;
#1284 = VECTOR ( 'NONE', #143, 1000.000000000000000 ) ;
#1285 = ORIENTED_EDGE ( 'NONE', *, *, #167, .T. ) ;
#1286 = EDGE_LOOP ( 'NONE', ( #1058, #1029 ) ) ;
#1287 = CARTESIAN_POINT ( 'NONE',  ( 20.09999999999295639, 1.903271935978635505E-15, 32.00000000000260059 ) ) ;
#1288 = PLANE ( 'NONE',  #1332 ) ;
#1289 = ORIENTED_EDGE ( 'NONE', *, *, #1274, .T. ) ;
#1290 = CARTESIAN_POINT ( 'NONE',  ( 15.09999999999287112, -61.14045454309901118, 37.00000000000264322 ) ) ;
#1291 = ADVANCED_FACE ( 'NONE', ( #490 ), #976, .F. ) ;
#1292 = VERTEX_POINT ( 'NONE', #1071 ) ;
#1293 = ADVANCED_FACE ( 'NONE', ( #561 ), #1006, .T. ) ;
#1294 = VERTEX_POINT ( 'NONE', #247 ) ;
#1295 = DIRECTION ( 'NONE',  ( 0.000000000000000000, 0.000000000000000000, 1.000000000000000000 ) ) ;
#1296 = DIRECTION ( 'NONE',  ( -1.000000000000000000, -0.000000000000000000, -0.000000000000000000 ) ) ;
#1297 = ORIENTED_EDGE ( 'NONE', *, *, #1231, .F. ) ;
#1298 = FACE_OUTER_BOUND ( 'NONE', #1204, .T. ) ;
#1299 = DIRECTION ( 'NONE',  ( -1.000000000000000000, 0.000000000000000000, -2.968879978786175859E-14 ) ) ;
#1300 = ADVANCED_FACE ( 'NONE', ( #294, #453 ), #761, .T. ) ;
#1301 = ORIENTED_EDGE ( 'NONE', *, *, #1129, .F. ) ;
#1302 = DIRECTION ( 'NONE',  ( 0.000000000000000000, 0.000000000000000000, -1.000000000000000000 ) ) ;
#1303 = ORIENTED_EDGE ( 'NONE', *, *, #1250, .F. ) ;
#1304 = DIRECTION ( 'NONE',  ( 1.000000000000000000, 0.000000000000000000, 0.000000000000000000 ) ) ;
#1305 = AXIS2_PLACEMENT_3D ( 'NONE', #1251, #314, #912 ) ;
#1306 = AXIS2_PLACEMENT_3D ( 'NONE', #812, #615, #621 ) ;
#1307 = FACE_OUTER_BOUND ( 'NONE', #519, .T. ) ;
#1308 = PRESENTATION_LAYER_ASSIGNMENT (  '', '', ( #846 ) ) ;
#1309 = ORIENTED_EDGE ( 'NONE', *, *, #285, .F. ) ;
#1310 = EDGE_CURVE ( 'NONE', #945, #432, #797, .T. ) ;
#1311 = FACE_OUTER_BOUND ( 'NONE', #1315, .T. ) ;
#1312 = ORIENTED_EDGE ( 'NONE', *, *, #1111, .F. ) ;
#1313 = CARTESIAN_POINT ( 'NONE',  ( -20.00000000000915890, 4.499999999999613642, 32.10000000000065512 ) ) ;
#1314 = CARTESIAN_POINT ( 'NONE',  ( -15.10000000000712284, -32.13999999999244039, -5.658131636521553812E-14 ) ) ;
#1315 = EDGE_LOOP ( 'NONE', ( #975, #660, #295, #34 ) ) ;
#1316 = DIRECTION ( 'NONE',  ( 1.000000000000000000, 0.000000000000000000, -0.000000000000000000 ) ) ;
#1317 = ADVANCED_FACE ( 'NONE', ( #364 ), #1174, .T. ) ;
#1318 = EDGE_LOOP ( 'NONE', ( #270, #719, #744, #433 ) ) ;
#1319 = DIRECTION ( 'NONE',  ( -2.046973701650546820E-16, 1.000000000000000000, 4.776315140823657918E-16 ) ) ;
#1320 = CARTESIAN_POINT ( 'NONE',  ( 4.405568583554240002E-12, -7.139999999992270752, 2.011125208392432818E-14 ) ) ;
#1321 = FACE_OUTER_BOUND ( 'NONE', #1209, .T. ) ;
#1322 = ORIENTED_EDGE ( 'NONE', *, *, #269, .F. ) ;
#1323 = CARTESIAN_POINT ( 'NONE',  ( 19.99999999999287326, -32.13999999999207802, -1.109573987989843966E-12 ) ) ;
#1324 = ORIENTED_EDGE ( 'NONE', *, *, #706, .F. ) ;
#1325 = DIRECTION ( 'NONE',  ( -0.000000000000000000, 0.000000000000000000, 1.000000000000000000 ) ) ;
#1326 = VECTOR ( 'NONE', #448, 1000.000000000000000 ) ;
#1327 = VECTOR ( 'NONE', #1080, 1000.000000000000000 ) ;
#1328 = DIRECTION ( 'NONE',  ( 0.000000000000000000, -3.221629312528161522E-15, 1.000000000000000000 ) ) ;
#1329 = DIRECTION ( 'NONE',  ( -1.000000000000000000, 0.000000000000000000, 0.000000000000000000 ) ) ;
#1330 = AXIS2_PLACEMENT_3D ( 'NONE', #795, #978, #1184 ) ;
#1331 = VERTEX_POINT ( 'NONE', #569 ) ;
#1332 = AXIS2_PLACEMENT_3D ( 'NONE', #562, #662, #1067 ) ;
#1333 = DIRECTION ( 'NONE',  ( -1.000000000000000000, -1.025221574302293624E-14, -3.302883875608537675E-29 ) ) ;
#1334 = ORIENTED_EDGE ( 'NONE', *, *, #1233, .F. ) ;
#1335 = DIRECTION ( 'NONE',  ( 0.7071067811865440200, 6.695604439666781963E-17, -0.7071067811865511255 ) ) ;
#1336 = FACE_OUTER_BOUND ( 'NONE', #39, .T. ) ;
#1337 = EDGE_CURVE ( 'NONE', #1017, #1278, #324, .T. ) ;
#1338 = ORIENTED_EDGE ( 'NONE', *, *, #380, .F. ) ;
#1339 = FILL_AREA_STYLE_COLOUR ( '', #94 ) ;
#1340 = ORIENTED_EDGE ( 'NONE', *, *, #728, .F. ) ;
#1341 = DIRECTION ( 'NONE',  ( -9.469014606862317997E-17, 1.000000000000000000, -0.000000000000000000 ) ) ;
#1342 = CARTESIAN_POINT ( 'NONE',  ( -9.499999999999996447, -4.500000000000000000, 25.00000000000000000 ) ) ;
#1343 = VERTEX_POINT ( 'NONE', #597 ) ;
#1344 = EDGE_CURVE ( 'NONE', #486, #1292, #732, .T. ) ;
#1345 = SURFACE_STYLE_FILL_AREA ( #1225 ) ;
#1346 = CARTESIAN_POINT ( 'NONE',  ( 0.000000000000000000, 0.000000000000000000, 25.00000000000000000 ) ) ;
ENDSEC;
END-ISO-10303-21;
