ISO-10303-21;
HEADER;
FILE_DESCRIPTION (( 'STEP AP214' ),
    '1' );
FILE_NAME ('009_006_Up_down_connector_lock.STEP',
    '2024-07-21T08:26:03',
    ( '' ),
    ( '' ),
    'SwSTEP 2.0',
    'SolidWorks 2019',
    '' );
FILE_SCHEMA (( 'AUTOMOTIVE_DESIGN' ));
ENDSEC;

DATA;
#1 = DIRECTION ( 'NONE',  ( -0.000000000000000000, -0.000000000000000000, -1.000000000000000000 ) ) ;
#2 = CIRCLE ( 'NONE', #830, 19.00000000000000000 ) ;
#3 = DIRECTION ( 'NONE',  ( 1.000000000000000000, 0.000000000000000000, 0.000000000000000000 ) ) ;
#4 = CIRCLE ( 'NONE', #120, 3.249999999999999556 ) ;
#5 = FILL_AREA_STYLE ('',( #824 ) ) ;
#6 = CARTESIAN_POINT ( 'NONE',  ( -22.11768017634467398, 13.28209587387546620, 5.000000000000000000 ) ) ;
#7 = CARTESIAN_POINT ( 'NONE',  ( 11.48180680321079983, -6.612912560569967013, 3.000000000000000000 ) ) ;
#8 = DIRECTION ( 'NONE',  ( 0.000000000000000000, 0.000000000000000000, -1.000000000000000000 ) ) ;
#9 = EDGE_LOOP ( 'NONE', ( #681, #218, #692, #305 ) ) ;
#10 = EDGE_LOOP ( 'NONE', ( #892, #745, #755, #182 ) ) ;
#11 = DIRECTION ( 'NONE',  ( 0.000000000000000000, 0.000000000000000000, -1.000000000000000000 ) ) ;
#12 = DIRECTION ( 'NONE',  ( 1.000000000000000000, 0.000000000000000000, 0.000000000000000000 ) ) ;
#13 = ORIENTED_EDGE ( 'NONE', *, *, #348, .F. ) ;
#14 = VECTOR ( 'NONE', #410, 1000.000000000000000 ) ;
#15 = AXIS2_PLACEMENT_3D ( 'NONE', #533, #256, #538 ) ;
#16 =( GEOMETRIC_REPRESENTATION_CONTEXT ( 3 ) GLOBAL_UNCERTAINTY_ASSIGNED_CONTEXT ( ( #754 ) ) GLOBAL_UNIT_ASSIGNED_CONTEXT ( ( #665, #380, #111 ) ) REPRESENTATION_CONTEXT ( 'NONE', 'WORKASPACE' ) );
#17 = ORIENTED_EDGE ( 'NONE', *, *, #549, .T. ) ;
#18 = FACE_BOUND ( 'NONE', #725, .T. ) ;
#19 = FACE_OUTER_BOUND ( 'NONE', #315, .T. ) ;
#20 = ADVANCED_FACE ( 'NONE', ( #100, #242, #364, #236, #852, #581 ), #232, .F. ) ;
#21 = EDGE_LOOP ( 'NONE', ( #33, #17, #887, #260 ) ) ;
#22 = VERTEX_POINT ( 'NONE', #308 ) ;
#23 = DIRECTION ( 'NONE',  ( -0.000000000000000000, -0.000000000000000000, 1.000000000000000000 ) ) ;
#24 = CARTESIAN_POINT ( 'NONE',  ( -44.97996678510912716, -19.04737745755251055, 5.000000000000000000 ) ) ;
#25 = VERTEX_POINT ( 'NONE', #514 ) ;
#26 = ORIENTED_EDGE ( 'NONE', *, *, #60, .F. ) ;
#27 = CARTESIAN_POINT ( 'NONE',  ( 0.000000000000000000, 0.000000000000000000, 3.000000000000000000 ) ) ;
#28 = CARTESIAN_POINT ( 'NONE',  ( 11.48180680321079983, -6.612912560569967013, 0.000000000000000000 ) ) ;
#29 = DIRECTION ( 'NONE',  ( 0.000000000000000000, 0.000000000000000000, 1.000000000000000000 ) ) ;
#30 = EDGE_CURVE ( 'NONE', #578, #809, #473, .T. ) ;
#31 = AXIS2_PLACEMENT_3D ( 'NONE', #586, #792, #95 ) ;
#32 = ADVANCED_BREP_SHAPE_REPRESENTATION ( '009_006_Up_down_connector_lock', ( #649, #198 ), #16 ) ;
#33 = ORIENTED_EDGE ( 'NONE', *, *, #199, .T. ) ;
#34 = MECHANICAL_DESIGN_GEOMETRIC_PRESENTATION_REPRESENTATION (  '', ( #138 ), #254 ) ;
#35 = SURFACE_STYLE_FILL_AREA ( #255 ) ;
#36 = DIRECTION ( 'NONE',  ( 0.000000000000000000, 0.000000000000000000, 1.000000000000000000 ) ) ;
#37 = DIRECTION ( 'NONE',  ( 1.000000000000000000, 0.000000000000000000, -0.000000000000000000 ) ) ;
#38 = VERTEX_POINT ( 'NONE', #171 ) ;
#39 = CARTESIAN_POINT ( 'NONE',  ( -0.02000826353020716819, 18.99998946498104146, -58.95933319566119479 ) ) ;
#40 = LINE ( 'NONE', #616, #627 ) ;
#41 = EDGE_LOOP ( 'NONE', ( #289, #379, #202, #553 ) ) ;
#42 = CARTESIAN_POINT ( 'NONE',  ( 11.46785367206438977, 6.637080092639978446, -4.949747468305946363 ) ) ;
#43 = DIRECTION ( 'NONE',  ( 1.000000000000000000, 0.000000000000000000, 0.000000000000000000 ) ) ;
#44 = CIRCLE ( 'NONE', #424, 1.750000000000015543 ) ;
#45 = ORIENTED_EDGE ( 'NONE', *, *, #129, .F. ) ;
#46 = DIRECTION ( 'NONE',  ( 1.000000000000000000, 0.000000000000000000, 0.000000000000000000 ) ) ;
#47 = AXIS2_PLACEMENT_3D ( 'NONE', #856, #847, #381 ) ;
#48 = AXIS2_PLACEMENT_3D ( 'NONE', #285, #306, #174 ) ;
#49 = CARTESIAN_POINT ( 'NONE',  ( 0.000000000000000000, 0.000000000000000000, 0.000000000000000000 ) ) ;
#50 = EDGE_CURVE ( 'NONE', #466, #848, #105, .T. ) ;
#51 = VERTEX_POINT ( 'NONE', #462 ) ;
#52 = CARTESIAN_POINT ( 'NONE',  ( -20.36768017634463490, 13.28209587387546620, 0.000000000000000000 ) ) ;
#53 = CARTESIAN_POINT ( 'NONE',  ( 11.46785367206438977, 6.637080092639978446, 5.000000000000000000 ) ) ;
#54 = ORIENTED_EDGE ( 'NONE', *, *, #57, .F. ) ;
#55 = CARTESIAN_POINT ( 'NONE',  ( -45.01998331216947236, 18.95260147240957238, 5.000000000000000000 ) ) ;
#56 = FACE_BOUND ( 'NONE', #828, .T. ) ;
#57 = EDGE_CURVE ( 'NONE', #664, #449, #453, .T. ) ;
#58 = EDGE_LOOP ( 'NONE', ( #864, #356, #284, #151 ) ) ;
#59 = PRODUCT ( '009_006_Up_down_connector_lock', '009_006_Up_down_connector_lock', '', ( #331 ) ) ;
#60 = EDGE_CURVE ( 'NONE', #51, #179, #832, .T. ) ;
#61 = CIRCLE ( 'NONE', #660, 1.750000000000015543 ) ;
#62 = DIRECTION ( 'NONE',  ( 1.000000000000000000, 0.000000000000000000, 0.000000000000000000 ) ) ;
#63 = DIRECTION ( 'NONE',  ( -1.000000000000000000, 0.000000000000000000, 0.000000000000000000 ) ) ;
#64 = VECTOR ( 'NONE', #564, 1000.000000000000000 ) ;
#65 = ORIENTED_EDGE ( 'NONE', *, *, #412, .T. ) ;
#66 = CARTESIAN_POINT ( 'NONE',  ( -20.33965727662292977, -13.32864916588429516, -4.949747468305946363 ) ) ;
#67 = CARTESIAN_POINT ( 'NONE',  ( 11.48180680321079983, -6.612912560569967013, 5.000000000000000000 ) ) ;
#68 = SURFACE_STYLE_FILL_AREA ( #5 ) ;
#69 = DIRECTION ( 'NONE',  ( 0.000000000000000000, 0.000000000000000000, 1.000000000000000000 ) ) ;
#70 =( NAMED_UNIT ( * ) PLANE_ANGLE_UNIT ( ) SI_UNIT ( $, .RADIAN. ) );
#71 = CIRCLE ( 'NONE', #602, 1.749999999999972022 ) ;
#72 = CARTESIAN_POINT ( 'NONE',  ( 11.46785367206438977, 6.637080092639978446, 3.000000000000000000 ) ) ;
#73 = VECTOR ( 'NONE', #666, 1000.000000000000000 ) ;
#74 = ADVANCED_FACE ( 'NONE', ( #383 ), #314, .F. ) ;
#75 = EDGE_LOOP ( 'NONE', ( #359, #800 ) ) ;
#76 = SURFACE_STYLE_USAGE ( .BOTH. , #837 ) ;
#77 = CARTESIAN_POINT ( 'NONE',  ( -22.08965727662295819, -13.32864916588429516, 5.000000000000000000 ) ) ;
#78 = VERTEX_POINT ( 'NONE', #320 ) ;
#79 = ORIENTED_EDGE ( 'NONE', *, *, #647, .T. ) ;
#80 = PLANE ( 'NONE',  #416 ) ;
#81 = CARTESIAN_POINT ( 'NONE',  ( 11.46785367206438977, 6.637080092639978446, 5.000000000000000000 ) ) ;
#82 = ORIENTED_EDGE ( 'NONE', *, *, #221, .T. ) ;
#83 = ADVANCED_FACE ( 'NONE', ( #604, #123, #882, #753, #56 ), #191, .T. ) ;
#84 = ORIENTED_EDGE ( 'NONE', *, *, #304, .T. ) ;
#85 = DIRECTION ( 'NONE',  ( 1.000000000000000000, 0.000000000000000000, 0.000000000000000000 ) ) ;
#86 = EDGE_CURVE ( 'NONE', #848, #622, #40, .T. ) ;
#87 = CARTESIAN_POINT ( 'NONE',  ( 0.000000000000000000, 0.000000000000000000, 5.000000000000000000 ) ) ;
#88 = ORIENTED_EDGE ( 'NONE', *, *, #763, .F. ) ;
#89 = AXIS2_PLACEMENT_3D ( 'NONE', #527, #728, #104 ) ;
#90 = AXIS2_PLACEMENT_3D ( 'NONE', #6, #497, #293 ) ;
#91 = VECTOR ( 'NONE', #93, 1000.000000000000000 ) ;
#92 = ORIENTED_EDGE ( 'NONE', *, *, #159, .F. ) ;
#93 = DIRECTION ( 'NONE',  ( -0.000000000000000000, -0.000000000000000000, -1.000000000000000000 ) ) ;
#94 = EDGE_CURVE ( 'NONE', #205, #228, #366, .T. ) ;
#95 = DIRECTION ( 'NONE',  ( -1.000000000000000000, 0.000000000000000000, 0.000000000000000000 ) ) ;
#96 = ORIENTED_EDGE ( 'NONE', *, *, #640, .F. ) ;
#97 = EDGE_LOOP ( 'NONE', ( #369, #598 ) ) ;
#98 = LINE ( 'NONE', #365, #834 ) ;
#99 = DIRECTION ( 'NONE',  ( -0.000000000000000000, -0.000000000000000000, -1.000000000000000000 ) ) ;
#100 = FACE_BOUND ( 'NONE', #436, .T. ) ;
#101 = ORIENTED_EDGE ( 'NONE', *, *, #637, .T. ) ;
#102 = DIRECTION ( 'NONE',  ( 1.000000000000000000, 0.000000000000000000, 0.000000000000000000 ) ) ;
#103 = DIRECTION ( 'NONE',  ( -0.000000000000000000, -0.000000000000000000, -1.000000000000000000 ) ) ;
#104 = DIRECTION ( 'NONE',  ( -1.000000000000000000, 0.000000000000000000, 0.000000000000000000 ) ) ;
#105 = CIRCLE ( 'NONE', #699, 1.749999999999972022 ) ;
#106 = CIRCLE ( 'NONE', #618, 3.249999999999999556 ) ;
#107 = VERTEX_POINT ( 'NONE', #672 ) ;
#108 = DIRECTION ( 'NONE',  ( 0.000000000000000000, 0.000000000000000000, 1.000000000000000000 ) ) ;
#109 = DIRECTION ( 'NONE',  ( 0.000000000000000000, 0.000000000000000000, 1.000000000000000000 ) ) ;
#110 = ORIENTED_EDGE ( 'NONE', *, *, #735, .F. ) ;
#111 =( NAMED_UNIT ( * ) SI_UNIT ( $, .STERADIAN. ) SOLID_ANGLE_UNIT ( ) );
#112 = DIRECTION ( 'NONE',  ( -0.000000000000000000, -0.000000000000000000, -1.000000000000000000 ) ) ;
#113 = CARTESIAN_POINT ( 'NONE',  ( 0.02000826353018143183, -18.99998946498105212, 5.000000000000000000 ) ) ;
#114 = ORIENTED_EDGE ( 'NONE', *, *, #684, .F. ) ;
#115 = FILL_AREA_STYLE_COLOUR ( '', #279 ) ;
#116 = DIRECTION ( 'NONE',  ( 1.000000000000000000, 0.000000000000000000, 0.000000000000000000 ) ) ;
#117 = CYLINDRICAL_SURFACE ( 'NONE', #814, 1.750000000000029310 ) ;
#118 = CIRCLE ( 'NONE', #144, 1.750000000000029310 ) ;
#119 = ORIENTED_EDGE ( 'NONE', *, *, #355, .F. ) ;
#120 = AXIS2_PLACEMENT_3D ( 'NONE', #561, #419, #422 ) ;
#121 = AXIS2_PLACEMENT_3D ( 'NONE', #652, #23, #787 ) ;
#122 = CARTESIAN_POINT ( 'NONE',  ( 9.717853672064418191, 6.637080092639978446, 3.000000000000000000 ) ) ;
#123 = FACE_BOUND ( 'NONE', #642, .T. ) ;
#124 = APPLICATION_CONTEXT ( 'automotive_design' ) ;
#125 = ORIENTED_EDGE ( 'NONE', *, *, #488, .T. ) ;
#126 = PLANE ( 'NONE',  #165 ) ;
#127 = CARTESIAN_POINT ( 'NONE',  ( 0.000000000000000000, 0.000000000000000000, 5.000000000000000000 ) ) ;
#128 = ADVANCED_FACE ( 'NONE', ( #804 ), #539, .F. ) ;
#129 = EDGE_CURVE ( 'NONE', #435, #741, #2, .T. ) ;
#130 = VERTEX_POINT ( 'NONE', #408 ) ;
#131 = PLANE ( 'NONE',  #183 ) ;
#132 = DIRECTION ( 'NONE',  ( -1.000000000000000000, 0.000000000000000000, 0.000000000000000000 ) ) ;
#133 = EDGE_CURVE ( 'NONE', #463, #619, #801, .T. ) ;
#134 = EDGE_LOOP ( 'NONE', ( #528, #638, #571, #588 ) ) ;
#135 = LINE ( 'NONE', #835, #689 ) ;
#136 = AXIS2_PLACEMENT_3D ( 'NONE', #766, #493, #491 ) ;
#137 = DIRECTION ( 'NONE',  ( 0.000000000000000000, 0.000000000000000000, 1.000000000000000000 ) ) ;
#138 = STYLED_ITEM ( 'NONE', ( #532 ), #32 ) ;
#139 = FACE_BOUND ( 'NONE', #543, .T. ) ;
#140 = LINE ( 'NONE', #696, #817 ) ;
#141 = CARTESIAN_POINT ( 'NONE',  ( 11.48180680321079983, -6.612912560569967013, 3.000000000000000000 ) ) ;
#142 = ORIENTED_EDGE ( 'NONE', *, *, #488, .F. ) ;
#143 = DIRECTION ( 'NONE',  ( 0.000000000000000000, 0.000000000000000000, 1.000000000000000000 ) ) ;
#144 = AXIS2_PLACEMENT_3D ( 'NONE', #886, #262, #478 ) ;
#145 = DIRECTION ( 'NONE',  ( -0.000000000000000000, -0.000000000000000000, 1.000000000000000000 ) ) ;
#146 = VECTOR ( 'NONE', #657, 1000.000000000000114 ) ;
#147 = ORIENTED_EDGE ( 'NONE', *, *, #549, .F. ) ;
#148 = ORIENTED_EDGE ( 'NONE', *, *, #348, .T. ) ;
#149 = DIRECTION ( 'NONE',  ( -1.000000000000000000, 0.000000000000000000, 0.000000000000000000 ) ) ;
#150 = FACE_OUTER_BOUND ( 'NONE', #41, .T. ) ;
#151 = ORIENTED_EDGE ( 'NONE', *, *, #583, .F. ) ;
#152 = EDGE_CURVE ( 'NONE', #435, #130, #545, .T. ) ;
#153 = ADVANCED_FACE ( 'NONE', ( #268 ), #117, .F. ) ;
#154 = ORIENTED_EDGE ( 'NONE', *, *, #853, .T. ) ;
#155 = DIRECTION ( 'NONE',  ( -0.9999994455253179426, -0.001053066501587990615, 0.000000000000000000 ) ) ;
#156 = DIRECTION ( 'NONE',  ( 1.000000000000000000, 0.000000000000000000, 0.000000000000000000 ) ) ;
#157 = ORIENTED_EDGE ( 'NONE', *, *, #826, .T. ) ;
#158 = UNCERTAINTY_MEASURE_WITH_UNIT (LENGTH_MEASURE( 1.000000000000000082E-05 ), #189, 'distance_accuracy_value', 'NONE');
#159 = EDGE_CURVE ( 'NONE', #449, #392, #518, .T. ) ;
#160 = ORIENTED_EDGE ( 'NONE', *, *, #275, .T. ) ;
#161 = CARTESIAN_POINT ( 'NONE',  ( 13.21785367206436312, 6.637080092639978446, 0.000000000000000000 ) ) ;
#162 = CARTESIAN_POINT ( 'NONE',  ( -22.11768017634467398, 13.28209587387546620, 5.000000000000000000 ) ) ;
#163 = VECTOR ( 'NONE', #677, 1000.000000000000000 ) ;
#164 = VERTEX_POINT ( 'NONE', #818 ) ;
#165 = AXIS2_PLACEMENT_3D ( 'NONE', #398, #403, #675 ) ;
#166 = CIRCLE ( 'NONE', #691, 3.249999999999999556 ) ;
#167 = CIRCLE ( 'NONE', #819, 1.749999999999972022 ) ;
#168 = VERTEX_POINT ( 'NONE', #535 ) ;
#169 = FACE_OUTER_BOUND ( 'NONE', #555, .T. ) ;
#170 = DIRECTION ( 'NONE',  ( 1.000000000000000000, 0.000000000000000000, 0.000000000000000000 ) ) ;
#171 = CARTESIAN_POINT ( 'NONE',  ( -20.33965727662292977, -13.32864916588429516, 3.000000000000000000 ) ) ;
#172 = APPLICATION_CONTEXT ( 'automotive_design' ) ;
#173 = ORIENTED_EDGE ( 'NONE', *, *, #187, .T. ) ;
#174 = DIRECTION ( 'NONE',  ( 1.000000000000000000, 0.000000000000000000, 0.000000000000000000 ) ) ;
#175 = CARTESIAN_POINT ( 'NONE',  ( -2.999999999998951949, -9.588135615336898627E-14, 1.000000000000000000 ) ) ;
#176 = VERTEX_POINT ( 'NONE', #113 ) ;
#177 = ORIENTED_EDGE ( 'NONE', *, *, #50, .T. ) ;
#178 = LINE ( 'NONE', #752, #353 ) ;
#179 = VERTEX_POINT ( 'NONE', #333 ) ;
#180 = AXIS2_PLACEMENT_3D ( 'NONE', #67, #624, #899 ) ;
#181 = AXIS2_PLACEMENT_3D ( 'NONE', #727, #234, #452 ) ;
#182 = ORIENTED_EDGE ( 'NONE', *, *, #671, .F. ) ;
#183 = AXIS2_PLACEMENT_3D ( 'NONE', #721, #155, #437 ) ;
#184 = CYLINDRICAL_SURFACE ( 'NONE', #368, 2.999999999999977796 ) ;
#185 = CARTESIAN_POINT ( 'NONE',  ( -0.02000826353016688444, 18.99998946498105212, 5.000000000000000000 ) ) ;
#186 = EDGE_CURVE ( 'NONE', #22, #854, #44, .T. ) ;
#187 = EDGE_CURVE ( 'NONE', #370, #484, #674, .T. ) ;
#188 = VERTEX_POINT ( 'NONE', #185 ) ;
#189 =( LENGTH_UNIT ( ) NAMED_UNIT ( * ) SI_UNIT ( .MILLI., .METRE. ) );
#190 = DIRECTION ( 'NONE',  ( -0.001053066501588198565, 0.9999994455253179426, 0.000000000000000000 ) ) ;
#191 = PLANE ( 'NONE',  #327 ) ;
#192 = EDGE_LOOP ( 'NONE', ( #101, #820 ) ) ;
#193 = EDGE_CURVE ( 'NONE', #370, #650, #750, .T. ) ;
#194 = CARTESIAN_POINT ( 'NONE',  ( 1.025872769961214492E-12, -9.588135615336898627E-14, 1.000000000000000000 ) ) ;
#195 = CARTESIAN_POINT ( 'NONE',  ( -0.02000826353016688444, 18.99998946498105212, 5.000000000000000000 ) ) ;
#196 = ORIENTED_EDGE ( 'NONE', *, *, #457, .F. ) ;
#197 = CARTESIAN_POINT ( 'NONE',  ( 0.000000000000000000, 0.000000000000000000, 0.000000000000000000 ) ) ;
#198 = AXIS2_PLACEMENT_3D ( 'NONE', #197, #108, #46 ) ;
#199 = EDGE_CURVE ( 'NONE', #848, #466, #71, .T. ) ;
#200 = DIRECTION ( 'NONE',  ( 0.000000000000000000, 0.000000000000000000, 1.000000000000000000 ) ) ;
#201 = DIRECTION ( 'NONE',  ( -0.000000000000000000, -0.000000000000000000, -1.000000000000000000 ) ) ;
#202 = ORIENTED_EDGE ( 'NONE', *, *, #583, .T. ) ;
#203 = CARTESIAN_POINT ( 'NONE',  ( 8.231806803210801604, -6.612912560569967013, 3.000000000000000000 ) ) ;
#204 = DIRECTION ( 'NONE',  ( 1.000000000000000000, 0.000000000000000000, 0.000000000000000000 ) ) ;
#205 = VERTEX_POINT ( 'NONE', #812 ) ;
#206 = LINE ( 'NONE', #222, #858 ) ;
#207 = ORIENTED_EDGE ( 'NONE', *, *, #444, .F. ) ;
#208 = AXIS2_PLACEMENT_3D ( 'NONE', #768, #842, #3 ) ;
#209 = DIRECTION ( 'NONE',  ( -0.000000000000000000, -0.000000000000000000, 1.000000000000000000 ) ) ;
#210 = CARTESIAN_POINT ( 'NONE',  ( -22.08965727662295819, -13.32864916588429516, 5.000000000000000000 ) ) ;
#211 = AXIS2_PLACEMENT_3D ( 'NONE', #417, #427, #62 ) ;
#212 = EDGE_CURVE ( 'NONE', #188, #361, #399, .T. ) ;
#213 = PRESENTATION_STYLE_ASSIGNMENT (( #76 ) ) ;
#214 = CARTESIAN_POINT ( 'NONE',  ( -25.33965727662295819, -13.32864916588429516, 5.000000000000000000 ) ) ;
#215 = ORIENTED_EDGE ( 'NONE', *, *, #186, .F. ) ;
#216 = CARTESIAN_POINT ( 'NONE',  ( -44.97996678510912716, -19.04737745755251055, -58.95933319566119479 ) ) ;
#217 = DIRECTION ( 'NONE',  ( 0.000000000000000000, 0.000000000000000000, 1.000000000000000000 ) ) ;
#218 = ORIENTED_EDGE ( 'NONE', *, *, #57, .T. ) ;
#219 = CYLINDRICAL_SURFACE ( 'NONE', #547, 3.249999999999999556 ) ;
#220 = PRODUCT_DEFINITION_SHAPE ( 'NONE', 'NONE',  #360 ) ;
#221 = EDGE_CURVE ( 'NONE', #809, #578, #118, .T. ) ;
#222 = CARTESIAN_POINT ( 'NONE',  ( -23.86768017634471661, 13.28209587387546620, -4.949747468305946363 ) ) ;
#223 = CIRCLE ( 'NONE', #265, 1.750000000000039746 ) ;
#224 = ADVANCED_FACE ( 'NONE', ( #274 ), #358, .F. ) ;
#225 = ORIENTED_EDGE ( 'NONE', *, *, #30, .T. ) ;
#226 = LINE ( 'NONE', #579, #559 ) ;
#227 = CARTESIAN_POINT ( 'NONE',  ( -22.08965727662295819, -13.32864916588429516, 3.000000000000000000 ) ) ;
#228 = VERTEX_POINT ( 'NONE', #554 ) ;
#229 = ORIENTED_EDGE ( 'NONE', *, *, #193, .T. ) ;
#230 = LINE ( 'NONE', #777, #266 ) ;
#231 = DIRECTION ( 'NONE',  ( 1.000000000000000000, 0.000000000000000000, 0.000000000000000000 ) ) ;
#232 = PLANE ( 'NONE',  #276 ) ;
#233 = LINE ( 'NONE', #517, #310 ) ;
#234 = DIRECTION ( 'NONE',  ( -0.000000000000000000, -0.000000000000000000, 1.000000000000000000 ) ) ;
#235 = AXIS2_PLACEMENT_3D ( 'NONE', #77, #494, #63 ) ;
#236 = FACE_BOUND ( 'NONE', #288, .T. ) ;
#237 = PRESENTATION_LAYER_ASSIGNMENT (  '', '', ( #252 ) ) ;
#238 = ORIENTED_EDGE ( 'NONE', *, *, #551, .F. ) ;
#239 = DIRECTION ( 'NONE',  ( 0.000000000000000000, 0.000000000000000000, 1.000000000000000000 ) ) ;
#240 = EDGE_CURVE ( 'NONE', #619, #243, #770, .T. ) ;
#241 = PLANE ( 'NONE',  #447 ) ;
#242 = FACE_BOUND ( 'NONE', #531, .T. ) ;
#243 = VERTEX_POINT ( 'NONE', #282 ) ;
#244 = DIRECTION ( 'NONE',  ( -0.000000000000000000, -0.000000000000000000, 1.000000000000000000 ) ) ;
#245 = DIRECTION ( 'NONE',  ( -0.000000000000000000, -0.000000000000000000, 1.000000000000000000 ) ) ;
#246 = EDGE_LOOP ( 'NONE', ( #643, #706, #857, #119 ) ) ;
#247 = LINE ( 'NONE', #541, #661 ) ;
#248 = EDGE_CURVE ( 'NONE', #168, #425, #61, .T. ) ;
#249 = DIRECTION ( 'NONE',  ( 1.000000000000000000, 0.000000000000000000, 0.000000000000000000 ) ) ;
#250 = EDGE_CURVE ( 'NONE', #614, #622, #590, .T. ) ;
#251 = VECTOR ( 'NONE', #612, 1000.000000000000114 ) ;
#252 = STYLED_ITEM ( 'NONE', ( #213 ), #649 ) ;
#253 = ORIENTED_EDGE ( 'NONE', *, *, #159, .T. ) ;
#254 =( GEOMETRIC_REPRESENTATION_CONTEXT ( 3 ) GLOBAL_UNCERTAINTY_ASSIGNED_CONTEXT ( ( #158 ) ) GLOBAL_UNIT_ASSIGNED_CONTEXT ( ( #189, #397, #806 ) ) REPRESENTATION_CONTEXT ( 'NONE', 'WORKASPACE' ) );
#255 = FILL_AREA_STYLE ('',( #115 ) ) ;
#256 = DIRECTION ( 'NONE',  ( -0.000000000000000000, -0.000000000000000000, 1.000000000000000000 ) ) ;
#257 = DIRECTION ( 'NONE',  ( -0.000000000000000000, -0.000000000000000000, -1.000000000000000000 ) ) ;
#258 = VERTEX_POINT ( 'NONE', #280 ) ;
#259 = DIRECTION ( 'NONE',  ( 1.000000000000000000, 0.000000000000000000, 0.000000000000000000 ) ) ;
#260 = ORIENTED_EDGE ( 'NONE', *, *, #86, .F. ) ;
#261 = DIRECTION ( 'NONE',  ( 0.000000000000000000, 0.000000000000000000, 1.000000000000000000 ) ) ;
#262 = DIRECTION ( 'NONE',  ( -0.000000000000000000, -0.000000000000000000, -1.000000000000000000 ) ) ;
#263 = CLOSED_SHELL ( 'NONE', ( #224, #386, #743, #324, #128, #482, #387, #872, #153, #797, #420, #705, #440, #471, #20, #613, #736, #525, #74, #563, #509, #900, #515, #799, #83, #723, #483, #710, #286 ) ) ;
#264 = EDGE_LOOP ( 'NONE', ( #432, #413, #548, #125 ) ) ;
#265 = AXIS2_PLACEMENT_3D ( 'NONE', #732, #811, #390 ) ;
#266 = VECTOR ( 'NONE', #585, 1000.000000000000000 ) ;
#267 =( LENGTH_UNIT ( ) NAMED_UNIT ( * ) SI_UNIT ( .MILLI., .METRE. ) );
#268 = FACE_OUTER_BOUND ( 'NONE', #566, .T. ) ;
#269 = ORIENTED_EDGE ( 'NONE', *, *, #129, .T. ) ;
#270 =( NAMED_UNIT ( * ) SI_UNIT ( $, .STERADIAN. ) SOLID_ANGLE_UNIT ( ) );
#271 = DIRECTION ( 'NONE',  ( 0.000000000000000000, 0.000000000000000000, 1.000000000000000000 ) ) ;
#272 = EDGE_LOOP ( 'NONE', ( #374, #160, #654, #450 ) ) ;
#273 = CARTESIAN_POINT ( 'NONE',  ( -45.01998331216947236, 18.95260147240957238, -58.95933319566119479 ) ) ;
#274 = FACE_OUTER_BOUND ( 'NONE', #786, .T. ) ;
#275 = EDGE_CURVE ( 'NONE', #463, #874, #206, .T. ) ;
#276 = AXIS2_PLACEMENT_3D ( 'NONE', #458, #29, #37 ) ;
#277 = AXIS2_PLACEMENT_3D ( 'NONE', #194, #318, #739 ) ;
#278 = DIRECTION ( 'NONE',  ( -1.000000000000000000, 0.000000000000000000, 0.000000000000000000 ) ) ;
#279 = COLOUR_RGB ( '',1.000000000000000000, 1.000000000000000000, 0.000000000000000000 ) ;
#280 = CARTESIAN_POINT ( 'NONE',  ( -18.83965727662295819, -13.32864916588429516, 3.000000000000000000 ) ) ;
#281 = LINE ( 'NONE', #216, #64 ) ;
#282 = CARTESIAN_POINT ( 'NONE',  ( -20.36768017634463490, 13.28209587387546620, 3.000000000000000000 ) ) ;
#283 = EDGE_CURVE ( 'NONE', #439, #409, #534, .T. ) ;
#284 = ORIENTED_EDGE ( 'NONE', *, *, #637, .F. ) ;
#285 = CARTESIAN_POINT ( 'NONE',  ( -22.11768017634467398, 13.28209587387546620, 3.000000000000000000 ) ) ;
#286 = ADVANCED_FACE ( 'NONE', ( #621 ), #351, .F. ) ;
#287 = DIRECTION ( 'NONE',  ( -1.000000000000000000, 0.000000000000000000, 0.000000000000000000 ) ) ;
#288 = EDGE_LOOP ( 'NONE', ( #499, #715 ) ) ;
#289 = ORIENTED_EDGE ( 'NONE', *, *, #576, .F. ) ;
#290 = LINE ( 'NONE', #840, #91 ) ;
#291 = AXIS2_PLACEMENT_3D ( 'NONE', #210, #492, #765 ) ;
#292 = EDGE_CURVE ( 'NONE', #228, #205, #747, .T. ) ;
#293 = DIRECTION ( 'NONE',  ( -1.000000000000000000, 0.000000000000000000, 0.000000000000000000 ) ) ;
#294 = CIRCLE ( 'NONE', #630, 1.750000000000029310 ) ;
#295 = DIRECTION ( 'NONE',  ( 1.000000000000000000, 0.000000000000000000, 0.000000000000000000 ) ) ;
#296 = EDGE_LOOP ( 'NONE', ( #459, #225, #406, #714 ) ) ;
#297 = DIRECTION ( 'NONE',  ( 0.000000000000000000, 0.000000000000000000, 1.000000000000000000 ) ) ;
#298 = CYLINDRICAL_SURFACE ( 'NONE', #47, 1.750000000000015543 ) ;
#299 = ORIENTED_EDGE ( 'NONE', *, *, #152, .T. ) ;
#300 = ORIENTED_EDGE ( 'NONE', *, *, #893, .F. ) ;
#301 = CARTESIAN_POINT ( 'NONE',  ( -23.86768017634471661, 13.28209587387546620, 3.000000000000000000 ) ) ;
#302 = PLANE ( 'NONE',  #426 ) ;
#303 = ORIENTED_EDGE ( 'NONE', *, *, #841, .T. ) ;
#304 = EDGE_CURVE ( 'NONE', #107, #663, #349, .T. ) ;
#305 = ORIENTED_EDGE ( 'NONE', *, *, #841, .F. ) ;
#306 = DIRECTION ( 'NONE',  ( 0.000000000000000000, 0.000000000000000000, 1.000000000000000000 ) ) ;
#307 = DIRECTION ( 'NONE',  ( 0.000000000000000000, 0.000000000000000000, 1.000000000000000000 ) ) ;
#308 = CARTESIAN_POINT ( 'NONE',  ( 13.23180680321081581, -6.612912560569967013, 0.000000000000000000 ) ) ;
#309 = VECTOR ( 'NONE', #467, 1000.000000000000000 ) ;
#310 = VECTOR ( 'NONE', #393, 1000.000000000000000 ) ;
#311 = VERTEX_POINT ( 'NONE', #565 ) ;
#312 = SURFACE_STYLE_USAGE ( .BOTH. , #595 ) ;
#313 = FACE_OUTER_BOUND ( 'NONE', #337, .T. ) ;
#314 = CYLINDRICAL_SURFACE ( 'NONE', #546, 1.750000000000029310 ) ;
#315 = EDGE_LOOP ( 'NONE', ( #454, #65 ) ) ;
#316 = CARTESIAN_POINT ( 'NONE',  ( -2.999999999998951949, -9.588135615336898627E-14, 1.000000000000000000 ) ) ;
#317 = EDGE_CURVE ( 'NONE', #311, #38, #844, .T. ) ;
#318 = DIRECTION ( 'NONE',  ( 0.000000000000000000, 0.000000000000000000, -1.000000000000000000 ) ) ;
#319 = EDGE_CURVE ( 'NONE', #25, #663, #498, .T. ) ;
#320 = CARTESIAN_POINT ( 'NONE',  ( 14.71785367206438977, 6.637080092639978446, 3.000000000000000000 ) ) ;
#321 = ORIENTED_EDGE ( 'NONE', *, *, #221, .F. ) ;
#322 = DIRECTION ( 'NONE',  ( 1.000000000000000000, 0.000000000000000000, 0.000000000000000000 ) ) ;
#323 = CARTESIAN_POINT ( 'NONE',  ( -22.11768017634467398, 13.28209587387546620, 3.000000000000000000 ) ) ;
#324 = ADVANCED_FACE ( 'NONE', ( #418 ), #694, .F. ) ;
#325 = DIRECTION ( 'NONE',  ( -0.000000000000000000, -0.000000000000000000, 1.000000000000000000 ) ) ;
#326 = AXIS2_PLACEMENT_3D ( 'NONE', #53, #873, #204 ) ;
#327 = AXIS2_PLACEMENT_3D ( 'NONE', #127, #109, #339 ) ;
#328 = CIRCLE ( 'NONE', #760, 3.249999999999999556 ) ;
#329 = ORIENTED_EDGE ( 'NONE', *, *, #895, .T. ) ;
#330 = CIRCLE ( 'NONE', #573, 1.750000000000015543 ) ;
#331 = PRODUCT_CONTEXT ( 'NONE', #124, 'mechanical' ) ;
#332 = CARTESIAN_POINT ( 'NONE',  ( 1.025872769961214492E-12, -9.588135615336898627E-14, 1.000000000000000000 ) ) ;
#333 = CARTESIAN_POINT ( 'NONE',  ( -2.999999999998951949, -9.588135615336898627E-14, 0.000000000000000000 ) ) ;
#334 = ORIENTED_EDGE ( 'NONE', *, *, #283, .F. ) ;
#335 = CARTESIAN_POINT ( 'NONE',  ( 14.71785367206438977, 6.637080092639978446, 5.000000000000000000 ) ) ;
#336 = DIRECTION ( 'NONE',  ( -0.000000000000000000, -0.000000000000000000, 1.000000000000000000 ) ) ;
#337 = EDGE_LOOP ( 'NONE', ( #883, #495, #775, #269 ) ) ;
#338 = DIRECTION ( 'NONE',  ( -0.000000000000000000, -0.000000000000000000, -1.000000000000000000 ) ) ;
#339 = DIRECTION ( 'NONE',  ( 1.000000000000000000, 0.000000000000000000, -0.000000000000000000 ) ) ;
#340 = AXIS2_PLACEMENT_3D ( 'NONE', #522, #789, #530 ) ;
#341 = EDGE_LOOP ( 'NONE', ( #711, #668, #469, #96 ) ) ;
#342 = MECHANICAL_DESIGN_GEOMETRIC_PRESENTATION_REPRESENTATION (  '', ( #252 ), #802 ) ;
#343 = CARTESIAN_POINT ( 'NONE',  ( 0.000000000000000000, 0.000000000000000000, 3.000000000000000000 ) ) ;
#344 = CARTESIAN_POINT ( 'NONE',  ( 8.231806803210801604, -6.612912560569967013, 5.000000000000000000 ) ) ;
#345 = ORIENTED_EDGE ( 'NONE', *, *, #193, .F. ) ;
#346 = EDGE_CURVE ( 'NONE', #130, #164, #557, .T. ) ;
#347 = CARTESIAN_POINT ( 'NONE',  ( -18.86768017634467753, 13.28209587387546620, 5.000000000000000000 ) ) ;
#348 = EDGE_CURVE ( 'NONE', #484, #370, #688, .T. ) ;
#349 = LINE ( 'NONE', #344, #888 ) ;
#350 = FACE_OUTER_BOUND ( 'NONE', #659, .T. ) ;
#351 = CYLINDRICAL_SURFACE ( 'NONE', #235, 3.249999999999999556 ) ;
#352 = AXIS2_PLACEMENT_3D ( 'NONE', #395, #472, #43 ) ;
#353 = VECTOR ( 'NONE', #112, 1000.000000000000000 ) ;
#354 = DIRECTION ( 'NONE',  ( 1.000000000000000000, 0.000000000000000000, 0.000000000000000000 ) ) ;
#355 = EDGE_CURVE ( 'NONE', #741, #188, #140, .T. ) ;
#356 = ORIENTED_EDGE ( 'NONE', *, *, #576, .T. ) ;
#357 = DIRECTION ( 'NONE',  ( 0.000000000000000000, 0.000000000000000000, 1.000000000000000000 ) ) ;
#358 = CYLINDRICAL_SURFACE ( 'NONE', #570, 3.249999999999999556 ) ;
#359 = ORIENTED_EDGE ( 'NONE', *, *, #827, .F. ) ;
#360 = PRODUCT_DEFINITION ( 'UNKNOWN', '', #761, #690 ) ;
#361 = VERTEX_POINT ( 'NONE', #626 ) ;
#362 = CARTESIAN_POINT ( 'NONE',  ( -20.33965727662292977, -13.32864916588429516, 0.000000000000000000 ) ) ;
#363 = CARTESIAN_POINT ( 'NONE',  ( -18.83965727662295819, -13.32864916588429516, 5.000000000000000000 ) ) ;
#364 = FACE_BOUND ( 'NONE', #489, .T. ) ;
#365 = CARTESIAN_POINT ( 'NONE',  ( -0.02000826353018961279, 18.99998946498104146, 0.000000000000000000 ) ) ;
#366 = CIRCLE ( 'NONE', #326, 3.249999999999999556 ) ;
#367 = CARTESIAN_POINT ( 'NONE',  ( -25.36768017634467398, 13.28209587387546620, 3.000000000000000000 ) ) ;
#368 = AXIS2_PLACEMENT_3D ( 'NONE', #332, #338, #885 ) ;
#369 = ORIENTED_EDGE ( 'NONE', *, *, #292, .F. ) ;
#370 = VERTEX_POINT ( 'NONE', #214 ) ;
#371 = CARTESIAN_POINT ( 'NONE',  ( 11.46785367206438977, 6.637080092639978446, 3.000000000000000000 ) ) ;
#372 = FACE_OUTER_BOUND ( 'NONE', #272, .T. ) ;
#373 = EDGE_CURVE ( 'NONE', #78, #849, #519, .T. ) ;
#374 = ORIENTED_EDGE ( 'NONE', *, *, #574, .T. ) ;
#375 = EDGE_LOOP ( 'NONE', ( #523, #253 ) ) ;
#376 = DIRECTION ( 'NONE',  ( -0.000000000000000000, -0.000000000000000000, 1.000000000000000000 ) ) ;
#377 = DIRECTION ( 'NONE',  ( 0.000000000000000000, 0.000000000000000000, 1.000000000000000000 ) ) ;
#378 = DIRECTION ( 'NONE',  ( -0.000000000000000000, -0.000000000000000000, -1.000000000000000000 ) ) ;
#379 = ORIENTED_EDGE ( 'NONE', *, *, #94, .T. ) ;
#380 =( NAMED_UNIT ( * ) PLANE_ANGLE_UNIT ( ) SI_UNIT ( $, .RADIAN. ) );
#381 = DIRECTION ( 'NONE',  ( 1.000000000000000000, 0.000000000000000000, 0.000000000000000000 ) ) ;
#382 = AXIS2_PLACEMENT_3D ( 'NONE', #759, #137, #429 ) ;
#383 = FACE_OUTER_BOUND ( 'NONE', #296, .T. ) ;
#384 = AXIS2_PLACEMENT_3D ( 'NONE', #81, #99, #438 ) ;
#385 = VECTOR ( 'NONE', #742, 1000.000000000000000 ) ;
#386 = ADVANCED_FACE ( 'NONE', ( #632 ), #838, .F. ) ;
#387 = ADVANCED_FACE ( 'NONE', ( #580 ), #298, .F. ) ;
#388 = ORIENTED_EDGE ( 'NONE', *, *, #647, .F. ) ;
#389 = APPLICATION_PROTOCOL_DEFINITION ( 'draft international standard', 'automotive_design', 1998, #172 ) ;
#390 = DIRECTION ( 'NONE',  ( 1.000000000000000000, 0.000000000000000000, 0.000000000000000000 ) ) ;
#391 = DIRECTION ( 'NONE',  ( 0.000000000000000000, 0.000000000000000000, 1.000000000000000000 ) ) ;
#392 = VERTEX_POINT ( 'NONE', #367 ) ;
#393 = DIRECTION ( 'NONE',  ( -0.000000000000000000, -0.000000000000000000, -1.000000000000000000 ) ) ;
#394 = LINE ( 'NONE', #470, #309 ) ;
#395 = CARTESIAN_POINT ( 'NONE',  ( -22.08965727662295819, -13.32864916588429516, 5.000000000000000000 ) ) ;
#396 = EDGE_LOOP ( 'NONE', ( #110, #196 ) ) ;
#397 =( NAMED_UNIT ( * ) PLANE_ANGLE_UNIT ( ) SI_UNIT ( $, .RADIAN. ) );
#398 = CARTESIAN_POINT ( 'NONE',  ( -44.97996678510912716, -19.04737745755251055, -58.95933319566119479 ) ) ;
#399 = LINE ( 'NONE', #195, #251 ) ;
#400 = AXIS2_PLACEMENT_3D ( 'NONE', #896, #423, #562 ) ;
#401 = VECTOR ( 'NONE', #686, 1000.000000000000000 ) ;
#402 = ORIENTED_EDGE ( 'NONE', *, *, #628, .F. ) ;
#403 = DIRECTION ( 'NONE',  ( 0.001053066501588196830, -0.9999994455253179426, 0.000000000000000000 ) ) ;
#404 = CARTESIAN_POINT ( 'NONE',  ( 11.46785367206438977, 6.637080092639978446, 0.000000000000000000 ) ) ;
#405 = EDGE_CURVE ( 'NONE', #854, #22, #749, .T. ) ;
#406 = ORIENTED_EDGE ( 'NONE', *, *, #628, .T. ) ;
#407 = LINE ( 'NONE', #55, #445 ) ;
#408 = CARTESIAN_POINT ( 'NONE',  ( -44.97996678510912716, -19.04737745755251055, 1.387778780781445676E-14 ) ) ;
#409 = VERTEX_POINT ( 'NONE', #526 ) ;
#410 = DIRECTION ( 'NONE',  ( -0.000000000000000000, -0.000000000000000000, 1.000000000000000000 ) ) ;
#411 = VECTOR ( 'NONE', #658, 1000.000000000000000 ) ;
#412 = EDGE_CURVE ( 'NONE', #258, #650, #328, .T. ) ;
#413 = ORIENTED_EDGE ( 'NONE', *, *, #133, .T. ) ;
#414 = AXIS2_PLACEMENT_3D ( 'NONE', #39, #190, #544 ) ;
#415 = EDGE_CURVE ( 'NONE', #176, #188, #644, .T. ) ;
#416 = AXIS2_PLACEMENT_3D ( 'NONE', #589, #11, #862 ) ;
#417 = CARTESIAN_POINT ( 'NONE',  ( -22.08965727662295819, -13.32864916588429516, 3.000000000000000000 ) ) ;
#418 = FACE_OUTER_BOUND ( 'NONE', #577, .T. ) ;
#419 = DIRECTION ( 'NONE',  ( 0.000000000000000000, 0.000000000000000000, 1.000000000000000000 ) ) ;
#420 = ADVANCED_FACE ( 'NONE', ( #851, #713 ), #302, .T. ) ;
#421 = DIRECTION ( 'NONE',  ( -0.000000000000000000, -0.000000000000000000, -1.000000000000000000 ) ) ;
#422 = DIRECTION ( 'NONE',  ( 1.000000000000000000, 0.000000000000000000, 0.000000000000000000 ) ) ;
#423 = DIRECTION ( 'NONE',  ( 0.000000000000000000, 0.000000000000000000, 1.000000000000000000 ) ) ;
#424 = AXIS2_PLACEMENT_3D ( 'NONE', #609, #201, #259 ) ;
#425 = VERTEX_POINT ( 'NONE', #575 ) ;
#426 = AXIS2_PLACEMENT_3D ( 'NONE', #867, #520, #503 ) ;
#427 = DIRECTION ( 'NONE',  ( 0.000000000000000000, 0.000000000000000000, 1.000000000000000000 ) ) ;
#428 = AXIS2_PLACEMENT_3D ( 'NONE', #875, #810, #322 ) ;
#429 = DIRECTION ( 'NONE',  ( 1.000000000000000000, 0.000000000000000000, 0.000000000000000000 ) ) ;
#430 = VERTEX_POINT ( 'NONE', #24 ) ;
#431 = EDGE_CURVE ( 'NONE', #865, #107, #833, .T. ) ;
#432 = ORIENTED_EDGE ( 'NONE', *, *, #275, .F. ) ;
#433 = DIRECTION ( 'NONE',  ( -0.000000000000000000, -0.000000000000000000, -1.000000000000000000 ) ) ;
#434 = CYLINDRICAL_SURFACE ( 'NONE', #384, 3.249999999999999556 ) ;
#435 = VERTEX_POINT ( 'NONE', #513 ) ;
#436 = EDGE_LOOP ( 'NONE', ( #388, #26 ) ) ;
#437 = DIRECTION ( 'NONE',  ( 0.001053066501587990615, -0.9999994455253179426, 0.000000000000000000 ) ) ;
#438 = DIRECTION ( 'NONE',  ( -1.000000000000000000, 0.000000000000000000, 0.000000000000000000 ) ) ;
#439 = VERTEX_POINT ( 'NONE', #175 ) ;
#440 = ADVANCED_FACE ( 'NONE', ( #788, #19 ), #241, .T. ) ;
#441 = EDGE_LOOP ( 'NONE', ( #147, #177, #504, #601 ) ) ;
#442 = FACE_OUTER_BOUND ( 'NONE', #21, .T. ) ;
#443 = AXIS2_PLACEMENT_3D ( 'NONE', #822, #391, #249 ) ;
#444 = EDGE_CURVE ( 'NONE', #430, #176, #778, .T. ) ;
#445 = VECTOR ( 'NONE', #670, 1000.000000000000114 ) ;
#446 = CARTESIAN_POINT ( 'NONE',  ( -18.86768017634467753, 13.28209587387546620, 3.000000000000000000 ) ) ;
#447 = AXIS2_PLACEMENT_3D ( 'NONE', #648, #863, #722 ) ;
#448 = AXIS2_PLACEMENT_3D ( 'NONE', #764, #695, #756 ) ;
#449 = VERTEX_POINT ( 'NONE', #446 ) ;
#450 = ORIENTED_EDGE ( 'NONE', *, *, #240, .F. ) ;
#451 = CARTESIAN_POINT ( 'NONE',  ( -25.36768017634467398, 13.28209587387546620, 5.000000000000000000 ) ) ;
#452 = DIRECTION ( 'NONE',  ( 1.000000000000000000, 0.000000000000000000, 0.000000000000000000 ) ) ;
#453 = LINE ( 'NONE', #724, #411 ) ;
#454 = ORIENTED_EDGE ( 'NONE', *, *, #684, .T. ) ;
#455 = CARTESIAN_POINT ( 'NONE',  ( 9.731806803210785617, -6.612912560569967013, -4.949747468305946363 ) ) ;
#456 = CARTESIAN_POINT ( 'NONE',  ( -23.86768017634471661, 13.28209587387546620, 0.000000000000000000 ) ) ;
#457 = EDGE_CURVE ( 'NONE', #664, #780, #490, .T. ) ;
#458 = CARTESIAN_POINT ( 'NONE',  ( 0.000000000000000000, 0.000000000000000000, 0.000000000000000000 ) ) ;
#459 = ORIENTED_EDGE ( 'NONE', *, *, #868, .F. ) ;
#460 = FACE_OUTER_BOUND ( 'NONE', #441, .T. ) ;
#461 = VECTOR ( 'NONE', #698, 1000.000000000000000 ) ;
#462 = CARTESIAN_POINT ( 'NONE',  ( 3.000000000001004086, -9.551396211362478083E-14, 0.000000000000000000 ) ) ;
#463 = VERTEX_POINT ( 'NONE', #456 ) ;
#464 = FACE_OUTER_BOUND ( 'NONE', #771, .T. ) ;
#465 = DIRECTION ( 'NONE',  ( 0.000000000000000000, 0.000000000000000000, 1.000000000000000000 ) ) ;
#466 = VERTEX_POINT ( 'NONE', #719 ) ;
#467 = DIRECTION ( 'NONE',  ( 0.000000000000000000, 0.000000000000000000, 1.000000000000000000 ) ) ;
#468 = DIRECTION ( 'NONE',  ( -1.000000000000000000, 0.000000000000000000, 0.000000000000000000 ) ) ;
#469 = ORIENTED_EDGE ( 'NONE', *, *, #763, .T. ) ;
#470 = CARTESIAN_POINT ( 'NONE',  ( 0.02000826353020837209, -18.99998946498104146, -58.95933319566119479 ) ) ;
#471 = ADVANCED_FACE ( 'NONE', ( #313 ), #596, .T. ) ;
#472 = DIRECTION ( 'NONE',  ( 0.000000000000000000, 0.000000000000000000, 1.000000000000000000 ) ) ;
#473 = CIRCLE ( 'NONE', #340, 1.750000000000029310 ) ;
#474 = VECTOR ( 'NONE', #376, 1000.000000000000000 ) ;
#475 = ORIENTED_EDGE ( 'NONE', *, *, #603, .T. ) ;
#476 = LINE ( 'NONE', #316, #385 ) ;
#477 = DIRECTION ( 'NONE',  ( 1.000000000000000000, 0.000000000000000000, 0.000000000000000000 ) ) ;
#478 = DIRECTION ( 'NONE',  ( 1.000000000000000000, 0.000000000000000000, 0.000000000000000000 ) ) ;
#479 = ORIENTED_EDGE ( 'NONE', *, *, #895, .F. ) ;
#480 = LINE ( 'NONE', #66, #401 ) ;
#481 = DIRECTION ( 'NONE',  ( 1.000000000000000000, 0.000000000000000000, 0.000000000000000000 ) ) ;
#482 = ADVANCED_FACE ( 'NONE', ( #372 ), #774, .F. ) ;
#483 = ADVANCED_FACE ( 'NONE', ( #150 ), #434, .F. ) ;
#484 = VERTEX_POINT ( 'NONE', #363 ) ;
#485 = LINE ( 'NONE', #273, #560 ) ;
#486 = CARTESIAN_POINT ( 'NONE',  ( -20.36768017634463490, 13.28209587387546620, -4.949747468305946363 ) ) ;
#487 = AXIS2_PLACEMENT_3D ( 'NONE', #687, #8, #287 ) ;
#488 = EDGE_CURVE ( 'NONE', #243, #874, #700, .T. ) ;
#489 = EDGE_LOOP ( 'NONE', ( #215, #776 ) ) ;
#490 = CIRCLE ( 'NONE', #859, 3.249999999999999556 ) ;
#491 = DIRECTION ( 'NONE',  ( -1.000000000000000000, 0.000000000000000000, 0.000000000000000000 ) ) ;
#492 = DIRECTION ( 'NONE',  ( 0.000000000000000000, 0.000000000000000000, 1.000000000000000000 ) ) ;
#493 = DIRECTION ( 'NONE',  ( 0.000000000000000000, 0.000000000000000000, -1.000000000000000000 ) ) ;
#494 = DIRECTION ( 'NONE',  ( -0.000000000000000000, -0.000000000000000000, -1.000000000000000000 ) ) ;
#495 = ORIENTED_EDGE ( 'NONE', *, *, #415, .F. ) ;
#496 = DIRECTION ( 'NONE',  ( 0.000000000000000000, 0.000000000000000000, 1.000000000000000000 ) ) ;
#497 = DIRECTION ( 'NONE',  ( -0.000000000000000000, -0.000000000000000000, -1.000000000000000000 ) ) ;
#498 = CIRCLE ( 'NONE', #617, 3.249999999999999556 ) ;
#499 = ORIENTED_EDGE ( 'NONE', *, *, #199, .F. ) ;
#500 = AXIS2_PLACEMENT_3D ( 'NONE', #323, #200, #116 ) ;
#501 = CARTESIAN_POINT ( 'NONE',  ( 14.73180680321079983, -6.612912560569967013, 5.000000000000000000 ) ) ;
#502 = PRESENTATION_LAYER_ASSIGNMENT (  '', '', ( #138 ) ) ;
#503 = DIRECTION ( 'NONE',  ( 1.000000000000000000, 0.000000000000000000, -0.000000000000000000 ) ) ;
#504 = ORIENTED_EDGE ( 'NONE', *, *, #86, .T. ) ;
#505 = ORIENTED_EDGE ( 'NONE', *, *, #893, .T. ) ;
#506 = DIRECTION ( 'NONE',  ( 1.000000000000000000, 0.000000000000000000, 0.000000000000000000 ) ) ;
#507 = CARTESIAN_POINT ( 'NONE',  ( 11.48180680321079983, -6.612912560569967013, 5.000000000000000000 ) ) ;
#508 = ORIENTED_EDGE ( 'NONE', *, *, #317, .F. ) ;
#509 = ADVANCED_FACE ( 'NONE', ( #464 ), #682, .F. ) ;
#510 = EDGE_CURVE ( 'NONE', #361, #430, #407, .T. ) ;
#511 = ORIENTED_EDGE ( 'NONE', *, *, #551, .T. ) ;
#512 = CARTESIAN_POINT ( 'NONE',  ( -0.02000826353017578357, 18.99998946498105212, 0.000000000000000000 ) ) ;
#513 = CARTESIAN_POINT ( 'NONE',  ( 0.02000826353019332857, -18.99998946498104146, 0.000000000000000000 ) ) ;
#514 = CARTESIAN_POINT ( 'NONE',  ( 14.73180680321079983, -6.612912560569967013, 3.000000000000000000 ) ) ;
#515 = ADVANCED_FACE ( 'NONE', ( #796 ), #184, .F. ) ;
#516 = ORIENTED_EDGE ( 'NONE', *, *, #606, .F. ) ;
#517 = CARTESIAN_POINT ( 'NONE',  ( 14.73180680321079983, -6.612912560569967013, 5.000000000000000000 ) ) ;
#518 = CIRCLE ( 'NONE', #443, 3.249999999999999556 ) ;
#519 = CIRCLE ( 'NONE', #716, 3.249999999999999556 ) ;
#520 = DIRECTION ( 'NONE',  ( 0.000000000000000000, 0.000000000000000000, 1.000000000000000000 ) ) ;
#521 = AXIS2_PLACEMENT_3D ( 'NONE', #697, #496, #550 ) ;
#522 = CARTESIAN_POINT ( 'NONE',  ( -22.08965727662295819, -13.32864916588429516, 0.000000000000000000 ) ) ;
#523 = ORIENTED_EDGE ( 'NONE', *, *, #762, .T. ) ;
#524 = FACE_OUTER_BOUND ( 'NONE', #58, .T. ) ;
#525 = ADVANCED_FACE ( 'NONE', ( #615 ), #881, .T. ) ;
#526 = CARTESIAN_POINT ( 'NONE',  ( 3.000000000001004086, -9.551396211362478083E-14, 1.000000000000000000 ) ) ;
#527 = CARTESIAN_POINT ( 'NONE',  ( 1.025872769961214492E-12, -9.588135615336898627E-14, 0.000000000000000000 ) ) ;
#528 = ORIENTED_EDGE ( 'NONE', *, *, #415, .T. ) ;
#529 = EDGE_CURVE ( 'NONE', #409, #439, #676, .T. ) ;
#530 = DIRECTION ( 'NONE',  ( 1.000000000000000000, 0.000000000000000000, 0.000000000000000000 ) ) ;
#531 = EDGE_LOOP ( 'NONE', ( #869, #897 ) ) ;
#532 = PRESENTATION_STYLE_ASSIGNMENT (( #312 ) ) ;
#533 = CARTESIAN_POINT ( 'NONE',  ( 11.48180680321079983, -6.612912560569967013, -4.949747468305946363 ) ) ;
#534 = CIRCLE ( 'NONE', #487, 2.999999999999977796 ) ;
#535 = CARTESIAN_POINT ( 'NONE',  ( 13.23180680321081581, -6.612912560569967013, 3.000000000000000000 ) ) ;
#536 = AXIS2_PLACEMENT_3D ( 'NONE', #507, #592, #662 ) ;
#537 = ORIENTED_EDGE ( 'NONE', *, *, #769, .F. ) ;
#538 = DIRECTION ( 'NONE',  ( 1.000000000000000000, 0.000000000000000000, 0.000000000000000000 ) ) ;
#539 = CYLINDRICAL_SURFACE ( 'NONE', #558, 2.999999999999977796 ) ;
#540 = ORIENTED_EDGE ( 'NONE', *, *, #866, .F. ) ;
#541 = CARTESIAN_POINT ( 'NONE',  ( 9.717853672064418191, 6.637080092639978446, -4.949747468305946363 ) ) ;
#542 = DIRECTION ( 'NONE',  ( 1.000000000000000000, 0.000000000000000000, 0.000000000000000000 ) ) ;
#543 = EDGE_LOOP ( 'NONE', ( #142, #516 ) ) ;
#544 = DIRECTION ( 'NONE',  ( -0.9999994455253179426, -0.001053066501588198565, 0.000000000000000000 ) ) ;
#545 = LINE ( 'NONE', #744, #163 ) ;
#546 = AXIS2_PLACEMENT_3D ( 'NONE', #597, #245, #798 ) ;
#547 = AXIS2_PLACEMENT_3D ( 'NONE', #726, #433, #149 ) ;
#548 = ORIENTED_EDGE ( 'NONE', *, *, #240, .T. ) ;
#549 = EDGE_CURVE ( 'NONE', #466, #614, #247, .T. ) ;
#550 = DIRECTION ( 'NONE',  ( 1.000000000000000000, 0.000000000000000000, 0.000000000000000000 ) ) ;
#551 = EDGE_CURVE ( 'NONE', #484, #258, #178, .T. ) ;
#552 = DIRECTION ( 'NONE',  ( 1.000000000000000000, 0.000000000000000000, 0.000000000000000000 ) ) ;
#553 = ORIENTED_EDGE ( 'NONE', *, *, #373, .F. ) ;
#554 = CARTESIAN_POINT ( 'NONE',  ( 8.217853672064391546, 6.637080092639978446, 5.000000000000000000 ) ) ;
#555 = EDGE_LOOP ( 'NONE', ( #154, #794 ) ) ;
#556 = CYLINDRICAL_SURFACE ( 'NONE', #448, 3.249999999999999556 ) ;
#557 = LINE ( 'NONE', #831, #461 ) ;
#558 = AXIS2_PLACEMENT_3D ( 'NONE', #600, #808, #468 ) ;
#559 = VECTOR ( 'NONE', #634, 1000.000000000000000 ) ;
#560 = VECTOR ( 'NONE', #143, 1000.000000000000000 ) ;
#561 = CARTESIAN_POINT ( 'NONE',  ( 11.46785367206438977, 6.637080092639978446, 3.000000000000000000 ) ) ;
#562 = DIRECTION ( 'NONE',  ( 1.000000000000000000, 0.000000000000000000, 0.000000000000000000 ) ) ;
#563 = ADVANCED_FACE ( 'NONE', ( #460 ), #679, .F. ) ;
#564 = DIRECTION ( 'NONE',  ( 0.000000000000000000, 0.000000000000000000, 1.000000000000000000 ) ) ;
#565 = CARTESIAN_POINT ( 'NONE',  ( -23.83965727662299017, -13.32864916588429516, 3.000000000000000000 ) ) ;
#566 = EDGE_LOOP ( 'NONE', ( #82, #783, #758, #402 ) ) ;
#567 = DIRECTION ( 'NONE',  ( 0.000000000000000000, 0.000000000000000000, 1.000000000000000000 ) ) ;
#568 = DIRECTION ( 'NONE',  ( 1.000000000000000000, 0.000000000000000000, 0.000000000000000000 ) ) ;
#569 = EDGE_LOOP ( 'NONE', ( #607, #334, #329, #79 ) ) ;
#570 = AXIS2_PLACEMENT_3D ( 'NONE', #635, #757, #132 ) ;
#571 = ORIENTED_EDGE ( 'NONE', *, *, #510, .T. ) ;
#572 = CARTESIAN_POINT ( 'NONE',  ( 9.731806803210785617, -6.612912560569967013, 0.000000000000000000 ) ) ;
#573 = AXIS2_PLACEMENT_3D ( 'NONE', #707, #712, #85 ) ;
#574 = EDGE_CURVE ( 'NONE', #619, #463, #223, .T. ) ;
#575 = CARTESIAN_POINT ( 'NONE',  ( 9.731806803210785617, -6.612912560569967013, 3.000000000000000000 ) ) ;
#576 = EDGE_CURVE ( 'NONE', #205, #78, #748, .T. ) ;
#577 = EDGE_LOOP ( 'NONE', ( #880, #505, #779, #709 ) ) ;
#578 = VERTEX_POINT ( 'NONE', #815 ) ;
#579 = CARTESIAN_POINT ( 'NONE',  ( -25.36768017634467398, 13.28209587387546620, 5.000000000000000000 ) ) ;
#580 = FACE_OUTER_BOUND ( 'NONE', #341, .T. ) ;
#581 = FACE_OUTER_BOUND ( 'NONE', #729, .T. ) ;
#582 = UNCERTAINTY_MEASURE_WITH_UNIT (LENGTH_MEASURE( 1.000000000000000082E-05 ), #267, 'distance_accuracy_value', 'NONE');
#583 = EDGE_CURVE ( 'NONE', #228, #849, #803, .T. ) ;
#584 = ORIENTED_EDGE ( 'NONE', *, *, #187, .F. ) ;
#585 = DIRECTION ( 'NONE',  ( -0.000000000000000000, -0.000000000000000000, 1.000000000000000000 ) ) ;
#586 = CARTESIAN_POINT ( 'NONE',  ( 0.000000000000000000, 0.000000000000000000, 3.000000000000000000 ) ) ;
#587 = ORIENTED_EDGE ( 'NONE', *, *, #669, .F. ) ;
#588 = ORIENTED_EDGE ( 'NONE', *, *, #444, .T. ) ;
#589 = CARTESIAN_POINT ( 'NONE',  ( 1.025872769961214492E-12, -9.588135615336898627E-14, 1.000000000000000000 ) ) ;
#590 = CIRCLE ( 'NONE', #208, 1.749999999999972022 ) ;
#591 = AXIS2_PLACEMENT_3D ( 'NONE', #87, #653, #231 ) ;
#592 = DIRECTION ( 'NONE',  ( 0.000000000000000000, 0.000000000000000000, 1.000000000000000000 ) ) ;
#593 = ORIENTED_EDGE ( 'NONE', *, *, #248, .T. ) ;
#594 = ORIENTED_EDGE ( 'NONE', *, *, #767, .T. ) ;
#595 = SURFACE_SIDE_STYLE ('',( #35 ) ) ;
#596 = CYLINDRICAL_SURFACE ( 'NONE', #31, 19.00000000000000000 ) ;
#597 = CARTESIAN_POINT ( 'NONE',  ( -22.08965727662295819, -13.32864916588429516, -4.949747468305946363 ) ) ;
#598 = ORIENTED_EDGE ( 'NONE', *, *, #94, .F. ) ;
#599 = CARTESIAN_POINT ( 'NONE',  ( 8.217853672064391546, 6.637080092639978446, 5.000000000000000000 ) ) ;
#600 = CARTESIAN_POINT ( 'NONE',  ( 1.025872769961214492E-12, -9.588135615336898627E-14, 1.000000000000000000 ) ) ;
#601 = ORIENTED_EDGE ( 'NONE', *, *, #827, .T. ) ;
#602 = AXIS2_PLACEMENT_3D ( 'NONE', #404, #257, #542 ) ;
#603 = EDGE_CURVE ( 'NONE', #435, #176, #394, .T. ) ;
#604 = FACE_BOUND ( 'NONE', #396, .T. ) ;
#605 = AXIS2_PLACEMENT_3D ( 'NONE', #28, #103, #156 ) ;
#606 = EDGE_CURVE ( 'NONE', #874, #243, #785, .T. ) ;
#607 = ORIENTED_EDGE ( 'NONE', *, *, #826, .F. ) ;
#608 = DIRECTION ( 'NONE',  ( -0.000000000000000000, -0.000000000000000000, -1.000000000000000000 ) ) ;
#609 = CARTESIAN_POINT ( 'NONE',  ( 11.48180680321079983, -6.612912560569967013, 0.000000000000000000 ) ) ;
#610 = ORIENTED_EDGE ( 'NONE', *, *, #640, .T. ) ;
#611 = CARTESIAN_POINT ( 'NONE',  ( 11.48180680321079983, -6.612912560569967013, 5.000000000000000000 ) ) ;
#612 = DIRECTION ( 'NONE',  ( -0.9999994455253179426, -0.001053066501588428849, 0.000000000000000000 ) ) ;
#613 = ADVANCED_FACE ( 'NONE', ( #871 ), #126, .T. ) ;
#614 = VERTEX_POINT ( 'NONE', #122 ) ;
#615 = FACE_OUTER_BOUND ( 'NONE', #246, .T. ) ;
#616 = CARTESIAN_POINT ( 'NONE',  ( 13.21785367206436312, 6.637080092639978446, -4.949747468305946363 ) ) ;
#617 = AXIS2_PLACEMENT_3D ( 'NONE', #141, #271, #836 ) ;
#618 = AXIS2_PLACEMENT_3D ( 'NONE', #611, #261, #477 ) ;
#619 = VERTEX_POINT ( 'NONE', #52 ) ;
#620 = EDGE_CURVE ( 'NONE', #107, #865, #106, .T. ) ;
#621 = FACE_OUTER_BOUND ( 'NONE', #839, .T. ) ;
#622 = VERTEX_POINT ( 'NONE', #829 ) ;
#623 = FACE_OUTER_BOUND ( 'NONE', #805, .T. ) ;
#624 = DIRECTION ( 'NONE',  ( -0.000000000000000000, -0.000000000000000000, -1.000000000000000000 ) ) ;
#625 = CYLINDRICAL_SURFACE ( 'NONE', #701, 3.249999999999999556 ) ;
#626 = CARTESIAN_POINT ( 'NONE',  ( -45.01998331216947236, 18.95260147240957238, 5.000000000000000000 ) ) ;
#627 = VECTOR ( 'NONE', #325, 1000.000000000000000 ) ;
#628 = EDGE_CURVE ( 'NONE', #809, #38, #480, .T. ) ;
#629 = COLOUR_RGB ( '',1.000000000000000000, 1.000000000000000000, 0.000000000000000000 ) ;
#630 = AXIS2_PLACEMENT_3D ( 'NONE', #773, #781, #506 ) ;
#631 = CARTESIAN_POINT ( 'NONE',  ( -25.33965727662295819, -13.32864916588429516, 3.000000000000000000 ) ) ;
#632 = FACE_OUTER_BOUND ( 'NONE', #9, .T. ) ;
#633 = ORIENTED_EDGE ( 'NONE', *, *, #529, .F. ) ;
#634 = DIRECTION ( 'NONE',  ( -0.000000000000000000, -0.000000000000000000, -1.000000000000000000 ) ) ;
#635 = CARTESIAN_POINT ( 'NONE',  ( -22.08965727662295819, -13.32864916588429516, 5.000000000000000000 ) ) ;
#636 = ORIENTED_EDGE ( 'NONE', *, *, #60, .T. ) ;
#637 = EDGE_CURVE ( 'NONE', #849, #78, #4, .T. ) ;
#638 = ORIENTED_EDGE ( 'NONE', *, *, #212, .T. ) ;
#639 = PLANE ( 'NONE',  #733 ) ;
#640 = EDGE_CURVE ( 'NONE', #22, #168, #135, .T. ) ;
#641 = CARTESIAN_POINT ( 'NONE',  ( -22.11768017634467398, 13.28209587387546620, 3.000000000000000000 ) ) ;
#642 = EDGE_LOOP ( 'NONE', ( #793, #751 ) ) ;
#643 = ORIENTED_EDGE ( 'NONE', *, *, #767, .F. ) ;
#644 = CIRCLE ( 'NONE', #591, 19.00000000000001066 ) ;
#645 = DIRECTION ( 'NONE',  ( 0.9999994455253179426, 0.001053066501588198348, -2.977370437452629614E-16 ) ) ;
#646 = CIRCLE ( 'NONE', #211, 3.249999999999999556 ) ;
#647 = EDGE_CURVE ( 'NONE', #179, #51, #731, .T. ) ;
#648 = CARTESIAN_POINT ( 'NONE',  ( 0.000000000000000000, 0.000000000000000000, 3.000000000000000000 ) ) ;
#649 = MANIFOLD_SOLID_BREP ( 'Dodanie-wyci¹gniêcie3', #263 ) ;
#650 = VERTEX_POINT ( 'NONE', #631 ) ;
#651 = ORIENTED_EDGE ( 'NONE', *, *, #283, .T. ) ;
#652 = CARTESIAN_POINT ( 'NONE',  ( 11.46785367206438977, 6.637080092639978446, -4.949747468305946363 ) ) ;
#653 = DIRECTION ( 'NONE',  ( 0.000000000000000000, 0.000000000000000000, 1.000000000000000000 ) ) ;
#654 = ORIENTED_EDGE ( 'NONE', *, *, #606, .T. ) ;
#655 = EDGE_LOOP ( 'NONE', ( #633, #157, #636, #479 ) ) ;
#656 = FACE_OUTER_BOUND ( 'NONE', #720, .T. ) ;
#657 = DIRECTION ( 'NONE',  ( 0.9999994455253179426, 0.001053066501587966112, 0.000000000000000000 ) ) ;
#658 = DIRECTION ( 'NONE',  ( -0.000000000000000000, -0.000000000000000000, -1.000000000000000000 ) ) ;
#659 = EDGE_LOOP ( 'NONE', ( #300, #685, #84, #673 ) ) ;
#660 = AXIS2_PLACEMENT_3D ( 'NONE', #825, #217, #568 ) ;
#661 = VECTOR ( 'NONE', #244, 1000.000000000000000 ) ;
#662 = DIRECTION ( 'NONE',  ( 1.000000000000000000, 0.000000000000000000, 0.000000000000000000 ) ) ;
#663 = VERTEX_POINT ( 'NONE', #203 ) ;
#664 = VERTEX_POINT ( 'NONE', #347 ) ;
#665 =( LENGTH_UNIT ( ) NAMED_UNIT ( * ) SI_UNIT ( .MILLI., .METRE. ) );
#666 = DIRECTION ( 'NONE',  ( -0.000000000000000000, -0.000000000000000000, -1.000000000000000000 ) ) ;
#667 = DIRECTION ( 'NONE',  ( -0.000000000000000000, -0.000000000000000000, -1.000000000000000000 ) ) ;
#668 = ORIENTED_EDGE ( 'NONE', *, *, #769, .T. ) ;
#669 = EDGE_CURVE ( 'NONE', #130, #430, #281, .T. ) ;
#670 = DIRECTION ( 'NONE',  ( 0.001053066501587990398, -0.9999994455253179426, 0.000000000000000000 ) ) ;
#671 = EDGE_CURVE ( 'NONE', #164, #361, #485, .T. ) ;
#672 = CARTESIAN_POINT ( 'NONE',  ( 8.231806803210801604, -6.612912560569967013, 5.000000000000000000 ) ) ;
#673 = ORIENTED_EDGE ( 'NONE', *, *, #319, .F. ) ;
#674 = CIRCLE ( 'NONE', #352, 3.249999999999999556 ) ;
#675 = DIRECTION ( 'NONE',  ( 0.9999994455253179426, 0.001053066501588196830, 0.000000000000000000 ) ) ;
#676 = CIRCLE ( 'NONE', #277, 2.999999999999977796 ) ;
#677 = DIRECTION ( 'NONE',  ( -0.9999994455253179426, -0.001053066501588196830, 2.977370437452629121E-16 ) ) ;
#678 = EDGE_LOOP ( 'NONE', ( #321, #702 ) ) ;
#679 = CYLINDRICAL_SURFACE ( 'NONE', #890, 1.749999999999972022 ) ;
#680 = DIRECTION ( 'NONE',  ( -0.000000000000000000, -0.000000000000000000, -1.000000000000000000 ) ) ;
#681 = ORIENTED_EDGE ( 'NONE', *, *, #735, .T. ) ;
#682 = CYLINDRICAL_SURFACE ( 'NONE', #15, 1.750000000000015543 ) ;
#683 = CARTESIAN_POINT ( 'NONE',  ( -22.11768017634467398, 13.28209587387546620, 0.000000000000000000 ) ) ;
#684 = EDGE_CURVE ( 'NONE', #650, #258, #646, .T. ) ;
#685 = ORIENTED_EDGE ( 'NONE', *, *, #431, .T. ) ;
#686 = DIRECTION ( 'NONE',  ( -0.000000000000000000, -0.000000000000000000, 1.000000000000000000 ) ) ;
#687 = CARTESIAN_POINT ( 'NONE',  ( 1.025872769961214492E-12, -9.588135615336898627E-14, 1.000000000000000000 ) ) ;
#688 = CIRCLE ( 'NONE', #291, 3.249999999999999556 ) ;
#689 = VECTOR ( 'NONE', #209, 1000.000000000000000 ) ;
#690 = PRODUCT_DEFINITION_CONTEXT ( 'detailed design', #172, 'design' ) ;
#691 = AXIS2_PLACEMENT_3D ( 'NONE', #7, #567, #855 ) ;
#692 = ORIENTED_EDGE ( 'NONE', *, *, #762, .F. ) ;
#693 = DIRECTION ( 'NONE',  ( 1.000000000000000000, 0.000000000000000000, -0.000000000000000000 ) ) ;
#694 = CYLINDRICAL_SURFACE ( 'NONE', #180, 3.249999999999999556 ) ;
#695 = DIRECTION ( 'NONE',  ( -0.000000000000000000, -0.000000000000000000, -1.000000000000000000 ) ) ;
#696 = CARTESIAN_POINT ( 'NONE',  ( -0.02000826353020716819, 18.99998946498104146, -58.95933319566119479 ) ) ;
#697 = CARTESIAN_POINT ( 'NONE',  ( -22.11768017634467398, 13.28209587387546620, 5.000000000000000000 ) ) ;
#698 = DIRECTION ( 'NONE',  ( -0.001053066501587990615, 0.9999994455253179426, -1.419706948580453830E-16 ) ) ;
#699 = AXIS2_PLACEMENT_3D ( 'NONE', #734, #378, #295 ) ;
#700 = CIRCLE ( 'NONE', #845, 1.750000000000039746 ) ;
#701 = AXIS2_PLACEMENT_3D ( 'NONE', #889, #1, #278 ) ;
#702 = ORIENTED_EDGE ( 'NONE', *, *, #30, .F. ) ;
#703 = DIRECTION ( 'NONE',  ( 0.000000000000000000, 0.000000000000000000, 1.000000000000000000 ) ) ;
#704 = ORIENTED_EDGE ( 'NONE', *, *, #412, .F. ) ;
#705 = ADVANCED_FACE ( 'NONE', ( #139, #894 ), #898, .T. ) ;
#706 = ORIENTED_EDGE ( 'NONE', *, *, #671, .T. ) ;
#707 = CARTESIAN_POINT ( 'NONE',  ( 11.48180680321079983, -6.612912560569967013, 3.000000000000000000 ) ) ;
#708 = DIRECTION ( 'NONE',  ( 1.000000000000000000, 0.000000000000000000, 0.000000000000000000 ) ) ;
#709 = ORIENTED_EDGE ( 'NONE', *, *, #304, .F. ) ;
#710 = ADVANCED_FACE ( 'NONE', ( #623 ), #556, .F. ) ;
#711 = ORIENTED_EDGE ( 'NONE', *, *, #186, .T. ) ;
#712 = DIRECTION ( 'NONE',  ( 0.000000000000000000, 0.000000000000000000, 1.000000000000000000 ) ) ;
#713 = FACE_OUTER_BOUND ( 'NONE', #192, .T. ) ;
#714 = ORIENTED_EDGE ( 'NONE', *, *, #866, .T. ) ;
#715 = ORIENTED_EDGE ( 'NONE', *, *, #50, .F. ) ;
#716 = AXIS2_PLACEMENT_3D ( 'NONE', #72, #703, #354 ) ;
#717 = CYLINDRICAL_SURFACE ( 'NONE', #121, 1.749999999999972022 ) ;
#718 = AXIS2_PLACEMENT_3D ( 'NONE', #343, #357, #693 ) ;
#719 = CARTESIAN_POINT ( 'NONE',  ( 9.717853672064418191, 6.637080092639978446, 0.000000000000000000 ) ) ;
#720 = EDGE_LOOP ( 'NONE', ( #651, #843 ) ) ;
#721 = CARTESIAN_POINT ( 'NONE',  ( -44.97996678510912716, -19.04737745755251055, -58.95933319566119479 ) ) ;
#722 = DIRECTION ( 'NONE',  ( 1.000000000000000000, 0.000000000000000000, -0.000000000000000000 ) ) ;
#723 = ADVANCED_FACE ( 'NONE', ( #350 ), #625, .F. ) ;
#724 = CARTESIAN_POINT ( 'NONE',  ( -18.86768017634467753, 13.28209587387546620, 5.000000000000000000 ) ) ;
#725 = EDGE_LOOP ( 'NONE', ( #860, #88 ) ) ;
#726 = CARTESIAN_POINT ( 'NONE',  ( 11.46785367206438977, 6.637080092639978446, 5.000000000000000000 ) ) ;
#727 = CARTESIAN_POINT ( 'NONE',  ( -22.11768017634467398, 13.28209587387546620, -4.949747468305946363 ) ) ;
#728 = DIRECTION ( 'NONE',  ( 0.000000000000000000, 0.000000000000000000, -1.000000000000000000 ) ) ;
#729 = EDGE_LOOP ( 'NONE', ( #45, #299, #823, #594 ) ) ;
#730 = AXIS2_PLACEMENT_3D ( 'NONE', #683, #667, #891 ) ;
#731 = CIRCLE ( 'NONE', #136, 2.999999999999977796 ) ;
#732 = CARTESIAN_POINT ( 'NONE',  ( -22.11768017634467398, 13.28209587387546620, 0.000000000000000000 ) ) ;
#733 = AXIS2_PLACEMENT_3D ( 'NONE', #27, #297, #791 ) ;
#734 = CARTESIAN_POINT ( 'NONE',  ( 11.46785367206438977, 6.637080092639978446, 0.000000000000000000 ) ) ;
#735 = EDGE_CURVE ( 'NONE', #780, #664, #861, .T. ) ;
#736 = ADVANCED_FACE ( 'NONE', ( #821 ), #131, .T. ) ;
#737 = ORIENTED_EDGE ( 'NONE', *, *, #152, .F. ) ;
#738 = CYLINDRICAL_SURFACE ( 'NONE', #428, 1.750000000000039746 ) ;
#739 = DIRECTION ( 'NONE',  ( -1.000000000000000000, 0.000000000000000000, 0.000000000000000000 ) ) ;
#740 = CARTESIAN_POINT ( 'NONE',  ( -22.08965727662295819, -13.32864916588429516, -4.949747468305946363 ) ) ;
#741 = VERTEX_POINT ( 'NONE', #512 ) ;
#742 = DIRECTION ( 'NONE',  ( -0.000000000000000000, -0.000000000000000000, -1.000000000000000000 ) ) ;
#743 = ADVANCED_FACE ( 'NONE', ( #524 ), #219, .F. ) ;
#744 = CARTESIAN_POINT ( 'NONE',  ( -44.97996678510910584, -19.04737745755251055, 1.387778780781445676E-14 ) ) ;
#745 = ORIENTED_EDGE ( 'NONE', *, *, #669, .T. ) ;
#746 = SHAPE_DEFINITION_REPRESENTATION ( #220, #32 ) ;
#747 = CIRCLE ( 'NONE', #382, 3.249999999999999556 ) ;
#748 = LINE ( 'NONE', #335, #73 ) ;
#749 = CIRCLE ( 'NONE', #605, 1.750000000000015543 ) ;
#750 = LINE ( 'NONE', #879, #784 ) ;
#751 = ORIENTED_EDGE ( 'NONE', *, *, #431, .F. ) ;
#752 = CARTESIAN_POINT ( 'NONE',  ( -18.83965727662295819, -13.32864916588429516, 5.000000000000000000 ) ) ;
#753 = FACE_BOUND ( 'NONE', #97, .T. ) ;
#754 = UNCERTAINTY_MEASURE_WITH_UNIT (LENGTH_MEASURE( 1.000000000000000082E-05 ), #665, 'distance_accuracy_value', 'NONE');
#755 = ORIENTED_EDGE ( 'NONE', *, *, #510, .F. ) ;
#756 = DIRECTION ( 'NONE',  ( -1.000000000000000000, 0.000000000000000000, 0.000000000000000000 ) ) ;
#757 = DIRECTION ( 'NONE',  ( -0.000000000000000000, -0.000000000000000000, -1.000000000000000000 ) ) ;
#758 = ORIENTED_EDGE ( 'NONE', *, *, #317, .T. ) ;
#759 = CARTESIAN_POINT ( 'NONE',  ( 11.46785367206438977, 6.637080092639978446, 5.000000000000000000 ) ) ;
#760 = AXIS2_PLACEMENT_3D ( 'NONE', #227, #307, #170 ) ;
#761 = PRODUCT_DEFINITION_FORMATION_WITH_SPECIFIED_SOURCE ( 'ANY', '', #59, .NOT_KNOWN. ) ;
#762 = EDGE_CURVE ( 'NONE', #392, #449, #878, .T. ) ;
#763 = EDGE_CURVE ( 'NONE', #425, #168, #330, .T. ) ;
#764 = CARTESIAN_POINT ( 'NONE',  ( -22.11768017634467398, 13.28209587387546620, 5.000000000000000000 ) ) ;
#765 = DIRECTION ( 'NONE',  ( 1.000000000000000000, 0.000000000000000000, 0.000000000000000000 ) ) ;
#766 = CARTESIAN_POINT ( 'NONE',  ( 1.025872769961214492E-12, -9.588135615336898627E-14, 0.000000000000000000 ) ) ;
#767 = EDGE_CURVE ( 'NONE', #164, #741, #98, .T. ) ;
#768 = CARTESIAN_POINT ( 'NONE',  ( 11.46785367206438977, 6.637080092639978446, 3.000000000000000000 ) ) ;
#769 = EDGE_CURVE ( 'NONE', #854, #425, #846, .T. ) ;
#770 = LINE ( 'NONE', #486, #14 ) ;
#771 = EDGE_LOOP ( 'NONE', ( #537, #870, #610, #593 ) ) ;
#772 = ORIENTED_EDGE ( 'NONE', *, *, #457, .T. ) ;
#773 = CARTESIAN_POINT ( 'NONE',  ( -22.08965727662295819, -13.32864916588429516, 3.000000000000000000 ) ) ;
#774 = CYLINDRICAL_SURFACE ( 'NONE', #181, 1.750000000000039746 ) ;
#775 = ORIENTED_EDGE ( 'NONE', *, *, #603, .F. ) ;
#776 = ORIENTED_EDGE ( 'NONE', *, *, #405, .F. ) ;
#777 = CARTESIAN_POINT ( 'NONE',  ( -23.83965727662299017, -13.32864916588429516, -4.949747468305946363 ) ) ;
#778 = LINE ( 'NONE', #782, #146 ) ;
#779 = ORIENTED_EDGE ( 'NONE', *, *, #853, .F. ) ;
#780 = VERTEX_POINT ( 'NONE', #451 ) ;
#781 = DIRECTION ( 'NONE',  ( 0.000000000000000000, 0.000000000000000000, 1.000000000000000000 ) ) ;
#782 = CARTESIAN_POINT ( 'NONE',  ( -44.97996678510912716, -19.04737745755251055, 5.000000000000000000 ) ) ;
#783 = ORIENTED_EDGE ( 'NONE', *, *, #868, .T. ) ;
#784 = VECTOR ( 'NONE', #680, 1000.000000000000000 ) ;
#785 = CIRCLE ( 'NONE', #500, 1.750000000000039746 ) ;
#786 = EDGE_LOOP ( 'NONE', ( #173, #511, #114, #345 ) ) ;
#787 = DIRECTION ( 'NONE',  ( 1.000000000000000000, 0.000000000000000000, 0.000000000000000000 ) ) ;
#788 = FACE_BOUND ( 'NONE', #813, .T. ) ;
#789 = DIRECTION ( 'NONE',  ( -0.000000000000000000, -0.000000000000000000, -1.000000000000000000 ) ) ;
#790 = EDGE_LOOP ( 'NONE', ( #737, #475, #207, #587 ) ) ;
#791 = DIRECTION ( 'NONE',  ( 1.000000000000000000, 0.000000000000000000, -0.000000000000000000 ) ) ;
#792 = DIRECTION ( 'NONE',  ( -0.000000000000000000, -0.000000000000000000, -1.000000000000000000 ) ) ;
#793 = ORIENTED_EDGE ( 'NONE', *, *, #620, .F. ) ;
#794 = ORIENTED_EDGE ( 'NONE', *, *, #319, .T. ) ;
#795 = APPLICATION_PROTOCOL_DEFINITION ( 'draft international standard', 'automotive_design', 1998, #124 ) ;
#796 = FACE_OUTER_BOUND ( 'NONE', #569, .T. ) ;
#797 = ADVANCED_FACE ( 'NONE', ( #18, #169 ), #639, .T. ) ;
#798 = DIRECTION ( 'NONE',  ( 1.000000000000000000, 0.000000000000000000, 0.000000000000000000 ) ) ;
#799 = ADVANCED_FACE ( 'NONE', ( #656 ), #80, .T. ) ;
#800 = ORIENTED_EDGE ( 'NONE', *, *, #250, .F. ) ;
#801 = CIRCLE ( 'NONE', #730, 1.750000000000039746 ) ;
#802 =( GEOMETRIC_REPRESENTATION_CONTEXT ( 3 ) GLOBAL_UNCERTAINTY_ASSIGNED_CONTEXT ( ( #582 ) ) GLOBAL_UNIT_ASSIGNED_CONTEXT ( ( #267, #70, #270 ) ) REPRESENTATION_CONTEXT ( 'NONE', 'WORKASPACE' ) );
#803 = LINE ( 'NONE', #599, #876 ) ;
#804 = FACE_OUTER_BOUND ( 'NONE', #655, .T. ) ;
#805 = EDGE_LOOP ( 'NONE', ( #54, #772, #303, #92 ) ) ;
#806 =( NAMED_UNIT ( * ) SI_UNIT ( $, .STERADIAN. ) SOLID_ANGLE_UNIT ( ) );
#807 = DIRECTION ( 'NONE',  ( -0.000000000000000000, -0.000000000000000000, 1.000000000000000000 ) ) ;
#808 = DIRECTION ( 'NONE',  ( -0.000000000000000000, -0.000000000000000000, -1.000000000000000000 ) ) ;
#809 = VERTEX_POINT ( 'NONE', #362 ) ;
#810 = DIRECTION ( 'NONE',  ( -0.000000000000000000, -0.000000000000000000, 1.000000000000000000 ) ) ;
#811 = DIRECTION ( 'NONE',  ( -0.000000000000000000, -0.000000000000000000, -1.000000000000000000 ) ) ;
#812 = CARTESIAN_POINT ( 'NONE',  ( 14.71785367206438977, 6.637080092639978446, 5.000000000000000000 ) ) ;
#813 = EDGE_LOOP ( 'NONE', ( #540, #508 ) ) ;
#814 = AXIS2_PLACEMENT_3D ( 'NONE', #740, #336, #552 ) ;
#815 = CARTESIAN_POINT ( 'NONE',  ( -23.83965727662299017, -13.32864916588429516, 0.000000000000000000 ) ) ;
#816 = PRODUCT_RELATED_PRODUCT_CATEGORY ( 'part', '', ( #59 ) ) ;
#817 = VECTOR ( 'NONE', #69, 1000.000000000000000 ) ;
#818 = CARTESIAN_POINT ( 'NONE',  ( -45.01998331216947236, 18.95260147240957238, 6.938893903907228378E-15 ) ) ;
#819 = AXIS2_PLACEMENT_3D ( 'NONE', #371, #239, #102 ) ;
#820 = ORIENTED_EDGE ( 'NONE', *, *, #373, .T. ) ;
#821 = FACE_OUTER_BOUND ( 'NONE', #10, .T. ) ;
#822 = CARTESIAN_POINT ( 'NONE',  ( -22.11768017634467398, 13.28209587387546620, 3.000000000000000000 ) ) ;
#823 = ORIENTED_EDGE ( 'NONE', *, *, #346, .T. ) ;
#824 = FILL_AREA_STYLE_COLOUR ( '', #629 ) ;
#825 = CARTESIAN_POINT ( 'NONE',  ( 11.48180680321079983, -6.612912560569967013, 3.000000000000000000 ) ) ;
#826 = EDGE_CURVE ( 'NONE', #409, #51, #290, .T. ) ;
#827 = EDGE_CURVE ( 'NONE', #622, #614, #167, .T. ) ;
#828 = EDGE_LOOP ( 'NONE', ( #584, #13 ) ) ;
#829 = CARTESIAN_POINT ( 'NONE',  ( 13.21785367206436312, 6.637080092639978446, 3.000000000000000000 ) ) ;
#830 = AXIS2_PLACEMENT_3D ( 'NONE', #49, #465, #481 ) ;
#831 = CARTESIAN_POINT ( 'NONE',  ( -44.97996678510912716, -19.04737745755250344, 1.387778780781445676E-14 ) ) ;
#832 = CIRCLE ( 'NONE', #89, 2.999999999999977796 ) ;
#833 = CIRCLE ( 'NONE', #536, 3.249999999999999556 ) ;
#834 = VECTOR ( 'NONE', #645, 1000.000000000000114 ) ;
#835 = CARTESIAN_POINT ( 'NONE',  ( 13.23180680321081581, -6.612912560569967013, -4.949747468305946363 ) ) ;
#836 = DIRECTION ( 'NONE',  ( 1.000000000000000000, 0.000000000000000000, 0.000000000000000000 ) ) ;
#837 = SURFACE_SIDE_STYLE ('',( #68 ) ) ;
#838 = CYLINDRICAL_SURFACE ( 'NONE', #90, 3.249999999999999556 ) ;
#839 = EDGE_LOOP ( 'NONE', ( #238, #148, #229, #704 ) ) ;
#840 = CARTESIAN_POINT ( 'NONE',  ( 3.000000000001004086, -9.551396211362478083E-14, 1.000000000000000000 ) ) ;
#841 = EDGE_CURVE ( 'NONE', #780, #392, #226, .T. ) ;
#842 = DIRECTION ( 'NONE',  ( 0.000000000000000000, 0.000000000000000000, 1.000000000000000000 ) ) ;
#843 = ORIENTED_EDGE ( 'NONE', *, *, #529, .T. ) ;
#844 = CIRCLE ( 'NONE', #400, 1.750000000000029310 ) ;
#845 = AXIS2_PLACEMENT_3D ( 'NONE', #641, #377, #12 ) ;
#846 = LINE ( 'NONE', #455, #474 ) ;
#847 = DIRECTION ( 'NONE',  ( -0.000000000000000000, -0.000000000000000000, 1.000000000000000000 ) ) ;
#848 = VERTEX_POINT ( 'NONE', #161 ) ;
#849 = VERTEX_POINT ( 'NONE', #850 ) ;
#850 = CARTESIAN_POINT ( 'NONE',  ( 8.217853672064391546, 6.637080092639978446, 3.000000000000000000 ) ) ;
#851 = FACE_BOUND ( 'NONE', #75, .T. ) ;
#852 = FACE_BOUND ( 'NONE', #678, .T. ) ;
#853 = EDGE_CURVE ( 'NONE', #663, #25, #166, .T. ) ;
#854 = VERTEX_POINT ( 'NONE', #572 ) ;
#855 = DIRECTION ( 'NONE',  ( 1.000000000000000000, 0.000000000000000000, 0.000000000000000000 ) ) ;
#856 = CARTESIAN_POINT ( 'NONE',  ( 11.48180680321079983, -6.612912560569967013, -4.949747468305946363 ) ) ;
#857 = ORIENTED_EDGE ( 'NONE', *, *, #212, .F. ) ;
#858 = VECTOR ( 'NONE', #145, 1000.000000000000000 ) ;
#859 = AXIS2_PLACEMENT_3D ( 'NONE', #162, #36, #708 ) ;
#860 = ORIENTED_EDGE ( 'NONE', *, *, #248, .F. ) ;
#861 = CIRCLE ( 'NONE', #521, 3.249999999999999556 ) ;
#862 = DIRECTION ( 'NONE',  ( -1.000000000000000000, 0.000000000000000000, -0.000000000000000000 ) ) ;
#863 = DIRECTION ( 'NONE',  ( 0.000000000000000000, 0.000000000000000000, 1.000000000000000000 ) ) ;
#864 = ORIENTED_EDGE ( 'NONE', *, *, #292, .T. ) ;
#865 = VERTEX_POINT ( 'NONE', #501 ) ;
#866 = EDGE_CURVE ( 'NONE', #38, #311, #294, .T. ) ;
#867 = CARTESIAN_POINT ( 'NONE',  ( 0.000000000000000000, 0.000000000000000000, 3.000000000000000000 ) ) ;
#868 = EDGE_CURVE ( 'NONE', #578, #311, #230, .T. ) ;
#869 = ORIENTED_EDGE ( 'NONE', *, *, #574, .F. ) ;
#870 = ORIENTED_EDGE ( 'NONE', *, *, #405, .T. ) ;
#871 = FACE_OUTER_BOUND ( 'NONE', #790, .T. ) ;
#872 = ADVANCED_FACE ( 'NONE', ( #442 ), #717, .F. ) ;
#873 = DIRECTION ( 'NONE',  ( 0.000000000000000000, 0.000000000000000000, 1.000000000000000000 ) ) ;
#874 = VERTEX_POINT ( 'NONE', #301 ) ;
#875 = CARTESIAN_POINT ( 'NONE',  ( -22.11768017634467398, 13.28209587387546620, -4.949747468305946363 ) ) ;
#876 = VECTOR ( 'NONE', #608, 1000.000000000000000 ) ;
#877 = DIRECTION ( 'NONE',  ( 1.000000000000000000, 0.000000000000000000, 0.000000000000000000 ) ) ;
#878 = CIRCLE ( 'NONE', #48, 3.249999999999999556 ) ;
#879 = CARTESIAN_POINT ( 'NONE',  ( -25.33965727662295819, -13.32864916588429516, 5.000000000000000000 ) ) ;
#880 = ORIENTED_EDGE ( 'NONE', *, *, #620, .T. ) ;
#881 = PLANE ( 'NONE',  #414 ) ;
#882 = FACE_OUTER_BOUND ( 'NONE', #134, .T. ) ;
#883 = ORIENTED_EDGE ( 'NONE', *, *, #355, .T. ) ;
#884 = FACE_OUTER_BOUND ( 'NONE', #264, .T. ) ;
#885 = DIRECTION ( 'NONE',  ( -1.000000000000000000, 0.000000000000000000, 0.000000000000000000 ) ) ;
#886 = CARTESIAN_POINT ( 'NONE',  ( -22.08965727662295819, -13.32864916588429516, 0.000000000000000000 ) ) ;
#887 = ORIENTED_EDGE ( 'NONE', *, *, #250, .T. ) ;
#888 = VECTOR ( 'NONE', #421, 1000.000000000000000 ) ;
#889 = CARTESIAN_POINT ( 'NONE',  ( 11.48180680321079983, -6.612912560569967013, 5.000000000000000000 ) ) ;
#890 = AXIS2_PLACEMENT_3D ( 'NONE', #42, #807, #877 ) ;
#891 = DIRECTION ( 'NONE',  ( 1.000000000000000000, 0.000000000000000000, 0.000000000000000000 ) ) ;
#892 = ORIENTED_EDGE ( 'NONE', *, *, #346, .F. ) ;
#893 = EDGE_CURVE ( 'NONE', #865, #25, #233, .T. ) ;
#894 = FACE_OUTER_BOUND ( 'NONE', #375, .T. ) ;
#895 = EDGE_CURVE ( 'NONE', #439, #179, #476, .T. ) ;
#896 = CARTESIAN_POINT ( 'NONE',  ( -22.08965727662295819, -13.32864916588429516, 3.000000000000000000 ) ) ;
#897 = ORIENTED_EDGE ( 'NONE', *, *, #133, .F. ) ;
#898 = PLANE ( 'NONE',  #718 ) ;
#899 = DIRECTION ( 'NONE',  ( -1.000000000000000000, 0.000000000000000000, 0.000000000000000000 ) ) ;
#900 = ADVANCED_FACE ( 'NONE', ( #884 ), #738, .F. ) ;
ENDSEC;
END-ISO-10303-21;
