ISO-10303-21;
HEADER;
FILE_DESCRIPTION (( 'STEP AP214' ),
    '1' );
FILE_NAME ('009_004_Left_right_connector_lock.STEP',
    '2024-07-21T08:25:12',
    ( '' ),
    ( '' ),
    'SwSTEP 2.0',
    'SolidWorks 2019',
    '' );
FILE_SCHEMA (( 'AUTOMOTIVE_DESIGN' ));
ENDSEC;

DATA;
#1 = DIRECTION ( 'NONE',  ( 0.000000000000000000, 0.000000000000000000, 1.000000000000000000 ) ) ;
#2 = AXIS2_PLACEMENT_3D ( 'NONE', #860, #499, #505 ) ;
#3 = ORIENTED_EDGE ( 'NONE', *, *, #464, .T. ) ;
#4 = DIRECTION ( 'NONE',  ( -0.000000000000000000, -0.000000000000000000, -1.000000000000000000 ) ) ;
#5 = DIRECTION ( 'NONE',  ( -0.000000000000000000, -0.000000000000000000, -1.000000000000000000 ) ) ;
#6 = EDGE_CURVE ( 'NONE', #641, #674, #87, .T. ) ;
#7 = ORIENTED_EDGE ( 'NONE', *, *, #208, .F. ) ;
#8 = CARTESIAN_POINT ( 'NONE',  ( 0.000000000000000000, 0.000000000000000000, 7.000000000000000000 ) ) ;
#9 = DIRECTION ( 'NONE',  ( 0.000000000000000000, 0.000000000000000000, 1.000000000000000000 ) ) ;
#10 = EDGE_CURVE ( 'NONE', #587, #165, #170, .T. ) ;
#11 = ORIENTED_EDGE ( 'NONE', *, *, #428, .F. ) ;
#12 = CIRCLE ( 'NONE', #373, 1.749999999999954703 ) ;
#13 = CYLINDRICAL_SURFACE ( 'NONE', #625, 3.250000000000046185 ) ;
#14 = ORIENTED_EDGE ( 'NONE', *, *, #863, .F. ) ;
#15 = ORIENTED_EDGE ( 'NONE', *, *, #560, .F. ) ;
#16 = CARTESIAN_POINT ( 'NONE',  ( 9.717853672064341808, 6.637080092639984663, 5.000000000000000000 ) ) ;
#17 = AXIS2_PLACEMENT_3D ( 'NONE', #439, #959, #748 ) ;
#18 = ORIENTED_EDGE ( 'NONE', *, *, #824, .F. ) ;
#19 = EDGE_CURVE ( 'NONE', #849, #786, #795, .T. ) ;
#20 = CYLINDRICAL_SURFACE ( 'NONE', #969, 3.249999999999992450 ) ;
#21 = CARTESIAN_POINT ( 'NONE',  ( -25.36768017634462780, 13.28209587387544843, 5.000000000000000000 ) ) ;
#22 = ORIENTED_EDGE ( 'NONE', *, *, #115, .F. ) ;
#23 = ORIENTED_EDGE ( 'NONE', *, *, #94, .T. ) ;
#24 = CARTESIAN_POINT ( 'NONE',  ( 11.46785367206435069, 6.637080092639984663, -4.949747468305917941 ) ) ;
#25 = CIRCLE ( 'NONE', #937, 1.750000000000008438 ) ;
#26 = DIRECTION ( 'NONE',  ( 0.000000000000000000, 0.000000000000000000, 1.000000000000000000 ) ) ;
#27 = ORIENTED_EDGE ( 'NONE', *, *, #724, .T. ) ;
#28 = ORIENTED_EDGE ( 'NONE', *, *, #705, .F. ) ;
#29 = CARTESIAN_POINT ( 'NONE',  ( -25.33965727662292267, -13.32864916588431292, 7.000000000000000000 ) ) ;
#30 = DIRECTION ( 'NONE',  ( 0.000000000000000000, 0.000000000000000000, 1.000000000000000000 ) ) ;
#31 = VECTOR ( 'NONE', #875, 1000.000000000000114 ) ;
#32 = EDGE_CURVE ( 'NONE', #855, #397, #707, .T. ) ;
#33 = DIRECTION ( 'NONE',  ( 0.000000000000000000, 0.000000000000000000, 1.000000000000000000 ) ) ;
#34 = ADVANCED_BREP_SHAPE_REPRESENTATION ( '009_004_Left_right_connector_lock', ( #265, #437 ), #58 ) ;
#35 = VERTEX_POINT ( 'NONE', #122 ) ;
#36 = CARTESIAN_POINT ( 'NONE',  ( 3.000000000000669687, -1.322398393859257911E-14, 0.000000000000000000 ) ) ;
#37 = CARTESIAN_POINT ( 'NONE',  ( -25.36768017634462780, 13.28209587387544843, 5.000000000000000000 ) ) ;
#38 = FACE_OUTER_BOUND ( 'NONE', #218, .T. ) ;
#39 = ORIENTED_EDGE ( 'NONE', *, *, #88, .F. ) ;
#40 = LINE ( 'NONE', #101, #121 ) ;
#41 = AXIS2_PLACEMENT_3D ( 'NONE', #864, #648, #494 ) ;
#42 = DIRECTION ( 'NONE',  ( -0.000000000000000000, -0.000000000000000000, 1.000000000000000000 ) ) ;
#43 = CIRCLE ( 'NONE', #359, 3.250000000000046185 ) ;
#44 = DIRECTION ( 'NONE',  ( -0.000000000000000000, -0.000000000000000000, 1.000000000000000000 ) ) ;
#45 = ORIENTED_EDGE ( 'NONE', *, *, #6, .F. ) ;
#46 = DIRECTION ( 'NONE',  ( -0.000000000000000000, -0.000000000000000000, -1.000000000000000000 ) ) ;
#47 = CARTESIAN_POINT ( 'NONE',  ( -0.02000826353020905904, 18.99998946498104146, -52.39555887140351587 ) ) ;
#48 = CARTESIAN_POINT ( 'NONE',  ( -33.01683076636093261, 15.96523993385261875, -52.39555887140351587 ) ) ;
#49 = CIRCLE ( 'NONE', #270, 3.249999999999992450 ) ;
#50 = EDGE_LOOP ( 'NONE', ( #387, #720 ) ) ;
#51 =( NAMED_UNIT ( * ) SI_UNIT ( $, .STERADIAN. ) SOLID_ANGLE_UNIT ( ) );
#52 = DIRECTION ( 'NONE',  ( -0.000000000000000000, -0.000000000000000000, -1.000000000000000000 ) ) ;
#53 = DIRECTION ( 'NONE',  ( 1.000000000000000000, 0.000000000000000000, 0.000000000000000000 ) ) ;
#54 = EDGE_LOOP ( 'NONE', ( #151, #100 ) ) ;
#55 = EDGE_CURVE ( 'NONE', #397, #905, #588, .T. ) ;
#56 = DIRECTION ( 'NONE',  ( 1.000000000000000000, 0.000000000000000000, 0.000000000000000000 ) ) ;
#57 = AXIS2_PLACEMENT_3D ( 'NONE', #510, #1, #67 ) ;
#58 =( GEOMETRIC_REPRESENTATION_CONTEXT ( 3 ) GLOBAL_UNCERTAINTY_ASSIGNED_CONTEXT ( ( #305 ) ) GLOBAL_UNIT_ASSIGNED_CONTEXT ( ( #508, #967, #434 ) ) REPRESENTATION_CONTEXT ( 'NONE', 'WORKASPACE' ) );
#59 = ORIENTED_EDGE ( 'NONE', *, *, #416, .T. ) ;
#60 = FACE_OUTER_BOUND ( 'NONE', #468, .T. ) ;
#61 = CYLINDRICAL_SURFACE ( 'NONE', #533, 1.750000000000006661 ) ;
#62 = FACE_OUTER_BOUND ( 'NONE', #413, .T. ) ;
#63 = EDGE_CURVE ( 'NONE', #254, #306, #638, .T. ) ;
#64 = AXIS2_PLACEMENT_3D ( 'NONE', #465, #772, #843 ) ;
#65 = ORIENTED_EDGE ( 'NONE', *, *, #530, .F. ) ;
#66 = LINE ( 'NONE', #278, #876 ) ;
#67 = DIRECTION ( 'NONE',  ( 1.000000000000000000, 0.000000000000000000, 0.000000000000000000 ) ) ;
#68 = CARTESIAN_POINT ( 'NONE',  ( -22.11768017634466332, 13.28209587387544843, 5.000000000000000000 ) ) ;
#69 = EDGE_CURVE ( 'NONE', #756, #617, #644, .T. ) ;
#70 = CARTESIAN_POINT ( 'NONE',  ( 14.73180680321090463, -6.612912560569945697, 5.000000000000000000 ) ) ;
#71 = DIRECTION ( 'NONE',  ( -0.000000000000000000, -0.000000000000000000, -1.000000000000000000 ) ) ;
#72 = AXIS2_PLACEMENT_3D ( 'NONE', #480, #874, #579 ) ;
#73 = AXIS2_PLACEMENT_3D ( 'NONE', #158, #683, #618 ) ;
#74 = CARTESIAN_POINT ( 'NONE',  ( -32.98313263831005315, -16.03474232295756252, 1.387778780781445676E-14 ) ) ;
#75 = CARTESIAN_POINT ( 'NONE',  ( -22.11768017634466332, 13.28209587387544843, 5.000000000000000000 ) ) ;
#76 = VECTOR ( 'NONE', #44, 1000.000000000000000 ) ;
#77 = FACE_BOUND ( 'NONE', #211, .T. ) ;
#78 = VERTEX_POINT ( 'NONE', #580 ) ;
#79 = VERTEX_POINT ( 'NONE', #800 ) ;
#80 = PLANE ( 'NONE',  #955 ) ;
#81 = EDGE_CURVE ( 'NONE', #306, #779, #206, .T. ) ;
#82 = ORIENTED_EDGE ( 'NONE', *, *, #733, .T. ) ;
#83 = VECTOR ( 'NONE', #819, 1000.000000000000000 ) ;
#84 = VECTOR ( 'NONE', #187, 1000.000000000000000 ) ;
#85 = VERTEX_POINT ( 'NONE', #495 ) ;
#86 = CARTESIAN_POINT ( 'NONE',  ( -32.97997343880528831, -19.03474065953351158, 7.000000000000000000 ) ) ;
#87 = LINE ( 'NONE', #340, #76 ) ;
#88 = EDGE_CURVE ( 'NONE', #924, #496, #954, .T. ) ;
#89 = ORIENTED_EDGE ( 'NONE', *, *, #464, .F. ) ;
#90 = CARTESIAN_POINT ( 'NONE',  ( -0.02000826353020905904, 18.99998946498104146, 0.000000000000000000 ) ) ;
#91 = AXIS2_PLACEMENT_3D ( 'NONE', #603, #5, #590 ) ;
#92 = DIRECTION ( 'NONE',  ( -0.000000000000000000, -0.000000000000000000, -1.000000000000000000 ) ) ;
#93 = ORIENTED_EDGE ( 'NONE', *, *, #370, .T. ) ;
#94 = EDGE_CURVE ( 'NONE', #812, #650, #271, .T. ) ;
#95 = EDGE_LOOP ( 'NONE', ( #3, #761, #39, #635 ) ) ;
#96 = DIRECTION ( 'NONE',  ( -1.000000000000000000, 0.000000000000000000, 0.000000000000000000 ) ) ;
#97 = DIRECTION ( 'NONE',  ( 1.000000000000000000, 0.000000000000000000, 0.000000000000000000 ) ) ;
#98 = ORIENTED_EDGE ( 'NONE', *, *, #759, .T. ) ;
#99 = AXIS2_PLACEMENT_3D ( 'NONE', #943, #269, #710 ) ;
#100 = ORIENTED_EDGE ( 'NONE', *, *, #506, .F. ) ;
#101 = CARTESIAN_POINT ( 'NONE',  ( -36.01682910293688167, 15.96208073434785391, -52.39555887140351587 ) ) ;
#102 = AXIS2_PLACEMENT_3D ( 'NONE', #892, #363, #371 ) ;
#103 = EDGE_CURVE ( 'NONE', #770, #899, #205, .T. ) ;
#104 = AXIS2_PLACEMENT_3D ( 'NONE', #469, #395, #321 ) ;
#105 = CARTESIAN_POINT ( 'NONE',  ( -2.999999999999256595, -1.359137797833678140E-14, 0.000000000000000000 ) ) ;
#106 = CARTESIAN_POINT ( 'NONE',  ( -22.11768017634466332, 13.28209587387544843, 5.000000000000000000 ) ) ;
#107 = ORIENTED_EDGE ( 'NONE', *, *, #436, .F. ) ;
#108 = CARTESIAN_POINT ( 'NONE',  ( 11.46785367206435069, 6.637080092639984663, 5.000000000000000000 ) ) ;
#109 = CARTESIAN_POINT ( 'NONE',  ( -22.08965727662292977, -13.32864916588431292, 5.000000000000000000 ) ) ;
#110 = AXIS2_PLACEMENT_3D ( 'NONE', #521, #141, #745 ) ;
#111 = CARTESIAN_POINT ( 'NONE',  ( 8.231806803210812262, -6.612912560569945697, 5.000000000000000000 ) ) ;
#112 = ORIENTED_EDGE ( 'NONE', *, *, #32, .T. ) ;
#113 = DIRECTION ( 'NONE',  ( 1.000000000000000000, 0.000000000000000000, 0.000000000000000000 ) ) ;
#114 = CARTESIAN_POINT ( 'NONE',  ( -20.33965727662292267, -13.32864916588431292, -4.949747468305917941 ) ) ;
#115 = EDGE_CURVE ( 'NONE', #924, #786, #153, .T. ) ;
#116 = DIRECTION ( 'NONE',  ( -0.000000000000000000, -0.000000000000000000, 1.000000000000000000 ) ) ;
#117 = EDGE_LOOP ( 'NONE', ( #301, #283, #323, #107 ) ) ;
#118 = CARTESIAN_POINT ( 'NONE',  ( 7.065041516794818291E-13, -1.359137797833678140E-14, 1.000000000000000000 ) ) ;
#119 = AXIS2_PLACEMENT_3D ( 'NONE', #628, #9, #242 ) ;
#120 = DIRECTION ( 'NONE',  ( 0.000000000000000000, 0.000000000000000000, 1.000000000000000000 ) ) ;
#121 = VECTOR ( 'NONE', #502, 1000.000000000000000 ) ;
#122 = CARTESIAN_POINT ( 'NONE',  ( 8.217853672064304504, 6.637080092639984663, 5.000000000000000000 ) ) ;
#123 = ORIENTED_EDGE ( 'NONE', *, *, #185, .T. ) ;
#124 = LINE ( 'NONE', #569, #324 ) ;
#125 = DIRECTION ( 'NONE',  ( 1.000000000000000000, 0.000000000000000000, 0.000000000000000000 ) ) ;
#126 = VECTOR ( 'NONE', #417, 1000.000000000000000 ) ;
#127 = ADVANCED_FACE ( 'NONE', ( #195 ), #939, .F. ) ;
#128 = ORIENTED_EDGE ( 'NONE', *, *, #445, .F. ) ;
#129 = DIRECTION ( 'NONE',  ( 1.000000000000000000, 0.000000000000000000, 0.000000000000000000 ) ) ;
#130 = DIRECTION ( 'NONE',  ( -0.9999994455253178316, -0.001053066501590026530, 0.000000000000000000 ) ) ;
#131 = CARTESIAN_POINT ( 'NONE',  ( -22.08965727662292977, -13.32864916588431292, 5.000000000000000000 ) ) ;
#132 = ORIENTED_EDGE ( 'NONE', *, *, #680, .F. ) ;
#133 = CARTESIAN_POINT ( 'NONE',  ( 0.000000000000000000, 0.000000000000000000, 7.000000000000000000 ) ) ;
#134 = DIRECTION ( 'NONE',  ( 1.000000000000000000, 0.000000000000000000, 0.000000000000000000 ) ) ;
#135 = ADVANCED_FACE ( 'NONE', ( #423 ), #723, .T. ) ;
#136 = VECTOR ( 'NONE', #298, 1000.000000000000000 ) ;
#137 = DIRECTION ( 'NONE',  ( 0.000000000000000000, 0.000000000000000000, 1.000000000000000000 ) ) ;
#138 = ORIENTED_EDGE ( 'NONE', *, *, #268, .T. ) ;
#139 = CARTESIAN_POINT ( 'NONE',  ( 13.23180680321081404, -6.612912560569945697, 5.000000000000000000 ) ) ;
#140 = EDGE_CURVE ( 'NONE', #517, #834, #442, .T. ) ;
#141 = DIRECTION ( 'NONE',  ( -0.000000000000000000, -0.000000000000000000, 1.000000000000000000 ) ) ;
#142 = CIRCLE ( 'NONE', #691, 1.749999999999956479 ) ;
#143 = DIRECTION ( 'NONE',  ( 0.000000000000000000, 0.000000000000000000, 1.000000000000000000 ) ) ;
#144 = DIRECTION ( 'NONE',  ( -0.000000000000000000, -0.000000000000000000, -1.000000000000000000 ) ) ;
#145 = VERTEX_POINT ( 'NONE', #634 ) ;
#146 = CARTESIAN_POINT ( 'NONE',  ( -22.08965727662292977, -13.32864916588431292, 5.000000000000000000 ) ) ;
#147 = AXIS2_PLACEMENT_3D ( 'NONE', #883, #210, #515 ) ;
#148 = ORIENTED_EDGE ( 'NONE', *, *, #140, .T. ) ;
#149 = CARTESIAN_POINT ( 'NONE',  ( 3.000000000000669687, -1.322398393859257911E-14, 1.000000000000000000 ) ) ;
#150 = FACE_OUTER_BOUND ( 'NONE', #312, .T. ) ;
#151 = ORIENTED_EDGE ( 'NONE', *, *, #55, .F. ) ;
#152 = EDGE_CURVE ( 'NONE', #35, #650, #830, .T. ) ;
#153 = CIRCLE ( 'NONE', #251, 19.00000000000000000 ) ;
#154 = EDGE_LOOP ( 'NONE', ( #471, #844, #93, #631 ) ) ;
#155 = DIRECTION ( 'NONE',  ( -0.000000000000000000, -0.000000000000000000, -1.000000000000000000 ) ) ;
#156 = DIRECTION ( 'NONE',  ( 0.000000000000000000, 0.000000000000000000, 1.000000000000000000 ) ) ;
#157 = ORIENTED_EDGE ( 'NONE', *, *, #940, .F. ) ;
#158 = CARTESIAN_POINT ( 'NONE',  ( -22.08965727662292977, -13.32864916588431292, 7.000000000000000000 ) ) ;
#159 = CYLINDRICAL_SURFACE ( 'NONE', #735, 2.999999999999999112 ) ;
#160 = ADVANCED_FACE ( 'NONE', ( #356 ), #276, .F. ) ;
#161 = UNCERTAINTY_MEASURE_WITH_UNIT (LENGTH_MEASURE( 1.000000000000000082E-05 ), #523, 'distance_accuracy_value', 'NONE');
#162 = ORIENTED_EDGE ( 'NONE', *, *, #885, .T. ) ;
#163 = VECTOR ( 'NONE', #858, 1000.000000000000114 ) ;
#164 = AXIS2_PLACEMENT_3D ( 'NONE', #171, #475, #96 ) ;
#165 = VERTEX_POINT ( 'NONE', #111 ) ;
#166 = CARTESIAN_POINT ( 'NONE',  ( -23.83965727662294043, -13.32864916588431292, 5.000000000000000000 ) ) ;
#167 = ADVANCED_FACE ( 'NONE', ( #38 ), #570, .F. ) ;
#168 = EDGE_LOOP ( 'NONE', ( #791, #930, #424, #45 ) ) ;
#169 = VERTEX_POINT ( 'NONE', #895 ) ;
#170 = CIRCLE ( 'NONE', #725, 3.250000000000046185 ) ;
#171 = CARTESIAN_POINT ( 'NONE',  ( 7.065041516794818291E-13, -1.359137797833678140E-14, 1.000000000000000000 ) ) ;
#172 = AXIS2_PLACEMENT_3D ( 'NONE', #304, #734, #221 ) ;
#173 = DIRECTION ( 'NONE',  ( 1.000000000000000000, 0.000000000000000000, 0.000000000000000000 ) ) ;
#174 = ORIENTED_EDGE ( 'NONE', *, *, #472, .T. ) ;
#175 = ADVANCED_FACE ( 'NONE', ( #299 ), #815, .T. ) ;
#176 = ORIENTED_EDGE ( 'NONE', *, *, #789, .T. ) ;
#177 = DIRECTION ( 'NONE',  ( 1.000000000000000000, 0.000000000000000000, 0.000000000000000000 ) ) ;
#178 = DIRECTION ( 'NONE',  ( 1.000000000000000000, 0.000000000000000000, 0.000000000000000000 ) ) ;
#179 = ORIENTED_EDGE ( 'NONE', *, *, #486, .F. ) ;
#180 = ORIENTED_EDGE ( 'NONE', *, *, #506, .T. ) ;
#181 = DIRECTION ( 'NONE',  ( -0.000000000000000000, -0.000000000000000000, 1.000000000000000000 ) ) ;
#182 = VECTOR ( 'NONE', #632, 1000.000000000000000 ) ;
#183 = LINE ( 'NONE', #652, #518 ) ;
#184 = DIRECTION ( 'NONE',  ( 0.000000000000000000, 0.000000000000000000, 1.000000000000000000 ) ) ;
#185 = EDGE_CURVE ( 'NONE', #474, #440, #351, .T. ) ;
#186 = ORIENTED_EDGE ( 'NONE', *, *, #19, .T. ) ;
#187 = DIRECTION ( 'NONE',  ( 0.000000000000000000, 0.000000000000000000, 1.000000000000000000 ) ) ;
#188 = CARTESIAN_POINT ( 'NONE',  ( -18.86768017634469530, 13.28209587387544843, 5.000000000000000000 ) ) ;
#189 = AXIS2_PLACEMENT_3D ( 'NONE', #329, #26, #455 ) ;
#190 = DIRECTION ( 'NONE',  ( 0.000000000000000000, 0.000000000000000000, 1.000000000000000000 ) ) ;
#191 = ORIENTED_EDGE ( 'NONE', *, *, #436, .T. ) ;
#192 = DIRECTION ( 'NONE',  ( -0.000000000000000000, -0.000000000000000000, 1.000000000000000000 ) ) ;
#193 = CARTESIAN_POINT ( 'NONE',  ( -18.86768017634469530, 13.28209587387544843, 7.000000000000000000 ) ) ;
#194 = EDGE_CURVE ( 'NONE', #165, #587, #573, .T. ) ;
#195 = FACE_OUTER_BOUND ( 'NONE', #317, .T. ) ;
#196 = ORIENTED_EDGE ( 'NONE', *, *, #540, .T. ) ;
#197 = CARTESIAN_POINT ( 'NONE',  ( 11.48180680321085845, -6.612912560569945697, 7.000000000000000000 ) ) ;
#198 = CIRCLE ( 'NONE', #623, 1.750000000000008438 ) ;
#199 = CARTESIAN_POINT ( 'NONE',  ( 7.065041516794818291E-13, -1.359137797833678140E-14, 0.000000000000000000 ) ) ;
#200 = AXIS2_PLACEMENT_3D ( 'NONE', #642, #862, #787 ) ;
#201 = CARTESIAN_POINT ( 'NONE',  ( -0.02000826353020062481, 18.99998946498104146, 7.000000000000000000 ) ) ;
#202 = ORIENTED_EDGE ( 'NONE', *, *, #365, .T. ) ;
#203 = CARTESIAN_POINT ( 'NONE',  ( 0.000000000000000000, 0.000000000000000000, 0.000000000000000000 ) ) ;
#204 = CARTESIAN_POINT ( 'NONE',  ( 11.48180680321085845, -6.612912560569945697, -4.949747468305917941 ) ) ;
#205 = LINE ( 'NONE', #576, #676 ) ;
#206 = CIRCLE ( 'NONE', #555, 1.750000000000008438 ) ;
#207 = EDGE_LOOP ( 'NONE', ( #626, #591, #27, #377 ) ) ;
#208 = EDGE_CURVE ( 'NONE', #567, #674, #142, .T. ) ;
#209 = DIRECTION ( 'NONE',  ( 1.000000000000000000, 0.000000000000000000, 0.000000000000000000 ) ) ;
#210 = DIRECTION ( 'NONE',  ( 0.000000000000000000, 0.000000000000000000, 1.000000000000000000 ) ) ;
#211 = EDGE_LOOP ( 'NONE', ( #662, #128 ) ) ;
#212 = CARTESIAN_POINT ( 'NONE',  ( -23.86768017634469530, 13.28209587387544843, 5.000000000000000000 ) ) ;
#213 = LINE ( 'NONE', #360, #581 ) ;
#214 = VECTOR ( 'NONE', #498, 1000.000000000000000 ) ;
#215 = CYLINDRICAL_SURFACE ( 'NONE', #110, 1.749999999999954703 ) ;
#216 = AXIS2_PLACEMENT_3D ( 'NONE', #197, #792, #113 ) ;
#217 = UNCERTAINTY_MEASURE_WITH_UNIT (LENGTH_MEASURE( 1.000000000000000082E-05 ), #805, 'distance_accuracy_value', 'NONE');
#218 = EDGE_LOOP ( 'NONE', ( #429, #769, #179, #249 ) ) ;
#219 = EDGE_CURVE ( 'NONE', #362, #254, #742, .T. ) ;
#220 = DIRECTION ( 'NONE',  ( 0.000000000000000000, 0.000000000000000000, 1.000000000000000000 ) ) ;
#221 = DIRECTION ( 'NONE',  ( -1.000000000000000000, 0.000000000000000000, 0.000000000000000000 ) ) ;
#222 = CLOSED_SHELL ( 'NONE', ( #259, #453, #235, #167, #803, #928, #629, #687, #160, #175, #391, #376, #897, #135, #571, #411, #403, #894, #274, #902, #854, #966, #127, #744, #592, #780, #813, #616, #585, #382, #711 ) ) ;
#223 = AXIS2_PLACEMENT_3D ( 'NONE', #295, #71, #289 ) ;
#224 = ORIENTED_EDGE ( 'NONE', *, *, #472, .F. ) ;
#225 = DIRECTION ( 'NONE',  ( 1.000000000000000000, 0.000000000000000000, -0.000000000000000000 ) ) ;
#226 = ORIENTED_EDGE ( 'NONE', *, *, #10, .T. ) ;
#227 = DIRECTION ( 'NONE',  ( 1.000000000000000000, 0.000000000000000000, 0.000000000000000000 ) ) ;
#228 = SURFACE_STYLE_FILL_AREA ( #964 ) ;
#229 = CIRCLE ( 'NONE', #700, 1.750000000000032863 ) ;
#230 = EDGE_CURVE ( 'NONE', #145, #357, #49, .T. ) ;
#231 = ORIENTED_EDGE ( 'NONE', *, *, #934, .T. ) ;
#232 = DIRECTION ( 'NONE',  ( 1.000000000000000000, 0.000000000000000000, -0.000000000000000000 ) ) ;
#233 = ORIENTED_EDGE ( 'NONE', *, *, #789, .F. ) ;
#234 = CIRCLE ( 'NONE', #367, 1.750000000000006661 ) ;
#235 = ADVANCED_FACE ( 'NONE', ( #443 ), #607, .F. ) ;
#236 = VERTEX_POINT ( 'NONE', #285 ) ;
#237 = CARTESIAN_POINT ( 'NONE',  ( -18.86768017634469530, 13.28209587387544843, 5.000000000000000000 ) ) ;
#238 = DIRECTION ( 'NONE',  ( 0.000000000000000000, 0.000000000000000000, 1.000000000000000000 ) ) ;
#239 = ORIENTED_EDGE ( 'NONE', *, *, #355, .T. ) ;
#240 = ORIENTED_EDGE ( 'NONE', *, *, #915, .F. ) ;
#241 = DIRECTION ( 'NONE',  ( -0.000000000000000000, -0.000000000000000000, -1.000000000000000000 ) ) ;
#242 = DIRECTION ( 'NONE',  ( 1.000000000000000000, 0.000000000000000000, -0.000000000000000000 ) ) ;
#243 = ORIENTED_EDGE ( 'NONE', *, *, #520, .T. ) ;
#244 = AXIS2_PLACEMENT_3D ( 'NONE', #293, #143, #968 ) ;
#245 = AXIS2_PLACEMENT_3D ( 'NONE', #24, #192, #698 ) ;
#246 = ORIENTED_EDGE ( 'NONE', *, *, #970, .T. ) ;
#247 = CARTESIAN_POINT ( 'NONE',  ( -20.33965727662292267, -13.32864916588431292, 0.000000000000000000 ) ) ;
#248 = DIRECTION ( 'NONE',  ( 0.000000000000000000, 0.000000000000000000, 1.000000000000000000 ) ) ;
#249 = ORIENTED_EDGE ( 'NONE', *, *, #365, .F. ) ;
#250 = ORIENTED_EDGE ( 'NONE', *, *, #347, .F. ) ;
#251 = AXIS2_PLACEMENT_3D ( 'NONE', #412, #33, #871 ) ;
#252 = DIRECTION ( 'NONE',  ( 1.000000000000000000, 0.000000000000000000, 0.000000000000000000 ) ) ;
#253 = CARTESIAN_POINT ( 'NONE',  ( -22.11768017634466332, 13.28209587387544843, 0.000000000000000000 ) ) ;
#254 = VERTEX_POINT ( 'NONE', #677 ) ;
#255 = ORIENTED_EDGE ( 'NONE', *, *, #520, .F. ) ;
#256 = FACE_OUTER_BOUND ( 'NONE', #433, .T. ) ;
#257 = PLANE ( 'NONE',  #717 ) ;
#258 = DIRECTION ( 'NONE',  ( -0.001053066501589825085, 0.9999994455253178316, -1.419706948580169593E-16 ) ) ;
#259 = ADVANCED_FACE ( 'NONE', ( #901 ), #379, .F. ) ;
#260 = AXIS2_PLACEMENT_3D ( 'NONE', #288, #524, #519 ) ;
#261 = ORIENTED_EDGE ( 'NONE', *, *, #335, .T. ) ;
#262 = CYLINDRICAL_SURFACE ( 'NONE', #326, 2.999999999999963141 ) ;
#263 = CARTESIAN_POINT ( 'NONE',  ( 11.48180680321085845, -6.612912560569945697, 0.000000000000000000 ) ) ;
#264 = DIRECTION ( 'NONE',  ( -1.000000000000000000, 0.000000000000000000, 0.000000000000000000 ) ) ;
#265 = MANIFOLD_SOLID_BREP ( 'Dodanie-wyci¹gniêcie5', #222 ) ;
#266 = ORIENTED_EDGE ( 'NONE', *, *, #81, .F. ) ;
#267 = CYLINDRICAL_SURFACE ( 'NONE', #655, 1.750000000000029310 ) ;
#268 = EDGE_CURVE ( 'NONE', #696, #730, #516, .T. ) ;
#269 = DIRECTION ( 'NONE',  ( 0.000000000000000000, 0.000000000000000000, 1.000000000000000000 ) ) ;
#270 = AXIS2_PLACEMENT_3D ( 'NONE', #131, #600, #666 ) ;
#271 = LINE ( 'NONE', #880, #126 ) ;
#272 = ORIENTED_EDGE ( 'NONE', *, *, #719, .F. ) ;
#273 = CARTESIAN_POINT ( 'NONE',  ( -33.01683076636093261, 15.96523993385261875, 7.000000000000000000 ) ) ;
#274 = ADVANCED_FACE ( 'NONE', ( #62 ), #215, .F. ) ;
#275 = CYLINDRICAL_SURFACE ( 'NONE', #451, 1.750000000000008438 ) ;
#276 = CYLINDRICAL_SURFACE ( 'NONE', #910, 1.750000000000008438 ) ;
#277 = ORIENTED_EDGE ( 'NONE', *, *, #828, .F. ) ;
#278 = CARTESIAN_POINT ( 'NONE',  ( -32.97997343880528831, -19.03474065953351158, 7.000000000000000000 ) ) ;
#279 = CIRCLE ( 'NONE', #890, 2.999999999999999112 ) ;
#280 = CARTESIAN_POINT ( 'NONE',  ( 13.23180680321081226, -6.612912560569945697, 0.000000000000000000 ) ) ;
#281 = PRESENTATION_LAYER_ASSIGNMENT (  '', '', ( #609 ) ) ;
#282 = CARTESIAN_POINT ( 'NONE',  ( 11.48180680321085845, -6.612912560569945697, 5.000000000000000000 ) ) ;
#283 = ORIENTED_EDGE ( 'NONE', *, *, #611, .T. ) ;
#284 = LINE ( 'NONE', #732, #83 ) ;
#285 = CARTESIAN_POINT ( 'NONE',  ( 14.73180680321090463, -6.612912560569945697, 7.000000000000000000 ) ) ;
#286 = EDGE_LOOP ( 'NONE', ( #692, #929, #456, #162, #760, #916 ) ) ;
#287 = PLANE ( 'NONE',  #859 ) ;
#288 = CARTESIAN_POINT ( 'NONE',  ( 11.46785367206435069, 6.637080092639984663, 5.000000000000000000 ) ) ;
#289 = DIRECTION ( 'NONE',  ( 1.000000000000000000, 0.000000000000000000, 0.000000000000000000 ) ) ;
#290 = EDGE_CURVE ( 'NONE', #668, #730, #473, .T. ) ;
#291 = ORIENTED_EDGE ( 'NONE', *, *, #647, .F. ) ;
#292 = DIRECTION ( 'NONE',  ( 0.000000000000000000, 0.000000000000000000, 1.000000000000000000 ) ) ;
#293 = CARTESIAN_POINT ( 'NONE',  ( -22.11768017634466332, 13.28209587387544843, 5.000000000000000000 ) ) ;
#294 = CIRCLE ( 'NONE', #597, 3.249999999999964917 ) ;
#295 = CARTESIAN_POINT ( 'NONE',  ( 11.46785367206435069, 6.637080092639984663, 0.000000000000000000 ) ) ;
#296 = PRODUCT_DEFINITION_CONTEXT ( 'detailed design', #767, 'design' ) ;
#297 = FILL_AREA_STYLE_COLOUR ( '', #702 ) ;
#298 = DIRECTION ( 'NONE',  ( -0.000000000000000000, -0.000000000000000000, -1.000000000000000000 ) ) ;
#299 = FACE_OUTER_BOUND ( 'NONE', #95, .T. ) ;
#300 = PRESENTATION_LAYER_ASSIGNMENT (  '', '', ( #526 ) ) ;
#301 = ORIENTED_EDGE ( 'NONE', *, *, #512, .T. ) ;
#302 = DIRECTION ( 'NONE',  ( -1.000000000000000000, 0.000000000000000000, 0.000000000000000000 ) ) ;
#303 = PRODUCT_DEFINITION ( 'UNKNOWN', '', #566, #296 ) ;
#304 = CARTESIAN_POINT ( 'NONE',  ( -22.08965727662292977, -13.32864916588431292, 5.000000000000000000 ) ) ;
#305 = UNCERTAINTY_MEASURE_WITH_UNIT (LENGTH_MEASURE( 1.000000000000000082E-05 ), #508, 'distance_accuracy_value', 'NONE');
#306 = VERTEX_POINT ( 'NONE', #319 ) ;
#307 = DIRECTION ( 'NONE',  ( 0.000000000000000000, 0.000000000000000000, 1.000000000000000000 ) ) ;
#308 = VECTOR ( 'NONE', #155, 1000.000000000000000 ) ;
#309 = ORIENTED_EDGE ( 'NONE', *, *, #55, .T. ) ;
#310 =( GEOMETRIC_REPRESENTATION_CONTEXT ( 3 ) GLOBAL_UNCERTAINTY_ASSIGNED_CONTEXT ( ( #161 ) ) GLOBAL_UNIT_ASSIGNED_CONTEXT ( ( #523, #878, #51 ) ) REPRESENTATION_CONTEXT ( 'NONE', 'WORKASPACE' ) );
#311 = EDGE_CURVE ( 'NONE', #254, #362, #234, .T. ) ;
#312 = EDGE_LOOP ( 'NONE', ( #22, #478, #337, #577, #243, #186 ) ) ;
#313 = DIRECTION ( 'NONE',  ( -1.000000000000000000, 0.000000000000000000, 0.000000000000000000 ) ) ;
#314 = CARTESIAN_POINT ( 'NONE',  ( 8.217853672064304504, 6.637080092639984663, 7.000000000000000000 ) ) ;
#315 = EDGE_LOOP ( 'NONE', ( #539, #231 ) ) ;
#316 = VECTOR ( 'NONE', #681, 1000.000000000000000 ) ;
#317 = EDGE_LOOP ( 'NONE', ( #28, #148, #202, #605 ) ) ;
#318 = FACE_OUTER_BOUND ( 'NONE', #207, .T. ) ;
#319 = CARTESIAN_POINT ( 'NONE',  ( 13.21785367206435957, 6.637080092639984663, 5.000000000000000000 ) ) ;
#320 = ORIENTED_EDGE ( 'NONE', *, *, #821, .F. ) ;
#321 = DIRECTION ( 'NONE',  ( 1.000000000000000000, 0.000000000000000000, 0.000000000000000000 ) ) ;
#322 = CARTESIAN_POINT ( 'NONE',  ( -32.98313263831005315, -16.03474232295756252, -52.39555887140351587 ) ) ;
#323 = ORIENTED_EDGE ( 'NONE', *, *, #639, .T. ) ;
#324 = VECTOR ( 'NONE', #777, 1000.000000000000000 ) ;
#325 = PRODUCT_DEFINITION_SHAPE ( 'NONE', 'NONE',  #303 ) ;
#326 = AXIS2_PLACEMENT_3D ( 'NONE', #636, #46, #798 ) ;
#327 = ORIENTED_EDGE ( 'NONE', *, *, #835, .F. ) ;
#328 = FACE_OUTER_BOUND ( 'NONE', #822, .T. ) ;
#329 = CARTESIAN_POINT ( 'NONE',  ( 11.46785367206435069, 6.637080092639984663, 7.000000000000000000 ) ) ;
#330 = VERTEX_POINT ( 'NONE', #314 ) ;
#331 = ORIENTED_EDGE ( 'NONE', *, *, #821, .T. ) ;
#332 = VECTOR ( 'NONE', #184, 1000.000000000000000 ) ;
#333 = DIRECTION ( 'NONE',  ( -1.000000000000000000, 0.000000000000000000, 0.000000000000000000 ) ) ;
#334 = CARTESIAN_POINT ( 'NONE',  ( -22.11768017634466332, 13.28209587387544843, 5.000000000000000000 ) ) ;
#335 = EDGE_CURVE ( 'NONE', #236, #587, #923, .T. ) ;
#336 = DIRECTION ( 'NONE',  ( 0.000000000000000000, 0.000000000000000000, 1.000000000000000000 ) ) ;
#337 = ORIENTED_EDGE ( 'NONE', *, *, #647, .T. ) ;
#338 = CARTESIAN_POINT ( 'NONE',  ( 11.46785367206435069, 6.637080092639984663, 7.000000000000000000 ) ) ;
#339 = LINE ( 'NONE', #47, #214 ) ;
#340 = CARTESIAN_POINT ( 'NONE',  ( 13.23180680321081226, -6.612912560569945697, -4.949747468305917941 ) ) ;
#341 = EDGE_CURVE ( 'NONE', #641, #78, #491, .T. ) ;
#342 = EDGE_LOOP ( 'NONE', ( #65, #541, #157, #513 ) ) ;
#343 = DIRECTION ( 'NONE',  ( -1.000000000000000000, 0.000000000000000000, 0.000000000000000000 ) ) ;
#344 = AXIS2_PLACEMENT_3D ( 'NONE', #704, #926, #343 ) ;
#345 = DIRECTION ( 'NONE',  ( -0.000000000000000000, -0.000000000000000000, -1.000000000000000000 ) ) ;
#346 = CARTESIAN_POINT ( 'NONE',  ( -2.999999999999256595, -1.359137797833678140E-14, 1.000000000000000000 ) ) ;
#347 = EDGE_CURVE ( 'NONE', #330, #812, #614, .T. ) ;
#348 = EDGE_LOOP ( 'NONE', ( #886, #467, #550, #89 ) ) ;
#349 = FACE_OUTER_BOUND ( 'NONE', #919, .T. ) ;
#350 = DIRECTION ( 'NONE',  ( 0.000000000000000000, 0.000000000000000000, 1.000000000000000000 ) ) ;
#351 = CIRCLE ( 'NONE', #785, 3.249999999999964917 ) ;
#352 = DIRECTION ( 'NONE',  ( 0.000000000000000000, 0.000000000000000000, 1.000000000000000000 ) ) ;
#353 = VERTEX_POINT ( 'NONE', #470 ) ;
#354 = LINE ( 'NONE', #114, #671 ) ;
#355 = EDGE_CURVE ( 'NONE', #703, #950, #396, .T. ) ;
#356 = FACE_OUTER_BOUND ( 'NONE', #117, .T. ) ;
#357 = VERTEX_POINT ( 'NONE', #619 ) ;
#358 = AXIS2_PLACEMENT_3D ( 'NONE', #74, #589, #879 ) ;
#359 = AXIS2_PLACEMENT_3D ( 'NONE', #338, #936, #252 ) ;
#360 = CARTESIAN_POINT ( 'NONE',  ( 8.217853672064304504, 6.637080092639984663, 5.000000000000000000 ) ) ;
#361 = DIRECTION ( 'NONE',  ( -1.000000000000000000, 0.000000000000000000, 0.000000000000000000 ) ) ;
#362 = VERTEX_POINT ( 'NONE', #695 ) ;
#363 = DIRECTION ( 'NONE',  ( 0.000000000000000000, 0.000000000000000000, 1.000000000000000000 ) ) ;
#364 = CARTESIAN_POINT ( 'NONE',  ( 11.46785367206435069, 6.637080092639984663, -4.949747468305917941 ) ) ;
#365 = EDGE_CURVE ( 'NONE', #834, #440, #390, .T. ) ;
#366 = CARTESIAN_POINT ( 'NONE',  ( 0.000000000000000000, 0.000000000000000000, 3.000000000000000000 ) ) ;
#367 = AXIS2_PLACEMENT_3D ( 'NONE', #847, #537, #173 ) ;
#368 = ORIENTED_EDGE ( 'NONE', *, *, #970, .F. ) ;
#369 = CARTESIAN_POINT ( 'NONE',  ( 14.71785367206439687, 6.637080092639984663, 5.000000000000000000 ) ) ;
#370 = EDGE_CURVE ( 'NONE', #779, #306, #549, .T. ) ;
#371 = DIRECTION ( 'NONE',  ( 1.000000000000000000, 0.000000000000000000, 0.000000000000000000 ) ) ;
#372 = CYLINDRICAL_SURFACE ( 'NONE', #402, 1.749999999999954703 ) ;
#373 = AXIS2_PLACEMENT_3D ( 'NONE', #263, #345, #178 ) ;
#374 = DIRECTION ( 'NONE',  ( -0.000000000000000000, -0.000000000000000000, -1.000000000000000000 ) ) ;
#375 = CIRCLE ( 'NONE', #102, 1.750000000000032863 ) ;
#376 = ADVANCED_FACE ( 'NONE', ( #837 ), #159, .T. ) ;
#377 = ORIENTED_EDGE ( 'NONE', *, *, #10, .F. ) ;
#378 = DIRECTION ( 'NONE',  ( -0.000000000000000000, -0.000000000000000000, 1.000000000000000000 ) ) ;
#379 = CYLINDRICAL_SURFACE ( 'NONE', #91, 3.250000000000046185 ) ;
#380 = LINE ( 'NONE', #149, #640 ) ;
#381 = CARTESIAN_POINT ( 'NONE',  ( 0.000000000000000000, 0.000000000000000000, 0.000000000000000000 ) ) ;
#382 = ADVANCED_FACE ( 'NONE', ( #622, #400 ), #699, .T. ) ;
#383 = EDGE_LOOP ( 'NONE', ( #320, #176, #180, #802 ) ) ;
#384 = ORIENTED_EDGE ( 'NONE', *, *, #230, .T. ) ;
#385 = CARTESIAN_POINT ( 'NONE',  ( -20.36768017634462780, 13.28209587387544843, 5.000000000000000000 ) ) ;
#386 = AXIS2_PLACEMENT_3D ( 'NONE', #381, #156, #460 ) ;
#387 = ORIENTED_EDGE ( 'NONE', *, *, #493, .F. ) ;
#388 = AXIS2_PLACEMENT_3D ( 'NONE', #133, #292, #209 ) ;
#389 = LINE ( 'NONE', #237, #308 ) ;
#390 = LINE ( 'NONE', #21, #866 ) ;
#391 = ADVANCED_FACE ( 'NONE', ( #547, #833, #534, #758, #827, #150 ), #754, .F. ) ;
#392 = ORIENTED_EDGE ( 'NONE', *, *, #869, .F. ) ;
#393 =( GEOMETRIC_REPRESENTATION_CONTEXT ( 3 ) GLOBAL_UNCERTAINTY_ASSIGNED_CONTEXT ( ( #217 ) ) GLOBAL_UNIT_ASSIGNED_CONTEXT ( ( #805, #432, #670 ) ) REPRESENTATION_CONTEXT ( 'NONE', 'WORKASPACE' ) );
#394 = ORIENTED_EDGE ( 'NONE', *, *, #611, .F. ) ;
#395 = DIRECTION ( 'NONE',  ( 0.000000000000000000, 0.000000000000000000, 1.000000000000000000 ) ) ;
#396 = LINE ( 'NONE', #913, #316 ) ;
#397 = VERTEX_POINT ( 'NONE', #105 ) ;
#398 = EDGE_LOOP ( 'NONE', ( #132, #7 ) ) ;
#399 = DIRECTION ( 'NONE',  ( -0.000000000000000000, -0.000000000000000000, -1.000000000000000000 ) ) ;
#400 = FACE_BOUND ( 'NONE', #461, .T. ) ;
#401 = EDGE_LOOP ( 'NONE', ( #596, #23, #477, #419 ) ) ;
#402 = AXIS2_PLACEMENT_3D ( 'NONE', #204, #673, #134 ) ;
#403 = ADVANCED_FACE ( 'NONE', ( #852 ), #275, .F. ) ;
#404 = ORIENTED_EDGE ( 'NONE', *, *, #428, .T. ) ;
#405 = DIRECTION ( 'NONE',  ( 0.001053066501589816194, -0.9999994455253178316, 0.000000000000000000 ) ) ;
#406 = DIRECTION ( 'NONE',  ( -0.000000000000000000, -0.000000000000000000, 1.000000000000000000 ) ) ;
#407 = CARTESIAN_POINT ( 'NONE',  ( -22.11768017634466332, 13.28209587387544843, 7.000000000000000000 ) ) ;
#408 = ORIENTED_EDGE ( 'NONE', *, *, #794, .F. ) ;
#409 = CARTESIAN_POINT ( 'NONE',  ( -23.83965727662294043, -13.32864916588431292, 0.000000000000000000 ) ) ;
#410 = DIRECTION ( 'NONE',  ( 0.000000000000000000, 0.000000000000000000, 1.000000000000000000 ) ) ;
#411 = ADVANCED_FACE ( 'NONE', ( #799 ), #257, .T. ) ;
#412 = CARTESIAN_POINT ( 'NONE',  ( 0.000000000000000000, 0.000000000000000000, 0.000000000000000000 ) ) ;
#413 = EDGE_LOOP ( 'NONE', ( #708, #59, #920, #559 ) ) ;
#414 = LINE ( 'NONE', #721, #182 ) ;
#415 = CARTESIAN_POINT ( 'NONE',  ( -32.97997343880527410, -19.03474065953351158, 1.387778780781445676E-14 ) ) ;
#416 = EDGE_CURVE ( 'NONE', #78, #641, #12, .T. ) ;
#417 = DIRECTION ( 'NONE',  ( -0.000000000000000000, -0.000000000000000000, -1.000000000000000000 ) ) ;
#418 = AXIS2_PLACEMENT_3D ( 'NONE', #146, #220, #225 ) ;
#419 = ORIENTED_EDGE ( 'NONE', *, *, #667, .F. ) ;
#420 = CARTESIAN_POINT ( 'NONE',  ( -22.11768017634466332, 13.28209587387544843, 0.000000000000000000 ) ) ;
#421 = AXIS2_PLACEMENT_3D ( 'NONE', #856, #181, #485 ) ;
#422 = CARTESIAN_POINT ( 'NONE',  ( -22.11768017634466332, 13.28209587387544843, 5.000000000000000000 ) ) ;
#423 = FACE_OUTER_BOUND ( 'NONE', #556, .T. ) ;
#424 = ORIENTED_EDGE ( 'NONE', *, *, #208, .T. ) ;
#425 = VECTOR ( 'NONE', #511, 1000.000000000000227 ) ;
#426 = CARTESIAN_POINT ( 'NONE',  ( -22.08965727662292977, -13.32864916588431292, 0.000000000000000000 ) ) ;
#427 = CARTESIAN_POINT ( 'NONE',  ( 11.46785367206435069, 6.637080092639984663, 5.000000000000000000 ) ) ;
#428 = EDGE_CURVE ( 'NONE', #773, #950, #229, .T. ) ;
#429 = ORIENTED_EDGE ( 'NONE', *, *, #794, .T. ) ;
#430 = DIRECTION ( 'NONE',  ( 0.000000000000000000, 0.000000000000000000, 1.000000000000000000 ) ) ;
#431 = DIRECTION ( 'NONE',  ( -0.000000000000000000, -0.000000000000000000, -1.000000000000000000 ) ) ;
#432 =( NAMED_UNIT ( * ) PLANE_ANGLE_UNIT ( ) SI_UNIT ( $, .RADIAN. ) );
#433 = EDGE_LOOP ( 'NONE', ( #458, #239, #246, #535 ) ) ;
#434 =( NAMED_UNIT ( * ) SI_UNIT ( $, .STERADIAN. ) SOLID_ANGLE_UNIT ( ) );
#435 = VECTOR ( 'NONE', #762, 1000.000000000000000 ) ;
#436 = EDGE_CURVE ( 'NONE', #697, #85, #354, .T. ) ;
#437 = AXIS2_PLACEMENT_3D ( 'NONE', #203, #430, #129 ) ;
#438 = FACE_OUTER_BOUND ( 'NONE', #154, .T. ) ;
#439 = CARTESIAN_POINT ( 'NONE',  ( 11.48180680321085845, -6.612912560569945697, 5.000000000000000000 ) ) ;
#440 = VERTEX_POINT ( 'NONE', #37 ) ;
#441 = FACE_OUTER_BOUND ( 'NONE', #348, .T. ) ;
#442 = CIRCLE ( 'NONE', #832, 3.249999999999964917 ) ;
#443 = FACE_OUTER_BOUND ( 'NONE', #925, .T. ) ;
#444 = AXIS2_PLACEMENT_3D ( 'NONE', #366, #374, #361 ) ;
#445 = EDGE_CURVE ( 'NONE', #774, #907, #749, .T. ) ;
#446 = APPLICATION_PROTOCOL_DEFINITION ( 'draft international standard', 'automotive_design', 1998, #767 ) ;
#447 = FACE_OUTER_BOUND ( 'NONE', #168, .T. ) ;
#448 = DIRECTION ( 'NONE',  ( -1.000000000000000000, 0.000000000000000000, 0.000000000000000000 ) ) ;
#449 = EDGE_LOOP ( 'NONE', ( #240, #741, #545, #737 ) ) ;
#450 = FACE_BOUND ( 'NONE', #941, .T. ) ;
#451 = AXIS2_PLACEMENT_3D ( 'NONE', #948, #42, #637 ) ;
#452 = CIRCLE ( 'NONE', #216, 3.250000000000046185 ) ;
#453 = ADVANCED_FACE ( 'NONE', ( #706 ), #715, .F. ) ;
#454 = FACE_OUTER_BOUND ( 'NONE', #528, .T. ) ;
#455 = DIRECTION ( 'NONE',  ( 1.000000000000000000, 0.000000000000000000, 0.000000000000000000 ) ) ;
#456 = ORIENTED_EDGE ( 'NONE', *, *, #824, .T. ) ;
#457 = EDGE_CURVE ( 'NONE', #353, #773, #124, .T. ) ;
#458 = ORIENTED_EDGE ( 'NONE', *, *, #881, .T. ) ;
#459 = FACE_BOUND ( 'NONE', #398, .T. ) ;
#460 = DIRECTION ( 'NONE',  ( 1.000000000000000000, 0.000000000000000000, -0.000000000000000000 ) ) ;
#461 = EDGE_LOOP ( 'NONE', ( #266, #839 ) ) ;
#462 = ORIENTED_EDGE ( 'NONE', *, *, #290, .F. ) ;
#463 = CARTESIAN_POINT ( 'NONE',  ( 11.48180680321085845, -6.612912560569945697, 7.000000000000000000 ) ) ;
#464 = EDGE_CURVE ( 'NONE', #786, #756, #339, .T. ) ;
#465 = CARTESIAN_POINT ( 'NONE',  ( 11.48180680321085845, -6.612912560569945697, 0.000000000000000000 ) ) ;
#466 = AXIS2_PLACEMENT_3D ( 'NONE', #199, #504, #575 ) ;
#467 = ORIENTED_EDGE ( 'NONE', *, *, #869, .T. ) ;
#468 = EDGE_LOOP ( 'NONE', ( #946, #331 ) ) ;
#469 = CARTESIAN_POINT ( 'NONE',  ( -22.11768017634466332, 13.28209587387544843, 7.000000000000000000 ) ) ;
#470 = CARTESIAN_POINT ( 'NONE',  ( -20.36768017634463135, 13.28209587387544843, 0.000000000000000000 ) ) ;
#471 = ORIENTED_EDGE ( 'NONE', *, *, #311, .T. ) ;
#472 = EDGE_CURVE ( 'NONE', #357, #145, #532, .T. ) ;
#473 = CIRCLE ( 'NONE', #538, 2.999999999999999112 ) ;
#474 = VERTEX_POINT ( 'NONE', #188 ) ;
#475 = DIRECTION ( 'NONE',  ( -0.000000000000000000, -0.000000000000000000, -1.000000000000000000 ) ) ;
#476 = PRODUCT ( '009_004_Left_right_connector_lock', '009_004_Left_right_connector_lock', '', ( #817 ) ) ;
#477 = ORIENTED_EDGE ( 'NONE', *, *, #152, .F. ) ;
#478 = ORIENTED_EDGE ( 'NONE', *, *, #530, .T. ) ;
#479 = CARTESIAN_POINT ( 'NONE',  ( -25.36768017634462780, 13.28209587387544843, 7.000000000000000000 ) ) ;
#480 = CARTESIAN_POINT ( 'NONE',  ( 11.46785367206435069, 6.637080092639984663, 5.000000000000000000 ) ) ;
#481 = EDGE_LOOP ( 'NONE', ( #962, #965 ) ) ;
#482 = CIRCLE ( 'NONE', #841, 1.750000000000029310 ) ;
#483 = CIRCLE ( 'NONE', #811, 2.999999999999999112 ) ;
#484 = ORIENTED_EDGE ( 'NONE', *, *, #416, .F. ) ;
#485 = DIRECTION ( 'NONE',  ( 1.000000000000000000, 0.000000000000000000, 0.000000000000000000 ) ) ;
#486 = EDGE_CURVE ( 'NONE', #440, #474, #294, .T. ) ;
#487 = DIRECTION ( 'NONE',  ( 0.9999994455253178316, 0.001053066501590026530, 0.000000000000000000 ) ) ;
#488 = CARTESIAN_POINT ( 'NONE',  ( 11.46785367206435069, 6.637080092639984663, 5.000000000000000000 ) ) ;
#489 = AXIS2_PLACEMENT_3D ( 'NONE', #75, #144, #448 ) ;
#490 = ORIENTED_EDGE ( 'NONE', *, *, #140, .F. ) ;
#491 = CIRCLE ( 'NONE', #64, 1.749999999999954703 ) ;
#492 = CYLINDRICAL_SURFACE ( 'NONE', #245, 1.750000000000006661 ) ;
#493 = EDGE_CURVE ( 'NONE', #85, #781, #922, .T. ) ;
#494 = DIRECTION ( 'NONE',  ( 1.000000000000000000, 0.000000000000000000, 0.000000000000000000 ) ) ;
#495 = CARTESIAN_POINT ( 'NONE',  ( -20.33965727662292267, -13.32864916588431292, 5.000000000000000000 ) ) ;
#496 = VERTEX_POINT ( 'NONE', #633 ) ;
#497 = CARTESIAN_POINT ( 'NONE',  ( -22.11768017634466332, 13.28209587387544843, -4.949747468305917941 ) ) ;
#498 = DIRECTION ( 'NONE',  ( 0.000000000000000000, 0.000000000000000000, 1.000000000000000000 ) ) ;
#499 = DIRECTION ( 'NONE',  ( 0.000000000000000000, 0.000000000000000000, -1.000000000000000000 ) ) ;
#500 = CIRCLE ( 'NONE', #358, 2.999999999999999112 ) ;
#501 = ORIENTED_EDGE ( 'NONE', *, *, #493, .T. ) ;
#502 = DIRECTION ( 'NONE',  ( 0.000000000000000000, 0.000000000000000000, 1.000000000000000000 ) ) ;
#503 = CIRCLE ( 'NONE', #750, 3.250000000000046185 ) ;
#504 = DIRECTION ( 'NONE',  ( 0.000000000000000000, 0.000000000000000000, -1.000000000000000000 ) ) ;
#505 = DIRECTION ( 'NONE',  ( -1.000000000000000000, 0.000000000000000000, 0.000000000000000000 ) ) ;
#506 = EDGE_CURVE ( 'NONE', #905, #397, #565, .T. ) ;
#507 = EDGE_LOOP ( 'NONE', ( #807, #226 ) ) ;
#508 =( LENGTH_UNIT ( ) NAMED_UNIT ( * ) SI_UNIT ( .MILLI., .METRE. ) );
#509 = AXIS2_PLACEMENT_3D ( 'NONE', #48, #352, #649 ) ;
#510 = CARTESIAN_POINT ( 'NONE',  ( -22.08965727662292977, -13.32864916588431292, 5.000000000000000000 ) ) ;
#511 = DIRECTION ( 'NONE',  ( -0.9999994455253178316, -0.001053066501590026530, 0.000000000000000000 ) ) ;
#512 = EDGE_CURVE ( 'NONE', #697, #816, #25, .T. ) ;
#513 = ORIENTED_EDGE ( 'NONE', *, *, #268, .F. ) ;
#514 = DIRECTION ( 'NONE',  ( 0.000000000000000000, 0.000000000000000000, -1.000000000000000000 ) ) ;
#515 = DIRECTION ( 'NONE',  ( 1.000000000000000000, 0.000000000000000000, 0.000000000000000000 ) ) ;
#516 = LINE ( 'NONE', #740, #945 ) ;
#517 = VERTEX_POINT ( 'NONE', #193 ) ;
#518 = VECTOR ( 'NONE', #120, 1000.000000000000000 ) ;
#519 = DIRECTION ( 'NONE',  ( -1.000000000000000000, 0.000000000000000000, 0.000000000000000000 ) ) ;
#520 = EDGE_CURVE ( 'NONE', #899, #849, #279, .T. ) ;
#521 = CARTESIAN_POINT ( 'NONE',  ( 11.48180680321085845, -6.612912560569945697, -4.949747468305917941 ) ) ;
#522 = EDGE_LOOP ( 'NONE', ( #956, #620 ) ) ;
#523 =( LENGTH_UNIT ( ) NAMED_UNIT ( * ) SI_UNIT ( .MILLI., .METRE. ) );
#524 = DIRECTION ( 'NONE',  ( -0.000000000000000000, -0.000000000000000000, -1.000000000000000000 ) ) ;
#525 = SURFACE_SIDE_STYLE ('',( #228 ) ) ;
#526 = STYLED_ITEM ( 'NONE', ( #820 ), #265 ) ;
#527 = PRESENTATION_STYLE_ASSIGNMENT (( #887 ) ) ;
#528 = EDGE_LOOP ( 'NONE', ( #15, #850, #98, #713 ) ) ;
#529 = PLANE ( 'NONE',  #796 ) ;
#530 = EDGE_CURVE ( 'NONE', #924, #696, #793, .T. ) ;
#531 = FACE_OUTER_BOUND ( 'NONE', #286, .T. ) ;
#532 = CIRCLE ( 'NONE', #763, 3.249999999999992450 ) ;
#533 = AXIS2_PLACEMENT_3D ( 'NONE', #364, #665, #831 ) ;
#534 = FACE_BOUND ( 'NONE', #678, .T. ) ;
#535 = ORIENTED_EDGE ( 'NONE', *, *, #457, .F. ) ;
#536 = CARTESIAN_POINT ( 'NONE',  ( -22.08965727662292977, -13.32864916588431292, 5.000000000000000000 ) ) ;
#537 = DIRECTION ( 'NONE',  ( -0.000000000000000000, -0.000000000000000000, -1.000000000000000000 ) ) ;
#538 = AXIS2_PLACEMENT_3D ( 'NONE', #610, #248, #685 ) ;
#539 = ORIENTED_EDGE ( 'NONE', *, *, #152, .T. ) ;
#540 = EDGE_CURVE ( 'NONE', #770, #668, #183, .T. ) ;
#541 = ORIENTED_EDGE ( 'NONE', *, *, #88, .T. ) ;
#542 = DIRECTION ( 'NONE',  ( 0.000000000000000000, 0.000000000000000000, 1.000000000000000000 ) ) ;
#543 = CARTESIAN_POINT ( 'NONE',  ( 14.73180680321090463, -6.612912560569945697, 5.000000000000000000 ) ) ;
#544 = VERTEX_POINT ( 'NONE', #783 ) ;
#545 = ORIENTED_EDGE ( 'NONE', *, *, #63, .T. ) ;
#546 = CARTESIAN_POINT ( 'NONE',  ( 8.231806803210812262, -6.612912560569945697, 5.000000000000000000 ) ) ;
#547 = FACE_BOUND ( 'NONE', #54, .T. ) ;
#548 = EDGE_CURVE ( 'NONE', #703, #353, #482, .T. ) ;
#549 = CIRCLE ( 'NONE', #903, 1.750000000000008438 ) ;
#550 = ORIENTED_EDGE ( 'NONE', *, *, #69, .F. ) ;
#551 = AXIS2_PLACEMENT_3D ( 'NONE', #8, #307, #232 ) ;
#552 = ORIENTED_EDGE ( 'NONE', *, *, #908, .F. ) ;
#553 = CARTESIAN_POINT ( 'NONE',  ( -18.83965727662294043, -13.32864916588431292, 7.000000000000000000 ) ) ;
#554 = ORIENTED_EDGE ( 'NONE', *, *, #355, .F. ) ;
#555 = AXIS2_PLACEMENT_3D ( 'NONE', #488, #933, #586 ) ;
#556 = EDGE_LOOP ( 'NONE', ( #255, #914, #18, #392 ) ) ;
#557 = CARTESIAN_POINT ( 'NONE',  ( -33.01998996586569746, 18.96523827042857135, -52.39555887140351587 ) ) ;
#558 = DIRECTION ( 'NONE',  ( 1.000000000000000000, 0.000000000000000000, 0.000000000000000000 ) ) ;
#559 = ORIENTED_EDGE ( 'NONE', *, *, #680, .T. ) ;
#560 = EDGE_CURVE ( 'NONE', #774, #145, #669, .T. ) ;
#561 = EDGE_LOOP ( 'NONE', ( #408, #490 ) ) ;
#562 = CYLINDRICAL_SURFACE ( 'NONE', #421, 1.750000000000029310 ) ;
#563 = DIRECTION ( 'NONE',  ( -2.975873740745943711E-16, -1.422841530459115502E-16, -1.000000000000000000 ) ) ;
#564 = CARTESIAN_POINT ( 'NONE',  ( -22.08965727662292977, -13.32864916588431292, -4.949747468305917941 ) ) ;
#565 = CIRCLE ( 'NONE', #466, 2.999999999999963141 ) ;
#566 = PRODUCT_DEFINITION_FORMATION_WITH_SPECIFIED_SOURCE ( 'ANY', '', #476, .NOT_KNOWN. ) ;
#567 = VERTEX_POINT ( 'NONE', #739 ) ;
#568 = FACE_OUTER_BOUND ( 'NONE', #449, .T. ) ;
#569 = CARTESIAN_POINT ( 'NONE',  ( -20.36768017634463135, 13.28209587387544843, -4.949747468305917941 ) ) ;
#570 = CYLINDRICAL_SURFACE ( 'NONE', #489, 3.249999999999964917 ) ;
#571 = ADVANCED_FACE ( 'NONE', ( #441 ), #529, .T. ) ;
#572 = ORIENTED_EDGE ( 'NONE', *, *, #540, .F. ) ;
#573 = CIRCLE ( 'NONE', #17, 3.250000000000046185 ) ;
#574 = CARTESIAN_POINT ( 'NONE',  ( -33.01998996586569746, 18.96523827042857135, 9.825322443591917630E-15 ) ) ;
#575 = DIRECTION ( 'NONE',  ( -1.000000000000000000, 0.000000000000000000, 0.000000000000000000 ) ) ;
#576 = CARTESIAN_POINT ( 'NONE',  ( -35.98313097488600931, -16.03790152246232381, 1.387778780781445676E-14 ) ) ;
#577 = ORIENTED_EDGE ( 'NONE', *, *, #103, .T. ) ;
#578 = DIRECTION ( 'NONE',  ( 1.000000000000000000, 0.000000000000000000, 0.000000000000000000 ) ) ;
#579 = DIRECTION ( 'NONE',  ( -1.000000000000000000, 0.000000000000000000, 0.000000000000000000 ) ) ;
#580 = CARTESIAN_POINT ( 'NONE',  ( 9.731806803210902856, -6.612912560569945697, 0.000000000000000000 ) ) ;
#581 = VECTOR ( 'NONE', #659, 1000.000000000000000 ) ;
#582 = EDGE_LOOP ( 'NONE', ( #688, #701 ) ) ;
#583 = CARTESIAN_POINT ( 'NONE',  ( 7.065041516794818291E-13, -1.359137797833678140E-14, 1.000000000000000000 ) ) ;
#584 = CARTESIAN_POINT ( 'NONE',  ( -33.01998996586569746, 18.96523827042857135, 7.000000000000000000 ) ) ;
#585 = ADVANCED_FACE ( 'NONE', ( #743, #896 ), #599, .T. ) ;
#586 = DIRECTION ( 'NONE',  ( 1.000000000000000000, 0.000000000000000000, 0.000000000000000000 ) ) ;
#587 = VERTEX_POINT ( 'NONE', #70 ) ;
#588 = CIRCLE ( 'NONE', #2, 2.999999999999963141 ) ;
#589 = DIRECTION ( 'NONE',  ( -2.975873740745943711E-16, -1.422841530459115502E-16, -1.000000000000000000 ) ) ;
#590 = DIRECTION ( 'NONE',  ( -1.000000000000000000, 0.000000000000000000, 0.000000000000000000 ) ) ;
#591 = ORIENTED_EDGE ( 'NONE', *, *, #719, .T. ) ;
#592 = ADVANCED_FACE ( 'NONE', ( #963 ), #814, .F. ) ;
#593 = SURFACE_SIDE_STYLE ('',( #951 ) ) ;
#594 = LINE ( 'NONE', #602, #810 ) ;
#595 = DIRECTION ( 'NONE',  ( 0.000000000000000000, 0.000000000000000000, 1.000000000000000000 ) ) ;
#596 = ORIENTED_EDGE ( 'NONE', *, *, #347, .T. ) ;
#597 = AXIS2_PLACEMENT_3D ( 'NONE', #334, #350, #558 ) ;
#598 = CIRCLE ( 'NONE', #344, 2.999999999999963141 ) ;
#599 = PLANE ( 'NONE',  #418 ) ;
#600 = DIRECTION ( 'NONE',  ( 0.000000000000000000, 0.000000000000000000, 1.000000000000000000 ) ) ;
#601 = DIRECTION ( 'NONE',  ( 0.000000000000000000, 0.000000000000000000, 1.000000000000000000 ) ) ;
#602 = CARTESIAN_POINT ( 'NONE',  ( 9.731806803210902856, -6.612912560569945697, -4.949747468305917941 ) ) ;
#603 = CARTESIAN_POINT ( 'NONE',  ( 11.48180680321085845, -6.612912560569945697, 5.000000000000000000 ) ) ;
#604 = APPLICATION_CONTEXT ( 'automotive_design' ) ;
#605 = ORIENTED_EDGE ( 'NONE', *, *, #185, .F. ) ;
#606 = FACE_BOUND ( 'NONE', #624, .T. ) ;
#607 = CYLINDRICAL_SURFACE ( 'NONE', #172, 3.249999999999992450 ) ;
#608 = LINE ( 'NONE', #546, #435 ) ;
#609 = STYLED_ITEM ( 'NONE', ( #527 ), #34 ) ;
#610 = CARTESIAN_POINT ( 'NONE',  ( -32.98313263831005315, -16.03474232295756252, 7.000000000000000000 ) ) ;
#611 = EDGE_CURVE ( 'NONE', #816, #781, #284, .T. ) ;
#612 = ORIENTED_EDGE ( 'NONE', *, *, #560, .T. ) ;
#613 = CARTESIAN_POINT ( 'NONE',  ( 11.48180680321085845, -6.612912560569945697, 5.000000000000000000 ) ) ;
#614 = CIRCLE ( 'NONE', #189, 3.250000000000046185 ) ;
#615 = ORIENTED_EDGE ( 'NONE', *, *, #667, .T. ) ;
#616 = ADVANCED_FACE ( 'NONE', ( #808, #450 ), #751, .T. ) ;
#617 = VERTEX_POINT ( 'NONE', #584 ) ;
#618 = DIRECTION ( 'NONE',  ( 1.000000000000000000, 0.000000000000000000, 0.000000000000000000 ) ) ;
#619 = CARTESIAN_POINT ( 'NONE',  ( -25.33965727662292267, -13.32864916588431292, 5.000000000000000000 ) ) ;
#620 = ORIENTED_EDGE ( 'NONE', *, *, #661, .F. ) ;
#621 = CARTESIAN_POINT ( 'NONE',  ( -0.02000826353020062481, 18.99998946498104146, 7.000000000000000000 ) ) ;
#622 = FACE_OUTER_BOUND ( 'NONE', #315, .T. ) ;
#623 = AXIS2_PLACEMENT_3D ( 'NONE', #952, #431, #56 ) ;
#624 = EDGE_LOOP ( 'NONE', ( #552, #272 ) ) ;
#625 = AXIS2_PLACEMENT_3D ( 'NONE', #917, #840, #313 ) ;
#626 = ORIENTED_EDGE ( 'NONE', *, *, #335, .F. ) ;
#627 = DIRECTION ( 'NONE',  ( 0.000000000000000000, 0.000000000000000000, 1.000000000000000000 ) ) ;
#628 = CARTESIAN_POINT ( 'NONE',  ( 11.46785367206435069, 6.637080092639984663, 5.000000000000000000 ) ) ;
#629 = ADVANCED_FACE ( 'NONE', ( #447 ), #372, .F. ) ;
#630 = ORIENTED_EDGE ( 'NONE', *, *, #341, .F. ) ;
#631 = ORIENTED_EDGE ( 'NONE', *, *, #63, .F. ) ;
#632 = DIRECTION ( 'NONE',  ( -0.000000000000000000, -0.000000000000000000, 1.000000000000000000 ) ) ;
#633 = CARTESIAN_POINT ( 'NONE',  ( 0.02000826353019829681, -18.99998946498104146, 7.000000000000000000 ) ) ;
#634 = CARTESIAN_POINT ( 'NONE',  ( -18.83965727662294043, -13.32864916588431292, 5.000000000000000000 ) ) ;
#635 = ORIENTED_EDGE ( 'NONE', *, *, #115, .T. ) ;
#636 = CARTESIAN_POINT ( 'NONE',  ( 7.065041516794818291E-13, -1.359137797833678140E-14, 1.000000000000000000 ) ) ;
#637 = DIRECTION ( 'NONE',  ( 1.000000000000000000, 0.000000000000000000, 0.000000000000000000 ) ) ;
#638 = LINE ( 'NONE', #790, #664 ) ;
#639 = EDGE_CURVE ( 'NONE', #781, #85, #857, .T. ) ;
#640 = VECTOR ( 'NONE', #4, 1000.000000000000000 ) ;
#641 = VERTEX_POINT ( 'NONE', #280 ) ;
#642 = CARTESIAN_POINT ( 'NONE',  ( -35.98313097488600931, -16.03790152246233092, -52.39555887140351587 ) ) ;
#643 = DIRECTION ( 'NONE',  ( 1.000000000000000000, 0.000000000000000000, 0.000000000000000000 ) ) ;
#644 = LINE ( 'NONE', #201, #425 ) ;
#645 = ORIENTED_EDGE ( 'NONE', *, *, #194, .F. ) ;
#646 = DIRECTION ( 'NONE',  ( -0.000000000000000000, -0.000000000000000000, 1.000000000000000000 ) ) ;
#647 = EDGE_CURVE ( 'NONE', #696, #770, #500, .T. ) ;
#648 = DIRECTION ( 'NONE',  ( 0.000000000000000000, 0.000000000000000000, 1.000000000000000000 ) ) ;
#649 = DIRECTION ( 'NONE',  ( 1.000000000000000000, 0.000000000000000000, 0.000000000000000000 ) ) ;
#650 = VERTEX_POINT ( 'NONE', #369 ) ;
#651 = EDGE_CURVE ( 'NONE', #78, #567, #594, .T. ) ;
#652 = CARTESIAN_POINT ( 'NONE',  ( -35.98313097488600931, -16.03790152246233092, -52.39555887140351587 ) ) ;
#653 = DIRECTION ( 'NONE',  ( -0.000000000000000000, -0.000000000000000000, -1.000000000000000000 ) ) ;
#654 = CIRCLE ( 'NONE', #147, 1.749999999999956479 ) ;
#655 = AXIS2_PLACEMENT_3D ( 'NONE', #497, #646, #578 ) ;
#656 = EDGE_LOOP ( 'NONE', ( #829, #261, #645, #845 ) ) ;
#657 = DIRECTION ( 'NONE',  ( 1.000000000000000000, 0.000000000000000000, 0.000000000000000000 ) ) ;
#658 = CIRCLE ( 'NONE', #778, 2.999999999999963141 ) ;
#659 = DIRECTION ( 'NONE',  ( -0.000000000000000000, -0.000000000000000000, -1.000000000000000000 ) ) ;
#660 = DIRECTION ( 'NONE',  ( 1.000000000000000000, 0.000000000000000000, 0.000000000000000000 ) ) ;
#661 = EDGE_CURVE ( 'NONE', #816, #697, #198, .T. ) ;
#662 = ORIENTED_EDGE ( 'NONE', *, *, #733, .F. ) ;
#663 = FILL_AREA_STYLE ('',( #297 ) ) ;
#664 = VECTOR ( 'NONE', #116, 1000.000000000000000 ) ;
#665 = DIRECTION ( 'NONE',  ( -0.000000000000000000, -0.000000000000000000, 1.000000000000000000 ) ) ;
#666 = DIRECTION ( 'NONE',  ( 1.000000000000000000, 0.000000000000000000, 0.000000000000000000 ) ) ;
#667 = EDGE_CURVE ( 'NONE', #330, #35, #213, .T. ) ;
#668 = VERTEX_POINT ( 'NONE', #957 ) ;
#669 = LINE ( 'NONE', #804, #136 ) ;
#670 =( NAMED_UNIT ( * ) SI_UNIT ( $, .STERADIAN. ) SOLID_ANGLE_UNIT ( ) );
#671 = VECTOR ( 'NONE', #406, 1000.000000000000000 ) ;
#672 = CIRCLE ( 'NONE', #104, 3.249999999999964917 ) ;
#673 = DIRECTION ( 'NONE',  ( -0.000000000000000000, -0.000000000000000000, 1.000000000000000000 ) ) ;
#674 = VERTEX_POINT ( 'NONE', #139 ) ;
#675 = CARTESIAN_POINT ( 'NONE',  ( 14.71785367206439687, 6.637080092639984663, 7.000000000000000000 ) ) ;
#676 = VECTOR ( 'NONE', #258, 1000.000000000000114 ) ;
#677 = CARTESIAN_POINT ( 'NONE',  ( 13.21785367206435780, 6.637080092639984663, 0.000000000000000000 ) ) ;
#678 = EDGE_LOOP ( 'NONE', ( #630, #484 ) ) ;
#679 = PLANE ( 'NONE',  #551 ) ;
#680 = EDGE_CURVE ( 'NONE', #674, #567, #654, .T. ) ;
#681 = DIRECTION ( 'NONE',  ( -0.000000000000000000, -0.000000000000000000, 1.000000000000000000 ) ) ;
#682 = EDGE_LOOP ( 'NONE', ( #250, #277 ) ) ;
#683 = DIRECTION ( 'NONE',  ( 0.000000000000000000, 0.000000000000000000, 1.000000000000000000 ) ) ;
#684 = CIRCLE ( 'NONE', #73, 3.249999999999992450 ) ;
#685 = DIRECTION ( 'NONE',  ( 1.000000000000000000, 0.000000000000000000, 0.000000000000000000 ) ) ;
#686 = EDGE_LOOP ( 'NONE', ( #233, #14, #112, #309 ) ) ;
#687 = ADVANCED_FACE ( 'NONE', ( #438 ), #61, .F. ) ;
#688 = ORIENTED_EDGE ( 'NONE', *, *, #311, .F. ) ;
#689 = CARTESIAN_POINT ( 'NONE',  ( -35.98313097488600931, -16.03790152246233092, 1.387778780781445676E-14 ) ) ;
#690 = DIRECTION ( 'NONE',  ( -0.000000000000000000, -0.000000000000000000, -1.000000000000000000 ) ) ;
#691 = AXIS2_PLACEMENT_3D ( 'NONE', #898, #595, #752 ) ;
#692 = ORIENTED_EDGE ( 'NONE', *, *, #958, .T. ) ;
#693 = ORIENTED_EDGE ( 'NONE', *, *, #94, .F. ) ;
#694 = FACE_OUTER_BOUND ( 'NONE', #507, .T. ) ;
#695 = CARTESIAN_POINT ( 'NONE',  ( 9.717853672064343584, 6.637080092639984663, 0.000000000000000000 ) ) ;
#696 = VERTEX_POINT ( 'NONE', #911 ) ;
#697 = VERTEX_POINT ( 'NONE', #247 ) ;
#698 = DIRECTION ( 'NONE',  ( 1.000000000000000000, 0.000000000000000000, 0.000000000000000000 ) ) ;
#699 = PLANE ( 'NONE',  #119 ) ;
#700 = AXIS2_PLACEMENT_3D ( 'NONE', #422, #410, #722 ) ;
#701 = ORIENTED_EDGE ( 'NONE', *, *, #219, .F. ) ;
#702 = COLOUR_RGB ( '',0.000000000000000000, 1.000000000000000000, 1.000000000000000000 ) ;
#703 = VERTEX_POINT ( 'NONE', #768 ) ;
#704 = CARTESIAN_POINT ( 'NONE',  ( 7.065041516794818291E-13, -1.359137797833678140E-14, 1.000000000000000000 ) ) ;
#705 = EDGE_CURVE ( 'NONE', #517, #474, #389, .T. ) ;
#706 = FACE_OUTER_BOUND ( 'NONE', #401, .T. ) ;
#707 = LINE ( 'NONE', #346, #848 ) ;
#708 = ORIENTED_EDGE ( 'NONE', *, *, #651, .F. ) ;
#709 = PLANE ( 'NONE',  #200 ) ;
#710 = DIRECTION ( 'NONE',  ( 1.000000000000000000, 0.000000000000000000, 0.000000000000000000 ) ) ;
#711 = ADVANCED_FACE ( 'NONE', ( #694, #459 ), #80, .T. ) ;
#712 = DIRECTION ( 'NONE',  ( 1.000000000000000000, 0.000000000000000000, 0.000000000000000000 ) ) ;
#713 = ORIENTED_EDGE ( 'NONE', *, *, #230, .F. ) ;
#714 = FACE_OUTER_BOUND ( 'NONE', #686, .T. ) ;
#715 = CYLINDRICAL_SURFACE ( 'NONE', #72, 3.250000000000046185 ) ;
#716 = DIRECTION ( 'NONE',  ( -0.000000000000000000, -0.000000000000000000, -1.000000000000000000 ) ) ;
#717 = AXIS2_PLACEMENT_3D ( 'NONE', #870, #938, #487 ) ;
#718 = VECTOR ( 'NONE', #405, 1000.000000000000114 ) ;
#719 = EDGE_CURVE ( 'NONE', #236, #79, #776, .T. ) ;
#720 = ORIENTED_EDGE ( 'NONE', *, *, #639, .F. ) ;
#721 = CARTESIAN_POINT ( 'NONE',  ( 9.717853672064343584, 6.637080092639984663, -4.949747468305917941 ) ) ;
#722 = DIRECTION ( 'NONE',  ( 1.000000000000000000, 0.000000000000000000, 0.000000000000000000 ) ) ;
#723 = CYLINDRICAL_SURFACE ( 'NONE', #509, 2.999999999999999112 ) ;
#724 = EDGE_CURVE ( 'NONE', #79, #165, #608, .T. ) ;
#725 = AXIS2_PLACEMENT_3D ( 'NONE', #282, #190, #712 ) ;
#726 = ORIENTED_EDGE ( 'NONE', *, *, #828, .T. ) ;
#727 = DIRECTION ( 'NONE',  ( 0.9999994455253178316, 0.001053066501590026963, 0.000000000000000000 ) ) ;
#728 = DIRECTION ( 'NONE',  ( 1.000000000000000000, 0.000000000000000000, 0.000000000000000000 ) ) ;
#729 = DIRECTION ( 'NONE',  ( -0.000000000000000000, -0.000000000000000000, 1.000000000000000000 ) ) ;
#730 = VERTEX_POINT ( 'NONE', #86 ) ;
#731 = APPLICATION_PROTOCOL_DEFINITION ( 'draft international standard', 'automotive_design', 1998, #604 ) ;
#732 = CARTESIAN_POINT ( 'NONE',  ( -23.83965727662294043, -13.32864916588431292, -4.949747468305917941 ) ) ;
#733 = EDGE_CURVE ( 'NONE', #907, #774, #684, .T. ) ;
#734 = DIRECTION ( 'NONE',  ( -0.000000000000000000, -0.000000000000000000, -1.000000000000000000 ) ) ;
#735 = AXIS2_PLACEMENT_3D ( 'NONE', #322, #765, #97 ) ;
#736 = CIRCLE ( 'NONE', #388, 19.00000000000000000 ) ;
#737 = ORIENTED_EDGE ( 'NONE', *, *, #81, .T. ) ;
#738 = DIRECTION ( 'NONE',  ( -1.000000000000000000, 0.000000000000000000, -0.000000000000000000 ) ) ;
#739 = CARTESIAN_POINT ( 'NONE',  ( 9.731806803210901080, -6.612912560569945697, 5.000000000000000000 ) ) ;
#740 = CARTESIAN_POINT ( 'NONE',  ( -32.97997343880528831, -19.03474065953351158, -52.39555887140351587 ) ) ;
#741 = ORIENTED_EDGE ( 'NONE', *, *, #219, .T. ) ;
#742 = CIRCLE ( 'NONE', #223, 1.750000000000006661 ) ;
#743 = FACE_OUTER_BOUND ( 'NONE', #755, .T. ) ;
#744 = ADVANCED_FACE ( 'NONE', ( #454 ), #20, .F. ) ;
#745 = DIRECTION ( 'NONE',  ( 1.000000000000000000, 0.000000000000000000, 0.000000000000000000 ) ) ;
#746 = SHAPE_DEFINITION_REPRESENTATION ( #325, #34 ) ;
#747 = CARTESIAN_POINT ( 'NONE',  ( -0.02000826353020716819, 18.99998946498104146, -52.39555887140351587 ) ) ;
#748 = DIRECTION ( 'NONE',  ( 1.000000000000000000, 0.000000000000000000, 0.000000000000000000 ) ) ;
#749 = CIRCLE ( 'NONE', #99, 3.249999999999992450 ) ;
#750 = AXIS2_PLACEMENT_3D ( 'NONE', #108, #601, #657 ) ;
#751 = PLANE ( 'NONE',  #244 ) ;
#752 = DIRECTION ( 'NONE',  ( 1.000000000000000000, 0.000000000000000000, 0.000000000000000000 ) ) ;
#753 = DIRECTION ( 'NONE',  ( -0.000000000000000000, -0.000000000000000000, -1.000000000000000000 ) ) ;
#754 = PLANE ( 'NONE',  #386 ) ;
#755 = EDGE_LOOP ( 'NONE', ( #174, #384 ) ) ;
#756 = VERTEX_POINT ( 'NONE', #621 ) ;
#757 = LINE ( 'NONE', #906, #764 ) ;
#758 = FACE_BOUND ( 'NONE', #582, .T. ) ;
#759 = EDGE_CURVE ( 'NONE', #907, #357, #757, .T. ) ;
#760 = ORIENTED_EDGE ( 'NONE', *, *, #290, .T. ) ;
#761 = ORIENTED_EDGE ( 'NONE', *, *, #958, .F. ) ;
#762 = DIRECTION ( 'NONE',  ( -0.000000000000000000, -0.000000000000000000, -1.000000000000000000 ) ) ;
#763 = AXIS2_PLACEMENT_3D ( 'NONE', #109, #30, #643 ) ;
#764 = VECTOR ( 'NONE', #753, 1000.000000000000000 ) ;
#765 = DIRECTION ( 'NONE',  ( 0.000000000000000000, 0.000000000000000000, 1.000000000000000000 ) ) ;
#766 = ORIENTED_EDGE ( 'NONE', *, *, #759, .F. ) ;
#767 = APPLICATION_CONTEXT ( 'automotive_design' ) ;
#768 = CARTESIAN_POINT ( 'NONE',  ( -23.86768017634469174, 13.28209587387544843, 0.000000000000000000 ) ) ;
#769 = ORIENTED_EDGE ( 'NONE', *, *, #705, .T. ) ;
#770 = VERTEX_POINT ( 'NONE', #689 ) ;
#771 = DIRECTION ( 'NONE',  ( 1.000000000000000000, 0.000000000000000000, -0.000000000000000000 ) ) ;
#772 = DIRECTION ( 'NONE',  ( -0.000000000000000000, -0.000000000000000000, -1.000000000000000000 ) ) ;
#773 = VERTEX_POINT ( 'NONE', #385 ) ;
#774 = VERTEX_POINT ( 'NONE', #553 ) ;
#775 = DIRECTION ( 'NONE',  ( 0.000000000000000000, 0.000000000000000000, -1.000000000000000000 ) ) ;
#776 = CIRCLE ( 'NONE', #953, 3.250000000000046185 ) ;
#777 = DIRECTION ( 'NONE',  ( -0.000000000000000000, -0.000000000000000000, 1.000000000000000000 ) ) ;
#778 = AXIS2_PLACEMENT_3D ( 'NONE', #118, #775, #333 ) ;
#779 = VERTEX_POINT ( 'NONE', #16 ) ;
#780 = ADVANCED_FACE ( 'NONE', ( #318 ), #13, .F. ) ;
#781 = VERTEX_POINT ( 'NONE', #166 ) ;
#782 = CARTESIAN_POINT ( 'NONE',  ( -2.999999999999256595, -1.359137797833678140E-14, 1.000000000000000000 ) ) ;
#783 = CARTESIAN_POINT ( 'NONE',  ( -36.01682910293688167, 15.96208073434785391, 7.000000000000000000 ) ) ;
#784 = DIRECTION ( 'NONE',  ( 1.000000000000000000, 0.000000000000000000, 0.000000000000000000 ) ) ;
#785 = AXIS2_PLACEMENT_3D ( 'NONE', #68, #137, #660 ) ;
#786 = VERTEX_POINT ( 'NONE', #90 ) ;
#787 = DIRECTION ( 'NONE',  ( 0.001053066501589825085, -0.9999994455253178316, 0.000000000000000000 ) ) ;
#788 = DIRECTION ( 'NONE',  ( 1.000000000000000000, 0.000000000000000000, -2.975873740745942231E-16 ) ) ;
#789 = EDGE_CURVE ( 'NONE', #169, #905, #380, .T. ) ;
#790 = CARTESIAN_POINT ( 'NONE',  ( 13.21785367206435780, 6.637080092639984663, -4.949747468305917941 ) ) ;
#791 = ORIENTED_EDGE ( 'NONE', *, *, #341, .T. ) ;
#792 = DIRECTION ( 'NONE',  ( 0.000000000000000000, 0.000000000000000000, 1.000000000000000000 ) ) ;
#793 = LINE ( 'NONE', #415, #163 ) ;
#794 = EDGE_CURVE ( 'NONE', #834, #517, #672, .T. ) ;
#795 = LINE ( 'NONE', #865, #31 ) ;
#796 = AXIS2_PLACEMENT_3D ( 'NONE', #747, #823, #130 ) ;
#797 = EDGE_LOOP ( 'NONE', ( #291, #138, #462, #572 ) ) ;
#798 = DIRECTION ( 'NONE',  ( -1.000000000000000000, 0.000000000000000000, 0.000000000000000000 ) ) ;
#799 = FACE_OUTER_BOUND ( 'NONE', #342, .T. ) ;
#800 = CARTESIAN_POINT ( 'NONE',  ( 8.231806803210812262, -6.612912560569945697, 7.000000000000000000 ) ) ;
#801 = AXIS2_PLACEMENT_3D ( 'NONE', #106, #716, #264 ) ;
#802 = ORIENTED_EDGE ( 'NONE', *, *, #32, .F. ) ;
#803 = ADVANCED_FACE ( 'NONE', ( #921 ), #846, .F. ) ;
#804 = CARTESIAN_POINT ( 'NONE',  ( -18.83965727662294043, -13.32864916588431292, 5.000000000000000000 ) ) ;
#805 =( LENGTH_UNIT ( ) NAMED_UNIT ( * ) SI_UNIT ( .MILLI., .METRE. ) );
#806 = PRODUCT_RELATED_PRODUCT_CATEGORY ( 'part', '', ( #476 ) ) ;
#807 = ORIENTED_EDGE ( 'NONE', *, *, #194, .T. ) ;
#808 = FACE_OUTER_BOUND ( 'NONE', #853, .T. ) ;
#809 = SURFACE_STYLE_USAGE ( .BOTH. , #525 ) ;
#810 = VECTOR ( 'NONE', #378, 1000.000000000000000 ) ;
#811 = AXIS2_PLACEMENT_3D ( 'NONE', #273, #627, #177 ) ;
#812 = VERTEX_POINT ( 'NONE', #675 ) ;
#813 = ADVANCED_FACE ( 'NONE', ( #606, #900, #531, #77, #826 ), #679, .T. ) ;
#814 = CYLINDRICAL_SURFACE ( 'NONE', #260, 3.250000000000046185 ) ;
#815 = CYLINDRICAL_SURFACE ( 'NONE', #444, 19.00000000000000000 ) ;
#816 = VERTEX_POINT ( 'NONE', #409 ) ;
#817 = PRODUCT_CONTEXT ( 'NONE', #604, 'mechanical' ) ;
#818 = MECHANICAL_DESIGN_GEOMETRIC_PRESENTATION_REPRESENTATION (  '', ( #526 ), #393 ) ;
#819 = DIRECTION ( 'NONE',  ( -0.000000000000000000, -0.000000000000000000, 1.000000000000000000 ) ) ;
#820 = PRESENTATION_STYLE_ASSIGNMENT (( #809 ) ) ;
#821 = EDGE_CURVE ( 'NONE', #169, #855, #658, .T. ) ;
#822 = EDGE_LOOP ( 'NONE', ( #554, #838, #861, #404 ) ) ;
#823 = DIRECTION ( 'NONE',  ( -0.001053066501590026747, 0.9999994455253179426, 0.000000000000000000 ) ) ;
#824 = EDGE_CURVE ( 'NONE', #617, #544, #483, .T. ) ;
#825 = CIRCLE ( 'NONE', #842, 1.750000000000029310 ) ;
#826 = FACE_BOUND ( 'NONE', #682, .T. ) ;
#827 = FACE_BOUND ( 'NONE', #522, .T. ) ;
#828 = EDGE_CURVE ( 'NONE', #812, #330, #43, .T. ) ;
#829 = ORIENTED_EDGE ( 'NONE', *, *, #908, .T. ) ;
#830 = CIRCLE ( 'NONE', #960, 3.250000000000046185 ) ;
#831 = DIRECTION ( 'NONE',  ( 1.000000000000000000, 0.000000000000000000, 0.000000000000000000 ) ) ;
#832 = AXIS2_PLACEMENT_3D ( 'NONE', #407, #336, #125 ) ;
#833 = FACE_BOUND ( 'NONE', #481, .T. ) ;
#834 = VERTEX_POINT ( 'NONE', #479 ) ;
#835 = EDGE_CURVE ( 'NONE', #899, #544, #40, .T. ) ;
#836 = DIRECTION ( 'NONE',  ( 0.000000000000000000, 0.000000000000000000, 1.000000000000000000 ) ) ;
#837 = FACE_OUTER_BOUND ( 'NONE', #797, .T. ) ;
#838 = ORIENTED_EDGE ( 'NONE', *, *, #548, .T. ) ;
#839 = ORIENTED_EDGE ( 'NONE', *, *, #370, .F. ) ;
#840 = DIRECTION ( 'NONE',  ( -0.000000000000000000, -0.000000000000000000, -1.000000000000000000 ) ) ;
#841 = AXIS2_PLACEMENT_3D ( 'NONE', #253, #888, #893 ) ;
#842 = AXIS2_PLACEMENT_3D ( 'NONE', #420, #399, #868 ) ;
#843 = DIRECTION ( 'NONE',  ( 1.000000000000000000, 0.000000000000000000, 0.000000000000000000 ) ) ;
#844 = ORIENTED_EDGE ( 'NONE', *, *, #915, .T. ) ;
#845 = ORIENTED_EDGE ( 'NONE', *, *, #724, .F. ) ;
#846 = CYLINDRICAL_SURFACE ( 'NONE', #164, 2.999999999999963141 ) ;
#847 = CARTESIAN_POINT ( 'NONE',  ( 11.46785367206435069, 6.637080092639984663, 0.000000000000000000 ) ) ;
#848 = VECTOR ( 'NONE', #653, 1000.000000000000000 ) ;
#849 = VERTEX_POINT ( 'NONE', #574 ) ;
#850 = ORIENTED_EDGE ( 'NONE', *, *, #445, .T. ) ;
#851 = CARTESIAN_POINT ( 'NONE',  ( -36.01682910293688167, 15.96208073434785391, 7.000000000000000000 ) ) ;
#852 = FACE_OUTER_BOUND ( 'NONE', #935, .T. ) ;
#853 = EDGE_LOOP ( 'NONE', ( #891, #123 ) ) ;
#854 = ADVANCED_FACE ( 'NONE', ( #714 ), #262, .F. ) ;
#855 = VERTEX_POINT ( 'NONE', #782 ) ;
#856 = CARTESIAN_POINT ( 'NONE',  ( -22.11768017634466332, 13.28209587387544843, -4.949747468305917941 ) ) ;
#857 = CIRCLE ( 'NONE', #57, 1.750000000000008438 ) ;
#858 = DIRECTION ( 'NONE',  ( -0.9999994455253178316, -0.001053066501590026530, 2.977370437452094175E-16 ) ) ;
#859 = AXIS2_PLACEMENT_3D ( 'NONE', #583, #514, #738 ) ;
#860 = CARTESIAN_POINT ( 'NONE',  ( 7.065041516794818291E-13, -1.359137797833678140E-14, 0.000000000000000000 ) ) ;
#861 = ORIENTED_EDGE ( 'NONE', *, *, #457, .T. ) ;
#862 = DIRECTION ( 'NONE',  ( -0.9999994455253179426, -0.001053066501589825302, 0.000000000000000000 ) ) ;
#863 = EDGE_CURVE ( 'NONE', #855, #169, #598, .T. ) ;
#864 = CARTESIAN_POINT ( 'NONE',  ( -22.08965727662292977, -13.32864916588431292, 5.000000000000000000 ) ) ;
#865 = CARTESIAN_POINT ( 'NONE',  ( -0.02000826353019156609, 18.99998946498104146, 0.000000000000000000 ) ) ;
#866 = VECTOR ( 'NONE', #690, 1000.000000000000000 ) ;
#867 = ORIENTED_EDGE ( 'NONE', *, *, #934, .F. ) ;
#868 = DIRECTION ( 'NONE',  ( 1.000000000000000000, 0.000000000000000000, 0.000000000000000000 ) ) ;
#869 = EDGE_CURVE ( 'NONE', #849, #617, #947, .T. ) ;
#870 = CARTESIAN_POINT ( 'NONE',  ( -32.97997343880528831, -19.03474065953351158, -52.39555887140351587 ) ) ;
#871 = DIRECTION ( 'NONE',  ( 1.000000000000000000, 0.000000000000000000, 0.000000000000000000 ) ) ;
#872 = EDGE_LOOP ( 'NONE', ( #693, #726, #615, #867 ) ) ;
#873 = LINE ( 'NONE', #851, #718 ) ;
#874 = DIRECTION ( 'NONE',  ( -0.000000000000000000, -0.000000000000000000, -1.000000000000000000 ) ) ;
#875 = DIRECTION ( 'NONE',  ( 0.9999994455253178316, 0.001053066501590026530, -2.977370437452094175E-16 ) ) ;
#876 = VECTOR ( 'NONE', #727, 1000.000000000000114 ) ;
#877 = ORIENTED_EDGE ( 'NONE', *, *, #661, .T. ) ;
#878 =( NAMED_UNIT ( * ) PLANE_ANGLE_UNIT ( ) SI_UNIT ( $, .RADIAN. ) );
#879 = DIRECTION ( 'NONE',  ( 1.000000000000000000, 0.000000000000000000, -2.975873740745942231E-16 ) ) ;
#880 = CARTESIAN_POINT ( 'NONE',  ( 14.71785367206439687, 6.637080092639984663, 5.000000000000000000 ) ) ;
#881 = EDGE_CURVE ( 'NONE', #353, #703, #825, .T. ) ;
#882 = ORIENTED_EDGE ( 'NONE', *, *, #885, .F. ) ;
#883 = CARTESIAN_POINT ( 'NONE',  ( 11.48180680321085845, -6.612912560569945697, 5.000000000000000000 ) ) ;
#884 = FILL_AREA_STYLE_COLOUR ( '', #961 ) ;
#885 = EDGE_CURVE ( 'NONE', #544, #668, #873, .T. ) ;
#886 = ORIENTED_EDGE ( 'NONE', *, *, #19, .F. ) ;
#887 = SURFACE_STYLE_USAGE ( .BOTH. , #593 ) ;
#888 = DIRECTION ( 'NONE',  ( -0.000000000000000000, -0.000000000000000000, -1.000000000000000000 ) ) ;
#889 = DIRECTION ( 'NONE',  ( 0.000000000000000000, 0.000000000000000000, 1.000000000000000000 ) ) ;
#890 = AXIS2_PLACEMENT_3D ( 'NONE', #932, #563, #788 ) ;
#891 = ORIENTED_EDGE ( 'NONE', *, *, #486, .T. ) ;
#892 = CARTESIAN_POINT ( 'NONE',  ( -22.11768017634466332, 13.28209587387544843, 5.000000000000000000 ) ) ;
#893 = DIRECTION ( 'NONE',  ( 1.000000000000000000, 0.000000000000000000, 0.000000000000000000 ) ) ;
#894 = ADVANCED_FACE ( 'NONE', ( #568 ), #492, .F. ) ;
#895 = CARTESIAN_POINT ( 'NONE',  ( 3.000000000000669687, -1.322398393859257911E-14, 1.000000000000000000 ) ) ;
#896 = FACE_BOUND ( 'NONE', #50, .T. ) ;
#897 = ADVANCED_FACE ( 'NONE', ( #349 ), #709, .T. ) ;
#898 = CARTESIAN_POINT ( 'NONE',  ( 11.48180680321085845, -6.612912560569945697, 5.000000000000000000 ) ) ;
#899 = VERTEX_POINT ( 'NONE', #942 ) ;
#900 = FACE_BOUND ( 'NONE', #561, .T. ) ;
#901 = FACE_OUTER_BOUND ( 'NONE', #656, .T. ) ;
#902 = ADVANCED_FACE ( 'NONE', ( #328 ), #267, .F. ) ;
#903 = AXIS2_PLACEMENT_3D ( 'NONE', #918, #238, #927 ) ;
#904 = MECHANICAL_DESIGN_GEOMETRIC_PRESENTATION_REPRESENTATION (  '', ( #609 ), #310 ) ;
#905 = VERTEX_POINT ( 'NONE', #36 ) ;
#906 = CARTESIAN_POINT ( 'NONE',  ( -25.33965727662292267, -13.32864916588431292, 5.000000000000000000 ) ) ;
#907 = VERTEX_POINT ( 'NONE', #29 ) ;
#908 = EDGE_CURVE ( 'NONE', #79, #236, #452, .T. ) ;
#909 = ORIENTED_EDGE ( 'NONE', *, *, #103, .F. ) ;
#910 = AXIS2_PLACEMENT_3D ( 'NONE', #564, #729, #784 ) ;
#911 = CARTESIAN_POINT ( 'NONE',  ( -32.97997343880528831, -19.03474065953351158, 1.387778780781445991E-14 ) ) ;
#912 = VECTOR ( 'NONE', #92, 1000.000000000000000 ) ;
#913 = CARTESIAN_POINT ( 'NONE',  ( -23.86768017634469174, 13.28209587387544843, -4.949747468305917941 ) ) ;
#914 = ORIENTED_EDGE ( 'NONE', *, *, #835, .T. ) ;
#915 = EDGE_CURVE ( 'NONE', #362, #779, #414, .T. ) ;
#916 = ORIENTED_EDGE ( 'NONE', *, *, #940, .T. ) ;
#917 = CARTESIAN_POINT ( 'NONE',  ( 11.48180680321085845, -6.612912560569945697, 5.000000000000000000 ) ) ;
#918 = CARTESIAN_POINT ( 'NONE',  ( 11.46785367206435069, 6.637080092639984663, 5.000000000000000000 ) ) ;
#919 = EDGE_LOOP ( 'NONE', ( #909, #196, #882, #327 ) ) ;
#920 = ORIENTED_EDGE ( 'NONE', *, *, #6, .T. ) ;
#921 = FACE_OUTER_BOUND ( 'NONE', #383, .T. ) ;
#922 = CIRCLE ( 'NONE', #41, 1.750000000000008438 ) ;
#923 = LINE ( 'NONE', #543, #912 ) ;
#924 = VERTEX_POINT ( 'NONE', #931 ) ;
#925 = EDGE_LOOP ( 'NONE', ( #82, #612, #224, #766 ) ) ;
#926 = DIRECTION ( 'NONE',  ( 0.000000000000000000, 0.000000000000000000, -1.000000000000000000 ) ) ;
#927 = DIRECTION ( 'NONE',  ( 1.000000000000000000, 0.000000000000000000, 0.000000000000000000 ) ) ;
#928 = ADVANCED_FACE ( 'NONE', ( #256 ), #562, .F. ) ;
#929 = ORIENTED_EDGE ( 'NONE', *, *, #69, .T. ) ;
#930 = ORIENTED_EDGE ( 'NONE', *, *, #651, .T. ) ;
#931 = CARTESIAN_POINT ( 'NONE',  ( 0.02000826353020897577, -18.99998946498104146, -3.469446951953614189E-15 ) ) ;
#932 = CARTESIAN_POINT ( 'NONE',  ( -33.01683076636093261, 15.96523993385261875, 6.938893903907228378E-15 ) ) ;
#933 = DIRECTION ( 'NONE',  ( 0.000000000000000000, 0.000000000000000000, 1.000000000000000000 ) ) ;
#934 = EDGE_CURVE ( 'NONE', #650, #35, #503, .T. ) ;
#935 = EDGE_LOOP ( 'NONE', ( #394, #877, #191, #501 ) ) ;
#936 = DIRECTION ( 'NONE',  ( 0.000000000000000000, 0.000000000000000000, 1.000000000000000000 ) ) ;
#937 = AXIS2_PLACEMENT_3D ( 'NONE', #426, #52, #728 ) ;
#938 = DIRECTION ( 'NONE',  ( 0.001053066501590026747, -0.9999994455253179426, 0.000000000000000000 ) ) ;
#939 = CYLINDRICAL_SURFACE ( 'NONE', #801, 3.249999999999964917 ) ;
#940 = EDGE_CURVE ( 'NONE', #730, #496, #66, .T. ) ;
#941 = EDGE_LOOP ( 'NONE', ( #11, #368 ) ) ;
#942 = CARTESIAN_POINT ( 'NONE',  ( -36.01682910293688167, 15.96208073434785391, 7.832105035142855102E-15 ) ) ;
#943 = CARTESIAN_POINT ( 'NONE',  ( -22.08965727662292977, -13.32864916588431292, 7.000000000000000000 ) ) ;
#944 = CARTESIAN_POINT ( 'NONE',  ( 0.02000826353020837209, -18.99998946498104146, -52.39555887140351587 ) ) ;
#945 = VECTOR ( 'NONE', #889, 1000.000000000000000 ) ;
#946 = ORIENTED_EDGE ( 'NONE', *, *, #863, .T. ) ;
#947 = LINE ( 'NONE', #557, #84 ) ;
#948 = CARTESIAN_POINT ( 'NONE',  ( -22.08965727662292977, -13.32864916588431292, -4.949747468305917941 ) ) ;
#949 = DIRECTION ( 'NONE',  ( 0.000000000000000000, 0.000000000000000000, 1.000000000000000000 ) ) ;
#950 = VERTEX_POINT ( 'NONE', #212 ) ;
#951 = SURFACE_STYLE_FILL_AREA ( #663 ) ;
#952 = CARTESIAN_POINT ( 'NONE',  ( -22.08965727662292977, -13.32864916588431292, 0.000000000000000000 ) ) ;
#953 = AXIS2_PLACEMENT_3D ( 'NONE', #463, #836, #227 ) ;
#954 = LINE ( 'NONE', #944, #332 ) ;
#955 = AXIS2_PLACEMENT_3D ( 'NONE', #613, #542, #771 ) ;
#956 = ORIENTED_EDGE ( 'NONE', *, *, #512, .F. ) ;
#957 = CARTESIAN_POINT ( 'NONE',  ( -35.98313097488600931, -16.03790152246233092, 7.000000000000000000 ) ) ;
#958 = EDGE_CURVE ( 'NONE', #496, #756, #736, .T. ) ;
#959 = DIRECTION ( 'NONE',  ( 0.000000000000000000, 0.000000000000000000, 1.000000000000000000 ) ) ;
#960 = AXIS2_PLACEMENT_3D ( 'NONE', #427, #949, #53 ) ;
#961 = COLOUR_RGB ( '',0.000000000000000000, 1.000000000000000000, 1.000000000000000000 ) ;
#962 = ORIENTED_EDGE ( 'NONE', *, *, #881, .F. ) ;
#963 = FACE_OUTER_BOUND ( 'NONE', #872, .T. ) ;
#964 = FILL_AREA_STYLE ('',( #884 ) ) ;
#965 = ORIENTED_EDGE ( 'NONE', *, *, #548, .F. ) ;
#966 = ADVANCED_FACE ( 'NONE', ( #60 ), #287, .T. ) ;
#967 =( NAMED_UNIT ( * ) PLANE_ANGLE_UNIT ( ) SI_UNIT ( $, .RADIAN. ) );
#968 = DIRECTION ( 'NONE',  ( 1.000000000000000000, 0.000000000000000000, -0.000000000000000000 ) ) ;
#969 = AXIS2_PLACEMENT_3D ( 'NONE', #536, #241, #302 ) ;
#970 = EDGE_CURVE ( 'NONE', #950, #773, #375, .T. ) ;
ENDSEC;
END-ISO-10303-21;
