ISO-10303-21;
HEADER;
FILE_DESCRIPTION (( 'STEP AP214' ),
    '1' );
FILE_NAME ('009_007_Spin_lock.STEP',
    '2024-07-21T08:27:01',
    ( '' ),
    ( '' ),
    'SwSTEP 2.0',
    'SolidWorks 2019',
    '' );
FILE_SCHEMA (( 'AUTOMOTIVE_DESIGN' ));
ENDSEC;

DATA;
#1 = ORIENTED_EDGE ( 'NONE', *, *, #498, .T. ) ;
#2 = CARTESIAN_POINT ( 'NONE',  ( -13.49999999999976907, 8.000000000000756728, 3.000000000000000000 ) ) ;
#3 = CARTESIAN_POINT ( 'NONE',  ( -13.49999999999976907, 8.000000000000756728, 7.949747468305831788 ) ) ;
#4 = ORIENTED_EDGE ( 'NONE', *, *, #786, .F. ) ;
#5 = APPLICATION_CONTEXT ( 'automotive_design' ) ;
#6 = MANIFOLD_SOLID_BREP ( 'Wytnij-wyci¹gniêcie3', #856 ) ;
#7 =( NAMED_UNIT ( * ) PLANE_ANGLE_UNIT ( ) SI_UNIT ( $, .RADIAN. ) );
#8 = ORIENTED_EDGE ( 'NONE', *, *, #1043, .F. ) ;
#9 = DIRECTION ( 'NONE',  ( 0.000000000000000000, -0.000000000000000000, -1.000000000000000000 ) ) ;
#10 = VECTOR ( 'NONE', #576, 1000.000000000000000 ) ;
#11 = CARTESIAN_POINT ( 'NONE',  ( 13.50000000000023270, -7.999999999999244160, 3.000000000000000000 ) ) ;
#12 = ORIENTED_EDGE ( 'NONE', *, *, #260, .F. ) ;
#13 =( NAMED_UNIT ( * ) SI_UNIT ( $, .STERADIAN. ) SOLID_ANGLE_UNIT ( ) );
#14 = ORIENTED_EDGE ( 'NONE', *, *, #398, .F. ) ;
#15 = DIRECTION ( 'NONE',  ( -0.000000000000000000, -0.000000000000000000, 1.000000000000000000 ) ) ;
#16 = AXIS2_PLACEMENT_3D ( 'NONE', #854, #935, #33 ) ;
#17 = EDGE_CURVE ( 'NONE', #539, #702, #452, .T. ) ;
#18 = DIRECTION ( 'NONE',  ( 0.000000000000000000, 1.000000000000000000, 0.000000000000000000 ) ) ;
#19 = EDGE_LOOP ( 'NONE', ( #745, #56 ) ) ;
#20 = ORIENTED_EDGE ( 'NONE', *, *, #224, .F. ) ;
#21 = CARTESIAN_POINT ( 'NONE',  ( 18.99999999999999645, 19.00000000000000000, -11.99999999999998224 ) ) ;
#22 = FACE_OUTER_BOUND ( 'NONE', #954, .T. ) ;
#23 = ORIENTED_EDGE ( 'NONE', *, *, #60, .T. ) ;
#24 = ORIENTED_EDGE ( 'NONE', *, *, #60, .F. ) ;
#25 = CARTESIAN_POINT ( 'NONE',  ( 10.25000000000023093, 8.000000000000756728, 0.000000000000000000 ) ) ;
#26 = CARTESIAN_POINT ( 'NONE',  ( 10.00000000000000355, -15.00000000000143707, -6.924999999996877875 ) ) ;
#27 = VERTEX_POINT ( 'NONE', #447 ) ;
#28 = ADVANCED_FACE ( 'NONE', ( #125 ), #1025, .T. ) ;
#29 = CIRCLE ( 'NONE', #794, 1.749999999999999778 ) ;
#30 = ORIENTED_EDGE ( 'NONE', *, *, #273, .T. ) ;
#31 = DIRECTION ( 'NONE',  ( -0.000000000000000000, -0.000000000000000000, 1.000000000000000000 ) ) ;
#32 = ADVANCED_FACE ( 'NONE', ( #845 ), #945, .F. ) ;
#33 = DIRECTION ( 'NONE',  ( 1.000000000000000000, 0.000000000000000000, 0.000000000000000000 ) ) ;
#34 = AXIS2_PLACEMENT_3D ( 'NONE', #593, #356, #679 ) ;
#35 = CARTESIAN_POINT ( 'NONE',  ( -19.00000000000000355, -19.00000000000000355, 3.000000000000000000 ) ) ;
#36 = ORIENTED_EDGE ( 'NONE', *, *, #1026, .T. ) ;
#37 = CARTESIAN_POINT ( 'NONE',  ( -13.49999999999976730, -7.999999999999244160, 0.000000000000000000 ) ) ;
#38 = CARTESIAN_POINT ( 'NONE',  ( -16.74999999999976907, 8.000000000000756728, 0.000000000000000000 ) ) ;
#39 = ORIENTED_EDGE ( 'NONE', *, *, #937, .T. ) ;
#40 = VERTEX_POINT ( 'NONE', #456 ) ;
#41 = PLANE ( 'NONE',  #78 ) ;
#42 = DIRECTION ( 'NONE',  ( 0.000000000000000000, 1.000000000000000000, 0.000000000000000000 ) ) ;
#43 = ADVANCED_FACE ( 'NONE', ( #548 ), #222, .F. ) ;
#44 = EDGE_LOOP ( 'NONE', ( #23, #516 ) ) ;
#45 = DIRECTION ( 'NONE',  ( 0.000000000000000000, 0.000000000000000000, -1.000000000000000000 ) ) ;
#46 = CIRCLE ( 'NONE', #440, 3.249999999999999556 ) ;
#47 = FACE_BOUND ( 'NONE', #814, .T. ) ;
#48 = EDGE_CURVE ( 'NONE', #373, #211, #862, .T. ) ;
#49 = CARTESIAN_POINT ( 'NONE',  ( 11.75000000000023270, -7.999999999999244160, 7.949747468305831788 ) ) ;
#50 = CIRCLE ( 'NONE', #311, 1.749999999999999778 ) ;
#51 = ORIENTED_EDGE ( 'NONE', *, *, #333, .F. ) ;
#52 = AXIS2_PLACEMENT_3D ( 'NONE', #884, #896, #590 ) ;
#53 = CARTESIAN_POINT ( 'NONE',  ( 18.99999999999999645, 12.25000000000019362, -6.924999999996864553 ) ) ;
#54 = CARTESIAN_POINT ( 'NONE',  ( 10.00000000000000355, -12.25000000000133582, -6.924999999996877875 ) ) ;
#55 = DIRECTION ( 'NONE',  ( 1.000000000000000000, 1.826024711554533667E-16, -0.000000000000000000 ) ) ;
#56 = ORIENTED_EDGE ( 'NONE', *, *, #330, .T. ) ;
#57 = FACE_OUTER_BOUND ( 'NONE', #266, .T. ) ;
#58 = LINE ( 'NONE', #797, #377 ) ;
#59 = DIRECTION ( 'NONE',  ( 0.000000000000000000, 0.000000000000000000, -1.000000000000000000 ) ) ;
#60 = EDGE_CURVE ( 'NONE', #96, #974, #94, .T. ) ;
#61 = DIRECTION ( 'NONE',  ( -1.000000000000000000, 0.000000000000000000, 0.000000000000000000 ) ) ;
#62 = EDGE_CURVE ( 'NONE', #887, #195, #685, .T. ) ;
#63 = LINE ( 'NONE', #21, #864 ) ;
#64 = CIRCLE ( 'NONE', #219, 3.249999999999999556 ) ;
#65 = LINE ( 'NONE', #802, #691 ) ;
#66 = CARTESIAN_POINT ( 'NONE',  ( -13.49999999999976730, -7.999999999999244160, 3.000000000000000000 ) ) ;
#67 = EDGE_CURVE ( 'NONE', #925, #836, #437, .T. ) ;
#68 = CARTESIAN_POINT ( 'NONE',  ( -11.74999999999976730, -7.999999999999244160, 3.000000000000000000 ) ) ;
#69 = CARTESIAN_POINT ( 'NONE',  ( 13.50000000000023093, 8.000000000000756728, 7.949747468305831788 ) ) ;
#70 = DIRECTION ( 'NONE',  ( -0.000000000000000000, -0.000000000000000000, -1.000000000000000000 ) ) ;
#71 = CARTESIAN_POINT ( 'NONE',  ( -13.49999999999976907, 8.000000000000756728, 7.949747468305831788 ) ) ;
#72 = CARTESIAN_POINT ( 'NONE',  ( 0.000000000000000000, -3.469446951953614189E-15, 2.000000000000000000 ) ) ;
#73 = ORIENTED_EDGE ( 'NONE', *, *, #937, .F. ) ;
#74 = STYLED_ITEM ( 'NONE', ( #952 ), #6 ) ;
#75 = DIRECTION ( 'NONE',  ( 0.000000000000000000, 1.000000000000000000, 0.000000000000000000 ) ) ;
#76 = CARTESIAN_POINT ( 'NONE',  ( 10.25000000000023270, -7.999999999999244160, -11.99999999999998224 ) ) ;
#77 = ADVANCED_FACE ( 'NONE', ( #639 ), #319, .F. ) ;
#78 = AXIS2_PLACEMENT_3D ( 'NONE', #454, #690, #375 ) ;
#79 = VERTEX_POINT ( 'NONE', #1036 ) ;
#80 = VECTOR ( 'NONE', #924, 1000.000000000000000 ) ;
#81 = ORIENTED_EDGE ( 'NONE', *, *, #816, .T. ) ;
#82 = DIRECTION ( 'NONE',  ( -1.000000000000000000, 0.000000000000000000, 0.000000000000000000 ) ) ;
#83 = CARTESIAN_POINT ( 'NONE',  ( 16.75000000000023093, -7.999999999999244160, -11.99999999999998224 ) ) ;
#84 = AXIS2_PLACEMENT_3D ( 'NONE', #385, #705, #394 ) ;
#85 = ORIENTED_EDGE ( 'NONE', *, *, #721, .T. ) ;
#86 = SHAPE_DEFINITION_REPRESENTATION ( #317, #677 ) ;
#87 = EDGE_LOOP ( 'NONE', ( #179, #110 ) ) ;
#88 = CARTESIAN_POINT ( 'NONE',  ( -19.00000000000000355, 18.99999999999999645, 3.000000000000000000 ) ) ;
#89 = DIRECTION ( 'NONE',  ( 0.000000000000000000, 1.000000000000000000, 0.000000000000000000 ) ) ;
#90 = ORIENTED_EDGE ( 'NONE', *, *, #463, .T. ) ;
#91 = ADVANCED_FACE ( 'NONE', ( #397 ), #324, .F. ) ;
#92 = CARTESIAN_POINT ( 'NONE',  ( 0.000000000000000000, -3.469446951953614189E-15, 2.000000000000000000 ) ) ;
#93 = EDGE_CURVE ( 'NONE', #408, #211, #1031, .T. ) ;
#94 = CIRCLE ( 'NONE', #673, 1.749999999999999778 ) ;
#95 = CARTESIAN_POINT ( 'NONE',  ( 11.75000000000023093, 8.000000000000756728, 0.000000000000000000 ) ) ;
#96 = VERTEX_POINT ( 'NONE', #564 ) ;
#97 = APPLICATION_PROTOCOL_DEFINITION ( 'draft international standard', 'automotive_design', 1998, #5 ) ;
#98 = VERTEX_POINT ( 'NONE', #76 ) ;
#99 = DIRECTION ( 'NONE',  ( 0.000000000000000000, 0.000000000000000000, -1.000000000000000000 ) ) ;
#100 = AXIS2_PLACEMENT_3D ( 'NONE', #277, #496, #813 ) ;
#101 = DIRECTION ( 'NONE',  ( 0.000000000000000000, 1.000000000000000000, 0.000000000000000000 ) ) ;
#102 = CIRCLE ( 'NONE', #52, 1.749999999999999778 ) ;
#103 = VERTEX_POINT ( 'NONE', #401 ) ;
#104 = ORIENTED_EDGE ( 'NONE', *, *, #785, .F. ) ;
#105 = DIRECTION ( 'NONE',  ( -0.000000000000000000, -0.000000000000000000, 1.000000000000000000 ) ) ;
#106 = DIRECTION ( 'NONE',  ( 1.000000000000000000, 1.826024711554533913E-16, 0.000000000000000000 ) ) ;
#107 = ADVANCED_FACE ( 'NONE', ( #1057 ), #634, .F. ) ;
#108 = VERTEX_POINT ( 'NONE', #159 ) ;
#109 = EDGE_CURVE ( 'NONE', #836, #658, #568, .T. ) ;
#110 = ORIENTED_EDGE ( 'NONE', *, *, #462, .T. ) ;
#111 = CARTESIAN_POINT ( 'NONE',  ( 16.75000000000023093, 8.000000000000756728, 0.000000000000000000 ) ) ;
#112 = LINE ( 'NONE', #438, #744 ) ;
#113 = AXIS2_PLACEMENT_3D ( 'NONE', #154, #793, #958 ) ;
#114 = ORIENTED_EDGE ( 'NONE', *, *, #963, .F. ) ;
#115 = EDGE_CURVE ( 'NONE', #211, #408, #1017, .T. ) ;
#116 = CIRCLE ( 'NONE', #710, 3.249999999999999556 ) ;
#117 = EDGE_LOOP ( 'NONE', ( #824, #431, #522, #689 ) ) ;
#118 = CARTESIAN_POINT ( 'NONE',  ( -13.49999999999976907, 8.000000000000756728, -1.000000000000000000 ) ) ;
#119 = DIRECTION ( 'NONE',  ( -0.000000000000000000, -0.000000000000000000, 1.000000000000000000 ) ) ;
#120 = VECTOR ( 'NONE', #231, 1000.000000000000000 ) ;
#121 = DIRECTION ( 'NONE',  ( -0.000000000000000000, -0.000000000000000000, 1.000000000000000000 ) ) ;
#122 = ORIENTED_EDGE ( 'NONE', *, *, #441, .T. ) ;
#123 = DIRECTION ( 'NONE',  ( 1.000000000000000000, 0.000000000000000000, 0.000000000000000000 ) ) ;
#124 = DIRECTION ( 'NONE',  ( -0.000000000000000000, -0.000000000000000000, -1.000000000000000000 ) ) ;
#125 = FACE_OUTER_BOUND ( 'NONE', #804, .T. ) ;
#126 = EDGE_LOOP ( 'NONE', ( #4, #550 ) ) ;
#127 = FACE_OUTER_BOUND ( 'NONE', #991, .T. ) ;
#128 = EDGE_CURVE ( 'NONE', #902, #442, #875, .T. ) ;
#129 = CARTESIAN_POINT ( 'NONE',  ( 15.25000000000023270, -7.999999999999244160, 3.000000000000000000 ) ) ;
#130 = EDGE_CURVE ( 'NONE', #626, #103, #248, .T. ) ;
#131 = ORIENTED_EDGE ( 'NONE', *, *, #416, .T. ) ;
#132 = DIRECTION ( 'NONE',  ( -0.000000000000000000, 0.000000000000000000, 1.000000000000000000 ) ) ;
#133 = AXIS2_PLACEMENT_3D ( 'NONE', #118, #31, #682 ) ;
#134 = FACE_BOUND ( 'NONE', #187, .T. ) ;
#135 = CARTESIAN_POINT ( 'NONE',  ( 13.50000000000023093, 8.000000000000756728, 3.000000000000000000 ) ) ;
#136 = VECTOR ( 'NONE', #309, 1000.000000000000000 ) ;
#137 = AXIS2_PLACEMENT_3D ( 'NONE', #270, #982, #597 ) ;
#138 = ORIENTED_EDGE ( 'NONE', *, *, #815, .T. ) ;
#139 = FACE_OUTER_BOUND ( 'NONE', #938, .T. ) ;
#140 = PLANE ( 'NONE',  #879 ) ;
#141 = ADVANCED_FACE ( 'NONE', ( #242 ), #872, .F. ) ;
#142 = EDGE_CURVE ( 'NONE', #855, #196, #981, .T. ) ;
#143 = DIRECTION ( 'NONE',  ( 1.000000000000000000, 0.000000000000000000, 0.000000000000000000 ) ) ;
#144 = CARTESIAN_POINT ( 'NONE',  ( 15.25000000000023093, 8.000000000000756728, 0.000000000000000000 ) ) ;
#145 = DIRECTION ( 'NONE',  ( -1.000000000000000000, 0.000000000000000000, 0.000000000000000000 ) ) ;
#146 = DIRECTION ( 'NONE',  ( 0.000000000000000000, -1.000000000000000000, 0.000000000000000000 ) ) ;
#147 = DIRECTION ( 'NONE',  ( -0.000000000000000000, -0.000000000000000000, 1.000000000000000000 ) ) ;
#148 = CIRCLE ( 'NONE', #253, 1.749999999999999778 ) ;
#149 = CARTESIAN_POINT ( 'NONE',  ( 13.50000000000023093, 8.000000000000756728, -11.99999999999998224 ) ) ;
#150 = AXIS2_PLACEMENT_3D ( 'NONE', #198, #451, #538 ) ;
#151 = DIRECTION ( 'NONE',  ( 1.000000000000000000, 0.000000000000000000, 0.000000000000000000 ) ) ;
#152 = AXIS2_PLACEMENT_3D ( 'NONE', #873, #555, #151 ) ;
#153 = CARTESIAN_POINT ( 'NONE',  ( -13.49999999999976730, -7.999999999999244160, 7.949747468305831788 ) ) ;
#154 = CARTESIAN_POINT ( 'NONE',  ( 19.00000000000000355, -15.00000000000143530, -6.924999999996877875 ) ) ;
#155 = VERTEX_POINT ( 'NONE', #483 ) ;
#156 = CARTESIAN_POINT ( 'NONE',  ( 19.00000000000000355, -19.00000000000000355, 3.000000000000000000 ) ) ;
#157 = CARTESIAN_POINT ( 'NONE',  ( 0.000000000000000000, -3.469446951953614189E-15, 3.000000000000000000 ) ) ;
#158 = EDGE_CURVE ( 'NONE', #1027, #887, #65, .T. ) ;
#159 = CARTESIAN_POINT ( 'NONE',  ( 9.999999999999996447, 17.74999999999960210, -6.924999999996864553 ) ) ;
#160 = ORIENTED_EDGE ( 'NONE', *, *, #1040, .T. ) ;
#161 = VECTOR ( 'NONE', #941, 1000.000000000000000 ) ;
#162 = VERTEX_POINT ( 'NONE', #654 ) ;
#163 = LINE ( 'NONE', #653, #895 ) ;
#164 = DIRECTION ( 'NONE',  ( -0.000000000000000000, -0.000000000000000000, 1.000000000000000000 ) ) ;
#165 = AXIS2_PLACEMENT_3D ( 'NONE', #92, #426, #740 ) ;
#166 = ORIENTED_EDGE ( 'NONE', *, *, #221, .F. ) ;
#167 = AXIS2_PLACEMENT_3D ( 'NONE', #71, #400, #1048 ) ;
#168 = AXIS2_PLACEMENT_3D ( 'NONE', #657, #171, #101 ) ;
#169 = ORIENTED_EDGE ( 'NONE', *, *, #672, .T. ) ;
#170 = CARTESIAN_POINT ( 'NONE',  ( 10.00000000000000355, -15.00000000000143707, -6.924999999996877875 ) ) ;
#171 = DIRECTION ( 'NONE',  ( 1.000000000000000000, 1.826024711554533667E-16, -0.000000000000000000 ) ) ;
#172 = CIRCLE ( 'NONE', #152, 1.749999999999999778 ) ;
#173 = ORIENTED_EDGE ( 'NONE', *, *, #633, .T. ) ;
#174 = EDGE_CURVE ( 'NONE', #686, #434, #931, .T. ) ;
#175 = VERTEX_POINT ( 'NONE', #886 ) ;
#176 = CYLINDRICAL_SURFACE ( 'NONE', #165, 3.000000000000000444 ) ;
#177 = CYLINDRICAL_SURFACE ( 'NONE', #168, 2.749999999999706013 ) ;
#178 = UNCERTAINTY_MEASURE_WITH_UNIT (LENGTH_MEASURE( 1.000000000000000082E-05 ), #912, 'distance_accuracy_value', 'NONE');
#179 = ORIENTED_EDGE ( 'NONE', *, *, #604, .T. ) ;
#180 = PRODUCT_CONTEXT ( 'NONE', #5, 'mechanical' ) ;
#181 = ORIENTED_EDGE ( 'NONE', *, *, #638, .T. ) ;
#182 = DIRECTION ( 'NONE',  ( -0.000000000000000000, -0.000000000000000000, -1.000000000000000000 ) ) ;
#183 = DIRECTION ( 'NONE',  ( 1.000000000000000000, 0.000000000000000000, 0.000000000000000000 ) ) ;
#184 = ORIENTED_EDGE ( 'NONE', *, *, #512, .F. ) ;
#185 = AXIS2_PLACEMENT_3D ( 'NONE', #759, #848, #360 ) ;
#186 = APPLICATION_PROTOCOL_DEFINITION ( 'draft international standard', 'automotive_design', 1998, #562 ) ;
#187 = EDGE_LOOP ( 'NONE', ( #807, #908 ) ) ;
#188 = LINE ( 'NONE', #88, #308 ) ;
#189 = AXIS2_PLACEMENT_3D ( 'NONE', #624, #214, #1009 ) ;
#190 = FACE_OUTER_BOUND ( 'NONE', #606, .T. ) ;
#191 = ORIENTED_EDGE ( 'NONE', *, *, #890, .F. ) ;
#192 = ORIENTED_EDGE ( 'NONE', *, *, #821, .T. ) ;
#193 = DIRECTION ( 'NONE',  ( 0.000000000000000000, 0.000000000000000000, -1.000000000000000000 ) ) ;
#194 = CARTESIAN_POINT ( 'NONE',  ( 16.75000000000023093, -7.999999999999244160, -1.000000000000000000 ) ) ;
#195 = VERTEX_POINT ( 'NONE', #977 ) ;
#196 = VERTEX_POINT ( 'NONE', #806 ) ;
#197 = CYLINDRICAL_SURFACE ( 'NONE', #133, 3.249999999999999556 ) ;
#198 = CARTESIAN_POINT ( 'NONE',  ( 9.999999999999996447, 14.99999999999989697, -6.924999999996864553 ) ) ;
#199 = AXIS2_PLACEMENT_3D ( 'NONE', #557, #164, #392 ) ;
#200 = AXIS2_PLACEMENT_3D ( 'NONE', #858, #132, #458 ) ;
#201 = ORIENTED_EDGE ( 'NONE', *, *, #608, .F. ) ;
#202 = LINE ( 'NONE', #450, #984 ) ;
#203 = DIRECTION ( 'NONE',  ( -1.000000000000000000, 0.000000000000000000, 0.000000000000000000 ) ) ;
#204 = CIRCLE ( 'NONE', #582, 3.250000000000002665 ) ;
#205 = ORIENTED_EDGE ( 'NONE', *, *, #48, .T. ) ;
#206 = EDGE_CURVE ( 'NONE', #103, #79, #488, .T. ) ;
#207 = ORIENTED_EDGE ( 'NONE', *, *, #868, .T. ) ;
#208 = DIRECTION ( 'NONE',  ( 1.622713204935689011E-18, 6.591949208711871889E-17, 1.000000000000000000 ) ) ;
#209 = EDGE_CURVE ( 'NONE', #787, #887, #714, .T. ) ;
#210 = FACE_OUTER_BOUND ( 'NONE', #331, .T. ) ;
#211 = VERTEX_POINT ( 'NONE', #743 ) ;
#212 = ORIENTED_EDGE ( 'NONE', *, *, #756, .T. ) ;
#213 = CARTESIAN_POINT ( 'NONE',  ( 9.999999999999996447, 12.25000000000019185, -6.924999999996864553 ) ) ;
#214 = DIRECTION ( 'NONE',  ( 1.622713204935689011E-18, 6.591949208711871889E-17, 1.000000000000000000 ) ) ;
#215 = CARTESIAN_POINT ( 'NONE',  ( 13.50000000000023093, 8.000000000000756728, -1.000000000000000000 ) ) ;
#216 =( GEOMETRIC_REPRESENTATION_CONTEXT ( 3 ) GLOBAL_UNCERTAINTY_ASSIGNED_CONTEXT ( ( #901 ) ) GLOBAL_UNIT_ASSIGNED_CONTEXT ( ( #1016, #698, #930 ) ) REPRESENTATION_CONTEXT ( 'NONE', 'WORKASPACE' ) );
#217 = VERTEX_POINT ( 'NONE', #83 ) ;
#218 = CYLINDRICAL_SURFACE ( 'NONE', #971, 3.249999999999997780 ) ;
#219 = AXIS2_PLACEMENT_3D ( 'NONE', #939, #208, #853 ) ;
#220 = CARTESIAN_POINT ( 'NONE',  ( 3.000000000000000444, -3.469446951953614189E-15, 2.000000000000000000 ) ) ;
#221 = EDGE_CURVE ( 'NONE', #412, #852, #414, .T. ) ;
#222 = PLANE ( 'NONE',  #825 ) ;
#223 = AXIS2_PLACEMENT_3D ( 'NONE', #581, #998, #749 ) ;
#224 = EDGE_CURVE ( 'NONE', #442, #902, #918, .T. ) ;
#225 = VERTEX_POINT ( 'NONE', #754 ) ;
#226 = PRESENTATION_LAYER_ASSIGNMENT (  '', '', ( #240 ) ) ;
#227 = CARTESIAN_POINT ( 'NONE',  ( -13.49999999999976907, 8.000000000000756728, -11.99999999999998224 ) ) ;
#228 = CARTESIAN_POINT ( 'NONE',  ( -13.49999999999976907, 8.000000000000756728, -1.000000000000000000 ) ) ;
#229 = DIRECTION ( 'NONE',  ( 0.000000000000000000, 1.000000000000000000, 0.000000000000000000 ) ) ;
#230 = LINE ( 'NONE', #561, #867 ) ;
#231 = DIRECTION ( 'NONE',  ( -0.000000000000000000, -0.000000000000000000, 1.000000000000000000 ) ) ;
#232 = DIRECTION ( 'NONE',  ( -0.000000000000000000, -0.000000000000000000, 1.000000000000000000 ) ) ;
#233 = AXIS2_PLACEMENT_3D ( 'NONE', #149, #1049, #479 ) ;
#234 = DIRECTION ( 'NONE',  ( 0.000000000000000000, 0.000000000000000000, 1.000000000000000000 ) ) ;
#235 = CARTESIAN_POINT ( 'NONE',  ( -13.49999999999976907, 8.000000000000756728, 0.000000000000000000 ) ) ;
#236 = DIRECTION ( 'NONE',  ( 1.000000000000000000, 1.826024711554533913E-16, 0.000000000000000000 ) ) ;
#237 = PRODUCT ( '009_007_Spin_lock', '009_007_Spin_lock', '', ( #180 ) ) ;
#238 = EDGE_CURVE ( 'NONE', #349, #335, #828, .T. ) ;
#239 = CARTESIAN_POINT ( 'NONE',  ( 19.00000000000000355, -19.00000000000000355, 3.000000000000000000 ) ) ;
#240 = STYLED_ITEM ( 'NONE', ( #336 ), #677 ) ;
#241 = DIRECTION ( 'NONE',  ( 1.000000000000000000, 1.826024711554533667E-16, -0.000000000000000000 ) ) ;
#242 = FACE_OUTER_BOUND ( 'NONE', #325, .T. ) ;
#243 = ORIENTED_EDGE ( 'NONE', *, *, #721, .F. ) ;
#244 = ORIENTED_EDGE ( 'NONE', *, *, #890, .T. ) ;
#245 = LINE ( 'NONE', #267, #629 ) ;
#246 = CARTESIAN_POINT ( 'NONE',  ( -11.74999999999976907, 8.000000000000756728, 7.949747468305831788 ) ) ;
#247 = ORIENTED_EDGE ( 'NONE', *, *, #142, .T. ) ;
#248 = CIRCLE ( 'NONE', #946, 1.749999999999999778 ) ;
#249 = ORIENTED_EDGE ( 'NONE', *, *, #128, .F. ) ;
#250 = DIRECTION ( 'NONE',  ( 1.000000000000000000, 1.826024711554533913E-16, 0.000000000000000000 ) ) ;
#251 = ADVANCED_FACE ( 'NONE', ( #22 ), #504, .F. ) ;
#252 = CARTESIAN_POINT ( 'NONE',  ( -19.00000000000000355, 18.99999999999999645, 3.000000000000000000 ) ) ;
#253 = AXIS2_PLACEMENT_3D ( 'NONE', #933, #943, #123 ) ;
#254 = ORIENTED_EDGE ( 'NONE', *, *, #703, .F. ) ;
#255 = ADVANCED_FACE ( 'NONE', ( #906 ), #177, .F. ) ;
#256 = AXIS2_PLACEMENT_3D ( 'NONE', #303, #940, #628 ) ;
#257 = DIRECTION ( 'NONE',  ( 1.000000000000000000, 0.000000000000000000, 0.000000000000000000 ) ) ;
#258 = DIRECTION ( 'NONE',  ( -0.000000000000000000, -0.000000000000000000, -1.000000000000000000 ) ) ;
#259 =( GEOMETRIC_REPRESENTATION_CONTEXT ( 3 ) GLOBAL_UNCERTAINTY_ASSIGNED_CONTEXT ( ( #558 ) ) GLOBAL_UNIT_ASSIGNED_CONTEXT ( ( #739, #7, #13 ) ) REPRESENTATION_CONTEXT ( 'NONE', 'WORKASPACE' ) );
#260 = EDGE_CURVE ( 'NONE', #626, #750, #509, .T. ) ;
#261 = ORIENTED_EDGE ( 'NONE', *, *, #498, .F. ) ;
#262 = EDGE_LOOP ( 'NONE', ( #20, #249 ) ) ;
#263 = CARTESIAN_POINT ( 'NONE',  ( 13.50000000000023270, -7.999999999999244160, 0.000000000000000000 ) ) ;
#264 = PLANE ( 'NONE',  #459 ) ;
#265 = ORIENTED_EDGE ( 'NONE', *, *, #533, .T. ) ;
#266 = EDGE_LOOP ( 'NONE', ( #247, #911 ) ) ;
#267 = CARTESIAN_POINT ( 'NONE',  ( -16.74999999999976907, 8.000000000000756728, -1.000000000000000000 ) ) ;
#268 = ADVANCED_FACE ( 'NONE', ( #732, #819 ), #264, .F. ) ;
#269 = VECTOR ( 'NONE', #315, 1000.000000000000000 ) ;
#270 = CARTESIAN_POINT ( 'NONE',  ( 0.000000000000000000, -3.469446951953614189E-15, 2.000000000000000000 ) ) ;
#271 = ORIENTED_EDGE ( 'NONE', *, *, #416, .F. ) ;
#272 = CIRCLE ( 'NONE', #861, 3.250000000000000444 ) ;
#273 = EDGE_CURVE ( 'NONE', #663, #412, #953, .T. ) ;
#274 = ORIENTED_EDGE ( 'NONE', *, *, #320, .T. ) ;
#275 = DIRECTION ( 'NONE',  ( 0.000000000000000000, -1.000000000000000000, 0.000000000000000000 ) ) ;
#276 = AXIS2_PLACEMENT_3D ( 'NONE', #910, #106, #89 ) ;
#277 = CARTESIAN_POINT ( 'NONE',  ( 10.00000000000000355, -15.00000000000143707, -6.924999999996877875 ) ) ;
#278 = VECTOR ( 'NONE', #467, 1000.000000000000000 ) ;
#279 = ORIENTED_EDGE ( 'NONE', *, *, #67, .F. ) ;
#280 = VERTEX_POINT ( 'NONE', #95 ) ;
#281 = CARTESIAN_POINT ( 'NONE',  ( -11.74999999999976730, -7.999999999999244160, 7.949747468305831788 ) ) ;
#282 = DIRECTION ( 'NONE',  ( -0.000000000000000000, -0.000000000000000000, 1.000000000000000000 ) ) ;
#283 = FILL_AREA_STYLE ('',( #936 ) ) ;
#284 = EDGE_LOOP ( 'NONE', ( #762, #81 ) ) ;
#285 = DIRECTION ( 'NONE',  ( -1.000000000000000000, 0.000000000000000000, 1.622713204935689011E-18 ) ) ;
#286 = CYLINDRICAL_SURFACE ( 'NONE', #569, 1.749999999999999778 ) ;
#287 = EDGE_CURVE ( 'NONE', #453, #155, #779, .T. ) ;
#288 = VECTOR ( 'NONE', #55, 1000.000000000000000 ) ;
#289 = EDGE_LOOP ( 'NONE', ( #535, #1032, #243, #184 ) ) ;
#290 = ADVANCED_FACE ( 'NONE', ( #423 ), #917, .F. ) ;
#291 = ORIENTED_EDGE ( 'NONE', *, *, #221, .T. ) ;
#292 = CARTESIAN_POINT ( 'NONE',  ( -10.24999999999976907, 8.000000000000756728, 0.000000000000000000 ) ) ;
#293 = CYLINDRICAL_SURFACE ( 'NONE', #796, 1.749999999999999778 ) ;
#294 = AXIS2_PLACEMENT_3D ( 'NONE', #228, #147, #391 ) ;
#295 = ORIENTED_EDGE ( 'NONE', *, *, #287, .F. ) ;
#296 = VECTOR ( 'NONE', #470, 1000.000000000000000 ) ;
#297 = EDGE_LOOP ( 'NONE', ( #738, #680 ) ) ;
#298 = DIRECTION ( 'NONE',  ( -0.000000000000000000, -0.000000000000000000, -1.000000000000000000 ) ) ;
#299 = CARTESIAN_POINT ( 'NONE',  ( 13.50000000000023270, -7.999999999999244160, 7.949747468305831788 ) ) ;
#300 = ADVANCED_FACE ( 'NONE', ( #347, #190 ), #666, .F. ) ;
#301 = ORIENTED_EDGE ( 'NONE', *, *, #62, .T. ) ;
#302 = CARTESIAN_POINT ( 'NONE',  ( 15.25000000000023093, 8.000000000000756728, 3.000000000000000000 ) ) ;
#303 = CARTESIAN_POINT ( 'NONE',  ( 9.999999999999996447, 14.99999999999989697, -6.924999999996864553 ) ) ;
#304 = ORIENTED_EDGE ( 'NONE', *, *, #174, .F. ) ;
#305 = PRESENTATION_LAYER_ASSIGNMENT (  '', '', ( #74 ) ) ;
#306 = ORIENTED_EDGE ( 'NONE', *, *, #635, .F. ) ;
#307 = DIRECTION ( 'NONE',  ( -0.000000000000000000, -0.000000000000000000, -1.000000000000000000 ) ) ;
#308 = VECTOR ( 'NONE', #182, 1000.000000000000000 ) ;
#309 = DIRECTION ( 'NONE',  ( -0.000000000000000000, -0.000000000000000000, 1.000000000000000000 ) ) ;
#310 = CARTESIAN_POINT ( 'NONE',  ( -13.49999999999976730, -7.999999999999244160, -1.000000000000000000 ) ) ;
#311 = AXIS2_PLACEMENT_3D ( 'NONE', #701, #619, #696 ) ;
#312 = CIRCLE ( 'NONE', #137, 3.000000000000000444 ) ;
#313 = DIRECTION ( 'NONE',  ( 1.000000000000000000, 1.826024711554533913E-16, 0.000000000000000000 ) ) ;
#314 = DIRECTION ( 'NONE',  ( -1.000000000000000000, 0.000000000000000000, 0.000000000000000000 ) ) ;
#315 = DIRECTION ( 'NONE',  ( -0.000000000000000000, -1.000000000000000000, 6.591949208711871889E-17 ) ) ;
#316 = DIRECTION ( 'NONE',  ( 1.000000000000000000, 0.000000000000000000, 0.000000000000000000 ) ) ;
#317 = PRODUCT_DEFINITION_SHAPE ( 'NONE', 'NONE',  #706 ) ;
#318 = FACE_OUTER_BOUND ( 'NONE', #117, .T. ) ;
#319 = CYLINDRICAL_SURFACE ( 'NONE', #999, 1.749999999999999778 ) ;
#320 = EDGE_CURVE ( 'NONE', #539, #349, #764, .T. ) ;
#321 = EDGE_CURVE ( 'NONE', #434, #686, #312, .T. ) ;
#322 = CARTESIAN_POINT ( 'NONE',  ( -13.49999999999976730, -7.999999999999244160, 7.949747468305831788 ) ) ;
#323 = DIRECTION ( 'NONE',  ( 0.000000000000000000, 0.000000000000000000, -1.000000000000000000 ) ) ;
#324 = CYLINDRICAL_SURFACE ( 'NONE', #490, 3.250000000000002665 ) ;
#325 = EDGE_LOOP ( 'NONE', ( #758, #907, #1022, #835 ) ) ;
#326 = VERTEX_POINT ( 'NONE', #1004 ) ;
#327 = LINE ( 'NONE', #800, #136 ) ;
#328 = DIRECTION ( 'NONE',  ( -1.000000000000000000, 0.000000000000000000, 0.000000000000000000 ) ) ;
#329 = ORIENTED_EDGE ( 'NONE', *, *, #589, .F. ) ;
#330 = EDGE_CURVE ( 'NONE', #225, #373, #536, .T. ) ;
#331 = EDGE_LOOP ( 'NONE', ( #420, #352, #543, #244 ) ) ;
#332 = PLANE ( 'NONE',  #678 ) ;
#333 = EDGE_CURVE ( 'NONE', #484, #1027, #737, .T. ) ;
#334 = DIRECTION ( 'NONE',  ( -0.000000000000000000, 0.000000000000000000, 1.000000000000000000 ) ) ;
#335 = VERTEX_POINT ( 'NONE', #688 ) ;
#336 = PRESENTATION_STYLE_ASSIGNMENT (( #809 ) ) ;
#337 = AXIS2_PLACEMENT_3D ( 'NONE', #790, #59, #145 ) ;
#338 = ORIENTED_EDGE ( 'NONE', *, *, #444, .F. ) ;
#339 = DIRECTION ( 'NONE',  ( 0.000000000000000000, 0.000000000000000000, -1.000000000000000000 ) ) ;
#340 = PRODUCT_DEFINITION_CONTEXT ( 'detailed design', #562, 'design' ) ;
#341 = AXIS2_PLACEMENT_3D ( 'NONE', #987, #514, #519 ) ;
#342 = ORIENTED_EDGE ( 'NONE', *, *, #676, .F. ) ;
#343 = CARTESIAN_POINT ( 'NONE',  ( 0.000000000000000000, 0.000000000000000000, 0.000000000000000000 ) ) ;
#344 = VECTOR ( 'NONE', #989, 1000.000000000000000 ) ;
#345 = ORIENTED_EDGE ( 'NONE', *, *, #868, .F. ) ;
#346 = FACE_OUTER_BOUND ( 'NONE', #598, .T. ) ;
#347 = FACE_BOUND ( 'NONE', #126, .T. ) ;
#348 = EDGE_LOOP ( 'NONE', ( #85, #735, #724, #8 ) ) ;
#349 = VERTEX_POINT ( 'NONE', #129 ) ;
#350 = FACE_OUTER_BOUND ( 'NONE', #348, .T. ) ;
#351 = DIRECTION ( 'NONE',  ( 0.000000000000000000, -0.000000000000000000, -1.000000000000000000 ) ) ;
#352 = ORIENTED_EDGE ( 'NONE', *, *, #1043, .T. ) ;
#353 = ORIENTED_EDGE ( 'NONE', *, *, #287, .T. ) ;
#354 = DIRECTION ( 'NONE',  ( 0.000000000000000000, -0.000000000000000000, -1.000000000000000000 ) ) ;
#355 = AXIS2_PLACEMENT_3D ( 'NONE', #876, #717, #472 ) ;
#356 = DIRECTION ( 'NONE',  ( -0.000000000000000000, 0.000000000000000000, 1.000000000000000000 ) ) ;
#357 = EDGE_LOOP ( 'NONE', ( #1011, #301, #733, #191 ) ) ;
#358 = VECTOR ( 'NONE', #631, 1000.000000000000000 ) ;
#359 = ORIENTED_EDGE ( 'NONE', *, *, #816, .F. ) ;
#360 = DIRECTION ( 'NONE',  ( -1.000000000000000000, 0.000000000000000000, 0.000000000000000000 ) ) ;
#361 = FACE_OUTER_BOUND ( 'NONE', #699, .T. ) ;
#362 = VECTOR ( 'NONE', #307, 1000.000000000000000 ) ;
#363 = DIRECTION ( 'NONE',  ( 1.000000000000000000, 0.000000000000000000, 0.000000000000000000 ) ) ;
#364 = VERTEX_POINT ( 'NONE', #850 ) ;
#365 = DIRECTION ( 'NONE',  ( 1.622713204935689011E-18, 6.591949208711871889E-17, 1.000000000000000000 ) ) ;
#366 = ADVANCED_FACE ( 'NONE', ( #684 ), #293, .F. ) ;
#367 = CARTESIAN_POINT ( 'NONE',  ( 13.50000000000023093, 8.000000000000756728, 0.000000000000000000 ) ) ;
#368 = ADVANCED_FACE ( 'NONE', ( #783 ), #859, .F. ) ;
#369 = CARTESIAN_POINT ( 'NONE',  ( 10.00000000000000355, -12.25000000000133582, -6.924999999996877875 ) ) ;
#370 = ORIENTED_EDGE ( 'NONE', *, *, #273, .F. ) ;
#371 = DIRECTION ( 'NONE',  ( 0.000000000000000000, -0.000000000000000000, -1.000000000000000000 ) ) ;
#372 = CARTESIAN_POINT ( 'NONE',  ( 13.50000000000023093, 8.000000000000756728, 7.949747468305831788 ) ) ;
#373 = VERTEX_POINT ( 'NONE', #54 ) ;
#374 = ORIENTED_EDGE ( 'NONE', *, *, #224, .T. ) ;
#375 = DIRECTION ( 'NONE',  ( 1.955281358257164222E-16, -1.000000000000000000, 6.591949208711871889E-17 ) ) ;
#376 = LINE ( 'NONE', #194, #617 ) ;
#377 = VECTOR ( 'NONE', #471, 1000.000000000000000 ) ;
#378 = ORIENTED_EDGE ( 'NONE', *, *, #260, .T. ) ;
#379 = ADVANCED_FACE ( 'NONE', ( #944, #134, #761, #47, #460, #210 ), #546, .T. ) ;
#380 = ORIENTED_EDGE ( 'NONE', *, *, #115, .T. ) ;
#381 = DIRECTION ( 'NONE',  ( 1.000000000000000000, 1.826024711554533667E-16, -0.000000000000000000 ) ) ;
#382 = DIRECTION ( 'NONE',  ( -0.000000000000000000, -0.000000000000000000, 1.000000000000000000 ) ) ;
#383 = DIRECTION ( 'NONE',  ( 0.000000000000000000, -0.000000000000000000, -1.000000000000000000 ) ) ;
#384 = ORIENTED_EDGE ( 'NONE', *, *, #815, .F. ) ;
#385 = CARTESIAN_POINT ( 'NONE',  ( -13.49999999999976907, 8.000000000000756728, 0.000000000000000000 ) ) ;
#386 = DIRECTION ( 'NONE',  ( 1.000000000000000000, 0.000000000000000000, 0.000000000000000000 ) ) ;
#387 = CARTESIAN_POINT ( 'NONE',  ( 19.00000000000000355, -15.00000000000143530, -6.924999999996877875 ) ) ;
#388 = AXIS2_PLACEMENT_3D ( 'NONE', #1046, #961, #229 ) ;
#389 = CARTESIAN_POINT ( 'NONE',  ( -19.00000000000000355, -19.00000000000000355, -11.99999999999998224 ) ) ;
#390 = CIRCLE ( 'NONE', #185, 1.749999999999999778 ) ;
#391 = DIRECTION ( 'NONE',  ( 1.000000000000000000, 0.000000000000000000, 0.000000000000000000 ) ) ;
#392 = DIRECTION ( 'NONE',  ( 1.000000000000000000, 0.000000000000000000, 0.000000000000000000 ) ) ;
#393 = AXIS2_PLACEMENT_3D ( 'NONE', #1039, #969, #478 ) ;
#394 = DIRECTION ( 'NONE',  ( -1.000000000000000000, 0.000000000000000000, 0.000000000000000000 ) ) ;
#395 = CYLINDRICAL_SURFACE ( 'NONE', #294, 3.249999999999999556 ) ;
#396 = ADVANCED_FACE ( 'NONE', ( #361 ), #286, .F. ) ;
#397 = FACE_OUTER_BOUND ( 'NONE', #510, .T. ) ;
#398 = EDGE_CURVE ( 'NONE', #217, #162, #376, .T. ) ;
#399 = DIRECTION ( 'NONE',  ( -0.000000000000000000, -0.000000000000000000, 1.000000000000000000 ) ) ;
#400 = DIRECTION ( 'NONE',  ( -0.000000000000000000, -0.000000000000000000, -1.000000000000000000 ) ) ;
#401 = CARTESIAN_POINT ( 'NONE',  ( -11.74999999999976907, 8.000000000000756728, 3.000000000000000000 ) ) ;
#402 = ORIENTED_EDGE ( 'NONE', *, *, #398, .T. ) ;
#403 = DIRECTION ( 'NONE',  ( 1.000000000000000000, 0.000000000000000000, 0.000000000000000000 ) ) ;
#404 = ORIENTED_EDGE ( 'NONE', *, *, #62, .F. ) ;
#405 = CYLINDRICAL_SURFACE ( 'NONE', #728, 1.749999999999999778 ) ;
#406 = VECTOR ( 'NONE', #992, 1000.000000000000000 ) ;
#407 = DIRECTION ( 'NONE',  ( 0.000000000000000000, 1.000000000000000000, 0.000000000000000000 ) ) ;
#408 = VERTEX_POINT ( 'NONE', #692 ) ;
#409 = ADVANCED_FACE ( 'NONE', ( #928 ), #1020, .F. ) ;
#410 = EDGE_CURVE ( 'NONE', #780, #108, #1037, .T. ) ;
#411 = AXIS2_PLACEMENT_3D ( 'NONE', #481, #234, #718 ) ;
#412 = VERTEX_POINT ( 'NONE', #838 ) ;
#413 = LINE ( 'NONE', #665, #494 ) ;
#414 = LINE ( 'NONE', #433, #547 ) ;
#415 = EDGE_LOOP ( 'NONE', ( #932, #279, #39, #583 ) ) ;
#416 = EDGE_CURVE ( 'NONE', #577, #280, #50, .T. ) ;
#417 = ORIENTED_EDGE ( 'NONE', *, *, #238, .T. ) ;
#418 = CARTESIAN_POINT ( 'NONE',  ( 10.00000000000000355, -17.75000000000153833, -6.924999999996877875 ) ) ;
#419 = CARTESIAN_POINT ( 'NONE',  ( 0.000000000000000000, 0.000000000000000000, 0.000000000000000000 ) ) ;
#420 = ORIENTED_EDGE ( 'NONE', *, *, #512, .T. ) ;
#421 = SURFACE_SIDE_STYLE ('',( #584 ) ) ;
#422 = LINE ( 'NONE', #493, #1050 ) ;
#423 = FACE_OUTER_BOUND ( 'NONE', #449, .T. ) ;
#424 = EDGE_LOOP ( 'NONE', ( #1051, #983, #131, #430 ) ) ;
#425 = AXIS2_PLACEMENT_3D ( 'NONE', #541, #119, #445 ) ;
#426 = DIRECTION ( 'NONE',  ( -0.000000000000000000, -0.000000000000000000, 1.000000000000000000 ) ) ;
#427 = AXIS2_PLACEMENT_3D ( 'NONE', #571, #313, #551 ) ;
#428 = EDGE_CURVE ( 'NONE', #594, #27, #694, .T. ) ;
#429 = DIRECTION ( 'NONE',  ( 1.622713204935689011E-18, 6.591949208711871889E-17, 1.000000000000000000 ) ) ;
#430 = ORIENTED_EDGE ( 'NONE', *, *, #1040, .F. ) ;
#431 = ORIENTED_EDGE ( 'NONE', *, *, #635, .T. ) ;
#432 = DIRECTION ( 'NONE',  ( 1.000000000000000000, 1.826024711554533913E-16, 0.000000000000000000 ) ) ;
#433 = CARTESIAN_POINT ( 'NONE',  ( -10.24999999999976907, 8.000000000000756728, -1.000000000000000000 ) ) ;
#434 = VERTEX_POINT ( 'NONE', #1029 ) ;
#435 = ORIENTED_EDGE ( 'NONE', *, *, #206, .F. ) ;
#436 = DIRECTION ( 'NONE',  ( -1.000000000000000000, 0.000000000000000000, 0.000000000000000000 ) ) ;
#437 = CIRCLE ( 'NONE', #233, 3.250000000000000444 ) ;
#438 = CARTESIAN_POINT ( 'NONE',  ( -16.74999999999976907, -7.999999999999244160, -1.000000000000000000 ) ) ;
#439 = ORIENTED_EDGE ( 'NONE', *, *, #1052, .T. ) ;
#440 = AXIS2_PLACEMENT_3D ( 'NONE', #916, #669, #659 ) ;
#441 = EDGE_CURVE ( 'NONE', #108, #780, #899, .T. ) ;
#442 = VERTEX_POINT ( 'NONE', #531 ) ;
#443 = CARTESIAN_POINT ( 'NONE',  ( -19.00000000000000355, 18.99999999999999645, -11.99999999999998224 ) ) ;
#444 = EDGE_CURVE ( 'NONE', #594, #196, #112, .T. ) ;
#445 = DIRECTION ( 'NONE',  ( 1.000000000000000000, 0.000000000000000000, 0.000000000000000000 ) ) ;
#446 = CIRCLE ( 'NONE', #746, 3.250000000000000444 ) ;
#447 = CARTESIAN_POINT ( 'NONE',  ( -10.24999999999976374, -7.999999999999244160, -11.99999999999998224 ) ) ;
#448 = ADVANCED_FACE ( 'NONE', ( #609 ), #844, .F. ) ;
#449 = EDGE_LOOP ( 'NONE', ( #306, #904, #205, #380 ) ) ;
#450 = CARTESIAN_POINT ( 'NONE',  ( -19.00000000000000355, 18.99999999999999645, -11.99999999999998224 ) ) ;
#451 = DIRECTION ( 'NONE',  ( 1.000000000000000000, 1.826024711554533667E-16, -0.000000000000000000 ) ) ;
#452 = LINE ( 'NONE', #49, #161 ) ;
#453 = VERTEX_POINT ( 'NONE', #767 ) ;
#454 = CARTESIAN_POINT ( 'NONE',  ( -1.383770679165254563E-14, 26.30000000000002558, -11.99999999999998224 ) ) ;
#455 = DIRECTION ( 'NONE',  ( -1.000000000000000000, 0.000000000000000000, 0.000000000000000000 ) ) ;
#456 = CARTESIAN_POINT ( 'NONE',  ( 3.000000000000000444, -3.469446951953614189E-15, 3.000000000000000000 ) ) ;
#457 = VERTEX_POINT ( 'NONE', #38 ) ;
#458 = DIRECTION ( 'NONE',  ( 1.000000000000000000, 0.000000000000000000, 0.000000000000000000 ) ) ;
#459 = AXIS2_PLACEMENT_3D ( 'NONE', #419, #334, #183 ) ;
#460 = FACE_BOUND ( 'NONE', #655, .T. ) ;
#461 = AXIS2_PLACEMENT_3D ( 'NONE', #641, #241, #75 ) ;
#462 = EDGE_CURVE ( 'NONE', #658, #774, #1054, .T. ) ;
#463 = EDGE_CURVE ( 'NONE', #175, #162, #781, .T. ) ;
#464 = EDGE_LOOP ( 'NONE', ( #342, #1012, #402, #897 ) ) ;
#465 =( GEOMETRIC_REPRESENTATION_CONTEXT ( 3 ) GLOBAL_UNCERTAINTY_ASSIGNED_CONTEXT ( ( #178 ) ) GLOBAL_UNIT_ASSIGNED_CONTEXT ( ( #912, #506, #903 ) ) REPRESENTATION_CONTEXT ( 'NONE', 'WORKASPACE' ) );
#466 = ORIENTED_EDGE ( 'NONE', *, *, #603, .T. ) ;
#467 = DIRECTION ( 'NONE',  ( -0.000000000000000000, -0.000000000000000000, -1.000000000000000000 ) ) ;
#468 = FACE_OUTER_BOUND ( 'NONE', #668, .T. ) ;
#469 = CARTESIAN_POINT ( 'NONE',  ( 0.000000000000000000, -3.469446951953614189E-15, 2.000000000000000000 ) ) ;
#470 = DIRECTION ( 'NONE',  ( -0.000000000000000000, -0.000000000000000000, -1.000000000000000000 ) ) ;
#471 = DIRECTION ( 'NONE',  ( -1.826024711554533913E-16, 1.000000000000000000, -0.000000000000000000 ) ) ;
#472 = DIRECTION ( 'NONE',  ( 1.000000000000000000, 0.000000000000000000, 0.000000000000000000 ) ) ;
#473 = AXIS2_PLACEMENT_3D ( 'NONE', #72, #720, #646 ) ;
#474 = EDGE_CURVE ( 'NONE', #27, #594, #204, .T. ) ;
#475 = LINE ( 'NONE', #1044, #697 ) ;
#476 = AXIS2_PLACEMENT_3D ( 'NONE', #753, #339, #575 ) ;
#477 = ADVANCED_FACE ( 'NONE', ( #1056 ), #395, .F. ) ;
#478 = DIRECTION ( 'NONE',  ( 1.826024711554533913E-16, -1.000000000000000000, 0.000000000000000000 ) ) ;
#479 = DIRECTION ( 'NONE',  ( 0.000000000000000000, -1.000000000000000000, 0.000000000000000000 ) ) ;
#480 = AXIS2_PLACEMENT_3D ( 'NONE', #372, #776, #1024 ) ;
#481 = CARTESIAN_POINT ( 'NONE',  ( 0.000000000000000000, -3.469446951953614189E-15, 3.000000000000000000 ) ) ;
#482 = DIRECTION ( 'NONE',  ( -0.000000000000000000, -0.000000000000000000, -1.000000000000000000 ) ) ;
#483 = CARTESIAN_POINT ( 'NONE',  ( -11.74999999999976730, -7.999999999999244160, 0.000000000000000000 ) ) ;
#484 = VERTEX_POINT ( 'NONE', #713 ) ;
#485 = LINE ( 'NONE', #799, #1041 ) ;
#486 = DIRECTION ( 'NONE',  ( -0.000000000000000000, 0.000000000000000000, -1.000000000000000000 ) ) ;
#487 = EDGE_CURVE ( 'NONE', #434, #40, #792, .T. ) ;
#488 = LINE ( 'NONE', #246, #10 ) ;
#489 = ORIENTED_EDGE ( 'NONE', *, *, #703, .T. ) ;
#490 = AXIS2_PLACEMENT_3D ( 'NONE', #310, #232, #798 ) ;
#491 = FILL_AREA_STYLE ('',( #985 ) ) ;
#492 = ORIENTED_EDGE ( 'NONE', *, *, #320, .F. ) ;
#493 = CARTESIAN_POINT ( 'NONE',  ( 9.999999999999996447, 12.25000000000019185, -6.924999999996864553 ) ) ;
#494 = VECTOR ( 'NONE', #748, 1000.000000000000000 ) ;
#495 = ADVANCED_FACE ( 'NONE', ( #468 ), #140, .F. ) ;
#496 = DIRECTION ( 'NONE',  ( 1.000000000000000000, 1.826024711554533913E-16, 0.000000000000000000 ) ) ;
#497 = ADVANCED_FACE ( 'NONE', ( #885, #637, #866 ), #719, .F. ) ;
#498 = EDGE_CURVE ( 'NONE', #457, #852, #712, .T. ) ;
#499 = ORIENTED_EDGE ( 'NONE', *, *, #603, .F. ) ;
#500 = AXIS2_PLACEMENT_3D ( 'NONE', #834, #429, #900 ) ;
#501 = AXIS2_PLACEMENT_3D ( 'NONE', #343, #511, #403 ) ;
#502 = ORIENTED_EDGE ( 'NONE', *, *, #410, .F. ) ;
#503 = DIRECTION ( 'NONE',  ( -1.826024711554533913E-16, 1.000000000000000000, 0.000000000000000000 ) ) ;
#504 = CYLINDRICAL_SURFACE ( 'NONE', #812, 1.749999999999999778 ) ;
#505 = ORIENTED_EDGE ( 'NONE', *, *, #209, .T. ) ;
#506 =( NAMED_UNIT ( * ) PLANE_ANGLE_UNIT ( ) SI_UNIT ( $, .RADIAN. ) );
#507 = EDGE_LOOP ( 'NONE', ( #499, #810, #722, #374 ) ) ;
#508 = DIRECTION ( 'NONE',  ( -0.000000000000000000, -0.000000000000000000, 1.000000000000000000 ) ) ;
#509 = LINE ( 'NONE', #520, #599 ) ;
#510 = EDGE_LOOP ( 'NONE', ( #338, #616, #169, #104 ) ) ;
#511 = DIRECTION ( 'NONE',  ( 0.000000000000000000, 0.000000000000000000, 1.000000000000000000 ) ) ;
#512 = EDGE_CURVE ( 'NONE', #990, #526, #58, .T. ) ;
#513 = VERTEX_POINT ( 'NONE', #68 ) ;
#514 = DIRECTION ( 'NONE',  ( -0.000000000000000000, -0.000000000000000000, 1.000000000000000000 ) ) ;
#515 = DIRECTION ( 'NONE',  ( -0.000000000000000000, -0.000000000000000000, 1.000000000000000000 ) ) ;
#516 = ORIENTED_EDGE ( 'NONE', *, *, #772, .T. ) ;
#517 = AXIS2_PLACEMENT_3D ( 'NONE', #524, #771, #42 ) ;
#518 = ORIENTED_EDGE ( 'NONE', *, *, #633, .F. ) ;
#519 = DIRECTION ( 'NONE',  ( 1.000000000000000000, 0.000000000000000000, 0.000000000000000000 ) ) ;
#520 = CARTESIAN_POINT ( 'NONE',  ( -15.24999999999976907, 8.000000000000756728, 7.949747468305831788 ) ) ;
#521 = ORIENTED_EDGE ( 'NONE', *, *, #487, .T. ) ;
#522 = ORIENTED_EDGE ( 'NONE', *, *, #93, .T. ) ;
#523 = DIRECTION ( 'NONE',  ( 0.000000000000000000, -1.000000000000000000, 0.000000000000000000 ) ) ;
#524 = CARTESIAN_POINT ( 'NONE',  ( 9.999999999999996447, 14.99999999999989697, -6.924999999996864553 ) ) ;
#525 = EDGE_CURVE ( 'NONE', #40, #364, #968, .T. ) ;
#526 = VERTEX_POINT ( 'NONE', #632 ) ;
#527 = ADVANCED_FACE ( 'NONE', ( #318 ), #707, .F. ) ;
#528 = ORIENTED_EDGE ( 'NONE', *, *, #130, .F. ) ;
#529 = FACE_BOUND ( 'NONE', #730, .T. ) ;
#530 = COLOUR_RGB ( '',1.000000000000000000, 0.5019607843137254832, 0.000000000000000000 ) ;
#531 = CARTESIAN_POINT ( 'NONE',  ( 18.99999999999999645, 17.74999999999960565, -6.924999999996864553 ) ) ;
#532 = ORIENTED_EDGE ( 'NONE', *, *, #109, .T. ) ;
#533 = EDGE_CURVE ( 'NONE', #79, #750, #919, .T. ) ;
#534 = AXIS2_PLACEMENT_3D ( 'NONE', #263, #99, #82 ) ;
#535 = ORIENTED_EDGE ( 'NONE', *, *, #980, .T. ) ;
#536 = CIRCLE ( 'NONE', #100, 2.750000000000101252 ) ;
#537 = FACE_BOUND ( 'NONE', #284, .T. ) ;
#538 = DIRECTION ( 'NONE',  ( 0.000000000000000000, 1.000000000000000000, 0.000000000000000000 ) ) ;
#539 = VERTEX_POINT ( 'NONE', #552 ) ;
#540 = CARTESIAN_POINT ( 'NONE',  ( 10.25000000000023093, 8.000000000000756728, -11.99999999999998224 ) ) ;
#541 = CARTESIAN_POINT ( 'NONE',  ( 0.000000000000000000, -3.469446951953614189E-15, 2.000000000000000000 ) ) ;
#542 = DIRECTION ( 'NONE',  ( 1.000000000000000000, 0.000000000000000000, -0.000000000000000000 ) ) ;
#543 = ORIENTED_EDGE ( 'NONE', *, *, #333, .T. ) ;
#544 = PLANE ( 'NONE',  #200 ) ;
#545 = ADVANCED_FACE ( 'NONE', ( #1034 ), #405, .F. ) ;
#546 = PLANE ( 'NONE',  #16 ) ;
#547 = VECTOR ( 'NONE', #515, 1000.000000000000000 ) ;
#548 = FACE_OUTER_BOUND ( 'NONE', #357, .T. ) ;
#549 = CIRCLE ( 'NONE', #723, 1.749999999999999778 ) ;
#550 = ORIENTED_EDGE ( 'NONE', *, *, #533, .F. ) ;
#551 = DIRECTION ( 'NONE',  ( -1.826024711554533913E-16, 1.000000000000000000, 0.000000000000000000 ) ) ;
#552 = CARTESIAN_POINT ( 'NONE',  ( 11.75000000000023270, -7.999999999999244160, 3.000000000000000000 ) ) ;
#553 = DIRECTION ( 'NONE',  ( 0.000000000000000000, -0.000000000000000000, 1.000000000000000000 ) ) ;
#554 = COLOUR_RGB ( '',1.000000000000000000, 0.5019607843137254832, 0.000000000000000000 ) ;
#555 = DIRECTION ( 'NONE',  ( 0.000000000000000000, -0.000000000000000000, -1.000000000000000000 ) ) ;
#556 = FACE_OUTER_BOUND ( 'NONE', #570, .T. ) ;
#557 = CARTESIAN_POINT ( 'NONE',  ( -13.49999999999976730, -7.999999999999244160, -1.000000000000000000 ) ) ;
#558 = UNCERTAINTY_MEASURE_WITH_UNIT (LENGTH_MEASURE( 1.000000000000000082E-05 ), #739, 'distance_accuracy_value', 'NONE');
#559 = EDGE_CURVE ( 'NONE', #686, #364, #327, .T. ) ;
#560 = ADVANCED_FACE ( 'NONE', ( #556 ), #950, .F. ) ;
#561 = CARTESIAN_POINT ( 'NONE',  ( 16.75000000000023093, 8.000000000000756728, -1.000000000000000000 ) ) ;
#562 = APPLICATION_CONTEXT ( 'automotive_design' ) ;
#563 = CARTESIAN_POINT ( 'NONE',  ( -19.00000000000000355, 18.99999999999999645, 3.000000000000000000 ) ) ;
#564 = CARTESIAN_POINT ( 'NONE',  ( 11.75000000000023093, 8.000000000000756728, 3.000000000000000000 ) ) ;
#565 = MECHANICAL_DESIGN_GEOMETRIC_PRESENTATION_REPRESENTATION (  '', ( #74 ), #216 ) ;
#566 = DIRECTION ( 'NONE',  ( -1.000000000000000000, -0.000000000000000000, -0.000000000000000000 ) ) ;
#567 = DIRECTION ( 'NONE',  ( 0.000000000000000000, 0.000000000000000000, -1.000000000000000000 ) ) ;
#568 = LINE ( 'NONE', #709, #757 ) ;
#569 = AXIS2_PLACEMENT_3D ( 'NONE', #299, #613, #203 ) ;
#570 = EDGE_LOOP ( 'NONE', ( #830, #671, #265, #12 ) ) ;
#571 = CARTESIAN_POINT ( 'NONE',  ( 10.00000000000000355, -15.00000000000143707, -6.924999999996877875 ) ) ;
#572 = DIRECTION ( 'NONE',  ( -1.000000000000000000, 0.000000000000000000, 0.000000000000000000 ) ) ;
#573 = DIRECTION ( 'NONE',  ( -0.000000000000000000, -0.000000000000000000, -1.000000000000000000 ) ) ;
#574 = ORIENTED_EDGE ( 'NONE', *, *, #174, .T. ) ;
#575 = DIRECTION ( 'NONE',  ( -1.000000000000000000, 0.000000000000000000, 0.000000000000000000 ) ) ;
#576 = DIRECTION ( 'NONE',  ( -0.000000000000000000, -0.000000000000000000, -1.000000000000000000 ) ) ;
#577 = VERTEX_POINT ( 'NONE', #144 ) ;
#578 = VECTOR ( 'NONE', #892, 1000.000000000000000 ) ;
#579 = CARTESIAN_POINT ( 'NONE',  ( -16.74999999999976907, -7.999999999999244160, -11.99999999999998224 ) ) ;
#580 = CIRCLE ( 'NONE', #534, 1.749999999999999778 ) ;
#581 = CARTESIAN_POINT ( 'NONE',  ( -13.49999999999976730, -7.999999999999244160, 0.000000000000000000 ) ) ;
#582 = AXIS2_PLACEMENT_3D ( 'NONE', #871, #1045, #965 ) ;
#583 = ORIENTED_EDGE ( 'NONE', *, *, #462, .F. ) ;
#584 = SURFACE_STYLE_FILL_AREA ( #491 ) ;
#585 = EDGE_LOOP ( 'NONE', ( #36, #30 ) ) ;
#586 = LINE ( 'NONE', #418, #406 ) ;
#587 = CARTESIAN_POINT ( 'NONE',  ( 15.25000000000023270, -7.999999999999244160, 7.949747468305831788 ) ) ;
#588 = ORIENTED_EDGE ( 'NONE', *, *, #995, .F. ) ;
#589 = EDGE_CURVE ( 'NONE', #195, #847, #63, .T. ) ;
#590 = DIRECTION ( 'NONE',  ( -1.000000000000000000, 0.000000000000000000, 0.000000000000000000 ) ) ;
#591 = EDGE_CURVE ( 'NONE', #663, #457, #245, .T. ) ;
#592 = CARTESIAN_POINT ( 'NONE',  ( 11.75000000000023270, -7.999999999999244160, 0.000000000000000000 ) ) ;
#593 = CARTESIAN_POINT ( 'NONE',  ( 0.000000000000000000, 0.000000000000000000, 0.000000000000000000 ) ) ;
#594 = VERTEX_POINT ( 'NONE', #579 ) ;
#595 = CARTESIAN_POINT ( 'NONE',  ( -15.24999999999976907, 8.000000000000756728, 3.000000000000000000 ) ) ;
#596 = CIRCLE ( 'NONE', #476, 1.749999999999999778 ) ;
#597 = DIRECTION ( 'NONE',  ( 1.000000000000000000, 0.000000000000000000, 0.000000000000000000 ) ) ;
#598 = EDGE_LOOP ( 'NONE', ( #1007, #704, #345, #14 ) ) ;
#599 = VECTOR ( 'NONE', #823, 1000.000000000000000 ) ;
#600 = AXIS2_PLACEMENT_3D ( 'NONE', #235, #567, #880 ) ;
#601 = ORIENTED_EDGE ( 'NONE', *, *, #17, .F. ) ;
#602 = CARTESIAN_POINT ( 'NONE',  ( 15.25000000000023093, 8.000000000000756728, 7.949747468305831788 ) ) ;
#603 = EDGE_CURVE ( 'NONE', #780, #902, #422, .T. ) ;
#604 = EDGE_CURVE ( 'NONE', #774, #658, #46, .T. ) ;
#605 = ORIENTED_EDGE ( 'NONE', *, *, #591, .F. ) ;
#606 = EDGE_LOOP ( 'NONE', ( #752, #1 ) ) ;
#607 = FACE_BOUND ( 'NONE', #585, .T. ) ;
#608 = EDGE_CURVE ( 'NONE', #155, #453, #29, .T. ) ;
#609 = FACE_OUTER_BOUND ( 'NONE', #1002, .T. ) ;
#610 = SURFACE_SIDE_STYLE ('',( #851 ) ) ;
#611 = ORIENTED_EDGE ( 'NONE', *, *, #321, .T. ) ;
#612 = CARTESIAN_POINT ( 'NONE',  ( -19.00000000000000355, 18.99999999999999645, 3.000000000000000000 ) ) ;
#613 = DIRECTION ( 'NONE',  ( -0.000000000000000000, -0.000000000000000000, -1.000000000000000000 ) ) ;
#614 = CARTESIAN_POINT ( 'NONE',  ( 19.00000000000000355, -19.00000000000000355, -11.99999999999998224 ) ) ;
#615 = VECTOR ( 'NONE', #15, 1000.000000000000000 ) ;
#616 = ORIENTED_EDGE ( 'NONE', *, *, #474, .F. ) ;
#617 = VECTOR ( 'NONE', #382, 1000.000000000000000 ) ;
#618 = CARTESIAN_POINT ( 'NONE',  ( -10.24999999999976374, -7.999999999999244160, 0.000000000000000000 ) ) ;
#619 = DIRECTION ( 'NONE',  ( 0.000000000000000000, 0.000000000000000000, -1.000000000000000000 ) ) ;
#620 = ORIENTED_EDGE ( 'NONE', *, *, #525, .T. ) ;
#621 = EDGE_CURVE ( 'NONE', #484, #787, #188, .T. ) ;
#622 = ORIENTED_EDGE ( 'NONE', *, *, #973, .T. ) ;
#623 = DIRECTION ( 'NONE',  ( 1.000000000000000000, 0.000000000000000000, 0.000000000000000000 ) ) ;
#624 = CARTESIAN_POINT ( 'NONE',  ( -13.49999999999976730, -7.999999999999244160, -11.99999999999998224 ) ) ;
#625 = DIRECTION ( 'NONE',  ( 0.000000000000000000, 0.000000000000000000, 1.000000000000000000 ) ) ;
#626 = VERTEX_POINT ( 'NONE', #595 ) ;
#627 = CARTESIAN_POINT ( 'NONE',  ( 0.000000000000000000, 0.000000000000000000, 0.000000000000000000 ) ) ;
#628 = DIRECTION ( 'NONE',  ( 0.000000000000000000, 1.000000000000000000, 0.000000000000000000 ) ) ;
#629 = VECTOR ( 'NONE', #105, 1000.000000000000000 ) ;
#630 = EDGE_LOOP ( 'NONE', ( #207, #90 ) ) ;
#631 = DIRECTION ( 'NONE',  ( 1.000000000000000000, 0.000000000000000000, 0.000000000000000000 ) ) ;
#632 = CARTESIAN_POINT ( 'NONE',  ( 18.99999999999999645, 18.99999999999999645, 3.000000000000000000 ) ) ;
#633 = EDGE_CURVE ( 'NONE', #335, #702, #596, .T. ) ;
#634 = CYLINDRICAL_SURFACE ( 'NONE', #355, 3.249999999999999556 ) ;
#635 = EDGE_CURVE ( 'NONE', #225, #408, #586, .T. ) ;
#636 = CARTESIAN_POINT ( 'NONE',  ( -19.00000000000000355, -19.00000000000000355, 3.000000000000000000 ) ) ;
#637 = FACE_BOUND ( 'NONE', #262, .T. ) ;
#638 = EDGE_CURVE ( 'NONE', #103, #626, #549, .T. ) ;
#639 = FACE_OUTER_BOUND ( 'NONE', #747, .T. ) ;
#640 = CARTESIAN_POINT ( 'NONE',  ( -15.24999999999976730, -7.999999999999244160, 7.949747468305831788 ) ) ;
#641 = CARTESIAN_POINT ( 'NONE',  ( 10.00000000000000355, -15.00000000000143707, -6.924999999996877875 ) ) ;
#642 = CARTESIAN_POINT ( 'NONE',  ( -13.49999999999976907, 8.000000000000756728, 3.000000000000000000 ) ) ;
#643 = VECTOR ( 'NONE', #298, 1000.000000000000000 ) ;
#644 = DIRECTION ( 'NONE',  ( 1.000000000000000000, 0.000000000000000000, 0.000000000000000000 ) ) ;
#645 = DIRECTION ( 'NONE',  ( 1.000000000000000000, 0.000000000000000000, -0.000000000000000000 ) ) ;
#646 = DIRECTION ( 'NONE',  ( 1.000000000000000000, 0.000000000000000000, 0.000000000000000000 ) ) ;
#647 = AXIS2_PLACEMENT_3D ( 'NONE', #956, #323, #874 ) ;
#648 = EDGE_LOOP ( 'NONE', ( #384, #417, #173, #601 ) ) ;
#649 = PRODUCT_DEFINITION_FORMATION_WITH_SPECIFIED_SOURCE ( 'ANY', '', #237, .NOT_KNOWN. ) ;
#650 = ADVANCED_FACE ( 'NONE', ( #346 ), #905, .F. ) ;
#651 = ADVANCED_FACE ( 'NONE', ( #832 ), #176, .F. ) ;
#652 = EDGE_LOOP ( 'NONE', ( #122, #693 ) ) ;
#653 = CARTESIAN_POINT ( 'NONE',  ( -10.24999999999976374, -7.999999999999244160, -1.000000000000000000 ) ) ;
#654 = CARTESIAN_POINT ( 'NONE',  ( 16.75000000000023093, -7.999999999999244160, 0.000000000000000000 ) ) ;
#655 = EDGE_LOOP ( 'NONE', ( #1021, #729 ) ) ;
#656 = CARTESIAN_POINT ( 'NONE',  ( -16.74999999999976907, 8.000000000000756728, -11.99999999999998224 ) ) ;
#657 = CARTESIAN_POINT ( 'NONE',  ( 9.999999999999996447, 14.99999999999989697, -6.924999999996864553 ) ) ;
#658 = VERTEX_POINT ( 'NONE', #25 ) ;
#659 = DIRECTION ( 'NONE',  ( -1.000000000000000000, 0.000000000000000000, 0.000000000000000000 ) ) ;
#660 = AXIS2_PLACEMENT_3D ( 'NONE', #927, #45, #695 ) ;
#661 = EDGE_CURVE ( 'NONE', #373, #225, #934, .T. ) ;
#662 = DIRECTION ( 'NONE',  ( 1.000000000000000000, 1.826024711554533667E-16, -0.000000000000000000 ) ) ;
#663 = VERTEX_POINT ( 'NONE', #656 ) ;
#664 = EDGE_LOOP ( 'NONE', ( #1018, #181 ) ) ;
#665 = CARTESIAN_POINT ( 'NONE',  ( 18.99999999999999645, 18.99999999999999645, 3.000000000000000000 ) ) ;
#666 = PLANE ( 'NONE',  #34 ) ;
#667 = EDGE_LOOP ( 'NONE', ( #841, #212 ) ) ;
#668 = EDGE_LOOP ( 'NONE', ( #915, #505, #765, #51 ) ) ;
#669 = DIRECTION ( 'NONE',  ( 0.000000000000000000, 0.000000000000000000, -1.000000000000000000 ) ) ;
#670 = DIRECTION ( 'NONE',  ( 1.000000000000000000, 0.000000000000000000, 0.000000000000000000 ) ) ;
#671 = ORIENTED_EDGE ( 'NONE', *, *, #206, .T. ) ;
#672 = EDGE_CURVE ( 'NONE', #27, #855, #163, .T. ) ;
#673 = AXIS2_PLACEMENT_3D ( 'NONE', #135, #383, #869 ) ;
#674 = EDGE_LOOP ( 'NONE', ( #359, #532, #986, #73 ) ) ;
#675 = DIRECTION ( 'NONE',  ( 1.622713204935689011E-18, 6.591949208711871889E-17, 1.000000000000000000 ) ) ;
#676 = EDGE_CURVE ( 'NONE', #98, #175, #827, .T. ) ;
#677 = ADVANCED_BREP_SHAPE_REPRESENTATION ( '009_007_Spin_lock', ( #6, #501 ), #465 ) ;
#678 = AXIS2_PLACEMENT_3D ( 'NONE', #979, #250, #503 ) ;
#679 = DIRECTION ( 'NONE',  ( 1.000000000000000000, 0.000000000000000000, 0.000000000000000000 ) ) ;
#680 = ORIENTED_EDGE ( 'NONE', *, *, #93, .F. ) ;
#681 = EDGE_LOOP ( 'NONE', ( #826, #588, #622, #353 ) ) ;
#682 = DIRECTION ( 'NONE',  ( 1.000000000000000000, 0.000000000000000000, 0.000000000000000000 ) ) ;
#683 = AXIS2_PLACEMENT_3D ( 'NONE', #627, #711, #644 ) ;
#684 = FACE_OUTER_BOUND ( 'NONE', #648, .T. ) ;
#685 = LINE ( 'NONE', #614, #578 ) ;
#686 = VERTEX_POINT ( 'NONE', #975 ) ;
#687 = LINE ( 'NONE', #281, #1001 ) ;
#688 = CARTESIAN_POINT ( 'NONE',  ( 15.25000000000023270, -7.999999999999244160, 0.000000000000000000 ) ) ;
#689 = ORIENTED_EDGE ( 'NONE', *, *, #48, .F. ) ;
#690 = DIRECTION ( 'NONE',  ( 1.622713204935689011E-18, 6.591949208711871889E-17, 1.000000000000000000 ) ) ;
#691 = VECTOR ( 'NONE', #573, 1000.000000000000000 ) ;
#692 = CARTESIAN_POINT ( 'NONE',  ( 19.00000000000000355, -17.75000000000153477, -6.924999999996877875 ) ) ;
#693 = ORIENTED_EDGE ( 'NONE', *, *, #410, .T. ) ;
#694 = CIRCLE ( 'NONE', #189, 3.250000000000002665 ) ;
#695 = DIRECTION ( 'NONE',  ( -1.000000000000000000, 0.000000000000000000, 0.000000000000000000 ) ) ;
#696 = DIRECTION ( 'NONE',  ( -1.000000000000000000, 0.000000000000000000, 0.000000000000000000 ) ) ;
#697 = VECTOR ( 'NONE', #566, 1000.000000000000000 ) ;
#698 =( NAMED_UNIT ( * ) PLANE_ANGLE_UNIT ( ) SI_UNIT ( $, .RADIAN. ) );
#699 = EDGE_LOOP ( 'NONE', ( #831, #492, #773, #489 ) ) ;
#700 = FACE_OUTER_BOUND ( 'NONE', #464, .T. ) ;
#701 = CARTESIAN_POINT ( 'NONE',  ( 13.50000000000023093, 8.000000000000756728, 0.000000000000000000 ) ) ;
#702 = VERTEX_POINT ( 'NONE', #592 ) ;
#703 = EDGE_CURVE ( 'NONE', #702, #335, #580, .T. ) ;
#704 = ORIENTED_EDGE ( 'NONE', *, *, #676, .T. ) ;
#705 = DIRECTION ( 'NONE',  ( 0.000000000000000000, 0.000000000000000000, -1.000000000000000000 ) ) ;
#706 = PRODUCT_DEFINITION ( 'UNKNOWN', '', #649, #340 ) ;
#707 = CYLINDRICAL_SURFACE ( 'NONE', #461, 2.750000000000101252 ) ;
#708 = AXIS2_PLACEMENT_3D ( 'NONE', #387, #236, #407 ) ;
#709 = CARTESIAN_POINT ( 'NONE',  ( 10.25000000000023093, 8.000000000000756728, -1.000000000000000000 ) ) ;
#710 = AXIS2_PLACEMENT_3D ( 'NONE', #782, #675, #1003 ) ;
#711 = DIRECTION ( 'NONE',  ( -0.000000000000000000, 0.000000000000000000, 1.000000000000000000 ) ) ;
#712 = CIRCLE ( 'NONE', #829, 3.249999999999999556 ) ;
#713 = CARTESIAN_POINT ( 'NONE',  ( -19.00000000000000355, 18.99999999999999645, 3.000000000000000000 ) ) ;
#714 = LINE ( 'NONE', #1042, #269 ) ;
#715 = CARTESIAN_POINT ( 'NONE',  ( 13.50000000000023270, -7.999999999999244160, -1.000000000000000000 ) ) ;
#716 = DIRECTION ( 'NONE',  ( 0.000000000000000000, 0.000000000000000000, 1.000000000000000000 ) ) ;
#717 = DIRECTION ( 'NONE',  ( -0.000000000000000000, -0.000000000000000000, 1.000000000000000000 ) ) ;
#718 = DIRECTION ( 'NONE',  ( 1.000000000000000000, 0.000000000000000000, 0.000000000000000000 ) ) ;
#719 = PLANE ( 'NONE',  #393 ) ;
#720 = DIRECTION ( 'NONE',  ( 0.000000000000000000, 0.000000000000000000, 1.000000000000000000 ) ) ;
#721 = EDGE_CURVE ( 'NONE', #526, #847, #413, .T. ) ;
#722 = ORIENTED_EDGE ( 'NONE', *, *, #929, .T. ) ;
#723 = AXIS2_PLACEMENT_3D ( 'NONE', #2, #9, #257 ) ;
#724 = ORIENTED_EDGE ( 'NONE', *, *, #621, .F. ) ;
#725 = DIRECTION ( 'NONE',  ( -1.000000000000000000, 0.000000000000000000, 0.000000000000000000 ) ) ;
#726 = AXIS2_PLACEMENT_3D ( 'NONE', #26, #662, #18 ) ;
#727 = DIRECTION ( 'NONE',  ( 1.000000000000000000, 0.000000000000000000, 0.000000000000000000 ) ) ;
#728 = AXIS2_PLACEMENT_3D ( 'NONE', #153, #482, #725 ) ;
#729 = ORIENTED_EDGE ( 'NONE', *, *, #913, .F. ) ;
#730 = EDGE_LOOP ( 'NONE', ( #883, #271 ) ) ;
#731 = FACE_OUTER_BOUND ( 'NONE', #652, .T. ) ;
#732 = FACE_BOUND ( 'NONE', #922, .T. ) ;
#733 = ORIENTED_EDGE ( 'NONE', *, *, #980, .F. ) ;
#734 = ADVANCED_FACE ( 'NONE', ( #731 ), #332, .T. ) ;
#735 = ORIENTED_EDGE ( 'NONE', *, *, #833, .T. ) ;
#736 = CARTESIAN_POINT ( 'NONE',  ( -13.49999999999976730, -7.999999999999244160, 0.000000000000000000 ) ) ;
#737 = LINE ( 'NONE', #252, #344 ) ;
#738 = ORIENTED_EDGE ( 'NONE', *, *, #115, .F. ) ;
#739 =( LENGTH_UNIT ( ) NAMED_UNIT ( * ) SI_UNIT ( .MILLI., .METRE. ) );
#740 = DIRECTION ( 'NONE',  ( 1.000000000000000000, 0.000000000000000000, 0.000000000000000000 ) ) ;
#741 = ADVANCED_FACE ( 'NONE', ( #350 ), #818, .F. ) ;
#742 = AXIS2_PLACEMENT_3D ( 'NONE', #37, #193, #436 ) ;
#743 = CARTESIAN_POINT ( 'NONE',  ( 19.00000000000000355, -12.25000000000133404, -6.924999999996877875 ) ) ;
#744 = VECTOR ( 'NONE', #282, 1000.000000000000000 ) ;
#745 = ORIENTED_EDGE ( 'NONE', *, *, #661, .T. ) ;
#746 = AXIS2_PLACEMENT_3D ( 'NONE', #227, #1038, #146 ) ;
#747 = EDGE_LOOP ( 'NONE', ( #1005, #24, #160, #439 ) ) ;
#748 = DIRECTION ( 'NONE',  ( -0.000000000000000000, -0.000000000000000000, -1.000000000000000000 ) ) ;
#749 = DIRECTION ( 'NONE',  ( -1.000000000000000000, 0.000000000000000000, 0.000000000000000000 ) ) ;
#750 = VERTEX_POINT ( 'NONE', #770 ) ;
#751 = EDGE_CURVE ( 'NONE', #974, #577, #923, .T. ) ;
#752 = ORIENTED_EDGE ( 'NONE', *, *, #894, .T. ) ;
#753 = CARTESIAN_POINT ( 'NONE',  ( 13.50000000000023270, -7.999999999999244160, 0.000000000000000000 ) ) ;
#754 = CARTESIAN_POINT ( 'NONE',  ( 10.00000000000000355, -17.75000000000153833, -6.924999999996877875 ) ) ;
#755 = ORIENTED_EDGE ( 'NONE', *, *, #608, .T. ) ;
#756 = EDGE_CURVE ( 'NONE', #98, #217, #116, .T. ) ;
#757 = VECTOR ( 'NONE', #881, 1000.000000000000000 ) ;
#758 = ORIENTED_EDGE ( 'NONE', *, *, #428, .F. ) ;
#759 = CARTESIAN_POINT ( 'NONE',  ( -13.49999999999976907, 8.000000000000756728, 0.000000000000000000 ) ) ;
#760 = AXIS2_PLACEMENT_3D ( 'NONE', #612, #523, #354 ) ;
#761 = FACE_BOUND ( 'NONE', #664, .T. ) ;
#762 = ORIENTED_EDGE ( 'NONE', *, *, #67, .T. ) ;
#763 = AXIS2_PLACEMENT_3D ( 'NONE', #367, #960, #572 ) ;
#764 = CIRCLE ( 'NONE', #1053, 1.749999999999999778 ) ;
#765 = ORIENTED_EDGE ( 'NONE', *, *, #158, .F. ) ;
#766 = CARTESIAN_POINT ( 'NONE',  ( 13.50000000000023093, 8.000000000000756728, -11.99999999999998224 ) ) ;
#767 = CARTESIAN_POINT ( 'NONE',  ( -15.24999999999976730, -7.999999999999244160, 0.000000000000000000 ) ) ;
#768 = SURFACE_STYLE_USAGE ( .BOTH. , #610 ) ;
#769 = ORIENTED_EDGE ( 'NONE', *, *, #929, .F. ) ;
#770 = CARTESIAN_POINT ( 'NONE',  ( -15.24999999999976907, 8.000000000000756728, 0.000000000000000000 ) ) ;
#771 = DIRECTION ( 'NONE',  ( 1.000000000000000000, 1.826024711554533913E-16, 0.000000000000000000 ) ) ;
#772 = EDGE_CURVE ( 'NONE', #974, #96, #148, .T. ) ;
#773 = ORIENTED_EDGE ( 'NONE', *, *, #17, .T. ) ;
#774 = VERTEX_POINT ( 'NONE', #111 ) ;
#775 = FACE_BOUND ( 'NONE', #893, .T. ) ;
#776 = DIRECTION ( 'NONE',  ( -0.000000000000000000, -0.000000000000000000, -1.000000000000000000 ) ) ;
#777 = CIRCLE ( 'NONE', #914, 1.749999999999999778 ) ;
#778 = DIRECTION ( 'NONE',  ( 0.000000000000000000, 1.000000000000000000, 0.000000000000000000 ) ) ;
#779 = CIRCLE ( 'NONE', #223, 1.749999999999999778 ) ;
#780 = VERTEX_POINT ( 'NONE', #213 ) ;
#781 = CIRCLE ( 'NONE', #647, 3.249999999999999556 ) ;
#782 = CARTESIAN_POINT ( 'NONE',  ( 13.50000000000023270, -7.999999999999244160, -11.99999999999998224 ) ) ;
#783 = FACE_OUTER_BOUND ( 'NONE', #424, .T. ) ;
#784 = ORIENTED_EDGE ( 'NONE', *, *, #894, .F. ) ;
#785 = EDGE_CURVE ( 'NONE', #196, #855, #843, .T. ) ;
#786 = EDGE_CURVE ( 'NONE', #750, #79, #390, .T. ) ;
#787 = VERTEX_POINT ( 'NONE', #443 ) ;
#788 = FACE_BOUND ( 'NONE', #817, .T. ) ;
#789 = CARTESIAN_POINT ( 'NONE',  ( -13.49999999999976907, 8.000000000000756728, 0.000000000000000000 ) ) ;
#790 = CARTESIAN_POINT ( 'NONE',  ( -13.49999999999976730, -7.999999999999244160, 0.000000000000000000 ) ) ;
#791 = PLANE ( 'NONE',  #427 ) ;
#792 = LINE ( 'NONE', #220, #120 ) ;
#793 = DIRECTION ( 'NONE',  ( 1.000000000000000000, 1.826024711554533913E-16, 0.000000000000000000 ) ) ;
#794 = AXIS2_PLACEMENT_3D ( 'NONE', #736, #909, #997 ) ;
#795 = LINE ( 'NONE', #865, #358 ) ;
#796 = AXIS2_PLACEMENT_3D ( 'NONE', #1015, #124, #455 ) ;
#797 = CARTESIAN_POINT ( 'NONE',  ( 18.99999999999999645, 18.99999999999999645, 3.000000000000000000 ) ) ;
#798 = DIRECTION ( 'NONE',  ( 1.000000000000000000, 0.000000000000000000, 0.000000000000000000 ) ) ;
#799 = CARTESIAN_POINT ( 'NONE',  ( 9.999999999999996447, 17.74999999999960210, -6.924999999996864553 ) ) ;
#800 = CARTESIAN_POINT ( 'NONE',  ( -3.000000000000000444, -3.102052912209408350E-15, 2.000000000000000000 ) ) ;
#801 = ADVANCED_FACE ( 'NONE', ( #127 ), #197, .F. ) ;
#802 = CARTESIAN_POINT ( 'NONE',  ( -19.00000000000000355, -19.00000000000000355, 3.000000000000000000 ) ) ;
#803 = ORIENTED_EDGE ( 'NONE', *, *, #591, .T. ) ;
#804 = EDGE_LOOP ( 'NONE', ( #611, #574 ) ) ;
#805 = DIRECTION ( 'NONE',  ( 0.000000000000000000, 0.000000000000000000, -1.000000000000000000 ) ) ;
#806 = CARTESIAN_POINT ( 'NONE',  ( -16.74999999999976907, -7.999999999999244160, 0.000000000000000000 ) ) ;
#807 = ORIENTED_EDGE ( 'NONE', *, *, #995, .T. ) ;
#808 = CIRCLE ( 'NONE', #660, 3.249999999999999556 ) ;
#809 = SURFACE_STYLE_USAGE ( .BOTH. , #421 ) ;
#810 = ORIENTED_EDGE ( 'NONE', *, *, #441, .F. ) ;
#811 = DIRECTION ( 'NONE',  ( 1.000000000000000000, 1.826024711554533667E-16, -0.000000000000000000 ) ) ;
#812 = AXIS2_PLACEMENT_3D ( 'NONE', #3, #258, #993 ) ;
#813 = DIRECTION ( 'NONE',  ( 0.000000000000000000, 1.000000000000000000, 0.000000000000000000 ) ) ;
#814 = EDGE_LOOP ( 'NONE', ( #274, #138 ) ) ;
#815 = EDGE_CURVE ( 'NONE', #349, #539, #777, .T. ) ;
#816 = EDGE_CURVE ( 'NONE', #836, #925, #272, .T. ) ;
#817 = EDGE_LOOP ( 'NONE', ( #295, #201 ) ) ;
#818 = PLANE ( 'NONE',  #760 ) ;
#819 = FACE_OUTER_BOUND ( 'NONE', #630, .T. ) ;
#820 = ORIENTED_EDGE ( 'NONE', *, *, #487, .F. ) ;
#821 = EDGE_CURVE ( 'NONE', #513, #155, #687, .T. ) ;
#822 = CARTESIAN_POINT ( 'NONE',  ( 10.25000000000023270, -7.999999999999244160, -1.000000000000000000 ) ) ;
#823 = DIRECTION ( 'NONE',  ( -0.000000000000000000, -0.000000000000000000, -1.000000000000000000 ) ) ;
#824 = ORIENTED_EDGE ( 'NONE', *, *, #330, .F. ) ;
#825 = AXIS2_PLACEMENT_3D ( 'NONE', #35, #778, #553 ) ;
#826 = ORIENTED_EDGE ( 'NONE', *, *, #821, .F. ) ;
#827 = LINE ( 'NONE', #822, #615 ) ;
#828 = LINE ( 'NONE', #587, #80 ) ;
#829 = AXIS2_PLACEMENT_3D ( 'NONE', #789, #805, #314 ) ;
#830 = ORIENTED_EDGE ( 'NONE', *, *, #638, .F. ) ;
#831 = ORIENTED_EDGE ( 'NONE', *, *, #238, .F. ) ;
#832 = FACE_OUTER_BOUND ( 'NONE', #994, .T. ) ;
#833 = EDGE_CURVE ( 'NONE', #847, #787, #202, .T. ) ;
#834 = CARTESIAN_POINT ( 'NONE',  ( -13.49999999999976907, 8.000000000000756728, -11.99999999999998224 ) ) ;
#835 = ORIENTED_EDGE ( 'NONE', *, *, #672, .F. ) ;
#836 = VERTEX_POINT ( 'NONE', #540 ) ;
#837 = FACE_BOUND ( 'NONE', #667, .T. ) ;
#838 = CARTESIAN_POINT ( 'NONE',  ( -10.24999999999976907, 8.000000000000756728, -11.99999999999998224 ) ) ;
#839 = ORIENTED_EDGE ( 'NONE', *, *, #474, .T. ) ;
#840 = AXIS2_PLACEMENT_3D ( 'NONE', #215, #121, #363 ) ;
#841 = ORIENTED_EDGE ( 'NONE', *, *, #860, .T. ) ;
#842 = FACE_OUTER_BOUND ( 'NONE', #972, .T. ) ;
#843 = CIRCLE ( 'NONE', #742, 3.250000000000001332 ) ;
#844 = CYLINDRICAL_SURFACE ( 'NONE', #425, 3.000000000000000444 ) ;
#845 = FACE_OUTER_BOUND ( 'NONE', #415, .T. ) ;
#846 = ADVANCED_FACE ( 'NONE', ( #837, #537, #775, #607, #842 ), #41, .F. ) ;
#847 = VERTEX_POINT ( 'NONE', #1019 ) ;
#848 = DIRECTION ( 'NONE',  ( 0.000000000000000000, 0.000000000000000000, -1.000000000000000000 ) ) ;
#849 = CIRCLE ( 'NONE', #411, 3.000000000000000444 ) ;
#850 = CARTESIAN_POINT ( 'NONE',  ( -3.000000000000000444, -3.102052912209408350E-15, 3.000000000000000000 ) ) ;
#851 = SURFACE_STYLE_FILL_AREA ( #283 ) ;
#852 = VERTEX_POINT ( 'NONE', #292 ) ;
#853 = DIRECTION ( 'NONE',  ( 0.000000000000000000, -1.000000000000000000, 0.000000000000000000 ) ) ;
#854 = CARTESIAN_POINT ( 'NONE',  ( 0.000000000000000000, 0.000000000000000000, 3.000000000000000000 ) ) ;
#855 = VERTEX_POINT ( 'NONE', #618 ) ;
#856 = CLOSED_SHELL ( 'NONE', ( #527, #255, #141, #650, #801, #107, #368, #962, #560, #366, #651, #877, #300, #268, #976, #497, #741, #495, #43, #379, #448, #28, #396, #251, #545, #77, #32, #477, #949, #91, #846, #409, #734, #290, #1014 ) ) ;
#857 = ORIENTED_EDGE ( 'NONE', *, *, #833, .F. ) ;
#858 = CARTESIAN_POINT ( 'NONE',  ( 0.000000000000000000, 0.000000000000000000, 0.000000000000000000 ) ) ;
#859 = CYLINDRICAL_SURFACE ( 'NONE', #480, 1.749999999999999778 ) ;
#860 = EDGE_CURVE ( 'NONE', #217, #98, #64, .T. ) ;
#861 = AXIS2_PLACEMENT_3D ( 'NONE', #766, #365, #275 ) ;
#862 = LINE ( 'NONE', #369, #288 ) ;
#863 = ORIENTED_EDGE ( 'NONE', *, *, #786, .T. ) ;
#864 = VECTOR ( 'NONE', #898, 1000.000000000000000 ) ;
#865 = CARTESIAN_POINT ( 'NONE',  ( -19.00000000000000355, -19.00000000000000355, 3.000000000000000000 ) ) ;
#866 = FACE_OUTER_BOUND ( 'NONE', #289, .T. ) ;
#867 = VECTOR ( 'NONE', #878, 1000.000000000000000 ) ;
#868 = EDGE_CURVE ( 'NONE', #162, #175, #808, .T. ) ;
#869 = DIRECTION ( 'NONE',  ( 1.000000000000000000, 0.000000000000000000, 0.000000000000000000 ) ) ;
#870 = CARTESIAN_POINT ( 'NONE',  ( 16.75000000000023093, 8.000000000000756728, -11.99999999999998224 ) ) ;
#871 = CARTESIAN_POINT ( 'NONE',  ( -13.49999999999976730, -7.999999999999244160, -11.99999999999998224 ) ) ;
#872 = CYLINDRICAL_SURFACE ( 'NONE', #199, 3.250000000000002665 ) ;
#873 = CARTESIAN_POINT ( 'NONE',  ( -13.49999999999976730, -7.999999999999244160, 3.000000000000000000 ) ) ;
#874 = DIRECTION ( 'NONE',  ( -1.000000000000000000, 0.000000000000000000, 0.000000000000000000 ) ) ;
#875 = CIRCLE ( 'NONE', #388, 2.749999999999707345 ) ;
#876 = CARTESIAN_POINT ( 'NONE',  ( 13.50000000000023093, 8.000000000000756728, -1.000000000000000000 ) ) ;
#877 = ADVANCED_FACE ( 'NONE', ( #529, #1023 ), #544, .F. ) ;
#878 = DIRECTION ( 'NONE',  ( -0.000000000000000000, -0.000000000000000000, 1.000000000000000000 ) ) ;
#879 = AXIS2_PLACEMENT_3D ( 'NONE', #563, #645, #486 ) ;
#880 = DIRECTION ( 'NONE',  ( -1.000000000000000000, 0.000000000000000000, 0.000000000000000000 ) ) ;
#881 = DIRECTION ( 'NONE',  ( -0.000000000000000000, -0.000000000000000000, 1.000000000000000000 ) ) ;
#882 = CIRCLE ( 'NONE', #921, 1.749999999999999778 ) ;
#883 = ORIENTED_EDGE ( 'NONE', *, *, #1052, .F. ) ;
#884 = CARTESIAN_POINT ( 'NONE',  ( 13.50000000000023093, 8.000000000000756728, 0.000000000000000000 ) ) ;
#885 = FACE_BOUND ( 'NONE', #297, .T. ) ;
#886 = CARTESIAN_POINT ( 'NONE',  ( 10.25000000000023270, -7.999999999999244160, 0.000000000000000000 ) ) ;
#887 = VERTEX_POINT ( 'NONE', #389 ) ;
#888 = ORIENTED_EDGE ( 'NONE', *, *, #209, .F. ) ;
#889 = DIRECTION ( 'NONE',  ( 0.000000000000000000, 1.000000000000000000, 0.000000000000000000 ) ) ;
#890 = EDGE_CURVE ( 'NONE', #1027, #990, #795, .T. ) ;
#891 = AXIS2_PLACEMENT_3D ( 'NONE', #469, #625, #542 ) ;
#892 = DIRECTION ( 'NONE',  ( 1.000000000000000000, 0.000000000000000000, -1.622713204935689011E-18 ) ) ;
#893 = EDGE_LOOP ( 'NONE', ( #839, #920 ) ) ;
#894 = EDGE_CURVE ( 'NONE', #852, #457, #951, .T. ) ;
#895 = VECTOR ( 'NONE', #508, 1000.000000000000000 ) ;
#896 = DIRECTION ( 'NONE',  ( 0.000000000000000000, 0.000000000000000000, -1.000000000000000000 ) ) ;
#897 = ORIENTED_EDGE ( 'NONE', *, *, #463, .F. ) ;
#898 = DIRECTION ( 'NONE',  ( -1.826024711554533913E-16, 1.000000000000000000, -6.591949208711871889E-17 ) ) ;
#899 = CIRCLE ( 'NONE', #256, 2.749999999999706013 ) ;
#900 = DIRECTION ( 'NONE',  ( 0.000000000000000000, -1.000000000000000000, 0.000000000000000000 ) ) ;
#901 = UNCERTAINTY_MEASURE_WITH_UNIT (LENGTH_MEASURE( 1.000000000000000082E-05 ), #1016, 'distance_accuracy_value', 'NONE');
#902 = VERTEX_POINT ( 'NONE', #53 ) ;
#903 =( NAMED_UNIT ( * ) SI_UNIT ( $, .STERADIAN. ) SOLID_ANGLE_UNIT ( ) );
#904 = ORIENTED_EDGE ( 'NONE', *, *, #661, .F. ) ;
#905 = CYLINDRICAL_SURFACE ( 'NONE', #341, 3.249999999999997780 ) ;
#906 = FACE_OUTER_BOUND ( 'NONE', #947, .T. ) ;
#907 = ORIENTED_EDGE ( 'NONE', *, *, #444, .T. ) ;
#908 = ORIENTED_EDGE ( 'NONE', *, *, #963, .T. ) ;
#909 = DIRECTION ( 'NONE',  ( 0.000000000000000000, 0.000000000000000000, -1.000000000000000000 ) ) ;
#910 = CARTESIAN_POINT ( 'NONE',  ( 18.99999999999999645, 14.99999999999989875, -6.924999999996864553 ) ) ;
#911 = ORIENTED_EDGE ( 'NONE', *, *, #785, .T. ) ;
#912 =( LENGTH_UNIT ( ) NAMED_UNIT ( * ) SI_UNIT ( .MILLI., .METRE. ) );
#913 = EDGE_CURVE ( 'NONE', #364, #40, #849, .T. ) ;
#914 = AXIS2_PLACEMENT_3D ( 'NONE', #1008, #371, #623 ) ;
#915 = ORIENTED_EDGE ( 'NONE', *, *, #621, .T. ) ;
#916 = CARTESIAN_POINT ( 'NONE',  ( 13.50000000000023093, 8.000000000000756728, 0.000000000000000000 ) ) ;
#917 = CYLINDRICAL_SURFACE ( 'NONE', #726, 2.750000000000101252 ) ;
#918 = CIRCLE ( 'NONE', #276, 2.749999999999707345 ) ;
#919 = CIRCLE ( 'NONE', #600, 1.749999999999999778 ) ;
#920 = ORIENTED_EDGE ( 'NONE', *, *, #428, .T. ) ;
#921 = AXIS2_PLACEMENT_3D ( 'NONE', #66, #955, #143 ) ;
#922 = EDGE_LOOP ( 'NONE', ( #254, #518 ) ) ;
#923 = LINE ( 'NONE', #602, #643 ) ;
#924 = DIRECTION ( 'NONE',  ( -0.000000000000000000, -0.000000000000000000, -1.000000000000000000 ) ) ;
#925 = VERTEX_POINT ( 'NONE', #870 ) ;
#926 = ORIENTED_EDGE ( 'NONE', *, *, #1026, .F. ) ;
#927 = CARTESIAN_POINT ( 'NONE',  ( 13.50000000000023270, -7.999999999999244160, 0.000000000000000000 ) ) ;
#928 = FACE_OUTER_BOUND ( 'NONE', #507, .T. ) ;
#929 = EDGE_CURVE ( 'NONE', #108, #442, #485, .T. ) ;
#930 =( NAMED_UNIT ( * ) SI_UNIT ( $, .STERADIAN. ) SOLID_ANGLE_UNIT ( ) );
#931 = CIRCLE ( 'NONE', #473, 3.000000000000000444 ) ;
#932 = ORIENTED_EDGE ( 'NONE', *, *, #109, .F. ) ;
#933 = CARTESIAN_POINT ( 'NONE',  ( 13.50000000000023093, 8.000000000000756728, 3.000000000000000000 ) ) ;
#934 = CIRCLE ( 'NONE', #1035, 2.750000000000101252 ) ;
#935 = DIRECTION ( 'NONE',  ( -0.000000000000000000, 0.000000000000000000, 1.000000000000000000 ) ) ;
#936 = FILL_AREA_STYLE_COLOUR ( '', #530 ) ;
#937 = EDGE_CURVE ( 'NONE', #925, #774, #230, .T. ) ;
#938 = EDGE_LOOP ( 'NONE', ( #114, #192, #755, #1058 ) ) ;
#939 = CARTESIAN_POINT ( 'NONE',  ( 13.50000000000023270, -7.999999999999244160, -11.99999999999998224 ) ) ;
#940 = DIRECTION ( 'NONE',  ( 1.000000000000000000, 1.826024711554533913E-16, 0.000000000000000000 ) ) ;
#941 = DIRECTION ( 'NONE',  ( -0.000000000000000000, -0.000000000000000000, -1.000000000000000000 ) ) ;
#942 = ORIENTED_EDGE ( 'NONE', *, *, #321, .F. ) ;
#943 = DIRECTION ( 'NONE',  ( 0.000000000000000000, -0.000000000000000000, -1.000000000000000000 ) ) ;
#944 = FACE_BOUND ( 'NONE', #44, .T. ) ;
#945 = CYLINDRICAL_SURFACE ( 'NONE', #840, 3.249999999999999556 ) ;
#946 = AXIS2_PLACEMENT_3D ( 'NONE', #642, #966, #727 ) ;
#947 = EDGE_LOOP ( 'NONE', ( #502, #466, #1000, #769 ) ) ;
#948 = LINE ( 'NONE', #959, #278 ) ;
#949 = ADVANCED_FACE ( 'NONE', ( #700 ), #218, .F. ) ;
#950 = CYLINDRICAL_SURFACE ( 'NONE', #167, 1.749999999999999778 ) ;
#951 = CIRCLE ( 'NONE', #84, 3.249999999999999556 ) ;
#952 = PRESENTATION_STYLE_ASSIGNMENT (( #768 ) ) ;
#953 = CIRCLE ( 'NONE', #500, 3.250000000000000444 ) ;
#954 = EDGE_LOOP ( 'NONE', ( #435, #528, #378, #863 ) ) ;
#955 = DIRECTION ( 'NONE',  ( 0.000000000000000000, -0.000000000000000000, -1.000000000000000000 ) ) ;
#956 = CARTESIAN_POINT ( 'NONE',  ( 13.50000000000023270, -7.999999999999244160, 0.000000000000000000 ) ) ;
#957 = MECHANICAL_DESIGN_GEOMETRIC_PRESENTATION_REPRESENTATION (  '', ( #240 ), #259 ) ;
#958 = DIRECTION ( 'NONE',  ( 0.000000000000000000, 1.000000000000000000, 0.000000000000000000 ) ) ;
#959 = CARTESIAN_POINT ( 'NONE',  ( 11.75000000000023093, 8.000000000000756728, 7.949747468305831788 ) ) ;
#960 = DIRECTION ( 'NONE',  ( 0.000000000000000000, 0.000000000000000000, -1.000000000000000000 ) ) ;
#961 = DIRECTION ( 'NONE',  ( 1.000000000000000000, 1.826024711554533913E-16, 0.000000000000000000 ) ) ;
#962 = ADVANCED_FACE ( 'NONE', ( #139 ), #1028, .F. ) ;
#963 = EDGE_CURVE ( 'NONE', #513, #326, #172, .T. ) ;
#964 = PLANE ( 'NONE',  #683 ) ;
#965 = DIRECTION ( 'NONE',  ( 0.000000000000000000, -1.000000000000000000, 0.000000000000000000 ) ) ;
#966 = DIRECTION ( 'NONE',  ( 0.000000000000000000, -0.000000000000000000, -1.000000000000000000 ) ) ;
#967 = LINE ( 'NONE', #239, #362 ) ;
#968 = CIRCLE ( 'NONE', #988, 3.000000000000000444 ) ;
#969 = DIRECTION ( 'NONE',  ( -1.000000000000000000, -1.826024711554533913E-16, 0.000000000000000000 ) ) ;
#970 = DIRECTION ( 'NONE',  ( -0.000000000000000000, -0.000000000000000000, -1.000000000000000000 ) ) ;
#971 = AXIS2_PLACEMENT_3D ( 'NONE', #715, #399, #316 ) ;
#972 = EDGE_LOOP ( 'NONE', ( #888, #857, #329, #404 ) ) ;
#973 = EDGE_CURVE ( 'NONE', #326, #453, #1047, .T. ) ;
#974 = VERTEX_POINT ( 'NONE', #302 ) ;
#975 = CARTESIAN_POINT ( 'NONE',  ( -3.000000000000000444, -3.102052912209408350E-15, 2.000000000000000000 ) ) ;
#976 = ADVANCED_FACE ( 'NONE', ( #788, #57 ), #964, .F. ) ;
#977 = CARTESIAN_POINT ( 'NONE',  ( 19.00000000000000355, -19.00000000000000711, -11.99999999999998046 ) ) ;
#978 = ORIENTED_EDGE ( 'NONE', *, *, #559, .F. ) ;
#979 = CARTESIAN_POINT ( 'NONE',  ( 9.999999999999996447, 14.99999999999989697, -6.924999999996864553 ) ) ;
#980 = EDGE_CURVE ( 'NONE', #990, #195, #967, .T. ) ;
#981 = CIRCLE ( 'NONE', #337, 3.250000000000001332 ) ;
#982 = DIRECTION ( 'NONE',  ( 0.000000000000000000, 0.000000000000000000, 1.000000000000000000 ) ) ;
#983 = ORIENTED_EDGE ( 'NONE', *, *, #751, .T. ) ;
#984 = VECTOR ( 'NONE', #285, 1000.000000000000000 ) ;
#985 = FILL_AREA_STYLE_COLOUR ( '', #554 ) ;
#986 = ORIENTED_EDGE ( 'NONE', *, *, #604, .F. ) ;
#987 = CARTESIAN_POINT ( 'NONE',  ( 13.50000000000023270, -7.999999999999244160, -1.000000000000000000 ) ) ;
#988 = AXIS2_PLACEMENT_3D ( 'NONE', #157, #716, #386 ) ;
#989 = DIRECTION ( 'NONE',  ( 0.000000000000000000, -1.000000000000000000, 0.000000000000000000 ) ) ;
#990 = VERTEX_POINT ( 'NONE', #156 ) ;
#991 = EDGE_LOOP ( 'NONE', ( #370, #803, #784, #166 ) ) ;
#992 = DIRECTION ( 'NONE',  ( 1.000000000000000000, 1.826024711554533667E-16, -0.000000000000000000 ) ) ;
#993 = DIRECTION ( 'NONE',  ( -1.000000000000000000, 0.000000000000000000, 0.000000000000000000 ) ) ;
#994 = EDGE_LOOP ( 'NONE', ( #304, #1055, #1030, #820 ) ) ;
#995 = EDGE_CURVE ( 'NONE', #326, #513, #882, .T. ) ;
#996 = EDGE_LOOP ( 'NONE', ( #605, #926, #291, #261 ) ) ;
#997 = DIRECTION ( 'NONE',  ( -1.000000000000000000, 0.000000000000000000, 0.000000000000000000 ) ) ;
#998 = DIRECTION ( 'NONE',  ( 0.000000000000000000, 0.000000000000000000, -1.000000000000000000 ) ) ;
#999 = AXIS2_PLACEMENT_3D ( 'NONE', #69, #970, #328 ) ;
#1000 = ORIENTED_EDGE ( 'NONE', *, *, #128, .T. ) ;
#1001 = VECTOR ( 'NONE', #1013, 1000.000000000000000 ) ;
#1002 = EDGE_LOOP ( 'NONE', ( #978, #942, #521, #620 ) ) ;
#1003 = DIRECTION ( 'NONE',  ( 0.000000000000000000, -1.000000000000000000, 0.000000000000000000 ) ) ;
#1004 = CARTESIAN_POINT ( 'NONE',  ( -15.24999999999976730, -7.999999999999244160, 3.000000000000000000 ) ) ;
#1005 = ORIENTED_EDGE ( 'NONE', *, *, #751, .F. ) ;
#1006 = AXIS2_PLACEMENT_3D ( 'NONE', #322, #70, #61 ) ;
#1007 = ORIENTED_EDGE ( 'NONE', *, *, #756, .F. ) ;
#1008 = CARTESIAN_POINT ( 'NONE',  ( 13.50000000000023270, -7.999999999999244160, 3.000000000000000000 ) ) ;
#1009 = DIRECTION ( 'NONE',  ( 0.000000000000000000, -1.000000000000000000, 0.000000000000000000 ) ) ;
#1010 = PRODUCT_RELATED_PRODUCT_CATEGORY ( 'part', '', ( #237 ) ) ;
#1011 = ORIENTED_EDGE ( 'NONE', *, *, #158, .T. ) ;
#1012 = ORIENTED_EDGE ( 'NONE', *, *, #860, .F. ) ;
#1013 = DIRECTION ( 'NONE',  ( -0.000000000000000000, -0.000000000000000000, -1.000000000000000000 ) ) ;
#1014 = ADVANCED_FACE ( 'NONE', ( #1033 ), #791, .T. ) ;
#1015 = CARTESIAN_POINT ( 'NONE',  ( 13.50000000000023270, -7.999999999999244160, 7.949747468305831788 ) ) ;
#1016 =( LENGTH_UNIT ( ) NAMED_UNIT ( * ) SI_UNIT ( .MILLI., .METRE. ) );
#1017 = CIRCLE ( 'NONE', #113, 2.750000000000101252 ) ;
#1018 = ORIENTED_EDGE ( 'NONE', *, *, #130, .T. ) ;
#1019 = CARTESIAN_POINT ( 'NONE',  ( 18.99999999999999645, 18.99999999999999645, -11.99999999999998224 ) ) ;
#1020 = CYLINDRICAL_SURFACE ( 'NONE', #150, 2.749999999999706013 ) ;
#1021 = ORIENTED_EDGE ( 'NONE', *, *, #525, .F. ) ;
#1022 = ORIENTED_EDGE ( 'NONE', *, *, #142, .F. ) ;
#1023 = FACE_OUTER_BOUND ( 'NONE', #87, .T. ) ;
#1024 = DIRECTION ( 'NONE',  ( -1.000000000000000000, 0.000000000000000000, 0.000000000000000000 ) ) ;
#1025 = PLANE ( 'NONE',  #891 ) ;
#1026 = EDGE_CURVE ( 'NONE', #412, #663, #446, .T. ) ;
#1027 = VERTEX_POINT ( 'NONE', #636 ) ;
#1028 = CYLINDRICAL_SURFACE ( 'NONE', #1006, 1.749999999999999778 ) ;
#1029 = CARTESIAN_POINT ( 'NONE',  ( 3.000000000000000444, -3.469446951953614189E-15, 2.000000000000000000 ) ) ;
#1030 = ORIENTED_EDGE ( 'NONE', *, *, #913, .T. ) ;
#1031 = CIRCLE ( 'NONE', #708, 2.750000000000101252 ) ;
#1032 = ORIENTED_EDGE ( 'NONE', *, *, #589, .T. ) ;
#1033 = FACE_OUTER_BOUND ( 'NONE', #19, .T. ) ;
#1034 = FACE_OUTER_BOUND ( 'NONE', #681, .T. ) ;
#1035 = AXIS2_PLACEMENT_3D ( 'NONE', #170, #432, #889 ) ;
#1036 = CARTESIAN_POINT ( 'NONE',  ( -11.74999999999976907, 8.000000000000756728, 0.000000000000000000 ) ) ;
#1037 = CIRCLE ( 'NONE', #517, 2.749999999999706013 ) ;
#1038 = DIRECTION ( 'NONE',  ( 1.622713204935689011E-18, 6.591949208711871889E-17, 1.000000000000000000 ) ) ;
#1039 = CARTESIAN_POINT ( 'NONE',  ( 18.99999999999999645, 18.99999999999999645, 3.000000000000000000 ) ) ;
#1040 = EDGE_CURVE ( 'NONE', #96, #280, #948, .T. ) ;
#1041 = VECTOR ( 'NONE', #381, 1000.000000000000000 ) ;
#1042 = CARTESIAN_POINT ( 'NONE',  ( -19.00000000000000355, -19.00000000000000000, -11.99999999999998224 ) ) ;
#1043 = EDGE_CURVE ( 'NONE', #526, #484, #475, .T. ) ;
#1044 = CARTESIAN_POINT ( 'NONE',  ( -19.00000000000000355, 18.99999999999999645, 3.000000000000000000 ) ) ;
#1045 = DIRECTION ( 'NONE',  ( 1.622713204935689011E-18, 6.591949208711871889E-17, 1.000000000000000000 ) ) ;
#1046 = CARTESIAN_POINT ( 'NONE',  ( 18.99999999999999645, 14.99999999999989875, -6.924999999996864553 ) ) ;
#1047 = LINE ( 'NONE', #640, #296 ) ;
#1048 = DIRECTION ( 'NONE',  ( -1.000000000000000000, 0.000000000000000000, 0.000000000000000000 ) ) ;
#1049 = DIRECTION ( 'NONE',  ( 1.622713204935689011E-18, 6.591949208711871889E-17, 1.000000000000000000 ) ) ;
#1050 = VECTOR ( 'NONE', #811, 1000.000000000000000 ) ;
#1051 = ORIENTED_EDGE ( 'NONE', *, *, #772, .F. ) ;
#1052 = EDGE_CURVE ( 'NONE', #280, #577, #102, .T. ) ;
#1053 = AXIS2_PLACEMENT_3D ( 'NONE', #11, #351, #670 ) ;
#1054 = CIRCLE ( 'NONE', #763, 3.249999999999999556 ) ;
#1055 = ORIENTED_EDGE ( 'NONE', *, *, #559, .T. ) ;
#1056 = FACE_OUTER_BOUND ( 'NONE', #996, .T. ) ;
#1057 = FACE_OUTER_BOUND ( 'NONE', #674, .T. ) ;
#1058 = ORIENTED_EDGE ( 'NONE', *, *, #973, .F. ) ;
ENDSEC;
END-ISO-10303-21;
