ISO-10303-21;
HEADER;
FILE_DESCRIPTION (( 'STEP AP214' ),
    '1' );
FILE_NAME ('009_008_Up_down_bearing_grip.STEP',
    '2024-07-21T08:27:31',
    ( '' ),
    ( '' ),
    'SwSTEP 2.0',
    'SolidWorks 2019',
    '' );
FILE_SCHEMA (( 'AUTOMOTIVE_DESIGN' ));
ENDSEC;

DATA;
#1 = EDGE_CURVE ( 'NONE', #515, #747, #828, .T. ) ;
#2 = ORIENTED_EDGE ( 'NONE', *, *, #520, .F. ) ;
#3 = CARTESIAN_POINT ( 'NONE',  ( -44.10945494822378521, 8.956977243138014799, 3.000000000000000000 ) ) ;
#4 = ADVANCED_FACE ( 'NONE', ( #645, #74 ), #376, .T. ) ;
#5 = FACE_OUTER_BOUND ( 'NONE', #757, .T. ) ;
#6 = FACE_BOUND ( 'NONE', #877, .T. ) ;
#7 = ORIENTED_EDGE ( 'NONE', *, *, #952, .T. ) ;
#8 =( NAMED_UNIT ( * ) SI_UNIT ( $, .STERADIAN. ) SOLID_ANGLE_UNIT ( ) );
#9 = AXIS2_PLACEMENT_3D ( 'NONE', #197, #863, #503 ) ;
#10 = CARTESIAN_POINT ( 'NONE',  ( -27.09050640489627781, -9.030375978297218609, -4.949747468306520126 ) ) ;
#11 = EDGE_CURVE ( 'NONE', #260, #595, #190, .T. ) ;
#12 = ORIENTED_EDGE ( 'NONE', *, *, #496, .F. ) ;
#13 = CARTESIAN_POINT ( 'NONE',  ( 0.000000000000000000, 0.000000000000000000, 0.000000000000000000 ) ) ;
#14 = CARTESIAN_POINT ( 'NONE',  ( 0.000000000000000000, 0.000000000000000000, 5.000000000000000000 ) ) ;
#15 = ADVANCED_FACE ( 'NONE', ( #523 ), #796, .F. ) ;
#16 = ORIENTED_EDGE ( 'NONE', *, *, #535, .T. ) ;
#17 = DIRECTION ( 'NONE',  ( 1.000000000000000000, 0.000000000000000000, 0.000000000000000000 ) ) ;
#18 = DIRECTION ( 'NONE',  ( 0.000000000000000000, 0.000000000000000000, 1.000000000000000000 ) ) ;
#19 = DIRECTION ( 'NONE',  ( 0.000000000000000000, 0.000000000000000000, 1.000000000000000000 ) ) ;
#20 = ORIENTED_EDGE ( 'NONE', *, *, #281, .T. ) ;
#21 = DIRECTION ( 'NONE',  ( 1.000000000000000000, 0.000000000000000000, 0.000000000000000000 ) ) ;
#22 = ORIENTED_EDGE ( 'NONE', *, *, #168, .T. ) ;
#23 = VECTOR ( 'NONE', #445, 1000.000000000000000 ) ;
#24 = ADVANCED_FACE ( 'NONE', ( #419 ), #725, .F. ) ;
#25 = CARTESIAN_POINT ( 'NONE',  ( -39.10945494822330204, 8.956977243138014799, 3.000000000000000000 ) ) ;
#26 = TOROIDAL_SURFACE ( 'NONE', #779, 14.49999999999999822, 1.000000000000000000 ) ;
#27 = AXIS2_PLACEMENT_3D ( 'NONE', #380, #683, #306 ) ;
#28 = ORIENTED_EDGE ( 'NONE', *, *, #408, .F. ) ;
#29 = DIRECTION ( 'NONE',  ( -0.000000000000000000, -0.000000000000000000, 1.000000000000000000 ) ) ;
#30 = ORIENTED_EDGE ( 'NONE', *, *, #874, .F. ) ;
#31 = STYLED_ITEM ( 'NONE', ( #965 ), #607 ) ;
#32 = FACE_BOUND ( 'NONE', #155, .T. ) ;
#33 = EDGE_LOOP ( 'NONE', ( #614, #731, #22, #932 ) ) ;
#34 = DIRECTION ( 'NONE',  ( -0.000000000000000000, -0.000000000000000000, 1.000000000000000000 ) ) ;
#35 = ORIENTED_EDGE ( 'NONE', *, *, #699, .T. ) ;
#36 = ORIENTED_EDGE ( 'NONE', *, *, #905, .T. ) ;
#37 = DIRECTION ( 'NONE',  ( 1.000000000000000000, 0.000000000000000000, 0.000000000000000000 ) ) ;
#38 = DIRECTION ( 'NONE',  ( -0.000000000000000000, -0.000000000000000000, 1.000000000000000000 ) ) ;
#39 = AXIS2_PLACEMENT_3D ( 'NONE', #480, #471, #928 ) ;
#40 = AXIS2_PLACEMENT_3D ( 'NONE', #211, #508, #140 ) ;
#41 = CIRCLE ( 'NONE', #587, 1.749999999994363620 ) ;
#42 = VERTEX_POINT ( 'NONE', #372 ) ;
#43 = DIRECTION ( 'NONE',  ( 1.000000000000000000, 0.000000000000000000, 0.000000000000000000 ) ) ;
#44 = ADVANCED_FACE ( 'NONE', ( #295, #567, #141, #186, #6, #514 ), #599, .F. ) ;
#45 = DIRECTION ( 'NONE',  ( 1.000000000000000000, 0.000000000000000000, 0.000000000000000000 ) ) ;
#46 = AXIS2_PLACEMENT_3D ( 'NONE', #774, #851, #223 ) ;
#47 = ADVANCED_FACE ( 'NONE', ( #193 ), #26, .T. ) ;
#48 = DIRECTION ( 'NONE',  ( 1.000000000000000000, 0.000000000000000000, 0.000000000000000000 ) ) ;
#49 = VERTEX_POINT ( 'NONE', #220 ) ;
#50 = DIRECTION ( 'NONE',  ( -0.000000000000000000, -0.000000000000000000, -1.000000000000000000 ) ) ;
#51 = DIRECTION ( 'NONE',  ( 0.000000000000000000, 0.000000000000000000, 1.000000000000000000 ) ) ;
#52 = ORIENTED_EDGE ( 'NONE', *, *, #522, .T. ) ;
#53 = LINE ( 'NONE', #436, #285 ) ;
#54 = DIRECTION ( 'NONE',  ( -0.000000000000000000, -0.000000000000000000, 1.000000000000000000 ) ) ;
#55 = AXIS2_PLACEMENT_3D ( 'NONE', #640, #175, #262 ) ;
#56 = ORIENTED_EDGE ( 'NONE', *, *, #60, .F. ) ;
#57 =( LENGTH_UNIT ( ) NAMED_UNIT ( * ) SI_UNIT ( .MILLI., .METRE. ) );
#58 = DIRECTION ( 'NONE',  ( -0.000000000000000000, -0.000000000000000000, -1.000000000000000000 ) ) ;
#59 = VECTOR ( 'NONE', #386, 1000.000000000000000 ) ;
#60 = EDGE_CURVE ( 'NONE', #276, #790, #344, .T. ) ;
#61 = ORIENTED_EDGE ( 'NONE', *, *, #761, .F. ) ;
#62 = DIRECTION ( 'NONE',  ( 1.000000000000000000, 0.000000000000000000, 0.000000000000000000 ) ) ;
#63 = PLANE ( 'NONE',  #447 ) ;
#64 = PRODUCT_DEFINITION_CONTEXT ( 'detailed design', #241, 'design' ) ;
#65 = ORIENTED_EDGE ( 'NONE', *, *, #671, .T. ) ;
#66 = CARTESIAN_POINT ( 'NONE',  ( -44.09049975119515352, -9.043012776317715051, 3.000000000000000000 ) ) ;
#67 = FACE_BOUND ( 'NONE', #639, .T. ) ;
#68 = DIRECTION ( 'NONE',  ( 0.001053066501588196613, -0.9999994455253179426, 0.000000000000000000 ) ) ;
#69 = VECTOR ( 'NONE', #603, 1000.000000000000000 ) ;
#70 = EDGE_LOOP ( 'NONE', ( #817, #907, #507, #458 ) ) ;
#71 = EDGE_CURVE ( 'NONE', #42, #487, #208, .T. ) ;
#72 = MECHANICAL_DESIGN_GEOMETRIC_PRESENTATION_REPRESENTATION (  '', ( #975 ), #944 ) ;
#73 = DIRECTION ( 'NONE',  ( -0.000000000000000000, -0.000000000000000000, 1.000000000000000000 ) ) ;
#74 = FACE_BOUND ( 'NONE', #656, .T. ) ;
#75 = ORIENTED_EDGE ( 'NONE', *, *, #346, .F. ) ;
#76 = LINE ( 'NONE', #90, #209 ) ;
#77 = CARTESIAN_POINT ( 'NONE',  ( -28.85946160191913279, 8.969614041158504136, 3.000000000000000000 ) ) ;
#78 = ORIENTED_EDGE ( 'NONE', *, *, #389, .T. ) ;
#79 = CARTESIAN_POINT ( 'NONE',  ( -44.10945494822378521, 8.956977243138014799, 3.000000000000000000 ) ) ;
#80 = CARTESIAN_POINT ( 'NONE',  ( -0.02000826353017579051, 18.99998946498105212, 5.000000000000000000 ) ) ;
#81 = ADVANCED_FACE ( 'NONE', ( #500 ), #875, .T. ) ;
#82 = ORIENTED_EDGE ( 'NONE', *, *, #296, .F. ) ;
#83 = DIRECTION ( 'NONE',  ( 1.000000000000000000, 0.000000000000000000, 0.000000000000000000 ) ) ;
#84 = VECTOR ( 'NONE', #38, 1000.000000000000000 ) ;
#85 = VECTOR ( 'NONE', #564, 1000.000000000000114 ) ;
#86 = CARTESIAN_POINT ( 'NONE',  ( 0.000000000000000000, 0.000000000000000000, 5.000000000000000000 ) ) ;
#87 = CIRCLE ( 'NONE', #929, 19.00000000000000000 ) ;
#88 = CARTESIAN_POINT ( 'NONE',  ( 0.02000826353019506329, -18.99998946498104146, 4.999999999999999112 ) ) ;
#89 = EDGE_LOOP ( 'NONE', ( #708, #422 ) ) ;
#90 = CARTESIAN_POINT ( 'NONE',  ( -37.60945494822330915, 8.956977243138014799, 3.000000000000000000 ) ) ;
#91 = CARTESIAN_POINT ( 'NONE',  ( 13.50000000000000178, 0.000000000000000000, 1.000000000000000000 ) ) ;
#92 = ORIENTED_EDGE ( 'NONE', *, *, #761, .T. ) ;
#93 = EDGE_CURVE ( 'NONE', #790, #210, #751, .T. ) ;
#94 = CARTESIAN_POINT ( 'NONE',  ( -37.59049975119475562, -9.043012776317715051, 5.000000000000000000 ) ) ;
#95 = ORIENTED_EDGE ( 'NONE', *, *, #305, .F. ) ;
#96 = CYLINDRICAL_SURFACE ( 'NONE', #545, 4.950000000000000178 ) ;
#97 = ORIENTED_EDGE ( 'NONE', *, *, #1, .F. ) ;
#98 = ADVANCED_FACE ( 'NONE', ( #649 ), #958, .T. ) ;
#99 = CARTESIAN_POINT ( 'NONE',  ( 0.000000000000000000, 0.000000000000000000, 5.000000000000000000 ) ) ;
#100 = ADVANCED_FACE ( 'NONE', ( #199 ), #364, .T. ) ;
#101 = AXIS2_PLACEMENT_3D ( 'NONE', #557, #497, #426 ) ;
#102 = VECTOR ( 'NONE', #754, 1000.000000000000000 ) ;
#103 = ORIENTED_EDGE ( 'NONE', *, *, #940, .F. ) ;
#104 = VERTEX_POINT ( 'NONE', #216 ) ;
#105 = CIRCLE ( 'NONE', #854, 1.750000000000202727 ) ;
#106 = CARTESIAN_POINT ( 'NONE',  ( -25.60946160192502674, 8.969614041158504136, 3.000000000000000000 ) ) ;
#107 = ORIENTED_EDGE ( 'NONE', *, *, #848, .T. ) ;
#108 = CARTESIAN_POINT ( 'NONE',  ( -28.84050640489063966, -9.030375978297218609, -4.949747468306520126 ) ) ;
#109 = ORIENTED_EDGE ( 'NONE', *, *, #93, .T. ) ;
#110 = PRODUCT_DEFINITION_FORMATION_WITH_SPECIFIED_SOURCE ( 'ANY', '', #111, .NOT_KNOWN. ) ;
#111 = PRODUCT ( '009_008_Up_down_bearing_grip', '009_008_Up_down_bearing_grip', '', ( #442 ) ) ;
#112 = CARTESIAN_POINT ( 'NONE',  ( -44.97996678510912716, -19.04737745755251055, 5.000000000000000000 ) ) ;
#113 = EDGE_CURVE ( 'NONE', #444, #747, #517, .T. ) ;
#114 = ORIENTED_EDGE ( 'NONE', *, *, #952, .F. ) ;
#115 = DIRECTION ( 'NONE',  ( 0.000000000000000000, 0.000000000000000000, 1.000000000000000000 ) ) ;
#116 = CARTESIAN_POINT ( 'NONE',  ( -28.85946160191913279, 8.969614041158504136, 0.000000000000000000 ) ) ;
#117 = AXIS2_PLACEMENT_3D ( 'NONE', #290, #272, #572 ) ;
#118 = AXIS2_PLACEMENT_3D ( 'NONE', #903, #235, #144 ) ;
#119 = CARTESIAN_POINT ( 'NONE',  ( -28.85946160191913279, 8.969614041158504136, -4.949747468306520126 ) ) ;
#120 = DIRECTION ( 'NONE',  ( 1.000000000000000000, 0.000000000000000000, 0.000000000000000000 ) ) ;
#121 = EDGE_LOOP ( 'NONE', ( #462, #862, #114, #403 ) ) ;
#122 = PLANE ( 'NONE',  #637 ) ;
#123 = VECTOR ( 'NONE', #404, 1000.000000000000000 ) ;
#124 = CARTESIAN_POINT ( 'NONE',  ( -0.02000826353020716819, 18.99998946498104146, -58.95933319566120190 ) ) ;
#125 = ORIENTED_EDGE ( 'NONE', *, *, #533, .T. ) ;
#126 = CARTESIAN_POINT ( 'NONE',  ( -40.85945494822354362, 8.956977243138014799, 5.000000000000000000 ) ) ;
#127 = ORIENTED_EDGE ( 'NONE', *, *, #454, .T. ) ;
#128 = DIRECTION ( 'NONE',  ( 0.000000000000000000, -1.000000000000000000, 0.000000000000000000 ) ) ;
#129 = AXIS2_PLACEMENT_3D ( 'NONE', #289, #58, #351 ) ;
#130 = AXIS2_PLACEMENT_3D ( 'NONE', #126, #429, #888 ) ;
#131 = ORIENTED_EDGE ( 'NONE', *, *, #756, .T. ) ;
#132 = DIRECTION ( 'NONE',  ( 0.000000000000000000, 0.000000000000000000, 1.000000000000000000 ) ) ;
#133 = ORIENTED_EDGE ( 'NONE', *, *, #805, .F. ) ;
#134 = SURFACE_STYLE_FILL_AREA ( #809 ) ;
#135 = CARTESIAN_POINT ( 'NONE',  ( 1.025872769961214492E-12, -9.588135615336898627E-14, -4.500000000000000000 ) ) ;
#136 = DIRECTION ( 'NONE',  ( 1.000000000000000000, 0.000000000000000000, -0.000000000000000000 ) ) ;
#137 = EDGE_CURVE ( 'NONE', #473, #104, #283, .T. ) ;
#138 =( NAMED_UNIT ( * ) SI_UNIT ( $, .STERADIAN. ) SOLID_ANGLE_UNIT ( ) );
#139 = VERTEX_POINT ( 'NONE', #170 ) ;
#140 = DIRECTION ( 'NONE',  ( -1.000000000000000000, 0.000000000000000000, 0.000000000000000000 ) ) ;
#141 = FACE_BOUND ( 'NONE', #773, .T. ) ;
#142 = CIRCLE ( 'NONE', #352, 3.250000000000197176 ) ;
#143 = VERTEX_POINT ( 'NONE', #244 ) ;
#144 = DIRECTION ( 'NONE',  ( 1.000000000000000000, 0.000000000000000000, 0.000000000000000000 ) ) ;
#145 = VECTOR ( 'NONE', #662, 1000.000000000000000 ) ;
#146 = CARTESIAN_POINT ( 'NONE',  ( -40.84049975119495457, -9.043012776317715051, 3.000000000000000000 ) ) ;
#147 = DIRECTION ( 'NONE',  ( -0.000000000000000000, -0.000000000000000000, -1.000000000000000000 ) ) ;
#148 = EDGE_LOOP ( 'NONE', ( #205, #103 ) ) ;
#149 = CYLINDRICAL_SURFACE ( 'NONE', #750, 3.249999999994364952 ) ;
#150 = DIRECTION ( 'NONE',  ( 0.000000000000000000, 0.000000000000000000, 1.000000000000000000 ) ) ;
#151 = ORIENTED_EDGE ( 'NONE', *, *, #212, .T. ) ;
#152 = DIRECTION ( 'NONE',  ( 0.000000000000000000, 0.000000000000000000, 1.000000000000000000 ) ) ;
#153 = CYLINDRICAL_SURFACE ( 'NONE', #767, 3.250000000000238920 ) ;
#154 = CARTESIAN_POINT ( 'NONE',  ( -44.09049975119515352, -9.043012776317715051, 5.000000000000000000 ) ) ;
#155 = EDGE_LOOP ( 'NONE', ( #490, #353 ) ) ;
#156 = DIRECTION ( 'NONE',  ( -0.000000000000000000, -0.000000000000000000, -1.000000000000000000 ) ) ;
#157 = AXIS2_PLACEMENT_3D ( 'NONE', #670, #593, #900 ) ;
#158 = CIRCLE ( 'NONE', #55, 4.950000000000000178 ) ;
#159 = CIRCLE ( 'NONE', #510, 1.749999999994103383 ) ;
#160 = CARTESIAN_POINT ( 'NONE',  ( -28.85946160191913279, 8.969614041158504136, 3.000000000000000000 ) ) ;
#161 = ORIENTED_EDGE ( 'NONE', *, *, #212, .F. ) ;
#162 = DIRECTION ( 'NONE',  ( 0.000000000000000000, 0.000000000000000000, 1.000000000000000000 ) ) ;
#163 = DIRECTION ( 'NONE',  ( 1.000000000000000000, 0.000000000000000000, 0.000000000000000000 ) ) ;
#164 = FACE_OUTER_BOUND ( 'NONE', #898, .T. ) ;
#165 = ADVANCED_FACE ( 'NONE', ( #917, #700, #233, #855, #912 ), #841, .T. ) ;
#166 = EDGE_LOOP ( 'NONE', ( #949, #131, #631, #297 ) ) ;
#167 = DIRECTION ( 'NONE',  ( 0.000000000000000000, 0.000000000000000000, 1.000000000000000000 ) ) ;
#168 = EDGE_CURVE ( 'NONE', #431, #577, #475, .T. ) ;
#169 = VERTEX_POINT ( 'NONE', #317 ) ;
#170 = CARTESIAN_POINT ( 'NONE',  ( -42.60945494822379231, 8.956977243138014799, 0.000000000000000000 ) ) ;
#171 = VERTEX_POINT ( 'NONE', #154 ) ;
#172 = DIRECTION ( 'NONE',  ( -0.000000000000000000, -0.000000000000000000, 1.000000000000000000 ) ) ;
#173 = VERTEX_POINT ( 'NONE', #91 ) ;
#174 = CIRCLE ( 'NONE', #399, 3.249999999994104716 ) ;
#175 = DIRECTION ( 'NONE',  ( 0.000000000000000000, 0.000000000000000000, -1.000000000000000000 ) ) ;
#176 = VERTEX_POINT ( 'NONE', #465 ) ;
#177 = LINE ( 'NONE', #488, #356 ) ;
#178 = CIRCLE ( 'NONE', #590, 3.249999999994104716 ) ;
#179 = ADVANCED_FACE ( 'NONE', ( #164 ), #301, .T. ) ;
#180 = CARTESIAN_POINT ( 'NONE',  ( -40.84049975119495457, -9.043012776317715051, 3.000000000000000000 ) ) ;
#181 = ORIENTED_EDGE ( 'NONE', *, *, #370, .F. ) ;
#182 = DIRECTION ( 'NONE',  ( 1.000000000000000000, 0.000000000000000000, 0.000000000000000000 ) ) ;
#183 = EDGE_CURVE ( 'NONE', #253, #171, #189, .T. ) ;
#184 = ORIENTED_EDGE ( 'NONE', *, *, #772, .F. ) ;
#185 = CARTESIAN_POINT ( 'NONE',  ( 4.950000000001026912, -9.588135615336898627E-14, -4.500000000000000000 ) ) ;
#186 = FACE_BOUND ( 'NONE', #850, .T. ) ;
#187 = FACE_OUTER_BOUND ( 'NONE', #842, .T. ) ;
#188 = CARTESIAN_POINT ( 'NONE',  ( -4.949999999998974332, -9.527515598779104603E-14, -4.500000000000000000 ) ) ;
#189 = CIRCLE ( 'NONE', #893, 3.250000000000197176 ) ;
#190 = CIRCLE ( 'NONE', #224, 1.750000000000244471 ) ;
#191 = AXIS2_PLACEMENT_3D ( 'NONE', #77, #375, #679 ) ;
#192 = EDGE_CURVE ( 'NONE', #633, #409, #613, .T. ) ;
#193 = FACE_OUTER_BOUND ( 'NONE', #606, .T. ) ;
#194 = DIRECTION ( 'NONE',  ( 1.000000000000000000, 0.000000000000000000, 0.000000000000000000 ) ) ;
#195 = VERTEX_POINT ( 'NONE', #765 ) ;
#196 = DIRECTION ( 'NONE',  ( 1.000000000000000000, 0.000000000000000000, 0.000000000000000000 ) ) ;
#197 = CARTESIAN_POINT ( 'NONE',  ( 0.000000000000000000, 0.000000000000000000, 1.000000000000000000 ) ) ;
#198 = AXIS2_PLACEMENT_3D ( 'NONE', #876, #413, #704 ) ;
#199 = FACE_OUTER_BOUND ( 'NONE', #856, .T. ) ;
#200 = VERTEX_POINT ( 'NONE', #88 ) ;
#201 = FILL_AREA_STYLE_COLOUR ( '', #367 ) ;
#202 = EDGE_CURVE ( 'NONE', #526, #444, #667, .T. ) ;
#203 = CYLINDRICAL_SURFACE ( 'NONE', #284, 3.249999999994104716 ) ;
#204 = APPLICATION_CONTEXT ( 'automotive_design' ) ;
#205 = ORIENTED_EDGE ( 'NONE', *, *, #183, .F. ) ;
#206 = CARTESIAN_POINT ( 'NONE',  ( -30.60946160191323528, 8.969614041158504136, 3.000000000000000000 ) ) ;
#207 = VECTOR ( 'NONE', #73, 1000.000000000000000 ) ;
#208 = CIRCLE ( 'NONE', #366, 1.749999999994103383 ) ;
#209 = VECTOR ( 'NONE', #763, 1000.000000000000000 ) ;
#210 = VERTEX_POINT ( 'NONE', #80 ) ;
#211 = CARTESIAN_POINT ( 'NONE',  ( 1.025872769961214492E-12, -9.588135615336898627E-14, 1.000000000000000000 ) ) ;
#212 = EDGE_CURVE ( 'NONE', #565, #176, #618, .T. ) ;
#213 = VERTEX_POINT ( 'NONE', #544 ) ;
#214 = LINE ( 'NONE', #66, #145 ) ;
#215 = CYLINDRICAL_SURFACE ( 'NONE', #736, 3.250000000000238920 ) ;
#216 = CARTESIAN_POINT ( 'NONE',  ( -14.49999999999999822, 1.775737858763662015E-15, 0.000000000000000000 ) ) ;
#217 = ORIENTED_EDGE ( 'NONE', *, *, #370, .T. ) ;
#218 = CARTESIAN_POINT ( 'NONE',  ( -28.84050640489063966, -9.030375978297218609, 0.000000000000000000 ) ) ;
#219 = FACE_OUTER_BOUND ( 'NONE', #263, .T. ) ;
#220 = CARTESIAN_POINT ( 'NONE',  ( -30.59050640488500505, -9.030375978297218609, 3.000000000000000000 ) ) ;
#221 = VECTOR ( 'NONE', #556, 1000.000000000000000 ) ;
#222 = ORIENTED_EDGE ( 'NONE', *, *, #192, .F. ) ;
#223 = DIRECTION ( 'NONE',  ( 1.000000000000000000, 0.000000000000000000, 0.000000000000000000 ) ) ;
#224 = AXIS2_PLACEMENT_3D ( 'NONE', #680, #147, #676 ) ;
#225 = PRESENTATION_LAYER_ASSIGNMENT (  '', '', ( #975 ) ) ;
#226 = CARTESIAN_POINT ( 'NONE',  ( -40.85945494822354362, 8.956977243138014799, 3.000000000000000000 ) ) ;
#227 = UNCERTAINTY_MEASURE_WITH_UNIT (LENGTH_MEASURE( 1.000000000000000082E-05 ), #968, 'distance_accuracy_value', 'NONE');
#228 = CARTESIAN_POINT ( 'NONE',  ( -14.49999999999999822, 1.775737858763662015E-15, 1.000000000000000000 ) ) ;
#229 = ORIENTED_EDGE ( 'NONE', *, *, #359, .F. ) ;
#230 = CARTESIAN_POINT ( 'NONE',  ( -40.85945494822354362, 8.956977243138014799, 5.000000000000000000 ) ) ;
#231 = DIRECTION ( 'NONE',  ( 1.000000000000000000, 0.000000000000000000, 0.000000000000000000 ) ) ;
#232 = ADVANCED_FACE ( 'NONE', ( #393 ), #325, .F. ) ;
#233 = FACE_BOUND ( 'NONE', #394, .T. ) ;
#234 = ORIENTED_EDGE ( 'NONE', *, *, #653, .F. ) ;
#235 = DIRECTION ( 'NONE',  ( -0.000000000000000000, -0.000000000000000000, -1.000000000000000000 ) ) ;
#236 = ADVANCED_FACE ( 'NONE', ( #617, #538 ), #846, .T. ) ;
#237 = DIRECTION ( 'NONE',  ( 1.000000000000000000, 0.000000000000000000, 0.000000000000000000 ) ) ;
#238 = ORIENTED_EDGE ( 'NONE', *, *, #594, .T. ) ;
#239 = DIRECTION ( 'NONE',  ( -0.000000000000000000, -0.000000000000000000, -1.000000000000000000 ) ) ;
#240 = AXIS2_PLACEMENT_3D ( 'NONE', #14, #696, #529 ) ;
#241 = APPLICATION_CONTEXT ( 'automotive_design' ) ;
#242 = DIRECTION ( 'NONE',  ( 0.000000000000000000, 0.000000000000000000, 1.000000000000000000 ) ) ;
#243 = AXIS2_PLACEMENT_3D ( 'NONE', #13, #694, #21 ) ;
#244 = CARTESIAN_POINT ( 'NONE',  ( 0.02000826353019679801, -18.99998946498104146, -3.469446951953614189E-15 ) ) ;
#245 = EDGE_CURVE ( 'NONE', #487, #42, #717, .T. ) ;
#246 = ORIENTED_EDGE ( 'NONE', *, *, #346, .T. ) ;
#247 = CARTESIAN_POINT ( 'NONE',  ( -37.59049975119475562, -9.043012776317715051, 3.000000000000000000 ) ) ;
#248 = VECTOR ( 'NONE', #950, 1000.000000000000114 ) ;
#249 = ORIENTED_EDGE ( 'NONE', *, *, #286, .T. ) ;
#250 = CARTESIAN_POINT ( 'NONE',  ( -30.59050640488500505, -9.030375978297218609, -4.949747468306520126 ) ) ;
#251 = PRODUCT_RELATED_PRODUCT_CATEGORY ( 'part', '', ( #111 ) ) ;
#252 = DIRECTION ( 'NONE',  ( 0.000000000000000000, 0.000000000000000000, 1.000000000000000000 ) ) ;
#253 = VERTEX_POINT ( 'NONE', #94 ) ;
#254 = CARTESIAN_POINT ( 'NONE',  ( -40.85945494822354362, 8.956977243138014799, 3.000000000000000000 ) ) ;
#255 = ORIENTED_EDGE ( 'NONE', *, *, #192, .T. ) ;
#256 = DIRECTION ( 'NONE',  ( 1.000000000000000000, 0.000000000000000000, 0.000000000000000000 ) ) ;
#257 = VECTOR ( 'NONE', #499, 1000.000000000000114 ) ;
#258 = AXIS2_PLACEMENT_3D ( 'NONE', #453, #242, #543 ) ;
#259 = CARTESIAN_POINT ( 'NONE',  ( 0.000000000000000000, 0.000000000000000000, 1.000000000000000000 ) ) ;
#260 = VERTEX_POINT ( 'NONE', #25 ) ;
#261 = FACE_OUTER_BOUND ( 'NONE', #831, .T. ) ;
#262 = DIRECTION ( 'NONE',  ( -1.000000000000000000, 0.000000000000000000, 0.000000000000000000 ) ) ;
#263 = EDGE_LOOP ( 'NONE', ( #484, #955, #646, #234 ) ) ;
#264 =( NAMED_UNIT ( * ) SI_UNIT ( $, .STERADIAN. ) SOLID_ANGLE_UNIT ( ) );
#265 = DIRECTION ( 'NONE',  ( -0.9999994455253179426, -0.001053066501588198565, 0.000000000000000000 ) ) ;
#266 = DIRECTION ( 'NONE',  ( -0.000000000000000000, -0.000000000000000000, -1.000000000000000000 ) ) ;
#267 = CARTESIAN_POINT ( 'NONE',  ( 0.000000000000000000, 0.000000000000000000, 0.000000000000000000 ) ) ;
#268 = ORIENTED_EDGE ( 'NONE', *, *, #795, .F. ) ;
#269 = FACE_BOUND ( 'NONE', #582, .T. ) ;
#270 = AXIS2_PLACEMENT_3D ( 'NONE', #116, #723, #45 ) ;
#271 = EDGE_CURVE ( 'NONE', #276, #792, #624, .T. ) ;
#272 = DIRECTION ( 'NONE',  ( -0.001053066501588198782, 0.9999994455253179426, 0.000000000000000000 ) ) ;
#273 = EDGE_LOOP ( 'NONE', ( #941, #768, #643, #65 ) ) ;
#274 = DIRECTION ( 'NONE',  ( -0.000000000000000000, -0.000000000000000000, 1.000000000000000000 ) ) ;
#275 = DIRECTION ( 'NONE',  ( 0.000000000000000000, 0.000000000000000000, 1.000000000000000000 ) ) ;
#276 = VERTEX_POINT ( 'NONE', #550 ) ;
#277 = CARTESIAN_POINT ( 'NONE',  ( 4.950000000001026912, -9.588135615336898627E-14, 1.000000000000000000 ) ) ;
#278 = FILL_AREA_STYLE_COLOUR ( '', #457 ) ;
#279 = EDGE_LOOP ( 'NONE', ( #887, #939, #972, #326 ) ) ;
#280 = CARTESIAN_POINT ( 'NONE',  ( -42.59049975119516063, -9.043012776317715051, 0.000000000000000000 ) ) ;
#281 = EDGE_CURVE ( 'NONE', #210, #792, #634, .T. ) ;
#282 = CARTESIAN_POINT ( 'NONE',  ( -30.59050640488500505, -9.030375978297218609, 0.000000000000000000 ) ) ;
#283 = CIRCLE ( 'NONE', #794, 1.000000000000000888 ) ;
#284 = AXIS2_PLACEMENT_3D ( 'NONE', #745, #976, #897 ) ;
#285 = VECTOR ( 'NONE', #274, 1000.000000000000000 ) ;
#286 = EDGE_CURVE ( 'NONE', #334, #176, #800, .T. ) ;
#287 = ORIENTED_EDGE ( 'NONE', *, *, #616, .F. ) ;
#288 = SURFACE_STYLE_USAGE ( .BOTH. , #665 ) ;
#289 = CARTESIAN_POINT ( 'NONE',  ( -28.84050640489063966, -9.030375978297218609, 3.000000000000000000 ) ) ;
#290 = CARTESIAN_POINT ( 'NONE',  ( -0.02000826353020716819, 18.99998946498104146, -58.95933319566120190 ) ) ;
#291 = CIRCLE ( 'NONE', #934, 3.250000000000238920 ) ;
#292 = ORIENTED_EDGE ( 'NONE', *, *, #71, .F. ) ;
#293 = CARTESIAN_POINT ( 'NONE',  ( -37.59049975119475562, -9.043012776317715051, 3.000000000000000000 ) ) ;
#294 = DIRECTION ( 'NONE',  ( 0.000000000000000000, 0.000000000000000000, -1.000000000000000000 ) ) ;
#295 = FACE_BOUND ( 'NONE', #661, .T. ) ;
#296 = EDGE_CURVE ( 'NONE', #200, #309, #711, .T. ) ;
#297 = ORIENTED_EDGE ( 'NONE', *, *, #981, .F. ) ;
#298 = DIRECTION ( 'NONE',  ( 1.000000000000000000, 0.000000000000000000, 0.000000000000000000 ) ) ;
#299 = CARTESIAN_POINT ( 'NONE',  ( -28.84050640489063966, -9.030375978297218609, 5.000000000000000000 ) ) ;
#300 = EDGE_CURVE ( 'NONE', #536, #139, #509, .T. ) ;
#301 = CYLINDRICAL_SURFACE ( 'NONE', #971, 19.00000000000000000 ) ;
#302 = CIRCLE ( 'NONE', #270, 1.749999999994103383 ) ;
#303 = VERTEX_POINT ( 'NONE', #716 ) ;
#304 = DIRECTION ( 'NONE',  ( 1.000000000000000000, 0.000000000000000000, 0.000000000000000000 ) ) ;
#305 = EDGE_CURVE ( 'NONE', #718, #487, #411, .T. ) ;
#306 = DIRECTION ( 'NONE',  ( -1.000000000000000000, 0.000000000000000000, 0.000000000000000000 ) ) ;
#307 = DIRECTION ( 'NONE',  ( -1.000000000000000000, 1.224646799147353454E-16, 0.000000000000000000 ) ) ;
#308 = AXIS2_PLACEMENT_3D ( 'NONE', #108, #29, #120 ) ;
#309 = VERTEX_POINT ( 'NONE', #112 ) ;
#310 = CARTESIAN_POINT ( 'NONE',  ( -32.09050640488500505, -9.030375978297218609, 5.000000000000000000 ) ) ;
#311 = DIRECTION ( 'NONE',  ( -0.000000000000000000, -0.000000000000000000, 1.000000000000000000 ) ) ;
#312 = CARTESIAN_POINT ( 'NONE',  ( -28.85946160191913279, 8.969614041158504136, 5.000000000000000000 ) ) ;
#313 = VERTEX_POINT ( 'NONE', #793 ) ;
#314 = CARTESIAN_POINT ( 'NONE',  ( 0.000000000000000000, 0.000000000000000000, 1.000000000000000000 ) ) ;
#315 = ADVANCED_FACE ( 'NONE', ( #789 ), #878, .F. ) ;
#316 = CARTESIAN_POINT ( 'NONE',  ( -27.10946160192503029, 8.969614041158504136, -4.949747468306520126 ) ) ;
#317 = CARTESIAN_POINT ( 'NONE',  ( -39.09049975119475562, -9.043012776317715051, 3.000000000000000000 ) ) ;
#318 = ADVANCED_FACE ( 'NONE', ( #491, #32 ), #122, .T. ) ;
#319 = ORIENTED_EDGE ( 'NONE', *, *, #909, .T. ) ;
#320 = CYLINDRICAL_SURFACE ( 'NONE', #308, 1.749999999994363620 ) ;
#321 = AXIS2_PLACEMENT_3D ( 'NONE', #338, #806, #938 ) ;
#322 = VECTOR ( 'NONE', #778, 1000.000000000000000 ) ;
#323 = EDGE_LOOP ( 'NONE', ( #222, #410, #902, #546 ) ) ;
#324 = AXIS2_PLACEMENT_3D ( 'NONE', #392, #911, #691 ) ;
#325 = CYLINDRICAL_SURFACE ( 'NONE', #748, 1.749999999994103383 ) ;
#326 = ORIENTED_EDGE ( 'NONE', *, *, #712, .F. ) ;
#327 = CARTESIAN_POINT ( 'NONE',  ( -40.85945494822354362, 8.956977243138014799, -4.949747468306520126 ) ) ;
#328 =( GEOMETRIC_REPRESENTATION_CONTEXT ( 3 ) GLOBAL_UNCERTAINTY_ASSIGNED_CONTEXT ( ( #438 ) ) GLOBAL_UNIT_ASSIGNED_CONTEXT ( ( #632, #787, #264 ) ) REPRESENTATION_CONTEXT ( 'NONE', 'WORKASPACE' ) );
#329 = ORIENTED_EDGE ( 'NONE', *, *, #730, .T. ) ;
#330 = DIRECTION ( 'NONE',  ( -0.000000000000000000, -0.000000000000000000, 1.000000000000000000 ) ) ;
#331 = EDGE_CURVE ( 'NONE', #368, #641, #158, .T. ) ;
#332 = ORIENTED_EDGE ( 'NONE', *, *, #296, .T. ) ;
#333 = CYLINDRICAL_SURFACE ( 'NONE', #423, 3.249999999994364952 ) ;
#334 = VERTEX_POINT ( 'NONE', #106 ) ;
#335 = VERTEX_POINT ( 'NONE', #784 ) ;
#336 = CARTESIAN_POINT ( 'NONE',  ( -28.84050640489063966, -9.030375978297218609, 3.000000000000000000 ) ) ;
#337 = CIRCLE ( 'NONE', #895, 1.750000000000202727 ) ;
#338 = CARTESIAN_POINT ( 'NONE',  ( -40.84049975119495457, -9.043012776317715051, 3.000000000000000000 ) ) ;
#339 = ORIENTED_EDGE ( 'NONE', *, *, #554, .F. ) ;
#340 = ORIENTED_EDGE ( 'NONE', *, *, #60, .T. ) ;
#341 = AXIS2_PLACEMENT_3D ( 'NONE', #451, #925, #537 ) ;
#342 = EDGE_CURVE ( 'NONE', #169, #409, #483, .T. ) ;
#343 = LINE ( 'NONE', #185, #973 ) ;
#344 = LINE ( 'NONE', #954, #85 ) ;
#345 = EDGE_LOOP ( 'NONE', ( #469, #519, #184, #28 ) ) ;
#346 = EDGE_CURVE ( 'NONE', #641, #435, #343, .T. ) ;
#347 = CARTESIAN_POINT ( 'NONE',  ( -0.02000826353020716819, 18.99998946498104146, 5.000000000000000000 ) ) ;
#348 = EDGE_CURVE ( 'NONE', #143, #780, #418, .T. ) ;
#349 = DIRECTION ( 'NONE',  ( 0.000000000000000000, 0.000000000000000000, 1.000000000000000000 ) ) ;
#350 = ORIENTED_EDGE ( 'NONE', *, *, #348, .F. ) ;
#351 = DIRECTION ( 'NONE',  ( 1.000000000000000000, 0.000000000000000000, 0.000000000000000000 ) ) ;
#352 = AXIS2_PLACEMENT_3D ( 'NONE', #623, #18, #163 ) ;
#353 = ORIENTED_EDGE ( 'NONE', *, *, #981, .T. ) ;
#354 = DIRECTION ( 'NONE',  ( 1.000000000000000000, 0.000000000000000000, 0.000000000000000000 ) ) ;
#355 = CARTESIAN_POINT ( 'NONE',  ( 0.000000000000000000, 0.000000000000000000, 0.000000000000000000 ) ) ;
#356 = VECTOR ( 'NONE', #946, 1000.000000000000000 ) ;
#357 = ORIENTED_EDGE ( 'NONE', *, *, #286, .F. ) ;
#358 = CARTESIAN_POINT ( 'NONE',  ( -27.09050640489627781, -9.030375978297218609, 0.000000000000000000 ) ) ;
#359 = EDGE_CURVE ( 'NONE', #804, #718, #302, .T. ) ;
#360 = FILL_AREA_STYLE ('',( #278 ) ) ;
#361 = ORIENTED_EDGE ( 'NONE', *, *, #113, .T. ) ;
#362 = DIRECTION ( 'NONE',  ( -0.000000000000000000, -0.000000000000000000, 1.000000000000000000 ) ) ;
#363 = DIRECTION ( 'NONE',  ( 1.000000000000000000, 0.000000000000000000, -0.000000000000000000 ) ) ;
#364 = CYLINDRICAL_SURFACE ( 'NONE', #157, 4.950000000000000178 ) ;
#365 = AXIS2_PLACEMENT_3D ( 'NONE', #312, #381, #237 ) ;
#366 = AXIS2_PLACEMENT_3D ( 'NONE', #456, #266, #755 ) ;
#367 = COLOUR_RGB ( '',1.000000000000000000, 1.000000000000000000, 0.000000000000000000 ) ;
#368 = VERTEX_POINT ( 'NONE', #188 ) ;
#369 = DIRECTION ( 'NONE',  ( -0.000000000000000000, -0.000000000000000000, 1.000000000000000000 ) ) ;
#370 = EDGE_CURVE ( 'NONE', #143, #200, #644, .T. ) ;
#371 = DIRECTION ( 'NONE',  ( 1.000000000000000000, 0.000000000000000000, 0.000000000000000000 ) ) ;
#372 = CARTESIAN_POINT ( 'NONE',  ( -27.10946160192503029, 8.969614041158504136, 3.000000000000000000 ) ) ;
#373 = ORIENTED_EDGE ( 'NONE', *, *, #756, .F. ) ;
#374 = CARTESIAN_POINT ( 'NONE',  ( -32.10946160191323173, 8.969614041158504136, 3.000000000000000000 ) ) ;
#375 = DIRECTION ( 'NONE',  ( 0.000000000000000000, 0.000000000000000000, 1.000000000000000000 ) ) ;
#376 = PLANE ( 'NONE',  #960 ) ;
#377 = ADVANCED_FACE ( 'NONE', ( #269, #571 ), #885, .T. ) ;
#378 = ORIENTED_EDGE ( 'NONE', *, *, #666, .F. ) ;
#379 = LINE ( 'NONE', #3, #59 ) ;
#380 = CARTESIAN_POINT ( 'NONE',  ( 0.000000000000000000, 0.000000000000000000, 1.000000000000000000 ) ) ;
#381 = DIRECTION ( 'NONE',  ( 0.000000000000000000, 0.000000000000000000, 1.000000000000000000 ) ) ;
#382 = ADVANCED_FACE ( 'NONE', ( #407 ), #864, .T. ) ;
#383 = CIRCLE ( 'NONE', #40, 4.950000000000000178 ) ;
#384 = CIRCLE ( 'NONE', #638, 3.250000000000197176 ) ;
#385 = ORIENTED_EDGE ( 'NONE', *, *, #803, .T. ) ;
#386 = DIRECTION ( 'NONE',  ( -0.000000000000000000, -0.000000000000000000, 1.000000000000000000 ) ) ;
#387 = CARTESIAN_POINT ( 'NONE',  ( -44.97996678510912716, -19.04737745755250344, 1.387778780781445676E-14 ) ) ;
#388 = CARTESIAN_POINT ( 'NONE',  ( -28.84050640489063966, -9.030375978297218609, 3.000000000000000000 ) ) ;
#389 = EDGE_CURVE ( 'NONE', #176, #565, #174, .T. ) ;
#390 = ORIENTED_EDGE ( 'NONE', *, *, #202, .T. ) ;
#391 = DIRECTION ( 'NONE',  ( 0.000000000000000000, 0.000000000000000000, 1.000000000000000000 ) ) ;
#392 = CARTESIAN_POINT ( 'NONE',  ( 1.025872769961214492E-12, -9.588135615336898627E-14, -4.500000000000000000 ) ) ;
#393 = FACE_OUTER_BOUND ( 'NONE', #811, .T. ) ;
#394 = EDGE_LOOP ( 'NONE', ( #450, #268 ) ) ;
#395 =( NAMED_UNIT ( * ) PLANE_ANGLE_UNIT ( ) SI_UNIT ( $, .RADIAN. ) );
#396 = DIRECTION ( 'NONE',  ( -1.000000000000000000, 0.000000000000000000, 0.000000000000000000 ) ) ;
#397 = ORIENTED_EDGE ( 'NONE', *, *, #533, .F. ) ;
#398 = CYLINDRICAL_SURFACE ( 'NONE', #801, 1.749999999994363620 ) ;
#399 = AXIS2_PLACEMENT_3D ( 'NONE', #942, #521, #810 ) ;
#400 = ORIENTED_EDGE ( 'NONE', *, *, #625, .F. ) ;
#401 = VECTOR ( 'NONE', #818, 1000.000000000000000 ) ;
#402 = DIRECTION ( 'NONE',  ( 1.000000000000000000, 0.000000000000000000, 0.000000000000000000 ) ) ;
#403 = ORIENTED_EDGE ( 'NONE', *, *, #271, .F. ) ;
#404 = DIRECTION ( 'NONE',  ( -0.000000000000000000, -0.000000000000000000, 1.000000000000000000 ) ) ;
#405 = VECTOR ( 'NONE', #547, 1000.000000000000000 ) ;
#406 = ORIENTED_EDGE ( 'NONE', *, *, #496, .T. ) ;
#407 = FACE_OUTER_BOUND ( 'NONE', #345, .T. ) ;
#408 = EDGE_CURVE ( 'NONE', #173, #303, #943, .T. ) ;
#409 = VERTEX_POINT ( 'NONE', #815 ) ;
#410 = ORIENTED_EDGE ( 'NONE', *, *, #807, .T. ) ;
#411 = LINE ( 'NONE', #873, #84 ) ;
#412 = ORIENTED_EDGE ( 'NONE', *, *, #389, .F. ) ;
#413 = DIRECTION ( 'NONE',  ( -0.9999994455253179426, -0.001053066501587990398, 0.000000000000000000 ) ) ;
#414 = ORIENTED_EDGE ( 'NONE', *, *, #342, .F. ) ;
#415 = VECTOR ( 'NONE', #349, 1000.000000000000000 ) ;
#416 = VECTOR ( 'NONE', #330, 1000.000000000000000 ) ;
#417 = CIRCLE ( 'NONE', #243, 19.00000000000000000 ) ;
#418 = LINE ( 'NONE', #495, #257 ) ;
#419 = FACE_OUTER_BOUND ( 'NONE', #808, .T. ) ;
#420 = DIRECTION ( 'NONE',  ( 1.000000000000000000, 0.000000000000000000, 0.000000000000000000 ) ) ;
#421 = EDGE_CURVE ( 'NONE', #703, #565, #749, .T. ) ;
#422 = ORIENTED_EDGE ( 'NONE', *, *, #245, .T. ) ;
#423 = AXIS2_PLACEMENT_3D ( 'NONE', #336, #172, #182 ) ;
#424 = EDGE_CURVE ( 'NONE', #710, #195, #524, .T. ) ;
#425 = DIRECTION ( 'NONE',  ( -0.000000000000000000, -0.000000000000000000, 1.000000000000000000 ) ) ;
#426 = DIRECTION ( 'NONE',  ( 1.000000000000000000, 0.000000000000000000, 0.000000000000000000 ) ) ;
#427 = APPLICATION_PROTOCOL_DEFINITION ( 'draft international standard', 'automotive_design', 1998, #241 ) ;
#428 = ORIENTED_EDGE ( 'NONE', *, *, #1, .T. ) ;
#429 = DIRECTION ( 'NONE',  ( 0.000000000000000000, 0.000000000000000000, 1.000000000000000000 ) ) ;
#430 = DIRECTION ( 'NONE',  ( 1.000000000000000000, 0.000000000000000000, 0.000000000000000000 ) ) ;
#431 = VERTEX_POINT ( 'NONE', #358 ) ;
#432 = FACE_OUTER_BOUND ( 'NONE', #978, .T. ) ;
#433 = DIRECTION ( 'NONE',  ( 0.000000000000000000, 0.000000000000000000, -1.000000000000000000 ) ) ;
#434 = ADVANCED_FACE ( 'NONE', ( #738 ), #215, .F. ) ;
#435 = VERTEX_POINT ( 'NONE', #277 ) ;
#436 = CARTESIAN_POINT ( 'NONE',  ( -39.09049975119475562, -9.043012776317715051, -4.949747468306520126 ) ) ;
#437 = DIRECTION ( 'NONE',  ( -0.000000000000000000, -0.000000000000000000, -1.000000000000000000 ) ) ;
#438 = UNCERTAINTY_MEASURE_WITH_UNIT (LENGTH_MEASURE( 1.000000000000000082E-05 ), #632, 'distance_accuracy_value', 'NONE');
#439 = ORIENTED_EDGE ( 'NONE', *, *, #874, .T. ) ;
#440 = DIRECTION ( 'NONE',  ( 1.000000000000000000, 0.000000000000000000, 0.000000000000000000 ) ) ;
#441 = DIRECTION ( 'NONE',  ( 0.9999994455253179426, 0.001053066501588196613, 0.000000000000000000 ) ) ;
#442 = PRODUCT_CONTEXT ( 'NONE', #204, 'mechanical' ) ;
#443 = EDGE_CURVE ( 'NONE', #577, #49, #720, .T. ) ;
#444 = VERTEX_POINT ( 'NONE', #970 ) ;
#445 = DIRECTION ( 'NONE',  ( 0.000000000000000000, 0.000000000000000000, 1.000000000000000000 ) ) ;
#446 = DIRECTION ( 'NONE',  ( 1.000000000000000000, 0.000000000000000000, 0.000000000000000000 ) ) ;
#447 = AXIS2_PLACEMENT_3D ( 'NONE', #146, #275, #363 ) ;
#448 = AXIS2_PLACEMENT_3D ( 'NONE', #982, #830, #48 ) ;
#449 = CIRCLE ( 'NONE', #191, 3.249999999994104716 ) ;
#450 = ORIENTED_EDGE ( 'NONE', *, *, #671, .F. ) ;
#451 = CARTESIAN_POINT ( 'NONE',  ( 1.025872769961214492E-12, -9.588135615336898627E-14, 1.000000000000000000 ) ) ;
#452 = ADVANCED_FACE ( 'NONE', ( #899 ), #203, .F. ) ;
#453 = CARTESIAN_POINT ( 'NONE',  ( -28.84050640489063966, -9.030375978297218609, 3.000000000000000000 ) ) ;
#454 = EDGE_CURVE ( 'NONE', #104, #303, #812, .T. ) ;
#455 = ADVANCED_FACE ( 'NONE', ( #219 ), #655, .F. ) ;
#456 = CARTESIAN_POINT ( 'NONE',  ( -28.85946160191913279, 8.969614041158504136, 3.000000000000000000 ) ) ;
#457 = COLOUR_RGB ( '',1.000000000000000000, 1.000000000000000000, 0.000000000000000000 ) ;
#458 = ORIENTED_EDGE ( 'NONE', *, *, #853, .F. ) ;
#459 = DIRECTION ( 'NONE',  ( -0.000000000000000000, -0.000000000000000000, -1.000000000000000000 ) ) ;
#460 = CARTESIAN_POINT ( 'NONE',  ( -28.84050640489063966, -9.030375978297218609, 3.000000000000000000 ) ) ;
#461 = DIRECTION ( 'NONE',  ( 0.000000000000000000, 0.000000000000000000, 1.000000000000000000 ) ) ;
#462 = ORIENTED_EDGE ( 'NONE', *, *, #522, .F. ) ;
#463 = CARTESIAN_POINT ( 'NONE',  ( -27.10946160192503029, 8.969614041158504136, 0.000000000000000000 ) ) ;
#464 = CARTESIAN_POINT ( 'NONE',  ( -27.09050640489627781, -9.030375978297218609, 3.000000000000000000 ) ) ;
#465 = CARTESIAN_POINT ( 'NONE',  ( -25.60946160192502674, 8.969614041158504136, 5.000000000000000000 ) ) ;
#466 = EDGE_CURVE ( 'NONE', #409, #169, #337, .T. ) ;
#467 = AXIS2_PLACEMENT_3D ( 'NONE', #160, #19, #775 ) ;
#468 = VECTOR ( 'NONE', #892, 1000.000000000000000 ) ;
#469 = ORIENTED_EDGE ( 'NONE', *, *, #610, .F. ) ;
#470 = CARTESIAN_POINT ( 'NONE',  ( -0.02000826353017579051, 18.99998946498105212, 0.000000000000000000 ) ) ;
#471 = DIRECTION ( 'NONE',  ( -0.000000000000000000, -0.000000000000000000, -1.000000000000000000 ) ) ;
#472 = AXIS2_PLACEMENT_3D ( 'NONE', #327, #34, #715 ) ;
#473 = VERTEX_POINT ( 'NONE', #591 ) ;
#474 = CARTESIAN_POINT ( 'NONE',  ( -44.97996678510912716, -19.04737745755251055, 1.387778780781445676E-14 ) ) ;
#475 = LINE ( 'NONE', #10, #69 ) ;
#476 = VERTEX_POINT ( 'NONE', #282 ) ;
#477 = DIRECTION ( 'NONE',  ( 1.000000000000000000, 0.000000000000000000, 0.000000000000000000 ) ) ;
#478 = ADVANCED_FACE ( 'NONE', ( #823, #67 ), #63, .T. ) ;
#479 = ORIENTED_EDGE ( 'NONE', *, *, #331, .F. ) ;
#480 = CARTESIAN_POINT ( 'NONE',  ( -28.85946160191913279, 8.969614041158504136, 3.000000000000000000 ) ) ;
#481 = ORIENTED_EDGE ( 'NONE', *, *, #783, .F. ) ;
#482 = CARTESIAN_POINT ( 'NONE',  ( -25.59050640489627426, -9.030375978297218609, 3.000000000000000000 ) ) ;
#483 = CIRCLE ( 'NONE', #604, 1.750000000000202727 ) ;
#484 = ORIENTED_EDGE ( 'NONE', *, *, #699, .F. ) ;
#485 = DIRECTION ( 'NONE',  ( -0.9999994455253179426, -0.001053066501588196613, -0.000000000000000000 ) ) ;
#486 = EDGE_CURVE ( 'NONE', #139, #595, #659, .T. ) ;
#487 = VERTEX_POINT ( 'NONE', #206 ) ;
#488 = CARTESIAN_POINT ( 'NONE',  ( -4.949999999998974332, -9.527515598779104603E-14, -4.500000000000000000 ) ) ;
#489 = CIRCLE ( 'NONE', #341, 4.950000000000000178 ) ;
#490 = ORIENTED_EDGE ( 'NONE', *, *, #11, .T. ) ;
#491 = FACE_OUTER_BOUND ( 'NONE', #629, .T. ) ;
#492 = ORIENTED_EDGE ( 'NONE', *, *, #305, .T. ) ;
#493 = CARTESIAN_POINT ( 'NONE',  ( -40.85945494822354362, 8.956977243138014799, 3.000000000000000000 ) ) ;
#494 = ORIENTED_EDGE ( 'NONE', *, *, #578, .T. ) ;
#495 = CARTESIAN_POINT ( 'NONE',  ( -44.97996678510910584, -19.04737745755251055, 1.387778780781445676E-14 ) ) ;
#496 = EDGE_CURVE ( 'NONE', #313, #435, #383, .T. ) ;
#497 = DIRECTION ( 'NONE',  ( 0.000000000000000000, 0.000000000000000000, 1.000000000000000000 ) ) ;
#498 = CARTESIAN_POINT ( 'NONE',  ( 1.025872769961214492E-12, -9.588135615336898627E-14, -4.500000000000000000 ) ) ;
#499 = DIRECTION ( 'NONE',  ( -0.9999994455253179426, -0.001053066501588196396, 2.977370437452629614E-16 ) ) ;
#500 = FACE_OUTER_BOUND ( 'NONE', #762, .T. ) ;
#501 = ORIENTED_EDGE ( 'NONE', *, *, #93, .F. ) ;
#502 = AXIS2_PLACEMENT_3D ( 'NONE', #493, #636, #43 ) ;
#503 = DIRECTION ( 'NONE',  ( -1.000000000000000000, 0.000000000000000000, -0.000000000000000000 ) ) ;
#504 = EDGE_LOOP ( 'NONE', ( #412, #161 ) ) ;
#505 = EDGE_CURVE ( 'NONE', #780, #309, #742, .T. ) ;
#506 = DIRECTION ( 'NONE',  ( 1.000000000000000000, 0.000000000000000000, 0.000000000000000000 ) ) ;
#507 = ORIENTED_EDGE ( 'NONE', *, *, #11, .F. ) ;
#508 = DIRECTION ( 'NONE',  ( 0.000000000000000000, 0.000000000000000000, -1.000000000000000000 ) ) ;
#509 = CIRCLE ( 'NONE', #586, 1.750000000000244471 ) ;
#510 = AXIS2_PLACEMENT_3D ( 'NONE', #884, #963, #196 ) ;
#511 = ORIENTED_EDGE ( 'NONE', *, *, #168, .F. ) ;
#512 = DIRECTION ( 'NONE',  ( 1.000000000000000000, 0.000000000000000000, 0.000000000000000000 ) ) ;
#513 = FACE_OUTER_BOUND ( 'NONE', #860, .T. ) ;
#514 = FACE_OUTER_BOUND ( 'NONE', #924, .T. ) ;
#515 = VERTEX_POINT ( 'NONE', #585 ) ;
#516 = CARTESIAN_POINT ( 'NONE',  ( -40.84049975119495457, -9.043012776317715051, 3.000000000000000000 ) ) ;
#517 = LINE ( 'NONE', #771, #845 ) ;
#518 = ADVANCED_FACE ( 'NONE', ( #513 ), #820, .T. ) ;
#519 = ORIENTED_EDGE ( 'NONE', *, *, #137, .T. ) ;
#520 = EDGE_CURVE ( 'NONE', #894, #552, #142, .T. ) ;
#521 = DIRECTION ( 'NONE',  ( 0.000000000000000000, 0.000000000000000000, 1.000000000000000000 ) ) ;
#522 = EDGE_CURVE ( 'NONE', #780, #276, #839, .T. ) ;
#523 = FACE_OUTER_BOUND ( 'NONE', #930, .T. ) ;
#524 = CIRCLE ( 'NONE', #957, 3.250000000000238920 ) ;
#525 = CIRCLE ( 'NONE', #130, 3.250000000000238920 ) ;
#526 = VERTEX_POINT ( 'NONE', #926 ) ;
#527 = PLANE ( 'NONE',  #198 ) ;
#528 = DIRECTION ( 'NONE',  ( 1.000000000000000000, 0.000000000000000000, 0.000000000000000000 ) ) ;
#529 = DIRECTION ( 'NONE',  ( 1.000000000000000000, 0.000000000000000000, -0.000000000000000000 ) ) ;
#530 = AXIS2_PLACEMENT_3D ( 'NONE', #218, #459, #758 ) ;
#531 = ORIENTED_EDGE ( 'NONE', *, *, #653, .T. ) ;
#532 = CARTESIAN_POINT ( 'NONE',  ( -30.60946160191323528, 8.969614041158504136, 0.000000000000000000 ) ) ;
#533 = EDGE_CURVE ( 'NONE', #641, #368, #701, .T. ) ;
#534 = DIRECTION ( 'NONE',  ( -0.000000000000000000, -0.000000000000000000, 1.000000000000000000 ) ) ;
#535 = EDGE_CURVE ( 'NONE', #804, #42, #933, .T. ) ;
#536 = VERTEX_POINT ( 'NONE', #834 ) ;
#537 = DIRECTION ( 'NONE',  ( -1.000000000000000000, 0.000000000000000000, 0.000000000000000000 ) ) ;
#538 = FACE_BOUND ( 'NONE', #89, .T. ) ;
#539 = AXIS2_PLACEMENT_3D ( 'NONE', #388, #461, #760 ) ;
#540 = AXIS2_PLACEMENT_3D ( 'NONE', #615, #156, #298 ) ;
#541 = ORIENTED_EDGE ( 'NONE', *, *, #443, .T. ) ;
#542 = CYLINDRICAL_SURFACE ( 'NONE', #46, 1.750000000000244471 ) ;
#543 = DIRECTION ( 'NONE',  ( 1.000000000000000000, 0.000000000000000000, 0.000000000000000000 ) ) ;
#544 = CARTESIAN_POINT ( 'NONE',  ( -37.60945494822330915, 8.956977243138014799, 5.000000000000000000 ) ) ;
#545 = AXIS2_PLACEMENT_3D ( 'NONE', #498, #797, #477 ) ;
#546 = ORIENTED_EDGE ( 'NONE', *, *, #466, .F. ) ;
#547 = DIRECTION ( 'NONE',  ( -0.000000000000000000, -0.000000000000000000, 1.000000000000000000 ) ) ;
#548 = ORIENTED_EDGE ( 'NONE', *, *, #616, .T. ) ;
#549 = LINE ( 'NONE', #250, #102 ) ;
#550 = CARTESIAN_POINT ( 'NONE',  ( -45.01998331216947236, 18.95260147240957238, 6.938893903907228378E-15 ) ) ;
#551 = AXIS2_PLACEMENT_3D ( 'NONE', #267, #660, #194 ) ;
#552 = VERTEX_POINT ( 'NONE', #602 ) ;
#553 = LINE ( 'NONE', #791, #123 ) ;
#554 = EDGE_CURVE ( 'NONE', #444, #526, #686, .T. ) ;
#555 = ORIENTED_EDGE ( 'NONE', *, *, #562, .T. ) ;
#556 = DIRECTION ( 'NONE',  ( 0.000000000000000000, 0.000000000000000000, 1.000000000000000000 ) ) ;
#557 = CARTESIAN_POINT ( 'NONE',  ( -28.84050640489063966, -9.030375978297218609, 5.000000000000000000 ) ) ;
#558 = DIRECTION ( 'NONE',  ( 0.000000000000000000, 0.000000000000000000, 1.000000000000000000 ) ) ;
#559 = ORIENTED_EDGE ( 'NONE', *, *, #520, .T. ) ;
#560 = CARTESIAN_POINT ( 'NONE',  ( -44.97996678510912716, -19.04737745755251055, 5.000000000000000000 ) ) ;
#561 = ORIENTED_EDGE ( 'NONE', *, *, #535, .F. ) ;
#562 = EDGE_CURVE ( 'NONE', #476, #49, #549, .T. ) ;
#563 = DIRECTION ( 'NONE',  ( -0.000000000000000000, -0.000000000000000000, -1.000000000000000000 ) ) ;
#564 = DIRECTION ( 'NONE',  ( 0.9999994455253179426, 0.001053066501588198565, -2.977370437452629614E-16 ) ) ;
#565 = VERTEX_POINT ( 'NONE', #916 ) ;
#566 = DIRECTION ( 'NONE',  ( 1.000000000000000000, 0.000000000000000000, 0.000000000000000000 ) ) ;
#567 = FACE_BOUND ( 'NONE', #681, .T. ) ;
#568 = ORIENTED_EDGE ( 'NONE', *, *, #424, .T. ) ;
#569 = AXIS2_PLACEMENT_3D ( 'NONE', #135, #294, #904 ) ;
#570 = VECTOR ( 'NONE', #612, 1000.000000000000000 ) ;
#571 = FACE_OUTER_BOUND ( 'NONE', #735, .T. ) ;
#572 = DIRECTION ( 'NONE',  ( -0.9999994455253179426, -0.001053066501588198782, 0.000000000000000000 ) ) ;
#573 = ORIENTED_EDGE ( 'NONE', *, *, #271, .T. ) ;
#574 = PRESENTATION_LAYER_ASSIGNMENT (  '', '', ( #31 ) ) ;
#575 = DIRECTION ( 'NONE',  ( 0.000000000000000000, 0.000000000000000000, 1.000000000000000000 ) ) ;
#576 = APPLICATION_PROTOCOL_DEFINITION ( 'draft international standard', 'automotive_design', 1998, #204 ) ;
#577 = VERTEX_POINT ( 'NONE', #464 ) ;
#578 = EDGE_CURVE ( 'NONE', #747, #515, #654, .T. ) ;
#579 = CARTESIAN_POINT ( 'NONE',  ( -42.60945494822379231, 8.956977243138014799, -4.949747468306520126 ) ) ;
#580 = UNCERTAINTY_MEASURE_WITH_UNIT (LENGTH_MEASURE( 1.000000000000000082E-05 ), #57, 'distance_accuracy_value', 'NONE');
#581 = SURFACE_STYLE_FILL_AREA ( #360 ) ;
#582 = EDGE_LOOP ( 'NONE', ( #133, #12 ) ) ;
#583 = CARTESIAN_POINT ( 'NONE',  ( 4.950000000001026912, -9.588135615336898627E-14, -4.500000000000000000 ) ) ;
#584 = VECTOR ( 'NONE', #252, 1000.000000000000000 ) ;
#585 = CARTESIAN_POINT ( 'NONE',  ( -25.59050640489627426, -9.030375978297218609, 5.000000000000000000 ) ) ;
#586 = AXIS2_PLACEMENT_3D ( 'NONE', #728, #50, #566 ) ;
#587 = AXIS2_PLACEMENT_3D ( 'NONE', #698, #601, #304 ) ;
#588 = ORIENTED_EDGE ( 'NONE', *, *, #331, .T. ) ;
#589 = FACE_OUTER_BOUND ( 'NONE', #323, .T. ) ;
#590 = AXIS2_PLACEMENT_3D ( 'NONE', #857, #167, #420 ) ;
#591 = CARTESIAN_POINT ( 'NONE',  ( -13.50000000000000178, 1.714505518806294835E-15, 1.000000000000000000 ) ) ;
#592 = ADVANCED_FACE ( 'NONE', ( #921 ), #153, .F. ) ;
#593 = DIRECTION ( 'NONE',  ( -0.000000000000000000, -0.000000000000000000, 1.000000000000000000 ) ) ;
#594 = EDGE_CURVE ( 'NONE', #334, #703, #449, .T. ) ;
#595 = VERTEX_POINT ( 'NONE', #764 ) ;
#596 = DIRECTION ( 'NONE',  ( -1.000000000000000000, 0.000000000000000000, 0.000000000000000000 ) ) ;
#597 = ADVANCED_FACE ( 'NONE', ( #5 ), #149, .F. ) ;
#598 = CARTESIAN_POINT ( 'NONE',  ( -44.97996678510912716, -19.04737745755251055, -58.95933319566120190 ) ) ;
#599 = PLANE ( 'NONE',  #882 ) ;
#600 = ORIENTED_EDGE ( 'NONE', *, *, #772, .T. ) ;
#601 = DIRECTION ( 'NONE',  ( -0.000000000000000000, -0.000000000000000000, -1.000000000000000000 ) ) ;
#602 = CARTESIAN_POINT ( 'NONE',  ( -44.09049975119515352, -9.043012776317715051, 3.000000000000000000 ) ) ;
#603 = DIRECTION ( 'NONE',  ( -0.000000000000000000, -0.000000000000000000, 1.000000000000000000 ) ) ;
#604 = AXIS2_PLACEMENT_3D ( 'NONE', #180, #563, #430 ) ;
#605 = AXIS2_PLACEMENT_3D ( 'NONE', #119, #729, #446 ) ;
#606 = EDGE_LOOP ( 'NONE', ( #697, #61, #858, #714 ) ) ;
#607 = ADVANCED_BREP_SHAPE_REPRESENTATION ( '009_008_Up_down_bearing_grip', ( #690, #551 ), #328 ) ;
#608 = DIRECTION ( 'NONE',  ( 1.224646799147353207E-16, 1.000000000000000000, -0.000000000000000000 ) ) ;
#609 = AXIS2_PLACEMENT_3D ( 'NONE', #777, #628, #37 ) ;
#610 = EDGE_CURVE ( 'NONE', #473, #173, #702, .T. ) ;
#611 = ORIENTED_EDGE ( 'NONE', *, *, #421, .T. ) ;
#612 = DIRECTION ( 'NONE',  ( -0.000000000000000000, -0.000000000000000000, 1.000000000000000000 ) ) ;
#613 = LINE ( 'NONE', #706, #322 ) ;
#614 = ORIENTED_EDGE ( 'NONE', *, *, #562, .F. ) ;
#615 = CARTESIAN_POINT ( 'NONE',  ( -40.85945494822354362, 8.956977243138014799, 0.000000000000000000 ) ) ;
#616 = EDGE_CURVE ( 'NONE', #200, #210, #87, .T. ) ;
#617 = FACE_OUTER_BOUND ( 'NONE', #752, .T. ) ;
#618 = CIRCLE ( 'NONE', #365, 3.249999999994104716 ) ;
#619 = CIRCLE ( 'NONE', #833, 14.49999999999999822 ) ;
#620 = ORIENTED_EDGE ( 'NONE', *, *, #348, .T. ) ;
#621 = DIRECTION ( 'NONE',  ( 1.000000000000000000, 0.000000000000000000, 0.000000000000000000 ) ) ;
#622 = ORIENTED_EDGE ( 'NONE', *, *, #466, .T. ) ;
#623 = CARTESIAN_POINT ( 'NONE',  ( -40.84049975119495457, -9.043012776317715051, 3.000000000000000000 ) ) ;
#624 = LINE ( 'NONE', #935, #584 ) ;
#625 = EDGE_CURVE ( 'NONE', #552, #171, #214, .T. ) ;
#626 = ADVANCED_FACE ( 'NONE', ( #432 ), #732, .F. ) ;
#627 = EDGE_LOOP ( 'NONE', ( #56, #573, #651, #501 ) ) ;
#628 = DIRECTION ( 'NONE',  ( 0.000000000000000000, 0.000000000000000000, 1.000000000000000000 ) ) ;
#629 = EDGE_LOOP ( 'NONE', ( #36, #568 ) ) ;
#630 = CARTESIAN_POINT ( 'NONE',  ( -44.97996678510912716, -19.04737745755251055, 4.999999999999997335 ) ) ;
#631 = ORIENTED_EDGE ( 'NONE', *, *, #853, .T. ) ;
#632 =( LENGTH_UNIT ( ) NAMED_UNIT ( * ) SI_UNIT ( .MILLI., .METRE. ) );
#633 = VERTEX_POINT ( 'NONE', #280 ) ;
#634 = LINE ( 'NONE', #347, #880 ) ;
#635 = ORIENTED_EDGE ( 'NONE', *, *, #342, .T. ) ;
#636 = DIRECTION ( 'NONE',  ( -0.000000000000000000, -0.000000000000000000, -1.000000000000000000 ) ) ;
#637 = AXIS2_PLACEMENT_3D ( 'NONE', #254, #647, #956 ) ;
#638 = AXIS2_PLACEMENT_3D ( 'NONE', #967, #391, #17 ) ;
#639 = EDGE_LOOP ( 'NONE', ( #635, #622 ) ) ;
#640 = CARTESIAN_POINT ( 'NONE',  ( 1.025872769961214492E-12, -9.588135615336898627E-14, -4.500000000000000000 ) ) ;
#641 = VERTEX_POINT ( 'NONE', #583 ) ;
#642 = FACE_OUTER_BOUND ( 'NONE', #33, .T. ) ;
#643 = ORIENTED_EDGE ( 'NONE', *, *, #712, .T. ) ;
#644 = LINE ( 'NONE', #953, #221 ) ;
#645 = FACE_OUTER_BOUND ( 'NONE', #672, .T. ) ;
#646 = ORIENTED_EDGE ( 'NONE', *, *, #940, .T. ) ;
#647 = DIRECTION ( 'NONE',  ( 0.000000000000000000, 0.000000000000000000, 1.000000000000000000 ) ) ;
#648 = ADVANCED_FACE ( 'NONE', ( #589 ), #896, .F. ) ;
#649 = FACE_OUTER_BOUND ( 'NONE', #627, .T. ) ;
#650 = SURFACE_SIDE_STYLE ('',( #581 ) ) ;
#651 = ORIENTED_EDGE ( 'NONE', *, *, #281, .F. ) ;
#652 = AXIS2_PLACEMENT_3D ( 'NONE', #355, #132, #675 ) ;
#653 = EDGE_CURVE ( 'NONE', #894, #253, #673, .T. ) ;
#654 = CIRCLE ( 'NONE', #961, 3.249999999994364952 ) ;
#655 = CYLINDRICAL_SURFACE ( 'NONE', #847, 3.250000000000197176 ) ;
#656 = EDGE_LOOP ( 'NONE', ( #541, #329 ) ) ;
#657 = CIRCLE ( 'NONE', #530, 1.749999999994363620 ) ;
#658 = PRESENTATION_STYLE_ASSIGNMENT (( #288 ) ) ;
#659 = LINE ( 'NONE', #579, #468 ) ;
#660 = DIRECTION ( 'NONE',  ( 0.000000000000000000, 0.000000000000000000, 1.000000000000000000 ) ) ;
#661 = EDGE_LOOP ( 'NONE', ( #705, #677 ) ) ;
#662 = DIRECTION ( 'NONE',  ( -0.000000000000000000, -0.000000000000000000, 1.000000000000000000 ) ) ;
#663 = DIRECTION ( 'NONE',  ( 1.000000000000000000, 0.000000000000000000, 0.000000000000000000 ) ) ;
#664 = EDGE_LOOP ( 'NONE', ( #559, #35 ) ) ;
#665 = SURFACE_SIDE_STYLE ('',( #134 ) ) ;
#666 = EDGE_CURVE ( 'NONE', #718, #804, #159, .T. ) ;
#667 = CIRCLE ( 'NONE', #539, 3.249999999994364952 ) ;
#668 = CARTESIAN_POINT ( 'NONE',  ( 14.49999999999999822, 0.000000000000000000, 1.000000000000000000 ) ) ;
#669 = CIRCLE ( 'NONE', #798, 13.50000000000000000 ) ;
#670 = CARTESIAN_POINT ( 'NONE',  ( 1.025872769961214492E-12, -9.588135615336898627E-14, -4.500000000000000000 ) ) ;
#671 = EDGE_CURVE ( 'NONE', #213, #890, #525, .T. ) ;
#672 = EDGE_LOOP ( 'NONE', ( #390, #872 ) ) ;
#673 = LINE ( 'NONE', #293, #401 ) ;
#674 = CIRCLE ( 'NONE', #609, 3.250000000000197176 ) ;
#675 = DIRECTION ( 'NONE',  ( 1.000000000000000000, 0.000000000000000000, 0.000000000000000000 ) ) ;
#676 = DIRECTION ( 'NONE',  ( 1.000000000000000000, 0.000000000000000000, 0.000000000000000000 ) ) ;
#677 = ORIENTED_EDGE ( 'NONE', *, *, #807, .F. ) ;
#678 = DIRECTION ( 'NONE',  ( -0.000000000000000000, -0.000000000000000000, -1.000000000000000000 ) ) ;
#679 = DIRECTION ( 'NONE',  ( 1.000000000000000000, 0.000000000000000000, 0.000000000000000000 ) ) ;
#680 = CARTESIAN_POINT ( 'NONE',  ( -40.85945494822354362, 8.956977243138014799, 3.000000000000000000 ) ) ;
#681 = EDGE_LOOP ( 'NONE', ( #481, #825 ) ) ;
#682 = DIRECTION ( 'NONE',  ( 1.000000000000000000, 0.000000000000000000, 0.000000000000000000 ) ) ;
#683 = DIRECTION ( 'NONE',  ( 0.000000000000000000, 0.000000000000000000, -1.000000000000000000 ) ) ;
#684 = DIRECTION ( 'NONE',  ( -0.000000000000000000, -0.000000000000000000, 1.000000000000000000 ) ) ;
#685 = VECTOR ( 'NONE', #485, 1000.000000000000114 ) ;
#686 = CIRCLE ( 'NONE', #258, 3.249999999994364952 ) ;
#687 = ORIENTED_EDGE ( 'NONE', *, *, #202, .F. ) ;
#688 = DIRECTION ( 'NONE',  ( 1.000000000000000000, 0.000000000000000000, 0.000000000000000000 ) ) ;
#689 = EDGE_CURVE ( 'NONE', #335, #169, #53, .T. ) ;
#690 = MANIFOLD_SOLID_BREP ( 'Wytnij-wyci¹gniêcie4', #737 ) ;
#691 = DIRECTION ( 'NONE',  ( -1.000000000000000000, 0.000000000000000000, 0.000000000000000000 ) ) ;
#692 = DIRECTION ( 'NONE',  ( 1.000000000000000000, 0.000000000000000000, 0.000000000000000000 ) ) ;
#693 = EDGE_LOOP ( 'NONE', ( #479, #439, #406, #75 ) ) ;
#694 = DIRECTION ( 'NONE',  ( 0.000000000000000000, 0.000000000000000000, 1.000000000000000000 ) ) ;
#695 = DIRECTION ( 'NONE',  ( 0.000000000000000000, 0.000000000000000000, 1.000000000000000000 ) ) ;
#696 = DIRECTION ( 'NONE',  ( 0.000000000000000000, 0.000000000000000000, 1.000000000000000000 ) ) ;
#697 = ORIENTED_EDGE ( 'NONE', *, *, #137, .F. ) ;
#698 = CARTESIAN_POINT ( 'NONE',  ( -28.84050640489063966, -9.030375978297218609, 0.000000000000000000 ) ) ;
#699 = EDGE_CURVE ( 'NONE', #552, #894, #384, .T. ) ;
#700 = FACE_BOUND ( 'NONE', #148, .T. ) ;
#701 = CIRCLE ( 'NONE', #324, 4.950000000000000178 ) ;
#702 = CIRCLE ( 'NONE', #27, 13.50000000000000000 ) ;
#703 = VERTEX_POINT ( 'NONE', #374 ) ;
#704 = DIRECTION ( 'NONE',  ( 0.001053066501587990398, -0.9999994455253179426, 0.000000000000000000 ) ) ;
#705 = ORIENTED_EDGE ( 'NONE', *, *, #803, .F. ) ;
#706 = CARTESIAN_POINT ( 'NONE',  ( -42.59049975119516063, -9.043012776317715051, -4.949747468306520126 ) ) ;
#707 = MECHANICAL_DESIGN_GEOMETRIC_PRESENTATION_REPRESENTATION (  '', ( #31 ), #785 ) ;
#708 = ORIENTED_EDGE ( 'NONE', *, *, #71, .T. ) ;
#709 = FACE_OUTER_BOUND ( 'NONE', #166, .T. ) ;
#710 = VERTEX_POINT ( 'NONE', #79 ) ;
#711 = LINE ( 'NONE', #630, #685 ) ;
#712 = EDGE_CURVE ( 'NONE', #195, #213, #76, .T. ) ;
#713 = PRODUCT_DEFINITION_SHAPE ( 'NONE', 'NONE',  #923 ) ;
#714 = ORIENTED_EDGE ( 'NONE', *, *, #454, .F. ) ;
#715 = DIRECTION ( 'NONE',  ( 1.000000000000000000, 0.000000000000000000, 0.000000000000000000 ) ) ;
#716 = CARTESIAN_POINT ( 'NONE',  ( 14.49999999999999822, 0.000000000000000000, 0.000000000000000000 ) ) ;
#717 = CIRCLE ( 'NONE', #39, 1.749999999994103383 ) ;
#718 = VERTEX_POINT ( 'NONE', #532 ) ;
#719 = LINE ( 'NONE', #560, #248 ) ;
#720 = CIRCLE ( 'NONE', #129, 1.749999999994363620 ) ;
#721 = CIRCLE ( 'NONE', #540, 1.750000000000244471 ) ;
#722 = ORIENTED_EDGE ( 'NONE', *, *, #113, .F. ) ;
#723 = DIRECTION ( 'NONE',  ( -0.000000000000000000, -0.000000000000000000, -1.000000000000000000 ) ) ;
#724 = CIRCLE ( 'NONE', #741, 1.750000000000202727 ) ;
#725 = CYLINDRICAL_SURFACE ( 'NONE', #448, 3.249999999994104716 ) ;
#726 = CYLINDRICAL_SURFACE ( 'NONE', #472, 1.750000000000244471 ) ;
#727 = ORIENTED_EDGE ( 'NONE', *, *, #610, .T. ) ;
#728 = CARTESIAN_POINT ( 'NONE',  ( -40.85945494822354362, 8.956977243138014799, 0.000000000000000000 ) ) ;
#729 = DIRECTION ( 'NONE',  ( -0.000000000000000000, -0.000000000000000000, 1.000000000000000000 ) ) ;
#730 = EDGE_CURVE ( 'NONE', #49, #577, #849, .T. ) ;
#731 = ORIENTED_EDGE ( 'NONE', *, *, #734, .T. ) ;
#732 = CYLINDRICAL_SURFACE ( 'NONE', #829, 1.750000000000202727 ) ;
#733 = CARTESIAN_POINT ( 'NONE',  ( -32.10946160191323173, 8.969614041158504136, 3.000000000000000000 ) ) ;
#734 = EDGE_CURVE ( 'NONE', #476, #431, #41, .T. ) ;
#735 = EDGE_LOOP ( 'NONE', ( #92, #727 ) ) ;
#736 = AXIS2_PLACEMENT_3D ( 'NONE', #889, #54, #663 ) ;
#737 = CLOSED_SHELL ( 'NONE', ( #592, #452, #597, #455, #382, #920, #626, #891, #232, #835, #879, #15, #865, #648, #179, #165, #44, #81, #840, #98, #377, #518, #100, #47, #478, #315, #4, #901, #236, #24, #318, #434 ) ) ;
#738 = FACE_OUTER_BOUND ( 'NONE', #273, .T. ) ;
#739 = SHAPE_DEFINITION_REPRESENTATION ( #713, #607 ) ;
#740 = ORIENTED_EDGE ( 'NONE', *, *, #300, .F. ) ;
#741 = AXIS2_PLACEMENT_3D ( 'NONE', #843, #239, #83 ) ;
#742 = LINE ( 'NONE', #598, #23 ) ;
#743 = EDGE_CURVE ( 'NONE', #143, #790, #417, .T. ) ;
#744 = EDGE_LOOP ( 'NONE', ( #548, #20, #7, #82 ) ) ;
#745 = CARTESIAN_POINT ( 'NONE',  ( -28.85946160191913279, 8.969614041158504136, 3.000000000000000000 ) ) ;
#746 = DIRECTION ( 'NONE',  ( 1.000000000000000000, 0.000000000000000000, 0.000000000000000000 ) ) ;
#747 = VERTEX_POINT ( 'NONE', #310 ) ;
#748 = AXIS2_PLACEMENT_3D ( 'NONE', #922, #684, #692 ) ;
#749 = LINE ( 'NONE', #733, #207 ) ;
#750 = AXIS2_PLACEMENT_3D ( 'NONE', #460, #759, #231 ) ;
#751 = LINE ( 'NONE', #124, #415 ) ;
#752 = EDGE_LOOP ( 'NONE', ( #238, #107 ) ) ;
#753 = FACE_OUTER_BOUND ( 'NONE', #121, .T. ) ;
#754 = DIRECTION ( 'NONE',  ( -0.000000000000000000, -0.000000000000000000, 1.000000000000000000 ) ) ;
#755 = DIRECTION ( 'NONE',  ( 1.000000000000000000, 0.000000000000000000, 0.000000000000000000 ) ) ;
#756 = EDGE_CURVE ( 'NONE', #139, #536, #721, .T. ) ;
#757 = EDGE_LOOP ( 'NONE', ( #339, #361, #494, #936 ) ) ;
#758 = DIRECTION ( 'NONE',  ( 1.000000000000000000, 0.000000000000000000, 0.000000000000000000 ) ) ;
#759 = DIRECTION ( 'NONE',  ( -0.000000000000000000, -0.000000000000000000, 1.000000000000000000 ) ) ;
#760 = DIRECTION ( 'NONE',  ( 1.000000000000000000, 0.000000000000000000, 0.000000000000000000 ) ) ;
#761 = EDGE_CURVE ( 'NONE', #173, #473, #669, .T. ) ;
#762 = EDGE_LOOP ( 'NONE', ( #350, #217, #332, #782 ) ) ;
#763 = DIRECTION ( 'NONE',  ( -0.000000000000000000, -0.000000000000000000, 1.000000000000000000 ) ) ;
#764 = CARTESIAN_POINT ( 'NONE',  ( -42.60945494822379231, 8.956977243138014799, 3.000000000000000000 ) ) ;
#765 = CARTESIAN_POINT ( 'NONE',  ( -37.60945494822330915, 8.956977243138014799, 3.000000000000000000 ) ) ;
#766 = AXIS2_PLACEMENT_3D ( 'NONE', #668, #128, #433 ) ;
#767 = AXIS2_PLACEMENT_3D ( 'NONE', #226, #311, #528 ) ;
#768 = ORIENTED_EDGE ( 'NONE', *, *, #905, .F. ) ;
#769 = CARTESIAN_POINT ( 'NONE',  ( -40.84049975119495457, -9.043012776317715051, 0.000000000000000000 ) ) ;
#770 = AXIS2_PLACEMENT_3D ( 'NONE', #230, #152, #919 ) ;
#771 = CARTESIAN_POINT ( 'NONE',  ( -32.09050640488500505, -9.030375978297218609, 3.000000000000000000 ) ) ;
#772 = EDGE_CURVE ( 'NONE', #303, #104, #619, .T. ) ;
#773 = EDGE_LOOP ( 'NONE', ( #229, #378 ) ) ;
#774 = CARTESIAN_POINT ( 'NONE',  ( -40.85945494822354362, 8.956977243138014799, -4.949747468306520126 ) ) ;
#775 = DIRECTION ( 'NONE',  ( 1.000000000000000000, 0.000000000000000000, -0.000000000000000000 ) ) ;
#776 = ORIENTED_EDGE ( 'NONE', *, *, #245, .F. ) ;
#777 = CARTESIAN_POINT ( 'NONE',  ( -40.84049975119495457, -9.043012776317715051, 5.000000000000000000 ) ) ;
#778 = DIRECTION ( 'NONE',  ( -0.000000000000000000, -0.000000000000000000, 1.000000000000000000 ) ) ;
#779 = AXIS2_PLACEMENT_3D ( 'NONE', #886, #51, #746 ) ;
#780 = VERTEX_POINT ( 'NONE', #474 ) ;
#781 = FACE_OUTER_BOUND ( 'NONE', #693, .T. ) ;
#782 = ORIENTED_EDGE ( 'NONE', *, *, #505, .F. ) ;
#783 = EDGE_CURVE ( 'NONE', #431, #476, #657, .T. ) ;
#784 = CARTESIAN_POINT ( 'NONE',  ( -39.09049975119475562, -9.043012776317715051, 0.000000000000000000 ) ) ;
#785 =( GEOMETRIC_REPRESENTATION_CONTEXT ( 3 ) GLOBAL_UNCERTAINTY_ASSIGNED_CONTEXT ( ( #227 ) ) GLOBAL_UNIT_ASSIGNED_CONTEXT ( ( #968, #959, #138 ) ) REPRESENTATION_CONTEXT ( 'NONE', 'WORKASPACE' ) );
#786 = EDGE_LOOP ( 'NONE', ( #400, #2, #531, #822 ) ) ;
#787 =( NAMED_UNIT ( * ) PLANE_ANGLE_UNIT ( ) SI_UNIT ( $, .RADIAN. ) );
#788 = ORIENTED_EDGE ( 'NONE', *, *, #578, .F. ) ;
#789 = FACE_OUTER_BOUND ( 'NONE', #786, .T. ) ;
#790 = VERTEX_POINT ( 'NONE', #470 ) ;
#791 = CARTESIAN_POINT ( 'NONE',  ( -39.10945494822330204, 8.956977243138014799, -4.949747468306520126 ) ) ;
#792 = VERTEX_POINT ( 'NONE', #838 ) ;
#793 = CARTESIAN_POINT ( 'NONE',  ( -4.949999999998974332, -9.527515598779104603E-14, 1.000000000000000000 ) ) ;
#794 = AXIS2_PLACEMENT_3D ( 'NONE', #228, #608, #307 ) ;
#795 = EDGE_CURVE ( 'NONE', #890, #213, #915, .T. ) ;
#796 = CYLINDRICAL_SURFACE ( 'NONE', #605, 1.749999999994103383 ) ;
#797 = DIRECTION ( 'NONE',  ( -0.000000000000000000, -0.000000000000000000, 1.000000000000000000 ) ) ;
#798 = AXIS2_PLACEMENT_3D ( 'NONE', #314, #914, #596 ) ;
#799 = ORIENTED_EDGE ( 'NONE', *, *, #743, .F. ) ;
#800 = LINE ( 'NONE', #948, #416 ) ;
#801 = AXIS2_PLACEMENT_3D ( 'NONE', #867, #931, #621 ) ;
#802 = CARTESIAN_POINT ( 'NONE',  ( -44.97996678510912716, -19.04737745755251055, -58.95933319566120190 ) ) ;
#803 = EDGE_CURVE ( 'NONE', #335, #633, #105, .T. ) ;
#804 = VERTEX_POINT ( 'NONE', #463 ) ;
#805 = EDGE_CURVE ( 'NONE', #435, #313, #489, .T. ) ;
#806 = DIRECTION ( 'NONE',  ( -0.000000000000000000, -0.000000000000000000, 1.000000000000000000 ) ) ;
#807 = EDGE_CURVE ( 'NONE', #633, #335, #724, .T. ) ;
#808 = EDGE_LOOP ( 'NONE', ( #870, #883, #249, #78 ) ) ;
#809 = FILL_AREA_STYLE ('',( #201 ) ) ;
#810 = DIRECTION ( 'NONE',  ( 1.000000000000000000, 0.000000000000000000, 0.000000000000000000 ) ) ;
#811 = EDGE_LOOP ( 'NONE', ( #969, #492, #292, #561 ) ) ;
#812 = CIRCLE ( 'NONE', #652, 14.49999999999999822 ) ;
#813 = DIRECTION ( 'NONE',  ( 0.000000000000000000, 0.000000000000000000, 1.000000000000000000 ) ) ;
#814 = AXIS2_PLACEMENT_3D ( 'NONE', #974, #369, #354 ) ;
#815 = CARTESIAN_POINT ( 'NONE',  ( -42.59049975119516063, -9.043012776317715051, 3.000000000000000000 ) ) ;
#816 = SURFACE_STYLE_USAGE ( .BOTH. , #650 ) ;
#817 = ORIENTED_EDGE ( 'NONE', *, *, #300, .T. ) ;
#818 = DIRECTION ( 'NONE',  ( -0.000000000000000000, -0.000000000000000000, 1.000000000000000000 ) ) ;
#819 = EDGE_CURVE ( 'NONE', #710, #890, #379, .T. ) ;
#820 = PLANE ( 'NONE',  #569 ) ;
#821 = CARTESIAN_POINT ( 'NONE',  ( 0.000000000000000000, 0.000000000000000000, 0.000000000000000000 ) ) ;
#822 = ORIENTED_EDGE ( 'NONE', *, *, #183, .T. ) ;
#823 = FACE_OUTER_BOUND ( 'NONE', #664, .T. ) ;
#824 = DIRECTION ( 'NONE',  ( 1.000000000000000000, 0.000000000000000000, -0.000000000000000000 ) ) ;
#825 = ORIENTED_EDGE ( 'NONE', *, *, #734, .F. ) ;
#826 = AXIS2_PLACEMENT_3D ( 'NONE', #259, #558, #868 ) ;
#827 = CARTESIAN_POINT ( 'NONE',  ( -40.85945494822354362, 8.956977243138014799, 3.000000000000000000 ) ) ;
#828 = CIRCLE ( 'NONE', #101, 3.249999999994364952 ) ;
#829 = AXIS2_PLACEMENT_3D ( 'NONE', #979, #362, #512 ) ;
#830 = DIRECTION ( 'NONE',  ( -0.000000000000000000, -0.000000000000000000, 1.000000000000000000 ) ) ;
#831 = EDGE_LOOP ( 'NONE', ( #918, #555, #866, #511 ) ) ;
#832 = CARTESIAN_POINT ( 'NONE',  ( 0.000000000000000000, 0.000000000000000000, 0.000000000000000000 ) ) ;
#833 = AXIS2_PLACEMENT_3D ( 'NONE', #832, #162, #682 ) ;
#834 = CARTESIAN_POINT ( 'NONE',  ( -39.10945494822330204, 8.956977243138014799, 0.000000000000000000 ) ) ;
#835 = ADVANCED_FACE ( 'NONE', ( #908 ), #542, .F. ) ;
#836 = CARTESIAN_POINT ( 'NONE',  ( -40.84049975119495457, -9.043012776317715051, 5.000000000000000000 ) ) ;
#837 = ORIENTED_EDGE ( 'NONE', *, *, #666, .T. ) ;
#838 = CARTESIAN_POINT ( 'NONE',  ( -45.01998331216947236, 18.95260147240957238, 5.000000000000000000 ) ) ;
#839 = LINE ( 'NONE', #387, #910 ) ;
#840 = ADVANCED_FACE ( 'NONE', ( #753 ), #527, .T. ) ;
#841 = PLANE ( 'NONE',  #240 ) ;
#842 = EDGE_LOOP ( 'NONE', ( #722, #687, #319, #428 ) ) ;
#843 = CARTESIAN_POINT ( 'NONE',  ( -40.84049975119495457, -9.043012776317715051, 0.000000000000000000 ) ) ;
#844 = DIRECTION ( 'NONE',  ( -0.001053066501587990181, 0.9999994455253179426, -1.419706948580454076E-16 ) ) ;
#845 = VECTOR ( 'NONE', #534, 1000.000000000000000 ) ;
#846 = PLANE ( 'NONE',  #467 ) ;
#847 = AXIS2_PLACEMENT_3D ( 'NONE', #516, #964, #371 ) ;
#848 = EDGE_CURVE ( 'NONE', #703, #334, #178, .T. ) ;
#849 = CIRCLE ( 'NONE', #118, 1.749999999994363620 ) ;
#850 = EDGE_LOOP ( 'NONE', ( #740, #373 ) ) ;
#851 = DIRECTION ( 'NONE',  ( -0.000000000000000000, -0.000000000000000000, 1.000000000000000000 ) ) ;
#852 = DIRECTION ( 'NONE',  ( 1.000000000000000000, 0.000000000000000000, 0.000000000000000000 ) ) ;
#853 = EDGE_CURVE ( 'NONE', #536, #260, #553, .T. ) ;
#854 = AXIS2_PLACEMENT_3D ( 'NONE', #769, #678, #688 ) ;
#855 = FACE_BOUND ( 'NONE', #504, .T. ) ;
#856 = EDGE_LOOP ( 'NONE', ( #30, #397, #246, #966 ) ) ;
#857 = CARTESIAN_POINT ( 'NONE',  ( -28.85946160191913279, 8.969614041158504136, 3.000000000000000000 ) ) ;
#858 = ORIENTED_EDGE ( 'NONE', *, *, #408, .T. ) ;
#859 = DIRECTION ( 'NONE',  ( -0.000000000000000000, -0.000000000000000000, -1.000000000000000000 ) ) ;
#860 = EDGE_LOOP ( 'NONE', ( #125, #588 ) ) ;
#861 = CARTESIAN_POINT ( 'NONE',  ( -44.10945494822378521, 8.956977243138014799, 5.000000000000000000 ) ) ;
#862 = ORIENTED_EDGE ( 'NONE', *, *, #505, .T. ) ;
#863 = DIRECTION ( 'NONE',  ( 0.000000000000000000, 0.000000000000000000, -1.000000000000000000 ) ) ;
#864 = TOROIDAL_SURFACE ( 'NONE', #826, 14.49999999999999822, 1.000000000000000000 ) ;
#865 = ADVANCED_FACE ( 'NONE', ( #642 ), #320, .F. ) ;
#866 = ORIENTED_EDGE ( 'NONE', *, *, #443, .F. ) ;
#867 = CARTESIAN_POINT ( 'NONE',  ( -28.84050640489063966, -9.030375978297218609, -4.949747468306520126 ) ) ;
#868 = DIRECTION ( 'NONE',  ( 1.000000000000000000, 0.000000000000000000, 0.000000000000000000 ) ) ;
#869 = CIRCLE ( 'NONE', #502, 1.750000000000244471 ) ;
#870 = ORIENTED_EDGE ( 'NONE', *, *, #421, .F. ) ;
#871 = CARTESIAN_POINT ( 'NONE',  ( -40.85945494822354362, 8.956977243138014799, 3.000000000000000000 ) ) ;
#872 = ORIENTED_EDGE ( 'NONE', *, *, #554, .T. ) ;
#873 = CARTESIAN_POINT ( 'NONE',  ( -30.60946160191323528, 8.969614041158504136, -4.949747468306520126 ) ) ;
#874 = EDGE_CURVE ( 'NONE', #368, #313, #177, .T. ) ;
#875 = PLANE ( 'NONE',  #927 ) ;
#876 = CARTESIAN_POINT ( 'NONE',  ( -44.97996678510912716, -19.04737745755251055, -58.95933319566120190 ) ) ;
#877 = EDGE_LOOP ( 'NONE', ( #600, #127 ) ) ;
#878 = CYLINDRICAL_SURFACE ( 'NONE', #321, 3.250000000000197176 ) ;
#879 = ADVANCED_FACE ( 'NONE', ( #709 ), #726, .F. ) ;
#880 = VECTOR ( 'NONE', #265, 1000.000000000000000 ) ;
#881 = DIRECTION ( 'NONE',  ( 0.000000000000000000, 0.000000000000000000, 1.000000000000000000 ) ) ;
#882 = AXIS2_PLACEMENT_3D ( 'NONE', #821, #906, #136 ) ;
#883 = ORIENTED_EDGE ( 'NONE', *, *, #594, .F. ) ;
#884 = CARTESIAN_POINT ( 'NONE',  ( -28.85946160191913279, 8.969614041158504136, 0.000000000000000000 ) ) ;
#885 = PLANE ( 'NONE',  #9 ) ;
#886 = CARTESIAN_POINT ( 'NONE',  ( 0.000000000000000000, 0.000000000000000000, 1.000000000000000000 ) ) ;
#887 = ORIENTED_EDGE ( 'NONE', *, *, #424, .F. ) ;
#888 = DIRECTION ( 'NONE',  ( 1.000000000000000000, 0.000000000000000000, 0.000000000000000000 ) ) ;
#889 = CARTESIAN_POINT ( 'NONE',  ( -40.85945494822354362, 8.956977243138014799, 3.000000000000000000 ) ) ;
#890 = VERTEX_POINT ( 'NONE', #861 ) ;
#891 = ADVANCED_FACE ( 'NONE', ( #261 ), #398, .F. ) ;
#892 = DIRECTION ( 'NONE',  ( -0.000000000000000000, -0.000000000000000000, 1.000000000000000000 ) ) ;
#893 = AXIS2_PLACEMENT_3D ( 'NONE', #836, #150, #402 ) ;
#894 = VERTEX_POINT ( 'NONE', #247 ) ;
#895 = AXIS2_PLACEMENT_3D ( 'NONE', #980, #437, #506 ) ;
#896 = CYLINDRICAL_SURFACE ( 'NONE', #814, 1.750000000000202727 ) ;
#897 = DIRECTION ( 'NONE',  ( 1.000000000000000000, 0.000000000000000000, 0.000000000000000000 ) ) ;
#898 = EDGE_LOOP ( 'NONE', ( #287, #181, #945, #109 ) ) ;
#899 = FACE_OUTER_BOUND ( 'NONE', #947, .T. ) ;
#900 = DIRECTION ( 'NONE',  ( 1.000000000000000000, 0.000000000000000000, 0.000000000000000000 ) ) ;
#901 = ADVANCED_FACE ( 'NONE', ( #187 ), #333, .F. ) ;
#902 = ORIENTED_EDGE ( 'NONE', *, *, #689, .T. ) ;
#903 = CARTESIAN_POINT ( 'NONE',  ( -28.84050640489063966, -9.030375978297218609, 3.000000000000000000 ) ) ;
#904 = DIRECTION ( 'NONE',  ( -1.000000000000000000, 0.000000000000000000, -0.000000000000000000 ) ) ;
#905 = EDGE_CURVE ( 'NONE', #195, #710, #291, .T. ) ;
#906 = DIRECTION ( 'NONE',  ( 0.000000000000000000, 0.000000000000000000, 1.000000000000000000 ) ) ;
#907 = ORIENTED_EDGE ( 'NONE', *, *, #486, .T. ) ;
#908 = FACE_OUTER_BOUND ( 'NONE', #70, .T. ) ;
#909 = EDGE_CURVE ( 'NONE', #526, #515, #937, .T. ) ;
#910 = VECTOR ( 'NONE', #844, 1000.000000000000114 ) ;
#911 = DIRECTION ( 'NONE',  ( 0.000000000000000000, 0.000000000000000000, -1.000000000000000000 ) ) ;
#912 = FACE_OUTER_BOUND ( 'NONE', #744, .T. ) ;
#913 = ORIENTED_EDGE ( 'NONE', *, *, #848, .F. ) ;
#914 = DIRECTION ( 'NONE',  ( 0.000000000000000000, 0.000000000000000000, -1.000000000000000000 ) ) ;
#915 = CIRCLE ( 'NONE', #770, 3.250000000000238920 ) ;
#916 = CARTESIAN_POINT ( 'NONE',  ( -32.10946160191323173, 8.969614041158504136, 5.000000000000000000 ) ) ;
#917 = FACE_BOUND ( 'NONE', #951, .T. ) ;
#918 = ORIENTED_EDGE ( 'NONE', *, *, #783, .T. ) ;
#919 = DIRECTION ( 'NONE',  ( 1.000000000000000000, 0.000000000000000000, 0.000000000000000000 ) ) ;
#920 = ADVANCED_FACE ( 'NONE', ( #781 ), #96, .T. ) ;
#921 = FACE_OUTER_BOUND ( 'NONE', #279, .T. ) ;
#922 = CARTESIAN_POINT ( 'NONE',  ( -28.85946160191913279, 8.969614041158504136, -4.949747468306520126 ) ) ;
#923 = PRODUCT_DEFINITION ( 'UNKNOWN', '', #110, #64 ) ;
#924 = EDGE_LOOP ( 'NONE', ( #799, #620, #52, #340 ) ) ;
#925 = DIRECTION ( 'NONE',  ( 0.000000000000000000, 0.000000000000000000, -1.000000000000000000 ) ) ;
#926 = CARTESIAN_POINT ( 'NONE',  ( -25.59050640489627426, -9.030375978297218609, 3.000000000000000000 ) ) ;
#927 = AXIS2_PLACEMENT_3D ( 'NONE', #802, #68, #441 ) ;
#928 = DIRECTION ( 'NONE',  ( 1.000000000000000000, 0.000000000000000000, 0.000000000000000000 ) ) ;
#929 = AXIS2_PLACEMENT_3D ( 'NONE', #86, #813, #62 ) ;
#930 = EDGE_LOOP ( 'NONE', ( #95, #837, #16, #776 ) ) ;
#931 = DIRECTION ( 'NONE',  ( -0.000000000000000000, -0.000000000000000000, 1.000000000000000000 ) ) ;
#932 = ORIENTED_EDGE ( 'NONE', *, *, #730, .F. ) ;
#933 = LINE ( 'NONE', #316, #570 ) ;
#934 = AXIS2_PLACEMENT_3D ( 'NONE', #871, #115, #256 ) ;
#935 = CARTESIAN_POINT ( 'NONE',  ( -45.01998331216947236, 18.95260147240957238, -58.95933319566120190 ) ) ;
#936 = ORIENTED_EDGE ( 'NONE', *, *, #909, .F. ) ;
#937 = LINE ( 'NONE', #482, #405 ) ;
#938 = DIRECTION ( 'NONE',  ( 1.000000000000000000, 0.000000000000000000, 0.000000000000000000 ) ) ;
#939 = ORIENTED_EDGE ( 'NONE', *, *, #819, .T. ) ;
#940 = EDGE_CURVE ( 'NONE', #171, #253, #674, .T. ) ;
#941 = ORIENTED_EDGE ( 'NONE', *, *, #819, .F. ) ;
#942 = CARTESIAN_POINT ( 'NONE',  ( -28.85946160191913279, 8.969614041158504136, 5.000000000000000000 ) ) ;
#943 = CIRCLE ( 'NONE', #766, 1.000000000000000000 ) ;
#944 =( GEOMETRIC_REPRESENTATION_CONTEXT ( 3 ) GLOBAL_UNCERTAINTY_ASSIGNED_CONTEXT ( ( #580 ) ) GLOBAL_UNIT_ASSIGNED_CONTEXT ( ( #57, #395, #8 ) ) REPRESENTATION_CONTEXT ( 'NONE', 'WORKASPACE' ) );
#945 = ORIENTED_EDGE ( 'NONE', *, *, #743, .T. ) ;
#946 = DIRECTION ( 'NONE',  ( -0.000000000000000000, -0.000000000000000000, 1.000000000000000000 ) ) ;
#947 = EDGE_LOOP ( 'NONE', ( #913, #611, #151, #357 ) ) ;
#948 = CARTESIAN_POINT ( 'NONE',  ( -25.60946160192502674, 8.969614041158504136, 3.000000000000000000 ) ) ;
#949 = ORIENTED_EDGE ( 'NONE', *, *, #486, .F. ) ;
#950 = DIRECTION ( 'NONE',  ( 0.001053066501587990398, -0.9999994455253179426, -0.000000000000000000 ) ) ;
#951 = EDGE_LOOP ( 'NONE', ( #97, #788 ) ) ;
#952 = EDGE_CURVE ( 'NONE', #792, #309, #719, .T. ) ;
#953 = CARTESIAN_POINT ( 'NONE',  ( 0.02000826353020837209, -18.99998946498104146, -58.95933319566120190 ) ) ;
#954 = CARTESIAN_POINT ( 'NONE',  ( -0.02000826353018961279, 18.99998946498104146, 0.000000000000000000 ) ) ;
#955 = ORIENTED_EDGE ( 'NONE', *, *, #625, .T. ) ;
#956 = DIRECTION ( 'NONE',  ( 1.000000000000000000, 0.000000000000000000, -0.000000000000000000 ) ) ;
#957 = AXIS2_PLACEMENT_3D ( 'NONE', #827, #575, #440 ) ;
#958 = PLANE ( 'NONE',  #117 ) ;
#959 =( NAMED_UNIT ( * ) PLANE_ANGLE_UNIT ( ) SI_UNIT ( $, .RADIAN. ) );
#960 = AXIS2_PLACEMENT_3D ( 'NONE', #977, #881, #824 ) ;
#961 = AXIS2_PLACEMENT_3D ( 'NONE', #299, #695, #852 ) ;
#962 = ORIENTED_EDGE ( 'NONE', *, *, #689, .F. ) ;
#963 = DIRECTION ( 'NONE',  ( -0.000000000000000000, -0.000000000000000000, -1.000000000000000000 ) ) ;
#964 = DIRECTION ( 'NONE',  ( -0.000000000000000000, -0.000000000000000000, 1.000000000000000000 ) ) ;
#965 = PRESENTATION_STYLE_ASSIGNMENT (( #816 ) ) ;
#966 = ORIENTED_EDGE ( 'NONE', *, *, #805, .T. ) ;
#967 = CARTESIAN_POINT ( 'NONE',  ( -40.84049975119495457, -9.043012776317715051, 3.000000000000000000 ) ) ;
#968 =( LENGTH_UNIT ( ) NAMED_UNIT ( * ) SI_UNIT ( .MILLI., .METRE. ) );
#969 = ORIENTED_EDGE ( 'NONE', *, *, #359, .T. ) ;
#970 = CARTESIAN_POINT ( 'NONE',  ( -32.09050640488500505, -9.030375978297218609, 3.000000000000000000 ) ) ;
#971 = AXIS2_PLACEMENT_3D ( 'NONE', #99, #859, #396 ) ;
#972 = ORIENTED_EDGE ( 'NONE', *, *, #795, .T. ) ;
#973 = VECTOR ( 'NONE', #425, 1000.000000000000000 ) ;
#974 = CARTESIAN_POINT ( 'NONE',  ( -40.84049975119495457, -9.043012776317715051, -4.949747468306520126 ) ) ;
#975 = STYLED_ITEM ( 'NONE', ( #658 ), #690 ) ;
#976 = DIRECTION ( 'NONE',  ( -0.000000000000000000, -0.000000000000000000, 1.000000000000000000 ) ) ;
#977 = CARTESIAN_POINT ( 'NONE',  ( -28.84050640489063966, -9.030375978297218609, 3.000000000000000000 ) ) ;
#978 = EDGE_LOOP ( 'NONE', ( #385, #255, #414, #962 ) ) ;
#979 = CARTESIAN_POINT ( 'NONE',  ( -40.84049975119495457, -9.043012776317715051, -4.949747468306520126 ) ) ;
#980 = CARTESIAN_POINT ( 'NONE',  ( -40.84049975119495457, -9.043012776317715051, 3.000000000000000000 ) ) ;
#981 = EDGE_CURVE ( 'NONE', #595, #260, #869, .T. ) ;
#982 = CARTESIAN_POINT ( 'NONE',  ( -28.85946160191913279, 8.969614041158504136, 3.000000000000000000 ) ) ;
ENDSEC;
END-ISO-10303-21;
