ISO-10303-21;
HEADER;
FILE_DESCRIPTION (( 'STEP AP214' ),
    '1' );
FILE_NAME ('009_012_Left_right_connector_servo_mount.STEP',
    '2024-07-21T08:29:01',
    ( '' ),
    ( '' ),
    'SwSTEP 2.0',
    'SolidWorks 2019',
    '' );
FILE_SCHEMA (( 'AUTOMOTIVE_DESIGN' ));
ENDSEC;

DATA;
#1 = CARTESIAN_POINT ( 'NONE',  ( 1.750000000000057065, -11.00000000000003553, 31.15025253169394759 ) ) ;
#2 = ADVANCED_FACE ( 'NONE', ( #1083 ), #558, .F. ) ;
#3 = ORIENTED_EDGE ( 'NONE', *, *, #873, .T. ) ;
#4 = SURFACE_SIDE_STYLE ('',( #828 ) ) ;
#5 = ORIENTED_EDGE ( 'NONE', *, *, #570, .F. ) ;
#6 = DIRECTION ( 'NONE',  ( 0.000000000000000000, -1.000000000000000000, 0.000000000000000000 ) ) ;
#7 = EDGE_CURVE ( 'NONE', #624, #251, #531, .T. ) ;
#8 = ORIENTED_EDGE ( 'NONE', *, *, #813, .T. ) ;
#9 = ORIENTED_EDGE ( 'NONE', *, *, #514, .F. ) ;
#10 = LINE ( 'NONE', #280, #226 ) ;
#11 = CARTESIAN_POINT ( 'NONE',  ( -20.49999999999990763, -5.999999999999917399, 18.05000000000002203 ) ) ;
#12 = FACE_OUTER_BOUND ( 'NONE', #324, .T. ) ;
#13 = AXIS2_PLACEMENT_3D ( 'NONE', #233, #703, #951 ) ;
#14 =( NAMED_UNIT ( * ) PLANE_ANGLE_UNIT ( ) SI_UNIT ( $, .RADIAN. ) );
#15 = AXIS2_PLACEMENT_3D ( 'NONE', #710, #259, #1076 ) ;
#16 = EDGE_LOOP ( 'NONE', ( #417, #537 ) ) ;
#17 = VECTOR ( 'NONE', #75, 1000.000000000000000 ) ;
#18 = VECTOR ( 'NONE', #416, 1000.000000000000000 ) ;
#19 = EDGE_CURVE ( 'NONE', #878, #1031, #463, .T. ) ;
#20 = FACE_OUTER_BOUND ( 'NONE', #149, .T. ) ;
#21 = LINE ( 'NONE', #391, #1071 ) ;
#22 = ORIENTED_EDGE ( 'NONE', *, *, #817, .T. ) ;
#23 = CYLINDRICAL_SURFACE ( 'NONE', #127, 2.750000000000075495 ) ;
#24 = EDGE_CURVE ( 'NONE', #521, #208, #261, .T. ) ;
#25 = DIRECTION ( 'NONE',  ( 1.000000000000000000, 0.000000000000000000, 0.000000000000000000 ) ) ;
#26 = ORIENTED_EDGE ( 'NONE', *, *, #214, .T. ) ;
#27 = DIRECTION ( 'NONE',  ( 0.000000000000000000, -1.734723475976806848E-16, -1.000000000000000000 ) ) ;
#28 =( GEOMETRIC_REPRESENTATION_CONTEXT ( 3 ) GLOBAL_UNCERTAINTY_ASSIGNED_CONTEXT ( ( #445 ) ) GLOBAL_UNIT_ASSIGNED_CONTEXT ( ( #1090, #14, #564 ) ) REPRESENTATION_CONTEXT ( 'NONE', 'WORKASPACE' ) );
#29 = LINE ( 'NONE', #1113, #341 ) ;
#30 = ORIENTED_EDGE ( 'NONE', *, *, #640, .T. ) ;
#31 = DIRECTION ( 'NONE',  ( -0.000000000000000000, 1.084202172485505420E-16, 1.000000000000000000 ) ) ;
#32 = VECTOR ( 'NONE', #289, 1000.000000000000000 ) ;
#33 = COLOUR_RGB ( '',0.5019607843137254832, 0.5019607843137254832, 1.000000000000000000 ) ;
#34 = EDGE_CURVE ( 'NONE', #157, #891, #1107, .T. ) ;
#35 = PLANE ( 'NONE',  #318 ) ;
#36 = CARTESIAN_POINT ( 'NONE',  ( -30.29999999999998650, -16.00000000000001066, 10.00000000000002487 ) ) ;
#37 = VERTEX_POINT ( 'NONE', #1173 ) ;
#38 = LINE ( 'NONE', #865, #856 ) ;
#39 = DIRECTION ( 'NONE',  ( -0.000000000000000000, -0.000000000000000000, 1.000000000000000000 ) ) ;
#40 = FACE_BOUND ( 'NONE', #709, .T. ) ;
#41 = EDGE_LOOP ( 'NONE', ( #697, #516 ) ) ;
#42 = DIRECTION ( 'NONE',  ( 0.000000000000000000, -1.000000000000000000, 1.084202172485505420E-16 ) ) ;
#43 = VERTEX_POINT ( 'NONE', #729 ) ;
#44 = EDGE_CURVE ( 'NONE', #624, #355, #354, .T. ) ;
#45 = CARTESIAN_POINT ( 'NONE',  ( 10.00000000000009948, 15.99999999999999289, 36.10000000000002274 ) ) ;
#46 = DIRECTION ( 'NONE',  ( 0.000000000000000000, 0.000000000000000000, 1.000000000000000000 ) ) ;
#47 = EDGE_CURVE ( 'NONE', #636, #251, #735, .T. ) ;
#48 = ORIENTED_EDGE ( 'NONE', *, *, #322, .F. ) ;
#49 = DIRECTION ( 'NONE',  ( -1.000000000000000000, 0.000000000000000000, 0.000000000000000000 ) ) ;
#50 = VERTEX_POINT ( 'NONE', #905 ) ;
#51 = PRESENTATION_LAYER_ASSIGNMENT (  '', '', ( #1088 ) ) ;
#52 = FACE_OUTER_BOUND ( 'NONE', #1093, .T. ) ;
#53 = EDGE_CURVE ( 'NONE', #143, #50, #443, .T. ) ;
#54 = COLOUR_RGB ( '',0.5019607843137254832, 0.5019607843137254832, 1.000000000000000000 ) ;
#55 = DIRECTION ( 'NONE',  ( -0.000000000000000000, -0.000000000000000000, -1.000000000000000000 ) ) ;
#56 = ORIENTED_EDGE ( 'NONE', *, *, #379, .F. ) ;
#57 = DIRECTION ( 'NONE',  ( -1.000000000000000000, 0.000000000000000000, 0.000000000000000000 ) ) ;
#58 = PRODUCT ( '009_012_Left_right_connector_servo_mount', '009_012_Left_right_connector_servo_mount', '', ( #1022 ) ) ;
#59 = ORIENTED_EDGE ( 'NONE', *, *, #290, .T. ) ;
#60 = CARTESIAN_POINT ( 'NONE',  ( -24.30000000000000782, 7.000000000000000888, 17.79999999999998295 ) ) ;
#61 = LINE ( 'NONE', #520, #110 ) ;
#62 = EDGE_LOOP ( 'NONE', ( #637, #883, #275, #160 ) ) ;
#63 = LINE ( 'NONE', #76, #896 ) ;
#64 = EDGE_LOOP ( 'NONE', ( #389, #97 ) ) ;
#65 = LINE ( 'NONE', #79, #760 ) ;
#66 = LINE ( 'NONE', #240, #689 ) ;
#67 = EDGE_LOOP ( 'NONE', ( #500, #1102 ) ) ;
#68 = CARTESIAN_POINT ( 'NONE',  ( -1.749999999999953593, -11.00000000000003553, 8.949747468305735865 ) ) ;
#69 = VERTEX_POINT ( 'NONE', #361 ) ;
#70 = VECTOR ( 'NONE', #621, 1000.000000000000000 ) ;
#71 = FACE_OUTER_BOUND ( 'NONE', #1104, .T. ) ;
#72 = AXIS2_PLACEMENT_3D ( 'NONE', #1167, #315, #1044 ) ;
#73 = DIRECTION ( 'NONE',  ( 0.000000000000000000, 0.000000000000000000, 1.000000000000000000 ) ) ;
#74 = CLOSED_SHELL ( 'NONE', ( #420, #156, #202, #2, #762, #1051, #925, #88, #963, #200, #885, #604, #250, #387, #237, #539, #995, #712, #907, #219, #904, #175, #749, #939, #694, #787, #937, #1100, #546, #1192, #384, #450, #1151, #691, #302, #643 ) ) ;
#75 = DIRECTION ( 'NONE',  ( 0.000000000000000000, 1.000000000000000000, 0.000000000000000000 ) ) ;
#76 = CARTESIAN_POINT ( 'NONE',  ( -20.49999999999990763, -16.00000000000000355, 40.10100000000003462 ) ) ;
#77 = EDGE_LOOP ( 'NONE', ( #1064, #1059, #213, #338, #1072, #1191, #432, #413, #253, #915 ) ) ;
#78 = EDGE_CURVE ( 'NONE', #627, #605, #804, .T. ) ;
#79 = CARTESIAN_POINT ( 'NONE',  ( -20.49999999999990763, -15.99999999999994493, 30.10000000000002629 ) ) ;
#80 = DIRECTION ( 'NONE',  ( 0.000000000000000000, 1.000000000000000000, 0.000000000000000000 ) ) ;
#81 = DIRECTION ( 'NONE',  ( 0.000000000000000000, 0.000000000000000000, -1.000000000000000000 ) ) ;
#82 = EDGE_LOOP ( 'NONE', ( #343, #465 ) ) ;
#83 = DIRECTION ( 'NONE',  ( -0.000000000000000000, -0.000000000000000000, -1.000000000000000000 ) ) ;
#84 = DIRECTION ( 'NONE',  ( -0.000000000000000000, 1.000000000000000000, -0.000000000000000000 ) ) ;
#85 = ORIENTED_EDGE ( 'NONE', *, *, #323, .T. ) ;
#86 = VERTEX_POINT ( 'NONE', #267 ) ;
#87 = DIRECTION ( 'NONE',  ( 0.000000000000000000, -0.000000000000000000, -1.000000000000000000 ) ) ;
#88 = ADVANCED_FACE ( 'NONE', ( #273 ), #180, .F. ) ;
#89 = VECTOR ( 'NONE', #870, 1000.000000000000000 ) ;
#90 = CARTESIAN_POINT ( 'NONE',  ( -20.49999999999990763, -15.99999999999991651, 25.05000000000002203 ) ) ;
#91 = VECTOR ( 'NONE', #593, 1000.000000000000000 ) ;
#92 = DIRECTION ( 'NONE',  ( -1.000000000000000000, 0.000000000000000000, 0.000000000000000000 ) ) ;
#93 = FILL_AREA_STYLE_COLOUR ( '', #54 ) ;
#94 = VECTOR ( 'NONE', #169, 1000.000000000000000 ) ;
#95 = EDGE_LOOP ( 'NONE', ( #405, #116, #795, #1045 ) ) ;
#96 = DIRECTION ( 'NONE',  ( 0.000000000000000000, 0.000000000000000000, 1.000000000000000000 ) ) ;
#97 = ORIENTED_EDGE ( 'NONE', *, *, #352, .F. ) ;
#98 = EDGE_CURVE ( 'NONE', #695, #43, #576, .T. ) ;
#99 = VERTEX_POINT ( 'NONE', #36 ) ;
#100 = DIRECTION ( 'NONE',  ( -0.000000000000000000, -0.000000000000000000, 1.000000000000000000 ) ) ;
#101 = CARTESIAN_POINT ( 'NONE',  ( 9.999999999999996447, 16.00000000000000000, 4.000000000000000000 ) ) ;
#102 = FACE_BOUND ( 'NONE', #311, .T. ) ;
#103 = ORIENTED_EDGE ( 'NONE', *, *, #731, .F. ) ;
#104 = CARTESIAN_POINT ( 'NONE',  ( -30.29999999999995808, 5.000000000000055955, 10.00000000000002487 ) ) ;
#105 = DIRECTION ( 'NONE',  ( -0.000000000000000000, -0.000000000000000000, -1.000000000000000000 ) ) ;
#106 = CIRCLE ( 'NONE', #433, 10.00000000000000178 ) ;
#107 = AXIS2_PLACEMENT_3D ( 'NONE', #1081, #625, #990 ) ;
#108 = ORIENTED_EDGE ( 'NONE', *, *, #332, .F. ) ;
#109 = AXIS2_PLACEMENT_3D ( 'NONE', #1040, #291, #928 ) ;
#110 = VECTOR ( 'NONE', #55, 1000.000000000000000 ) ;
#111 = ORIENTED_EDGE ( 'NONE', *, *, #775, .F. ) ;
#112 = EDGE_CURVE ( 'NONE', #122, #484, #21, .T. ) ;
#113 = EDGE_CURVE ( 'NONE', #644, #803, #850, .T. ) ;
#114 = LINE ( 'NONE', #1112, #282 ) ;
#115 = DIRECTION ( 'NONE',  ( -1.000000000000000000, 0.000000000000000000, 0.000000000000000000 ) ) ;
#116 = ORIENTED_EDGE ( 'NONE', *, *, #961, .T. ) ;
#117 = CARTESIAN_POINT ( 'NONE',  ( 1.387778780781445676E-14, 11.00000000000000178, 36.10000000000002274 ) ) ;
#118 = DIRECTION ( 'NONE',  ( -0.000000000000000000, -0.000000000000000000, -1.000000000000000000 ) ) ;
#119 = EDGE_CURVE ( 'NONE', #446, #424, #761, .T. ) ;
#120 = ORIENTED_EDGE ( 'NONE', *, *, #1063, .T. ) ;
#121 = DIRECTION ( 'NONE',  ( 0.000000000000000000, 0.000000000000000000, -1.000000000000000000 ) ) ;
#122 = VERTEX_POINT ( 'NONE', #674 ) ;
#123 = EDGE_CURVE ( 'NONE', #438, #1009, #436, .T. ) ;
#124 = CARTESIAN_POINT ( 'NONE',  ( -10.49999999999999822, -16.00000000000000000, 4.000000000000000000 ) ) ;
#125 = FACE_OUTER_BOUND ( 'NONE', #610, .T. ) ;
#126 = VERTEX_POINT ( 'NONE', #845 ) ;
#127 = AXIS2_PLACEMENT_3D ( 'NONE', #215, #744, #573 ) ;
#128 = AXIS2_PLACEMENT_3D ( 'NONE', #1131, #498, #309 ) ;
#129 = CARTESIAN_POINT ( 'NONE',  ( -10.00000000000000000, -16.00000000000000000, 0.000000000000000000 ) ) ;
#130 = LINE ( 'NONE', #684, #799 ) ;
#131 = ORIENTED_EDGE ( 'NONE', *, *, #177, .T. ) ;
#132 = LINE ( 'NONE', #60, #1186 ) ;
#133 = DIRECTION ( 'NONE',  ( -1.000000000000000000, 0.000000000000000000, 0.000000000000000000 ) ) ;
#134 = VERTEX_POINT ( 'NONE', #1121 ) ;
#135 = FACE_OUTER_BOUND ( 'NONE', #287, .T. ) ;
#136 = EDGE_CURVE ( 'NONE', #208, #469, #29, .T. ) ;
#137 = ORIENTED_EDGE ( 'NONE', *, *, #34, .F. ) ;
#138 = LINE ( 'NONE', #774, #300 ) ;
#139 = PLANE ( 'NONE',  #782 ) ;
#140 = ORIENTED_EDGE ( 'NONE', *, *, #553, .F. ) ;
#141 = FACE_OUTER_BOUND ( 'NONE', #477, .T. ) ;
#142 = CIRCLE ( 'NONE', #819, 2.999999999999999112 ) ;
#143 = VERTEX_POINT ( 'NONE', #766 ) ;
#144 = AXIS2_PLACEMENT_3D ( 'NONE', #1135, #655, #738 ) ;
#145 = LINE ( 'NONE', #513, #91 ) ;
#146 = CIRCLE ( 'NONE', #825, 2.750000000000075495 ) ;
#147 = ADVANCED_BREP_SHAPE_REPRESENTATION ( '009_012_Left_right_connector_servo_mount', ( #943, #664 ), #577 ) ;
#148 = DIRECTION ( 'NONE',  ( 1.000000000000000000, 0.000000000000000000, 0.000000000000000000 ) ) ;
#149 = EDGE_LOOP ( 'NONE', ( #938, #675, #151, #232 ) ) ;
#150 = CARTESIAN_POINT ( 'NONE',  ( 1.387778780781445676E-14, 11.00000000000000178, 40.09799979996000729 ) ) ;
#151 = ORIENTED_EDGE ( 'NONE', *, *, #406, .T. ) ;
#152 = PLANE ( 'NONE',  #128 ) ;
#153 = CARTESIAN_POINT ( 'NONE',  ( -10.49999999999999822, -16.00000000000000000, 42.14031735997642159 ) ) ;
#154 = ORIENTED_EDGE ( 'NONE', *, *, #673, .T. ) ;
#155 = DIRECTION ( 'NONE',  ( 1.000000000000000000, 0.000000000000000000, 0.000000000000000000 ) ) ;
#156 = ADVANCED_FACE ( 'NONE', ( #1021 ), #1128, .F. ) ;
#157 = VERTEX_POINT ( 'NONE', #585 ) ;
#158 = FACE_BOUND ( 'NONE', #549, .T. ) ;
#159 = DIRECTION ( 'NONE',  ( -1.000000000000000000, 0.000000000000000000, -1.155557966632341512E-33 ) ) ;
#160 = ORIENTED_EDGE ( 'NONE', *, *, #586, .F. ) ;
#161 = CARTESIAN_POINT ( 'NONE',  ( -6.357864376268951290, -8.999999999999918288, 18.05000000000002203 ) ) ;
#162 = ORIENTED_EDGE ( 'NONE', *, *, #813, .F. ) ;
#163 = AXIS2_PLACEMENT_3D ( 'NONE', #589, #868, #953 ) ;
#164 = FACE_OUTER_BOUND ( 'NONE', #244, .T. ) ;
#165 = VECTOR ( 'NONE', #532, 1000.000000000000000 ) ;
#166 = FACE_OUTER_BOUND ( 'NONE', #95, .T. ) ;
#167 = VECTOR ( 'NONE', #118, 1000.000000000000000 ) ;
#168 = AXIS2_PLACEMENT_3D ( 'NONE', #499, #972, #148 ) ;
#169 = DIRECTION ( 'NONE',  ( -1.626303258728256651E-16, 1.000000000000000000, -0.000000000000000000 ) ) ;
#170 = ORIENTED_EDGE ( 'NONE', *, *, #984, .F. ) ;
#171 = DIRECTION ( 'NONE',  ( 0.000000000000000000, 1.734723475976806848E-16, 1.000000000000000000 ) ) ;
#172 = CARTESIAN_POINT ( 'NONE',  ( -30.29999999999990479, -5.999999999999917399, 22.05000000000002558 ) ) ;
#173 = EDGE_CURVE ( 'NONE', #859, #99, #745, .T. ) ;
#174 = EDGE_LOOP ( 'NONE', ( #452, #5, #613, #771 ) ) ;
#175 = ADVANCED_FACE ( 'NONE', ( #216, #948, #125 ), #298, .F. ) ;
#176 = ORIENTED_EDGE ( 'NONE', *, *, #1004, .F. ) ;
#177 = EDGE_CURVE ( 'NONE', #86, #446, #398, .T. ) ;
#178 = CARTESIAN_POINT ( 'NONE',  ( 22.05764119219938380, -15.99999999999994493, 30.10000000000002629 ) ) ;
#179 = DIRECTION ( 'NONE',  ( 1.000000000000000000, 0.000000000000000000, 0.000000000000000000 ) ) ;
#180 = PLANE ( 'NONE',  #686 ) ;
#181 = SURFACE_STYLE_USAGE ( .BOTH. , #4 ) ;
#182 = VERTEX_POINT ( 'NONE', #388 ) ;
#183 = SURFACE_SIDE_STYLE ('',( #218 ) ) ;
#184 = CIRCLE ( 'NONE', #969, 1.750000000000084821 ) ;
#185 = DIRECTION ( 'NONE',  ( 0.000000000000000000, 1.000000000000000000, 0.000000000000000000 ) ) ;
#186 = CIRCLE ( 'NONE', #1015, 1.750000000000044631 ) ;
#187 = EDGE_CURVE ( 'NONE', #878, #687, #294, .T. ) ;
#188 =( GEOMETRIC_REPRESENTATION_CONTEXT ( 3 ) GLOBAL_UNCERTAINTY_ASSIGNED_CONTEXT ( ( #243 ) ) GLOBAL_UNIT_ASSIGNED_CONTEXT ( ( #461, #497, #860 ) ) REPRESENTATION_CONTEXT ( 'NONE', 'WORKASPACE' ) );
#189 = DIRECTION ( 'NONE',  ( -1.000000000000000000, 0.000000000000000000, 0.000000000000000000 ) ) ;
#190 = AXIS2_PLACEMENT_3D ( 'NONE', #746, #25, #1133 ) ;
#191 = ORIENTED_EDGE ( 'NONE', *, *, #212, .T. ) ;
#192 = FACE_OUTER_BOUND ( 'NONE', #77, .T. ) ;
#193 = CARTESIAN_POINT ( 'NONE',  ( -24.30000000000000782, 7.000000000000000888, 25.04999999999990479 ) ) ;
#194 = CARTESIAN_POINT ( 'NONE',  ( 42.24878295998914268, -16.00000000000000355, 40.09799979996001440 ) ) ;
#195 = SHAPE_DEFINITION_REPRESENTATION ( #784, #147 ) ;
#196 = VERTEX_POINT ( 'NONE', #661 ) ;
#197 = DIRECTION ( 'NONE',  ( 0.000000000000000000, -0.000000000000000000, 1.000000000000000000 ) ) ;
#198 = LINE ( 'NONE', #1024, #950 ) ;
#199 = FACE_OUTER_BOUND ( 'NONE', #997, .T. ) ;
#200 = ADVANCED_FACE ( 'NONE', ( #670, #102, #12 ), #1029, .F. ) ;
#201 = EDGE_LOOP ( 'NONE', ( #301, #780, #103, #1150, #316, #426, #223, #654, #518 ) ) ;
#202 = ADVANCED_FACE ( 'NONE', ( #199 ), #568, .F. ) ;
#203 = ORIENTED_EDGE ( 'NONE', *, *, #816, .F. ) ;
#204 = DIRECTION ( 'NONE',  ( -1.000000000000000000, -0.000000000000000000, -0.000000000000000000 ) ) ;
#205 = DIRECTION ( 'NONE',  ( 0.000000000000000000, -0.000000000000000000, -1.000000000000000000 ) ) ;
#206 = CIRCLE ( 'NONE', #163, 2.750000000000075495 ) ;
#207 = CIRCLE ( 'NONE', #876, 1.749999999999965361 ) ;
#208 = VERTEX_POINT ( 'NONE', #480 ) ;
#209 = ORIENTED_EDGE ( 'NONE', *, *, #580, .T. ) ;
#210 = CYLINDRICAL_SURFACE ( 'NONE', #392, 10.00000000000000000 ) ;
#211 = CARTESIAN_POINT ( 'NONE',  ( -30.29999999999990479, -16.00000000000000355, 40.10100000000003462 ) ) ;
#212 = EDGE_CURVE ( 'NONE', #383, #99, #1037, .T. ) ;
#213 = ORIENTED_EDGE ( 'NONE', *, *, #323, .F. ) ;
#214 = EDGE_CURVE ( 'NONE', #196, #182, #504, .T. ) ;
#215 = CARTESIAN_POINT ( 'NONE',  ( -24.30000000000000782, 7.000000000000000888, 25.04999999999990479 ) ) ;
#216 = FACE_BOUND ( 'NONE', #16, .T. ) ;
#217 = ORIENTED_EDGE ( 'NONE', *, *, #1177, .F. ) ;
#218 = SURFACE_STYLE_FILL_AREA ( #955 ) ;
#219 = ADVANCED_FACE ( 'NONE', ( #1069 ), #515, .F. ) ;
#220 = CARTESIAN_POINT ( 'NONE',  ( 1.387778780781445676E-14, 11.00000000000000178, 8.949747468305735865 ) ) ;
#221 = CARTESIAN_POINT ( 'NONE',  ( -24.30000000000000782, 7.000000000000000888, 22.29999999999983018 ) ) ;
#222 = AXIS2_PLACEMENT_3D ( 'NONE', #117, #567, #293 ) ;
#223 = ORIENTED_EDGE ( 'NONE', *, *, #19, .F. ) ;
#224 = PLANE ( 'NONE',  #225 ) ;
#225 = AXIS2_PLACEMENT_3D ( 'NONE', #566, #946, #121 ) ;
#226 = VECTOR ( 'NONE', #680, 1000.000000000000000 ) ;
#227 = VECTOR ( 'NONE', #310, 1000.000000000000000 ) ;
#228 = DIRECTION ( 'NONE',  ( 0.000000000000000000, 0.000000000000000000, 1.000000000000000000 ) ) ;
#229 = DIRECTION ( 'NONE',  ( 0.000000000000000000, 1.000000000000000000, 0.000000000000000000 ) ) ;
#230 = VERTEX_POINT ( 'NONE', #1161 ) ;
#231 = DIRECTION ( 'NONE',  ( -1.000000000000000000, 0.000000000000000000, 0.000000000000000000 ) ) ;
#232 = ORIENTED_EDGE ( 'NONE', *, *, #173, .T. ) ;
#233 = CARTESIAN_POINT ( 'NONE',  ( 1.387778780781445676E-14, 11.00000000000000178, 36.10000000000002274 ) ) ;
#234 = DIRECTION ( 'NONE',  ( 0.000000000000000000, 1.000000000000000000, 0.000000000000000000 ) ) ;
#235 = EDGE_LOOP ( 'NONE', ( #1075, #270, #508, #140 ) ) ;
#236 = CARTESIAN_POINT ( 'NONE',  ( -10.00000000000000355, 16.00000000000000000, 0.000000000000000000 ) ) ;
#237 = ADVANCED_FACE ( 'NONE', ( #786 ), #139, .T. ) ;
#238 = ORIENTED_EDGE ( 'NONE', *, *, #599, .T. ) ;
#239 = DIRECTION ( 'NONE',  ( -0.000000000000000000, -0.000000000000000000, -1.000000000000000000 ) ) ;
#240 = CARTESIAN_POINT ( 'NONE',  ( 42.24878295998914268, -16.00000000000000355, 36.10000000000002274 ) ) ;
#241 = ORIENTED_EDGE ( 'NONE', *, *, #728, .T. ) ;
#242 = LINE ( 'NONE', #68, #1012 ) ;
#243 = UNCERTAINTY_MEASURE_WITH_UNIT (LENGTH_MEASURE( 1.000000000000000082E-05 ), #461, 'distance_accuracy_value', 'NONE');
#244 = EDGE_LOOP ( 'NONE', ( #458, #403, #829, #22 ) ) ;
#245 = VECTOR ( 'NONE', #84, 1000.000000000000000 ) ;
#246 = CIRCLE ( 'NONE', #490, 2.750000000000075495 ) ;
#247 = CARTESIAN_POINT ( 'NONE',  ( -24.30000000000000782, 7.000000000000000888, 15.04999999999990656 ) ) ;
#248 = VECTOR ( 'NONE', #718, 1000.000000000000000 ) ;
#249 = DIRECTION ( 'NONE',  ( -1.155557966632392487E-33, -7.886683122265728629E-32, 1.000000000000000000 ) ) ;
#250 = ADVANCED_FACE ( 'NONE', ( #40, #1050, #334 ), #495, .F. ) ;
#251 = VERTEX_POINT ( 'NONE', #1062 ) ;
#252 = DIRECTION ( 'NONE',  ( 0.000000000000000000, 0.000000000000000000, 1.000000000000000000 ) ) ;
#253 = ORIENTED_EDGE ( 'NONE', *, *, #1013, .F. ) ;
#254 = LINE ( 'NONE', #716, #376 ) ;
#255 = CARTESIAN_POINT ( 'NONE',  ( 1.387778780781445676E-14, 11.00000000000000178, 40.09799979996000729 ) ) ;
#256 = ORIENTED_EDGE ( 'NONE', *, *, #396, .T. ) ;
#257 = DIRECTION ( 'NONE',  ( 0.000000000000000000, 0.000000000000000000, 1.000000000000000000 ) ) ;
#258 = ORIENTED_EDGE ( 'NONE', *, *, #98, .T. ) ;
#259 = DIRECTION ( 'NONE',  ( 0.000000000000000000, 1.000000000000000000, 0.000000000000000000 ) ) ;
#260 = LINE ( 'NONE', #1, #853 ) ;
#261 = LINE ( 'NONE', #820, #1189 ) ;
#262 = VERTEX_POINT ( 'NONE', #616 ) ;
#263 = EDGE_CURVE ( 'NONE', #864, #741, #1146, .T. ) ;
#264 = AXIS2_PLACEMENT_3D ( 'NONE', #1077, #185, #921 ) ;
#265 = CARTESIAN_POINT ( 'NONE',  ( -20.29999999999998295, -16.00000000000000355, 0.000000000000000000 ) ) ;
#266 = CYLINDRICAL_SURFACE ( 'NONE', #507, 1.750000000000084821 ) ;
#267 = CARTESIAN_POINT ( 'NONE',  ( -10.49999999999999822, -16.00000000000000000, 10.00000000000002309 ) ) ;
#268 = DIRECTION ( 'NONE',  ( 0.000000000000000000, 0.000000000000000000, 1.000000000000000000 ) ) ;
#269 = EDGE_CURVE ( 'NONE', #631, #230, #634, .T. ) ;
#270 = ORIENTED_EDGE ( 'NONE', *, *, #1061, .T. ) ;
#271 = LINE ( 'NONE', #435, #802 ) ;
#272 = DIRECTION ( 'NONE',  ( -1.000000000000000000, 0.000000000000000000, 0.000000000000000000 ) ) ;
#273 = FACE_OUTER_BOUND ( 'NONE', #366, .T. ) ;
#274 = LINE ( 'NONE', #730, #304 ) ;
#275 = ORIENTED_EDGE ( 'NONE', *, *, #847, .F. ) ;
#276 = DIRECTION ( 'NONE',  ( -0.000000000000000000, -0.000000000000000000, -1.000000000000000000 ) ) ;
#277 = LINE ( 'NONE', #90, #551 ) ;
#278 = ORIENTED_EDGE ( 'NONE', *, *, #24, .T. ) ;
#279 = VERTEX_POINT ( 'NONE', #770 ) ;
#280 = CARTESIAN_POINT ( 'NONE',  ( 1.749999999999898082, -11.00000000000003553, 8.949747468305735865 ) ) ;
#281 = DIRECTION ( 'NONE',  ( 0.000000000000000000, 0.000000000000000000, -1.000000000000000000 ) ) ;
#282 = VECTOR ( 'NONE', #656, 1000.000000000000000 ) ;
#283 = AXIS2_PLACEMENT_3D ( 'NONE', #400, #368, #743 ) ;
#284 = EDGE_CURVE ( 'NONE', #262, #687, #476, .T. ) ;
#285 = EDGE_LOOP ( 'NONE', ( #977, #1057, #790, #1001 ) ) ;
#286 = DIRECTION ( 'NONE',  ( 1.000000000000000000, 0.000000000000000000, 0.000000000000000000 ) ) ;
#287 = EDGE_LOOP ( 'NONE', ( #962, #1141, #929, #832 ) ) ;
#288 = CARTESIAN_POINT ( 'NONE',  ( -6.357864376268951290, -15.99999999999991651, 25.05000000000002203 ) ) ;
#289 = DIRECTION ( 'NONE',  ( -1.000000000000000000, -0.000000000000000000, -0.000000000000000000 ) ) ;
#290 = EDGE_CURVE ( 'NONE', #1080, #866, #61, .T. ) ;
#291 = DIRECTION ( 'NONE',  ( -0.000000000000000000, -0.000000000000000000, 1.000000000000000000 ) ) ;
#292 = ORIENTED_EDGE ( 'NONE', *, *, #475, .F. ) ;
#293 = DIRECTION ( 'NONE',  ( 1.000000000000000000, 0.000000000000000000, 0.000000000000000000 ) ) ;
#294 = LINE ( 'NONE', #194, #1145 ) ;
#295 = ORIENTED_EDGE ( 'NONE', *, *, #728, .F. ) ;
#296 = EDGE_CURVE ( 'NONE', #367, #126, #888, .T. ) ;
#297 = DIRECTION ( 'NONE',  ( -1.000000000000000000, -0.000000000000000000, -0.000000000000000000 ) ) ;
#298 = PLANE ( 'NONE',  #456 ) ;
#299 = EDGE_CURVE ( 'NONE', #1031, #663, #66, .T. ) ;
#300 = VECTOR ( 'NONE', #1049, 1000.000000000000000 ) ;
#301 = ORIENTED_EDGE ( 'NONE', *, *, #1179, .T. ) ;
#302 = ADVANCED_FACE ( 'NONE', ( #1138 ), #798, .F. ) ;
#303 = VECTOR ( 'NONE', #535, 1000.000000000000000 ) ;
#304 = VECTOR ( 'NONE', #1188, 1000.000000000000000 ) ;
#305 = DIRECTION ( 'NONE',  ( 1.000000000000000000, 0.000000000000000000, 0.000000000000000000 ) ) ;
#306 = DIRECTION ( 'NONE',  ( -0.000000000000000000, -0.000000000000000000, -1.000000000000000000 ) ) ;
#307 = ORIENTED_EDGE ( 'NONE', *, *, #775, .T. ) ;
#308 = DIRECTION ( 'NONE',  ( -1.000000000000000000, 0.000000000000000000, 0.000000000000000000 ) ) ;
#309 = DIRECTION ( 'NONE',  ( -1.000000000000000000, 0.000000000000000000, -0.000000000000000000 ) ) ;
#310 = DIRECTION ( 'NONE',  ( 0.000000000000000000, 1.000000000000000000, 4.217786578208046518E-32 ) ) ;
#311 = EDGE_LOOP ( 'NONE', ( #336, #48 ) ) ;
#312 = DIRECTION ( 'NONE',  ( 0.000000000000000000, 0.000000000000000000, -1.000000000000000000 ) ) ;
#313 = ORIENTED_EDGE ( 'NONE', *, *, #514, .T. ) ;
#314 = DIRECTION ( 'NONE',  ( -1.155557966632341512E-33, -4.217786578208046518E-32, 1.000000000000000000 ) ) ;
#315 = DIRECTION ( 'NONE',  ( -0.000000000000000000, -0.000000000000000000, 1.000000000000000000 ) ) ;
#316 = ORIENTED_EDGE ( 'NONE', *, *, #586, .T. ) ;
#317 = DIRECTION ( 'NONE',  ( 0.000000000000000000, 0.000000000000000000, 1.000000000000000000 ) ) ;
#318 = AXIS2_PLACEMENT_3D ( 'NONE', #45, #970, #314 ) ;
#319 = VERTEX_POINT ( 'NONE', #221 ) ;
#320 = CARTESIAN_POINT ( 'NONE',  ( -10.49999999999999467, -15.99999999999987566, 36.10000000000002274 ) ) ;
#321 = DIRECTION ( 'NONE',  ( 0.000000000000000000, 1.000000000000000000, 0.000000000000000000 ) ) ;
#322 = EDGE_CURVE ( 'NONE', #37, #50, #206, .T. ) ;
#323 = EDGE_CURVE ( 'NONE', #363, #367, #130, .T. ) ;
#324 = EDGE_LOOP ( 'NONE', ( #922, #763, #954, #1162, #111, #900, #1078, #278, #880, #59, #1134, #747, #587, #700 ) ) ;
#325 = CARTESIAN_POINT ( 'NONE',  ( -10.49999999999999822, -16.00000000000000000, 4.000000000000000000 ) ) ;
#326 = ORIENTED_EDGE ( 'NONE', *, *, #7, .T. ) ;
#327 = DIRECTION ( 'NONE',  ( 0.000000000000000000, 1.000000000000000000, 0.000000000000000000 ) ) ;
#328 = CARTESIAN_POINT ( 'NONE',  ( -20.49999999999990763, -8.999999999999918288, 25.05000000000002203 ) ) ;
#329 = ORIENTED_EDGE ( 'NONE', *, *, #322, .T. ) ;
#330 = DIRECTION ( 'NONE',  ( -0.000000000000000000, -1.000000000000000000, -0.000000000000000000 ) ) ;
#331 = ORIENTED_EDGE ( 'NONE', *, *, #506, .T. ) ;
#332 = EDGE_CURVE ( 'NONE', #1129, #866, #958, .T. ) ;
#333 = LINE ( 'NONE', #129, #874 ) ;
#334 = FACE_OUTER_BOUND ( 'NONE', #1168, .T. ) ;
#335 = EDGE_CURVE ( 'NONE', #836, #803, #1124, .T. ) ;
#336 = ORIENTED_EDGE ( 'NONE', *, *, #478, .F. ) ;
#337 = DIRECTION ( 'NONE',  ( -0.000000000000000000, -0.000000000000000000, -1.000000000000000000 ) ) ;
#338 = ORIENTED_EDGE ( 'NONE', *, *, #1179, .F. ) ;
#339 = AXIS2_PLACEMENT_3D ( 'NONE', #193, #844, #584 ) ;
#340 = CARTESIAN_POINT ( 'NONE',  ( 9.999999999999996447, 16.00000000000000000, 0.000000000000000000 ) ) ;
#341 = VECTOR ( 'NONE', #842, 1000.000000000000000 ) ;
#342 = CARTESIAN_POINT ( 'NONE',  ( -30.29999999999990479, -8.999999999999918288, 25.05000000000002203 ) ) ;
#343 = ORIENTED_EDGE ( 'NONE', *, *, #570, .T. ) ;
#344 = CARTESIAN_POINT ( 'NONE',  ( -20.49999999999990763, -8.999999999999918288, 22.05000000000002558 ) ) ;
#345 = ORIENTED_EDGE ( 'NONE', *, *, #335, .T. ) ;
#346 = PLANE ( 'NONE',  #107 ) ;
#347 = DIRECTION ( 'NONE',  ( -1.000000000000000000, 0.000000000000000000, 0.000000000000000000 ) ) ;
#348 = CARTESIAN_POINT ( 'NONE',  ( -24.30000000000000782, 7.000000000000000888, 27.79999999999997939 ) ) ;
#349 = DIRECTION ( 'NONE',  ( 0.000000000000000000, 0.000000000000000000, -1.000000000000000000 ) ) ;
#350 = ORIENTED_EDGE ( 'NONE', *, *, #47, .F. ) ;
#351 = LINE ( 'NONE', #1194, #1143 ) ;
#352 = EDGE_CURVE ( 'NONE', #803, #836, #706, .T. ) ;
#353 = DIRECTION ( 'NONE',  ( 0.000000000000000000, 0.000000000000000000, 1.000000000000000000 ) ) ;
#354 = LINE ( 'NONE', #653, #303 ) ;
#355 = VERTEX_POINT ( 'NONE', #965 ) ;
#356 = PRESENTATION_LAYER_ASSIGNMENT (  '', '', ( #726 ) ) ;
#357 = AXIS2_PLACEMENT_3D ( 'NONE', #407, #39, #598 ) ;
#358 = LINE ( 'NONE', #1176, #165 ) ;
#359 = VECTOR ( 'NONE', #330, 1000.000000000000000 ) ;
#360 = DIRECTION ( 'NONE',  ( -1.387778780781445281E-15, -1.000000000000000000, -7.886683122265728629E-32 ) ) ;
#361 = CARTESIAN_POINT ( 'NONE',  ( -20.49999999999990763, 15.99999999999999289, 40.09799979996000729 ) ) ;
#362 = PLANE ( 'NONE',  #457 ) ;
#363 = VERTEX_POINT ( 'NONE', #639 ) ;
#364 = FACE_OUTER_BOUND ( 'NONE', #619, .T. ) ;
#365 = DIRECTION ( 'NONE',  ( 1.387778780781445281E-15, 1.000000000000000000, -0.000000000000000000 ) ) ;
#366 = EDGE_LOOP ( 'NONE', ( #1084, #924, #1181, #933, #326, #350, #949, #591, #1119, #1041 ) ) ;
#367 = VERTEX_POINT ( 'NONE', #342 ) ;
#368 = DIRECTION ( 'NONE',  ( -1.000000000000000000, -1.626303258728256651E-16, 0.000000000000000000 ) ) ;
#369 = EDGE_CURVE ( 'NONE', #481, #560, #1011, .T. ) ;
#370 = CARTESIAN_POINT ( 'NONE',  ( 1.749999999999898082, -11.00000000000003553, 4.000000000000000000 ) ) ;
#371 = ORIENTED_EDGE ( 'NONE', *, *, #1030, .F. ) ;
#372 = VERTEX_POINT ( 'NONE', #172 ) ;
#373 = PLANE ( 'NONE',  #283 ) ;
#374 = CIRCLE ( 'NONE', #339, 2.750000000000075495 ) ;
#375 = CARTESIAN_POINT ( 'NONE',  ( 0.000000000000000000, 0.000000000000000000, 4.000000000000000000 ) ) ;
#376 = VECTOR ( 'NONE', #620, 1000.000000000000000 ) ;
#377 = CARTESIAN_POINT ( 'NONE',  ( -24.30000000000000782, 7.000000000000000888, 12.29999999999983196 ) ) ;
#378 = ORIENTED_EDGE ( 'NONE', *, *, #1132, .T. ) ;
#379 = EDGE_CURVE ( 'NONE', #529, #43, #186, .T. ) ;
#380 = FACE_BOUND ( 'NONE', #1066, .T. ) ;
#381 = EDGE_CURVE ( 'NONE', #319, #37, #991, .T. ) ;
#382 = CARTESIAN_POINT ( 'NONE',  ( -10.49999999999999822, 16.00000000000000000, 42.14031735997642159 ) ) ;
#383 = VERTEX_POINT ( 'NONE', #1000 ) ;
#384 = ADVANCED_FACE ( 'NONE', ( #986 ), #811, .F. ) ;
#385 = EDGE_CURVE ( 'NONE', #126, #823, #277, .T. ) ;
#386 = DIRECTION ( 'NONE',  ( 0.000000000000000000, 0.000000000000000000, -1.000000000000000000 ) ) ;
#387 = ADVANCED_FACE ( 'NONE', ( #455 ), #913, .F. ) ;
#388 = CARTESIAN_POINT ( 'NONE',  ( 10.00000000000007816, 15.99999999999999289, 40.09799979996000729 ) ) ;
#389 = ORIENTED_EDGE ( 'NONE', *, *, #335, .F. ) ;
#390 = CARTESIAN_POINT ( 'NONE',  ( -1.750000000000030864, 11.00000000000000178, 40.09799979996000729 ) ) ;
#391 = CARTESIAN_POINT ( 'NONE',  ( 1.749999999999979128, 11.00000000000000178, 8.949747468305735865 ) ) ;
#392 = AXIS2_PLACEMENT_3D ( 'NONE', #927, #1106, #281 ) ;
#393 = AXIS2_PLACEMENT_3D ( 'NONE', #247, #615, #979 ) ;
#394 = ORIENTED_EDGE ( 'NONE', *, *, #34, .T. ) ;
#395 = DIRECTION ( 'NONE',  ( 0.000000000000000000, 0.000000000000000000, -1.000000000000000000 ) ) ;
#396 = EDGE_CURVE ( 'NONE', #502, #262, #626, .T. ) ;
#397 = CARTESIAN_POINT ( 'NONE',  ( -20.49999999999990763, -15.99999999999992006, 15.05000000000002203 ) ) ;
#398 = LINE ( 'NONE', #944, #227 ) ;
#399 = ORIENTED_EDGE ( 'NONE', *, *, #512, .F. ) ;
#400 = CARTESIAN_POINT ( 'NONE',  ( 9.999999999999996447, 16.00000000000000000, 4.000000000000000000 ) ) ;
#401 = CARTESIAN_POINT ( 'NONE',  ( -20.49999999999990763, -16.00000000000000355, 40.10100000000003462 ) ) ;
#402 = DIRECTION ( 'NONE',  ( 1.000000000000000000, 0.000000000000000000, 0.000000000000000000 ) ) ;
#403 = ORIENTED_EDGE ( 'NONE', *, *, #136, .T. ) ;
#404 = CARTESIAN_POINT ( 'NONE',  ( -10.00000000000000000, -16.00000000000000000, 4.000000000000000000 ) ) ;
#405 = ORIENTED_EDGE ( 'NONE', *, *, #1155, .T. ) ;
#406 = EDGE_CURVE ( 'NONE', #230, #859, #462, .T. ) ;
#407 = CARTESIAN_POINT ( 'NONE',  ( -2.775557561562891351E-14, -11.00000000000003553, 31.15025253169394759 ) ) ;
#408 = CARTESIAN_POINT ( 'NONE',  ( -20.49999999999990763, -16.00000000000000355, 10.00000000000002309 ) ) ;
#409 = VECTOR ( 'NONE', #27, 1000.000000000000000 ) ;
#410 = EDGE_LOOP ( 'NONE', ( #1026, #648, #752, #26 ) ) ;
#411 = CARTESIAN_POINT ( 'NONE',  ( -2.775557561562891351E-14, -11.00000000000003553, 36.10000000000002274 ) ) ;
#412 = VECTOR ( 'NONE', #1165, 1000.000000000000000 ) ;
#413 = ORIENTED_EDGE ( 'NONE', *, *, #212, .F. ) ;
#414 = AXIS2_PLACEMENT_3D ( 'NONE', #411, #781, #967 ) ;
#415 = DIRECTION ( 'NONE',  ( 1.000000000000000000, 0.000000000000000000, 0.000000000000000000 ) ) ;
#416 = DIRECTION ( 'NONE',  ( 1.000000000000000000, -0.000000000000000000, -0.000000000000000000 ) ) ;
#417 = ORIENTED_EDGE ( 'NONE', *, *, #1092, .F. ) ;
#418 = DIRECTION ( 'NONE',  ( 0.000000000000000000, 0.000000000000000000, 1.000000000000000000 ) ) ;
#419 = ORIENTED_EDGE ( 'NONE', *, *, #662, .T. ) ;
#420 = ADVANCED_FACE ( 'NONE', ( #166 ), #266, .F. ) ;
#421 = CARTESIAN_POINT ( 'NONE',  ( -20.29999999999995808, 5.000000000000041744, 30.10000000000002274 ) ) ;
#422 = EDGE_CURVE ( 'NONE', #741, #1038, #260, .T. ) ;
#423 = CARTESIAN_POINT ( 'NONE',  ( 10.00000000000009948, 15.99999999999999289, 36.10000000000002274 ) ) ;
#424 = VERTEX_POINT ( 'NONE', #646 ) ;
#425 = CARTESIAN_POINT ( 'NONE',  ( 10.00000000000007816, -16.00000000000000355, 36.10000000000002274 ) ) ;
#426 = ORIENTED_EDGE ( 'NONE', *, *, #299, .F. ) ;
#427 = CARTESIAN_POINT ( 'NONE',  ( -2.775557561562891351E-14, -11.00000000000003553, 0.000000000000000000 ) ) ;
#428 = EDGE_CURVE ( 'NONE', #355, #372, #818, .T. ) ;
#429 = DIRECTION ( 'NONE',  ( -1.000000000000000000, -0.000000000000000000, -0.000000000000000000 ) ) ;
#430 = ORIENTED_EDGE ( 'NONE', *, *, #113, .T. ) ;
#431 = CARTESIAN_POINT ( 'NONE',  ( -2.775557561562891351E-14, -11.00000000000003553, 40.09799979996000729 ) ) ;
#432 = ORIENTED_EDGE ( 'NONE', *, *, #629, .F. ) ;
#433 = AXIS2_PLACEMENT_3D ( 'NONE', #935, #6, #386 ) ;
#434 = AXIS2_PLACEMENT_3D ( 'NONE', #1105, #312, #308 ) ;
#435 = CARTESIAN_POINT ( 'NONE',  ( -10.49999999999999467, 16.00000000000002132, 36.10000000000002274 ) ) ;
#436 = CIRCLE ( 'NONE', #190, 2.999999999999999112 ) ;
#437 = CARTESIAN_POINT ( 'NONE',  ( -30.29999999999990479, -8.999999999999918288, 15.05000000000002203 ) ) ;
#438 = VERTEX_POINT ( 'NONE', #437 ) ;
#439 = DIRECTION ( 'NONE',  ( 1.000000000000000000, 0.000000000000000000, 0.000000000000000000 ) ) ;
#440 = ORIENTED_EDGE ( 'NONE', *, *, #263, .T. ) ;
#441 = LINE ( 'NONE', #912, #574 ) ;
#442 = DIRECTION ( 'NONE',  ( -1.387778780781445281E-15, -1.000000000000000000, -7.886683122265728629E-32 ) ) ;
#443 = LINE ( 'NONE', #348, #248 ) ;
#444 = APPLICATION_PROTOCOL_DEFINITION ( 'draft international standard', 'automotive_design', 1998, #737 ) ;
#445 = UNCERTAINTY_MEASURE_WITH_UNIT (LENGTH_MEASURE( 1.000000000000000082E-05 ), #1090, 'distance_accuracy_value', 'NONE');
#446 = VERTEX_POINT ( 'NONE', #1184 ) ;
#447 = FACE_OUTER_BOUND ( 'NONE', #993, .T. ) ;
#448 = EDGE_CURVE ( 'NONE', #1031, #196, #1095, .T. ) ;
#449 = CARTESIAN_POINT ( 'NONE',  ( -10.49999999999999822, -16.00000000000000000, 42.14031735997642159 ) ) ;
#450 = ADVANCED_FACE ( 'NONE', ( #545 ), #534, .T. ) ;
#451 = CARTESIAN_POINT ( 'NONE',  ( -20.49999999999990763, -8.999999999999918288, 18.05000000000002203 ) ) ;
#452 = ORIENTED_EDGE ( 'NONE', *, *, #381, .F. ) ;
#453 = DIRECTION ( 'NONE',  ( 1.000000000000000000, 0.000000000000000000, 0.000000000000000000 ) ) ;
#454 = AXIS2_PLACEMENT_3D ( 'NONE', #220, #239, #503 ) ;
#455 = FACE_OUTER_BOUND ( 'NONE', #753, .T. ) ;
#456 = AXIS2_PLACEMENT_3D ( 'NONE', #488, #858, #1117 ) ;
#457 = AXIS2_PLACEMENT_3D ( 'NONE', #916, #1002, #559 ) ;
#458 = ORIENTED_EDGE ( 'NONE', *, *, #796, .F. ) ;
#459 = EDGE_LOOP ( 'NONE', ( #846, #217, #1148, #345 ) ) ;
#460 = EDGE_CURVE ( 'NONE', #446, #866, #711, .T. ) ;
#461 =( LENGTH_UNIT ( ) NAMED_UNIT ( * ) SI_UNIT ( .MILLI., .METRE. ) );
#462 = LINE ( 'NONE', #1086, #572 ) ;
#463 = LINE ( 'NONE', #831, #857 ) ;
#464 = CARTESIAN_POINT ( 'NONE',  ( -2.775557561562891351E-14, -11.00000000000003553, 0.000000000000000000 ) ) ;
#465 = ORIENTED_EDGE ( 'NONE', *, *, #724, .T. ) ;
#466 = FACE_OUTER_BOUND ( 'NONE', #1164, .T. ) ;
#467 = CARTESIAN_POINT ( 'NONE',  ( -1.749999999999953593, -11.00000000000003553, 0.000000000000000000 ) ) ;
#468 = CARTESIAN_POINT ( 'NONE',  ( 0.000000000000000000, 0.000000000000000000, 0.000000000000000000 ) ) ;
#469 = VERTEX_POINT ( 'NONE', #525 ) ;
#470 = AXIS2_PLACEMENT_3D ( 'NONE', #903, #80, #353 ) ;
#471 = DIRECTION ( 'NONE',  ( 1.387778780781445281E-15, 1.000000000000000000, 7.886683122265728629E-32 ) ) ;
#472 = CIRCLE ( 'NONE', #919, 1.749999999999925837 ) ;
#473 = AXIS2_PLACEMENT_3D ( 'NONE', #451, #189, #807 ) ;
#474 = DIRECTION ( 'NONE',  ( -0.000000000000000000, 1.000000000000000000, -0.000000000000000000 ) ) ;
#475 = EDGE_CURVE ( 'NONE', #966, #484, #971, .T. ) ;
#476 = CIRCLE ( 'NONE', #841, 10.00000000000000178 ) ;
#477 = EDGE_LOOP ( 'NONE', ( #889, #1109, #329, #1096 ) ) ;
#478 = EDGE_CURVE ( 'NONE', #50, #37, #1185, .T. ) ;
#479 = CARTESIAN_POINT ( 'NONE',  ( -6.357864376268951290, -15.99999999999991651, 25.05000000000002203 ) ) ;
#480 = CARTESIAN_POINT ( 'NONE',  ( -10.49999999999999467, 16.00000000000002132, 30.10000000000002274 ) ) ;
#481 = VERTEX_POINT ( 'NONE', #124 ) ;
#482 = LINE ( 'NONE', #1120, #837 ) ;
#483 = DIRECTION ( 'NONE',  ( -1.084202172485504434E-16, 1.000000000000000000, 0.000000000000000000 ) ) ;
#484 = VERTEX_POINT ( 'NONE', #942 ) ;
#485 = CARTESIAN_POINT ( 'NONE',  ( 1.387778780781445676E-14, 11.00000000000000178, 4.000000000000000000 ) ) ;
#486 = DIRECTION ( 'NONE',  ( 1.000000000000000000, 0.000000000000000000, 1.155557966632341512E-33 ) ) ;
#487 = AXIS2_PLACEMENT_3D ( 'NONE', #161, #527, #349 ) ;
#488 = CARTESIAN_POINT ( 'NONE',  ( 42.24878295998914268, 15.99999999999999289, 40.09799979996000729 ) ) ;
#489 = AXIS2_PLACEMENT_3D ( 'NONE', #1056, #234, #600 ) ;
#490 = AXIS2_PLACEMENT_3D ( 'NONE', #854, #327, #228 ) ;
#491 = ORIENTED_EDGE ( 'NONE', *, *, #475, .T. ) ;
#492 = SURFACE_STYLE_USAGE ( .BOTH. , #183 ) ;
#493 = EDGE_CURVE ( 'NONE', #687, #69, #562, .T. ) ;
#494 = FACE_OUTER_BOUND ( 'NONE', #235, .T. ) ;
#495 = PLANE ( 'NONE',  #998 ) ;
#496 = ORIENTED_EDGE ( 'NONE', *, *, #369, .T. ) ;
#497 =( NAMED_UNIT ( * ) PLANE_ANGLE_UNIT ( ) SI_UNIT ( $, .RADIAN. ) );
#498 = DIRECTION ( 'NONE',  ( 0.000000000000000000, 0.000000000000000000, -1.000000000000000000 ) ) ;
#499 = CARTESIAN_POINT ( 'NONE',  ( -2.775557561562891351E-14, -11.00000000000003553, 36.10000000000002274 ) ) ;
#500 = ORIENTED_EDGE ( 'NONE', *, *, #1155, .F. ) ;
#501 = CARTESIAN_POINT ( 'NONE',  ( -30.29999999999990479, 15.99999999999999289, 40.10100000000003462 ) ) ;
#502 = VERTEX_POINT ( 'NONE', #1028 ) ;
#503 = DIRECTION ( 'NONE',  ( -1.000000000000000000, 0.000000000000000000, 0.000000000000000000 ) ) ;
#504 = LINE ( 'NONE', #423, #1035 ) ;
#505 = MECHANICAL_DESIGN_GEOMETRIC_PRESENTATION_REPRESENTATION (  '', ( #726 ), #28 ) ;
#506 = EDGE_CURVE ( 'NONE', #823, #363, #1036, .T. ) ;
#507 = AXIS2_PLACEMENT_3D ( 'NONE', #830, #720, #179 ) ;
#508 = ORIENTED_EDGE ( 'NONE', *, *, #1013, .T. ) ;
#509 = DIRECTION ( 'NONE',  ( 0.000000000000000000, 0.000000000000000000, 1.000000000000000000 ) ) ;
#510 = ORIENTED_EDGE ( 'NONE', *, *, #941, .F. ) ;
#511 = AXIS2_PLACEMENT_3D ( 'NONE', #153, #133, #46 ) ;
#512 = EDGE_CURVE ( 'NONE', #196, #521, #581, .T. ) ;
#513 = CARTESIAN_POINT ( 'NONE',  ( -1.750000000000030864, 11.00000000000000178, 31.15025253169394759 ) ) ;
#514 = EDGE_CURVE ( 'NONE', #1129, #86, #482, .T. ) ;
#515 = PLANE ( 'NONE',  #511 ) ;
#516 = ORIENTED_EDGE ( 'NONE', *, *, #1193, .F. ) ;
#517 = DIRECTION ( 'NONE',  ( -0.000000000000000000, 1.000000000000000000, -0.000000000000000000 ) ) ;
#518 = ORIENTED_EDGE ( 'NONE', *, *, #284, .F. ) ;
#519 = CARTESIAN_POINT ( 'NONE',  ( 10.00000000000005329, -16.00000000000000355, 40.09799979996001440 ) ) ;
#520 = CARTESIAN_POINT ( 'NONE',  ( -20.49999999999990763, 15.99999999999999289, 40.10100000000003462 ) ) ;
#521 = VERTEX_POINT ( 'NONE', #660 ) ;
#522 = CARTESIAN_POINT ( 'NONE',  ( -1.750000000000112577, -11.00000000000003553, 40.09799979996000729 ) ) ;
#523 = ORIENTED_EDGE ( 'NONE', *, *, #299, .T. ) ;
#524 = LINE ( 'NONE', #178, #412 ) ;
#525 = CARTESIAN_POINT ( 'NONE',  ( -10.49999999999999467, -15.99999999999994493, 30.10000000000002629 ) ) ;
#526 = CARTESIAN_POINT ( 'NONE',  ( -2.775557561562891351E-14, -11.00000000000003553, 8.949747468305735865 ) ) ;
#527 = DIRECTION ( 'NONE',  ( 1.000000000000000000, 0.000000000000000000, 0.000000000000000000 ) ) ;
#528 = CIRCLE ( 'NONE', #13, 1.750000000000044631 ) ;
#529 = VERTEX_POINT ( 'NONE', #390 ) ;
#530 = AXIS2_PLACEMENT_3D ( 'NONE', #1130, #31, #42 ) ;
#531 = CIRCLE ( 'NONE', #473, 2.999999999999999112 ) ;
#532 = DIRECTION ( 'NONE',  ( -1.000000000000000000, -0.000000000000000000, -0.000000000000000000 ) ) ;
#533 = AXIS2_PLACEMENT_3D ( 'NONE', #980, #882, #402 ) ;
#534 = PLANE ( 'NONE',  #264 ) ;
#535 = DIRECTION ( 'NONE',  ( 0.000000000000000000, 1.734723475976806848E-16, 1.000000000000000000 ) ) ;
#536 = FILL_AREA_STYLE ('',( #93 ) ) ;
#537 = ORIENTED_EDGE ( 'NONE', *, *, #1032, .F. ) ;
#538 = EDGE_CURVE ( 'NONE', #372, #1009, #1020, .T. ) ;
#539 = ADVANCED_FACE ( 'NONE', ( #20 ), #210, .T. ) ;
#540 = LINE ( 'NONE', #908, #992 ) ;
#541 = DIRECTION ( 'NONE',  ( 1.000000000000000000, 0.000000000000000000, 0.000000000000000000 ) ) ;
#542 = EDGE_LOOP ( 'NONE', ( #394, #170, #295, #3 ) ) ;
#543 = VERTEX_POINT ( 'NONE', #467 ) ;
#544 = PLANE ( 'NONE',  #590 ) ;
#545 = FACE_OUTER_BOUND ( 'NONE', #641, .T. ) ;
#546 = ADVANCED_FACE ( 'NONE', ( #748 ), #23, .F. ) ;
#547 = CARTESIAN_POINT ( 'NONE',  ( -20.49999999999990763, -16.00000000000000355, 40.10100000000003462 ) ) ;
#548 = FACE_OUTER_BOUND ( 'NONE', #82, .T. ) ;
#549 = EDGE_LOOP ( 'NONE', ( #940, #707 ) ) ;
#550 = AXIS2_PLACEMENT_3D ( 'NONE', #603, #517, #884 ) ;
#551 = VECTOR ( 'NONE', #1178, 1000.000000000000000 ) ;
#552 = PRESENTATION_STYLE_ASSIGNMENT (( #492 ) ) ;
#553 = EDGE_CURVE ( 'NONE', #636, #383, #652, .T. ) ;
#554 = AXIS2_PLACEMENT_3D ( 'NONE', #926, #852, #395 ) ;
#555 = APPLICATION_CONTEXT ( 'automotive_design' ) ;
#556 = DIRECTION ( 'NONE',  ( -0.000000000000000000, -0.000000000000000000, 1.000000000000000000 ) ) ;
#557 = VECTOR ( 'NONE', #474, 1000.000000000000000 ) ;
#558 = CYLINDRICAL_SURFACE ( 'NONE', #934, 1.749999999999925837 ) ;
#559 = DIRECTION ( 'NONE',  ( 0.000000000000000000, -0.000000000000000000, 1.000000000000000000 ) ) ;
#560 = VERTEX_POINT ( 'NONE', #759 ) ;
#561 = DIRECTION ( 'NONE',  ( 0.000000000000000000, 1.000000000000000000, 0.000000000000000000 ) ) ;
#562 = LINE ( 'NONE', #1039, #1142 ) ;
#563 = DIRECTION ( 'NONE',  ( -1.000000000000000000, 0.000000000000000000, 0.000000000000000000 ) ) ;
#564 =( NAMED_UNIT ( * ) SI_UNIT ( $, .STERADIAN. ) SOLID_ANGLE_UNIT ( ) );
#565 = ORIENTED_EDGE ( 'NONE', *, *, #1091, .F. ) ;
#566 = CARTESIAN_POINT ( 'NONE',  ( -30.29999999999990479, -16.00000000000000355, 40.10100000000003462 ) ) ;
#567 = DIRECTION ( 'NONE',  ( -0.000000000000000000, -0.000000000000000000, -1.000000000000000000 ) ) ;
#568 = CYLINDRICAL_SURFACE ( 'NONE', #877, 1.749999999999965361 ) ;
#569 = ORIENTED_EDGE ( 'NONE', *, *, #750, .T. ) ;
#570 = EDGE_CURVE ( 'NONE', #143, #319, #374, .T. ) ;
#571 = ORIENTED_EDGE ( 'NONE', *, *, #1092, .T. ) ;
#572 = VECTOR ( 'NONE', #442, 1000.000000000000000 ) ;
#573 = DIRECTION ( 'NONE',  ( 0.000000000000000000, 0.000000000000000000, 1.000000000000000000 ) ) ;
#574 = VECTOR ( 'NONE', #999, 1000.000000000000000 ) ;
#575 = VECTOR ( 'NONE', #582, 1000.000000000000000 ) ;
#576 = LINE ( 'NONE', #936, #920 ) ;
#577 =( GEOMETRIC_REPRESENTATION_CONTEXT ( 3 ) GLOBAL_UNCERTAINTY_ASSIGNED_CONTEXT ( ( #1158 ) ) GLOBAL_UNIT_ASSIGNED_CONTEXT ( ( #642, #628, #1008 ) ) REPRESENTATION_CONTEXT ( 'NONE', 'WORKASPACE' ) );
#578 = ORIENTED_EDGE ( 'NONE', *, *, #758, .F. ) ;
#579 = VERTEX_POINT ( 'NONE', #101 ) ;
#580 = EDGE_CURVE ( 'NONE', #579, #424, #114, .T. ) ;
#581 = LINE ( 'NONE', #849, #630 ) ;
#582 = DIRECTION ( 'NONE',  ( -0.000000000000000000, -0.000000000000000000, -1.000000000000000000 ) ) ;
#583 = ORIENTED_EDGE ( 'NONE', *, *, #893, .F. ) ;
#584 = DIRECTION ( 'NONE',  ( 0.000000000000000000, 0.000000000000000000, 1.000000000000000000 ) ) ;
#585 = CARTESIAN_POINT ( 'NONE',  ( 10.00000000000000178, -16.00000000000000000, 0.000000000000000000 ) ) ;
#586 = EDGE_CURVE ( 'NONE', #469, #663, #198, .T. ) ;
#587 = ORIENTED_EDGE ( 'NONE', *, *, #580, .F. ) ;
#588 = LINE ( 'NONE', #765, #973 ) ;
#589 = CARTESIAN_POINT ( 'NONE',  ( -24.30000000000000782, 16.00000000000000000, 25.04999999999990479 ) ) ;
#590 = AXIS2_PLACEMENT_3D ( 'NONE', #1085, #633, #171 ) ;
#591 = ORIENTED_EDGE ( 'NONE', *, *, #332, .T. ) ;
#592 = PLANE ( 'NONE',  #530 ) ;
#593 = DIRECTION ( 'NONE',  ( -0.000000000000000000, -0.000000000000000000, 1.000000000000000000 ) ) ;
#594 = DIRECTION ( 'NONE',  ( 0.000000000000000000, 1.000000000000000000, 0.000000000000000000 ) ) ;
#595 = ORIENTED_EDGE ( 'NONE', *, *, #460, .T. ) ;
#596 = LINE ( 'NONE', #501, #89 ) ;
#597 = ORIENTED_EDGE ( 'NONE', *, *, #428, .F. ) ;
#598 = DIRECTION ( 'NONE',  ( 1.000000000000000000, 0.000000000000000000, 0.000000000000000000 ) ) ;
#599 = EDGE_CURVE ( 'NONE', #69, #502, #106, .T. ) ;
#600 = DIRECTION ( 'NONE',  ( 0.000000000000000000, 0.000000000000000000, 1.000000000000000000 ) ) ;
#601 = EDGE_CURVE ( 'NONE', #695, #1156, #1108, .T. ) ;
#602 = ORIENTED_EDGE ( 'NONE', *, *, #941, .T. ) ;
#603 = CARTESIAN_POINT ( 'NONE',  ( -24.30000000000000782, 7.000000000000000888, 25.04999999999990479 ) ) ;
#604 = ADVANCED_FACE ( 'NONE', ( #380, #840, #834 ), #947, .T. ) ;
#605 = VERTEX_POINT ( 'NONE', #672 ) ;
#606 = DIRECTION ( 'NONE',  ( -1.626303258728256651E-16, 1.000000000000000000, -0.000000000000000000 ) ) ;
#607 = DIRECTION ( 'NONE',  ( -1.348150961071064823E-32, 0.000000000000000000, 1.000000000000000000 ) ) ;
#608 = AXIS2_PLACEMENT_3D ( 'NONE', #150, #252, #1174 ) ;
#609 = AXIS2_PLACEMENT_3D ( 'NONE', #1172, #1082, #347 ) ;
#610 = EDGE_LOOP ( 'NONE', ( #983, #307, #861, #722 ) ) ;
#611 = CARTESIAN_POINT ( 'NONE',  ( -30.29999999999990479, -5.999999999999917399, 18.05000000000002203 ) ) ;
#612 = CIRCLE ( 'NONE', #669, 2.999999999999999112 ) ;
#613 = ORIENTED_EDGE ( 'NONE', *, *, #53, .T. ) ;
#614 = AXIS2_PLACEMENT_3D ( 'NONE', #464, #1103, #1097 ) ;
#615 = DIRECTION ( 'NONE',  ( -0.000000000000000000, 1.000000000000000000, -0.000000000000000000 ) ) ;
#616 = CARTESIAN_POINT ( 'NONE',  ( -30.29999999999990479, -16.00000000000000355, 30.10000000000002274 ) ) ;
#617 = ORIENTED_EDGE ( 'NONE', *, *, #406, .F. ) ;
#618 = CYLINDRICAL_SURFACE ( 'NONE', #487, 2.999999999999999112 ) ;
#619 = EDGE_LOOP ( 'NONE', ( #371, #1016, #191, #918, #975, #989, #809, #162, #9 ) ) ;
#620 = DIRECTION ( 'NONE',  ( -1.387778780781445281E-15, -1.000000000000000000, 2.168404344971008868E-16 ) ) ;
#621 = DIRECTION ( 'NONE',  ( 1.000000000000000000, 0.000000000000000000, 0.000000000000000000 ) ) ;
#622 = ORIENTED_EDGE ( 'NONE', *, *, #98, .F. ) ;
#623 = DIRECTION ( 'NONE',  ( 0.000000000000000000, 1.000000000000000000, 0.000000000000000000 ) ) ;
#624 = VERTEX_POINT ( 'NONE', #11 ) ;
#625 = DIRECTION ( 'NONE',  ( 0.000000000000000000, 0.000000000000000000, 1.000000000000000000 ) ) ;
#626 = LINE ( 'NONE', #717, #667 ) ;
#627 = VERTEX_POINT ( 'NONE', #370 ) ;
#628 =( NAMED_UNIT ( * ) PLANE_ANGLE_UNIT ( ) SI_UNIT ( $, .RADIAN. ) );
#629 = EDGE_CURVE ( 'NONE', #99, #631, #930, .T. ) ;
#630 = VECTOR ( 'NONE', #297, 1000.000000000000000 ) ;
#631 = VERTEX_POINT ( 'NONE', #1060 ) ;
#632 = AXIS2_PLACEMENT_3D ( 'NONE', #1010, #892, #887 ) ;
#633 = DIRECTION ( 'NONE',  ( 0.000000000000000000, 1.000000000000000000, -1.734723475976806848E-16 ) ) ;
#634 = CIRCLE ( 'NONE', #533, 10.00000000000000000 ) ;
#635 = DIRECTION ( 'NONE',  ( -1.000000000000000000, 0.000000000000000000, 0.000000000000000000 ) ) ;
#636 = VERTEX_POINT ( 'NONE', #397 ) ;
#637 = ORIENTED_EDGE ( 'NONE', *, *, #136, .F. ) ;
#638 = DIRECTION ( 'NONE',  ( -1.000000000000000000, 0.000000000000000000, 0.000000000000000000 ) ) ;
#639 = CARTESIAN_POINT ( 'NONE',  ( -30.29999999999990479, -15.99999999999991651, 25.05000000000002203 ) ) ;
#640 = EDGE_CURVE ( 'NONE', #1156, #695, #528, .T. ) ;
#641 = EDGE_LOOP ( 'NONE', ( #713, #732 ) ) ;
#642 =( LENGTH_UNIT ( ) NAMED_UNIT ( * ) SI_UNIT ( .MILLI., .METRE. ) );
#643 = ADVANCED_FACE ( 'NONE', ( #1055 ), #692, .F. ) ;
#644 = VERTEX_POINT ( 'NONE', #1144 ) ;
#645 = PLANE ( 'NONE',  #632 ) ;
#646 = CARTESIAN_POINT ( 'NONE',  ( -10.49999999999999822, 16.00000000000000000, 4.000000000000000000 ) ) ;
#647 = DIRECTION ( 'NONE',  ( -0.000000000000000000, -0.000000000000000000, -1.000000000000000000 ) ) ;
#648 = ORIENTED_EDGE ( 'NONE', *, *, #19, .T. ) ;
#649 = EDGE_CURVE ( 'NONE', #859, #157, #333, .T. ) ;
#650 = CARTESIAN_POINT ( 'NONE',  ( 9.999999999999996447, 16.00000000000000000, 4.000000000000000000 ) ) ;
#651 = VECTOR ( 'NONE', #1068, 1000.000000000000000 ) ;
#652 = LINE ( 'NONE', #1115, #32 ) ;
#653 = CARTESIAN_POINT ( 'NONE',  ( -20.49999999999990763, -5.999999999999916511, 25.05000000000002203 ) ) ;
#654 = ORIENTED_EDGE ( 'NONE', *, *, #187, .T. ) ;
#655 = DIRECTION ( 'NONE',  ( 0.000000000000000000, -0.000000000000000000, -1.000000000000000000 ) ) ;
#656 = DIRECTION ( 'NONE',  ( -1.000000000000000000, -0.000000000000000000, -0.000000000000000000 ) ) ;
#657 = CARTESIAN_POINT ( 'NONE',  ( -10.00000000000000355, 16.00000000000000000, 4.000000000000000000 ) ) ;
#658 = ORIENTED_EDGE ( 'NONE', *, *, #750, .F. ) ;
#659 = ORIENTED_EDGE ( 'NONE', *, *, #974, .F. ) ;
#660 = CARTESIAN_POINT ( 'NONE',  ( -10.49999999999999467, 15.99999999999999289, 36.10000000000002274 ) ) ;
#661 = CARTESIAN_POINT ( 'NONE',  ( 10.00000000000009948, 15.99999999999999289, 36.10000000000002274 ) ) ;
#662 = EDGE_CURVE ( 'NONE', #134, #966, #588, .T. ) ;
#663 = VERTEX_POINT ( 'NONE', #320 ) ;
#664 = AXIS2_PLACEMENT_3D ( 'NONE', #468, #268, #286 ) ;
#665 = EDGE_LOOP ( 'NONE', ( #1175, #510, #419, #491 ) ) ;
#666 = AXIS2_PLACEMENT_3D ( 'NONE', #1163, #418, #708 ) ;
#667 = VECTOR ( 'NONE', #360, 1000.000000000000000 ) ;
#668 = DIRECTION ( 'NONE',  ( 0.000000000000000000, 1.156482317317872080E-14, 1.000000000000000000 ) ) ;
#669 = AXIS2_PLACEMENT_3D ( 'NONE', #725, #815, #1182 ) ;
#670 = FACE_BOUND ( 'NONE', #64, .T. ) ;
#671 = ORIENTED_EDGE ( 'NONE', *, *, #428, .T. ) ;
#672 = CARTESIAN_POINT ( 'NONE',  ( -1.749999999999953593, -11.00000000000003553, 4.000000000000000000 ) ) ;
#673 = EDGE_CURVE ( 'NONE', #1009, #624, #138, .T. ) ;
#674 = CARTESIAN_POINT ( 'NONE',  ( 1.749999999999979128, 11.00000000000000178, 4.000000000000000000 ) ) ;
#675 = ORIENTED_EDGE ( 'NONE', *, *, #269, .T. ) ;
#676 = PLANE ( 'NONE',  #778 ) ;
#677 = CARTESIAN_POINT ( 'NONE',  ( 9.999999999999996447, 16.00000000000000000, 4.000000000000000000 ) ) ;
#678 = CARTESIAN_POINT ( 'NONE',  ( -20.29999999999998295, -16.00000000000000355, 30.10000000000002274 ) ) ;
#679 = ORIENTED_EDGE ( 'NONE', *, *, #1004, .T. ) ;
#680 = DIRECTION ( 'NONE',  ( -0.000000000000000000, -0.000000000000000000, -1.000000000000000000 ) ) ;
#681 = PRODUCT_RELATED_PRODUCT_CATEGORY ( 'part', '', ( #58 ) ) ;
#682 = FACE_OUTER_BOUND ( 'NONE', #410, .T. ) ;
#683 = AXIS2_PLACEMENT_3D ( 'NONE', #1147, #321, #693 ) ;
#684 = CARTESIAN_POINT ( 'NONE',  ( -30.29999999999990479, -15.99999999999991651, 25.05000000000002203 ) ) ;
#685 = VECTOR ( 'NONE', #606, 1000.000000000000000 ) ;
#686 = AXIS2_PLACEMENT_3D ( 'NONE', #547, #92, #827 ) ;
#687 = VERTEX_POINT ( 'NONE', #964 ) ;
#688 = FILL_AREA_STYLE_COLOUR ( '', #33 ) ;
#689 = VECTOR ( 'NONE', #429, 1000.000000000000000 ) ;
#690 = ORIENTED_EDGE ( 'NONE', *, *, #662, .F. ) ;
#691 = ADVANCED_FACE ( 'NONE', ( #785 ), #957, .F. ) ;
#692 = CYLINDRICAL_SURFACE ( 'NONE', #357, 1.750000000000084821 ) ;
#693 = DIRECTION ( 'NONE',  ( 0.000000000000000000, 0.000000000000000000, 1.000000000000000000 ) ) ;
#694 = ADVANCED_FACE ( 'NONE', ( #494 ), #152, .F. ) ;
#695 = VERTEX_POINT ( 'NONE', #872 ) ;
#696 = CARTESIAN_POINT ( 'NONE',  ( -24.30000000000000782, 7.000000000000000888, 15.04999999999990656 ) ) ;
#697 = ORIENTED_EDGE ( 'NONE', *, *, #839, .F. ) ;
#698 = LINE ( 'NONE', #677, #685 ) ;
#699 = DIRECTION ( 'NONE',  ( 0.000000000000000000, 0.000000000000000000, 1.000000000000000000 ) ) ;
#700 = ORIENTED_EDGE ( 'NONE', *, *, #984, .T. ) ;
#701 = CARTESIAN_POINT ( 'NONE',  ( -30.29999999999990479, -8.999999999999918288, 15.05000000000002203 ) ) ;
#702 = EDGE_LOOP ( 'NONE', ( #658, #30, #258, #987 ) ) ;
#703 = DIRECTION ( 'NONE',  ( -0.000000000000000000, -0.000000000000000000, -1.000000000000000000 ) ) ;
#704 = PRODUCT_DEFINITION_FORMATION_WITH_SPECIFIED_SOURCE ( 'ANY', '', #58, .NOT_KNOWN. ) ;
#705 = CARTESIAN_POINT ( 'NONE',  ( 0.000000000000000000, 0.000000000000000000, 0.000000000000000000 ) ) ;
#706 = CIRCLE ( 'NONE', #489, 2.750000000000075495 ) ;
#707 = ORIENTED_EDGE ( 'NONE', *, *, #640, .F. ) ;
#708 = DIRECTION ( 'NONE',  ( 1.000000000000000000, 0.000000000000000000, 0.000000000000000000 ) ) ;
#709 = EDGE_LOOP ( 'NONE', ( #292, #659 ) ) ;
#710 = CARTESIAN_POINT ( 'NONE',  ( -24.30000000000000782, 7.000000000000000888, 15.04999999999990656 ) ) ;
#711 = LINE ( 'NONE', #806, #917 ) ;
#712 = ADVANCED_FACE ( 'NONE', ( #52 ), #1152, .T. ) ;
#713 = ORIENTED_EDGE ( 'NONE', *, *, #1177, .T. ) ;
#714 = CARTESIAN_POINT ( 'NONE',  ( 1.749999999999898082, -11.00000000000003553, 0.000000000000000000 ) ) ;
#715 = ORIENTED_EDGE ( 'NONE', *, *, #601, .T. ) ;
#716 = CARTESIAN_POINT ( 'NONE',  ( 10.00000000000009948, 16.00000000000003908, 40.09799979996000729 ) ) ;
#717 = CARTESIAN_POINT ( 'NONE',  ( -30.29999999999995808, 5.000000000000055955, 30.10000000000002629 ) ) ;
#718 = DIRECTION ( 'NONE',  ( -0.000000000000000000, 1.000000000000000000, -0.000000000000000000 ) ) ;
#719 = ORIENTED_EDGE ( 'NONE', *, *, #847, .T. ) ;
#720 = DIRECTION ( 'NONE',  ( -0.000000000000000000, -0.000000000000000000, 1.000000000000000000 ) ) ;
#721 = DIRECTION ( 'NONE',  ( 0.000000000000000000, -0.000000000000000000, -1.000000000000000000 ) ) ;
#722 = ORIENTED_EDGE ( 'NONE', *, *, #187, .F. ) ;
#723 = MECHANICAL_DESIGN_GEOMETRIC_PRESENTATION_REPRESENTATION (  '', ( #1088 ), #188 ) ;
#724 = EDGE_CURVE ( 'NONE', #319, #143, #246, .T. ) ;
#725 = CARTESIAN_POINT ( 'NONE',  ( -30.29999999999990479, -8.999999999999918288, 22.05000000000002558 ) ) ;
#726 = STYLED_ITEM ( 'NONE', ( #923 ), #147 ) ;
#727 = CARTESIAN_POINT ( 'NONE',  ( -24.30000000000000782, 7.000000000000000888, 15.04999999999990656 ) ) ;
#728 = EDGE_CURVE ( 'NONE', #560, #579, #698, .T. ) ;
#729 = CARTESIAN_POINT ( 'NONE',  ( 1.750000000000058620, 11.00000000000000178, 40.09799979996000729 ) ) ;
#730 = CARTESIAN_POINT ( 'NONE',  ( -30.29999999999990479, -16.00000000000000355, 40.10100000000003462 ) ) ;
#731 = EDGE_CURVE ( 'NONE', #788, #823, #1043, .T. ) ;
#732 = ORIENTED_EDGE ( 'NONE', *, *, #893, .T. ) ;
#733 = CARTESIAN_POINT ( 'NONE',  ( -24.30000000000000782, 16.00000000000000000, 12.29999999999983196 ) ) ;
#734 = CARTESIAN_POINT ( 'NONE',  ( -10.00000000000000000, -16.00000000000000000, 4.000000000000000000 ) ) ;
#735 = LINE ( 'NONE', #1187, #17 ) ;
#736 = ORIENTED_EDGE ( 'NONE', *, *, #448, .F. ) ;
#737 = APPLICATION_CONTEXT ( 'automotive_design' ) ;
#738 = DIRECTION ( 'NONE',  ( 1.000000000000000000, 0.000000000000000000, 0.000000000000000000 ) ) ;
#739 = DIRECTION ( 'NONE',  ( 1.387778780781445281E-15, 1.000000000000000000, 7.886683122265728629E-32 ) ) ;
#740 = ORIENTED_EDGE ( 'NONE', *, *, #538, .T. ) ;
#741 = VERTEX_POINT ( 'NONE', #769 ) ;
#742 = VECTOR ( 'NONE', #777, 1000.000000000000000 ) ;
#743 = DIRECTION ( 'NONE',  ( 1.626303258728256651E-16, -1.000000000000000000, 0.000000000000000000 ) ) ;
#744 = DIRECTION ( 'NONE',  ( -0.000000000000000000, 1.000000000000000000, -0.000000000000000000 ) ) ;
#745 = CIRCLE ( 'NONE', #1018, 10.00000000000000178 ) ;
#746 = CARTESIAN_POINT ( 'NONE',  ( -30.29999999999990479, -8.999999999999918288, 18.05000000000002203 ) ) ;
#747 = ORIENTED_EDGE ( 'NONE', *, *, #119, .T. ) ;
#748 = FACE_OUTER_BOUND ( 'NONE', #174, .T. ) ;
#749 = ADVANCED_FACE ( 'NONE', ( #682 ), #35, .T. ) ;
#750 = EDGE_CURVE ( 'NONE', #1156, #529, #145, .T. ) ;
#751 = DIRECTION ( 'NONE',  ( -0.000000000000000000, -0.000000000000000000, 1.000000000000000000 ) ) ;
#752 = ORIENTED_EDGE ( 'NONE', *, *, #448, .T. ) ;
#753 = EDGE_LOOP ( 'NONE', ( #932, #8, #378, #1136 ) ) ;
#754 = CARTESIAN_POINT ( 'NONE',  ( -30.29999999999990479, -5.999999999999916511, 25.05000000000002203 ) ) ;
#755 = DIRECTION ( 'NONE',  ( -1.000000000000000000, -0.000000000000000000, -0.000000000000000000 ) ) ;
#756 = EDGE_LOOP ( 'NONE', ( #800, #496, #241, #209 ) ) ;
#757 = AXIS2_PLACEMENT_3D ( 'NONE', #789, #1157, #231 ) ;
#758 = EDGE_CURVE ( 'NONE', #279, #836, #132, .T. ) ;
#759 = CARTESIAN_POINT ( 'NONE',  ( 10.00000000000000178, -16.00000000000000000, 4.000000000000000000 ) ) ;
#760 = VECTOR ( 'NONE', #805, 1000.000000000000000 ) ;
#761 = LINE ( 'NONE', #382, #167 ) ;
#762 = ADVANCED_FACE ( 'NONE', ( #1160 ), #867, .F. ) ;
#763 = ORIENTED_EDGE ( 'NONE', *, *, #269, .F. ) ;
#764 = DIRECTION ( 'NONE',  ( 1.000000000000000000, 0.000000000000000000, -0.000000000000000000 ) ) ;
#765 = CARTESIAN_POINT ( 'NONE',  ( -1.749999999999951372, 11.00000000000000178, 8.949747468305735865 ) ) ;
#766 = CARTESIAN_POINT ( 'NONE',  ( -24.30000000000000782, 7.000000000000000888, 27.79999999999997939 ) ) ;
#767 = EDGE_LOOP ( 'NONE', ( #1180, #945, #120, #968 ) ) ;
#768 = FACE_OUTER_BOUND ( 'NONE', #201, .T. ) ;
#769 = CARTESIAN_POINT ( 'NONE',  ( 1.750000000000057065, -11.00000000000003553, 36.10000000000002274 ) ) ;
#770 = CARTESIAN_POINT ( 'NONE',  ( -24.30000000000000782, 7.000000000000000888, 17.79999999999998295 ) ) ;
#771 = ORIENTED_EDGE ( 'NONE', *, *, #478, .T. ) ;
#772 = CYLINDRICAL_SURFACE ( 'NONE', #554, 2.999999999999999112 ) ;
#773 = ORIENTED_EDGE ( 'NONE', *, *, #112, .T. ) ;
#774 = CARTESIAN_POINT ( 'NONE',  ( -20.49999999999990763, -5.999999999999918288, 18.05000000000002203 ) ) ;
#775 = EDGE_CURVE ( 'NONE', #182, #69, #358, .T. ) ;
#776 = VECTOR ( 'NONE', #471, 1000.000000000000000 ) ;
#777 = DIRECTION ( 'NONE',  ( 0.000000000000000000, 1.000000000000000000, 0.000000000000000000 ) ) ;
#778 = AXIS2_PLACEMENT_3D ( 'NONE', #404, #561, #197 ) ;
#779 = AXIS2_PLACEMENT_3D ( 'NONE', #657, #1025, #205 ) ;
#780 = ORIENTED_EDGE ( 'NONE', *, *, #506, .F. ) ;
#781 = DIRECTION ( 'NONE',  ( -0.000000000000000000, -0.000000000000000000, -1.000000000000000000 ) ) ;
#782 = AXIS2_PLACEMENT_3D ( 'NONE', #863, #249, #792 ) ;
#783 = EDGE_LOOP ( 'NONE', ( #715, #569, #981, #622 ) ) ;
#784 = PRODUCT_DEFINITION_SHAPE ( 'NONE', 'NONE',  #1074 ) ;
#785 = FACE_OUTER_BOUND ( 'NONE', #665, .T. ) ;
#786 = FACE_OUTER_BOUND ( 'NONE', #851, .T. ) ;
#787 = ADVANCED_FACE ( 'NONE', ( #447 ), #544, .F. ) ;
#788 = VERTEX_POINT ( 'NONE', #902 ) ;
#789 = CARTESIAN_POINT ( 'NONE',  ( -2.775557561562891351E-14, -11.00000000000003553, 8.949747468305735865 ) ) ;
#790 = ORIENTED_EDGE ( 'NONE', *, *, #1193, .T. ) ;
#791 = DIRECTION ( 'NONE',  ( -0.000000000000000000, 1.000000000000000000, -0.000000000000000000 ) ) ;
#792 = DIRECTION ( 'NONE',  ( -1.387778780781445281E-15, -1.000000000000000000, -7.886683122265728629E-32 ) ) ;
#793 = ORIENTED_EDGE ( 'NONE', *, *, #296, .T. ) ;
#794 = LINE ( 'NONE', #701, #1067 ) ;
#795 = ORIENTED_EDGE ( 'NONE', *, *, #1032, .T. ) ;
#796 = EDGE_CURVE ( 'NONE', #208, #1080, #441, .T. ) ;
#797 = DIRECTION ( 'NONE',  ( 0.000000000000000000, 0.000000000000000000, -1.000000000000000000 ) ) ;
#798 = CYLINDRICAL_SURFACE ( 'NONE', #72, 1.750000000000044631 ) ;
#799 = VECTOR ( 'NONE', #229, 1000.000000000000000 ) ;
#800 = ORIENTED_EDGE ( 'NONE', *, *, #1132, .F. ) ;
#801 = CARTESIAN_POINT ( 'NONE',  ( 1.750000000000057065, -11.00000000000003553, 40.09799979996000729 ) ) ;
#802 = VECTOR ( 'NONE', #1171, 1000.000000000000000 ) ;
#803 = VERTEX_POINT ( 'NONE', #733 ) ;
#804 = CIRCLE ( 'NONE', #996, 1.749999999999925837 ) ;
#805 = DIRECTION ( 'NONE',  ( 0.000000000000000000, 1.000000000000000000, -1.084202172485505543E-16 ) ) ;
#806 = CARTESIAN_POINT ( 'NONE',  ( -13.50000000000000000, 16.00000000000000000, 10.00000000000002309 ) ) ;
#807 = DIRECTION ( 'NONE',  ( 0.000000000000000000, 0.000000000000000000, 1.000000000000000000 ) ) ;
#808 = CYLINDRICAL_SURFACE ( 'NONE', #550, 2.750000000000075495 ) ;
#809 = ORIENTED_EDGE ( 'NONE', *, *, #369, .F. ) ;
#810 = CARTESIAN_POINT ( 'NONE',  ( -20.49999999999990763, 15.99999999999999289, 10.00000000000002309 ) ) ;
#811 = CYLINDRICAL_SURFACE ( 'NONE', #1047, 2.750000000000075495 ) ;
#812 = CARTESIAN_POINT ( 'NONE',  ( -2.775557561562891351E-14, -11.00000000000003553, 4.000000000000000000 ) ) ;
#813 = EDGE_CURVE ( 'NONE', #86, #481, #540, .T. ) ;
#814 = ORIENTED_EDGE ( 'NONE', *, *, #78, .T. ) ;
#815 = DIRECTION ( 'NONE',  ( 1.000000000000000000, 0.000000000000000000, 0.000000000000000000 ) ) ;
#816 = EDGE_CURVE ( 'NONE', #372, #367, #612, .T. ) ;
#817 = EDGE_CURVE ( 'NONE', #788, #1080, #65, .T. ) ;
#818 = LINE ( 'NONE', #909, #1033 ) ;
#819 = AXIS2_PLACEMENT_3D ( 'NONE', #344, #49, #257 ) ;
#820 = CARTESIAN_POINT ( 'NONE',  ( -10.49999999999999467, 16.00000000000002132, 30.10000000000002274 ) ) ;
#821 = PRODUCT_DEFINITION_CONTEXT ( 'detailed design', #737, 'design' ) ;
#822 = VECTOR ( 'NONE', #365, 1000.000000000000000 ) ;
#823 = VERTEX_POINT ( 'NONE', #1005 ) ;
#824 = CARTESIAN_POINT ( 'NONE',  ( -1.750000000000112577, -11.00000000000003553, 36.10000000000002274 ) ) ;
#825 = AXIS2_PLACEMENT_3D ( 'NONE', #696, #1058, #879 ) ;
#826 = DIRECTION ( 'NONE',  ( -0.000000000000000000, 1.000000000000000000, -0.000000000000000000 ) ) ;
#827 = DIRECTION ( 'NONE',  ( 0.000000000000000000, 0.000000000000000000, 1.000000000000000000 ) ) ;
#828 = SURFACE_STYLE_FILL_AREA ( #536 ) ;
#829 = ORIENTED_EDGE ( 'NONE', *, *, #848, .T. ) ;
#830 = CARTESIAN_POINT ( 'NONE',  ( -2.775557561562891351E-14, -11.00000000000003553, 31.15025253169394759 ) ) ;
#831 = CARTESIAN_POINT ( 'NONE',  ( 10.00000000000005684, -16.00000000000000355, 40.09799979996001440 ) ) ;
#832 = ORIENTED_EDGE ( 'NONE', *, *, #1061, .F. ) ;
#833 = FACE_OUTER_BOUND ( 'NONE', #542, .T. ) ;
#834 = FACE_OUTER_BOUND ( 'NONE', #756, .T. ) ;
#835 = CARTESIAN_POINT ( 'NONE',  ( -20.29999999999998295, -16.00000000000000355, 10.00000000000002309 ) ) ;
#836 = VERTEX_POINT ( 'NONE', #1094 ) ;
#837 = VECTOR ( 'NONE', #486, 1000.000000000000000 ) ;
#838 = CIRCLE ( 'NONE', #1110, 1.749999999999925837 ) ;
#839 = EDGE_CURVE ( 'NONE', #543, #1118, #838, .T. ) ;
#840 = FACE_BOUND ( 'NONE', #906, .T. ) ;
#841 = AXIS2_PLACEMENT_3D ( 'NONE', #678, #594, #699 ) ;
#842 = DIRECTION ( 'NONE',  ( 0.000000000000000000, -1.000000000000000000, 1.084202172485505420E-16 ) ) ;
#843 = ORIENTED_EDGE ( 'NONE', *, *, #296, .F. ) ;
#844 = DIRECTION ( 'NONE',  ( 0.000000000000000000, 1.000000000000000000, 0.000000000000000000 ) ) ;
#845 = CARTESIAN_POINT ( 'NONE',  ( -20.49999999999990763, -8.999999999999918288, 25.05000000000002203 ) ) ;
#846 = ORIENTED_EDGE ( 'NONE', *, *, #113, .F. ) ;
#847 = EDGE_CURVE ( 'NONE', #663, #521, #271, .T. ) ;
#848 = EDGE_CURVE ( 'NONE', #469, #788, #524, .T. ) ;
#849 = CARTESIAN_POINT ( 'NONE',  ( 42.24878295998914268, 15.99999999999999289, 36.10000000000002274 ) ) ;
#850 = LINE ( 'NONE', #377, #557 ) ;
#851 = EDGE_LOOP ( 'NONE', ( #108, #313, #131, #595 ) ) ;
#852 = DIRECTION ( 'NONE',  ( 1.000000000000000000, -0.000000000000000000, 0.000000000000000000 ) ) ;
#853 = VECTOR ( 'NONE', #556, 1000.000000000000000 ) ;
#854 = CARTESIAN_POINT ( 'NONE',  ( -24.30000000000000782, 7.000000000000000888, 25.04999999999990479 ) ) ;
#855 = EDGE_CURVE ( 'NONE', #605, #627, #472, .T. ) ;
#856 = VECTOR ( 'NONE', #100, 1000.000000000000000 ) ;
#857 = VECTOR ( 'NONE', #1007, 1000.000000000000000 ) ;
#858 = DIRECTION ( 'NONE',  ( 0.000000000000000000, -2.168404344971008868E-16, -1.000000000000000000 ) ) ;
#859 = VERTEX_POINT ( 'NONE', #265 ) ;
#860 =( NAMED_UNIT ( * ) SI_UNIT ( $, .STERADIAN. ) SOLID_ANGLE_UNIT ( ) );
#861 = ORIENTED_EDGE ( 'NONE', *, *, #493, .F. ) ;
#862 = DIRECTION ( 'NONE',  ( 0.000000000000000000, 0.000000000000000000, -1.000000000000000000 ) ) ;
#863 = CARTESIAN_POINT ( 'NONE',  ( -20.34999999999995168, 5.000000000000039080, 10.00000000000002309 ) ) ;
#864 = VERTEX_POINT ( 'NONE', #824 ) ;
#865 = CARTESIAN_POINT ( 'NONE',  ( -1.750000000000112577, -11.00000000000003553, 31.15025253169394759 ) ) ;
#866 = VERTEX_POINT ( 'NONE', #810 ) ;
#867 = CYLINDRICAL_SURFACE ( 'NONE', #393, 2.750000000000075495 ) ;
#868 = DIRECTION ( 'NONE',  ( 0.000000000000000000, 1.000000000000000000, 0.000000000000000000 ) ) ;
#869 = ORIENTED_EDGE ( 'NONE', *, *, #352, .T. ) ;
#870 = DIRECTION ( 'NONE',  ( -0.000000000000000000, -0.000000000000000000, -1.000000000000000000 ) ) ;
#871 = EDGE_LOOP ( 'NONE', ( #1052, #440, #956, #571 ) ) ;
#872 = CARTESIAN_POINT ( 'NONE',  ( 1.750000000000058620, 11.00000000000000178, 36.10000000000002274 ) ) ;
#873 = EDGE_CURVE ( 'NONE', #560, #157, #351, .T. ) ;
#874 = VECTOR ( 'NONE', #415, 1000.000000000000000 ) ;
#875 = DIRECTION ( 'NONE',  ( -0.000000000000000000, 0.000000000000000000, 1.000000000000000000 ) ) ;
#876 = AXIS2_PLACEMENT_3D ( 'NONE', #485, #1073, #439 ) ;
#877 = AXIS2_PLACEMENT_3D ( 'NONE', #931, #105, #115 ) ;
#878 = VERTEX_POINT ( 'NONE', #519 ) ;
#879 = DIRECTION ( 'NONE',  ( 0.000000000000000000, 0.000000000000000000, 1.000000000000000000 ) ) ;
#880 = ORIENTED_EDGE ( 'NONE', *, *, #796, .T. ) ;
#881 = DIRECTION ( 'NONE',  ( -0.000000000000000000, -0.000000000000000000, -1.000000000000000000 ) ) ;
#882 = DIRECTION ( 'NONE',  ( 1.084202172485504434E-16, -1.000000000000000000, 0.000000000000000000 ) ) ;
#883 = ORIENTED_EDGE ( 'NONE', *, *, #24, .F. ) ;
#884 = DIRECTION ( 'NONE',  ( 0.000000000000000000, 0.000000000000000000, 1.000000000000000000 ) ) ;
#885 = ADVANCED_FACE ( 'NONE', ( #364 ), #645, .F. ) ;
#886 = ORIENTED_EDGE ( 'NONE', *, *, #855, .T. ) ;
#887 = DIRECTION ( 'NONE',  ( 0.000000000000000000, -0.000000000000000000, 1.000000000000000000 ) ) ;
#888 = LINE ( 'NONE', #328, #18 ) ;
#889 = ORIENTED_EDGE ( 'NONE', *, *, #724, .F. ) ;
#890 = CARTESIAN_POINT ( 'NONE',  ( -20.49999999999990763, 15.99999999999999289, 30.10000000000002274 ) ) ;
#891 = VERTEX_POINT ( 'NONE', #340 ) ;
#892 = DIRECTION ( 'NONE',  ( 0.000000000000000000, 1.000000000000000000, 0.000000000000000000 ) ) ;
#893 = EDGE_CURVE ( 'NONE', #644, #279, #1070, .T. ) ;
#894 = CARTESIAN_POINT ( 'NONE',  ( 10.00000000000005684, -15.99999999999995914, 36.10000000000002274 ) ) ;
#895 = AXIS2_PLACEMENT_3D ( 'NONE', #375, #1127, #305 ) ;
#896 = VECTOR ( 'NONE', #982, 1000.000000000000000 ) ;
#897 = CARTESIAN_POINT ( 'NONE',  ( 9.999999999999996447, 16.00000000000000000, 0.000000000000000000 ) ) ;
#898 = CYLINDRICAL_SURFACE ( 'NONE', #757, 1.749999999999925837 ) ;
#899 = VECTOR ( 'NONE', #1019, 1000.000000000000000 ) ;
#900 = ORIENTED_EDGE ( 'NONE', *, *, #214, .F. ) ;
#901 = EDGE_CURVE ( 'NONE', #182, #878, #254, .T. ) ;
#902 = CARTESIAN_POINT ( 'NONE',  ( -20.49999999999990763, -15.99999999999994493, 30.10000000000002629 ) ) ;
#903 = CARTESIAN_POINT ( 'NONE',  ( -24.30000000000000782, 16.00000000000000000, 25.04999999999990479 ) ) ;
#904 = ADVANCED_FACE ( 'NONE', ( #985, #158, #71 ), #346, .F. ) ;
#905 = CARTESIAN_POINT ( 'NONE',  ( -24.30000000000000782, 16.00000000000000000, 27.79999999999997939 ) ) ;
#906 = EDGE_LOOP ( 'NONE', ( #886, #814 ) ) ;
#907 = ADVANCED_FACE ( 'NONE', ( #164 ), #592, .F. ) ;
#908 = CARTESIAN_POINT ( 'NONE',  ( -10.49999999999999822, -16.00000000000000000, 42.14031735997642159 ) ) ;
#909 = CARTESIAN_POINT ( 'NONE',  ( -30.29999999999990479, -5.999999999999916511, 22.05000000000002558 ) ) ;
#910 = ORIENTED_EDGE ( 'NONE', *, *, #385, .T. ) ;
#911 = ORIENTED_EDGE ( 'NONE', *, *, #649, .F. ) ;
#912 = CARTESIAN_POINT ( 'NONE',  ( 22.05764119219938380, 16.00000000000002132, 30.10000000000002274 ) ) ;
#913 = PLANE ( 'NONE',  #1087 ) ;
#914 = VECTOR ( 'NONE', #623, 1000.000000000000000 ) ;
#915 = ORIENTED_EDGE ( 'NONE', *, *, #123, .T. ) ;
#916 = CARTESIAN_POINT ( 'NONE',  ( -24.30000000000000782, 7.000000000000000888, 25.04999999999990479 ) ) ;
#917 = VECTOR ( 'NONE', #159, 1000.000000000000000 ) ;
#918 = ORIENTED_EDGE ( 'NONE', *, *, #173, .F. ) ;
#919 = AXIS2_PLACEMENT_3D ( 'NONE', #1099, #87, #453 ) ;
#920 = VECTOR ( 'NONE', #751, 1000.000000000000000 ) ;
#921 = DIRECTION ( 'NONE',  ( 0.000000000000000000, -0.000000000000000000, 1.000000000000000000 ) ) ;
#922 = ORIENTED_EDGE ( 'NONE', *, *, #1027, .T. ) ;
#923 = PRESENTATION_STYLE_ASSIGNMENT (( #181 ) ) ;
#924 = ORIENTED_EDGE ( 'NONE', *, *, #385, .F. ) ;
#925 = ADVANCED_FACE ( 'NONE', ( #768 ), #676, .F. ) ;
#926 = CARTESIAN_POINT ( 'NONE',  ( -6.357864376268951290, -8.999999999999918288, 22.05000000000002558 ) ) ;
#927 = CARTESIAN_POINT ( 'NONE',  ( -20.29999999999995808, 5.000000000000041744, 10.00000000000002309 ) ) ;
#928 = DIRECTION ( 'NONE',  ( 1.000000000000000000, 0.000000000000000000, 0.000000000000000000 ) ) ;
#929 = ORIENTED_EDGE ( 'NONE', *, *, #123, .F. ) ;
#930 = LINE ( 'NONE', #104, #776 ) ;
#931 = CARTESIAN_POINT ( 'NONE',  ( 1.387778780781445676E-14, 11.00000000000000178, 8.949747468305735865 ) ) ;
#932 = ORIENTED_EDGE ( 'NONE', *, *, #177, .F. ) ;
#933 = ORIENTED_EDGE ( 'NONE', *, *, #44, .F. ) ;
#934 = AXIS2_PLACEMENT_3D ( 'NONE', #526, #647, #1014 ) ;
#935 = CARTESIAN_POINT ( 'NONE',  ( -20.29999999999994387, 15.99999999999999289, 30.10000000000002274 ) ) ;
#936 = CARTESIAN_POINT ( 'NONE',  ( 1.750000000000058620, 11.00000000000000178, 31.15025253169394759 ) ) ;
#937 = ADVANCED_FACE ( 'NONE', ( #466 ), #772, .F. ) ;
#938 = ORIENTED_EDGE ( 'NONE', *, *, #629, .T. ) ;
#939 = ADVANCED_FACE ( 'NONE', ( #1042 ), #1140, .F. ) ;
#940 = ORIENTED_EDGE ( 'NONE', *, *, #601, .F. ) ;
#941 = EDGE_CURVE ( 'NONE', #134, #122, #1125, .T. ) ;
#942 = CARTESIAN_POINT ( 'NONE',  ( 1.749999999999979128, 11.00000000000000178, 0.000000000000000000 ) ) ;
#943 = MANIFOLD_SOLID_BREP ( 'Wytnij-wyci¹gniêcie4', #74 ) ;
#944 = CARTESIAN_POINT ( 'NONE',  ( -10.49999999999999822, -16.00000000000000000, 10.00000000000002309 ) ) ;
#945 = ORIENTED_EDGE ( 'NONE', *, *, #855, .F. ) ;
#946 = DIRECTION ( 'NONE',  ( 1.000000000000000000, 0.000000000000000000, 0.000000000000000000 ) ) ;
#947 = PLANE ( 'NONE',  #895 ) ;
#948 = FACE_BOUND ( 'NONE', #1123, .T. ) ;
#949 = ORIENTED_EDGE ( 'NONE', *, *, #1030, .T. ) ;
#950 = VECTOR ( 'NONE', #668, 1000.000000000000000 ) ;
#951 = DIRECTION ( 'NONE',  ( 1.000000000000000000, 0.000000000000000000, 0.000000000000000000 ) ) ;
#952 = CIRCLE ( 'NONE', #434, 1.749999999999965361 ) ;
#953 = DIRECTION ( 'NONE',  ( 0.000000000000000000, 0.000000000000000000, 1.000000000000000000 ) ) ;
#954 = ORIENTED_EDGE ( 'NONE', *, *, #1153, .F. ) ;
#955 = FILL_AREA_STYLE ('',( #688 ) ) ;
#956 = ORIENTED_EDGE ( 'NONE', *, *, #422, .T. ) ;
#957 = CYLINDRICAL_SURFACE ( 'NONE', #454, 1.749999999999965361 ) ;
#958 = LINE ( 'NONE', #408, #742 ) ;
#959 = ORIENTED_EDGE ( 'NONE', *, *, #44, .T. ) ;
#960 = LINE ( 'NONE', #236, #1034 ) ;
#961 = EDGE_CURVE ( 'NONE', #864, #1114, #38, .T. ) ;
#962 = ORIENTED_EDGE ( 'NONE', *, *, #7, .F. ) ;
#963 = ADVANCED_FACE ( 'NONE', ( #833 ), #373, .F. ) ;
#964 = CARTESIAN_POINT ( 'NONE',  ( -20.49999999999990763, -16.00000000000000355, 40.09799979996001440 ) ) ;
#965 = CARTESIAN_POINT ( 'NONE',  ( -20.49999999999990763, -5.999999999999917399, 22.05000000000002558 ) ) ;
#966 = VERTEX_POINT ( 'NONE', #1111 ) ;
#967 = DIRECTION ( 'NONE',  ( 1.000000000000000000, 0.000000000000000000, 0.000000000000000000 ) ) ;
#968 = ORIENTED_EDGE ( 'NONE', *, *, #839, .T. ) ;
#969 = AXIS2_PLACEMENT_3D ( 'NONE', #431, #509, #155 ) ;
#970 = DIRECTION ( 'NONE',  ( 1.000000000000000000, -1.387778780781445281E-15, 1.155557966632283010E-33 ) ) ;
#971 = CIRCLE ( 'NONE', #609, 1.749999999999965361 ) ;
#972 = DIRECTION ( 'NONE',  ( -0.000000000000000000, -0.000000000000000000, -1.000000000000000000 ) ) ;
#973 = VECTOR ( 'NONE', #881, 1000.000000000000000 ) ;
#974 = EDGE_CURVE ( 'NONE', #484, #966, #952, .T. ) ;
#975 = ORIENTED_EDGE ( 'NONE', *, *, #649, .T. ) ;
#976 = LINE ( 'NONE', #1065, #359 ) ;
#977 = ORIENTED_EDGE ( 'NONE', *, *, #78, .F. ) ;
#978 = EDGE_CURVE ( 'NONE', #627, #1118, #10, .T. ) ;
#979 = DIRECTION ( 'NONE',  ( 0.000000000000000000, 0.000000000000000000, 1.000000000000000000 ) ) ;
#980 = CARTESIAN_POINT ( 'NONE',  ( -20.29999999999994387, 15.99999999999999645, 10.00000000000002309 ) ) ;
#981 = ORIENTED_EDGE ( 'NONE', *, *, #379, .T. ) ;
#982 = DIRECTION ( 'NONE',  ( -0.000000000000000000, -0.000000000000000000, -1.000000000000000000 ) ) ;
#983 = ORIENTED_EDGE ( 'NONE', *, *, #901, .F. ) ;
#984 = EDGE_CURVE ( 'NONE', #579, #891, #1046, .T. ) ;
#985 = FACE_BOUND ( 'NONE', #67, .T. ) ;
#986 = FACE_OUTER_BOUND ( 'NONE', #459, .T. ) ;
#987 = ORIENTED_EDGE ( 'NONE', *, *, #1091, .T. ) ;
#988 = FACE_OUTER_BOUND ( 'NONE', #767, .T. ) ;
#989 = ORIENTED_EDGE ( 'NONE', *, *, #873, .F. ) ;
#990 = DIRECTION ( 'NONE',  ( 1.000000000000000000, 0.000000000000000000, -0.000000000000000000 ) ) ;
#991 = LINE ( 'NONE', #1101, #245 ) ;
#992 = VECTOR ( 'NONE', #83, 1000.000000000000000 ) ;
#993 = EDGE_LOOP ( 'NONE', ( #959, #671, #740, #154 ) ) ;
#994 = APPLICATION_PROTOCOL_DEFINITION ( 'draft international standard', 'automotive_design', 1998, #555 ) ;
#995 = ADVANCED_FACE ( 'NONE', ( #192 ), #224, .F. ) ;
#996 = AXIS2_PLACEMENT_3D ( 'NONE', #812, #721, #1089 ) ;
#997 = EDGE_LOOP ( 'NONE', ( #176, #773, #1170, #690 ) ) ;
#998 = AXIS2_PLACEMENT_3D ( 'NONE', #705, #875, #1154 ) ;
#999 = DIRECTION ( 'NONE',  ( -1.000000000000000000, -0.000000000000000000, -0.000000000000000000 ) ) ;
#1000 = CARTESIAN_POINT ( 'NONE',  ( -30.29999999999990479, -15.99999999999992006, 15.05000000000002203 ) ) ;
#1001 = ORIENTED_EDGE ( 'NONE', *, *, #1063, .F. ) ;
#1002 = DIRECTION ( 'NONE',  ( 0.000000000000000000, 1.000000000000000000, 0.000000000000000000 ) ) ;
#1003 = ORIENTED_EDGE ( 'NONE', *, *, #1116, .F. ) ;
#1004 = EDGE_CURVE ( 'NONE', #122, #134, #207, .T. ) ;
#1005 = CARTESIAN_POINT ( 'NONE',  ( -20.49999999999990763, -15.99999999999991651, 25.05000000000002203 ) ) ;
#1006 = DIRECTION ( 'NONE',  ( 0.000000000000000000, 0.000000000000000000, 1.000000000000000000 ) ) ;
#1007 = DIRECTION ( 'NONE',  ( 1.348150961071064823E-32, 0.000000000000000000, -1.000000000000000000 ) ) ;
#1008 =( NAMED_UNIT ( * ) SI_UNIT ( $, .STERADIAN. ) SOLID_ANGLE_UNIT ( ) );
#1009 = VERTEX_POINT ( 'NONE', #611 ) ;
#1010 = CARTESIAN_POINT ( 'NONE',  ( -10.00000000000000000, -16.00000000000000000, 4.000000000000000000 ) ) ;
#1011 = LINE ( 'NONE', #734, #70 ) ;
#1012 = VECTOR ( 'NONE', #337, 1000.000000000000000 ) ;
#1013 = EDGE_CURVE ( 'NONE', #438, #383, #976, .T. ) ;
#1014 = DIRECTION ( 'NONE',  ( -1.000000000000000000, 0.000000000000000000, 0.000000000000000000 ) ) ;
#1015 = AXIS2_PLACEMENT_3D ( 'NONE', #255, #1006, #541 ) ;
#1016 = ORIENTED_EDGE ( 'NONE', *, *, #553, .T. ) ;
#1017 = AXIS2_PLACEMENT_3D ( 'NONE', #288, #317, #764 ) ;
#1018 = AXIS2_PLACEMENT_3D ( 'NONE', #835, #483, #563 ) ;
#1019 = DIRECTION ( 'NONE',  ( -0.000000000000000000, -0.000000000000000000, -1.000000000000000000 ) ) ;
#1020 = LINE ( 'NONE', #754, #409 ) ;
#1021 = FACE_OUTER_BOUND ( 'NONE', #783, .T. ) ;
#1022 = PRODUCT_CONTEXT ( 'NONE', #555, 'mechanical' ) ;
#1023 = ORIENTED_EDGE ( 'NONE', *, *, #493, .T. ) ;
#1024 = CARTESIAN_POINT ( 'NONE',  ( -10.49999999999999467, -15.99999999999987566, 36.10000000000002274 ) ) ;
#1025 = DIRECTION ( 'NONE',  ( 0.000000000000000000, -1.000000000000000000, 0.000000000000000000 ) ) ;
#1026 = ORIENTED_EDGE ( 'NONE', *, *, #901, .T. ) ;
#1027 = EDGE_CURVE ( 'NONE', #891, #230, #960, .T. ) ;
#1028 = CARTESIAN_POINT ( 'NONE',  ( -30.29999999999994387, 15.99999999999999645, 30.10000000000002629 ) ) ;
#1029 = PLANE ( 'NONE',  #779 ) ;
#1030 = EDGE_CURVE ( 'NONE', #636, #1129, #63, .T. ) ;
#1031 = VERTEX_POINT ( 'NONE', #425 ) ;
#1032 = EDGE_CURVE ( 'NONE', #1114, #1038, #184, .T. ) ;
#1033 = VECTOR ( 'NONE', #635, 1000.000000000000000 ) ;
#1034 = VECTOR ( 'NONE', #1169, 1000.000000000000000 ) ;
#1035 = VECTOR ( 'NONE', #607, 1000.000000000000000 ) ;
#1036 = LINE ( 'NONE', #479, #1166 ) ;
#1037 = LINE ( 'NONE', #211, #575 ) ;
#1038 = VERTEX_POINT ( 'NONE', #801 ) ;
#1039 = CARTESIAN_POINT ( 'NONE',  ( -20.49999999999990763, 5.000000000000041744, 40.09799979996001440 ) ) ;
#1040 = CARTESIAN_POINT ( 'NONE',  ( 1.387778780781445676E-14, 11.00000000000000178, 31.15025253169394759 ) ) ;
#1041 = ORIENTED_EDGE ( 'NONE', *, *, #817, .F. ) ;
#1042 = FACE_OUTER_BOUND ( 'NONE', #1098, .T. ) ;
#1043 = LINE ( 'NONE', #401, #651 ) ;
#1044 = DIRECTION ( 'NONE',  ( 1.000000000000000000, 0.000000000000000000, 0.000000000000000000 ) ) ;
#1045 = ORIENTED_EDGE ( 'NONE', *, *, #422, .F. ) ;
#1046 = LINE ( 'NONE', #650, #899 ) ;
#1047 = AXIS2_PLACEMENT_3D ( 'NONE', #727, #826, #96 ) ;
#1048 = AXIS2_PLACEMENT_3D ( 'NONE', #421, #1137, #862 ) ;
#1049 = DIRECTION ( 'NONE',  ( 1.000000000000000000, -0.000000000000000000, -0.000000000000000000 ) ) ;
#1050 = FACE_BOUND ( 'NONE', #41, .T. ) ;
#1051 = ADVANCED_FACE ( 'NONE', ( #141 ), #808, .F. ) ;
#1052 = ORIENTED_EDGE ( 'NONE', *, *, #961, .F. ) ;
#1053 = LINE ( 'NONE', #325, #914 ) ;
#1054 = ORIENTED_EDGE ( 'NONE', *, *, #284, .T. ) ;
#1055 = FACE_OUTER_BOUND ( 'NONE', #871, .T. ) ;
#1056 = CARTESIAN_POINT ( 'NONE',  ( -24.30000000000000782, 16.00000000000000000, 15.04999999999990656 ) ) ;
#1057 = ORIENTED_EDGE ( 'NONE', *, *, #978, .T. ) ;
#1058 = DIRECTION ( 'NONE',  ( 0.000000000000000000, 1.000000000000000000, 0.000000000000000000 ) ) ;
#1059 = ORIENTED_EDGE ( 'NONE', *, *, #816, .T. ) ;
#1060 = CARTESIAN_POINT ( 'NONE',  ( -30.29999999999994387, 15.99999999999999645, 10.00000000000002309 ) ) ;
#1061 = EDGE_CURVE ( 'NONE', #251, #438, #794, .T. ) ;
#1062 = CARTESIAN_POINT ( 'NONE',  ( -20.49999999999990763, -8.999999999999918288, 15.05000000000002203 ) ) ;
#1063 = EDGE_CURVE ( 'NONE', #605, #543, #242, .T. ) ;
#1064 = ORIENTED_EDGE ( 'NONE', *, *, #538, .F. ) ;
#1065 = CARTESIAN_POINT ( 'NONE',  ( -30.29999999999990479, -15.99999999999992006, 15.05000000000002203 ) ) ;
#1066 = EDGE_LOOP ( 'NONE', ( #602, #679 ) ) ;
#1067 = VECTOR ( 'NONE', #57, 1000.000000000000000 ) ;
#1068 = DIRECTION ( 'NONE',  ( -0.000000000000000000, -0.000000000000000000, -1.000000000000000000 ) ) ;
#1069 = FACE_OUTER_BOUND ( 'NONE', #62, .T. ) ;
#1070 = CIRCLE ( 'NONE', #15, 2.750000000000075495 ) ;
#1071 = VECTOR ( 'NONE', #306, 1000.000000000000000 ) ;
#1072 = ORIENTED_EDGE ( 'NONE', *, *, #396, .F. ) ;
#1073 = DIRECTION ( 'NONE',  ( 0.000000000000000000, -0.000000000000000000, -1.000000000000000000 ) ) ;
#1074 = PRODUCT_DEFINITION ( 'UNKNOWN', '', #704, #821 ) ;
#1075 = ORIENTED_EDGE ( 'NONE', *, *, #47, .T. ) ;
#1076 = DIRECTION ( 'NONE',  ( 0.000000000000000000, 0.000000000000000000, 1.000000000000000000 ) ) ;
#1077 = CARTESIAN_POINT ( 'NONE',  ( -24.30000000000000782, 7.000000000000000888, 15.04999999999990656 ) ) ;
#1078 = ORIENTED_EDGE ( 'NONE', *, *, #512, .T. ) ;
#1079 = CARTESIAN_POINT ( 'NONE',  ( -20.49999999999990763, -16.00000000000000000, 10.00000000000002309 ) ) ;
#1080 = VERTEX_POINT ( 'NONE', #890 ) ;
#1081 = CARTESIAN_POINT ( 'NONE',  ( 42.24878295998914268, -16.00000000000000355, 36.10000000000002274 ) ) ;
#1082 = DIRECTION ( 'NONE',  ( 0.000000000000000000, 0.000000000000000000, -1.000000000000000000 ) ) ;
#1083 = FACE_OUTER_BOUND ( 'NONE', #285, .T. ) ;
#1084 = ORIENTED_EDGE ( 'NONE', *, *, #731, .T. ) ;
#1085 = CARTESIAN_POINT ( 'NONE',  ( -6.357864376268951290, -5.999999999999916511, 25.05000000000002203 ) ) ;
#1086 = CARTESIAN_POINT ( 'NONE',  ( -20.29999999999995808, 5.000000000000041744, 2.255140518769849223E-14 ) ) ;
#1087 = AXIS2_PLACEMENT_3D ( 'NONE', #449, #272, #73 ) ;
#1088 = STYLED_ITEM ( 'NONE', ( #552 ), #943 ) ;
#1089 = DIRECTION ( 'NONE',  ( 1.000000000000000000, 0.000000000000000000, 0.000000000000000000 ) ) ;
#1090 =( LENGTH_UNIT ( ) NAMED_UNIT ( * ) SI_UNIT ( .MILLI., .METRE. ) );
#1091 = EDGE_CURVE ( 'NONE', #43, #529, #1122, .T. ) ;
#1092 = EDGE_CURVE ( 'NONE', #1038, #1114, #1183, .T. ) ;
#1093 = EDGE_LOOP ( 'NONE', ( #256, #1054, #1023, #238 ) ) ;
#1094 = CARTESIAN_POINT ( 'NONE',  ( -24.30000000000000782, 16.00000000000000000, 17.79999999999998295 ) ) ;
#1095 = LINE ( 'NONE', #894, #822 ) ;
#1096 = ORIENTED_EDGE ( 'NONE', *, *, #53, .F. ) ;
#1097 = DIRECTION ( 'NONE',  ( -1.000000000000000000, 0.000000000000000000, 0.000000000000000000 ) ) ;
#1098 = EDGE_LOOP ( 'NONE', ( #85, #793, #910, #331 ) ) ;
#1099 = CARTESIAN_POINT ( 'NONE',  ( -2.775557561562891351E-14, -11.00000000000003553, 4.000000000000000000 ) ) ;
#1100 = ADVANCED_FACE ( 'NONE', ( #135 ), #618, .F. ) ;
#1101 = CARTESIAN_POINT ( 'NONE',  ( -24.30000000000000782, 7.000000000000000888, 22.29999999999983018 ) ) ;
#1102 = ORIENTED_EDGE ( 'NONE', *, *, #263, .F. ) ;
#1103 = DIRECTION ( 'NONE',  ( 0.000000000000000000, 0.000000000000000000, -1.000000000000000000 ) ) ;
#1104 = EDGE_LOOP ( 'NONE', ( #523, #719, #399, #736 ) ) ;
#1105 = CARTESIAN_POINT ( 'NONE',  ( 1.387778780781445676E-14, 11.00000000000000178, 0.000000000000000000 ) ) ;
#1106 = DIRECTION ( 'NONE',  ( -1.387778780781445281E-15, -1.000000000000000000, -7.886683122265728629E-32 ) ) ;
#1107 = LINE ( 'NONE', #897, #94 ) ;
#1108 = CIRCLE ( 'NONE', #222, 1.750000000000044631 ) ;
#1109 = ORIENTED_EDGE ( 'NONE', *, *, #381, .T. ) ;
#1110 = AXIS2_PLACEMENT_3D ( 'NONE', #427, #797, #638 ) ;
#1111 = CARTESIAN_POINT ( 'NONE',  ( -1.749999999999951372, 11.00000000000000178, 0.000000000000000000 ) ) ;
#1112 = CARTESIAN_POINT ( 'NONE',  ( -10.00000000000000355, 16.00000000000000000, 4.000000000000000000 ) ) ;
#1113 = CARTESIAN_POINT ( 'NONE',  ( -10.49999999999999467, -15.99999999999994493, 30.10000000000002629 ) ) ;
#1114 = VERTEX_POINT ( 'NONE', #522 ) ;
#1115 = CARTESIAN_POINT ( 'NONE',  ( -6.357864376268951290, -15.99999999999992006, 15.05000000000002203 ) ) ;
#1116 = EDGE_CURVE ( 'NONE', #126, #355, #142, .T. ) ;
#1117 = DIRECTION ( 'NONE',  ( 0.000000000000000000, 1.000000000000000000, -2.168404344971008868E-16 ) ) ;
#1118 = VERTEX_POINT ( 'NONE', #714 ) ;
#1119 = ORIENTED_EDGE ( 'NONE', *, *, #290, .F. ) ;
#1120 = CARTESIAN_POINT ( 'NONE',  ( -13.50000000000000000, -16.00000000000000000, 10.00000000000002309 ) ) ;
#1121 = CARTESIAN_POINT ( 'NONE',  ( -1.749999999999951372, 11.00000000000000178, 4.000000000000000000 ) ) ;
#1122 = CIRCLE ( 'NONE', #608, 1.750000000000044631 ) ;
#1123 = EDGE_LOOP ( 'NONE', ( #565, #56 ) ) ;
#1124 = CIRCLE ( 'NONE', #683, 2.750000000000075495 ) ;
#1125 = CIRCLE ( 'NONE', #144, 1.749999999999965361 ) ;
#1126 = CIRCLE ( 'NONE', #614, 1.749999999999925837 ) ;
#1127 = DIRECTION ( 'NONE',  ( -0.000000000000000000, 0.000000000000000000, 1.000000000000000000 ) ) ;
#1128 = CYLINDRICAL_SURFACE ( 'NONE', #109, 1.750000000000044631 ) ;
#1129 = VERTEX_POINT ( 'NONE', #1079 ) ;
#1130 = CARTESIAN_POINT ( 'NONE',  ( 22.05764119219938380, -15.99999999999994493, 30.10000000000002629 ) ) ;
#1131 = CARTESIAN_POINT ( 'NONE',  ( -6.357864376268951290, -15.99999999999992006, 15.05000000000002203 ) ) ;
#1132 = EDGE_CURVE ( 'NONE', #481, #424, #1053, .T. ) ;
#1133 = DIRECTION ( 'NONE',  ( 0.000000000000000000, 0.000000000000000000, -1.000000000000000000 ) ) ;
#1134 = ORIENTED_EDGE ( 'NONE', *, *, #460, .F. ) ;
#1135 = CARTESIAN_POINT ( 'NONE',  ( 1.387778780781445676E-14, 11.00000000000000178, 4.000000000000000000 ) ) ;
#1136 = ORIENTED_EDGE ( 'NONE', *, *, #119, .F. ) ;
#1137 = DIRECTION ( 'NONE',  ( -1.387778780781445281E-15, -1.000000000000000000, -7.886683122265728629E-32 ) ) ;
#1138 = FACE_OUTER_BOUND ( 'NONE', #702, .T. ) ;
#1139 = EDGE_LOOP ( 'NONE', ( #583, #430, #869, #578 ) ) ;
#1140 = PLANE ( 'NONE',  #1017 ) ;
#1141 = ORIENTED_EDGE ( 'NONE', *, *, #673, .F. ) ;
#1142 = VECTOR ( 'NONE', #739, 1000.000000000000000 ) ;
#1143 = VECTOR ( 'NONE', #276, 1000.000000000000000 ) ;
#1144 = CARTESIAN_POINT ( 'NONE',  ( -24.30000000000000782, 7.000000000000000888, 12.29999999999983196 ) ) ;
#1145 = VECTOR ( 'NONE', #755, 1000.000000000000000 ) ;
#1146 = CIRCLE ( 'NONE', #168, 1.750000000000084821 ) ;
#1147 = CARTESIAN_POINT ( 'NONE',  ( -24.30000000000000782, 16.00000000000000000, 15.04999999999990656 ) ) ;
#1148 = ORIENTED_EDGE ( 'NONE', *, *, #758, .T. ) ;
#1149 = CARTESIAN_POINT ( 'NONE',  ( -1.750000000000030864, 11.00000000000000178, 36.10000000000002274 ) ) ;
#1150 = ORIENTED_EDGE ( 'NONE', *, *, #848, .F. ) ;
#1151 = ADVANCED_FACE ( 'NONE', ( #988 ), #898, .F. ) ;
#1152 = CYLINDRICAL_SURFACE ( 'NONE', #1048, 10.00000000000000178 ) ;
#1153 = EDGE_CURVE ( 'NONE', #502, #631, #596, .T. ) ;
#1154 = DIRECTION ( 'NONE',  ( 1.000000000000000000, 0.000000000000000000, 0.000000000000000000 ) ) ;
#1155 = EDGE_CURVE ( 'NONE', #741, #864, #1190, .T. ) ;
#1156 = VERTEX_POINT ( 'NONE', #1149 ) ;
#1157 = DIRECTION ( 'NONE',  ( -0.000000000000000000, -0.000000000000000000, -1.000000000000000000 ) ) ;
#1158 = UNCERTAINTY_MEASURE_WITH_UNIT (LENGTH_MEASURE( 1.000000000000000082E-05 ), #642, 'distance_accuracy_value', 'NONE');
#1159 = ORIENTED_EDGE ( 'NONE', *, *, #1027, .F. ) ;
#1160 = FACE_OUTER_BOUND ( 'NONE', #1139, .T. ) ;
#1161 = CARTESIAN_POINT ( 'NONE',  ( -20.29999999999996518, 15.99999999999999645, 0.000000000000000000 ) ) ;
#1162 = ORIENTED_EDGE ( 'NONE', *, *, #599, .F. ) ;
#1163 = CARTESIAN_POINT ( 'NONE',  ( -2.775557561562891351E-14, -11.00000000000003553, 40.09799979996000729 ) ) ;
#1164 = EDGE_LOOP ( 'NONE', ( #1003, #843, #203, #597 ) ) ;
#1165 = DIRECTION ( 'NONE',  ( -1.000000000000000000, -0.000000000000000000, -0.000000000000000000 ) ) ;
#1166 = VECTOR ( 'NONE', #204, 1000.000000000000000 ) ;
#1167 = CARTESIAN_POINT ( 'NONE',  ( 1.387778780781445676E-14, 11.00000000000000178, 31.15025253169394759 ) ) ;
#1168 = EDGE_LOOP ( 'NONE', ( #137, #911, #617, #1159 ) ) ;
#1169 = DIRECTION ( 'NONE',  ( -1.000000000000000000, -0.000000000000000000, -0.000000000000000000 ) ) ;
#1170 = ORIENTED_EDGE ( 'NONE', *, *, #974, .T. ) ;
#1171 = DIRECTION ( 'NONE',  ( 0.000000000000000000, 1.000000000000000000, 0.000000000000000000 ) ) ;
#1172 = CARTESIAN_POINT ( 'NONE',  ( 1.387778780781445676E-14, 11.00000000000000178, 0.000000000000000000 ) ) ;
#1173 = CARTESIAN_POINT ( 'NONE',  ( -24.30000000000000782, 16.00000000000000000, 22.29999999999983018 ) ) ;
#1174 = DIRECTION ( 'NONE',  ( 1.000000000000000000, 0.000000000000000000, 0.000000000000000000 ) ) ;
#1175 = ORIENTED_EDGE ( 'NONE', *, *, #112, .F. ) ;
#1176 = CARTESIAN_POINT ( 'NONE',  ( 42.24878295998914268, 15.99999999999999289, 40.09799979996000729 ) ) ;
#1177 = EDGE_CURVE ( 'NONE', #279, #644, #146, .T. ) ;
#1178 = DIRECTION ( 'NONE',  ( 0.000000000000000000, -1.000000000000000000, 0.000000000000000000 ) ) ;
#1179 = EDGE_CURVE ( 'NONE', #262, #363, #274, .T. ) ;
#1180 = ORIENTED_EDGE ( 'NONE', *, *, #978, .F. ) ;
#1181 = ORIENTED_EDGE ( 'NONE', *, *, #1116, .T. ) ;
#1182 = DIRECTION ( 'NONE',  ( 0.000000000000000000, 0.000000000000000000, -1.000000000000000000 ) ) ;
#1183 = CIRCLE ( 'NONE', #666, 1.750000000000084821 ) ;
#1184 = CARTESIAN_POINT ( 'NONE',  ( -10.49999999999999822, 16.00000000000000000, 10.00000000000002309 ) ) ;
#1185 = CIRCLE ( 'NONE', #470, 2.750000000000075495 ) ;
#1186 = VECTOR ( 'NONE', #791, 1000.000000000000000 ) ;
#1187 = CARTESIAN_POINT ( 'NONE',  ( -20.49999999999990763, -15.99999999999992006, 15.05000000000002203 ) ) ;
#1188 = DIRECTION ( 'NONE',  ( -0.000000000000000000, -0.000000000000000000, -1.000000000000000000 ) ) ;
#1189 = VECTOR ( 'NONE', #81, 1000.000000000000000 ) ;
#1190 = CIRCLE ( 'NONE', #414, 1.750000000000084821 ) ;
#1191 = ORIENTED_EDGE ( 'NONE', *, *, #1153, .T. ) ;
#1192 = ADVANCED_FACE ( 'NONE', ( #548 ), #362, .T. ) ;
#1193 = EDGE_CURVE ( 'NONE', #1118, #543, #1126, .T. ) ;
#1194 = CARTESIAN_POINT ( 'NONE',  ( 10.00000000000000178, -16.00000000000000000, 4.000000000000000000 ) ) ;
ENDSEC;
END-ISO-10303-21;
