ISO-10303-21;
HEADER;
FILE_DESCRIPTION (( 'STEP AP214' ),
    '1' );
FILE_NAME ('011_006_Washer.STEP',
    '2024-07-21T08:42:25',
    ( '' ),
    ( '' ),
    'SwSTEP 2.0',
    'SolidWorks 2019',
    '' );
FILE_SCHEMA (( 'AUTOMOTIVE_DESIGN' ));
ENDSEC;

DATA;
#1 = APPLICATION_CONTEXT ( 'automotive_design' ) ;
#2 = ORIENTED_EDGE ( 'NONE', *, *, #162, .F. ) ;
#3 = CYLINDRICAL_SURFACE ( 'NONE', #153, 3.000000000000000444 ) ;
#4 = EDGE_LOOP ( 'NONE', ( #75, #106, #154, #196 ) ) ;
#5 = EDGE_LOOP ( 'NONE', ( #91, #2, #147, #168 ) ) ;
#6 = UNCERTAINTY_MEASURE_WITH_UNIT (LENGTH_MEASURE( 1.000000000000000082E-05 ), #85, 'distance_accuracy_value', 'NONE');
#7 = ORIENTED_EDGE ( 'NONE', *, *, #10, .F. ) ;
#8 = DIRECTION ( 'NONE',  ( 1.000000000000000000, 0.000000000000000000, 0.000000000000000000 ) ) ;
#9 = PRESENTATION_LAYER_ASSIGNMENT (  '', '', ( #136 ) ) ;
#10 = EDGE_CURVE ( 'NONE', #122, #33, #115, .T. ) ;
#11 = CARTESIAN_POINT ( 'NONE',  ( -3.000000000000000444, 0.000000000000000000, 0.5000000000000000000 ) ) ;
#12 = FACE_OUTER_BOUND ( 'NONE', #155, .T. ) ;
#13 = CIRCLE ( 'NONE', #68, 1.250000000000000000 ) ;
#14 = CARTESIAN_POINT ( 'NONE',  ( 3.000000000000000444, 3.673940397442060361E-16, 0.000000000000000000 ) ) ;
#15 = AXIS2_PLACEMENT_3D ( 'NONE', #163, #177, #199 ) ;
#16 =( NAMED_UNIT ( * ) PLANE_ANGLE_UNIT ( ) SI_UNIT ( $, .RADIAN. ) );
#17 = CLOSED_SHELL ( 'NONE', ( #66, #44, #123, #23, #54, #92 ) ) ;
#18 = ORIENTED_EDGE ( 'NONE', *, *, #150, .F. ) ;
#19 = CARTESIAN_POINT ( 'NONE',  ( 0.000000000000000000, 0.000000000000000000, 0.5000000000000000000 ) ) ;
#20 = FACE_OUTER_BOUND ( 'NONE', #4, .T. ) ;
#21 = CIRCLE ( 'NONE', #15, 1.250000000000000000 ) ;
#22 = FACE_OUTER_BOUND ( 'NONE', #56, .T. ) ;
#23 = ADVANCED_FACE ( 'NONE', ( #89, #190 ), #110, .F. ) ;
#24 = ORIENTED_EDGE ( 'NONE', *, *, #150, .T. ) ;
#25 = DIRECTION ( 'NONE',  ( 0.000000000000000000, 0.000000000000000000, 1.000000000000000000 ) ) ;
#26 =( NAMED_UNIT ( * ) PLANE_ANGLE_UNIT ( ) SI_UNIT ( $, .RADIAN. ) );
#27 = EDGE_CURVE ( 'NONE', #183, #117, #124, .T. ) ;
#28 = FACE_OUTER_BOUND ( 'NONE', #59, .T. ) ;
#29 = DIRECTION ( 'NONE',  ( 0.000000000000000000, 0.000000000000000000, 1.000000000000000000 ) ) ;
#30 = DIRECTION ( 'NONE',  ( -0.000000000000000000, -0.000000000000000000, -1.000000000000000000 ) ) ;
#31 = EDGE_CURVE ( 'NONE', #33, #122, #94, .T. ) ;
#32 =( NAMED_UNIT ( * ) SI_UNIT ( $, .STERADIAN. ) SOLID_ANGLE_UNIT ( ) );
#33 = VERTEX_POINT ( 'NONE', #108 ) ;
#34 = ORIENTED_EDGE ( 'NONE', *, *, #84, .F. ) ;
#35 = AXIS2_PLACEMENT_3D ( 'NONE', #188, #149, #118 ) ;
#36 = FILL_AREA_STYLE ('',( #102 ) ) ;
#37 = APPLICATION_PROTOCOL_DEFINITION ( 'draft international standard', 'automotive_design', 1998, #114 ) ;
#38 = ORIENTED_EDGE ( 'NONE', *, *, #31, .F. ) ;
#39 = PRODUCT_DEFINITION_FORMATION_WITH_SPECIFIED_SOURCE ( 'ANY', '', #58, .NOT_KNOWN. ) ;
#40 = VECTOR ( 'NONE', #30, 1000.000000000000000 ) ;
#41 = ORIENTED_EDGE ( 'NONE', *, *, #166, .F. ) ;
#42 = DIRECTION ( 'NONE',  ( 1.000000000000000000, 0.000000000000000000, 0.000000000000000000 ) ) ;
#43 = CARTESIAN_POINT ( 'NONE',  ( -3.000000000000000444, 0.000000000000000000, 0.5000000000000000000 ) ) ;
#44 = ADVANCED_FACE ( 'NONE', ( #20 ), #3, .T. ) ;
#45 = ORIENTED_EDGE ( 'NONE', *, *, #27, .F. ) ;
#46 = LINE ( 'NONE', #11, #100 ) ;
#47 = CARTESIAN_POINT ( 'NONE',  ( -1.250000000000000000, 0.000000000000000000, 0.5000000000000000000 ) ) ;
#48 = DIRECTION ( 'NONE',  ( -0.000000000000000000, -0.000000000000000000, -1.000000000000000000 ) ) ;
#49 = CARTESIAN_POINT ( 'NONE',  ( 1.250000000000000000, 1.530808498934191571E-16, 0.000000000000000000 ) ) ;
#50 = DIRECTION ( 'NONE',  ( 0.000000000000000000, 0.000000000000000000, 1.000000000000000000 ) ) ;
#51 = SURFACE_SIDE_STYLE ('',( #165 ) ) ;
#52 =( LENGTH_UNIT ( ) NAMED_UNIT ( * ) SI_UNIT ( .MILLI., .METRE. ) );
#53 = STYLED_ITEM ( 'NONE', ( #132 ), #184 ) ;
#54 = ADVANCED_FACE ( 'NONE', ( #151 ), #202, .T. ) ;
#55 = VERTEX_POINT ( 'NONE', #43 ) ;
#56 = EDGE_LOOP ( 'NONE', ( #73, #204, #18, #41 ) ) ;
#57 = ORIENTED_EDGE ( 'NONE', *, *, #200, .F. ) ;
#58 = PRODUCT ( '011_006_Washer', '011_006_Washer', '', ( #148 ) ) ;
#59 = EDGE_LOOP ( 'NONE', ( #34, #103, #137, #83 ) ) ;
#60 = AXIS2_PLACEMENT_3D ( 'NONE', #191, #159, #178 ) ;
#61 = DIRECTION ( 'NONE',  ( -0.000000000000000000, -0.000000000000000000, -1.000000000000000000 ) ) ;
#62 = CARTESIAN_POINT ( 'NONE',  ( 3.000000000000000444, 3.673940397442060361E-16, 0.5000000000000000000 ) ) ;
#63 = DIRECTION ( 'NONE',  ( -0.000000000000000000, -0.000000000000000000, -1.000000000000000000 ) ) ;
#64 = AXIS2_PLACEMENT_3D ( 'NONE', #210, #25, #8 ) ;
#65 = CARTESIAN_POINT ( 'NONE',  ( 0.000000000000000000, 0.000000000000000000, 0.5000000000000000000 ) ) ;
#66 = ADVANCED_FACE ( 'NONE', ( #22 ), #171, .F. ) ;
#67 = DIRECTION ( 'NONE',  ( 0.000000000000000000, 0.000000000000000000, 1.000000000000000000 ) ) ;
#68 = AXIS2_PLACEMENT_3D ( 'NONE', #125, #142, #174 ) ;
#69 = PRODUCT_DEFINITION ( 'UNKNOWN', '', #39, #126 ) ;
#70 = DIRECTION ( 'NONE',  ( 1.000000000000000000, 0.000000000000000000, 0.000000000000000000 ) ) ;
#71 = CARTESIAN_POINT ( 'NONE',  ( 0.000000000000000000, 0.000000000000000000, 0.000000000000000000 ) ) ;
#72 = CARTESIAN_POINT ( 'NONE',  ( 0.000000000000000000, 0.000000000000000000, 0.000000000000000000 ) ) ;
#73 = ORIENTED_EDGE ( 'NONE', *, *, #200, .T. ) ;
#74 = EDGE_LOOP ( 'NONE', ( #57, #45 ) ) ;
#75 = ORIENTED_EDGE ( 'NONE', *, *, #105, .F. ) ;
#76 = FILL_AREA_STYLE_COLOUR ( '', #176 ) ;
#77 = CARTESIAN_POINT ( 'NONE',  ( -1.250000000000000000, 0.000000000000000000, 0.000000000000000000 ) ) ;
#78 = FACE_BOUND ( 'NONE', #74, .T. ) ;
#79 = DIRECTION ( 'NONE',  ( 1.000000000000000000, 0.000000000000000000, 0.000000000000000000 ) ) ;
#80 = AXIS2_PLACEMENT_3D ( 'NONE', #107, #88, #189 ) ;
#81 = CYLINDRICAL_SURFACE ( 'NONE', #116, 1.250000000000000000 ) ;
#82 =( NAMED_UNIT ( * ) SI_UNIT ( $, .STERADIAN. ) SOLID_ANGLE_UNIT ( ) );
#83 = ORIENTED_EDGE ( 'NONE', *, *, #213, .F. ) ;
#84 = EDGE_CURVE ( 'NONE', #183, #152, #212, .T. ) ;
#85 =( LENGTH_UNIT ( ) NAMED_UNIT ( * ) SI_UNIT ( .MILLI., .METRE. ) );
#86 = DIRECTION ( 'NONE',  ( 0.000000000000000000, 0.000000000000000000, 1.000000000000000000 ) ) ;
#87 = DIRECTION ( 'NONE',  ( -1.000000000000000000, 0.000000000000000000, 0.000000000000000000 ) ) ;
#88 = DIRECTION ( 'NONE',  ( -0.000000000000000000, -0.000000000000000000, -1.000000000000000000 ) ) ;
#89 = FACE_OUTER_BOUND ( 'NONE', #134, .T. ) ;
#90 = UNCERTAINTY_MEASURE_WITH_UNIT (LENGTH_MEASURE( 1.000000000000000082E-05 ), #141, 'distance_accuracy_value', 'NONE');
#91 = ORIENTED_EDGE ( 'NONE', *, *, #192, .F. ) ;
#92 = ADVANCED_FACE ( 'NONE', ( #28 ), #81, .F. ) ;
#93 = CARTESIAN_POINT ( 'NONE',  ( 1.250000000000000000, 1.530808498934191571E-16, 0.5000000000000000000 ) ) ;
#94 = CIRCLE ( 'NONE', #172, 3.000000000000000444 ) ;
#95 =( NAMED_UNIT ( * ) SI_UNIT ( $, .STERADIAN. ) SOLID_ANGLE_UNIT ( ) );
#96 = CARTESIAN_POINT ( 'NONE',  ( -1.250000000000000000, 0.000000000000000000, 0.5000000000000000000 ) ) ;
#97 = SURFACE_STYLE_FILL_AREA ( #195 ) ;
#98 = PRODUCT_DEFINITION_SHAPE ( 'NONE', 'NONE',  #69 ) ;
#99 = CARTESIAN_POINT ( 'NONE',  ( 3.000000000000000444, 3.673940397442060361E-16, 0.5000000000000000000 ) ) ;
#100 = VECTOR ( 'NONE', #48, 1000.000000000000000 ) ;
#101 = MECHANICAL_DESIGN_GEOMETRIC_PRESENTATION_REPRESENTATION (  '', ( #53 ), #104 ) ;
#102 = FILL_AREA_STYLE_COLOUR ( '', #179 ) ;
#103 = ORIENTED_EDGE ( 'NONE', *, *, #27, .T. ) ;
#104 =( GEOMETRIC_REPRESENTATION_CONTEXT ( 3 ) GLOBAL_UNCERTAINTY_ASSIGNED_CONTEXT ( ( #207 ) ) GLOBAL_UNIT_ASSIGNED_CONTEXT ( ( #52, #16, #82 ) ) REPRESENTATION_CONTEXT ( 'NONE', 'WORKASPACE' ) );
#105 = EDGE_CURVE ( 'NONE', #201, #55, #164, .T. ) ;
#106 = ORIENTED_EDGE ( 'NONE', *, *, #192, .T. ) ;
#107 = CARTESIAN_POINT ( 'NONE',  ( 0.000000000000000000, 0.000000000000000000, 0.5000000000000000000 ) ) ;
#108 = CARTESIAN_POINT ( 'NONE',  ( -3.000000000000000444, 0.000000000000000000, 0.000000000000000000 ) ) ;
#109 = AXIS2_PLACEMENT_3D ( 'NONE', #72, #86, #135 ) ;
#110 = PLANE ( 'NONE',  #140 ) ;
#111 = CARTESIAN_POINT ( 'NONE',  ( 1.250000000000000000, 1.530808498934191571E-16, 0.5000000000000000000 ) ) ;
#112 = CARTESIAN_POINT ( 'NONE',  ( 0.000000000000000000, 0.000000000000000000, 0.5000000000000000000 ) ) ;
#113 = SURFACE_STYLE_USAGE ( .BOTH. , #127 ) ;
#114 = APPLICATION_CONTEXT ( 'automotive_design' ) ;
#115 = CIRCLE ( 'NONE', #109, 3.000000000000000444 ) ;
#116 = AXIS2_PLACEMENT_3D ( 'NONE', #112, #156, #175 ) ;
#117 = VERTEX_POINT ( 'NONE', #47 ) ;
#118 = DIRECTION ( 'NONE',  ( 1.000000000000000000, 0.000000000000000000, 0.000000000000000000 ) ) ;
#119 = VECTOR ( 'NONE', #208, 1000.000000000000000 ) ;
#120 = EDGE_LOOP ( 'NONE', ( #24, #185 ) ) ;
#121 = CARTESIAN_POINT ( 'NONE',  ( 0.000000000000000000, 0.000000000000000000, 0.000000000000000000 ) ) ;
#122 = VERTEX_POINT ( 'NONE', #14 ) ;
#123 = ADVANCED_FACE ( 'NONE', ( #12, #78 ), #144, .T. ) ;
#124 = CIRCLE ( 'NONE', #35, 1.250000000000000000 ) ;
#125 = CARTESIAN_POINT ( 'NONE',  ( 0.000000000000000000, 0.000000000000000000, 0.5000000000000000000 ) ) ;
#126 = PRODUCT_DEFINITION_CONTEXT ( 'detailed design', #1, 'design' ) ;
#127 = SURFACE_SIDE_STYLE ('',( #97 ) ) ;
#128 =( NAMED_UNIT ( * ) PLANE_ANGLE_UNIT ( ) SI_UNIT ( $, .RADIAN. ) );
#129 = AXIS2_PLACEMENT_3D ( 'NONE', #181, #67, #70 ) ;
#130 = MECHANICAL_DESIGN_GEOMETRIC_PRESENTATION_REPRESENTATION (  '', ( #136 ), #161 ) ;
#131 = MANIFOLD_SOLID_BREP ( 'Dodanie-wyci¹gniêcie1', #17 ) ;
#132 = PRESENTATION_STYLE_ASSIGNMENT (( #146 ) ) ;
#133 = PRESENTATION_LAYER_ASSIGNMENT (  '', '', ( #53 ) ) ;
#134 = EDGE_LOOP ( 'NONE', ( #38, #7 ) ) ;
#135 = DIRECTION ( 'NONE',  ( 1.000000000000000000, 0.000000000000000000, 0.000000000000000000 ) ) ;
#136 = STYLED_ITEM ( 'NONE', ( #143 ), #131 ) ;
#137 = ORIENTED_EDGE ( 'NONE', *, *, #166, .T. ) ;
#138 = DIRECTION ( 'NONE',  ( 0.000000000000000000, 0.000000000000000000, 1.000000000000000000 ) ) ;
#139 = ORIENTED_EDGE ( 'NONE', *, *, #162, .T. ) ;
#140 = AXIS2_PLACEMENT_3D ( 'NONE', #121, #138, #187 ) ;
#141 =( LENGTH_UNIT ( ) NAMED_UNIT ( * ) SI_UNIT ( .MILLI., .METRE. ) );
#142 = DIRECTION ( 'NONE',  ( 0.000000000000000000, 0.000000000000000000, 1.000000000000000000 ) ) ;
#143 = PRESENTATION_STYLE_ASSIGNMENT (( #113 ) ) ;
#144 = PLANE ( 'NONE',  #182 ) ;
#145 = LINE ( 'NONE', #62, #40 ) ;
#146 = SURFACE_STYLE_USAGE ( .BOTH. , #51 ) ;
#147 = ORIENTED_EDGE ( 'NONE', *, *, #206, .T. ) ;
#148 = PRODUCT_CONTEXT ( 'NONE', #114, 'mechanical' ) ;
#149 = DIRECTION ( 'NONE',  ( 0.000000000000000000, 0.000000000000000000, 1.000000000000000000 ) ) ;
#150 = EDGE_CURVE ( 'NONE', #173, #152, #198, .T. ) ;
#151 = FACE_OUTER_BOUND ( 'NONE', #5, .T. ) ;
#152 = VERTEX_POINT ( 'NONE', #49 ) ;
#153 = AXIS2_PLACEMENT_3D ( 'NONE', #19, #203, #87 ) ;
#154 = ORIENTED_EDGE ( 'NONE', *, *, #10, .T. ) ;
#155 = EDGE_LOOP ( 'NONE', ( #139, #167 ) ) ;
#156 = DIRECTION ( 'NONE',  ( -0.000000000000000000, -0.000000000000000000, -1.000000000000000000 ) ) ;
#157 = AXIS2_PLACEMENT_3D ( 'NONE', #65, #29, #79 ) ;
#158 = DIRECTION ( 'NONE',  ( 1.000000000000000000, 0.000000000000000000, -0.000000000000000000 ) ) ;
#159 = DIRECTION ( 'NONE',  ( 0.000000000000000000, 0.000000000000000000, 1.000000000000000000 ) ) ;
#160 = DIRECTION ( 'NONE',  ( -1.000000000000000000, 0.000000000000000000, 0.000000000000000000 ) ) ;
#161 =( GEOMETRIC_REPRESENTATION_CONTEXT ( 3 ) GLOBAL_UNCERTAINTY_ASSIGNED_CONTEXT ( ( #90 ) ) GLOBAL_UNIT_ASSIGNED_CONTEXT ( ( #141, #26, #95 ) ) REPRESENTATION_CONTEXT ( 'NONE', 'WORKASPACE' ) );
#162 = EDGE_CURVE ( 'NONE', #55, #201, #186, .T. ) ;
#163 = CARTESIAN_POINT ( 'NONE',  ( 0.000000000000000000, 0.000000000000000000, 0.000000000000000000 ) ) ;
#164 = CIRCLE ( 'NONE', #64, 3.000000000000000444 ) ;
#165 = SURFACE_STYLE_FILL_AREA ( #36 ) ;
#166 = EDGE_CURVE ( 'NONE', #117, #173, #194, .T. ) ;
#167 = ORIENTED_EDGE ( 'NONE', *, *, #105, .T. ) ;
#168 = ORIENTED_EDGE ( 'NONE', *, *, #31, .T. ) ;
#169 = DIRECTION ( 'NONE',  ( 0.000000000000000000, 0.000000000000000000, 1.000000000000000000 ) ) ;
#170 = PRODUCT_RELATED_PRODUCT_CATEGORY ( 'part', '', ( #58 ) ) ;
#171 = CYLINDRICAL_SURFACE ( 'NONE', #211, 1.250000000000000000 ) ;
#172 = AXIS2_PLACEMENT_3D ( 'NONE', #71, #169, #42 ) ;
#173 = VERTEX_POINT ( 'NONE', #77 ) ;
#174 = DIRECTION ( 'NONE',  ( 1.000000000000000000, 0.000000000000000000, 0.000000000000000000 ) ) ;
#175 = DIRECTION ( 'NONE',  ( -1.000000000000000000, 0.000000000000000000, 0.000000000000000000 ) ) ;
#176 = COLOUR_RGB ( '',0.000000000000000000, 0.5019607843137254832, 0.000000000000000000 ) ;
#177 = DIRECTION ( 'NONE',  ( 0.000000000000000000, 0.000000000000000000, 1.000000000000000000 ) ) ;
#178 = DIRECTION ( 'NONE',  ( 1.000000000000000000, 0.000000000000000000, 0.000000000000000000 ) ) ;
#179 = COLOUR_RGB ( '',0.000000000000000000, 0.5019607843137254832, 0.000000000000000000 ) ;
#180 = SHAPE_DEFINITION_REPRESENTATION ( #98, #184 ) ;
#181 = CARTESIAN_POINT ( 'NONE',  ( 0.000000000000000000, 0.000000000000000000, 0.000000000000000000 ) ) ;
#182 = AXIS2_PLACEMENT_3D ( 'NONE', #193, #50, #158 ) ;
#183 = VERTEX_POINT ( 'NONE', #111 ) ;
#184 = ADVANCED_BREP_SHAPE_REPRESENTATION ( '011_006_Washer', ( #131, #129 ), #214 ) ;
#185 = ORIENTED_EDGE ( 'NONE', *, *, #213, .T. ) ;
#186 = CIRCLE ( 'NONE', #157, 3.000000000000000444 ) ;
#187 = DIRECTION ( 'NONE',  ( 1.000000000000000000, 0.000000000000000000, -0.000000000000000000 ) ) ;
#188 = CARTESIAN_POINT ( 'NONE',  ( 0.000000000000000000, 0.000000000000000000, 0.5000000000000000000 ) ) ;
#189 = DIRECTION ( 'NONE',  ( -1.000000000000000000, 0.000000000000000000, 0.000000000000000000 ) ) ;
#190 = FACE_BOUND ( 'NONE', #120, .T. ) ;
#191 = CARTESIAN_POINT ( 'NONE',  ( 0.000000000000000000, 0.000000000000000000, 0.000000000000000000 ) ) ;
#192 = EDGE_CURVE ( 'NONE', #201, #122, #145, .T. ) ;
#193 = CARTESIAN_POINT ( 'NONE',  ( 0.000000000000000000, 0.000000000000000000, 0.5000000000000000000 ) ) ;
#194 = LINE ( 'NONE', #96, #119 ) ;
#195 = FILL_AREA_STYLE ('',( #76 ) ) ;
#196 = ORIENTED_EDGE ( 'NONE', *, *, #206, .F. ) ;
#197 = APPLICATION_PROTOCOL_DEFINITION ( 'draft international standard', 'automotive_design', 1998, #1 ) ;
#198 = CIRCLE ( 'NONE', #60, 1.250000000000000000 ) ;
#199 = DIRECTION ( 'NONE',  ( 1.000000000000000000, 0.000000000000000000, 0.000000000000000000 ) ) ;
#200 = EDGE_CURVE ( 'NONE', #117, #183, #13, .T. ) ;
#201 = VERTEX_POINT ( 'NONE', #99 ) ;
#202 = CYLINDRICAL_SURFACE ( 'NONE', #80, 3.000000000000000444 ) ;
#203 = DIRECTION ( 'NONE',  ( -0.000000000000000000, -0.000000000000000000, -1.000000000000000000 ) ) ;
#204 = ORIENTED_EDGE ( 'NONE', *, *, #84, .T. ) ;
#205 = VECTOR ( 'NONE', #61, 1000.000000000000000 ) ;
#206 = EDGE_CURVE ( 'NONE', #55, #33, #46, .T. ) ;
#207 = UNCERTAINTY_MEASURE_WITH_UNIT (LENGTH_MEASURE( 1.000000000000000082E-05 ), #52, 'distance_accuracy_value', 'NONE');
#208 = DIRECTION ( 'NONE',  ( -0.000000000000000000, -0.000000000000000000, -1.000000000000000000 ) ) ;
#209 = CARTESIAN_POINT ( 'NONE',  ( 0.000000000000000000, 0.000000000000000000, 0.5000000000000000000 ) ) ;
#210 = CARTESIAN_POINT ( 'NONE',  ( 0.000000000000000000, 0.000000000000000000, 0.5000000000000000000 ) ) ;
#211 = AXIS2_PLACEMENT_3D ( 'NONE', #209, #63, #160 ) ;
#212 = LINE ( 'NONE', #93, #205 ) ;
#213 = EDGE_CURVE ( 'NONE', #152, #173, #21, .T. ) ;
#214 =( GEOMETRIC_REPRESENTATION_CONTEXT ( 3 ) GLOBAL_UNCERTAINTY_ASSIGNED_CONTEXT ( ( #6 ) ) GLOBAL_UNIT_ASSIGNED_CONTEXT ( ( #85, #128, #32 ) ) REPRESENTATION_CONTEXT ( 'NONE', 'WORKASPACE' ) );
ENDSEC;
END-ISO-10303-21;
