ISO-10303-21;
HEADER;
FILE_DESCRIPTION (( 'STEP AP214' ),
    '1' );
FILE_NAME ('010_003_Left_right_servo_lock.STEP',
    '2024-07-21T08:32:45',
    ( '' ),
    ( '' ),
    'SwSTEP 2.0',
    'SolidWorks 2019',
    '' );
FILE_SCHEMA (( 'AUTOMOTIVE_DESIGN' ));
ENDSEC;

DATA;
#1 = ORIENTED_EDGE ( 'NONE', *, *, #163, .T. ) ;
#2 = DIRECTION ( 'NONE',  ( -0.000000000000000000, -0.000000000000000000, -1.000000000000000000 ) ) ;
#3 = AXIS2_PLACEMENT_3D ( 'NONE', #523, #606, #69 ) ;
#4 = ADVANCED_FACE ( 'NONE', ( #641 ), #323, .F. ) ;
#5 = DIRECTION ( 'NONE',  ( 1.000000000000000000, 0.000000000000000000, -0.000000000000000000 ) ) ;
#6 = ORIENTED_EDGE ( 'NONE', *, *, #192, .F. ) ;
#7 = EDGE_LOOP ( 'NONE', ( #942, #572 ) ) ;
#8 = PLANE ( 'NONE',  #502 ) ;
#9 = CIRCLE ( 'NONE', #154, 4.500000000000000000 ) ;
#10 = FACE_OUTER_BOUND ( 'NONE', #533, .T. ) ;
#11 = ORIENTED_EDGE ( 'NONE', *, *, #151, .F. ) ;
#12 = EDGE_LOOP ( 'NONE', ( #431, #672, #569 ) ) ;
#13 = DIRECTION ( 'NONE',  ( 1.000000000000000000, 0.000000000000000000, 0.000000000000000000 ) ) ;
#14 = CARTESIAN_POINT ( 'NONE',  ( 9.012537912450019562, -9.712706130463864440, 6.500000000000000888 ) ) ;
#15 = EDGE_CURVE ( 'NONE', #506, #234, #948, .T. ) ;
#16 = ORIENTED_EDGE ( 'NONE', *, *, #504, .T. ) ;
#17 = EDGE_CURVE ( 'NONE', #870, #75, #984, .T. ) ;
#18 = VERTEX_POINT ( 'NONE', #476 ) ;
#19 = CARTESIAN_POINT ( 'NONE',  ( 5.894613271325935600, 19.11160732072287516, 6.500000000000000888 ) ) ;
#20 = VECTOR ( 'NONE', #393, 1000.000000000000000 ) ;
#21 = CARTESIAN_POINT ( 'NONE',  ( -6.533000330678382817, -18.91470892441575202, 5.831937865152526435 ) ) ;
#22 = CARTESIAN_POINT ( 'NONE',  ( -7.776226883643706955, -18.42634785990198054, 4.500000000000000888 ) ) ;
#23 = LINE ( 'NONE', #850, #380 ) ;
#24 = VECTOR ( 'NONE', #716, 1000.000000000000114 ) ;
#25 = DIRECTION ( 'NONE',  ( 0.000000000000000000, 0.000000000000000000, 1.000000000000000000 ) ) ;
#26 = STYLED_ITEM ( 'NONE', ( #205 ), #963 ) ;
#27 = FACE_OUTER_BOUND ( 'NONE', #521, .T. ) ;
#28 = DIRECTION ( 'NONE',  ( 1.000000000000000000, 0.000000000000000000, 0.000000000000000000 ) ) ;
#29 = DIRECTION ( 'NONE',  ( 0.000000000000000000, 0.000000000000000000, 1.000000000000000000 ) ) ;
#30 = CARTESIAN_POINT ( 'NONE',  ( 11.16771920469779289, 2.948733719519074814, 3.000000000000000000 ) ) ;
#31 = DIRECTION ( 'NONE',  ( -0.000000000000000000, -0.000000000000000000, 1.000000000000000000 ) ) ;
#32 = EDGE_CURVE ( 'NONE', #62, #470, #418, .T. ) ;
#33 = DIRECTION ( 'NONE',  ( 1.000000000000000000, 0.000000000000000000, 0.000000000000000000 ) ) ;
#34 = EDGE_CURVE ( 'NONE', #395, #661, #558, .T. ) ;
#35 = DIRECTION ( 'NONE',  ( 0.000000000000000000, 0.000000000000000000, 1.000000000000000000 ) ) ;
#36 = VECTOR ( 'NONE', #814, 1000.000000000000000 ) ;
#37 = VERTEX_POINT ( 'NONE', #941 ) ;
#38 = FILL_AREA_STYLE ('',( #546 ) ) ;
#39 = FACE_OUTER_BOUND ( 'NONE', #787, .T. ) ;
#40 = DIRECTION ( 'NONE',  ( 0.2947306635662971241, 0.9555803660361437135, -0.000000000000000000 ) ) ;
#41 = AXIS2_PLACEMENT_3D ( 'NONE', #525, #76, #830 ) ;
#42 = VERTEX_POINT ( 'NONE', #30 ) ;
#43 = PRESENTATION_STYLE_ASSIGNMENT (( #863 ) ) ;
#44 = DIRECTION ( 'NONE',  ( 1.000000000000000000, 0.000000000000000000, 0.000000000000000000 ) ) ;
#45 = DIRECTION ( 'NONE',  ( 0.9555803660361437135, -0.2947306635662968466, 0.000000000000000000 ) ) ;
#46 = ADVANCED_FACE ( 'NONE', ( #179 ), #623, .F. ) ;
#47 = ORIENTED_EDGE ( 'NONE', *, *, #881, .T. ) ;
#48 = CARTESIAN_POINT ( 'NONE',  ( -20.00000000000043343, 0.000000000000000000, 4.500000000000000888 ) ) ;
#49 = LINE ( 'NONE', #721, #90 ) ;
#50 = CARTESIAN_POINT ( 'NONE',  ( 12.91771920469545698, 2.948733719521193120, 6.500000000000000888 ) ) ;
#51 = ORIENTED_EDGE ( 'NONE', *, *, #389, .T. ) ;
#52 = AXIS2_PLACEMENT_3D ( 'NONE', #731, #420, #961 ) ;
#53 = DIRECTION ( 'NONE',  ( 1.000000000000000000, 0.000000000000000000, -0.000000000000000000 ) ) ;
#54 = CARTESIAN_POINT ( 'NONE',  ( 0.000000000000000000, 0.000000000000000000, 4.500000000000000888 ) ) ;
#55 = ORIENTED_EDGE ( 'NONE', *, *, #350, .T. ) ;
#56 = VECTOR ( 'NONE', #365, 1000.000000000000000 ) ;
#57 = CIRCLE ( 'NONE', #74, 1.749999999999999778 ) ;
#58 = ORIENTED_EDGE ( 'NONE', *, *, #776, .T. ) ;
#59 = DIRECTION ( 'NONE',  ( -1.000000000000000000, 0.000000000000000000, 0.000000000000000000 ) ) ;
#60 = EDGE_CURVE ( 'NONE', #395, #479, #970, .T. ) ;
#61 = FACE_OUTER_BOUND ( 'NONE', #971, .T. ) ;
#62 = VERTEX_POINT ( 'NONE', #494 ) ;
#63 = EDGE_LOOP ( 'NONE', ( #70, #168, #307, #517, #698 ) ) ;
#64 = FACE_OUTER_BOUND ( 'NONE', #584, .T. ) ;
#65 = CARTESIAN_POINT ( 'NONE',  ( 7.262537912449617217, -9.712706130465551979, 0.000000000000000000 ) ) ;
#66 = EDGE_LOOP ( 'NONE', ( #288, #769, #364, #269 ) ) ;
#67 = AXIS2_PLACEMENT_3D ( 'NONE', #635, #340, #33 ) ;
#68 = LINE ( 'NONE', #817, #439 ) ;
#69 = DIRECTION ( 'NONE',  ( 1.000000000000000000, 0.000000000000000000, 0.000000000000000000 ) ) ;
#70 = ORIENTED_EDGE ( 'NONE', *, *, #574, .F. ) ;
#71 = EDGE_CURVE ( 'NONE', #740, #18, #93, .T. ) ;
#72 = CIRCLE ( 'NONE', #201, 3.249999999999999556 ) ;
#73 = APPLICATION_PROTOCOL_DEFINITION ( 'draft international standard', 'automotive_design', 1998, #126 ) ;
#74 = AXIS2_PLACEMENT_3D ( 'NONE', #338, #724, #879 ) ;
#75 = VERTEX_POINT ( 'NONE', #923 ) ;
#76 = DIRECTION ( 'NONE',  ( -0.000000000000000000, -0.000000000000000000, -1.000000000000000000 ) ) ;
#77 = CARTESIAN_POINT ( 'NONE',  ( -4.500000000000000000, 0.000000000000000000, 0.000000000000000000 ) ) ;
#78 = EDGE_LOOP ( 'NONE', ( #379, #651, #592, #384 ) ) ;
#79 = ADVANCED_FACE ( 'NONE', ( #249, #27 ), #548, .T. ) ;
#80 = CARTESIAN_POINT ( 'NONE',  ( 9.012537912450042654, -9.712706130465551979, 3.000000000000000000 ) ) ;
#81 = DIRECTION ( 'NONE',  ( 1.000000000000000000, 0.000000000000000000, 0.000000000000000000 ) ) ;
#82 = ORIENTED_EDGE ( 'NONE', *, *, #180, .T. ) ;
#83 = ORIENTED_EDGE ( 'NONE', *, *, #913, .F. ) ;
#84 = DIRECTION ( 'NONE',  ( 0.000000000000000000, 0.000000000000000000, -1.000000000000000000 ) ) ;
#85 = AXIS2_PLACEMENT_3D ( 'NONE', #896, #610, #81 ) ;
#86 = DIRECTION ( 'NONE',  ( -1.000000000000000000, 0.000000000000000000, 0.000000000000000000 ) ) ;
#87 = ORIENTED_EDGE ( 'NONE', *, *, #803, .T. ) ;
#88 = EDGE_LOOP ( 'NONE', ( #123, #976, #608, #639 ) ) ;
#89 = DIRECTION ( 'NONE',  ( 0.000000000000000000, 0.000000000000000000, 1.000000000000000000 ) ) ;
#90 = VECTOR ( 'NONE', #352, 999.9999999999998863 ) ;
#91 = PRODUCT_RELATED_PRODUCT_CATEGORY ( 'part', '', ( #96 ) ) ;
#92 = FACE_OUTER_BOUND ( 'NONE', #305, .T. ) ;
#93 = LINE ( 'NONE', #406, #827 ) ;
#94 = VERTEX_POINT ( 'NONE', #22 ) ;
#95 = CARTESIAN_POINT ( 'NONE',  ( 0.000000000000000000, 0.000000000000000000, 0.000000000000000000 ) ) ;
#96 = PRODUCT ( '010_003_Left_right_servo_lock', '010_003_Left_right_servo_lock', '', ( #216 ) ) ;
#97 = DIRECTION ( 'NONE',  ( -0.000000000000000000, -0.000000000000000000, -1.000000000000000000 ) ) ;
#98 = EDGE_LOOP ( 'NONE', ( #535, #421 ) ) ;
#99 = ADVANCED_BREP_SHAPE_REPRESENTATION ( '010_003_Left_right_servo_lock', ( #963, #739 ), #878 ) ;
#100 = CYLINDRICAL_SURFACE ( 'NONE', #107, 3.249999999999999556 ) ;
#101 = AXIS2_PLACEMENT_3D ( 'NONE', #301, #742, #223 ) ;
#102 = DIRECTION ( 'NONE',  ( -0.000000000000000000, -0.000000000000000000, -1.000000000000000000 ) ) ;
#103 = DIRECTION ( 'NONE',  ( 1.000000000000000000, 0.000000000000000000, 0.000000000000000000 ) ) ;
#104 = FACE_BOUND ( 'NONE', #983, .T. ) ;
#105 = AXIS2_PLACEMENT_3D ( 'NONE', #772, #97, #327 ) ;
#106 = CARTESIAN_POINT ( 'NONE',  ( -9.352633682725084441, 10.07922334293220423, 4.500000000000000888 ) ) ;
#107 = AXIS2_PLACEMENT_3D ( 'NONE', #468, #854, #916 ) ;
#108 = CARTESIAN_POINT ( 'NONE',  ( -9.352633682725084441, 10.07922334293220423, 3.000000000000000000 ) ) ;
#109 = PRESENTATION_LAYER_ASSIGNMENT (  '', '', ( #442 ) ) ;
#110 = ADVANCED_FACE ( 'NONE', ( #629 ), #930, .T. ) ;
#111 = CYLINDRICAL_SURFACE ( 'NONE', #67, 1.749999999999115152 ) ;
#112 = CARTESIAN_POINT ( 'NONE',  ( 9.012537912450019562, -9.712706130463864440, 3.000000000000000000 ) ) ;
#113 = ORIENTED_EDGE ( 'NONE', *, *, #646, .T. ) ;
#114 = PLANE ( 'NONE',  #611 ) ;
#115 = FACE_OUTER_BOUND ( 'NONE', #88, .T. ) ;
#116 = AXIS2_PLACEMENT_3D ( 'NONE', #875, #127, #425 ) ;
#117 = ORIENTED_EDGE ( 'NONE', *, *, #34, .T. ) ;
#118 = DIRECTION ( 'NONE',  ( 1.000000000000000000, 0.000000000000000000, -0.000000000000000000 ) ) ;
#119 = ADVANCED_FACE ( 'NONE', ( #933 ), #856, .F. ) ;
#120 = CIRCLE ( 'NONE', #182, 4.500000000000000000 ) ;
#121 = EDGE_CURVE ( 'NONE', #528, #450, #563, .T. ) ;
#122 = CARTESIAN_POINT ( 'NONE',  ( -9.352633682725084441, 10.07922334293220423, 3.000000000000000000 ) ) ;
#123 = ORIENTED_EDGE ( 'NONE', *, *, #180, .F. ) ;
#124 = SURFACE_SIDE_STYLE ('',( #872 ) ) ;
#125 = CARTESIAN_POINT ( 'NONE',  ( 13.21699404939666955, -25.00622059204965808, 37.97323629180451121 ) ) ;
#126 = APPLICATION_CONTEXT ( 'automotive_design' ) ;
#127 = DIRECTION ( 'NONE',  ( -0.000000000000000000, -0.000000000000000000, 1.000000000000000000 ) ) ;
#128 = VERTEX_POINT ( 'NONE', #955 ) ;
#129 =( NAMED_UNIT ( * ) PLANE_ANGLE_UNIT ( ) SI_UNIT ( $, .RADIAN. ) );
#130 = DIRECTION ( 'NONE',  ( 0.000000000000000000, 0.000000000000000000, 1.000000000000000000 ) ) ;
#131 = FACE_OUTER_BOUND ( 'NONE', #865, .T. ) ;
#132 = ORIENTED_EDGE ( 'NONE', *, *, #912, .F. ) ;
#133 = ADVANCED_FACE ( 'NONE', ( #115 ), #590, .F. ) ;
#134 = VERTEX_POINT ( 'NONE', #869 ) ;
#135 = DIRECTION ( 'NONE',  ( -0.000000000000000000, -0.000000000000000000, -1.000000000000000000 ) ) ;
#136 = DIRECTION ( 'NONE',  ( -0.000000000000000000, -0.000000000000000000, -1.000000000000000000 ) ) ;
#137 = EDGE_LOOP ( 'NONE', ( #314, #55, #596, #415 ) ) ;
#138 = AXIS2_PLACEMENT_3D ( 'NONE', #965, #668, #588 ) ;
#139 = ADVANCED_FACE ( 'NONE', ( #798 ), #660, .F. ) ;
#140 = FACE_OUTER_BOUND ( 'NONE', #137, .T. ) ;
#141 = DIRECTION ( 'NONE',  ( 1.000000000000000000, 0.000000000000000000, 0.000000000000000000 ) ) ;
#142 = ORIENTED_EDGE ( 'NONE', *, *, #544, .F. ) ;
#143 = ORIENTED_EDGE ( 'NONE', *, *, #299, .T. ) ;
#144 = DIRECTION ( 'NONE',  ( -0.000000000000000000, -0.000000000000000000, 1.000000000000000000 ) ) ;
#145 = CARTESIAN_POINT ( 'NONE',  ( -6.102633682725084441, 10.07922334293220423, 3.000000000000000000 ) ) ;
#146 = ORIENTED_EDGE ( 'NONE', *, *, #32, .F. ) ;
#147 = VECTOR ( 'NONE', #459, 1000.000000000000000 ) ;
#148 = EDGE_LOOP ( 'NONE', ( #673, #320, #600, #343 ) ) ;
#149 = FACE_OUTER_BOUND ( 'NONE', #727, .T. ) ;
#150 = LINE ( 'NONE', #904, #147 ) ;
#151 = EDGE_CURVE ( 'NONE', #237, #528, #654, .T. ) ;
#152 = ADVANCED_FACE ( 'NONE', ( #802 ), #366, .F. ) ;
#153 = ORIENTED_EDGE ( 'NONE', *, *, #532, .T. ) ;
#154 = AXIS2_PLACEMENT_3D ( 'NONE', #206, #873, #59 ) ;
#155 = FACE_BOUND ( 'NONE', #883, .T. ) ;
#156 = LINE ( 'NONE', #982, #20 ) ;
#157 = VERTEX_POINT ( 'NONE', #966 ) ;
#158 = EDGE_LOOP ( 'NONE', ( #835, #51, #311, #579 ) ) ;
#159 = CARTESIAN_POINT ( 'NONE',  ( 0.000000000000000000, 0.000000000000000000, 0.000000000000000000 ) ) ;
#160 = CARTESIAN_POINT ( 'NONE',  ( 0.000000000000000000, 0.000000000000000000, 3.000000000000000000 ) ) ;
#161 = EDGE_LOOP ( 'NONE', ( #545, #117, #509, #83 ) ) ;
#162 = ADVANCED_FACE ( 'NONE', ( #131 ), #650, .T. ) ;
#163 = EDGE_CURVE ( 'NONE', #368, #662, #687, .T. ) ;
#164 = ORIENTED_EDGE ( 'NONE', *, *, #803, .F. ) ;
#165 = DIRECTION ( 'NONE',  ( -0.2947306635662969021, -0.9555803660361437135, 0.000000000000000000 ) ) ;
#166 = VECTOR ( 'NONE', #230, 1000.000000000000000 ) ;
#167 = DIRECTION ( 'NONE',  ( 0.000000000000000000, 0.000000000000000000, 1.000000000000000000 ) ) ;
#168 = ORIENTED_EDGE ( 'NONE', *, *, #225, .F. ) ;
#169 = VERTEX_POINT ( 'NONE', #586 ) ;
#170 = LINE ( 'NONE', #472, #184 ) ;
#171 = CIRCLE ( 'NONE', #344, 4.500000000000000000 ) ;
#172 = DIRECTION ( 'NONE',  ( -0.2947306635662968466, -0.9555803660361437135, 0.000000000000000000 ) ) ;
#173 = DIRECTION ( 'NONE',  ( 1.000000000000000000, 0.000000000000000000, 0.000000000000000000 ) ) ;
#174 = CARTESIAN_POINT ( 'NONE',  ( -13.40518030676006411, -3.060006690063416634, 0.000000000000000000 ) ) ;
#175 = ADVANCED_FACE ( 'NONE', ( #61 ), #726, .T. ) ;
#176 = DIRECTION ( 'NONE',  ( -0.000000000000000000, -0.000000000000000000, 1.000000000000000000 ) ) ;
#177 = CARTESIAN_POINT ( 'NONE',  ( -15.15518030676006411, -3.060006690063416634, 0.000000000000000000 ) ) ;
#178 = CARTESIAN_POINT ( 'NONE',  ( -7.776226883643706955, -18.42634785990198054, 4.500000000000000888 ) ) ;
#179 = FACE_OUTER_BOUND ( 'NONE', #866, .T. ) ;
#180 = EDGE_CURVE ( 'NONE', #368, #620, #218, .T. ) ;
#181 = CARTESIAN_POINT ( 'NONE',  ( 3.953905419499088136, 19.60527051416718436, 4.500000000000000888 ) ) ;
#182 = AXIS2_PLACEMENT_3D ( 'NONE', #409, #709, #183 ) ;
#183 = DIRECTION ( 'NONE',  ( -1.000000000000000000, 0.000000000000000000, 0.000000000000000000 ) ) ;
#184 = VECTOR ( 'NONE', #256, 1000.000000000000000 ) ;
#185 = DIRECTION ( 'NONE',  ( 0.000000000000000000, 0.000000000000000000, -1.000000000000000000 ) ) ;
#186 = ORIENTED_EDGE ( 'NONE', *, *, #892, .T. ) ;
#187 = DIRECTION ( 'NONE',  ( 1.000000000000000000, 0.000000000000000000, 0.000000000000000000 ) ) ;
#188 = CYLINDRICAL_SURFACE ( 'NONE', #519, 4.500000000000000000 ) ;
#189 = DIRECTION ( 'NONE',  ( 1.000000000000000000, 0.000000000000000000, 0.000000000000000000 ) ) ;
#190 = ORIENTED_EDGE ( 'NONE', *, *, #193, .T. ) ;
#191 =( NAMED_UNIT ( * ) SI_UNIT ( $, .STERADIAN. ) SOLID_ANGLE_UNIT ( ) );
#192 = EDGE_CURVE ( 'NONE', #683, #626, #480, .T. ) ;
#193 = EDGE_CURVE ( 'NONE', #279, #499, #353, .T. ) ;
#194 = AXIS2_PLACEMENT_3D ( 'NONE', #713, #710, #488 ) ;
#195 = CARTESIAN_POINT ( 'NONE',  ( 25.00622059204854963, 13.21699404939610112, 6.499999999999999112 ) ) ;
#196 = AXIS2_PLACEMENT_3D ( 'NONE', #837, #911, #227 ) ;
#197 = DIRECTION ( 'NONE',  ( -0.000000000000000000, -0.000000000000000000, 1.000000000000000000 ) ) ;
#198 = VECTOR ( 'NONE', #102, 1000.000000000000000 ) ;
#199 = ORIENTED_EDGE ( 'NONE', *, *, #633, .F. ) ;
#200 = CARTESIAN_POINT ( 'NONE',  ( -13.40518030676006411, -3.060006690063416634, 3.000000000000000000 ) ) ;
#201 = AXIS2_PLACEMENT_3D ( 'NONE', #401, #167, #322 ) ;
#202 = CARTESIAN_POINT ( 'NONE',  ( 25.00622059204854963, 13.21699404939610112, 0.000000000000000000 ) ) ;
#203 = CIRCLE ( 'NONE', #959, 1.749999999999999778 ) ;
#204 = ORIENTED_EDGE ( 'NONE', *, *, #270, .T. ) ;
#205 = PRESENTATION_STYLE_ASSIGNMENT (( #492 ) ) ;
#206 = CARTESIAN_POINT ( 'NONE',  ( 0.000000000000000000, 0.000000000000000000, 0.000000000000000000 ) ) ;
#207 = DIRECTION ( 'NONE',  ( -0.000000000000000000, -0.000000000000000000, 1.000000000000000000 ) ) ;
#208 = EDGE_CURVE ( 'NONE', #662, #524, #278, .T. ) ;
#209 = ORIENTED_EDGE ( 'NONE', *, *, #531, .T. ) ;
#210 = VERTEX_POINT ( 'NONE', #578 ) ;
#211 = CARTESIAN_POINT ( 'NONE',  ( 0.000000000000000000, 0.000000000000000000, 4.500000000000000888 ) ) ;
#212 = CARTESIAN_POINT ( 'NONE',  ( -5.894613271326208270, -19.11160732072371005, 6.499999999999984901 ) ) ;
#213 = ORIENTED_EDGE ( 'NONE', *, *, #490, .F. ) ;
#214 = VECTOR ( 'NONE', #677, 1000.000000000000000 ) ;
#215 = EDGE_CURVE ( 'NONE', #450, #169, #403, .T. ) ;
#216 = PRODUCT_CONTEXT ( 'NONE', #900, 'mechanical' ) ;
#217 = LINE ( 'NONE', #836, #675 ) ;
#218 = LINE ( 'NONE', #286, #903 ) ;
#219 = ORIENTED_EDGE ( 'NONE', *, *, #34, .F. ) ;
#220 = CIRCLE ( 'NONE', #594, 3.249999999999999556 ) ;
#221 = VERTEX_POINT ( 'NONE', #202 ) ;
#222 = DIRECTION ( 'NONE',  ( 1.000000000000000000, 0.000000000000000000, 0.000000000000000000 ) ) ;
#223 = DIRECTION ( 'NONE',  ( 1.000000000000000000, 0.000000000000000000, 0.000000000000000000 ) ) ;
#224 = ORIENTED_EDGE ( 'NONE', *, *, #735, .F. ) ;
#225 = EDGE_CURVE ( 'NONE', #414, #980, #951, .T. ) ;
#226 = DIRECTION ( 'NONE',  ( 1.000000000000000000, 0.000000000000000000, 0.000000000000000000 ) ) ;
#227 = DIRECTION ( 'NONE',  ( -1.000000000000000000, 0.000000000000000000, 0.000000000000000000 ) ) ;
#228 = ORIENTED_EDGE ( 'NONE', *, *, #330, .F. ) ;
#229 = DIRECTION ( 'NONE',  ( -0.000000000000000000, -0.000000000000000000, 1.000000000000000000 ) ) ;
#230 = DIRECTION ( 'NONE',  ( 0.000000000000000000, 0.000000000000000000, -1.000000000000000000 ) ) ;
#231 = VERTEX_POINT ( 'NONE', #571 ) ;
#232 = AXIS2_PLACEMENT_3D ( 'NONE', #585, #797, #118 ) ;
#233 = AXIS2_PLACEMENT_3D ( 'NONE', #486, #632, #477 ) ;
#234 = VERTEX_POINT ( 'NONE', #885 ) ;
#235 = FACE_BOUND ( 'NONE', #462, .T. ) ;
#236 = CARTESIAN_POINT ( 'NONE',  ( 0.000000000000000000, 0.000000000000000000, 3.000000000000000000 ) ) ;
#237 = VERTEX_POINT ( 'NONE', #212 ) ;
#238 = EDGE_CURVE ( 'NONE', #470, #75, #440, .T. ) ;
#239 = ORIENTED_EDGE ( 'NONE', *, *, #504, .F. ) ;
#240 = LINE ( 'NONE', #841, #253 ) ;
#241 = DIRECTION ( 'NONE',  ( 1.000000000000000000, 0.000000000000000000, 0.000000000000000000 ) ) ;
#242 = ORIENTED_EDGE ( 'NONE', *, *, #648, .T. ) ;
#243 = EDGE_CURVE ( 'NONE', #18, #42, #449, .T. ) ;
#244 = AXIS2_PLACEMENT_3D ( 'NONE', #236, #686, #832 ) ;
#245 = ORIENTED_EDGE ( 'NONE', *, *, #389, .F. ) ;
#246 = CARTESIAN_POINT ( 'NONE',  ( 4.608782363196832321, 19.47319778938997814, 5.164713431379905906 ) ) ;
#247 = AXIS2_PLACEMENT_3D ( 'NONE', #849, #402, #701 ) ;
#248 = FACE_OUTER_BOUND ( 'NONE', #78, .T. ) ;
#249 = FACE_BOUND ( 'NONE', #390, .T. ) ;
#250 = CIRCLE ( 'NONE', #312, 1.750000000000424771 ) ;
#251 = ORIENTED_EDGE ( 'NONE', *, *, #779, .T. ) ;
#252 = CARTESIAN_POINT ( 'NONE',  ( -7.602633682725084441, 10.07922334293220423, 3.000000000000000000 ) ) ;
#253 = VECTOR ( 'NONE', #165, 1000.000000000000114 ) ;
#254 = CARTESIAN_POINT ( 'NONE',  ( -12.60263368272508266, 10.07922334293220423, 3.000000000000000000 ) ) ;
#255 = DIRECTION ( 'NONE',  ( 1.000000000000000000, 0.000000000000000000, 0.000000000000000000 ) ) ;
#256 = DIRECTION ( 'NONE',  ( -0.000000000000000000, -0.000000000000000000, 1.000000000000000000 ) ) ;
#257 = ADVANCED_FACE ( 'NONE', ( #682 ), #448, .F. ) ;
#258 = CYLINDRICAL_SURFACE ( 'NONE', #501, 3.250000000000000444 ) ;
#259 = EDGE_CURVE ( 'NONE', #919, #506, #156, .T. ) ;
#260 = EDGE_LOOP ( 'NONE', ( #901, #245 ) ) ;
#261 = DIRECTION ( 'NONE',  ( 0.9555803660361434915, -0.2947306635662974017, 0.000000000000000000 ) ) ;
#262 = VECTOR ( 'NONE', #773, 1000.000000000000000 ) ;
#263 = CARTESIAN_POINT ( 'NONE',  ( 19.11160732072287516, -5.894613271325937376, 6.499999999999999112 ) ) ;
#264 = DIRECTION ( 'NONE',  ( -1.000000000000000000, 0.000000000000000000, 0.000000000000000000 ) ) ;
#265 = CIRCLE ( 'NONE', #816, 3.249999999999999556 ) ;
#266 = CARTESIAN_POINT ( 'NONE',  ( 12.91771920469690826, 2.948733719519074814, 0.000000000000000000 ) ) ;
#267 = CARTESIAN_POINT ( 'NONE',  ( -10.15518030676006589, -3.060006690063416190, 6.500000000000000888 ) ) ;
#268 = EDGE_CURVE ( 'NONE', #524, #620, #434, .T. ) ;
#269 = ORIENTED_EDGE ( 'NONE', *, *, #310, .F. ) ;
#270 = EDGE_CURVE ( 'NONE', #234, #506, #794, .T. ) ;
#271 =( LENGTH_UNIT ( ) NAMED_UNIT ( * ) SI_UNIT ( .MILLI., .METRE. ) );
#272 = FACE_OUTER_BOUND ( 'NONE', #979, .T. ) ;
#273 = DIRECTION ( 'NONE',  ( 1.000000000000000000, 0.000000000000000000, 0.000000000000000000 ) ) ;
#274 = VERTEX_POINT ( 'NONE', #691 ) ;
#275 =( LENGTH_UNIT ( ) NAMED_UNIT ( * ) SI_UNIT ( .MILLI., .METRE. ) );
#276 = LINE ( 'NONE', #737, #752 ) ;
#277 = AXIS2_PLACEMENT_3D ( 'NONE', #483, #176, #255 ) ;
#278 = LINE ( 'NONE', #346, #607 ) ;
#279 = VERTEX_POINT ( 'NONE', #145 ) ;
#280 = APPLICATION_PROTOCOL_DEFINITION ( 'draft international standard', 'automotive_design', 1998, #900 ) ;
#281 = DIRECTION ( 'NONE',  ( 1.000000000000000000, 0.000000000000000000, 0.000000000000000000 ) ) ;
#282 = AXIS2_PLACEMENT_3D ( 'NONE', #200, #813, #806 ) ;
#283 = CARTESIAN_POINT ( 'NONE',  ( 9.012537912450042654, -9.712706130465551979, 0.000000000000000000 ) ) ;
#284 = ORIENTED_EDGE ( 'NONE', *, *, #759, .F. ) ;
#285 = DIRECTION ( 'NONE',  ( 0.000000000000000000, 0.000000000000000000, 1.000000000000000000 ) ) ;
#286 = CARTESIAN_POINT ( 'NONE',  ( 7.262537912449617217, -9.712706130465551979, 0.000000000000000000 ) ) ;
#287 = PRODUCT_DEFINITION_CONTEXT ( 'detailed design', #126, 'design' ) ;
#288 = ORIENTED_EDGE ( 'NONE', *, *, #443, .F. ) ;
#289 = ORIENTED_EDGE ( 'NONE', *, *, #707, .F. ) ;
#290 = DIRECTION ( 'NONE',  ( 0.000000000000000000, 0.000000000000000000, 1.000000000000000000 ) ) ;
#291 = CARTESIAN_POINT ( 'NONE',  ( 0.000000000000000000, 0.000000000000000000, 3.000000000000000000 ) ) ;
#292 = ORIENTED_EDGE ( 'NONE', *, *, #776, .F. ) ;
#293 = VECTOR ( 'NONE', #922, 1000.000000000000000 ) ;
#294 = ORIENTED_EDGE ( 'NONE', *, *, #318, .T. ) ;
#295 = CARTESIAN_POINT ( 'NONE',  ( -11.65518030676006411, -3.060006690063416634, 0.000000000000000000 ) ) ;
#296 = CARTESIAN_POINT ( 'NONE',  ( -9.352633682725084441, 10.07922334293220423, 6.500000000000000888 ) ) ;
#297 = ORIENTED_EDGE ( 'NONE', *, *, #834, .T. ) ;
#298 = CIRCLE ( 'NONE', #848, 4.500000000000000000 ) ;
#299 = EDGE_CURVE ( 'NONE', #843, #919, #513, .T. ) ;
#300 = CARTESIAN_POINT ( 'NONE',  ( -13.40518030676006411, -3.060006690063416634, 6.500000000000000888 ) ) ;
#301 = CARTESIAN_POINT ( 'NONE',  ( 9.012537912450019562, -9.712706130463864440, 6.500000000000000888 ) ) ;
#302 = ORIENTED_EDGE ( 'NONE', *, *, #71, .F. ) ;
#303 = CYLINDRICAL_SURFACE ( 'NONE', #422, 3.249999999999999556 ) ;
#304 = CARTESIAN_POINT ( 'NONE',  ( 9.012537912450042654, -9.712706130465551979, 3.000000000000000000 ) ) ;
#305 = EDGE_LOOP ( 'NONE', ( #861, #47, #890, #302 ) ) ;
#306 = AXIS2_PLACEMENT_3D ( 'NONE', #949, #197, #514 ) ;
#307 = ORIENTED_EDGE ( 'NONE', *, *, #874, .T. ) ;
#308 = DIRECTION ( 'NONE',  ( -1.000000000000000000, 0.000000000000000000, 0.000000000000000000 ) ) ;
#309 = PLANE ( 'NONE',  #887 ) ;
#310 = EDGE_CURVE ( 'NONE', #94, #414, #595, .T. ) ;
#311 = ORIENTED_EDGE ( 'NONE', *, *, #392, .T. ) ;
#312 = AXIS2_PLACEMENT_3D ( 'NONE', #80, #898, #226 ) ;
#313 = AXIS2_PLACEMENT_3D ( 'NONE', #771, #845, #28 ) ;
#314 = ORIENTED_EDGE ( 'NONE', *, *, #473, .F. ) ;
#315 = DIRECTION ( 'NONE',  ( 0.2947306635662971241, 0.9555803660361437135, -0.000000000000000000 ) ) ;
#316 = PRODUCT_DEFINITION_FORMATION_WITH_SPECIFIED_SOURCE ( 'ANY', '', #96, .NOT_KNOWN. ) ;
#317 = CARTESIAN_POINT ( 'NONE',  ( -5.894613271326207382, -19.11160732072370649, 37.97323629180451121 ) ) ;
#318 = EDGE_CURVE ( 'NONE', #838, #157, #624, .T. ) ;
#319 = ORIENTED_EDGE ( 'NONE', *, *, #809, .F. ) ;
#320 = ORIENTED_EDGE ( 'NONE', *, *, #591, .T. ) ;
#321 = DIRECTION ( 'NONE',  ( 1.000000000000000000, 0.000000000000000000, 0.000000000000000000 ) ) ;
#322 = DIRECTION ( 'NONE',  ( 1.000000000000000000, 0.000000000000000000, 0.000000000000000000 ) ) ;
#323 = CYLINDRICAL_SURFACE ( 'NONE', #194, 3.249999999999999556 ) ;
#324 = AXIS2_PLACEMENT_3D ( 'NONE', #304, #899, #978 ) ;
#325 = ORIENTED_EDGE ( 'NONE', *, *, #163, .F. ) ;
#326 = CARTESIAN_POINT ( 'NONE',  ( 5.762537912450018673, -9.712706130463864440, 6.500000000000000888 ) ) ;
#327 = DIRECTION ( 'NONE',  ( -1.000000000000000000, 0.000000000000000000, 0.000000000000000000 ) ) ;
#328 = DIRECTION ( 'NONE',  ( 1.000000000000000000, 0.000000000000000000, 0.000000000000000000 ) ) ;
#329 = AXIS2_PLACEMENT_3D ( 'NONE', #438, #285, #281 ) ;
#330 = EDGE_CURVE ( 'NONE', #626, #37, #150, .T. ) ;
#331 = DIRECTION ( 'NONE',  ( -0.000000000000000000, -0.000000000000000000, 1.000000000000000000 ) ) ;
#332 =( GEOMETRIC_REPRESENTATION_CONTEXT ( 3 ) GLOBAL_UNCERTAINTY_ASSIGNED_CONTEXT ( ( #945 ) ) GLOBAL_UNIT_ASSIGNED_CONTEXT ( ( #271, #351, #867 ) ) REPRESENTATION_CONTEXT ( 'NONE', 'WORKASPACE' ) );
#333 = CARTESIAN_POINT ( 'NONE',  ( -4.500000000000000000, 0.000000000000000000, 1.000000000000000000 ) ) ;
#334 = DIRECTION ( 'NONE',  ( 0.000000000000000000, 0.000000000000000000, -1.000000000000000000 ) ) ;
#335 = DIRECTION ( 'NONE',  ( -0.000000000000000000, -0.000000000000000000, -1.000000000000000000 ) ) ;
#336 = DIRECTION ( 'NONE',  ( -0.9555803660361438245, 0.2947306635662967911, 0.000000000000000000 ) ) ;
#337 = CARTESIAN_POINT ( 'NONE',  ( 9.012537912450019562, -9.712706130463864440, 6.500000000000000888 ) ) ;
#338 = CARTESIAN_POINT ( 'NONE',  ( -9.352633682725084441, 10.07922334293220423, 0.000000000000000000 ) ) ;
#339 = AXIS2_PLACEMENT_3D ( 'NONE', #665, #882, #889 ) ;
#340 = DIRECTION ( 'NONE',  ( -0.000000000000000000, -0.000000000000000000, 1.000000000000000000 ) ) ;
#341 = ADVANCED_FACE ( 'NONE', ( #464 ), #387, .F. ) ;
#342 = ORIENTED_EDGE ( 'NONE', *, *, #243, .F. ) ;
#343 = ORIENTED_EDGE ( 'NONE', *, *, #392, .F. ) ;
#344 = AXIS2_PLACEMENT_3D ( 'NONE', #761, #84, #663 ) ;
#345 = CARTESIAN_POINT ( 'NONE',  ( 0.000000000000000000, 0.000000000000000000, 1.000000000000000000 ) ) ;
#346 = CARTESIAN_POINT ( 'NONE',  ( 10.76253791245046720, -9.712706130465551979, 0.000000000000000000 ) ) ;
#347 = EDGE_LOOP ( 'NONE', ( #914, #894, #907, #511 ) ) ;
#348 = FACE_BOUND ( 'NONE', #260, .T. ) ;
#349 = CARTESIAN_POINT ( 'NONE',  ( 19.11160732072287516, -5.894613271325937376, 37.97323629180451121 ) ) ;
#350 = EDGE_CURVE ( 'NONE', #539, #221, #748, .T. ) ;
#351 =( NAMED_UNIT ( * ) PLANE_ANGLE_UNIT ( ) SI_UNIT ( $, .RADIAN. ) );
#352 = DIRECTION ( 'NONE',  ( -0.9555803660361438245, 0.2947306635662967911, 0.000000000000000000 ) ) ;
#353 = CIRCLE ( 'NONE', #669, 3.249999999999999556 ) ;
#354 = DIRECTION ( 'NONE',  ( 0.000000000000000000, 0.000000000000000000, 1.000000000000000000 ) ) ;
#355 = ORIENTED_EDGE ( 'NONE', *, *, #968, .T. ) ;
#356 = EDGE_CURVE ( 'NONE', #843, #234, #762, .T. ) ;
#357 = ADVANCED_FACE ( 'NONE', ( #526, #10 ), #599, .T. ) ;
#358 = CARTESIAN_POINT ( 'NONE',  ( 7.262537912449617217, -9.712706130465551979, 3.000000000000000000 ) ) ;
#359 = AXIS2_PLACEMENT_3D ( 'NONE', #266, #653, #433 ) ;
#360 = DIRECTION ( 'NONE',  ( 1.000000000000000000, 0.000000000000000000, 0.000000000000000000 ) ) ;
#361 = COLOUR_RGB ( '',1.000000000000000000, 0.5019607843137254832, 0.000000000000000000 ) ;
#362 = VERTEX_POINT ( 'NONE', #454 ) ;
#363 = SHAPE_DEFINITION_REPRESENTATION ( #938, #99 ) ;
#364 = ORIENTED_EDGE ( 'NONE', *, *, #874, .F. ) ;
#365 = DIRECTION ( 'NONE',  ( 0.000000000000000000, 0.000000000000000000, -1.000000000000000000 ) ) ;
#366 = CYLINDRICAL_SURFACE ( 'NONE', #306, 1.749999999999999778 ) ;
#367 = VERTEX_POINT ( 'NONE', #77 ) ;
#368 = VERTEX_POINT ( 'NONE', #65 ) ;
#369 = DIRECTION ( 'NONE',  ( -0.2947306635662967911, -0.9555803660361438245, 0.000000000000000000 ) ) ;
#370 = CLOSED_SHELL ( 'NONE', ( #789, #341, #119, #46, #426, #412, #152, #733, #491, #175, #430, #257, #4, #357, #79, #940, #372, #692, #967, #820, #139, #133, #618, #484, #839, #564, #110, #162, #385, #790, #659, #924 ) ) ;
#371 = FACE_OUTER_BOUND ( 'NONE', #765, .T. ) ;
#372 = ADVANCED_FACE ( 'NONE', ( #754, #371 ), #757, .T. ) ;
#373 = EDGE_LOOP ( 'NONE', ( #602, #538 ) ) ;
#374 = CIRCLE ( 'NONE', #496, 20.00000000000043698 ) ;
#375 = ORIENTED_EDGE ( 'NONE', *, *, #809, .T. ) ;
#376 = DIRECTION ( 'NONE',  ( 0.000000000000000000, 0.000000000000000000, -1.000000000000000000 ) ) ;
#377 = CARTESIAN_POINT ( 'NONE',  ( 25.00622059204854963, 13.21699404939610112, 37.97323629180451121 ) ) ;
#378 = AXIS2_PLACEMENT_3D ( 'NONE', #902, #229, #13 ) ;
#379 = ORIENTED_EDGE ( 'NONE', *, *, #968, .F. ) ;
#380 = VECTOR ( 'NONE', #261, 1000.000000000000000 ) ;
#381 = EDGE_LOOP ( 'NONE', ( #760, #146, #297, #744 ) ) ;
#382 = DIRECTION ( 'NONE',  ( 0.9555803660361438245, -0.2947306635662967911, 0.000000000000000000 ) ) ;
#383 = FACE_OUTER_BOUND ( 'NONE', #460, .T. ) ;
#384 = ORIENTED_EDGE ( 'NONE', *, *, #834, .F. ) ;
#385 = ADVANCED_FACE ( 'NONE', ( #383 ), #309, .F. ) ;
#386 = DIRECTION ( 'NONE',  ( 0.000000000000000000, 0.000000000000000000, 1.000000000000000000 ) ) ;
#387 = CYLINDRICAL_SURFACE ( 'NONE', #196, 3.249999999999999556 ) ;
#388 = VERTEX_POINT ( 'NONE', #917 ) ;
#389 = EDGE_CURVE ( 'NONE', #388, #667, #466, .T. ) ;
#390 = EDGE_LOOP ( 'NONE', ( #342, #489 ) ) ;
#391 = FACE_OUTER_BOUND ( 'NONE', #66, .T. ) ;
#392 = EDGE_CURVE ( 'NONE', #667, #499, #670, .T. ) ;
#393 = DIRECTION ( 'NONE',  ( -0.000000000000000000, -0.000000000000000000, -1.000000000000000000 ) ) ;
#394 = ORIENTED_EDGE ( 'NONE', *, *, #516, .T. ) ;
#395 = VERTEX_POINT ( 'NONE', #487 ) ;
#396 = CYLINDRICAL_SURFACE ( 'NONE', #581, 1.749999999999999778 ) ;
#397 = FACE_OUTER_BOUND ( 'NONE', #844, .T. ) ;
#398 = DIRECTION ( 'NONE',  ( -0.000000000000000000, -0.000000000000000000, 1.000000000000000000 ) ) ;
#399 = EDGE_LOOP ( 'NONE', ( #840, #436, #465, #925 ) ) ;
#400 = CARTESIAN_POINT ( 'NONE',  ( -9.352633682725084441, 10.07922334293220423, 3.000000000000000000 ) ) ;
#401 = CARTESIAN_POINT ( 'NONE',  ( 9.012537912450019562, -9.712706130463864440, 6.500000000000000888 ) ) ;
#402 = DIRECTION ( 'NONE',  ( 0.000000000000000000, 0.000000000000000000, 1.000000000000000000 ) ) ;
#403 = CIRCLE ( 'NONE', #52, 20.00000000000000000 ) ;
#404 = CARTESIAN_POINT ( 'NONE',  ( -13.40518030676006411, -3.060006690063416634, 0.000000000000000000 ) ) ;
#405 = DIRECTION ( 'NONE',  ( -1.000000000000000000, 0.000000000000000000, 0.000000000000000000 ) ) ;
#406 = CARTESIAN_POINT ( 'NONE',  ( 14.66771920469602364, 2.948733719519074814, 0.000000000000000000 ) ) ;
#407 = DIRECTION ( 'NONE',  ( 1.000000000000000000, 0.000000000000000000, 0.000000000000000000 ) ) ;
#408 = AXIS2_PLACEMENT_3D ( 'NONE', #690, #481, #315 ) ;
#409 = CARTESIAN_POINT ( 'NONE',  ( 0.000000000000000000, 0.000000000000000000, 1.000000000000000000 ) ) ;
#410 = ORIENTED_EDGE ( 'NONE', *, *, #516, .F. ) ;
#411 = CARTESIAN_POINT ( 'NONE',  ( 0.000000000000000000, 0.000000000000000000, 0.000000000000000000 ) ) ;
#412 = ADVANCED_FACE ( 'NONE', ( #248 ), #712, .F. ) ;
#413 = CARTESIAN_POINT ( 'NONE',  ( 5.894613271325935600, 19.11160732072287516, 0.000000000000000000 ) ) ;
#414 = VERTEX_POINT ( 'NONE', #469 ) ;
#415 = ORIENTED_EDGE ( 'NONE', *, *, #121, .F. ) ;
#416 =( NAMED_UNIT ( * ) PLANE_ANGLE_UNIT ( ) SI_UNIT ( $, .RADIAN. ) );
#417 = EDGE_CURVE ( 'NONE', #980, #94, #374, .T. ) ;
#418 = CIRCLE ( 'NONE', #842, 1.749999999999999778 ) ;
#419 = CARTESIAN_POINT ( 'NONE',  ( -10.15518030676006589, -3.060006690063416190, 3.000000000000000000 ) ) ;
#420 = DIRECTION ( 'NONE',  ( 0.000000000000000000, 0.000000000000000000, 1.000000000000000000 ) ) ;
#421 = ORIENTED_EDGE ( 'NONE', *, *, #299, .F. ) ;
#422 = AXIS2_PLACEMENT_3D ( 'NONE', #300, #463, #308 ) ;
#423 = AXIS2_PLACEMENT_3D ( 'NONE', #947, #290, #741 ) ;
#424 = FACE_BOUND ( 'NONE', #98, .T. ) ;
#425 = DIRECTION ( 'NONE',  ( 1.000000000000000000, 0.000000000000000000, 0.000000000000000000 ) ) ;
#426 = ADVANCED_FACE ( 'NONE', ( #92 ), #111, .F. ) ;
#427 = ORIENTED_EDGE ( 'NONE', *, *, #557, .T. ) ;
#428 = CARTESIAN_POINT ( 'NONE',  ( -20.00000000000000000, 0.000000000000000000, 3.000000000000000000 ) ) ;
#429 = DIRECTION ( 'NONE',  ( 0.2947306635662968466, 0.9555803660361437135, 0.000000000000000000 ) ) ;
#430 = ADVANCED_FACE ( 'NONE', ( #700 ), #932, .T. ) ;
#431 = ORIENTED_EDGE ( 'NONE', *, *, #225, .T. ) ;
#432 = EDGE_CURVE ( 'NONE', #362, #134, #767, .T. ) ;
#433 = DIRECTION ( 'NONE',  ( 1.000000000000000000, 0.000000000000000000, 0.000000000000000000 ) ) ;
#434 = CIRCLE ( 'NONE', #324, 1.750000000000424771 ) ;
#435 = DIRECTION ( 'NONE',  ( -1.000000000000000000, 0.000000000000000000, 0.000000000000000000 ) ) ;
#436 = ORIENTED_EDGE ( 'NONE', *, *, #192, .T. ) ;
#437 = ORIENTED_EDGE ( 'NONE', *, *, #717, .T. ) ;
#438 = CARTESIAN_POINT ( 'NONE',  ( 12.91771920469690826, 2.948733719519074814, 0.000000000000000000 ) ) ;
#439 = VECTOR ( 'NONE', #2, 1000.000000000000000 ) ;
#440 = LINE ( 'NONE', #645, #36 ) ;
#441 = ORIENTED_EDGE ( 'NONE', *, *, #601, .F. ) ;
#442 = STYLED_ITEM ( 'NONE', ( #43 ), #99 ) ;
#443 = EDGE_CURVE ( 'NONE', #237, #94, #805, .T. ) ;
#444 = CARTESIAN_POINT ( 'NONE',  ( 5.894613271325676251, 19.11160732072203672, 37.97323629180451121 ) ) ;
#445 = DIRECTION ( 'NONE',  ( 0.2947306635662974017, 0.9555803660361434915, 0.000000000000000000 ) ) ;
#446 = EDGE_LOOP ( 'NONE', ( #906, #153, #452, #228 ) ) ;
#447 = CARTESIAN_POINT ( 'NONE',  ( 0.000000000000000000, 0.000000000000000000, 1.000000000000000000 ) ) ;
#448 = CYLINDRICAL_SURFACE ( 'NONE', #811, 3.249999999999999556 ) ;
#449 = CIRCLE ( 'NONE', #527, 1.749999999999115152 ) ;
#450 = VERTEX_POINT ( 'NONE', #413 ) ;
#451 = VECTOR ( 'NONE', #336, 999.9999999999998863 ) ;
#452 = ORIENTED_EDGE ( 'NONE', *, *, #892, .F. ) ;
#453 = CARTESIAN_POINT ( 'NONE',  ( -12.60263368272508266, 10.07922334293220423, 4.500000000000000888 ) ) ;
#454 = CARTESIAN_POINT ( 'NONE',  ( 4.500000000000000000, 5.510910596163088569E-16, 1.000000000000000000 ) ) ;
#455 = VECTOR ( 'NONE', #172, 1000.000000000000000 ) ;
#456 = ORIENTED_EDGE ( 'NONE', *, *, #215, .F. ) ;
#457 = COLOUR_RGB ( '',1.000000000000000000, 0.5019607843137254832, 0.000000000000000000 ) ;
#458 = FACE_OUTER_BOUND ( 'NONE', #161, .T. ) ;
#459 = DIRECTION ( 'NONE',  ( -0.000000000000000000, -0.000000000000000000, -1.000000000000000000 ) ) ;
#460 = EDGE_LOOP ( 'NONE', ( #743, #58, #833, #142 ) ) ;
#461 = EDGE_CURVE ( 'NONE', #667, #388, #747, .T. ) ;
#462 = EDGE_LOOP ( 'NONE', ( #969, #355 ) ) ;
#463 = DIRECTION ( 'NONE',  ( -0.000000000000000000, -0.000000000000000000, -1.000000000000000000 ) ) ;
#464 = FACE_OUTER_BOUND ( 'NONE', #446, .T. ) ;
#465 = ORIENTED_EDGE ( 'NONE', *, *, #330, .T. ) ;
#466 = CIRCLE ( 'NONE', #715, 3.249999999999999556 ) ;
#467 = ORIENTED_EDGE ( 'NONE', *, *, #60, .F. ) ;
#468 = CARTESIAN_POINT ( 'NONE',  ( 12.91771920469545698, 2.948733719521193120, 6.500000000000000888 ) ) ;
#469 = CARTESIAN_POINT ( 'NONE',  ( 3.953905419499088136, 19.60527051416718436, 4.500000000000000888 ) ) ;
#470 = VERTEX_POINT ( 'NONE', #553 ) ;
#471 = ORIENTED_EDGE ( 'NONE', *, *, #601, .T. ) ;
#472 = CARTESIAN_POINT ( 'NONE',  ( 11.16771920469779289, 2.948733719519074814, 0.000000000000000000 ) ) ;
#473 = EDGE_CURVE ( 'NONE', #539, #528, #852, .T. ) ;
#474 = CARTESIAN_POINT ( 'NONE',  ( 4.500000000000000000, 5.510910596163088569E-16, 1.000000000000000000 ) ) ;
#475 = EDGE_CURVE ( 'NONE', #919, #843, #72, .T. ) ;
#476 = CARTESIAN_POINT ( 'NONE',  ( 14.66771920469602364, 2.948733719519074814, 3.000000000000000000 ) ) ;
#477 = DIRECTION ( 'NONE',  ( 1.000000000000000000, 0.000000000000000000, 0.000000000000000000 ) ) ;
#478 = CARTESIAN_POINT ( 'NONE',  ( -12.60263368272508266, 10.07922334293220423, 6.500000000000000888 ) ) ;
#479 = VERTEX_POINT ( 'NONE', #847 ) ;
#480 = CIRCLE ( 'NONE', #795, 3.249999999999999556 ) ;
#481 = DIRECTION ( 'NONE',  ( 0.6756973567928757918, -0.2084060508313382021, -0.7071067811865524577 ) ) ;
#482 = DIRECTION ( 'NONE',  ( -0.000000000000000000, -0.000000000000000000, -1.000000000000000000 ) ) ;
#483 = CARTESIAN_POINT ( 'NONE',  ( 9.012537912450042654, -9.712706130465551979, 0.000000000000000000 ) ) ;
#484 = ADVANCED_FACE ( 'NONE', ( #397 ), #258, .F. ) ;
#485 = VECTOR ( 'NONE', #943, 1000.000000000000000 ) ;
#486 = CARTESIAN_POINT ( 'NONE',  ( 12.91771920469545698, 2.948733719521193120, 3.000000000000000000 ) ) ;
#487 = CARTESIAN_POINT ( 'NONE',  ( -10.15518030676006589, -3.060006690063416190, 4.500000000000000888 ) ) ;
#488 = DIRECTION ( 'NONE',  ( -1.000000000000000000, 0.000000000000000000, 0.000000000000000000 ) ) ;
#489 = ORIENTED_EDGE ( 'NONE', *, *, #604, .F. ) ;
#490 = EDGE_CURVE ( 'NONE', #539, #723, #855, .T. ) ;
#491 = ADVANCED_FACE ( 'NONE', ( #704 ), #781, .F. ) ;
#492 = SURFACE_STYLE_USAGE ( .BOTH. , #124 ) ;
#493 = CARTESIAN_POINT ( 'NONE',  ( 9.667719204695456980, 2.948733719521193120, 6.500000000000000888 ) ) ;
#494 = CARTESIAN_POINT ( 'NONE',  ( -7.602633682725084441, 10.07922334293220423, 0.000000000000000000 ) ) ;
#495 = ORIENTED_EDGE ( 'NONE', *, *, #891, .F. ) ;
#496 = AXIS2_PLACEMENT_3D ( 'NONE', #556, #29, #785 ) ;
#497 = PLANE ( 'NONE',  #232 ) ;
#498 = DIRECTION ( 'NONE',  ( 1.000000000000000000, 0.000000000000000000, 0.000000000000000000 ) ) ;
#499 = VERTEX_POINT ( 'NONE', #254 ) ;
#500 = SURFACE_SIDE_STYLE ('',( #796 ) ) ;
#501 = AXIS2_PLACEMENT_3D ( 'NONE', #14, #482, #405 ) ;
#502 = AXIS2_PLACEMENT_3D ( 'NONE', #934, #89, #540 ) ;
#503 = LINE ( 'NONE', #864, #24 ) ;
#504 = EDGE_CURVE ( 'NONE', #274, #231, #846, .T. ) ;
#505 = DIRECTION ( 'NONE',  ( 0.000000000000000000, 0.000000000000000000, 1.000000000000000000 ) ) ;
#506 = VERTEX_POINT ( 'NONE', #858 ) ;
#507 = CARTESIAN_POINT ( 'NONE',  ( -6.102633682725084441, 10.07922334293220423, 6.500000000000000888 ) ) ;
#508 = DIRECTION ( 'NONE',  ( 0.000000000000000000, 0.000000000000000000, 1.000000000000000000 ) ) ;
#509 = ORIENTED_EDGE ( 'NONE', *, *, #531, .F. ) ;
#510 =( LENGTH_UNIT ( ) NAMED_UNIT ( * ) SI_UNIT ( .MILLI., .METRE. ) );
#511 = ORIENTED_EDGE ( 'NONE', *, *, #259, .F. ) ;
#512 = CARTESIAN_POINT ( 'NONE',  ( 5.894613271325935600, 19.11160732072287516, 6.500000000000000888 ) ) ;
#513 = CIRCLE ( 'NONE', #101, 3.249999999999999556 ) ;
#514 = DIRECTION ( 'NONE',  ( 1.000000000000000000, 0.000000000000000000, 0.000000000000000000 ) ) ;
#515 = VERTEX_POINT ( 'NONE', #333 ) ;
#516 = EDGE_CURVE ( 'NONE', #515, #362, #120, .T. ) ;
#517 = ORIENTED_EDGE ( 'NONE', *, *, #121, .T. ) ;
#518 = CYLINDRICAL_SURFACE ( 'NONE', #41, 4.500000000000000000 ) ;
#519 = AXIS2_PLACEMENT_3D ( 'NONE', #345, #868, #644 ) ;
#520 = CARTESIAN_POINT ( 'NONE',  ( -9.352633682725084441, 10.07922334293220423, 4.500000000000000888 ) ) ;
#521 = EDGE_LOOP ( 'NONE', ( #186, #437 ) ) ;
#522 = DIRECTION ( 'NONE',  ( 0.000000000000000000, 0.000000000000000000, -1.000000000000000000 ) ) ;
#523 = CARTESIAN_POINT ( 'NONE',  ( 9.012537912450019562, -9.712706130463864440, 3.000000000000000000 ) ) ;
#524 = VERTEX_POINT ( 'NONE', #577 ) ;
#525 = CARTESIAN_POINT ( 'NONE',  ( 0.000000000000000000, 0.000000000000000000, 1.000000000000000000 ) ) ;
#526 = FACE_BOUND ( 'NONE', #7, .T. ) ;
#527 = AXIS2_PLACEMENT_3D ( 'NONE', #738, #944, #273 ) ;
#528 = VERTEX_POINT ( 'NONE', #512 ) ;
#529 = CARTESIAN_POINT ( 'NONE',  ( -5.894613271326208270, -19.11160732072371005, 0.000000000000000000 ) ) ;
#530 = CARTESIAN_POINT ( 'NONE',  ( 12.26253791245001956, -9.712706130463864440, 6.500000000000000888 ) ) ;
#531 = EDGE_CURVE ( 'NONE', #128, #661, #877, .T. ) ;
#532 = EDGE_CURVE ( 'NONE', #683, #812, #276, .T. ) ;
#533 = EDGE_LOOP ( 'NONE', ( #619, #204 ) ) ;
#534 = MECHANICAL_DESIGN_GEOMETRIC_PRESENTATION_REPRESENTATION (  '', ( #442 ), #614 ) ;
#535 = ORIENTED_EDGE ( 'NONE', *, *, #475, .F. ) ;
#536 = PLANE ( 'NONE',  #860 ) ;
#537 = DIRECTION ( 'NONE',  ( -0.000000000000000000, -0.000000000000000000, -1.000000000000000000 ) ) ;
#538 = ORIENTED_EDGE ( 'NONE', *, *, #318, .F. ) ;
#539 = VERTEX_POINT ( 'NONE', #195 ) ;
#540 = DIRECTION ( 'NONE',  ( 1.000000000000000000, 0.000000000000000000, -0.000000000000000000 ) ) ;
#541 = CARTESIAN_POINT ( 'NONE',  ( -7.160729619207125474, -18.68609799654884185, 5.164713431379907682 ) ) ;
#542 = ORIENTED_EDGE ( 'NONE', *, *, #905, .T. ) ;
#543 = AXIS2_PLACEMENT_3D ( 'NONE', #337, #936, #264 ) ;
#544 = EDGE_CURVE ( 'NONE', #723, #210, #582, .T. ) ;
#545 = ORIENTED_EDGE ( 'NONE', *, *, #759, .T. ) ;
#546 = FILL_AREA_STYLE_COLOUR ( '', #457 ) ;
#547 = CARTESIAN_POINT ( 'NONE',  ( 5.894613271325676251, 19.11160732072203672, 6.499999999999999112 ) ) ;
#548 = PLANE ( 'NONE',  #247 ) ;
#549 = CIRCLE ( 'NONE', #800, 1.749999999999999778 ) ;
#550 = CIRCLE ( 'NONE', #631, 3.249999999999999556 ) ;
#551 = VERTEX_POINT ( 'NONE', #725 ) ;
#552 = PLANE ( 'NONE',  #408 ) ;
#553 = CARTESIAN_POINT ( 'NONE',  ( -11.10263368272508444, 10.07922334293220423, 0.000000000000000000 ) ) ;
#554 = DIRECTION ( 'NONE',  ( 0.000000000000000000, 0.000000000000000000, 1.000000000000000000 ) ) ;
#555 = DIRECTION ( 'NONE',  ( 0.000000000000000000, 0.000000000000000000, 1.000000000000000000 ) ) ;
#556 = CARTESIAN_POINT ( 'NONE',  ( 0.000000000000000000, 0.000000000000000000, 4.500000000000000888 ) ) ;
#557 = EDGE_CURVE ( 'NONE', #740, #551, #656, .T. ) ;
#558 = LINE ( 'NONE', #267, #262 ) ;
#559 = AXIS2_PLACEMENT_3D ( 'NONE', #568, #35, #189 ) ;
#560 = CARTESIAN_POINT ( 'NONE',  ( 5.256226211973499041, 19.30850571702998408, 5.831937865152522882 ) ) ;
#561 = DIRECTION ( 'NONE',  ( 1.000000000000000000, 0.000000000000000000, 0.000000000000000000 ) ) ;
#562 = EDGE_CURVE ( 'NONE', #815, #210, #503, .T. ) ;
#563 = LINE ( 'NONE', #859, #921 ) ;
#564 = ADVANCED_FACE ( 'NONE', ( #39 ), #188, .F. ) ;
#565 = CIRCLE ( 'NONE', #138, 3.249999999999999556 ) ;
#566 = FILL_AREA_STYLE ('',( #788 ) ) ;
#567 = CARTESIAN_POINT ( 'NONE',  ( -13.40518030676006411, -3.060006690063416634, 3.000000000000000000 ) ) ;
#568 = CARTESIAN_POINT ( 'NONE',  ( -13.40518030676006411, -3.060006690063416634, 4.500000000000000888 ) ) ;
#569 = ORIENTED_EDGE ( 'NONE', *, *, #310, .T. ) ;
#570 = FACE_BOUND ( 'NONE', #829, .T. ) ;
#571 = CARTESIAN_POINT ( 'NONE',  ( -11.65518030676006411, -3.060006690063416634, 0.000000000000000000 ) ) ;
#572 = ORIENTED_EDGE ( 'NONE', *, *, #679, .F. ) ;
#573 = CARTESIAN_POINT ( 'NONE',  ( -13.40518030676006411, -3.060006690063416634, 0.000000000000000000 ) ) ;
#574 = EDGE_CURVE ( 'NONE', #980, #169, #880, .T. ) ;
#575 = AXIS2_PLACEMENT_3D ( 'NONE', #291, #136, #435 ) ;
#576 = AXIS2_PLACEMENT_3D ( 'NONE', #935, #638, #628 ) ;
#577 = CARTESIAN_POINT ( 'NONE',  ( 10.76253791245046720, -9.712706130465551979, 3.000000000000000000 ) ) ;
#578 = CARTESIAN_POINT ( 'NONE',  ( 13.21699404939666955, -25.00622059204965808, 0.000000000000000000 ) ) ;
#579 = ORIENTED_EDGE ( 'NONE', *, *, #193, .F. ) ;
#580 = VECTOR ( 'NONE', #135, 1000.000000000000000 ) ;
#581 = AXIS2_PLACEMENT_3D ( 'NONE', #573, #31, #187 ) ;
#582 = LINE ( 'NONE', #125, #56 ) ;
#583 = DIRECTION ( 'NONE',  ( 1.000000000000000000, 0.000000000000000000, 0.000000000000000000 ) ) ;
#584 = EDGE_LOOP ( 'NONE', ( #456, #199, #736, #693, #495 ) ) ;
#585 = CARTESIAN_POINT ( 'NONE',  ( 0.000000000000000000, 0.000000000000000000, 6.500000000000000888 ) ) ;
#586 = CARTESIAN_POINT ( 'NONE',  ( -20.00000000000000000, 0.000000000000000000, 0.000000000000000000 ) ) ;
#587 = ORIENTED_EDGE ( 'NONE', *, *, #574, .T. ) ;
#588 = DIRECTION ( 'NONE',  ( 1.000000000000000000, 0.000000000000000000, 0.000000000000000000 ) ) ;
#589 = AXIS2_PLACEMENT_3D ( 'NONE', #108, #697, #328 ) ;
#590 = CYLINDRICAL_SURFACE ( 'NONE', #339, 1.750000000000424771 ) ;
#591 = EDGE_CURVE ( 'NONE', #388, #279, #801, .T. ) ;
#592 = ORIENTED_EDGE ( 'NONE', *, *, #823, .T. ) ;
#593 = FACE_BOUND ( 'NONE', #804, .T. ) ;
#594 = AXIS2_PLACEMENT_3D ( 'NONE', #674, #609, #908 ) ;
#595 = LINE ( 'NONE', #828, #702 ) ;
#596 = ORIENTED_EDGE ( 'NONE', *, *, #633, .T. ) ;
#597 = ORIENTED_EDGE ( 'NONE', *, *, #664, .T. ) ;
#598 = CARTESIAN_POINT ( 'NONE',  ( 16.16771920469545520, 2.948733719521193564, 3.000000000000000000 ) ) ;
#599 = PLANE ( 'NONE',  #244 ) ;
#600 = ORIENTED_EDGE ( 'NONE', *, *, #664, .F. ) ;
#601 = EDGE_CURVE ( 'NONE', #367, #134, #9, .T. ) ;
#602 = ORIENTED_EDGE ( 'NONE', *, *, #648, .F. ) ;
#603 = CYLINDRICAL_SURFACE ( 'NONE', #378, 1.749999999999999778 ) ;
#604 = EDGE_CURVE ( 'NONE', #42, #18, #831, .T. ) ;
#605 = AXIS2_PLACEMENT_3D ( 'NONE', #112, #786, #103 ) ;
#606 = DIRECTION ( 'NONE',  ( 0.000000000000000000, 0.000000000000000000, 1.000000000000000000 ) ) ;
#607 = VECTOR ( 'NONE', #807, 1000.000000000000000 ) ;
#608 = ORIENTED_EDGE ( 'NONE', *, *, #208, .T. ) ;
#609 = DIRECTION ( 'NONE',  ( 0.000000000000000000, 0.000000000000000000, 1.000000000000000000 ) ) ;
#610 = DIRECTION ( 'NONE',  ( 0.000000000000000000, 0.000000000000000000, 1.000000000000000000 ) ) ;
#611 = AXIS2_PLACEMENT_3D ( 'NONE', #211, #730, #53 ) ;
#612 = ORIENTED_EDGE ( 'NONE', *, *, #953, .F. ) ;
#613 = AXIS2_PLACEMENT_3D ( 'NONE', #95, #555, #321 ) ;
#614 =( GEOMETRIC_REPRESENTATION_CONTEXT ( 3 ) GLOBAL_UNCERTAINTY_ASSIGNED_CONTEXT ( ( #956 ) ) GLOBAL_UNIT_ASSIGNED_CONTEXT ( ( #275, #416, #728 ) ) REPRESENTATION_CONTEXT ( 'NONE', 'WORKASPACE' ) );
#615 = ORIENTED_EDGE ( 'NONE', *, *, #432, .T. ) ;
#616 = DIRECTION ( 'NONE',  ( 0.000000000000000000, 0.000000000000000000, 1.000000000000000000 ) ) ;
#617 = DIRECTION ( 'NONE',  ( -0.9555803660361434915, 0.2947306635662974017, 0.000000000000000000 ) ) ;
#618 = ADVANCED_FACE ( 'NONE', ( #272, #424, #570 ), #497, .T. ) ;
#619 = ORIENTED_EDGE ( 'NONE', *, *, #15, .T. ) ;
#620 = VERTEX_POINT ( 'NONE', #358 ) ;
#621 = DIRECTION ( 'NONE',  ( 1.000000000000000000, 0.000000000000000000, 0.000000000000000000 ) ) ;
#622 = DIRECTION ( 'NONE',  ( -1.000000000000000000, 0.000000000000000000, 0.000000000000000000 ) ) ;
#623 = CYLINDRICAL_SURFACE ( 'NONE', #277, 1.750000000000424771 ) ;
#624 = CIRCLE ( 'NONE', #85, 1.749999999999999778 ) ;
#625 = AXIS2_PLACEMENT_3D ( 'NONE', #696, #775, #622 ) ;
#626 = VERTEX_POINT ( 'NONE', #493 ) ;
#627 = DIRECTION ( 'NONE',  ( -0.000000000000000000, -0.000000000000000000, 1.000000000000000000 ) ) ;
#628 = DIRECTION ( 'NONE',  ( 1.000000000000000000, 0.000000000000000000, 0.000000000000000000 ) ) ;
#629 = FACE_OUTER_BOUND ( 'NONE', #793, .T. ) ;
#630 = AXIS2_PLACEMENT_3D ( 'NONE', #174, #25, #561 ) ;
#631 = AXIS2_PLACEMENT_3D ( 'NONE', #695, #616, #621 ) ;
#632 = DIRECTION ( 'NONE',  ( 0.000000000000000000, 0.000000000000000000, 1.000000000000000000 ) ) ;
#633 = EDGE_CURVE ( 'NONE', #221, #450, #49, .T. ) ;
#634 =( BOUNDED_CURVE ( )  B_SPLINE_CURVE ( 3, ( #181, #246, #560, #19 ),
 .UNSPECIFIED., .F., .T. ) 
 B_SPLINE_CURVE_WITH_KNOTS ( ( 4, 4 ),
 ( 1.470628905633337924, 1.570796326794896558 ),
 .UNSPECIFIED. ) 
 CURVE ( )  GEOMETRIC_REPRESENTATION_ITEM ( )  RATIONAL_B_SPLINE_CURVE ( ( 1.000000000000000000, 0.9991640487402216886, 0.9991640487402216886, 1.000000000000000000 ) ) 
 REPRESENTATION_ITEM ( '' )  );
#635 = CARTESIAN_POINT ( 'NONE',  ( 12.91771920469690826, 2.948733719519074814, 0.000000000000000000 ) ) ;
#636 = DIRECTION ( 'NONE',  ( -1.000000000000000000, 0.000000000000000000, -0.000000000000000000 ) ) ;
#637 = FACE_OUTER_BOUND ( 'NONE', #897, .T. ) ;
#638 = DIRECTION ( 'NONE',  ( -0.000000000000000000, -0.000000000000000000, 1.000000000000000000 ) ) ;
#639 = ORIENTED_EDGE ( 'NONE', *, *, #268, .T. ) ;
#640 = DIRECTION ( 'NONE',  ( 0.000000000000000000, 0.000000000000000000, 1.000000000000000000 ) ) ;
#641 = FACE_OUTER_BOUND ( 'NONE', #915, .T. ) ;
#642 = ORIENTED_EDGE ( 'NONE', *, *, #208, .F. ) ;
#643 = FACE_OUTER_BOUND ( 'NONE', #684, .T. ) ;
#644 = DIRECTION ( 'NONE',  ( -1.000000000000000000, 0.000000000000000000, 0.000000000000000000 ) ) ;
#645 = CARTESIAN_POINT ( 'NONE',  ( -11.10263368272508444, 10.07922334293220423, 0.000000000000000000 ) ) ;
#646 = EDGE_CURVE ( 'NONE', #551, #740, #783, .T. ) ;
#647 = ORIENTED_EDGE ( 'NONE', *, *, #679, .T. ) ;
#648 = EDGE_CURVE ( 'NONE', #157, #838, #734, .T. ) ;
#649 = CARTESIAN_POINT ( 'NONE',  ( 10.76253791245046720, -9.712706130465551979, 0.000000000000000000 ) ) ;
#650 = PLANE ( 'NONE',  #652 ) ;
#651 = ORIENTED_EDGE ( 'NONE', *, *, #238, .T. ) ;
#652 = AXIS2_PLACEMENT_3D ( 'NONE', #349, #45, #429 ) ;
#653 = DIRECTION ( 'NONE',  ( 0.000000000000000000, 0.000000000000000000, 1.000000000000000000 ) ) ;
#654 = LINE ( 'NONE', #722, #729 ) ;
#655 = ORIENTED_EDGE ( 'NONE', *, *, #243, .T. ) ;
#656 = CIRCLE ( 'NONE', #329, 1.749999999999115152 ) ;
#657 = CIRCLE ( 'NONE', #613, 20.00000000000000000 ) ;
#658 = DIRECTION ( 'NONE',  ( -0.000000000000000000, -0.000000000000000000, -1.000000000000000000 ) ) ;
#659 = ADVANCED_FACE ( 'NONE', ( #348, #954, #791 ), #114, .T. ) ;
#660 = CYLINDRICAL_SURFACE ( 'NONE', #116, 1.749999999999115152 ) ;
#661 = VERTEX_POINT ( 'NONE', #419 ) ;
#662 = VERTEX_POINT ( 'NONE', #649 ) ;
#663 = DIRECTION ( 'NONE',  ( -1.000000000000000000, 0.000000000000000000, 0.000000000000000000 ) ) ;
#664 = EDGE_CURVE ( 'NONE', #499, #279, #909, .T. ) ;
#665 = CARTESIAN_POINT ( 'NONE',  ( 9.012537912450042654, -9.712706130465551979, 0.000000000000000000 ) ) ;
#666 = ORIENTED_EDGE ( 'NONE', *, *, #350, .F. ) ;
#667 = VERTEX_POINT ( 'NONE', #453 ) ;
#668 = DIRECTION ( 'NONE',  ( 0.000000000000000000, 0.000000000000000000, 1.000000000000000000 ) ) ;
#669 = AXIS2_PLACEMENT_3D ( 'NONE', #122, #508, #792 ) ;
#670 = LINE ( 'NONE', #478, #293 ) ;
#671 = UNCERTAINTY_MEASURE_WITH_UNIT (LENGTH_MEASURE( 1.000000000000000082E-05 ), #510, 'distance_accuracy_value', 'NONE');
#672 = ORIENTED_EDGE ( 'NONE', *, *, #417, .T. ) ;
#673 = ORIENTED_EDGE ( 'NONE', *, *, #461, .T. ) ;
#674 = CARTESIAN_POINT ( 'NONE',  ( -13.40518030676006411, -3.060006690063416634, 3.000000000000000000 ) ) ;
#675 = VECTOR ( 'NONE', #522, 1000.000000000000000 ) ;
#676 = MECHANICAL_DESIGN_GEOMETRIC_PRESENTATION_REPRESENTATION (  '', ( #26 ), #332 ) ;
#677 = DIRECTION ( 'NONE',  ( -0.000000000000000000, -0.000000000000000000, -1.000000000000000000 ) ) ;
#678 = ORIENTED_EDGE ( 'NONE', *, *, #779, .F. ) ;
#679 = EDGE_CURVE ( 'NONE', #620, #524, #250, .T. ) ;
#680 = ORIENTED_EDGE ( 'NONE', *, *, #735, .T. ) ;
#681 = CARTESIAN_POINT ( 'NONE',  ( -13.40518030676006411, -3.060006690063416634, 4.500000000000000888 ) ) ;
#682 = FACE_OUTER_BOUND ( 'NONE', #158, .T. ) ;
#683 = VERTEX_POINT ( 'NONE', #822 ) ;
#684 = EDGE_LOOP ( 'NONE', ( #132, #918, #87, #242 ) ) ;
#685 = DIRECTION ( 'NONE',  ( 1.000000000000000000, 0.000000000000000000, -0.000000000000000000 ) ) ;
#686 = DIRECTION ( 'NONE',  ( 0.000000000000000000, 0.000000000000000000, 1.000000000000000000 ) ) ;
#687 = CIRCLE ( 'NONE', #778, 1.750000000000424771 ) ;
#688 = ORIENTED_EDGE ( 'NONE', *, *, #71, .T. ) ;
#689 = ORIENTED_EDGE ( 'NONE', *, *, #913, .T. ) ;
#690 = CARTESIAN_POINT ( 'NONE',  ( -1.911160732072307633, 0.5894613271326005766, 4.500000000000000888 ) ) ;
#691 = CARTESIAN_POINT ( 'NONE',  ( -15.15518030676006411, -3.060006690063416634, 0.000000000000000000 ) ) ;
#692 = ADVANCED_FACE ( 'NONE', ( #155, #593, #745, #235, #895, #64 ), #536, .F. ) ;
#693 = ORIENTED_EDGE ( 'NONE', *, *, #562, .F. ) ;
#694 = ORIENTED_EDGE ( 'NONE', *, *, #432, .F. ) ;
#695 = CARTESIAN_POINT ( 'NONE',  ( 12.91771920469545698, 2.948733719521193120, 6.500000000000000888 ) ) ;
#696 = CARTESIAN_POINT ( 'NONE',  ( 0.000000000000000000, 0.000000000000000000, 3.000000000000000000 ) ) ;
#697 = DIRECTION ( 'NONE',  ( 0.000000000000000000, 0.000000000000000000, 1.000000000000000000 ) ) ;
#698 = ORIENTED_EDGE ( 'NONE', *, *, #215, .T. ) ;
#699 = DIRECTION ( 'NONE',  ( 1.000000000000000000, 0.000000000000000000, 0.000000000000000000 ) ) ;
#700 = FACE_OUTER_BOUND ( 'NONE', #63, .T. ) ;
#701 = DIRECTION ( 'NONE',  ( 1.000000000000000000, 0.000000000000000000, -0.000000000000000000 ) ) ;
#702 = VECTOR ( 'NONE', #824, 999.9999999999998863 ) ;
#703 = LINE ( 'NONE', #177, #975 ) ;
#704 = FACE_OUTER_BOUND ( 'NONE', #148, .T. ) ;
#705 = CARTESIAN_POINT ( 'NONE',  ( 0.000000000000000000, 0.000000000000000000, 1.000000000000000000 ) ) ;
#706 = CIRCLE ( 'NONE', #313, 1.750000000000424771 ) ;
#707 = EDGE_CURVE ( 'NONE', #515, #367, #68, .T. ) ;
#708 = DIRECTION ( 'NONE',  ( 0.000000000000000000, 0.000000000000000000, 1.000000000000000000 ) ) ;
#709 = DIRECTION ( 'NONE',  ( 0.000000000000000000, 0.000000000000000000, -1.000000000000000000 ) ) ;
#710 = DIRECTION ( 'NONE',  ( -0.000000000000000000, -0.000000000000000000, -1.000000000000000000 ) ) ;
#711 = DIRECTION ( 'NONE',  ( 0.000000000000000000, 0.000000000000000000, 1.000000000000000000 ) ) ;
#712 = CYLINDRICAL_SURFACE ( 'NONE', #576, 1.749999999999999778 ) ;
#713 = CARTESIAN_POINT ( 'NONE',  ( -13.40518030676006411, -3.060006690063416634, 6.500000000000000888 ) ) ;
#714 = ORIENTED_EDGE ( 'NONE', *, *, #862, .T. ) ;
#715 = AXIS2_PLACEMENT_3D ( 'NONE', #520, #818, #141 ) ;
#716 = DIRECTION ( 'NONE',  ( 0.9555803660361434915, -0.2947306635662974017, 0.000000000000000000 ) ) ;
#717 = EDGE_CURVE ( 'NONE', #812, #37, #565, .T. ) ;
#718 = DIRECTION ( 'NONE',  ( 0.000000000000000000, 0.000000000000000000, 1.000000000000000000 ) ) ;
#719 = ORIENTED_EDGE ( 'NONE', *, *, #881, .F. ) ;
#720 = VECTOR ( 'NONE', #144, 1000.000000000000000 ) ;
#721 = CARTESIAN_POINT ( 'NONE',  ( 5.894613271325676251, 19.11160732072203672, 0.000000000000000000 ) ) ;
#722 = CARTESIAN_POINT ( 'NONE',  ( 5.894613271325935600, 19.11160732072287516, 6.500000000000000888 ) ) ;
#723 = VERTEX_POINT ( 'NONE', #888 ) ;
#724 = DIRECTION ( 'NONE',  ( 0.000000000000000000, 0.000000000000000000, 1.000000000000000000 ) ) ;
#725 = CARTESIAN_POINT ( 'NONE',  ( 11.16771920469779289, 2.948733719519074814, 0.000000000000000000 ) ) ;
#726 = CYLINDRICAL_SURFACE ( 'NONE', #575, 20.00000000000000000 ) ;
#727 = EDGE_LOOP ( 'NONE', ( #319, #615, #251, #289 ) ) ;
#728 =( NAMED_UNIT ( * ) SI_UNIT ( $, .STERADIAN. ) SOLID_ANGLE_UNIT ( ) );
#729 = VECTOR ( 'NONE', #40, 999.9999999999998863 ) ;
#730 = DIRECTION ( 'NONE',  ( 0.000000000000000000, 0.000000000000000000, 1.000000000000000000 ) ) ;
#731 = CARTESIAN_POINT ( 'NONE',  ( 0.000000000000000000, 0.000000000000000000, 0.000000000000000000 ) ) ;
#732 = ORIENTED_EDGE ( 'NONE', *, *, #443, .T. ) ;
#733 = ADVANCED_FACE ( 'NONE', ( #458 ), #303, .F. ) ;
#734 = CIRCLE ( 'NONE', #768, 1.749999999999999778 ) ;
#735 = EDGE_CURVE ( 'NONE', #661, #128, #220, .T. ) ;
#736 = ORIENTED_EDGE ( 'NONE', *, *, #953, .T. ) ;
#737 = CARTESIAN_POINT ( 'NONE',  ( 16.16771920469545520, 2.948733719521193564, 6.500000000000000888 ) ) ;
#738 = CARTESIAN_POINT ( 'NONE',  ( 12.91771920469690826, 2.948733719519074814, 3.000000000000000000 ) ) ;
#739 = AXIS2_PLACEMENT_3D ( 'NONE', #411, #711, #810 ) ;
#740 = VERTEX_POINT ( 'NONE', #751 ) ;
#741 = DIRECTION ( 'NONE',  ( 1.000000000000000000, 0.000000000000000000, 0.000000000000000000 ) ) ;
#742 = DIRECTION ( 'NONE',  ( 0.000000000000000000, 0.000000000000000000, 1.000000000000000000 ) ) ;
#743 = ORIENTED_EDGE ( 'NONE', *, *, #851, .F. ) ;
#744 = ORIENTED_EDGE ( 'NONE', *, *, #17, .T. ) ;
#745 = FACE_BOUND ( 'NONE', #964, .T. ) ;
#746 = AXIS2_PLACEMENT_3D ( 'NONE', #160, #973, #5 ) ;
#747 = CIRCLE ( 'NONE', #871, 3.249999999999999556 ) ;
#748 = LINE ( 'NONE', #377, #166 ) ;
#749 = EDGE_LOOP ( 'NONE', ( #239, #758, #294, #164 ) ) ;
#750 = ORIENTED_EDGE ( 'NONE', *, *, #473, .T. ) ;
#751 = CARTESIAN_POINT ( 'NONE',  ( 14.66771920469602364, 2.948733719519074814, 0.000000000000000000 ) ) ;
#752 = VECTOR ( 'NONE', #658, 1000.000000000000000 ) ;
#753 = PRESENTATION_LAYER_ASSIGNMENT (  '', '', ( #26 ) ) ;
#754 = FACE_BOUND ( 'NONE', #373, .T. ) ;
#755 = ORIENTED_EDGE ( 'NONE', *, *, #952, .F. ) ;
#756 = DIRECTION ( 'NONE',  ( 0.000000000000000000, 0.000000000000000000, 1.000000000000000000 ) ) ;
#757 = PLANE ( 'NONE',  #746 ) ;
#758 = ORIENTED_EDGE ( 'NONE', *, *, #912, .T. ) ;
#759 = EDGE_CURVE ( 'NONE', #479, #395, #265, .T. ) ;
#760 = ORIENTED_EDGE ( 'NONE', *, *, #238, .F. ) ;
#761 = CARTESIAN_POINT ( 'NONE',  ( 0.000000000000000000, 0.000000000000000000, 0.000000000000000000 ) ) ;
#762 = LINE ( 'NONE', #530, #214 ) ;
#763 = AXIS2_PLACEMENT_3D ( 'NONE', #705, #334, #636 ) ;
#764 = ORIENTED_EDGE ( 'NONE', *, *, #17, .F. ) ;
#765 = EDGE_LOOP ( 'NONE', ( #209, #680 ) ) ;
#766 = DIRECTION ( 'NONE',  ( 0.000000000000000000, 0.000000000000000000, 1.000000000000000000 ) ) ;
#767 = LINE ( 'NONE', #474, #198 ) ;
#768 = AXIS2_PLACEMENT_3D ( 'NONE', #567, #884, #44 ) ;
#769 = ORIENTED_EDGE ( 'NONE', *, *, #151, .T. ) ;
#770 = ORIENTED_EDGE ( 'NONE', *, *, #356, .F. ) ;
#771 = CARTESIAN_POINT ( 'NONE',  ( 9.012537912450042654, -9.712706130465551979, 0.000000000000000000 ) ) ;
#772 = CARTESIAN_POINT ( 'NONE',  ( -9.352633682725084441, 10.07922334293220423, 6.500000000000000888 ) ) ;
#773 = DIRECTION ( 'NONE',  ( -0.000000000000000000, -0.000000000000000000, -1.000000000000000000 ) ) ;
#774 = LINE ( 'NONE', #857, #927 ) ;
#775 = DIRECTION ( 'NONE',  ( -0.000000000000000000, -0.000000000000000000, -1.000000000000000000 ) ) ;
#776 = EDGE_CURVE ( 'NONE', #237, #815, #217, .T. ) ;
#777 = ORIENTED_EDGE ( 'NONE', *, *, #270, .F. ) ;
#778 = AXIS2_PLACEMENT_3D ( 'NONE', #283, #718, #498 ) ;
#779 = EDGE_CURVE ( 'NONE', #134, #367, #171, .T. ) ;
#780 = CARTESIAN_POINT ( 'NONE',  ( -15.15518030676006411, -3.060006690063416634, 3.000000000000000000 ) ) ;
#781 = CYLINDRICAL_SURFACE ( 'NONE', #105, 3.249999999999999556 ) ;
#782 = CARTESIAN_POINT ( 'NONE',  ( -9.352633682725084441, 10.07922334293220423, 0.000000000000000000 ) ) ;
#783 = CIRCLE ( 'NONE', #359, 1.749999999999115152 ) ;
#784 = LINE ( 'NONE', #931, #910 ) ;
#785 = DIRECTION ( 'NONE',  ( 1.000000000000000000, 0.000000000000000000, 0.000000000000000000 ) ) ;
#786 = DIRECTION ( 'NONE',  ( 0.000000000000000000, 0.000000000000000000, 1.000000000000000000 ) ) ;
#787 = EDGE_LOOP ( 'NONE', ( #694, #410, #950, #471 ) ) ;
#788 = FILL_AREA_STYLE_COLOUR ( '', #361 ) ;
#789 = ADVANCED_FACE ( 'NONE', ( #149 ), #518, .F. ) ;
#790 = ADVANCED_FACE ( 'NONE', ( #140 ), #826, .F. ) ;
#791 = FACE_OUTER_BOUND ( 'NONE', #12, .T. ) ;
#792 = DIRECTION ( 'NONE',  ( 1.000000000000000000, 0.000000000000000000, 0.000000000000000000 ) ) ;
#793 = EDGE_LOOP ( 'NONE', ( #394, #375 ) ) ;
#794 = CIRCLE ( 'NONE', #3, 3.249999999999999556 ) ;
#795 = AXIS2_PLACEMENT_3D ( 'NONE', #50, #354, #583 ) ;
#796 = SURFACE_STYLE_FILL_AREA ( #566 ) ;
#797 = DIRECTION ( 'NONE',  ( 0.000000000000000000, 0.000000000000000000, 1.000000000000000000 ) ) ;
#798 = FACE_OUTER_BOUND ( 'NONE', #886, .T. ) ;
#799 = ORIENTED_EDGE ( 'NONE', *, *, #259, .T. ) ;
#800 = AXIS2_PLACEMENT_3D ( 'NONE', #400, #708, #407 ) ;
#801 = LINE ( 'NONE', #507, #485 ) ;
#802 = FACE_OUTER_BOUND ( 'NONE', #749, .T. ) ;
#803 = EDGE_CURVE ( 'NONE', #231, #157, #972, .T. ) ;
#804 = EDGE_LOOP ( 'NONE', ( #714, #1 ) ) ;
#805 =( BOUNDED_CURVE ( )  B_SPLINE_CURVE ( 3, ( #928, #21, #541, #178 ),
 .UNSPECIFIED., .F., .T. ) 
 B_SPLINE_CURVE_WITH_KNOTS ( ( 4, 4 ),
 ( 4.712388980384689674, 4.812556401546248530 ),
 .UNSPECIFIED. ) 
 CURVE ( )  GEOMETRIC_REPRESENTATION_ITEM ( )  RATIONAL_B_SPLINE_CURVE ( ( 1.000000000000000000, 0.9991640487402216886, 0.9991640487402216886, 1.000000000000000000 ) ) 
 REPRESENTATION_ITEM ( '' )  );
#806 = DIRECTION ( 'NONE',  ( 1.000000000000000000, 0.000000000000000000, 0.000000000000000000 ) ) ;
#807 = DIRECTION ( 'NONE',  ( -0.000000000000000000, -0.000000000000000000, 1.000000000000000000 ) ) ;
#808 = ORIENTED_EDGE ( 'NONE', *, *, #557, .F. ) ;
#809 = EDGE_CURVE ( 'NONE', #362, #515, #298, .T. ) ;
#810 = DIRECTION ( 'NONE',  ( 1.000000000000000000, 0.000000000000000000, 0.000000000000000000 ) ) ;
#811 = AXIS2_PLACEMENT_3D ( 'NONE', #296, #537, #86 ) ;
#812 = VERTEX_POINT ( 'NONE', #598 ) ;
#813 = DIRECTION ( 'NONE',  ( 0.000000000000000000, 0.000000000000000000, 1.000000000000000000 ) ) ;
#814 = DIRECTION ( 'NONE',  ( -0.000000000000000000, -0.000000000000000000, 1.000000000000000000 ) ) ;
#815 = VERTEX_POINT ( 'NONE', #529 ) ;
#816 = AXIS2_PLACEMENT_3D ( 'NONE', #681, #756, #222 ) ;
#817 = CARTESIAN_POINT ( 'NONE',  ( -4.500000000000000000, 0.000000000000000000, 1.000000000000000000 ) ) ;
#818 = DIRECTION ( 'NONE',  ( 0.000000000000000000, 0.000000000000000000, 1.000000000000000000 ) ) ;
#819 = EDGE_LOOP ( 'NONE', ( #284, #467 ) ) ;
#820 = ADVANCED_FACE ( 'NONE', ( #981 ), #603, .F. ) ;
#821 = ORIENTED_EDGE ( 'NONE', *, *, #891, .T. ) ;
#822 = CARTESIAN_POINT ( 'NONE',  ( 16.16771920469545520, 2.948733719521193564, 6.500000000000000888 ) ) ;
#823 = EDGE_CURVE ( 'NONE', #75, #870, #549, .T. ) ;
#824 = DIRECTION ( 'NONE',  ( 0.2947306635662971241, 0.9555803660361437135, 0.000000000000000000 ) ) ;
#825 = ORIENTED_EDGE ( 'NONE', *, *, #417, .F. ) ;
#826 = PLANE ( 'NONE',  #893 ) ;
#827 = VECTOR ( 'NONE', #398, 1000.000000000000000 ) ;
#828 = CARTESIAN_POINT ( 'NONE',  ( -1.911160732072309409, 0.5894613271326010207, 4.500000000000000888 ) ) ;
#829 = EDGE_LOOP ( 'NONE', ( #755, #6 ) ) ;
#830 = DIRECTION ( 'NONE',  ( -1.000000000000000000, 0.000000000000000000, 0.000000000000000000 ) ) ;
#831 = CIRCLE ( 'NONE', #958, 1.749999999999115152 ) ;
#832 = DIRECTION ( 'NONE',  ( 1.000000000000000000, 0.000000000000000000, -0.000000000000000000 ) ) ;
#833 = ORIENTED_EDGE ( 'NONE', *, *, #562, .T. ) ;
#834 = EDGE_CURVE ( 'NONE', #62, #870, #774, .T. ) ;
#835 = ORIENTED_EDGE ( 'NONE', *, *, #591, .F. ) ;
#836 = CARTESIAN_POINT ( 'NONE',  ( -5.894613271326208270, -19.11160732072371005, 37.97323629180451121 ) ) ;
#837 = CARTESIAN_POINT ( 'NONE',  ( 12.91771920469545698, 2.948733719521193120, 6.500000000000000888 ) ) ;
#838 = VERTEX_POINT ( 'NONE', #780 ) ;
#839 = ADVANCED_FACE ( 'NONE', ( #926 ), #100, .F. ) ;
#840 = ORIENTED_EDGE ( 'NONE', *, *, #532, .F. ) ;
#841 = CARTESIAN_POINT ( 'NONE',  ( 19.11160732072287516, -5.894613271325937376, 0.000000000000000000 ) ) ;
#842 = AXIS2_PLACEMENT_3D ( 'NONE', #782, #554, #173 ) ;
#843 = VERTEX_POINT ( 'NONE', #920 ) ;
#844 = EDGE_LOOP ( 'NONE', ( #770, #143, #799, #777 ) ) ;
#845 = DIRECTION ( 'NONE',  ( 0.000000000000000000, 0.000000000000000000, 1.000000000000000000 ) ) ;
#846 = CIRCLE ( 'NONE', #630, 1.749999999999999778 ) ;
#847 = CARTESIAN_POINT ( 'NONE',  ( -16.65518030676006234, -3.060006690063416634, 4.500000000000000888 ) ) ;
#848 = AXIS2_PLACEMENT_3D ( 'NONE', #447, #376, #977 ) ;
#849 = CARTESIAN_POINT ( 'NONE',  ( 0.000000000000000000, 0.000000000000000000, 3.000000000000000000 ) ) ;
#850 = CARTESIAN_POINT ( 'NONE',  ( -5.894613271326207382, -19.11160732072370649, 6.499999999999999112 ) ) ;
#851 = EDGE_CURVE ( 'NONE', #237, #723, #23, .T. ) ;
#852 = LINE ( 'NONE', #547, #451 ) ;
#853 = ORIENTED_EDGE ( 'NONE', *, *, #60, .T. ) ;
#854 = DIRECTION ( 'NONE',  ( -0.000000000000000000, -0.000000000000000000, -1.000000000000000000 ) ) ;
#855 = LINE ( 'NONE', #263, #455 ) ;
#856 = CYLINDRICAL_SURFACE ( 'NONE', #543, 3.250000000000000444 ) ;
#857 = CARTESIAN_POINT ( 'NONE',  ( -7.602633682725084441, 10.07922334293220423, 0.000000000000000000 ) ) ;
#858 = CARTESIAN_POINT ( 'NONE',  ( 5.762537912450018673, -9.712706130463864440, 3.000000000000000000 ) ) ;
#859 = CARTESIAN_POINT ( 'NONE',  ( 5.894613271325676251, 19.11160732072203672, 37.97323629180451121 ) ) ;
#860 = AXIS2_PLACEMENT_3D ( 'NONE', #159, #386, #685 ) ;
#861 = ORIENTED_EDGE ( 'NONE', *, *, #646, .F. ) ;
#862 = EDGE_CURVE ( 'NONE', #662, #368, #706, .T. ) ;
#863 = SURFACE_STYLE_USAGE ( .BOTH. , #500 ) ;
#864 = CARTESIAN_POINT ( 'NONE',  ( -5.894613271326207382, -19.11160732072370649, 0.000000000000000000 ) ) ;
#865 = EDGE_LOOP ( 'NONE', ( #612, #666, #974, #946 ) ) ;
#866 = EDGE_LOOP ( 'NONE', ( #325, #82, #647, #642 ) ) ;
#867 =( NAMED_UNIT ( * ) SI_UNIT ( $, .STERADIAN. ) SOLID_ANGLE_UNIT ( ) );
#868 = DIRECTION ( 'NONE',  ( -0.000000000000000000, -0.000000000000000000, -1.000000000000000000 ) ) ;
#869 = CARTESIAN_POINT ( 'NONE',  ( 4.500000000000000000, 5.510910596163088569E-16, 0.000000000000000000 ) ) ;
#870 = VERTEX_POINT ( 'NONE', #252 ) ;
#871 = AXIS2_PLACEMENT_3D ( 'NONE', #106, #640, #241 ) ;
#872 = SURFACE_STYLE_FILL_AREA ( #38 ) ;
#873 = DIRECTION ( 'NONE',  ( 0.000000000000000000, 0.000000000000000000, -1.000000000000000000 ) ) ;
#874 = EDGE_CURVE ( 'NONE', #414, #528, #634, .T. ) ;
#875 = CARTESIAN_POINT ( 'NONE',  ( 12.91771920469690826, 2.948733719519074814, 0.000000000000000000 ) ) ;
#876 = ORIENTED_EDGE ( 'NONE', *, *, #823, .F. ) ;
#877 = CIRCLE ( 'NONE', #282, 3.249999999999999556 ) ;
#878 =( GEOMETRIC_REPRESENTATION_CONTEXT ( 3 ) GLOBAL_UNCERTAINTY_ASSIGNED_CONTEXT ( ( #671 ) ) GLOBAL_UNIT_ASSIGNED_CONTEXT ( ( #510, #129, #191 ) ) REPRESENTATION_CONTEXT ( 'NONE', 'WORKASPACE' ) );
#879 = DIRECTION ( 'NONE',  ( 1.000000000000000000, 0.000000000000000000, 0.000000000000000000 ) ) ;
#880 = LINE ( 'NONE', #428, #580 ) ;
#881 = EDGE_CURVE ( 'NONE', #551, #42, #170, .T. ) ;
#882 = DIRECTION ( 'NONE',  ( -0.000000000000000000, -0.000000000000000000, 1.000000000000000000 ) ) ;
#883 = EDGE_LOOP ( 'NONE', ( #441, #678 ) ) ;
#884 = DIRECTION ( 'NONE',  ( 0.000000000000000000, 0.000000000000000000, 1.000000000000000000 ) ) ;
#885 = CARTESIAN_POINT ( 'NONE',  ( 12.26253791245001956, -9.712706130463864440, 3.000000000000000000 ) ) ;
#886 = EDGE_LOOP ( 'NONE', ( #719, #808, #688, #655 ) ) ;
#887 = AXIS2_PLACEMENT_3D ( 'NONE', #317, #445, #617 ) ;
#888 = CARTESIAN_POINT ( 'NONE',  ( 13.21699404939666955, -25.00622059204965808, 6.499999999999999112 ) ) ;
#889 = DIRECTION ( 'NONE',  ( 1.000000000000000000, 0.000000000000000000, 0.000000000000000000 ) ) ;
#890 = ORIENTED_EDGE ( 'NONE', *, *, #604, .T. ) ;
#891 = EDGE_CURVE ( 'NONE', #169, #815, #657, .T. ) ;
#892 = EDGE_CURVE ( 'NONE', #37, #812, #929, .T. ) ;
#893 = AXIS2_PLACEMENT_3D ( 'NONE', #444, #369, #382 ) ;
#894 = ORIENTED_EDGE ( 'NONE', *, *, #356, .T. ) ;
#895 = FACE_BOUND ( 'NONE', #962, .T. ) ;
#896 = CARTESIAN_POINT ( 'NONE',  ( -13.40518030676006411, -3.060006690063416634, 3.000000000000000000 ) ) ;
#897 = EDGE_LOOP ( 'NONE', ( #597, #190 ) ) ;
#898 = DIRECTION ( 'NONE',  ( 0.000000000000000000, 0.000000000000000000, 1.000000000000000000 ) ) ;
#899 = DIRECTION ( 'NONE',  ( 0.000000000000000000, 0.000000000000000000, 1.000000000000000000 ) ) ;
#900 = APPLICATION_CONTEXT ( 'automotive_design' ) ;
#901 = ORIENTED_EDGE ( 'NONE', *, *, #461, .F. ) ;
#902 = CARTESIAN_POINT ( 'NONE',  ( -9.352633682725084441, 10.07922334293220423, 0.000000000000000000 ) ) ;
#903 = VECTOR ( 'NONE', #207, 1000.000000000000000 ) ;
#904 = CARTESIAN_POINT ( 'NONE',  ( 9.667719204695456980, 2.948733719521193120, 6.500000000000000888 ) ) ;
#905 = EDGE_CURVE ( 'NONE', #231, #274, #203, .T. ) ;
#906 = ORIENTED_EDGE ( 'NONE', *, *, #952, .T. ) ;
#907 = ORIENTED_EDGE ( 'NONE', *, *, #15, .F. ) ;
#908 = DIRECTION ( 'NONE',  ( 1.000000000000000000, 0.000000000000000000, 0.000000000000000000 ) ) ;
#909 = CIRCLE ( 'NONE', #423, 3.249999999999999556 ) ;
#910 = VECTOR ( 'NONE', #335, 1000.000000000000000 ) ;
#911 = DIRECTION ( 'NONE',  ( -0.000000000000000000, -0.000000000000000000, -1.000000000000000000 ) ) ;
#912 = EDGE_CURVE ( 'NONE', #274, #838, #703, .T. ) ;
#913 = EDGE_CURVE ( 'NONE', #479, #128, #784, .T. ) ;
#914 = ORIENTED_EDGE ( 'NONE', *, *, #475, .T. ) ;
#915 = EDGE_LOOP ( 'NONE', ( #219, #853, #689, #224 ) ) ;
#916 = DIRECTION ( 'NONE',  ( -1.000000000000000000, 0.000000000000000000, 0.000000000000000000 ) ) ;
#917 = CARTESIAN_POINT ( 'NONE',  ( -6.102633682725084441, 10.07922334293220423, 4.500000000000000888 ) ) ;
#918 = ORIENTED_EDGE ( 'NONE', *, *, #905, .F. ) ;
#919 = VERTEX_POINT ( 'NONE', #326 ) ;
#920 = CARTESIAN_POINT ( 'NONE',  ( 12.26253791245001956, -9.712706130463864440, 6.500000000000000888 ) ) ;
#921 = VECTOR ( 'NONE', #185, 1000.000000000000000 ) ;
#922 = DIRECTION ( 'NONE',  ( -0.000000000000000000, -0.000000000000000000, -1.000000000000000000 ) ) ;
#923 = CARTESIAN_POINT ( 'NONE',  ( -11.10263368272508444, 10.07922334293220423, 3.000000000000000000 ) ) ;
#924 = ADVANCED_FACE ( 'NONE', ( #391 ), #552, .F. ) ;
#925 = ORIENTED_EDGE ( 'NONE', *, *, #717, .F. ) ;
#926 = FACE_OUTER_BOUND ( 'NONE', #399, .T. ) ;
#927 = VECTOR ( 'NONE', #627, 1000.000000000000000 ) ;
#928 = CARTESIAN_POINT ( 'NONE',  ( -5.894613271326208270, -19.11160732072371005, 6.499999999999984901 ) ) ;
#929 = CIRCLE ( 'NONE', #233, 3.249999999999999556 ) ;
#930 = PLANE ( 'NONE',  #763 ) ;
#931 = CARTESIAN_POINT ( 'NONE',  ( -16.65518030676006234, -3.060006690063416634, 6.500000000000000888 ) ) ;
#932 = CYLINDRICAL_SURFACE ( 'NONE', #625, 20.00000000000000000 ) ;
#933 = FACE_OUTER_BOUND ( 'NONE', #347, .T. ) ;
#934 = CARTESIAN_POINT ( 'NONE',  ( 0.000000000000000000, 0.000000000000000000, 3.000000000000000000 ) ) ;
#935 = CARTESIAN_POINT ( 'NONE',  ( -9.352633682725084441, 10.07922334293220423, 0.000000000000000000 ) ) ;
#936 = DIRECTION ( 'NONE',  ( -0.000000000000000000, -0.000000000000000000, -1.000000000000000000 ) ) ;
#937 = AXIS2_PLACEMENT_3D ( 'NONE', #54, #505, #360 ) ;
#938 = PRODUCT_DEFINITION_SHAPE ( 'NONE', 'NONE',  #985 ) ;
#939 = CARTESIAN_POINT ( 'NONE',  ( 12.91771920469690826, 2.948733719519074814, 3.000000000000000000 ) ) ;
#940 = ADVANCED_FACE ( 'NONE', ( #104, #637 ), #8, .T. ) ;
#941 = CARTESIAN_POINT ( 'NONE',  ( 9.667719204695456980, 2.948733719521193120, 3.000000000000000000 ) ) ;
#942 = ORIENTED_EDGE ( 'NONE', *, *, #268, .F. ) ;
#943 = DIRECTION ( 'NONE',  ( -0.000000000000000000, -0.000000000000000000, -1.000000000000000000 ) ) ;
#944 = DIRECTION ( 'NONE',  ( 0.000000000000000000, 0.000000000000000000, 1.000000000000000000 ) ) ;
#945 = UNCERTAINTY_MEASURE_WITH_UNIT (LENGTH_MEASURE( 1.000000000000000082E-05 ), #271, 'distance_accuracy_value', 'NONE');
#946 = ORIENTED_EDGE ( 'NONE', *, *, #544, .T. ) ;
#947 = CARTESIAN_POINT ( 'NONE',  ( -9.352633682725084441, 10.07922334293220423, 3.000000000000000000 ) ) ;
#948 = CIRCLE ( 'NONE', #605, 3.249999999999999556 ) ;
#949 = CARTESIAN_POINT ( 'NONE',  ( -13.40518030676006411, -3.060006690063416634, 0.000000000000000000 ) ) ;
#950 = ORIENTED_EDGE ( 'NONE', *, *, #707, .T. ) ;
#951 = CIRCLE ( 'NONE', #937, 20.00000000000043698 ) ;
#952 = EDGE_CURVE ( 'NONE', #626, #683, #550, .T. ) ;
#953 = EDGE_CURVE ( 'NONE', #221, #210, #240, .T. ) ;
#954 = FACE_BOUND ( 'NONE', #819, .T. ) ;
#955 = CARTESIAN_POINT ( 'NONE',  ( -16.65518030676006234, -3.060006690063416634, 3.000000000000000000 ) ) ;
#956 = UNCERTAINTY_MEASURE_WITH_UNIT (LENGTH_MEASURE( 1.000000000000000082E-05 ), #275, 'distance_accuracy_value', 'NONE');
#957 = ORIENTED_EDGE ( 'NONE', *, *, #851, .T. ) ;
#958 = AXIS2_PLACEMENT_3D ( 'NONE', #939, #130, #960 ) ;
#959 = AXIS2_PLACEMENT_3D ( 'NONE', #404, #766, #699 ) ;
#960 = DIRECTION ( 'NONE',  ( 1.000000000000000000, 0.000000000000000000, 0.000000000000000000 ) ) ;
#961 = DIRECTION ( 'NONE',  ( 1.000000000000000000, 0.000000000000000000, 0.000000000000000000 ) ) ;
#962 = EDGE_LOOP ( 'NONE', ( #542, #16 ) ) ;
#963 = MANIFOLD_SOLID_BREP ( 'Sfazowanie1', #370 ) ;
#964 = EDGE_LOOP ( 'NONE', ( #427, #113 ) ) ;
#965 = CARTESIAN_POINT ( 'NONE',  ( 12.91771920469545698, 2.948733719521193120, 3.000000000000000000 ) ) ;
#966 = CARTESIAN_POINT ( 'NONE',  ( -11.65518030676006411, -3.060006690063416634, 3.000000000000000000 ) ) ;
#967 = ADVANCED_FACE ( 'NONE', ( #643 ), #396, .F. ) ;
#968 = EDGE_CURVE ( 'NONE', #470, #62, #57, .T. ) ;
#969 = ORIENTED_EDGE ( 'NONE', *, *, #32, .T. ) ;
#970 = CIRCLE ( 'NONE', #559, 3.249999999999999556 ) ;
#971 = EDGE_LOOP ( 'NONE', ( #825, #587, #821, #292, #732 ) ) ;
#972 = LINE ( 'NONE', #295, #720 ) ;
#973 = DIRECTION ( 'NONE',  ( 0.000000000000000000, 0.000000000000000000, 1.000000000000000000 ) ) ;
#974 = ORIENTED_EDGE ( 'NONE', *, *, #490, .T. ) ;
#975 = VECTOR ( 'NONE', #331, 1000.000000000000000 ) ;
#976 = ORIENTED_EDGE ( 'NONE', *, *, #862, .F. ) ;
#977 = DIRECTION ( 'NONE',  ( -1.000000000000000000, 0.000000000000000000, 0.000000000000000000 ) ) ;
#978 = DIRECTION ( 'NONE',  ( 1.000000000000000000, 0.000000000000000000, 0.000000000000000000 ) ) ;
#979 = EDGE_LOOP ( 'NONE', ( #11, #957, #213, #750 ) ) ;
#980 = VERTEX_POINT ( 'NONE', #48 ) ;
#981 = FACE_OUTER_BOUND ( 'NONE', #381, .T. ) ;
#982 = CARTESIAN_POINT ( 'NONE',  ( 5.762537912450018673, -9.712706130463864440, 6.500000000000000888 ) ) ;
#983 = EDGE_LOOP ( 'NONE', ( #764, #876 ) ) ;
#984 = CIRCLE ( 'NONE', #589, 1.749999999999999778 ) ;
#985 = PRODUCT_DEFINITION ( 'UNKNOWN', '', #316, #287 ) ;
ENDSEC;
END-ISO-10303-21;
