ISO-10303-21;
HEADER;
FILE_DESCRIPTION (( 'STEP AP214' ),
    '1' );
FILE_NAME ('010_016_Motor_lock.STEP',
    '2024-07-21T08:37:57',
    ( '' ),
    ( '' ),
    'SwSTEP 2.0',
    'SolidWorks 2019',
    '' );
FILE_SCHEMA (( 'AUTOMOTIVE_DESIGN' ));
ENDSEC;

DATA;
#1 = DIRECTION ( 'NONE',  ( 0.000000000000000000, 1.000000000000000000, -2.973811673103873608E-15 ) ) ;
#2 = EDGE_CURVE ( 'NONE', #469, #430, #482, .T. ) ;
#3 = FACE_OUTER_BOUND ( 'NONE', #694, .T. ) ;
#4 = ORIENTED_EDGE ( 'NONE', *, *, #488, .F. ) ;
#5 = DIRECTION ( 'NONE',  ( -4.483077151739266843E-31, 3.101181633031087724E-15, 1.000000000000000000 ) ) ;
#6 = FACE_OUTER_BOUND ( 'NONE', #364, .T. ) ;
#7 = ORIENTED_EDGE ( 'NONE', *, *, #110, .F. ) ;
#8 = DIRECTION ( 'NONE',  ( -0.000000000000000000, -0.000000000000000000, -1.000000000000000000 ) ) ;
#9 = ORIENTED_EDGE ( 'NONE', *, *, #272, .T. ) ;
#10 = CYLINDRICAL_SURFACE ( 'NONE', #647, 1.749999999999543476 ) ;
#11 = ORIENTED_EDGE ( 'NONE', *, *, #594, .T. ) ;
#12 = EDGE_CURVE ( 'NONE', #249, #199, #489, .T. ) ;
#13 = DIRECTION ( 'NONE',  ( 1.445602896647339410E-16, -1.000000000000000000, 0.000000000000000000 ) ) ;
#14 = FACE_BOUND ( 'NONE', #243, .T. ) ;
#15 = EDGE_LOOP ( 'NONE', ( #189, #539, #712, #491, #177, #463 ) ) ;
#16 = EDGE_CURVE ( 'NONE', #171, #271, #353, .T. ) ;
#17 = DIRECTION ( 'NONE',  ( 0.000000000000000000, -0.000000000000000000, -1.000000000000000000 ) ) ;
#18 = DIRECTION ( 'NONE',  ( -1.000000000000000000, 0.000000000000000000, 0.000000000000000000 ) ) ;
#19 = CIRCLE ( 'NONE', #379, 1.749999999999508837 ) ;
#20 = VERTEX_POINT ( 'NONE', #283 ) ;
#21 = DIRECTION ( 'NONE',  ( -0.000000000000000000, -0.000000000000000000, -1.000000000000000000 ) ) ;
#22 = EDGE_CURVE ( 'NONE', #430, #469, #44, .T. ) ;
#23 = CARTESIAN_POINT ( 'NONE',  ( -7.000000000000001776, 15.00000000000000000, 5.000000000000000000 ) ) ;
#24 = ORIENTED_EDGE ( 'NONE', *, *, #324, .T. ) ;
#25 = LINE ( 'NONE', #305, #66 ) ;
#26 = CARTESIAN_POINT ( 'NONE',  ( -7.000000000000001776, 15.00000000000000000, 5.000000000000000000 ) ) ;
#27 = ORIENTED_EDGE ( 'NONE', *, *, #75, .T. ) ;
#28 = FACE_OUTER_BOUND ( 'NONE', #509, .T. ) ;
#29 = UNCERTAINTY_MEASURE_WITH_UNIT (LENGTH_MEASURE( 1.000000000000000082E-05 ), #497, 'distance_accuracy_value', 'NONE');
#30 = CARTESIAN_POINT ( 'NONE',  ( -3.999999999999989786, -15.00000000000000178, 9.999999999999921840 ) ) ;
#31 = ORIENTED_EDGE ( 'NONE', *, *, #144, .T. ) ;
#32 = VECTOR ( 'NONE', #362, 1000.000000000000000 ) ;
#33 = EDGE_CURVE ( 'NONE', #433, #618, #602, .T. ) ;
#34 = AXIS2_PLACEMENT_3D ( 'NONE', #661, #53, #438 ) ;
#35 = DIRECTION ( 'NONE',  ( -0.000000000000000000, -0.000000000000000000, -1.000000000000000000 ) ) ;
#36 = VERTEX_POINT ( 'NONE', #170 ) ;
#37 = ADVANCED_FACE ( 'NONE', ( #67, #3 ), #71, .F. ) ;
#38 = CARTESIAN_POINT ( 'NONE',  ( -1.750000000000208722, -10.52500000000014779, 6.000000000000000000 ) ) ;
#39 = VERTEX_POINT ( 'NONE', #117 ) ;
#40 = ADVANCED_BREP_SHAPE_REPRESENTATION ( '010_016_Motor_lock', ( #337, #670 ), #393 ) ;
#41 = LINE ( 'NONE', #478, #341 ) ;
#42 = SHAPE_DEFINITION_REPRESENTATION ( #348, #40 ) ;
#43 = ORIENTED_EDGE ( 'NONE', *, *, #423, .F. ) ;
#44 = CIRCLE ( 'NONE', #658, 3.249999999999543920 ) ;
#45 = CARTESIAN_POINT ( 'NONE',  ( 0.000000000000000000, 0.000000000000000000, 0.000000000000000000 ) ) ;
#46 = PRODUCT_DEFINITION_CONTEXT ( 'detailed design', #228, 'design' ) ;
#47 = MECHANICAL_DESIGN_GEOMETRIC_PRESENTATION_REPRESENTATION (  '', ( #531 ), #242 ) ;
#48 = EDGE_CURVE ( 'NONE', #102, #271, #329, .T. ) ;
#49 = DIRECTION ( 'NONE',  ( 0.000000000000000000, 0.000000000000000000, -1.000000000000000000 ) ) ;
#50 = DIRECTION ( 'NONE',  ( -0.000000000000000000, -0.000000000000000000, -1.000000000000000000 ) ) ;
#51 = EDGE_CURVE ( 'NONE', #383, #504, #173, .T. ) ;
#52 = ORIENTED_EDGE ( 'NONE', *, *, #386, .F. ) ;
#53 = DIRECTION ( 'NONE',  ( -1.000000000000000000, -1.445602896647339656E-16, 0.000000000000000000 ) ) ;
#54 = ORIENTED_EDGE ( 'NONE', *, *, #218, .T. ) ;
#55 = ADVANCED_FACE ( 'NONE', ( #495 ), #221, .F. ) ;
#56 = CIRCLE ( 'NONE', #403, 6.049999999999999822 ) ;
#57 = AXIS2_PLACEMENT_3D ( 'NONE', #84, #525, #699 ) ;
#58 = CARTESIAN_POINT ( 'NONE',  ( 19.62597212172011396, 3.406244266050014513, 5.000000000000000000 ) ) ;
#59 = ORIENTED_EDGE ( 'NONE', *, *, #363, .F. ) ;
#60 = CARTESIAN_POINT ( 'NONE',  ( -1.750000000000202283, 10.52499999999985825, 9.999999999999946709 ) ) ;
#61 = DIRECTION ( 'NONE',  ( -1.000000000000000000, -1.445602896647339656E-16, 0.000000000000000000 ) ) ;
#62 = SURFACE_STYLE_USAGE ( .BOTH. , #612 ) ;
#63 = CARTESIAN_POINT ( 'NONE',  ( 19.62597212172011396, -2.301506826377823538E-13, 9.999999999999980460 ) ) ;
#64 = CARTESIAN_POINT ( 'NONE',  ( -3.999999999999998224, -12.00000000000000000, 5.000000000000000000 ) ) ;
#65 = CIRCLE ( 'NONE', #613, 1.749999999999543476 ) ;
#66 = VECTOR ( 'NONE', #21, 1000.000000000000000 ) ;
#67 = FACE_BOUND ( 'NONE', #673, .T. ) ;
#68 = ADVANCED_FACE ( 'NONE', ( #336 ), #662, .F. ) ;
#69 = ORIENTED_EDGE ( 'NONE', *, *, #110, .T. ) ;
#70 = CYLINDRICAL_SURFACE ( 'NONE', #240, 3.249999999999508837 ) ;
#71 = PLANE ( 'NONE',  #115 ) ;
#72 = VERTEX_POINT ( 'NONE', #672 ) ;
#73 = CARTESIAN_POINT ( 'NONE',  ( -6.586706007005727059E-13, 10.52499999999985825, 6.000000000000000000 ) ) ;
#74 = EDGE_LOOP ( 'NONE', ( #608, #4, #569, #387 ) ) ;
#75 = EDGE_CURVE ( 'NONE', #249, #36, #276, .T. ) ;
#76 = CARTESIAN_POINT ( 'NONE',  ( -3.999999999999998224, -15.00000000000000000, 5.000000000000000000 ) ) ;
#77 = DIRECTION ( 'NONE',  ( -1.000000000000000000, 0.000000000000000000, 0.000000000000000000 ) ) ;
#78 = AXIS2_PLACEMENT_3D ( 'NONE', #419, #626, #350 ) ;
#79 = ORIENTED_EDGE ( 'NONE', *, *, #614, .F. ) ;
#80 = AXIS2_PLACEMENT_3D ( 'NONE', #695, #418, #311 ) ;
#81 = DIRECTION ( 'NONE',  ( 1.000000000000000000, 1.110223024625156787E-16, -1.430689887280229986E-17 ) ) ;
#82 = LINE ( 'NONE', #191, #646 ) ;
#83 = ORIENTED_EDGE ( 'NONE', *, *, #389, .T. ) ;
#84 = CARTESIAN_POINT ( 'NONE',  ( 19.62597212172011396, 3.387914756801882666E-14, 9.999999999999978684 ) ) ;
#85 = DIRECTION ( 'NONE',  ( 1.402467149732824259E-16, -1.000000000000000000, -4.264124745417958514E-15 ) ) ;
#86 = PRODUCT_CONTEXT ( 'NONE', #593, 'mechanical' ) ;
#87 = ORIENTED_EDGE ( 'NONE', *, *, #434, .F. ) ;
#88 = CARTESIAN_POINT ( 'NONE',  ( 1.749999999998884892, 10.52499999999985825, 6.000000000000000000 ) ) ;
#89 = ADVANCED_FACE ( 'NONE', ( #508 ), #499, .F. ) ;
#90 = ORIENTED_EDGE ( 'NONE', *, *, #310, .T. ) ;
#91 = AXIS2_PLACEMENT_3D ( 'NONE', #209, #106, #152 ) ;
#92 = CIRCLE ( 'NONE', #169, 3.249999999999508837 ) ;
#93 = LINE ( 'NONE', #250, #404 ) ;
#94 = PRESENTATION_STYLE_ASSIGNMENT (( #642 ) ) ;
#95 =( NAMED_UNIT ( * ) SI_UNIT ( $, .STERADIAN. ) SOLID_ANGLE_UNIT ( ) );
#96 = ORIENTED_EDGE ( 'NONE', *, *, #558, .T. ) ;
#97 = CARTESIAN_POINT ( 'NONE',  ( -3.999999999999999112, -15.00000000000000000, 0.000000000000000000 ) ) ;
#98 = ORIENTED_EDGE ( 'NONE', *, *, #12, .T. ) ;
#99 = FACE_BOUND ( 'NONE', #109, .T. ) ;
#100 = EDGE_CURVE ( 'NONE', #210, #679, #446, .T. ) ;
#101 = DIRECTION ( 'NONE',  ( 0.000000000000000000, -0.000000000000000000, 1.000000000000000000 ) ) ;
#102 = VERTEX_POINT ( 'NONE', #551 ) ;
#103 = CIRCLE ( 'NONE', #428, 2.999999999999999112 ) ;
#104 = CARTESIAN_POINT ( 'NONE',  ( -7.002148860735247075E-13, -10.52500000000014779, 6.000000000000000000 ) ) ;
#105 = AXIS2_PLACEMENT_3D ( 'NONE', #147, #422, #637 ) ;
#106 = DIRECTION ( 'NONE',  ( 1.000000000000000000, 1.110223024625156787E-16, -1.430689887280229986E-17 ) ) ;
#107 = CARTESIAN_POINT ( 'NONE',  ( -3.999999999999998224, -12.00000000000000000, 9.999999999999936051 ) ) ;
#108 = DIRECTION ( 'NONE',  ( -0.000000000000000000, -0.000000000000000000, -1.000000000000000000 ) ) ;
#109 = EDGE_LOOP ( 'NONE', ( #256, #260 ) ) ;
#110 = EDGE_CURVE ( 'NONE', #39, #321, #617, .T. ) ;
#111 = PLANE ( 'NONE',  #181 ) ;
#112 = DIRECTION ( 'NONE',  ( -6.164231083641799757E-31, 4.264124745417959303E-15, -1.000000000000000000 ) ) ;
#113 = ORIENTED_EDGE ( 'NONE', *, *, #358, .F. ) ;
#114 = PLANE ( 'NONE',  #590 ) ;
#115 = AXIS2_PLACEMENT_3D ( 'NONE', #176, #112, #394 ) ;
#116 = VECTOR ( 'NONE', #50, 1000.000000000000000 ) ;
#117 = CARTESIAN_POINT ( 'NONE',  ( 6.999999999998247624, 3.406244266050010516, 5.000000000000000000 ) ) ;
#118 = EDGE_LOOP ( 'NONE', ( #556, #83, #669, #52 ) ) ;
#119 = DIRECTION ( 'NONE',  ( 1.000000000000000000, 0.000000000000000000, 0.000000000000000000 ) ) ;
#120 = DIRECTION ( 'NONE',  ( -1.000000000000000000, -1.445602896647339656E-16, 0.000000000000000000 ) ) ;
#121 = CYLINDRICAL_SURFACE ( 'NONE', #552, 3.249999999999543920 ) ;
#122 = ADVANCED_FACE ( 'NONE', ( #6 ), #224, .F. ) ;
#123 = CARTESIAN_POINT ( 'NONE',  ( 6.999999999999998224, 15.00000000000000000, 5.000000000000000000 ) ) ;
#124 = EDGE_LOOP ( 'NONE', ( #676, #156, #186, #373 ) ) ;
#125 = CARTESIAN_POINT ( 'NONE',  ( -6.586706007005727059E-13, 10.52499999999985825, 14.94974746830448531 ) ) ;
#126 = AXIS2_PLACEMENT_3D ( 'NONE', #667, #565, #219 ) ;
#127 = VECTOR ( 'NONE', #261, 1000.000000000000000 ) ;
#128 = DIRECTION ( 'NONE',  ( 6.164231083641801508E-31, -4.264124745417959303E-15, 1.000000000000000000 ) ) ;
#129 = ORIENTED_EDGE ( 'NONE', *, *, #434, .T. ) ;
#130 = DIRECTION ( 'NONE',  ( -0.000000000000000000, -0.000000000000000000, -1.000000000000000000 ) ) ;
#131 = ADVANCED_FACE ( 'NONE', ( #300 ), #514, .F. ) ;
#132 = ORIENTED_EDGE ( 'NONE', *, *, #324, .F. ) ;
#133 = CARTESIAN_POINT ( 'NONE',  ( -7.002148860735247075E-13, -10.52500000000014779, 6.000000000000000000 ) ) ;
#134 = DIRECTION ( 'NONE',  ( 1.000000000000000000, 1.445602896647339410E-16, -0.000000000000000000 ) ) ;
#135 = ORIENTED_EDGE ( 'NONE', *, *, #483, .F. ) ;
#136 = LINE ( 'NONE', #625, #193 ) ;
#137 = DIRECTION ( 'NONE',  ( 0.000000000000000000, 1.000000000000000000, -2.973811673103932378E-15 ) ) ;
#138 = VECTOR ( 'NONE', #564, 1000.000000000000000 ) ;
#139 = ORIENTED_EDGE ( 'NONE', *, *, #566, .T. ) ;
#140 = CARTESIAN_POINT ( 'NONE',  ( -4.000000000000001776, 15.00000000000000000, 5.000000000000000000 ) ) ;
#141 = CARTESIAN_POINT ( 'NONE',  ( 6.999999999998246736, 6.049999999999774225, 9.999999999999960920 ) ) ;
#142 = VERTEX_POINT ( 'NONE', #290 ) ;
#143 = CARTESIAN_POINT ( 'NONE',  ( -3.999999999999998224, -12.00000000000000000, 0.000000000000000000 ) ) ;
#144 = EDGE_CURVE ( 'NONE', #573, #375, #275, .T. ) ;
#145 = DIRECTION ( 'NONE',  ( -1.000000000000000000, -1.156482317317871478E-16, 0.000000000000000000 ) ) ;
#146 = ORIENTED_EDGE ( 'NONE', *, *, #149, .T. ) ;
#147 = CARTESIAN_POINT ( 'NONE',  ( -7.002148860735247075E-13, -10.52500000000014779, 0.000000000000000000 ) ) ;
#148 =( NAMED_UNIT ( * ) SI_UNIT ( $, .STERADIAN. ) SOLID_ANGLE_UNIT ( ) );
#149 = EDGE_CURVE ( 'NONE', #321, #413, #303, .T. ) ;
#150 = ORIENTED_EDGE ( 'NONE', *, *, #527, .F. ) ;
#151 = DIRECTION ( 'NONE',  ( 1.000000000000000000, 0.000000000000000000, 0.000000000000000000 ) ) ;
#152 = DIRECTION ( 'NONE',  ( 1.433655765270088601E-16, -1.000000000000000000, 0.000000000000000000 ) ) ;
#153 = ORIENTED_EDGE ( 'NONE', *, *, #541, .F. ) ;
#154 = EDGE_CURVE ( 'NONE', #102, #338, #416, .T. ) ;
#155 = CYLINDRICAL_SURFACE ( 'NONE', #217, 3.249999999999543920 ) ;
#156 = ORIENTED_EDGE ( 'NONE', *, *, #423, .T. ) ;
#157 = DIRECTION ( 'NONE',  ( 1.402467149732824259E-16, -1.000000000000000000, 3.101181633031086935E-15 ) ) ;
#158 = DIRECTION ( 'NONE',  ( -0.000000000000000000, -0.000000000000000000, 1.000000000000000000 ) ) ;
#159 = VERTEX_POINT ( 'NONE', #462 ) ;
#160 = AXIS2_PLACEMENT_3D ( 'NONE', #123, #145, #586 ) ;
#161 = DIRECTION ( 'NONE',  ( -0.000000000000000000, -0.000000000000000000, -1.000000000000000000 ) ) ;
#162 = ADVANCED_FACE ( 'NONE', ( #197 ), #639, .F. ) ;
#163 = ORIENTED_EDGE ( 'NONE', *, *, #51, .F. ) ;
#164 = DIRECTION ( 'NONE',  ( 0.000000000000000000, 0.000000000000000000, -1.000000000000000000 ) ) ;
#165 = DIRECTION ( 'NONE',  ( -0.000000000000000000, -0.000000000000000000, -1.000000000000000000 ) ) ;
#166 = EDGE_LOOP ( 'NONE', ( #448, #479 ) ) ;
#167 = DIRECTION ( 'NONE',  ( 0.000000000000000000, 1.000000000000000000, 0.000000000000000000 ) ) ;
#168 = VECTOR ( 'NONE', #185, 1000.000000000000000 ) ;
#169 = AXIS2_PLACEMENT_3D ( 'NONE', #467, #692, #470 ) ;
#170 = CARTESIAN_POINT ( 'NONE',  ( -7.000000000000000000, 6.049999999999774225, 9.999999999999960920 ) ) ;
#171 = VERTEX_POINT ( 'NONE', #511 ) ;
#172 = DIRECTION ( 'NONE',  ( 0.000000000000000000, -0.000000000000000000, -1.000000000000000000 ) ) ;
#173 = LINE ( 'NONE', #555, #714 ) ;
#174 = EDGE_LOOP ( 'NONE', ( #113, #640, #90, #587 ) ) ;
#175 = ADVANCED_FACE ( 'NONE', ( #346 ), #408, .F. ) ;
#176 = CARTESIAN_POINT ( 'NONE',  ( 19.62597212172011396, -3.977391621647150950E-14, 9.999999999999985789 ) ) ;
#177 = ORIENTED_EDGE ( 'NONE', *, *, #369, .F. ) ;
#178 = CARTESIAN_POINT ( 'NONE',  ( -7.002148860735247075E-13, -10.52500000000014779, 6.000000000000000000 ) ) ;
#179 = MECHANICAL_DESIGN_GEOMETRIC_PRESENTATION_REPRESENTATION (  '', ( #621 ), #516 ) ;
#180 = EDGE_CURVE ( 'NONE', #301, #39, #247, .T. ) ;
#181 = AXIS2_PLACEMENT_3D ( 'NONE', #486, #534, #151 ) ;
#182 = CARTESIAN_POINT ( 'NONE',  ( 7.000000000000001776, -15.00000000000000000, 5.000000000000000000 ) ) ;
#183 = ORIENTED_EDGE ( 'NONE', *, *, #12, .F. ) ;
#184 = CARTESIAN_POINT ( 'NONE',  ( -4.000000000000001776, 12.00000000000000000, 5.000000000000000000 ) ) ;
#185 = DIRECTION ( 'NONE',  ( 1.445602896647339410E-16, -1.000000000000000000, 0.000000000000000000 ) ) ;
#186 = ORIENTED_EDGE ( 'NONE', *, *, #519, .T. ) ;
#187 = CARTESIAN_POINT ( 'NONE',  ( 19.62597212172011041, 15.00000000000000178, 9.999999999999932498 ) ) ;
#188 = CARTESIAN_POINT ( 'NONE',  ( 1.749999999998884892, 10.52499999999985825, 14.94974746830448531 ) ) ;
#189 = ORIENTED_EDGE ( 'NONE', *, *, #519, .F. ) ;
#190 = LINE ( 'NONE', #684, #543 ) ;
#191 = CARTESIAN_POINT ( 'NONE',  ( 6.999999999998247624, -4.117568071225259944E-14, 9.999999999999985789 ) ) ;
#192 = AXIS2_PLACEMENT_3D ( 'NONE', #107, #128, #400 ) ;
#193 = VECTOR ( 'NONE', #577, 1000.000000000000000 ) ;
#194 = EDGE_LOOP ( 'NONE', ( #237, #630 ) ) ;
#195 = ADVANCED_FACE ( 'NONE', ( #523, #14 ), #241, .T. ) ;
#196 = CARTESIAN_POINT ( 'NONE',  ( 3.249999999998808509, -10.52500000000014779, 0.000000000000000000 ) ) ;
#197 = FACE_OUTER_BOUND ( 'NONE', #627, .T. ) ;
#198 = CARTESIAN_POINT ( 'NONE',  ( 0.000000000000000000, 0.000000000000000000, 0.000000000000000000 ) ) ;
#199 = VERTEX_POINT ( 'NONE', #468 ) ;
#200 = CARTESIAN_POINT ( 'NONE',  ( 3.249999999998885336, 10.52499999999985825, 6.000000000000000000 ) ) ;
#201 =( NAMED_UNIT ( * ) PLANE_ANGLE_UNIT ( ) SI_UNIT ( $, .RADIAN. ) );
#202 = VERTEX_POINT ( 'NONE', #623 ) ;
#203 = DIRECTION ( 'NONE',  ( -0.000000000000000000, -0.000000000000000000, -1.000000000000000000 ) ) ;
#204 = FILL_AREA_STYLE ('',( #651 ) ) ;
#205 = EDGE_CURVE ( 'NONE', #142, #521, #631, .T. ) ;
#206 = ORIENTED_EDGE ( 'NONE', *, *, #453, .F. ) ;
#207 = AXIS2_PLACEMENT_3D ( 'NONE', #178, #622, #328 ) ;
#208 = CARTESIAN_POINT ( 'NONE',  ( -3.250000000000209166, -10.52500000000014779, 0.000000000000000000 ) ) ;
#209 = CARTESIAN_POINT ( 'NONE',  ( 6.999999999998247624, -2.319758968249973170E-13, 9.999999999999980460 ) ) ;
#210 = VERTEX_POINT ( 'NONE', #292 ) ;
#211 = CARTESIAN_POINT ( 'NONE',  ( -6.586706007005727059E-13, 10.52499999999985825, 6.000000000000000000 ) ) ;
#212 = ORIENTED_EDGE ( 'NONE', *, *, #710, .T. ) ;
#213 = FACE_OUTER_BOUND ( 'NONE', #436, .T. ) ;
#214 = ORIENTED_EDGE ( 'NONE', *, *, #180, .T. ) ;
#215 = COLOUR_RGB ( '',0.5019607843137254832, 0.000000000000000000, 0.000000000000000000 ) ;
#216 = FACE_OUTER_BOUND ( 'NONE', #118, .T. ) ;
#217 = AXIS2_PLACEMENT_3D ( 'NONE', #376, #161, #326 ) ;
#218 = EDGE_CURVE ( 'NONE', #102, #383, #82, .T. ) ;
#219 = DIRECTION ( 'NONE',  ( 0.000000000000000000, 1.000000000000000000, -2.973811673103873608E-15 ) ) ;
#220 = DIRECTION ( 'NONE',  ( -1.000000000000000000, 0.000000000000000000, 0.000000000000000000 ) ) ;
#221 = PLANE ( 'NONE',  #574 ) ;
#222 = ORIENTED_EDGE ( 'NONE', *, *, #399, .F. ) ;
#223 = DIRECTION ( 'NONE',  ( -0.000000000000000000, 0.000000000000000000, -1.000000000000000000 ) ) ;
#224 = PLANE ( 'NONE',  #160 ) ;
#225 = EDGE_CURVE ( 'NONE', #301, #413, #296, .T. ) ;
#226 = ORIENTED_EDGE ( 'NONE', *, *, #33, .T. ) ;
#227 = AXIS2_PLACEMENT_3D ( 'NONE', #236, #405, #572 ) ;
#228 = APPLICATION_CONTEXT ( 'automotive_design' ) ;
#229 = AXIS2_PLACEMENT_3D ( 'NONE', #671, #172, #119 ) ;
#230 = VERTEX_POINT ( 'NONE', #465 ) ;
#231 = FACE_OUTER_BOUND ( 'NONE', #459, .T. ) ;
#232 = CARTESIAN_POINT ( 'NONE',  ( -7.000000000000001776, 12.00000000000000000, 5.000000000000000000 ) ) ;
#233 = ORIENTED_EDGE ( 'NONE', *, *, #248, .F. ) ;
#234 = CYLINDRICAL_SURFACE ( 'NONE', #632, 3.000000000000000000 ) ;
#235 = EDGE_CURVE ( 'NONE', #433, #360, #685, .T. ) ;
#236 = CARTESIAN_POINT ( 'NONE',  ( -7.002148860735247075E-13, -10.52500000000014779, 6.000000000000000000 ) ) ;
#237 = ORIENTED_EDGE ( 'NONE', *, *, #594, .F. ) ;
#238 = CARTESIAN_POINT ( 'NONE',  ( -3.250000000000202949, 10.52499999999985825, 0.000000000000000000 ) ) ;
#239 = AXIS2_PLACEMENT_3D ( 'NONE', #26, #134, #693 ) ;
#240 = AXIS2_PLACEMENT_3D ( 'NONE', #457, #402, #289 ) ;
#241 = PLANE ( 'NONE',  #227 ) ;
#242 =( GEOMETRIC_REPRESENTATION_CONTEXT ( 3 ) GLOBAL_UNCERTAINTY_ASSIGNED_CONTEXT ( ( #318 ) ) GLOBAL_UNIT_ASSIGNED_CONTEXT ( ( #420, #201, #95 ) ) REPRESENTATION_CONTEXT ( 'NONE', 'WORKASPACE' ) );
#243 = EDGE_LOOP ( 'NONE', ( #31, #212 ) ) ;
#244 = DIRECTION ( 'NONE',  ( 0.000000000000000000, 0.000000000000000000, -1.000000000000000000 ) ) ;
#245 = DIRECTION ( 'NONE',  ( -1.000000000000000000, -1.445602896647339656E-16, 0.000000000000000000 ) ) ;
#246 = ORIENTED_EDGE ( 'NONE', *, *, #279, .F. ) ;
#247 = LINE ( 'NONE', #359, #32 ) ;
#248 = EDGE_CURVE ( 'NONE', #20, #281, #19, .T. ) ;
#249 = VERTEX_POINT ( 'NONE', #141 ) ;
#250 = CARTESIAN_POINT ( 'NONE',  ( 1.749999999998808287, -10.52500000000014779, 14.94974746830448531 ) ) ;
#251 = LINE ( 'NONE', #654, #415 ) ;
#252 = VECTOR ( 'NONE', #605, 1000.000000000000000 ) ;
#253 = AXIS2_PLACEMENT_3D ( 'NONE', #104, #317, #707 ) ;
#254 = VERTEX_POINT ( 'NONE', #582 ) ;
#255 = CARTESIAN_POINT ( 'NONE',  ( 6.999999999998248512, -6.050000000000225420, 9.999999999999960920 ) ) ;
#256 = ORIENTED_EDGE ( 'NONE', *, *, #22, .F. ) ;
#257 = CYLINDRICAL_SURFACE ( 'NONE', #322, 3.249999999999508837 ) ;
#258 = EDGE_CURVE ( 'NONE', #504, #171, #355, .T. ) ;
#259 = CARTESIAN_POINT ( 'NONE',  ( 7.000000000000001776, -15.00000000000000000, 0.000000000000000000 ) ) ;
#260 = ORIENTED_EDGE ( 'NONE', *, *, #2, .F. ) ;
#261 = DIRECTION ( 'NONE',  ( 1.000000000000000000, 0.000000000000000000, 0.000000000000000000 ) ) ;
#262 = PRODUCT_DEFINITION ( 'UNKNOWN', '', #507, #46 ) ;
#263 = CARTESIAN_POINT ( 'NONE',  ( -6.999999999999999112, -2.339997408803033227E-13, 9.999999999999980460 ) ) ;
#264 = VECTOR ( 'NONE', #664, 1000.000000000000000 ) ;
#265 = ORIENTED_EDGE ( 'NONE', *, *, #437, .F. ) ;
#266 = AXIS2_PLACEMENT_3D ( 'NONE', #601, #5, #1 ) ;
#267 = AXIS2_PLACEMENT_3D ( 'NONE', #270, #431, #598 ) ;
#268 = DIRECTION ( 'NONE',  ( -0.000000000000000000, 0.000000000000000000, 1.000000000000000000 ) ) ;
#269 = DIRECTION ( 'NONE',  ( -1.000000000000000000, 0.000000000000000000, 0.000000000000000000 ) ) ;
#270 = CARTESIAN_POINT ( 'NONE',  ( -7.002148860735247075E-13, -10.52500000000014779, 10.00000000000001243 ) ) ;
#271 = VERTEX_POINT ( 'NONE', #30 ) ;
#272 = EDGE_CURVE ( 'NONE', #498, #171, #251, .T. ) ;
#273 = LINE ( 'NONE', #382, #116 ) ;
#274 = ORIENTED_EDGE ( 'NONE', *, *, #288, .T. ) ;
#275 = CIRCLE ( 'NONE', #367, 1.749999999999508393 ) ;
#276 = LINE ( 'NONE', #561, #575 ) ;
#277 = ORIENTED_EDGE ( 'NONE', *, *, #352, .T. ) ;
#278 = LINE ( 'NONE', #285, #138 ) ;
#279 = EDGE_CURVE ( 'NONE', #413, #504, #56, .T. ) ;
#280 = DIRECTION ( 'NONE',  ( -1.000000000000000000, -1.445602896647339656E-16, 0.000000000000000000 ) ) ;
#281 = VERTEX_POINT ( 'NONE', #596 ) ;
#282 = DIRECTION ( 'NONE',  ( -1.000000000000000000, 0.000000000000000000, 0.000000000000000000 ) ) ;
#283 = CARTESIAN_POINT ( 'NONE',  ( -1.750000000000208944, -10.52500000000014779, 10.00000000000001243 ) ) ;
#284 = EDGE_LOOP ( 'NONE', ( #660, #277, #206, #652 ) ) ;
#285 = CARTESIAN_POINT ( 'NONE',  ( 6.999999999999998224, 15.00000000000000000, 5.000000000000000000 ) ) ;
#286 = AXIS2_PLACEMENT_3D ( 'NONE', #63, #501, #397 ) ;
#287 = AXIS2_PLACEMENT_3D ( 'NONE', #143, #17, #571 ) ;
#288 = EDGE_CURVE ( 'NONE', #202, #210, #103, .T. ) ;
#289 = DIRECTION ( 'NONE',  ( -1.000000000000000000, 0.000000000000000000, 0.000000000000000000 ) ) ;
#290 = CARTESIAN_POINT ( 'NONE',  ( 3.249999999998885336, 10.52499999999985825, 6.000000000000000000 ) ) ;
#291 = EDGE_LOOP ( 'NONE', ( #163, #129, #689, #600 ) ) ;
#292 = CARTESIAN_POINT ( 'NONE',  ( -7.000000000000000888, 12.00000000000000000, 9.999999999999943157 ) ) ;
#293 = ORIENTED_EDGE ( 'NONE', *, *, #299, .F. ) ;
#294 = CARTESIAN_POINT ( 'NONE',  ( 6.999999999998247624, -2.319758968249973170E-13, 9.999999999999980460 ) ) ;
#295 = AXIS2_PLACEMENT_3D ( 'NONE', #559, #165, #451 ) ;
#296 = LINE ( 'NONE', #520, #529 ) ;
#297 = ORIENTED_EDGE ( 'NONE', *, *, #75, .F. ) ;
#298 = PLANE ( 'NONE',  #80 ) ;
#299 = EDGE_CURVE ( 'NONE', #360, #72, #65, .T. ) ;
#300 = FACE_OUTER_BOUND ( 'NONE', #174, .T. ) ;
#301 = VERTEX_POINT ( 'NONE', #366 ) ;
#302 = DIRECTION ( 'NONE',  ( -1.156482317317871478E-16, 1.000000000000000000, -0.000000000000000000 ) ) ;
#303 = LINE ( 'NONE', #23, #168 ) ;
#304 = ORIENTED_EDGE ( 'NONE', *, *, #149, .F. ) ;
#305 = CARTESIAN_POINT ( 'NONE',  ( -3.250000000000202949, 10.52499999999985825, 6.000000000000000000 ) ) ;
#306 = VECTOR ( 'NONE', #61, 1000.000000000000000 ) ;
#307 = CIRCLE ( 'NONE', #496, 6.049999999999999822 ) ;
#308 = ORIENTED_EDGE ( 'NONE', *, *, #272, .F. ) ;
#309 = COLOUR_RGB ( '',0.5019607843137254832, 0.000000000000000000, 0.000000000000000000 ) ;
#310 = EDGE_CURVE ( 'NONE', #20, #573, #424, .T. ) ;
#311 = DIRECTION ( 'NONE',  ( -1.000000000000000000, 0.000000000000000000, -0.000000000000000000 ) ) ;
#312 = DIRECTION ( 'NONE',  ( 1.000000000000000000, 0.000000000000000000, 0.000000000000000000 ) ) ;
#313 = ORIENTED_EDGE ( 'NONE', *, *, #205, .T. ) ;
#314 = CARTESIAN_POINT ( 'NONE',  ( 3.249999999998808509, -10.52500000000014779, 6.000000000000000000 ) ) ;
#315 =( LENGTH_UNIT ( ) NAMED_UNIT ( * ) SI_UNIT ( .MILLI., .METRE. ) );
#316 = EDGE_LOOP ( 'NONE', ( #222, #390 ) ) ;
#317 = DIRECTION ( 'NONE',  ( 0.000000000000000000, 0.000000000000000000, -1.000000000000000000 ) ) ;
#318 = UNCERTAINTY_MEASURE_WITH_UNIT (LENGTH_MEASURE( 1.000000000000000082E-05 ), #420, 'distance_accuracy_value', 'NONE');
#319 = DIRECTION ( 'NONE',  ( -0.000000000000000000, -0.000000000000000000, 1.000000000000000000 ) ) ;
#320 = VECTOR ( 'NONE', #85, 1000.000000000000000 ) ;
#321 = VERTEX_POINT ( 'NONE', #648 ) ;
#322 = AXIS2_PLACEMENT_3D ( 'NONE', #547, #108, #545 ) ;
#323 = FACE_OUTER_BOUND ( 'NONE', #686, .T. ) ;
#324 = EDGE_CURVE ( 'NONE', #39, #249, #562, .T. ) ;
#325 = ORIENTED_EDGE ( 'NONE', *, *, #527, .T. ) ;
#326 = DIRECTION ( 'NONE',  ( -1.000000000000000000, 0.000000000000000000, 0.000000000000000000 ) ) ;
#327 = ORIENTED_EDGE ( 'NONE', *, *, #144, .F. ) ;
#328 = DIRECTION ( 'NONE',  ( -1.000000000000000000, 0.000000000000000000, 0.000000000000000000 ) ) ;
#329 = LINE ( 'NONE', #620, #306 ) ;
#330 = ORIENTED_EDGE ( 'NONE', *, *, #331, .F. ) ;
#331 = EDGE_CURVE ( 'NONE', #72, #360, #340, .T. ) ;
#332 = CARTESIAN_POINT ( 'NONE',  ( -6.586706007005727059E-13, 10.52499999999985825, 6.000000000000000000 ) ) ;
#333 = CIRCLE ( 'NONE', #229, 3.000000000000000000 ) ;
#334 = ORIENTED_EDGE ( 'NONE', *, *, #248, .T. ) ;
#335 = SURFACE_STYLE_FILL_AREA ( #388 ) ;
#336 = FACE_OUTER_BOUND ( 'NONE', #452, .T. ) ;
#337 = MANIFOLD_SOLID_BREP ( 'Wytnij-wyci¹gniêcie2', #703 ) ;
#338 = VERTEX_POINT ( 'NONE', #259 ) ;
#339 = DIRECTION ( 'NONE',  ( -0.000000000000000000, -0.000000000000000000, -1.000000000000000000 ) ) ;
#340 = CIRCLE ( 'NONE', #589, 1.749999999999543476 ) ;
#341 = VECTOR ( 'NONE', #203, 1000.000000000000000 ) ;
#342 = PRESENTATION_LAYER_ASSIGNMENT (  '', '', ( #531 ) ) ;
#343 = CARTESIAN_POINT ( 'NONE',  ( -7.000000000000001776, 15.00000000000000000, 5.000000000000000000 ) ) ;
#344 = ADVANCED_FACE ( 'NONE', ( #518 ), #705, .T. ) ;
#345 = ORIENTED_EDGE ( 'NONE', *, *, #288, .F. ) ;
#346 = FACE_OUTER_BOUND ( 'NONE', #417, .T. ) ;
#347 = ORIENTED_EDGE ( 'NONE', *, *, #258, .T. ) ;
#348 = PRODUCT_DEFINITION_SHAPE ( 'NONE', 'NONE',  #262 ) ;
#349 = DIRECTION ( 'NONE',  ( 0.000000000000000000, 0.000000000000000000, -1.000000000000000000 ) ) ;
#350 = DIRECTION ( 'NONE',  ( -1.000000000000000000, 0.000000000000000000, 0.000000000000000000 ) ) ;
#351 = ORIENTED_EDGE ( 'NONE', *, *, #258, .F. ) ;
#352 = EDGE_CURVE ( 'NONE', #230, #202, #588, .T. ) ;
#353 = CIRCLE ( 'NONE', #192, 2.999999999999999112 ) ;
#354 = AXIS2_PLACEMENT_3D ( 'NONE', #294, #81, #681 ) ;
#355 = LINE ( 'NONE', #578, #320 ) ;
#356 = VERTEX_POINT ( 'NONE', #196 ) ;
#357 = FACE_BOUND ( 'NONE', #166, .T. ) ;
#358 = EDGE_CURVE ( 'NONE', #281, #375, #93, .T. ) ;
#359 = CARTESIAN_POINT ( 'NONE',  ( 6.999999999999998224, 15.00000000000000000, 5.000000000000000000 ) ) ;
#360 = VERTEX_POINT ( 'NONE', #88 ) ;
#361 = DIRECTION ( 'NONE',  ( -1.000000000000000000, 0.000000000000000000, 0.000000000000000000 ) ) ;
#362 = DIRECTION ( 'NONE',  ( -1.156482317317871478E-16, 1.000000000000000000, -0.000000000000000000 ) ) ;
#363 = EDGE_CURVE ( 'NONE', #592, #498, #505, .T. ) ;
#364 = EDGE_LOOP ( 'NONE', ( #456, #79, #183, #132, #440, #87, #524, #421 ) ) ;
#365 = DIRECTION ( 'NONE',  ( -0.000000000000000000, 0.000000000000000000, -1.000000000000000000 ) ) ;
#366 = CARTESIAN_POINT ( 'NONE',  ( 7.000000000000000888, -3.406244266050479474, 5.000000000000000000 ) ) ;
#367 = AXIS2_PLACEMENT_3D ( 'NONE', #682, #678, #568 ) ;
#368 = VECTOR ( 'NONE', #365, 1000.000000000000000 ) ;
#369 = EDGE_CURVE ( 'NONE', #159, #230, #136, .T. ) ;
#370 = ORIENTED_EDGE ( 'NONE', *, *, #100, .T. ) ;
#371 = DIRECTION ( 'NONE',  ( 1.433655765270088601E-16, -1.000000000000000000, 0.000000000000000000 ) ) ;
#372 = SURFACE_STYLE_FILL_AREA ( #204 ) ;
#373 = ORIENTED_EDGE ( 'NONE', *, *, #154, .F. ) ;
#374 = FACE_OUTER_BOUND ( 'NONE', #546, .T. ) ;
#375 = VERTEX_POINT ( 'NONE', #464 ) ;
#376 = CARTESIAN_POINT ( 'NONE',  ( -6.586706007005727059E-13, 10.52499999999985825, 6.000000000000000000 ) ) ;
#377 = ADVANCED_FACE ( 'NONE', ( #28, #357 ), #298, .T. ) ;
#378 = DIRECTION ( 'NONE',  ( -1.000000000000000000, 0.000000000000000000, 0.000000000000000000 ) ) ;
#379 = AXIS2_PLACEMENT_3D ( 'NONE', #526, #629, #137 ) ;
#380 = CARTESIAN_POINT ( 'NONE',  ( 6.999999999998247624, 3.247738307223772410E-14, 9.999999999999978684 ) ) ;
#381 = CIRCLE ( 'NONE', #604, 3.249999999999508837 ) ;
#382 = CARTESIAN_POINT ( 'NONE',  ( -1.750000000000202283, 10.52499999999985825, 14.94974746830448531 ) ) ;
#383 = VERTEX_POINT ( 'NONE', #255 ) ;
#384 = LINE ( 'NONE', #656, #530 ) ;
#385 = DIRECTION ( 'NONE',  ( 0.000000000000000000, 0.000000000000000000, -1.000000000000000000 ) ) ;
#386 = EDGE_CURVE ( 'NONE', #521, #430, #25, .T. ) ;
#387 = ORIENTED_EDGE ( 'NONE', *, *, #22, .T. ) ;
#388 = FILL_AREA_STYLE ('',( #450 ) ) ;
#389 = EDGE_CURVE ( 'NONE', #142, #469, #476, .T. ) ;
#390 = ORIENTED_EDGE ( 'NONE', *, *, #409, .F. ) ;
#391 = VECTOR ( 'NONE', #412, 1000.000000000000000 ) ;
#392 = APPLICATION_PROTOCOL_DEFINITION ( 'draft international standard', 'automotive_design', 1998, #593 ) ;
#393 =( GEOMETRIC_REPRESENTATION_CONTEXT ( 3 ) GLOBAL_UNCERTAINTY_ASSIGNED_CONTEXT ( ( #29 ) ) GLOBAL_UNIT_ASSIGNED_CONTEXT ( ( #497, #500, #663 ) ) REPRESENTATION_CONTEXT ( 'NONE', 'WORKASPACE' ) );
#394 = DIRECTION ( 'NONE',  ( 0.000000000000000000, 1.000000000000000000, 4.264124745417959303E-15 ) ) ;
#395 = ORIENTED_EDGE ( 'NONE', *, *, #409, .T. ) ;
#396 = FACE_OUTER_BOUND ( 'NONE', #124, .T. ) ;
#397 = DIRECTION ( 'NONE',  ( 0.000000000000000000, -1.000000000000000000, 0.000000000000000000 ) ) ;
#398 = ORIENTED_EDGE ( 'NONE', *, *, #225, .F. ) ;
#399 = EDGE_CURVE ( 'NONE', #466, #356, #92, .T. ) ;
#400 = DIRECTION ( 'NONE',  ( 0.000000000000000000, 1.000000000000000000, 4.047688110612550939E-15 ) ) ;
#401 = ORIENTED_EDGE ( 'NONE', *, *, #492, .F. ) ;
#402 = DIRECTION ( 'NONE',  ( -0.000000000000000000, -0.000000000000000000, -1.000000000000000000 ) ) ;
#403 = AXIS2_PLACEMENT_3D ( 'NONE', #263, #700, #697 ) ;
#404 = VECTOR ( 'NONE', #35, 1000.000000000000000 ) ;
#405 = DIRECTION ( 'NONE',  ( 0.000000000000000000, 0.000000000000000000, -1.000000000000000000 ) ) ;
#406 = EDGE_LOOP ( 'NONE', ( #477, #701 ) ) ;
#407 = DIRECTION ( 'NONE',  ( -1.000000000000000000, 0.000000000000000000, 0.000000000000000000 ) ) ;
#408 = CYLINDRICAL_SURFACE ( 'NONE', #78, 1.749999999999508393 ) ;
#409 = EDGE_CURVE ( 'NONE', #356, #466, #691, .T. ) ;
#410 = ORIENTED_EDGE ( 'NONE', *, *, #488, .T. ) ;
#411 = CARTESIAN_POINT ( 'NONE',  ( 1.749999999998884892, 10.52499999999985825, 9.999999999999946709 ) ) ;
#412 = DIRECTION ( 'NONE',  ( -0.000000000000000000, -0.000000000000000000, -1.000000000000000000 ) ) ;
#413 = VERTEX_POINT ( 'NONE', #641 ) ;
#414 = LINE ( 'NONE', #187, #441 ) ;
#415 = VECTOR ( 'NONE', #101, 1000.000000000000000 ) ;
#416 = LINE ( 'NONE', #182, #447 ) ;
#417 = EDGE_LOOP ( 'NONE', ( #334, #533, #327, #636 ) ) ;
#418 = DIRECTION ( 'NONE',  ( 0.000000000000000000, 0.000000000000000000, -1.000000000000000000 ) ) ;
#419 = CARTESIAN_POINT ( 'NONE',  ( -7.002148860735247075E-13, -10.52500000000014779, 14.94974746830448531 ) ) ;
#420 =( LENGTH_UNIT ( ) NAMED_UNIT ( * ) SI_UNIT ( .MILLI., .METRE. ) );
#421 = ORIENTED_EDGE ( 'NONE', *, *, #154, .T. ) ;
#422 = DIRECTION ( 'NONE',  ( 0.000000000000000000, 0.000000000000000000, -1.000000000000000000 ) ) ;
#423 = EDGE_CURVE ( 'NONE', #271, #592, #460, .T. ) ;
#424 = LINE ( 'NONE', #599, #503 ) ;
#425 = ORIENTED_EDGE ( 'NONE', *, *, #51, .T. ) ;
#426 = PLANE ( 'NONE',  #704 ) ;
#427 = DIRECTION ( 'NONE',  ( -0.000000000000000000, -0.000000000000000000, -1.000000000000000000 ) ) ;
#428 = AXIS2_PLACEMENT_3D ( 'NONE', #603, #481, #591 ) ;
#429 = VECTOR ( 'NONE', #13, 1000.000000000000000 ) ;
#430 = VERTEX_POINT ( 'NONE', #238 ) ;
#431 = DIRECTION ( 'NONE',  ( -4.483077151739266843E-31, 3.101181633031087724E-15, 1.000000000000000000 ) ) ;
#432 = SURFACE_SIDE_STYLE ('',( #372 ) ) ;
#433 = VERTEX_POINT ( 'NONE', #411 ) ;
#434 = EDGE_CURVE ( 'NONE', #383, #301, #680, .T. ) ;
#435 = CARTESIAN_POINT ( 'NONE',  ( -6.999999999999999112, -2.339997408803033227E-13, 9.999999999999980460 ) ) ;
#436 = EDGE_LOOP ( 'NONE', ( #150, #265, #709, #597 ) ) ;
#437 = EDGE_CURVE ( 'NONE', #254, #485, #381, .T. ) ;
#438 = DIRECTION ( 'NONE',  ( 0.000000000000000000, -1.000000000000000000, 0.000000000000000000 ) ) ;
#439 = AXIS2_PLACEMENT_3D ( 'NONE', #73, #688, #77 ) ;
#440 = ORIENTED_EDGE ( 'NONE', *, *, #180, .F. ) ;
#441 = VECTOR ( 'NONE', #634, 1000.000000000000000 ) ;
#442 = DIRECTION ( 'NONE',  ( -1.000000000000000000, 0.000000000000000000, 0.000000000000000000 ) ) ;
#443 = EDGE_CURVE ( 'NONE', #338, #159, #190, .T. ) ;
#444 = DIRECTION ( 'NONE',  ( 0.000000000000000000, -0.000000000000000000, -1.000000000000000000 ) ) ;
#445 = PRODUCT_RELATED_PRODUCT_CATEGORY ( 'part', '', ( #474 ) ) ;
#446 = LINE ( 'NONE', #232, #690 ) ;
#447 = VECTOR ( 'NONE', #130, 1000.000000000000000 ) ;
#448 = ORIENTED_EDGE ( 'NONE', *, *, #331, .T. ) ;
#449 = CIRCLE ( 'NONE', #659, 3.249999999999543920 ) ;
#450 = FILL_AREA_STYLE_COLOUR ( '', #309 ) ;
#451 = DIRECTION ( 'NONE',  ( -1.000000000000000000, 0.000000000000000000, 0.000000000000000000 ) ) ;
#452 = EDGE_LOOP ( 'NONE', ( #11, #536, #330, #153 ) ) ;
#453 = EDGE_CURVE ( 'NONE', #199, #202, #414, .T. ) ;
#454 = CARTESIAN_POINT ( 'NONE',  ( -7.000000000000001776, 12.00000000000000000, 0.000000000000000000 ) ) ;
#455 = DIRECTION ( 'NONE',  ( 0.000000000000000000, 0.000000000000000000, -1.000000000000000000 ) ) ;
#456 = ORIENTED_EDGE ( 'NONE', *, *, #443, .T. ) ;
#457 = CARTESIAN_POINT ( 'NONE',  ( -7.002148860735247075E-13, -10.52500000000014779, 6.000000000000000000 ) ) ;
#458 = DIRECTION ( 'NONE',  ( -0.000000000000000000, -0.000000000000000000, -1.000000000000000000 ) ) ;
#459 = EDGE_LOOP ( 'NONE', ( #135, #325, #395, #401 ) ) ;
#460 = LINE ( 'NONE', #76, #368 ) ;
#461 = ADVANCED_FACE ( 'NONE', ( #628, #580 ), #585, .F. ) ;
#462 = CARTESIAN_POINT ( 'NONE',  ( 6.999999999999998224, 15.00000000000000000, 0.000000000000000000 ) ) ;
#463 = ORIENTED_EDGE ( 'NONE', *, *, #443, .F. ) ;
#464 = CARTESIAN_POINT ( 'NONE',  ( 1.749999999998808287, -10.52500000000014779, 6.000000000000000000 ) ) ;
#465 = CARTESIAN_POINT ( 'NONE',  ( -4.000000000000001776, 15.00000000000000000, 0.000000000000000000 ) ) ;
#466 = VERTEX_POINT ( 'NONE', #208 ) ;
#467 = CARTESIAN_POINT ( 'NONE',  ( -7.002148860735247075E-13, -10.52500000000014779, 0.000000000000000000 ) ) ;
#468 = CARTESIAN_POINT ( 'NONE',  ( 6.999999999998248512, 15.00000000000000000, 9.999999999999932498 ) ) ;
#469 = VERTEX_POINT ( 'NONE', #490 ) ;
#470 = DIRECTION ( 'NONE',  ( -1.000000000000000000, 0.000000000000000000, 0.000000000000000000 ) ) ;
#471 = AXIS2_PLACEMENT_3D ( 'NONE', #184, #244, #407 ) ;
#472 = CARTESIAN_POINT ( 'NONE',  ( -7.002148860735247075E-13, -10.52500000000014779, 14.94974746830448531 ) ) ;
#473 = ORIENTED_EDGE ( 'NONE', *, *, #235, .F. ) ;
#474 = PRODUCT ( '010_016_Motor_lock', '010_016_Motor_lock', '', ( #86 ) ) ;
#475 = ADVANCED_FACE ( 'NONE', ( #213 ), #257, .F. ) ;
#476 = LINE ( 'NONE', #200, #484 ) ;
#477 = ORIENTED_EDGE ( 'NONE', *, *, #437, .T. ) ;
#478 = CARTESIAN_POINT ( 'NONE',  ( -3.250000000000209166, -10.52500000000014779, 6.000000000000000000 ) ) ;
#479 = ORIENTED_EDGE ( 'NONE', *, *, #299, .T. ) ;
#480 = CYLINDRICAL_SURFACE ( 'NONE', #34, 6.049999999999999822 ) ;
#481 = DIRECTION ( 'NONE',  ( -4.483077151739266843E-31, 3.101181633031087724E-15, 1.000000000000000000 ) ) ;
#482 = CIRCLE ( 'NONE', #550, 3.249999999999543920 ) ;
#483 = EDGE_CURVE ( 'NONE', #485, #254, #563, .T. ) ;
#484 = VECTOR ( 'NONE', #522, 1000.000000000000000 ) ;
#485 = VERTEX_POINT ( 'NONE', #314 ) ;
#486 = CARTESIAN_POINT ( 'NONE',  ( 0.000000000000000000, 0.000000000000000000, 5.000000000000000000 ) ) ;
#487 = CARTESIAN_POINT ( 'NONE',  ( -6.586706007005727059E-13, 10.52499999999985825, 6.000000000000000000 ) ) ;
#488 = EDGE_CURVE ( 'NONE', #521, #142, #449, .T. ) ;
#489 = LINE ( 'NONE', #380, #252 ) ;
#490 = CARTESIAN_POINT ( 'NONE',  ( 3.249999999998885336, 10.52499999999985825, 0.000000000000000000 ) ) ;
#491 = ORIENTED_EDGE ( 'NONE', *, *, #643, .T. ) ;
#492 = EDGE_CURVE ( 'NONE', #254, #466, #41, .T. ) ;
#493 = CARTESIAN_POINT ( 'NONE',  ( -6.999999999999999112, 3.003008932549783252E-14, 9.999999999999978684 ) ) ;
#494 = PRESENTATION_LAYER_ASSIGNMENT (  '', '', ( #621 ) ) ;
#495 = FACE_OUTER_BOUND ( 'NONE', #284, .T. ) ;
#496 = AXIS2_PLACEMENT_3D ( 'NONE', #435, #537, #371 ) ;
#497 =( LENGTH_UNIT ( ) NAMED_UNIT ( * ) SI_UNIT ( .MILLI., .METRE. ) );
#498 = VERTEX_POINT ( 'NONE', #645 ) ;
#499 = CYLINDRICAL_SURFACE ( 'NONE', #286, 6.049999999999999822 ) ;
#500 =( NAMED_UNIT ( * ) PLANE_ANGLE_UNIT ( ) SI_UNIT ( $, .RADIAN. ) );
#501 = DIRECTION ( 'NONE',  ( -1.000000000000000000, -1.445602896647339656E-16, 0.000000000000000000 ) ) ;
#502 = EDGE_CURVE ( 'NONE', #281, #20, #576, .T. ) ;
#503 = VECTOR ( 'NONE', #427, 1000.000000000000000 ) ;
#504 = VERTEX_POINT ( 'NONE', #711 ) ;
#505 = CIRCLE ( 'NONE', #287, 3.000000000000000000 ) ;
#506 = DIRECTION ( 'NONE',  ( 0.000000000000000000, -0.000000000000000000, 1.000000000000000000 ) ) ;
#507 = PRODUCT_DEFINITION_FORMATION_WITH_SPECIFIED_SOURCE ( 'ANY', '', #474, .NOT_KNOWN. ) ;
#508 = FACE_OUTER_BOUND ( 'NONE', #291, .T. ) ;
#509 = EDGE_LOOP ( 'NONE', ( #410, #313 ) ) ;
#510 = FACE_OUTER_BOUND ( 'NONE', #683, .T. ) ;
#511 = CARTESIAN_POINT ( 'NONE',  ( -6.999999999999997335, -12.00000000000000000, 9.999999999999936051 ) ) ;
#512 = EDGE_LOOP ( 'NONE', ( #345, #706, #528, #515 ) ) ;
#513 = ADVANCED_FACE ( 'NONE', ( #374 ), #480, .F. ) ;
#514 = CYLINDRICAL_SURFACE ( 'NONE', #665, 1.749999999999508393 ) ;
#515 = ORIENTED_EDGE ( 'NONE', *, *, #100, .F. ) ;
#516 =( GEOMETRIC_REPRESENTATION_CONTEXT ( 3 ) GLOBAL_UNCERTAINTY_ASSIGNED_CONTEXT ( ( #638 ) ) GLOBAL_UNIT_ASSIGNED_CONTEXT ( ( #315, #532, #148 ) ) REPRESENTATION_CONTEXT ( 'NONE', 'WORKASPACE' ) );
#517 = CIRCLE ( 'NONE', #207, 1.749999999999508393 ) ;
#518 = FACE_OUTER_BOUND ( 'NONE', #512, .T. ) ;
#519 = EDGE_CURVE ( 'NONE', #592, #338, #713, .T. ) ;
#520 = CARTESIAN_POINT ( 'NONE',  ( 19.62597212172011396, -3.406244266050475034, 5.000000000000000000 ) ) ;
#521 = VERTEX_POINT ( 'NONE', #606 ) ;
#522 = DIRECTION ( 'NONE',  ( -0.000000000000000000, -0.000000000000000000, -1.000000000000000000 ) ) ;
#523 = FACE_OUTER_BOUND ( 'NONE', #406, .T. ) ;
#524 = ORIENTED_EDGE ( 'NONE', *, *, #218, .F. ) ;
#525 = DIRECTION ( 'NONE',  ( 4.483077151739266843E-31, -3.101181633031087724E-15, -1.000000000000000000 ) ) ;
#526 = CARTESIAN_POINT ( 'NONE',  ( -7.002148860735247075E-13, -10.52500000000014779, 10.00000000000001243 ) ) ;
#527 = EDGE_CURVE ( 'NONE', #485, #356, #384, .T. ) ;
#528 = ORIENTED_EDGE ( 'NONE', *, *, #643, .F. ) ;
#529 = VECTOR ( 'NONE', #245, 1000.000000000000000 ) ;
#530 = VECTOR ( 'NONE', #609, 1000.000000000000000 ) ;
#531 = STYLED_ITEM ( 'NONE', ( #560 ), #40 ) ;
#532 =( NAMED_UNIT ( * ) PLANE_ANGLE_UNIT ( ) SI_UNIT ( $, .RADIAN. ) );
#533 = ORIENTED_EDGE ( 'NONE', *, *, #358, .T. ) ;
#534 = DIRECTION ( 'NONE',  ( -0.000000000000000000, 0.000000000000000000, 1.000000000000000000 ) ) ;
#535 = APPLICATION_PROTOCOL_DEFINITION ( 'draft international standard', 'automotive_design', 1998, #228 ) ;
#536 = ORIENTED_EDGE ( 'NONE', *, *, #235, .T. ) ;
#537 = DIRECTION ( 'NONE',  ( -1.000000000000000000, -1.402467149732824259E-16, -1.232595164407830946E-32 ) ) ;
#538 = ADVANCED_FACE ( 'NONE', ( #216 ), #155, .F. ) ;
#539 = ORIENTED_EDGE ( 'NONE', *, *, #363, .T. ) ;
#540 = FACE_OUTER_BOUND ( 'NONE', #15, .T. ) ;
#541 = EDGE_CURVE ( 'NONE', #618, #72, #273, .T. ) ;
#542 = DIRECTION ( 'NONE',  ( -1.000000000000000000, 0.000000000000000000, 0.000000000000000000 ) ) ;
#543 = VECTOR ( 'NONE', #302, 1000.000000000000000 ) ;
#544 = CARTESIAN_POINT ( 'NONE',  ( -6.586706007005727059E-13, 10.52499999999985825, 0.000000000000000000 ) ) ;
#545 = DIRECTION ( 'NONE',  ( -1.000000000000000000, 0.000000000000000000, 0.000000000000000000 ) ) ;
#546 = EDGE_LOOP ( 'NONE', ( #7, #24, #27, #96 ) ) ;
#547 = CARTESIAN_POINT ( 'NONE',  ( -7.002148860735247075E-13, -10.52500000000014779, 6.000000000000000000 ) ) ;
#548 = EDGE_LOOP ( 'NONE', ( #649, #274, #139, #297, #98 ) ) ;
#549 = CARTESIAN_POINT ( 'NONE',  ( -6.999999999999997335, -15.00000000000000000, 5.000000000000000000 ) ) ;
#550 = AXIS2_PLACEMENT_3D ( 'NONE', #544, #49, #269 ) ;
#551 = CARTESIAN_POINT ( 'NONE',  ( 6.999999999998248512, -15.00000000000000000, 9.999999999999921840 ) ) ;
#552 = AXIS2_PLACEMENT_3D ( 'NONE', #332, #8, #554 ) ;
#553 = ORIENTED_EDGE ( 'NONE', *, *, #502, .F. ) ;
#554 = DIRECTION ( 'NONE',  ( -1.000000000000000000, 0.000000000000000000, 0.000000000000000000 ) ) ;
#555 = CARTESIAN_POINT ( 'NONE',  ( 19.62597212172011396, -6.050000000000225420, 9.999999999999960920 ) ) ;
#556 = ORIENTED_EDGE ( 'NONE', *, *, #205, .F. ) ;
#557 = FACE_OUTER_BOUND ( 'NONE', #644, .T. ) ;
#558 = EDGE_CURVE ( 'NONE', #36, #321, #307, .T. ) ;
#559 = CARTESIAN_POINT ( 'NONE',  ( -6.586706007005727059E-13, 10.52499999999985825, 14.94974746830448531 ) ) ;
#560 = PRESENTATION_STYLE_ASSIGNMENT (( #62 ) ) ;
#561 = CARTESIAN_POINT ( 'NONE',  ( 19.62597212172011396, 6.049999999999777778, 9.999999999999960920 ) ) ;
#562 = CIRCLE ( 'NONE', #91, 6.049999999999999822 ) ;
#563 = CIRCLE ( 'NONE', #253, 3.249999999999508837 ) ;
#564 = DIRECTION ( 'NONE',  ( -0.000000000000000000, -0.000000000000000000, -1.000000000000000000 ) ) ;
#565 = DIRECTION ( 'NONE',  ( -4.483077151739266843E-31, 3.101181633031087724E-15, 1.000000000000000000 ) ) ;
#566 = EDGE_CURVE ( 'NONE', #210, #36, #595, .T. ) ;
#567 = ORIENTED_EDGE ( 'NONE', *, *, #16, .F. ) ;
#568 = DIRECTION ( 'NONE',  ( -1.000000000000000000, 0.000000000000000000, 0.000000000000000000 ) ) ;
#569 = ORIENTED_EDGE ( 'NONE', *, *, #386, .T. ) ;
#570 = ADVANCED_FACE ( 'NONE', ( #323 ), #111, .T. ) ;
#571 = DIRECTION ( 'NONE',  ( 1.000000000000000000, 1.156482317317871331E-15, 0.000000000000000000 ) ) ;
#572 = DIRECTION ( 'NONE',  ( -1.000000000000000000, 0.000000000000000000, -0.000000000000000000 ) ) ;
#573 = VERTEX_POINT ( 'NONE', #38 ) ;
#574 = AXIS2_PLACEMENT_3D ( 'NONE', #343, #716, #444 ) ;
#575 = VECTOR ( 'NONE', #280, 1000.000000000000000 ) ;
#576 = CIRCLE ( 'NONE', #267, 1.749999999999508837 ) ;
#577 = DIRECTION ( 'NONE',  ( -1.000000000000000000, -0.000000000000000000, -0.000000000000000000 ) ) ;
#578 = CARTESIAN_POINT ( 'NONE',  ( -6.999999999999999112, -4.362297445899249734E-14, 9.999999999999985789 ) ) ;
#579 = ORIENTED_EDGE ( 'NONE', *, *, #696, .T. ) ;
#580 = FACE_OUTER_BOUND ( 'NONE', #548, .T. ) ;
#581 = ADVANCED_FACE ( 'NONE', ( #702, #99, #540 ), #426, .F. ) ;
#582 = CARTESIAN_POINT ( 'NONE',  ( -3.250000000000209166, -10.52500000000014779, 6.000000000000000000 ) ) ;
#583 = DIRECTION ( 'NONE',  ( 0.000000000000000000, 0.000000000000000000, 1.000000000000000000 ) ) ;
#584 = ORIENTED_EDGE ( 'NONE', *, *, #16, .T. ) ;
#585 = PLANE ( 'NONE',  #57 ) ;
#586 = DIRECTION ( 'NONE',  ( 1.156482317317871478E-16, -1.000000000000000000, 0.000000000000000000 ) ) ;
#587 = ORIENTED_EDGE ( 'NONE', *, *, #710, .F. ) ;
#588 = LINE ( 'NONE', #140, #666 ) ;
#589 = AXIS2_PLACEMENT_3D ( 'NONE', #708, #158, #378 ) ;
#590 = AXIS2_PLACEMENT_3D ( 'NONE', #549, #167, #506 ) ;
#591 = DIRECTION ( 'NONE',  ( 0.000000000000000000, 1.000000000000000000, -2.891205793294679411E-15 ) ) ;
#592 = VERTEX_POINT ( 'NONE', #97 ) ;
#593 = APPLICATION_CONTEXT ( 'automotive_design' ) ;
#594 = EDGE_CURVE ( 'NONE', #618, #433, #668, .T. ) ;
#595 = LINE ( 'NONE', #493, #715 ) ;
#596 = CARTESIAN_POINT ( 'NONE',  ( 1.749999999998808509, -10.52500000000014779, 10.00000000000001243 ) ) ;
#597 = ORIENTED_EDGE ( 'NONE', *, *, #399, .T. ) ;
#598 = DIRECTION ( 'NONE',  ( 0.000000000000000000, 1.000000000000000000, -2.973811673103932378E-15 ) ) ;
#599 = CARTESIAN_POINT ( 'NONE',  ( -1.750000000000208722, -10.52500000000014779, 14.94974746830448531 ) ) ;
#600 = ORIENTED_EDGE ( 'NONE', *, *, #279, .T. ) ;
#601 = CARTESIAN_POINT ( 'NONE',  ( -6.586706007005727059E-13, 10.52499999999985825, 9.999999999999946709 ) ) ;
#602 = CIRCLE ( 'NONE', #126, 1.749999999999543476 ) ;
#603 = CARTESIAN_POINT ( 'NONE',  ( -4.000000000000001776, 12.00000000000000000, 9.999999999999943157 ) ) ;
#604 = AXIS2_PLACEMENT_3D ( 'NONE', #133, #349, #361 ) ;
#605 = DIRECTION ( 'NONE',  ( -1.110223024625157280E-16, 1.000000000000000000, -3.101181633031087724E-15 ) ) ;
#606 = CARTESIAN_POINT ( 'NONE',  ( -3.250000000000202949, 10.52499999999985825, 6.000000000000000000 ) ) ;
#607 = ADVANCED_FACE ( 'NONE', ( #396 ), #114, .F. ) ;
#608 = ORIENTED_EDGE ( 'NONE', *, *, #389, .F. ) ;
#609 = DIRECTION ( 'NONE',  ( -0.000000000000000000, -0.000000000000000000, -1.000000000000000000 ) ) ;
#610 = ADVANCED_FACE ( 'NONE', ( #677 ), #121, .F. ) ;
#611 = DIRECTION ( 'NONE',  ( -1.000000000000000000, 0.000000000000000000, 0.000000000000000000 ) ) ;
#612 = SURFACE_SIDE_STYLE ('',( #335 ) ) ;
#613 = AXIS2_PLACEMENT_3D ( 'NONE', #487, #319, #542 ) ;
#614 = EDGE_CURVE ( 'NONE', #199, #159, #278, .T. ) ;
#615 = ORIENTED_EDGE ( 'NONE', *, *, #558, .F. ) ;
#616 = CARTESIAN_POINT ( 'NONE',  ( -7.000000000000001776, 15.00000000000000000, 0.000000000000000000 ) ) ;
#617 = LINE ( 'NONE', #58, #264 ) ;
#618 = VERTEX_POINT ( 'NONE', #60 ) ;
#619 = ADVANCED_FACE ( 'NONE', ( #557 ), #10, .F. ) ;
#620 = CARTESIAN_POINT ( 'NONE',  ( 19.62597212172011751, -14.99999999999999822, 9.999999999999921840 ) ) ;
#621 = STYLED_ITEM ( 'NONE', ( #94 ), #337 ) ;
#622 = DIRECTION ( 'NONE',  ( -0.000000000000000000, -0.000000000000000000, 1.000000000000000000 ) ) ;
#623 = CARTESIAN_POINT ( 'NONE',  ( -3.999999999999996447, 14.99999999999999822, 9.999999999999932498 ) ) ;
#624 = ORIENTED_EDGE ( 'NONE', *, *, #48, .F. ) ;
#625 = CARTESIAN_POINT ( 'NONE',  ( -7.000000000000001776, 15.00000000000000000, 0.000000000000000000 ) ) ;
#626 = DIRECTION ( 'NONE',  ( -0.000000000000000000, -0.000000000000000000, -1.000000000000000000 ) ) ;
#627 = EDGE_LOOP ( 'NONE', ( #579, #9, #351, #246, #304, #615, #655, #370 ) ) ;
#628 = FACE_BOUND ( 'NONE', #194, .T. ) ;
#629 = DIRECTION ( 'NONE',  ( -4.483077151739266843E-31, 3.101181633031087724E-15, 1.000000000000000000 ) ) ;
#630 = ORIENTED_EDGE ( 'NONE', *, *, #33, .F. ) ;
#631 = CIRCLE ( 'NONE', #439, 3.249999999999543920 ) ;
#632 = AXIS2_PLACEMENT_3D ( 'NONE', #64, #223, #220 ) ;
#633 = ADVANCED_FACE ( 'NONE', ( #231 ), #70, .F. ) ;
#634 = DIRECTION ( 'NONE',  ( -1.000000000000000000, -1.445602896647339656E-16, 0.000000000000000000 ) ) ;
#635 = DIRECTION ( 'NONE',  ( -1.110223024625156171E-16, 1.000000000000000000, 4.264124745417959303E-15 ) ) ;
#636 = ORIENTED_EDGE ( 'NONE', *, *, #310, .F. ) ;
#637 = DIRECTION ( 'NONE',  ( -1.000000000000000000, 0.000000000000000000, 0.000000000000000000 ) ) ;
#638 = UNCERTAINTY_MEASURE_WITH_UNIT (LENGTH_MEASURE( 1.000000000000000082E-05 ), #315, 'distance_accuracy_value', 'NONE');
#639 = PLANE ( 'NONE',  #239 ) ;
#640 = ORIENTED_EDGE ( 'NONE', *, *, #502, .T. ) ;
#641 = CARTESIAN_POINT ( 'NONE',  ( -6.999999999999998224, -3.406244266050481695, 5.000000000000000000 ) ) ;
#642 = SURFACE_STYLE_USAGE ( .BOTH. , #432 ) ;
#643 = EDGE_CURVE ( 'NONE', #679, #230, #333, .T. ) ;
#644 = EDGE_LOOP ( 'NONE', ( #473, #226, #698, #293 ) ) ;
#645 = CARTESIAN_POINT ( 'NONE',  ( -6.999999999999997335, -12.00000000000000000, 0.000000000000000000 ) ) ;
#646 = VECTOR ( 'NONE', #635, 1000.000000000000000 ) ;
#647 = AXIS2_PLACEMENT_3D ( 'NONE', #125, #339, #282 ) ;
#648 = CARTESIAN_POINT ( 'NONE',  ( -7.000000000000000000, 3.406244266050010960, 5.000000000000000000 ) ) ;
#649 = ORIENTED_EDGE ( 'NONE', *, *, #453, .T. ) ;
#650 = CARTESIAN_POINT ( 'NONE',  ( -6.999999999999997335, -15.00000000000000000, 0.000000000000000000 ) ) ;
#651 = FILL_AREA_STYLE_COLOUR ( '', #215 ) ;
#652 = ORIENTED_EDGE ( 'NONE', *, *, #614, .T. ) ;
#653 = DIRECTION ( 'NONE',  ( 1.000000000000000000, 0.000000000000000000, 0.000000000000000000 ) ) ;
#654 = CARTESIAN_POINT ( 'NONE',  ( -6.999999999999997335, -12.00000000000000000, 5.000000000000000000 ) ) ;
#655 = ORIENTED_EDGE ( 'NONE', *, *, #566, .F. ) ;
#656 = CARTESIAN_POINT ( 'NONE',  ( 3.249999999998808509, -10.52500000000014779, 6.000000000000000000 ) ) ;
#657 = ADVANCED_FACE ( 'NONE', ( #510 ), #234, .T. ) ;
#658 = AXIS2_PLACEMENT_3D ( 'NONE', #675, #455, #611 ) ;
#659 = AXIS2_PLACEMENT_3D ( 'NONE', #211, #164, #442 ) ;
#660 = ORIENTED_EDGE ( 'NONE', *, *, #369, .T. ) ;
#661 = CARTESIAN_POINT ( 'NONE',  ( 19.62597212172011396, -2.301506826377823538E-13, 9.999999999999980460 ) ) ;
#662 = CYLINDRICAL_SURFACE ( 'NONE', #295, 1.749999999999543476 ) ;
#663 =( NAMED_UNIT ( * ) SI_UNIT ( $, .STERADIAN. ) SOLID_ANGLE_UNIT ( ) );
#664 = DIRECTION ( 'NONE',  ( -1.000000000000000000, -1.445602896647339656E-16, 0.000000000000000000 ) ) ;
#665 = AXIS2_PLACEMENT_3D ( 'NONE', #472, #458, #18 ) ;
#666 = VECTOR ( 'NONE', #687, 1000.000000000000000 ) ;
#667 = CARTESIAN_POINT ( 'NONE',  ( -6.586706007005727059E-13, 10.52499999999985825, 9.999999999999946709 ) ) ;
#668 = CIRCLE ( 'NONE', #266, 1.749999999999543476 ) ;
#669 = ORIENTED_EDGE ( 'NONE', *, *, #2, .T. ) ;
#670 = AXIS2_PLACEMENT_3D ( 'NONE', #198, #583, #312 ) ;
#671 = CARTESIAN_POINT ( 'NONE',  ( -4.000000000000001776, 12.00000000000000000, 0.000000000000000000 ) ) ;
#672 = CARTESIAN_POINT ( 'NONE',  ( -1.750000000000202283, 10.52499999999985825, 6.000000000000000000 ) ) ;
#673 = EDGE_LOOP ( 'NONE', ( #233, #553 ) ) ;
#674 = LINE ( 'NONE', #616, #429 ) ;
#675 = CARTESIAN_POINT ( 'NONE',  ( -6.586706007005727059E-13, 10.52499999999985825, 0.000000000000000000 ) ) ;
#676 = ORIENTED_EDGE ( 'NONE', *, *, #48, .T. ) ;
#677 = FACE_OUTER_BOUND ( 'NONE', #74, .T. ) ;
#678 = DIRECTION ( 'NONE',  ( -0.000000000000000000, -0.000000000000000000, 1.000000000000000000 ) ) ;
#679 = VERTEX_POINT ( 'NONE', #454 ) ;
#680 = CIRCLE ( 'NONE', #354, 6.049999999999999822 ) ;
#681 = DIRECTION ( 'NONE',  ( 1.433655765270088601E-16, -1.000000000000000000, -3.440773836648212644E-15 ) ) ;
#682 = CARTESIAN_POINT ( 'NONE',  ( -7.002148860735247075E-13, -10.52500000000014779, 6.000000000000000000 ) ) ;
#683 = EDGE_LOOP ( 'NONE', ( #567, #308, #59, #43 ) ) ;
#684 = CARTESIAN_POINT ( 'NONE',  ( 6.999999999999998224, 15.00000000000000000, 0.000000000000000000 ) ) ;
#685 = LINE ( 'NONE', #188, #391 ) ;
#686 = EDGE_LOOP ( 'NONE', ( #146, #398, #214, #69 ) ) ;
#687 = DIRECTION ( 'NONE',  ( -0.000000000000000000, -0.000000000000000000, 1.000000000000000000 ) ) ;
#688 = DIRECTION ( 'NONE',  ( 0.000000000000000000, 0.000000000000000000, -1.000000000000000000 ) ) ;
#689 = ORIENTED_EDGE ( 'NONE', *, *, #225, .T. ) ;
#690 = VECTOR ( 'NONE', #385, 1000.000000000000000 ) ;
#691 = CIRCLE ( 'NONE', #105, 3.249999999999508837 ) ;
#692 = DIRECTION ( 'NONE',  ( 0.000000000000000000, 0.000000000000000000, -1.000000000000000000 ) ) ;
#693 = DIRECTION ( 'NONE',  ( -1.445602896647339410E-16, 1.000000000000000000, 0.000000000000000000 ) ) ;
#694 = EDGE_LOOP ( 'NONE', ( #347, #584, #624, #54, #425 ) ) ;
#695 = CARTESIAN_POINT ( 'NONE',  ( -6.586706007005727059E-13, 10.52499999999985825, 6.000000000000000000 ) ) ;
#696 = EDGE_CURVE ( 'NONE', #679, #498, #674, .T. ) ;
#697 = DIRECTION ( 'NONE',  ( 1.433655765270088601E-16, -1.000000000000000000, 0.000000000000000000 ) ) ;
#698 = ORIENTED_EDGE ( 'NONE', *, *, #541, .T. ) ;
#699 = DIRECTION ( 'NONE',  ( 0.000000000000000000, 1.000000000000000000, -3.101181633031087724E-15 ) ) ;
#700 = DIRECTION ( 'NONE',  ( -1.000000000000000000, -1.402467149732824259E-16, -1.232595164407830946E-32 ) ) ;
#701 = ORIENTED_EDGE ( 'NONE', *, *, #483, .T. ) ;
#702 = FACE_BOUND ( 'NONE', #316, .T. ) ;
#703 = CLOSED_SHELL ( 'NONE', ( #633, #538, #68, #175, #131, #619, #570, #122, #55, #162, #607, #581, #461, #513, #37, #89, #657, #344, #377, #610, #195, #475 ) ) ;
#704 = AXIS2_PLACEMENT_3D ( 'NONE', #45, #268, #653 ) ;
#705 = CYLINDRICAL_SURFACE ( 'NONE', #471, 3.000000000000000000 ) ;
#706 = ORIENTED_EDGE ( 'NONE', *, *, #352, .F. ) ;
#707 = DIRECTION ( 'NONE',  ( -1.000000000000000000, 0.000000000000000000, 0.000000000000000000 ) ) ;
#708 = CARTESIAN_POINT ( 'NONE',  ( -6.586706007005727059E-13, 10.52499999999985825, 6.000000000000000000 ) ) ;
#709 = ORIENTED_EDGE ( 'NONE', *, *, #492, .T. ) ;
#710 = EDGE_CURVE ( 'NONE', #375, #573, #517, .T. ) ;
#711 = CARTESIAN_POINT ( 'NONE',  ( -6.999999999999998224, -6.050000000000228972, 9.999999999999960920 ) ) ;
#712 = ORIENTED_EDGE ( 'NONE', *, *, #696, .F. ) ;
#713 = LINE ( 'NONE', #650, #127 ) ;
#714 = VECTOR ( 'NONE', #120, 1000.000000000000000 ) ;
#715 = VECTOR ( 'NONE', #157, 1000.000000000000000 ) ;
#716 = DIRECTION ( 'NONE',  ( 0.000000000000000000, -1.000000000000000000, 0.000000000000000000 ) ) ;
ENDSEC;
END-ISO-10303-21;
