ISO-10303-21;
HEADER;
FILE_DESCRIPTION (( 'STEP AP214' ),
    '1' );
FILE_NAME ('010_019_Left_right_bearing_mount_back_1.STEP',
    '2024-07-21T08:39:08',
    ( '' ),
    ( '' ),
    'SwSTEP 2.0',
    'SolidWorks 2019',
    '' );
FILE_SCHEMA (( 'AUTOMOTIVE_DESIGN' ));
ENDSEC;

DATA;
#1 = CARTESIAN_POINT ( 'NONE',  ( 20.80780169916289069, 46.37848132003392010, -89.69999999999970441 ) ) ;
#2 = DIRECTION ( 'NONE',  ( 0.2382055930957892309, 0.9712147524712974045, -0.000000000000000000 ) ) ;
#3 = DIRECTION ( 'NONE',  ( -0.9712147524712974045, 0.2382055930957887313, -8.940471199700127629E-16 ) ) ;
#4 = ORIENTED_EDGE ( 'NONE', *, *, #112, .F. ) ;
#5 = CARTESIAN_POINT ( 'NONE',  ( 24.00448311046021743, 55.89082921731998965, -89.69999999999998863 ) ) ;
#6 = DIRECTION ( 'NONE',  ( -0.2382055930957887313, -0.9712147524712974045, 0.000000000000000000 ) ) ;
#7 = ORIENTED_EDGE ( 'NONE', *, *, #439, .F. ) ;
#8 = ORIENTED_EDGE ( 'NONE', *, *, #1103, .F. ) ;
#9 = EDGE_CURVE ( 'NONE', #211, #988, #315, .T. ) ;
#10 = CARTESIAN_POINT ( 'NONE',  ( 24.00448311046021743, 55.89082921731998965, 16.00000000000000000 ) ) ;
#11 = FACE_OUTER_BOUND ( 'NONE', #171, .T. ) ;
#12 = VECTOR ( 'NONE', #359, 1000.000000000000000 ) ;
#13 = CARTESIAN_POINT ( 'NONE',  ( 4.949999999999999289, 6.062001655779397525E-16, 0.000000000000000000 ) ) ;
#14 = AXIS2_PLACEMENT_3D ( 'NONE', #762, #1128, #285 ) ;
#15 =( NAMED_UNIT ( * ) SI_UNIT ( $, .STERADIAN. ) SOLID_ANGLE_UNIT ( ) );
#16 = VECTOR ( 'NONE', #765, 1000.000000000000114 ) ;
#17 = ORIENTED_EDGE ( 'NONE', *, *, #217, .T. ) ;
#18 = CIRCLE ( 'NONE', #472, 2.249999999999997335 ) ;
#19 = LINE ( 'NONE', #288, #562 ) ;
#20 = LINE ( 'NONE', #729, #699 ) ;
#21 = LINE ( 'NONE', #291, #489 ) ;
#22 = VERTEX_POINT ( 'NONE', #442 ) ;
#23 = ORIENTED_EDGE ( 'NONE', *, *, #914, .F. ) ;
#24 = CARTESIAN_POINT ( 'NONE',  ( 3.012757610415866427, 50.74299392709592382, -2.000000000000057288 ) ) ;
#25 = ADVANCED_FACE ( 'NONE', ( #986, #801, #1069 ), #252, .F. ) ;
#26 = EDGE_CURVE ( 'NONE', #995, #839, #1133, .T. ) ;
#27 = LINE ( 'NONE', #747, #1039 ) ;
#28 = ORIENTED_EDGE ( 'NONE', *, *, #932, .T. ) ;
#29 = DIRECTION ( 'NONE',  ( 0.2382055930957892309, 0.9712147524712974045, -0.000000000000000000 ) ) ;
#30 = CARTESIAN_POINT ( 'NONE',  ( 15.17858423098840071, 9.662514204014513552, -64.19999999999997442 ) ) ;
#31 = EDGE_CURVE ( 'NONE', #457, #1021, #915, .T. ) ;
#32 = DIRECTION ( 'NONE',  ( -0.9712147524712972935, 0.2382055930957892032, 0.000000000000000000 ) ) ;
#33 = ORIENTED_EDGE ( 'NONE', *, *, #615, .T. ) ;
#34 = VECTOR ( 'NONE', #1052, 1000.000000000000114 ) ;
#35 = CIRCLE ( 'NONE', #184, 2.249999999999998224 ) ;
#36 = VERTEX_POINT ( 'NONE', #821 ) ;
#37 = LINE ( 'NONE', #867, #1040 ) ;
#38 = DIRECTION ( 'NONE',  ( 1.000000000000000000, 0.000000000000000000, -0.000000000000000000 ) ) ;
#39 = VERTEX_POINT ( 'NONE', #162 ) ;
#40 = CARTESIAN_POINT ( 'NONE',  ( 22.67790999250874151, 14.00101776199361581, -64.19999999999997442 ) ) ;
#41 = CARTESIAN_POINT ( 'NONE',  ( -4.371615775553372885, 20.63533660048499740, -89.69999999999970441 ) ) ;
#42 = EDGE_LOOP ( 'NONE', ( #688, #1121, #798, #903 ) ) ;
#43 = EDGE_CURVE ( 'NONE', #957, #1005, #456, .T. ) ;
#44 = LINE ( 'NONE', #961, #643 ) ;
#45 = DIRECTION ( 'NONE',  ( 0.2382055930957892032, 0.9712147524712972935, -0.000000000000000000 ) ) ;
#46 = ADVANCED_FACE ( 'NONE', ( #367 ), #174, .T. ) ;
#47 = ORIENTED_EDGE ( 'NONE', *, *, #81, .T. ) ;
#48 = VECTOR ( 'NONE', #632, 1000.000000000000114 ) ;
#49 = CIRCLE ( 'NONE', #698, 2.250000000000004441 ) ;
#50 = VECTOR ( 'NONE', #650, 1000.000000000000114 ) ;
#51 = DIRECTION ( 'NONE',  ( -0.2382055930957891476, -0.9712147524712972935, 3.988211689748261732E-18 ) ) ;
#52 = DIRECTION ( 'NONE',  ( -0.1561945666727420079, -0.9877263068997981232, 0.000000000000000000 ) ) ;
#53 = VERTEX_POINT ( 'NONE', #1096 ) ;
#54 = ORIENTED_EDGE ( 'NONE', *, *, #905, .F. ) ;
#55 = DIRECTION ( 'NONE',  ( -0.000000000000000000, 0.000000000000000000, 1.000000000000000000 ) ) ;
#56 = CARTESIAN_POINT ( 'NONE',  ( 4.580188061034265345, 60.65494107923573353, 16.00000000000000000 ) ) ;
#57 = EDGE_CURVE ( 'NONE', #243, #576, #524, .T. ) ;
#58 = ORIENTED_EDGE ( 'NONE', *, *, #470, .T. ) ;
#59 = ORIENTED_EDGE ( 'NONE', *, *, #891, .T. ) ;
#60 = CARTESIAN_POINT ( 'NONE',  ( 18.29347284096899529, 15.07636947943429995, -84.69999999999971863 ) ) ;
#61 = FACE_OUTER_BOUND ( 'NONE', #666, .T. ) ;
#62 = ORIENTED_EDGE ( 'NONE', *, *, #74, .F. ) ;
#63 = CARTESIAN_POINT ( 'NONE',  ( -11.48770512169072155, -8.378469763387519365, -79.69999999999971863 ) ) ;
#64 = ORIENTED_EDGE ( 'NONE', *, *, #318, .T. ) ;
#65 = VECTOR ( 'NONE', #818, 1000.000000000000114 ) ;
#66 = DIRECTION ( 'NONE',  ( -0.2382055930957892587, -0.9712147524712974045, -0.000000000000000000 ) ) ;
#67 = COLOUR_RGB ( '',0.5019607843137254832, 0.000000000000000000, 0.5019607843137254832 ) ;
#68 = VECTOR ( 'NONE', #1090, 1000.000000000000000 ) ;
#69 = DIRECTION ( 'NONE',  ( -0.9712147524712974045, 0.2382055930957893974, 0.000000000000000000 ) ) ;
#70 = VECTOR ( 'NONE', #283, 1000.000000000000114 ) ;
#71 = CARTESIAN_POINT ( 'NONE',  ( -11.99505412658505143, 22.50510397090017634, -84.69999999999971863 ) ) ;
#72 = PLANE ( 'NONE',  #1073 ) ;
#73 = EDGE_LOOP ( 'NONE', ( #737, #620 ) ) ;
#74 = EDGE_CURVE ( 'NONE', #561, #139, #646, .T. ) ;
#75 = DIRECTION ( 'NONE',  ( 0.2382055930957892864, 0.9712147524712972935, 8.583473624224744886E-17 ) ) ;
#76 = CARTESIAN_POINT ( 'NONE',  ( 13.66163390628944541, 17.24203874589467844, -79.69999999999971863 ) ) ;
#77 = CARTESIAN_POINT ( 'NONE',  ( -11.48770512169072155, -8.378469763387519365, -79.69999999999971863 ) ) ;
#78 = DIRECTION ( 'NONE',  ( -0.9712147524712972935, 0.2382055930957890644, 2.629215516420332950E-14 ) ) ;
#79 = ORIENTED_EDGE ( 'NONE', *, *, #764, .T. ) ;
#80 = DIRECTION ( 'NONE',  ( -0.9712147524712971824, 0.2382055930957893697, 0.000000000000000000 ) ) ;
#81 = EDGE_CURVE ( 'NONE', #1013, #237, #642, .T. ) ;
#82 = FACE_OUTER_BOUND ( 'NONE', #215, .T. ) ;
#83 = DIRECTION ( 'NONE',  ( 0.2382055930957892309, 0.9712147524712972935, 0.000000000000000000 ) ) ;
#84 = FACE_OUTER_BOUND ( 'NONE', #938, .T. ) ;
#85 = ORIENTED_EDGE ( 'NONE', *, *, #74, .T. ) ;
#86 = CARTESIAN_POINT ( 'NONE',  ( -21.76234281547841576, 15.63393856907355506, -89.69999999999998863 ) ) ;
#87 = DIRECTION ( 'NONE',  ( -0.9479062099825839027, 0.3185495519953742138, 0.000000000000000000 ) ) ;
#88 = AXIS2_PLACEMENT_3D ( 'NONE', #814, #434, #347 ) ;
#89 = FACE_OUTER_BOUND ( 'NONE', #452, .T. ) ;
#90 = AXIS2_PLACEMENT_3D ( 'NONE', #118, #29, #227 ) ;
#91 = LINE ( 'NONE', #1162, #255 ) ;
#92 = EDGE_LOOP ( 'NONE', ( #478, #395, #1116, #235, #326, #958, #779, #892, #271, #714 ) ) ;
#93 = CARTESIAN_POINT ( 'NONE',  ( 22.17833185085417824, 14.12354710705114336, -84.69999999999971863 ) ) ;
#94 = ORIENTED_EDGE ( 'NONE', *, *, #554, .F. ) ;
#95 = DIRECTION ( 'NONE',  ( -0.2382055930957892587, -0.9712147524712974045, -0.000000000000000000 ) ) ;
#96 = DIRECTION ( 'NONE',  ( 0.9712147524712971824, -0.2382055930957895362, 0.000000000000000000 ) ) ;
#97 = ADVANCED_FACE ( 'NONE', ( #89 ), #631, .F. ) ;
#98 = ORIENTED_EDGE ( 'NONE', *, *, #1118, .T. ) ;
#99 = DIRECTION ( 'NONE',  ( 0.2382055930957892309, 0.9712147524712974045, -0.000000000000000000 ) ) ;
#100 = DIRECTION ( 'NONE',  ( 0.9712147524712975155, -0.2382055930957886203, 0.000000000000000000 ) ) ;
#101 = DIRECTION ( 'NONE',  ( -0.9712147524712971824, 0.2382055930957893697, 0.000000000000000000 ) ) ;
#102 = DIRECTION ( 'NONE',  ( -0.2382055930957887868, -0.9712147524712975155, 0.000000000000000000 ) ) ;
#103 = EDGE_LOOP ( 'NONE', ( #934, #513, #879, #79, #498 ) ) ;
#104 = CARTESIAN_POINT ( 'NONE',  ( 14.42258459650265046, 16.02576530330784266, -47.70000000000000284 ) ) ;
#105 = CARTESIAN_POINT ( 'NONE',  ( 14.42258459650265046, 16.02576530330784266, -47.70000000000000284 ) ) ;
#106 = DIRECTION ( 'NONE',  ( -0.9712147524712977376, 0.2382055930957873713, 0.000000000000000000 ) ) ;
#107 = SURFACE_STYLE_FILL_AREA ( #1020 ) ;
#108 = AXIS2_PLACEMENT_3D ( 'NONE', #250, #1160, #341 ) ;
#109 = ORIENTED_EDGE ( 'NONE', *, *, #823, .F. ) ;
#110 = AXIS2_PLACEMENT_3D ( 'NONE', #437, #786, #509 ) ;
#111 = ADVANCED_FACE ( 'NONE', ( #796 ), #981, .F. ) ;
#112 = EDGE_CURVE ( 'NONE', #604, #984, #1078, .T. ) ;
#113 = VERTEX_POINT ( 'NONE', #1175 ) ;
#114 = FACE_OUTER_BOUND ( 'NONE', #1124, .T. ) ;
#115 = CARTESIAN_POINT ( 'NONE',  ( 13.42342831319363050, 16.27082399342287289, -89.69999999999970441 ) ) ;
#116 = ORIENTED_EDGE ( 'NONE', *, *, #401, .T. ) ;
#117 = ADVANCED_FACE ( 'NONE', ( #269 ), #1001, .T. ) ;
#118 = CARTESIAN_POINT ( 'NONE',  ( 14.63369139135552111, 0.1546638700447786063, -84.69999999999971863 ) ) ;
#119 = DIRECTION ( 'NONE',  ( 0.000000000000000000, 0.000000000000000000, -1.000000000000000000 ) ) ;
#120 = ORIENTED_EDGE ( 'NONE', *, *, #307, .F. ) ;
#121 = ORIENTED_EDGE ( 'NONE', *, *, #949, .T. ) ;
#122 = DIRECTION ( 'NONE',  ( 0.9712147524712972935, -0.2382055930957893974, 0.000000000000000000 ) ) ;
#123 = CARTESIAN_POINT ( 'NONE',  ( 0.000000000000000000, 0.000000000000000000, 16.00000000000000000 ) ) ;
#124 = ORIENTED_EDGE ( 'NONE', *, *, #680, .F. ) ;
#125 = VECTOR ( 'NONE', #1093, 1000.000000000000114 ) ;
#126 = ADVANCED_BREP_SHAPE_REPRESENTATION ( '010_019_Left_right_bearing_mount_back_1', ( #450, #1055 ), #696 ) ;
#127 = VECTOR ( 'NONE', #304, 1000.000000000000000 ) ;
#128 = AXIS2_PLACEMENT_3D ( 'NONE', #1051, #55, #133 ) ;
#129 = DIRECTION ( 'NONE',  ( -0.000000000000000000, -0.000000000000000000, 1.000000000000000000 ) ) ;
#130 = DIRECTION ( 'NONE',  ( -0.2382055930957892587, -0.9712147524712974045, -0.000000000000000000 ) ) ;
#131 = ORIENTED_EDGE ( 'NONE', *, *, #1043, .F. ) ;
#132 = ADVANCED_FACE ( 'NONE', ( #901 ), #264, .F. ) ;
#133 = DIRECTION ( 'NONE',  ( 1.000000000000000000, 0.000000000000000000, 0.000000000000000000 ) ) ;
#134 = CYLINDRICAL_SURFACE ( 'NONE', #222, 4.000000000000001776 ) ;
#135 = ORIENTED_EDGE ( 'NONE', *, *, #164, .F. ) ;
#136 = CARTESIAN_POINT ( 'NONE',  ( 18.25045657012500300, 38.76860300220495503, 5.999999999999999112 ) ) ;
#137 = CARTESIAN_POINT ( 'NONE',  ( -13.42428768515978277, 16.67781545607239124, -84.69999999999971863 ) ) ;
#138 = EDGE_LOOP ( 'NONE', ( #1030, #116 ) ) ;
#139 = VERTEX_POINT ( 'NONE', #13 ) ;
#140 = AXIS2_PLACEMENT_3D ( 'NONE', #730, #537, #724 ) ;
#141 = LINE ( 'NONE', #505, #772 ) ;
#142 = EDGE_CURVE ( 'NONE', #659, #22, #919, .T. ) ;
#143 = DIRECTION ( 'NONE',  ( 0.9712147524712974045, -0.2382055930957886758, 0.000000000000000000 ) ) ;
#144 = VERTEX_POINT ( 'NONE', #1105 ) ;
#145 = ORIENTED_EDGE ( 'NONE', *, *, #1158, .F. ) ;
#146 = DIRECTION ( 'NONE',  ( -0.9712147524712970714, 0.2382055930957893419, 0.000000000000000000 ) ) ;
#147 = EDGE_CURVE ( 'NONE', #793, #144, #942, .T. ) ;
#148 = DIRECTION ( 'NONE',  ( -0.9712147524712975155, 0.2382055930957886203, 0.000000000000000000 ) ) ;
#149 = VERTEX_POINT ( 'NONE', #30 ) ;
#150 = VERTEX_POINT ( 'NONE', #214 ) ;
#151 = CARTESIAN_POINT ( 'NONE',  ( -11.95367127138673169, 13.22820861419295113, -84.69999999999971863 ) ) ;
#152 = DIRECTION ( 'NONE',  ( 0.9712147524712974045, -0.2382055930957887313, 6.811787580723906530E-16 ) ) ;
#153 = ORIENTED_EDGE ( 'NONE', *, *, #1043, .T. ) ;
#154 = FACE_BOUND ( 'NONE', #668, .T. ) ;
#155 = EDGE_LOOP ( 'NONE', ( #1088, #1092, #804, #789 ) ) ;
#156 = AXIS2_PLACEMENT_3D ( 'NONE', #899, #345, #80 ) ;
#157 = CARTESIAN_POINT ( 'NONE',  ( -4.949999999999999289, 0.000000000000000000, 5.000000000000000000 ) ) ;
#158 = AXIS2_PLACEMENT_3D ( 'NONE', #241, #968, #52 ) ;
#159 = STYLED_ITEM ( 'NONE', ( #360 ), #450 ) ;
#160 = CARTESIAN_POINT ( 'NONE',  ( 18.29347284096899529, 15.07636947943429995, -84.69999999999971863 ) ) ;
#161 = VECTOR ( 'NONE', #967, 1000.000000000000000 ) ;
#162 = CARTESIAN_POINT ( 'NONE',  ( 24.00448311046021743, 55.89082921731998965, -89.69999999999998863 ) ) ;
#163 = CARTESIAN_POINT ( 'NONE',  ( 12.99335103792791557, 10.19847678848005756, -47.70000000000000284 ) ) ;
#164 = EDGE_CURVE ( 'NONE', #1021, #503, #21, .T. ) ;
#165 = ORIENTED_EDGE ( 'NONE', *, *, #815, .T. ) ;
#166 = LINE ( 'NONE', #706, #12 ) ;
#167 = EDGE_CURVE ( 'NONE', #561, #436, #887, .T. ) ;
#168 = DIRECTION ( 'NONE',  ( -0.9712147524712972935, 0.2382055930957892032, 0.000000000000000000 ) ) ;
#169 = DIRECTION ( 'NONE',  ( -0.1684367901945938162, -0.6867525374608651756, 0.7071067811865513475 ) ) ;
#170 = DIRECTION ( 'NONE',  ( 0.000000000000000000, 0.000000000000000000, 1.000000000000000000 ) ) ;
#171 = EDGE_LOOP ( 'NONE', ( #763, #492 ) ) ;
#172 = DIRECTION ( 'NONE',  ( 0.2382055930957892309, 0.9712147524712972935, 0.000000000000000000 ) ) ;
#173 = FACE_OUTER_BOUND ( 'NONE', #519, .T. ) ;
#174 = PLANE ( 'NONE',  #140 ) ;
#175 = FACE_OUTER_BOUND ( 'NONE', #916, .T. ) ;
#176 = VERTEX_POINT ( 'NONE', #651 ) ;
#177 = CARTESIAN_POINT ( 'NONE',  ( 13.42342831319363761, 16.27082399342287289, -79.69999999999971863 ) ) ;
#178 = VECTOR ( 'NONE', #805, 1000.000000000000000 ) ;
#179 = VERTEX_POINT ( 'NONE', #1123 ) ;
#180 = EDGE_CURVE ( 'NONE', #113, #22, #583, .T. ) ;
#181 = DIRECTION ( 'NONE',  ( 0.2382055930957892309, 0.9712147524712972935, 0.000000000000000000 ) ) ;
#182 = VECTOR ( 'NONE', #319, 1000.000000000000000 ) ;
#183 = CARTESIAN_POINT ( 'NONE',  ( 20.80780169916286582, 46.37848132003383483, -115.0864105916004263 ) ) ;
#184 = AXIS2_PLACEMENT_3D ( 'NONE', #951, #322, #768 ) ;
#185 = FACE_BOUND ( 'NONE', #193, .T. ) ;
#186 = ORIENTED_EDGE ( 'NONE', *, *, #1029, .T. ) ;
#187 = DIRECTION ( 'NONE',  ( 0.9712147524712977376, -0.2382055930957871215, 0.000000000000000000 ) ) ;
#188 = CARTESIAN_POINT ( 'NONE',  ( 3.096672710245099935, 12.62579178212622111, -3.988211689747996724E-17 ) ) ;
#189 = EDGE_CURVE ( 'NONE', #1033, #1067, #925, .T. ) ;
#190 = LINE ( 'NONE', #494, #34 ) ;
#191 = ORIENTED_EDGE ( 'NONE', *, *, #745, .F. ) ;
#192 = CARTESIAN_POINT ( 'NONE',  ( 4.692135739413800799, -1.576820282377106253, 16.00000000000000000 ) ) ;
#193 = EDGE_LOOP ( 'NONE', ( #120, #922 ) ) ;
#194 = CARTESIAN_POINT ( 'NONE',  ( 18.79305098262355145, 14.95384013437677240, -64.19999999999997442 ) ) ;
#195 = DIRECTION ( 'NONE',  ( 0.2382055930957892032, 0.9712147524712972935, -0.000000000000000000 ) ) ;
#196 = EDGE_CURVE ( 'NONE', #846, #1067, #399, .T. ) ;
#197 =( LENGTH_UNIT ( ) NAMED_UNIT ( * ) SI_UNIT ( .MILLI., .METRE. ) );
#198 = EDGE_CURVE ( 'NONE', #39, #1065, #298, .T. ) ;
#199 = ORIENTED_EDGE ( 'NONE', *, *, #511, .T. ) ;
#200 = LINE ( 'NONE', #459, #1134 ) ;
#201 = AXIS2_PLACEMENT_3D ( 'NONE', #797, #247, #897 ) ;
#202 = DIRECTION ( 'NONE',  ( 1.000000000000000000, 0.000000000000000000, 0.000000000000000000 ) ) ;
#203 = CIRCLE ( 'NONE', #352, 4.000000000000001776 ) ;
#204 = AXIS2_PLACEMENT_3D ( 'NONE', #160, #95, #335 ) ;
#205 = ORIENTED_EDGE ( 'NONE', *, *, #167, .F. ) ;
#206 = EDGE_CURVE ( 'NONE', #422, #149, #27, .T. ) ;
#207 = DIRECTION ( 'NONE',  ( -0.9712147524712971824, 0.2382055930957893697, 0.000000000000000000 ) ) ;
#208 = EDGE_CURVE ( 'NONE', #633, #229, #751, .T. ) ;
#209 = PLANE ( 'NONE',  #371 ) ;
#210 = DIRECTION ( 'NONE',  ( -0.9712147524712977376, 0.2382055930957873713, 0.000000000000000000 ) ) ;
#211 = VERTEX_POINT ( 'NONE', #477 ) ;
#212 = ORIENTED_EDGE ( 'NONE', *, *, #727, .T. ) ;
#213 = CYLINDRICAL_SURFACE ( 'NONE', #1176, 4.000000000000001776 ) ;
#214 = CARTESIAN_POINT ( 'NONE',  ( 14.42258459650267710, 16.02576530330783555, -79.69999999999997442 ) ) ;
#215 = EDGE_LOOP ( 'NONE', ( #592, #939, #953, #165, #862 ) ) ;
#216 = CARTESIAN_POINT ( 'NONE',  ( -4.371615775553372885, 20.63533660048499740, -89.69999999999970441 ) ) ;
#217 = EDGE_CURVE ( 'NONE', #53, #211, #543, .T. ) ;
#218 = CARTESIAN_POINT ( 'NONE',  ( 22.67790999250874151, 14.00101776199361581, -64.19999999999997442 ) ) ;
#219 = AXIS2_PLACEMENT_3D ( 'NONE', #163, #3, #704 ) ;
#220 = VERTEX_POINT ( 'NONE', #665 ) ;
#221 = VECTOR ( 'NONE', #624, 1000.000000000000000 ) ;
#222 = AXIS2_PLACEMENT_3D ( 'NONE', #603, #130, #861 ) ;
#223 = CIRCLE ( 'NONE', #544, 2.250000000000004885 ) ;
#224 = LINE ( 'NONE', #601, #161 ) ;
#225 = DIRECTION ( 'NONE',  ( -0.9712147524712974045, 0.2382055930957887313, -0.000000000000000000 ) ) ;
#226 = ORIENTED_EDGE ( 'NONE', *, *, #206, .F. ) ;
#227 = DIRECTION ( 'NONE',  ( -0.9712147524712974045, 0.2382055930957892587, 0.000000000000000000 ) ) ;
#228 = DIRECTION ( 'NONE',  ( 0.2382055930957886480, 0.9712147524712976265, -0.000000000000000000 ) ) ;
#229 = VERTEX_POINT ( 'NONE', #388 ) ;
#230 = EDGE_CURVE ( 'NONE', #311, #113, #1110, .T. ) ;
#231 = ADVANCED_FACE ( 'NONE', ( #936 ), #209, .T. ) ;
#232 = ORIENTED_EDGE ( 'NONE', *, *, #764, .F. ) ;
#233 = LINE ( 'NONE', #40, #374 ) ;
#234 = DIRECTION ( 'NONE',  ( 0.1561945666727420357, 0.9877263068997981232, 0.000000000000000000 ) ) ;
#235 = ORIENTED_EDGE ( 'NONE', *, *, #629, .F. ) ;
#236 = AXIS2_PLACEMENT_3D ( 'NONE', #305, #102, #32 ) ;
#237 = VERTEX_POINT ( 'NONE', #471 ) ;
#238 = AXIS2_PLACEMENT_3D ( 'NONE', #488, #933, #101 ) ;
#239 = VECTOR ( 'NONE', #129, 1000.000000000000000 ) ;
#240 = FACE_OUTER_BOUND ( 'NONE', #1155, .T. ) ;
#241 = CARTESIAN_POINT ( 'NONE',  ( -4.889245219154006783, 0.7731631050300739050, 5.999999999999999112 ) ) ;
#242 = ORIENTED_EDGE ( 'NONE', *, *, #142, .F. ) ;
#243 = VERTEX_POINT ( 'NONE', #670 ) ;
#244 = DIRECTION ( 'NONE',  ( -0.2382055930957892309, -0.9712147524712972935, -0.000000000000000000 ) ) ;
#245 = CARTESIAN_POINT ( 'NONE',  ( -11.48770512169072155, -8.378469763387519365, -89.69999999999970441 ) ) ;
#246 = EDGE_LOOP ( 'NONE', ( #242, #409, #600, #301 ) ) ;
#247 = DIRECTION ( 'NONE',  ( 0.2382055930957892309, 0.9712147524712972935, 0.000000000000000000 ) ) ;
#248 = ORIENTED_EDGE ( 'NONE', *, *, #412, .T. ) ;
#249 = DIRECTION ( 'NONE',  ( 1.000000000000000000, 0.000000000000000000, 0.000000000000000000 ) ) ;
#250 = CARTESIAN_POINT ( 'NONE',  ( 16.64920064476145001, 6.212907362135099198, -64.19999999999997442 ) ) ;
#251 = ADVANCED_FACE ( 'NONE', ( #579 ), #838, .T. ) ;
#252 = PLANE ( 'NONE',  #927 ) ;
#253 = DIRECTION ( 'NONE',  ( 0.000000000000000000, 0.000000000000000000, -1.000000000000000000 ) ) ;
#254 = ORIENTED_EDGE ( 'NONE', *, *, #894, .F. ) ;
#255 = VECTOR ( 'NONE', #638, 1000.000000000000227 ) ;
#256 = LINE ( 'NONE', #893, #788 ) ;
#257 = CIRCLE ( 'NONE', #1154, 3.999999999999994227 ) ;
#258 = DIRECTION ( 'NONE',  ( 0.2382055930957795165, 0.9712147524712996249, 0.000000000000000000 ) ) ;
#259 = CARTESIAN_POINT ( 'NONE',  ( 23.16351736874432987, 13.88191496544573944, -47.70000000000000284 ) ) ;
#260 = DIRECTION ( 'NONE',  ( 0.2382055930957887591, 0.9712147524712974045, -0.000000000000000000 ) ) ;
#261 = ORIENTED_EDGE ( 'NONE', *, *, #928, .T. ) ;
#262 = CARTESIAN_POINT ( 'NONE',  ( 17.36381742404881834, 9.126551619548990857, -64.19999999999997442 ) ) ;
#263 = DIRECTION ( 'NONE',  ( -0.9712147524712974045, 0.2382055930957893974, 0.000000000000000000 ) ) ;
#264 = CYLINDRICAL_SURFACE ( 'NONE', #332, 2.249999999999997780 ) ;
#265 = FACE_OUTER_BOUND ( 'NONE', #840, .T. ) ;
#266 = ORIENTED_EDGE ( 'NONE', *, *, #490, .T. ) ;
#267 = CARTESIAN_POINT ( 'NONE',  ( 13.47895841416362295, 10.07937399193215100, -64.19999999999997442 ) ) ;
#268 = SURFACE_STYLE_USAGE ( .BOTH. , #455 ) ;
#269 = FACE_OUTER_BOUND ( 'NONE', #385, .T. ) ;
#270 = DIRECTION ( 'NONE',  ( 0.3185495519953746024, 0.9479062099825837917, 0.000000000000000000 ) ) ;
#271 = ORIENTED_EDGE ( 'NONE', *, *, #990, .T. ) ;
#272 = LINE ( 'NONE', #5, #1151 ) ;
#273 = EDGE_CURVE ( 'NONE', #220, #1126, #1173, .T. ) ;
#274 = CIRCLE ( 'NONE', #617, 4.000000000000001776 ) ;
#275 = CARTESIAN_POINT ( 'NONE',  ( 12.99335103792791557, 10.19847678848005756, -47.70000000000000284 ) ) ;
#276 = VECTOR ( 'NONE', #417, 1000.000000000000227 ) ;
#277 = DIRECTION ( 'NONE',  ( -0.000000000000000000, -0.000000000000000000, -1.000000000000000000 ) ) ;
#278 = VECTOR ( 'NONE', #428, 1000.000000000000114 ) ;
#279 = FILL_AREA_STYLE_COLOUR ( '', #67 ) ;
#280 = VERTEX_POINT ( 'NONE', #310 ) ;
#281 = DIRECTION ( 'NONE',  ( -0.2382055930957892309, -0.9712147524712972935, -0.000000000000000000 ) ) ;
#282 = ORIENTED_EDGE ( 'NONE', *, *, #815, .F. ) ;
#283 = DIRECTION ( 'NONE',  ( -0.2382055930957892309, -0.9712147524712972935, -0.000000000000000000 ) ) ;
#284 = EDGE_CURVE ( 'NONE', #229, #503, #190, .T. ) ;
#285 = DIRECTION ( 'NONE',  ( -0.9712147524712974045, 0.2382055930957886758, 0.000000000000000000 ) ) ;
#286 = PRESENTATION_STYLE_ASSIGNMENT (( #377 ) ) ;
#287 = VERTEX_POINT ( 'NONE', #771 ) ;
#288 = CARTESIAN_POINT ( 'NONE',  ( -11.48770512169072155, -8.378469763387519365, -89.69999999999970441 ) ) ;
#289 = ORIENTED_EDGE ( 'NONE', *, *, #9, .T. ) ;
#290 = DIRECTION ( 'NONE',  ( 0.9712147524712972935, -0.2382055930957893419, 1.768009607999526230E-14 ) ) ;
#291 = CARTESIAN_POINT ( 'NONE',  ( 8.793458471193940085, -2.606545574634048901, -100.1368645245787405 ) ) ;
#292 = EDGE_CURVE ( 'NONE', #144, #36, #675, .T. ) ;
#293 = SHAPE_DEFINITION_REPRESENTATION ( #480, #126 ) ;
#294 = EDGE_LOOP ( 'NONE', ( #609, #7, #693, #404 ) ) ;
#295 = ADVANCED_FACE ( 'NONE', ( #506 ), #134, .F. ) ;
#296 = VERTEX_POINT ( 'NONE', #56 ) ;
#297 = CARTESIAN_POINT ( 'NONE',  ( 12.99335103792791557, 10.19847678848005756, -47.70000000000000284 ) ) ;
#298 = LINE ( 'NONE', #1010, #770 ) ;
#299 = VECTOR ( 'NONE', #553, 1000.000000000000114 ) ;
#300 = AXIS2_PLACEMENT_3D ( 'NONE', #1084, #992, #263 ) ;
#301 = ORIENTED_EDGE ( 'NONE', *, *, #180, .T. ) ;
#302 = EDGE_LOOP ( 'NONE', ( #966, #1011, #676, #974 ) ) ;
#303 = LINE ( 'NONE', #918, #426 ) ;
#304 = DIRECTION ( 'NONE',  ( -0.000000000000000000, -0.000000000000000000, 1.000000000000000000 ) ) ;
#305 = CARTESIAN_POINT ( 'NONE',  ( -13.42428768515978987, 16.67781545607238058, -84.69999999999971863 ) ) ;
#306 = ORIENTED_EDGE ( 'NONE', *, *, #147, .F. ) ;
#307 = EDGE_CURVE ( 'NONE', #1126, #220, #49, .T. ) ;
#308 = EDGE_LOOP ( 'NONE', ( #811, #1053, #635, #331 ) ) ;
#309 = CARTESIAN_POINT ( 'NONE',  ( -4.889245219154006783, 0.7731631050300739050, 5.999999999999999112 ) ) ;
#310 = CARTESIAN_POINT ( 'NONE',  ( 14.40861383108381055, 16.02919185181745476, -84.69999999999971863 ) ) ;
#311 = VERTEX_POINT ( 'NONE', #421 ) ;
#312 = LINE ( 'NONE', #1056, #333 ) ;
#313 = CARTESIAN_POINT ( 'NONE',  ( 14.90819197273835783, 15.90666250675993076, -64.19999999999997442 ) ) ;
#314 = VERTEX_POINT ( 'NONE', #595 ) ;
#315 = CIRCLE ( 'NONE', #662, 4.950000000000011724 ) ;
#316 = AXIS2_PLACEMENT_3D ( 'NONE', #1167, #346, #1074 ) ;
#317 = PLANE ( 'NONE',  #621 ) ;
#318 = EDGE_CURVE ( 'NONE', #311, #659, #889, .T. ) ;
#319 = DIRECTION ( 'NONE',  ( -0.9712147524712972935, 0.2382055930957892864, -1.768009607999526546E-14 ) ) ;
#320 = PRODUCT_RELATED_PRODUCT_CATEGORY ( 'part', '', ( #783 ) ) ;
#321 = VERTEX_POINT ( 'NONE', #313 ) ;
#322 = DIRECTION ( 'NONE',  ( 0.2382055930957892309, 0.9712147524712972935, 0.000000000000000000 ) ) ;
#323 = DIRECTION ( 'NONE',  ( -0.9712147524712972935, 0.2382055930957893974, 0.000000000000000000 ) ) ;
#324 = ORIENTED_EDGE ( 'NONE', *, *, #230, .F. ) ;
#325 = EDGE_CURVE ( 'NONE', #39, #457, #591, .T. ) ;
#326 = ORIENTED_EDGE ( 'NONE', *, *, #1050, .F. ) ;
#327 = FACE_OUTER_BOUND ( 'NONE', #138, .T. ) ;
#328 = DIRECTION ( 'NONE',  ( 0.2382055930957886480, 0.9712147524712976265, -0.000000000000000000 ) ) ;
#329 = ORIENTED_EDGE ( 'NONE', *, *, #990, .F. ) ;
#330 = AXIS2_PLACEMENT_3D ( 'NONE', #362, #1091, #975 ) ;
#331 = ORIENTED_EDGE ( 'NONE', *, *, #588, .T. ) ;
#332 = AXIS2_PLACEMENT_3D ( 'NONE', #449, #2, #375 ) ;
#333 = VECTOR ( 'NONE', #689, 1000.000000000000000 ) ;
#334 = CARTESIAN_POINT ( 'NONE',  ( 4.692135739413804352, -1.576820282377107363, 5.999999999999999112 ) ) ;
#335 = DIRECTION ( 'NONE',  ( 0.9712147524712974045, -0.2382055930957893974, 0.000000000000000000 ) ) ;
#336 = VERTEX_POINT ( 'NONE', #218 ) ;
#337 = CARTESIAN_POINT ( 'NONE',  ( 0.000000000000000000, 0.000000000000000000, 0.000000000000000000 ) ) ;
#338 = ORIENTED_EDGE ( 'NONE', *, *, #198, .T. ) ;
#339 = CARTESIAN_POINT ( 'NONE',  ( 20.80780169916286582, 46.37848132003383483, -2.000000000000085265 ) ) ;
#340 = EDGE_CURVE ( 'NONE', #826, #1028, #497, .T. ) ;
#341 = DIRECTION ( 'NONE',  ( 0.9712147524712975155, -0.2382055930957886480, 0.000000000000000000 ) ) ;
#342 = CARTESIAN_POINT ( 'NONE',  ( -14.13890446444715465, 13.76417119865847738, -84.69999999999971863 ) ) ;
#343 = LINE ( 'NONE', #792, #48 ) ;
#344 = EDGE_LOOP ( 'NONE', ( #883, #98, #743, #913 ) ) ;
#345 = DIRECTION ( 'NONE',  ( 0.2382055930957892309, 0.9712147524712974045, -0.000000000000000000 ) ) ;
#346 = DIRECTION ( 'NONE',  ( 0.2382055930957886480, 0.9712147524712976265, -0.000000000000000000 ) ) ;
#347 = DIRECTION ( 'NONE',  ( -0.2382055930957795165, -0.9712147524712996249, 0.000000000000000000 ) ) ;
#348 = PLANE ( 'NONE',  #678 ) ;
#349 = ORIENTED_EDGE ( 'NONE', *, *, #9, .F. ) ;
#350 = VECTOR ( 'NONE', #78, 1000.000000000000227 ) ;
#351 = CARTESIAN_POINT ( 'NONE',  ( 0.000000000000000000, 0.000000000000000000, 0.000000000000000000 ) ) ;
#352 = AXIS2_PLACEMENT_3D ( 'NONE', #1153, #1142, #323 ) ;
#353 = VECTOR ( 'NONE', #100, 999.9999999999998863 ) ;
#354 = CARTESIAN_POINT ( 'NONE',  ( -11.99505412658505143, 22.50510397090017634, -84.69999999999971863 ) ) ;
#355 = CARTESIAN_POINT ( 'NONE',  ( -4.133410182457320836, 21.60655135295670348, -79.69999999999971863 ) ) ;
#356 = ADVANCED_FACE ( 'NONE', ( #582 ), #766, .F. ) ;
#357 = DIRECTION ( 'NONE',  ( -0.2382055930957886203, -0.9712147524712975155, 0.000000000000000000 ) ) ;
#358 = VERTEX_POINT ( 'NONE', #963 ) ;
#359 = DIRECTION ( 'NONE',  ( 0.000000000000000000, 0.000000000000000000, 1.000000000000000000 ) ) ;
#360 = PRESENTATION_STYLE_ASSIGNMENT (( #268 ) ) ;
#361 = DIRECTION ( 'NONE',  ( 0.2382055930957886480, 0.9712147524712976265, -0.000000000000000000 ) ) ;
#362 = CARTESIAN_POINT ( 'NONE',  ( 0.000000000000000000, 0.000000000000000000, 5.000000000000000000 ) ) ;
#363 = EDGE_CURVE ( 'NONE', #364, #1099, #781, .T. ) ;
#364 = VERTEX_POINT ( 'NONE', #403 ) ;
#365 = CARTESIAN_POINT ( 'NONE',  ( 4.692135739413804352, -1.576820282377107363, 5.999999999999999112 ) ) ;
#366 = LINE ( 'NONE', #1122, #70 ) ;
#367 = FACE_OUTER_BOUND ( 'NONE', #1082, .T. ) ;
#368 = ORIENTED_EDGE ( 'NONE', *, *, #189, .T. ) ;
#369 = DIRECTION ( 'NONE',  ( -3.469446951953616161E-16, 1.734723475976808080E-16, -1.000000000000000000 ) ) ;
#370 = VECTOR ( 'NONE', #606, 1000.000000000000000 ) ;
#371 = AXIS2_PLACEMENT_3D ( 'NONE', #574, #119, #482 ) ;
#372 = ORIENTED_EDGE ( 'NONE', *, *, #1148, .T. ) ;
#373 = DIRECTION ( 'NONE',  ( 0.9712147524712972935, -0.2382055930957891476, 0.000000000000000000 ) ) ;
#374 = VECTOR ( 'NONE', #402, 1000.000000000000114 ) ;
#375 = DIRECTION ( 'NONE',  ( -0.9712147524712972935, 0.2382055930957892864, 0.000000000000000000 ) ) ;
#376 = CIRCLE ( 'NONE', #520, 2.249999999999998224 ) ;
#377 = SURFACE_STYLE_USAGE ( .BOTH. , #844 ) ;
#378 = ORIENTED_EDGE ( 'NONE', *, *, #412, .F. ) ;
#379 = DIRECTION ( 'NONE',  ( 0.9712147524712971824, -0.2382055930957895362, -2.563041808770670737E-13 ) ) ;
#380 = EDGE_LOOP ( 'NONE', ( #709, #950, #131, #836 ) ) ;
#381 = ADVANCED_FACE ( 'NONE', ( #1047 ), #864, .T. ) ;
#382 = CARTESIAN_POINT ( 'NONE',  ( 13.42342831319363050, 16.27082399342287289, -89.69999999999970441 ) ) ;
#383 = CARTESIAN_POINT ( 'NONE',  ( 3.012757610415866427, 50.74299392709592382, -115.0864105916004263 ) ) ;
#384 = EDGE_CURVE ( 'NONE', #995, #1126, #948, .T. ) ;
#385 = EDGE_LOOP ( 'NONE', ( #135, #593, #282, #526 ) ) ;
#386 = ORIENTED_EDGE ( 'NONE', *, *, #1063, .F. ) ;
#387 = CARTESIAN_POINT ( 'NONE',  ( -6.515466113415283367, 11.89440382824325582, -89.69999999999970441 ) ) ;
#388 = CARTESIAN_POINT ( 'NONE',  ( 13.42342831319363761, 16.27082399342287289, -79.69999999999971863 ) ) ;
#389 =( NAMED_UNIT ( * ) SI_UNIT ( $, .STERADIAN. ) SOLID_ANGLE_UNIT ( ) );
#390 = ORIENTED_EDGE ( 'NONE', *, *, #1076, .T. ) ;
#391 = CYLINDRICAL_SURFACE ( 'NONE', #90, 2.250000000000004441 ) ;
#392 = CARTESIAN_POINT ( 'NONE',  ( 0.000000000000000000, 0.000000000000000000, 16.00000000000000000 ) ) ;
#393 = AXIS2_PLACEMENT_3D ( 'NONE', #1037, #228, #952 ) ;
#394 = AXIS2_PLACEMENT_3D ( 'NONE', #354, #895, #623 ) ;
#395 = ORIENTED_EDGE ( 'NONE', *, *, #1137, .F. ) ;
#396 = ADVANCED_FACE ( 'NONE', ( #407 ), #1146, .T. ) ;
#397 = ORIENTED_EDGE ( 'NONE', *, *, #208, .F. ) ;
#398 = CARTESIAN_POINT ( 'NONE',  ( 14.29233558574722807, 58.27288514827786514, 5.999999999999999112 ) ) ;
#399 = LINE ( 'NONE', #758, #619 ) ;
#400 = ORIENTED_EDGE ( 'NONE', *, *, #949, .F. ) ;
#401 = EDGE_CURVE ( 'NONE', #847, #976, #203, .T. ) ;
#402 = DIRECTION ( 'NONE',  ( -0.2382055930957892309, -0.9712147524712972935, -0.000000000000000000 ) ) ;
#403 = CARTESIAN_POINT ( 'NONE',  ( 3.012757610415866427, 50.74299392709592382, -89.70000000000000284 ) ) ;
#404 = ORIENTED_EDGE ( 'NONE', *, *, #745, .T. ) ;
#405 = EDGE_CURVE ( 'NONE', #839, #995, #1023, .T. ) ;
#406 = DIRECTION ( 'NONE',  ( -0.2382055930957892309, -0.9712147524712972935, -0.000000000000000000 ) ) ;
#407 = FACE_OUTER_BOUND ( 'NONE', #1163, .T. ) ;
#408 = AXIS2_PLACEMENT_3D ( 'NONE', #977, #991, #1072 ) ;
#409 = ORIENTED_EDGE ( 'NONE', *, *, #318, .F. ) ;
#410 = VECTOR ( 'NONE', #806, 1000.000000000000000 ) ;
#411 = DIRECTION ( 'NONE',  ( 0.9712147524712977376, -0.2382055930957873713, 0.000000000000000000 ) ) ;
#412 = EDGE_CURVE ( 'NONE', #287, #314, #877, .T. ) ;
#413 = CARTESIAN_POINT ( 'NONE',  ( 20.80780169916286582, 46.37848132003383483, -89.69999999999998863 ) ) ;
#414 = ORIENTED_EDGE ( 'NONE', *, *, #571, .F. ) ;
#415 = ORIENTED_EDGE ( 'NONE', *, *, #841, .F. ) ;
#416 = CARTESIAN_POINT ( 'NONE',  ( 21.01966703088226041, 5.140982193204056472, -89.69999999999997442 ) ) ;
#417 = DIRECTION ( 'NONE',  ( -0.3185495519953744914, -0.9479062099825837917, 0.000000000000000000 ) ) ;
#418 = ORIENTED_EDGE ( 'NONE', *, *, #405, .T. ) ;
#419 = EDGE_LOOP ( 'NONE', ( #1094, #474 ) ) ;
#420 = DIRECTION ( 'NONE',  ( 0.2382055930957886480, 0.9712147524712976265, -0.000000000000000000 ) ) ;
#421 = CARTESIAN_POINT ( 'NONE',  ( 13.96438931004646911, 6.871399291658146780, -84.69999999999971863 ) ) ;
#422 = VERTEX_POINT ( 'NONE', #510 ) ;
#423 = CARTESIAN_POINT ( 'NONE',  ( 18.29347284096899529, 15.07636947943429995, -84.69999999999971863 ) ) ;
#424 = ORIENTED_EDGE ( 'NONE', *, *, #615, .F. ) ;
#425 = VECTOR ( 'NONE', #225, 1000.000000000000114 ) ;
#426 = VECTOR ( 'NONE', #1008, 1000.000000000000000 ) ;
#427 = PLANE ( 'NONE',  #465 ) ;
#428 = DIRECTION ( 'NONE',  ( -0.9712147524712977376, 0.2382055930957873713, 0.000000000000000000 ) ) ;
#429 = CARTESIAN_POINT ( 'NONE',  ( -11.99505412658505143, 22.50510397090017634, -84.69999999999971863 ) ) ;
#430 = CYLINDRICAL_SURFACE ( 'NONE', #330, 4.949999999999999289 ) ;
#431 = ORIENTED_EDGE ( 'NONE', *, *, #746, .F. ) ;
#432 = DIRECTION ( 'NONE',  ( -0.000000000000000000, -0.000000000000000000, -1.000000000000000000 ) ) ;
#433 =( NAMED_UNIT ( * ) PLANE_ANGLE_UNIT ( ) SI_UNIT ( $, .RADIAN. ) );
#434 = DIRECTION ( 'NONE',  ( -0.9712147524712997360, 0.2382055930957795442, 3.369578062653937402E-16 ) ) ;
#435 = DIRECTION ( 'NONE',  ( 1.000000000000000000, 0.000000000000000000, 0.000000000000000000 ) ) ;
#436 = VERTEX_POINT ( 'NONE', #881 ) ;
#437 = CARTESIAN_POINT ( 'NONE',  ( -11.99505412658505143, 22.50510397090017634, -84.69999999999971863 ) ) ;
#438 = ADVANCED_FACE ( 'NONE', ( #61 ), #787, .T. ) ;
#439 = EDGE_CURVE ( 'NONE', #422, #243, #982, .T. ) ;
#440 = EDGE_CURVE ( 'NONE', #1147, #176, #257, .T. ) ;
#441 = CARTESIAN_POINT ( 'NONE',  ( 3.012757610415866427, 50.74299392709592382, -115.0864105916004263 ) ) ;
#442 = CARTESIAN_POINT ( 'NONE',  ( 19.04947247545468514, 8.713118380140988606, -84.69999999999971863 ) ) ;
#443 = CARTESIAN_POINT ( 'NONE',  ( 4.580188061034265345, 60.65494107923573353, -89.70000000000000284 ) ) ;
#444 = ORIENTED_EDGE ( 'NONE', *, *, #363, .F. ) ;
#445 = CARTESIAN_POINT ( 'NONE',  ( -4.371615775553369332, 20.63533660048499740, -79.69999999999971863 ) ) ;
#446 = VECTOR ( 'NONE', #277, 1000.000000000000000 ) ;
#447 = VECTOR ( 'NONE', #863, 1000.000000000000114 ) ;
#448 = ADVANCED_FACE ( 'NONE', ( #906 ), #546, .F. ) ;
#449 = CARTESIAN_POINT ( 'NONE',  ( 15.13326953301007904, 0.03213452498725295758, -64.19999999999997442 ) ) ;
#450 = MANIFOLD_SOLID_BREP ( 'Dodanie-wyci¹gniêcie10', #831 ) ;
#451 = DIRECTION ( 'NONE',  ( -1.000000000000000000, 0.000000000000000000, -0.000000000000000000 ) ) ;
#452 = EDGE_LOOP ( 'NONE', ( #47, #943, #266, #415 ) ) ;
#453 = FACE_OUTER_BOUND ( 'NONE', #483, .T. ) ;
#454 = ORIENTED_EDGE ( 'NONE', *, *, #284, .T. ) ;
#455 = SURFACE_SIDE_STYLE ('',( #979 ) ) ;
#456 = LINE ( 'NONE', #77, #853 ) ;
#457 = VERTEX_POINT ( 'NONE', #1 ) ;
#458 = CARTESIAN_POINT ( 'NONE',  ( -15.65483557619852206, 7.583398361510653274, -84.69999999999971863 ) ) ;
#459 = CARTESIAN_POINT ( 'NONE',  ( 4.692135739413818563, -1.576820282377112248, 5.999999999999999112 ) ) ;
#460 = DIRECTION ( 'NONE',  ( 0.000000000000000000, 0.000000000000000000, 1.000000000000000000 ) ) ;
#461 = FACE_OUTER_BOUND ( 'NONE', #73, .T. ) ;
#462 = VERTEX_POINT ( 'NONE', #886 ) ;
#463 = ADVANCED_FACE ( 'NONE', ( #711 ), #999, .F. ) ;
#464 = DIRECTION ( 'NONE',  ( -0.9712147524712971824, 0.2382055930957893697, 0.000000000000000000 ) ) ;
#465 = AXIS2_PLACEMENT_3D ( 'NONE', #522, #1083, #628 ) ;
#466 = VECTOR ( 'NONE', #907, 1000.000000000000114 ) ;
#467 = LINE ( 'NONE', #387, #353 ) ;
#468 = UNCERTAINTY_MEASURE_WITH_UNIT (LENGTH_MEASURE( 1.000000000000000082E-05 ), #1098, 'distance_accuracy_value', 'NONE');
#469 = CIRCLE ( 'NONE', #947, 4.000000000000005329 ) ;
#470 = EDGE_CURVE ( 'NONE', #503, #1005, #523, .T. ) ;
#471 = CARTESIAN_POINT ( 'NONE',  ( -15.87991313647024683, 23.45792634328333293, -84.69999999999971863 ) ) ;
#472 = AXIS2_PLACEMENT_3D ( 'NONE', #794, #420, #634 ) ;
#473 = APPLICATION_PROTOCOL_DEFINITION ( 'draft international standard', 'automotive_design', 1998, #613 ) ;
#474 = ORIENTED_EDGE ( 'NONE', *, *, #1118, .F. ) ;
#475 = ORIENTED_EDGE ( 'NONE', *, *, #164, .T. ) ;
#476 = DIRECTION ( 'NONE',  ( -0.2382055930957891476, -0.9712147524712972935, 3.988211689748261732E-18 ) ) ;
#477 = CARTESIAN_POINT ( 'NONE',  ( -4.950000000000011724, 0.000000000000000000, 16.00000000000000000 ) ) ;
#478 = ORIENTED_EDGE ( 'NONE', *, *, #602, .F. ) ;
#479 = PLANE ( 'NONE',  #1024 ) ;
#480 = PRODUCT_DEFINITION_SHAPE ( 'NONE', 'NONE',  #1166 ) ;
#481 = ADVANCED_FACE ( 'NONE', ( #82 ), #800, .F. ) ;
#482 = DIRECTION ( 'NONE',  ( 0.9712147524712975155, -0.2382055930957886203, 0.000000000000000000 ) ) ;
#483 = EDGE_LOOP ( 'NONE', ( #1034, #627, #1061, #1108 ) ) ;
#484 = ORIENTED_EDGE ( 'NONE', *, *, #841, .T. ) ;
#485 =( GEOMETRIC_REPRESENTATION_CONTEXT ( 3 ) GLOBAL_UNCERTAINTY_ASSIGNED_CONTEXT ( ( #1009 ) ) GLOBAL_UNIT_ASSIGNED_CONTEXT ( ( #197, #822, #389 ) ) REPRESENTATION_CONTEXT ( 'NONE', 'WORKASPACE' ) );
#486 = LINE ( 'NONE', #24, #584 ) ;
#487 = CIRCLE ( 'NONE', #769, 4.949999999999999289 ) ;
#488 = CARTESIAN_POINT ( 'NONE',  ( 16.86423928239425862, 9.249080964606516631, -84.69999999999971863 ) ) ;
#489 = VECTOR ( 'NONE', #656, 1000.000000000000000 ) ;
#490 = EDGE_CURVE ( 'NONE', #179, #358, #469, .T. ) ;
#491 = CIRCLE ( 'NONE', #128, 4.949999999999999289 ) ;
#492 = ORIENTED_EDGE ( 'NONE', *, *, #440, .T. ) ;
#493 = LINE ( 'NONE', #309, #447 ) ;
#494 = CARTESIAN_POINT ( 'NONE',  ( 6.307338967056322687, -12.74298237044946269, -79.69999999999971863 ) ) ;
#495 = ORIENTED_EDGE ( 'NONE', *, *, #876, .F. ) ;
#496 = CARTESIAN_POINT ( 'NONE',  ( 18.29347284096899529, 15.07636947943429995, -84.69999999999971863 ) ) ;
#497 = LINE ( 'NONE', #41, #182 ) ;
#498 = ORIENTED_EDGE ( 'NONE', *, *, #167, .T. ) ;
#499 = PLANE ( 'NONE',  #757 ) ;
#500 = CARTESIAN_POINT ( 'NONE',  ( 14.63369139135552111, 0.1546638700447786063, -84.69999999999971863 ) ) ;
#501 = EDGE_CURVE ( 'NONE', #237, #1013, #929, .T. ) ;
#502 = AXIS2_PLACEMENT_3D ( 'NONE', #555, #1027, #210 ) ;
#503 = VERTEX_POINT ( 'NONE', #76 ) ;
#504 = ORIENTED_EDGE ( 'NONE', *, *, #325, .F. ) ;
#505 = CARTESIAN_POINT ( 'NONE',  ( 14.42258459650267710, 16.02576530330783555, -79.69999999999997442 ) ) ;
#506 = FACE_OUTER_BOUND ( 'NONE', #344, .T. ) ;
#507 = ORIENTED_EDGE ( 'NONE', *, *, #490, .F. ) ;
#508 = ORIENTED_EDGE ( 'NONE', *, *, #588, .F. ) ;
#509 = DIRECTION ( 'NONE',  ( 0.9712147524712972935, -0.2382055930957892032, 0.000000000000000000 ) ) ;
#510 = CARTESIAN_POINT ( 'NONE',  ( 14.46396745170103237, 6.748869946600622782, -64.19999999999997442 ) ) ;
#511 = EDGE_CURVE ( 'NONE', #659, #311, #911, .T. ) ;
#512 = ORIENTED_EDGE ( 'NONE', *, *, #501, .T. ) ;
#513 = ORIENTED_EDGE ( 'NONE', *, *, #735, .T. ) ;
#514 = LINE ( 'NONE', #1150, #521 ) ;
#515 =( LENGTH_UNIT ( ) NAMED_UNIT ( * ) SI_UNIT ( .MILLI., .METRE. ) );
#516 = CARTESIAN_POINT ( 'NONE',  ( 17.31850272607049490, -0.5038280594782723609, -64.19999999999997442 ) ) ;
#517 = CIRCLE ( 'NONE', #978, 3.999999999999994227 ) ;
#518 = FACE_OUTER_BOUND ( 'NONE', #302, .T. ) ;
#519 = EDGE_LOOP ( 'NONE', ( #400, #1017, #254, #851 ) ) ;
#520 = AXIS2_PLACEMENT_3D ( 'NONE', #581, #761, #146 ) ;
#521 = VECTOR ( 'NONE', #1159, 1000.000000000000114 ) ;
#522 = CARTESIAN_POINT ( 'NONE',  ( 0.000000000000000000, 0.000000000000000000, 5.999999999999999112 ) ) ;
#523 = LINE ( 'NONE', #820, #278 ) ;
#524 = LINE ( 'NONE', #516, #466 ) ;
#525 = CARTESIAN_POINT ( 'NONE',  ( 4.692135739413800799, -1.576820282377106253, 16.00000000000000000 ) ) ;
#526 = ORIENTED_EDGE ( 'NONE', *, *, #470, .F. ) ;
#527 = EDGE_CURVE ( 'NONE', #364, #1033, #530, .T. ) ;
#528 = EDGE_CURVE ( 'NONE', #176, #1147, #834, .T. ) ;
#529 = FACE_OUTER_BOUND ( 'NONE', #308, .T. ) ;
#530 = LINE ( 'NONE', #441, #410 ) ;
#531 = DIRECTION ( 'NONE',  ( 0.9712147524712977376, -0.2382055930957873713, 0.000000000000000000 ) ) ;
#532 = CARTESIAN_POINT ( 'NONE',  ( -15.60952087822020573, 17.21377804053791749, -84.69999999999971863 ) ) ;
#533 = ORIENTED_EDGE ( 'NONE', *, *, #112, .T. ) ;
#534 = LINE ( 'NONE', #1171, #370 ) ;
#535 = ADVANCED_FACE ( 'NONE', ( #173 ), #479, .T. ) ;
#536 = DIRECTION ( 'NONE',  ( -0.3185495519953742138, -0.9479062099825839027, 0.000000000000000000 ) ) ;
#537 = DIRECTION ( 'NONE',  ( -0.1684367901945957036, -0.6867525374608729472, -0.7071067811865433539 ) ) ;
#538 = DIRECTION ( 'NONE',  ( -0.9712147524712974045, 0.2382055930957887591, 0.000000000000000000 ) ) ;
#539 = PRODUCT_DEFINITION_FORMATION_WITH_SPECIFIED_SOURCE ( 'ANY', '', #783, .NOT_KNOWN. ) ;
#540 = ORIENTED_EDGE ( 'NONE', *, *, #1174, .T. ) ;
#541 = AXIS2_PLACEMENT_3D ( 'NONE', #671, #658, #568 ) ;
#542 = CYLINDRICAL_SURFACE ( 'NONE', #830, 2.250000000000004885 ) ;
#543 = CIRCLE ( 'NONE', #790, 4.950000000000011724 ) ;
#544 = AXIS2_PLACEMENT_3D ( 'NONE', #738, #551, #207 ) ;
#545 = ORIENTED_EDGE ( 'NONE', *, *, #644, .F. ) ;
#546 = PLANE ( 'NONE',  #599 ) ;
#547 = CARTESIAN_POINT ( 'NONE',  ( 4.525906268819841927, 18.45308029695400620, 6.325987920098245970E-16 ) ) ;
#548 = CARTESIAN_POINT ( 'NONE',  ( 24.00448311046021743, 55.89082921731998965, 16.00000000000000000 ) ) ;
#549 = ORIENTED_EDGE ( 'NONE', *, *, #775, .T. ) ;
#550 = CARTESIAN_POINT ( 'NONE',  ( -4.133410182457562421, 21.60655135295676743, -79.69999999999971863 ) ) ;
#551 = DIRECTION ( 'NONE',  ( 0.2382055930957892309, 0.9712147524712972935, 0.000000000000000000 ) ) ;
#552 = PRODUCT_DEFINITION_CONTEXT ( 'detailed design', #859, 'design' ) ;
#553 = DIRECTION ( 'NONE',  ( 0.2382055930957892032, 0.9712147524712972935, -0.000000000000000000 ) ) ;
#554 = EDGE_CURVE ( 'NONE', #1067, #639, #486, .T. ) ;
#555 = CARTESIAN_POINT ( 'NONE',  ( 3.012757610415866427, 50.74299392709592382, -115.0864105916004263 ) ) ;
#556 = EDGE_LOOP ( 'NONE', ( #338, #8, #23, #545, #33, #1048, #691, #504 ) ) ;
#557 = DIRECTION ( 'NONE',  ( 0.2382055930957795165, 0.9712147524712996249, -0.000000000000000000 ) ) ;
#558 = EDGE_LOOP ( 'NONE', ( #926, #418 ) ) ;
#559 = CARTESIAN_POINT ( 'NONE',  ( 23.16351736874432987, 13.88191496544573944, -47.70000000000000284 ) ) ;
#560 = DIRECTION ( 'NONE',  ( -0.000000000000000000, 0.000000000000000000, 1.000000000000000000 ) ) ;
#561 = VERTEX_POINT ( 'NONE', #578 ) ;
#562 = VECTOR ( 'NONE', #557, 1000.000000000000114 ) ;
#563 = VECTOR ( 'NONE', #45, 1000.000000000000114 ) ;
#564 = ORIENTED_EDGE ( 'NONE', *, *, #858, .T. ) ;
#565 = CARTESIAN_POINT ( 'NONE',  ( -21.04772603619105098, 18.54758282648744938, -89.69999999999998863 ) ) ;
#566 = AXIS2_PLACEMENT_3D ( 'NONE', #188, #476, #373 ) ;
#567 = CARTESIAN_POINT ( 'NONE',  ( 0.000000000000000000, 0.000000000000000000, 5.999999999999999112 ) ) ;
#568 = DIRECTION ( 'NONE',  ( 1.000000000000000000, 0.000000000000000000, -0.000000000000000000 ) ) ;
#569 = ORIENTED_EDGE ( 'NONE', *, *, #577, .T. ) ;
#570 = ADVANCED_FACE ( 'NONE', ( #827, #11 ), #1014, .F. ) ;
#571 = EDGE_CURVE ( 'NONE', #237, #179, #366, .T. ) ;
#572 = ORIENTED_EDGE ( 'NONE', *, *, #577, .F. ) ;
#573 = DIRECTION ( 'NONE',  ( -0.2382055930957887313, -0.9712147524712974045, 0.000000000000000000 ) ) ;
#574 = CARTESIAN_POINT ( 'NONE',  ( -122.6741353846494178, 30.08774846392832814, -89.69999999999998863 ) ) ;
#575 = EDGE_LOOP ( 'NONE', ( #854, #1129, #773, #226 ) ) ;
#576 = VERTEX_POINT ( 'NONE', #837 ) ;
#577 = EDGE_CURVE ( 'NONE', #22, #113, #223, .T. ) ;
#578 = CARTESIAN_POINT ( 'NONE',  ( 4.949999999999999289, 6.062001655779397525E-16, 5.999999999999999112 ) ) ;
#579 = FACE_OUTER_BOUND ( 'NONE', #759, .T. ) ;
#580 = ORIENTED_EDGE ( 'NONE', *, *, #589, .T. ) ;
#581 = CARTESIAN_POINT ( 'NONE',  ( 17.36381742404881834, 9.126551619548990857, -64.19999999999997442 ) ) ;
#582 = FACE_OUTER_BOUND ( 'NONE', #246, .T. ) ;
#583 = CIRCLE ( 'NONE', #238, 2.250000000000004885 ) ;
#584 = VECTOR ( 'NONE', #744, 1000.000000000000000 ) ;
#585 = ORIENTED_EDGE ( 'NONE', *, *, #439, .T. ) ;
#586 = FACE_OUTER_BOUND ( 'NONE', #1112, .T. ) ;
#587 = CARTESIAN_POINT ( 'NONE',  ( 12.27873425864054902, 7.284832531066164130, -47.70000000000000284 ) ) ;
#588 = EDGE_CURVE ( 'NONE', #1157, #957, #20, .T. ) ;
#589 = EDGE_CURVE ( 'NONE', #336, #321, #736, .T. ) ;
#590 = DIRECTION ( 'NONE',  ( -0.2382055930957887313, -0.9712147524712974045, 0.000000000000000000 ) ) ;
#591 = LINE ( 'NONE', #413, #276 ) ;
#592 = ORIENTED_EDGE ( 'NONE', *, *, #1035, .F. ) ;
#593 = ORIENTED_EDGE ( 'NONE', *, *, #1080, .F. ) ;
#594 = DIRECTION ( 'NONE',  ( 0.9712147524712972935, -0.2382055930957891476, 0.000000000000000000 ) ) ;
#595 = CARTESIAN_POINT ( 'NONE',  ( -21.76234281547841576, 15.63393856907355506, -79.69999999999998863 ) ) ;
#596 = AXIS2_PLACEMENT_3D ( 'NONE', #1156, #260, #538 ) ;
#597 = ORIENTED_EDGE ( 'NONE', *, *, #1137, .T. ) ;
#598 = AXIS2_PLACEMENT_3D ( 'NONE', #71, #83, #719 ) ;
#599 = AXIS2_PLACEMENT_3D ( 'NONE', #718, #87, #536 ) ;
#600 = ORIENTED_EDGE ( 'NONE', *, *, #230, .T. ) ;
#601 = CARTESIAN_POINT ( 'NONE',  ( -9.001585617553079288, 1.757967032427963927, -100.1368645245788258 ) ) ;
#602 = EDGE_CURVE ( 'NONE', #633, #457, #645, .T. ) ;
#603 = CARTESIAN_POINT ( 'NONE',  ( 18.79305098262355145, 14.95384013437677240, -64.19999999999997442 ) ) ;
#604 = VERTEX_POINT ( 'NONE', #559 ) ;
#605 = ORIENTED_EDGE ( 'NONE', *, *, #960, .T. ) ;
#606 = DIRECTION ( 'NONE',  ( 8.673617379884042375E-16, -2.168404344971010594E-16, -1.000000000000000000 ) ) ;
#607 = EDGE_CURVE ( 'NONE', #611, #36, #923, .T. ) ;
#608 = CARTESIAN_POINT ( 'NONE',  ( -13.42428768515978987, 16.67781545607238058, -84.69999999999971863 ) ) ;
#609 = ORIENTED_EDGE ( 'NONE', *, *, #57, .F. ) ;
#610 = LINE ( 'NONE', #987, #1022 ) ;
#611 = VERTEX_POINT ( 'NONE', #105 ) ;
#612 = LINE ( 'NONE', #86, #868 ) ;
#613 = APPLICATION_CONTEXT ( 'automotive_design' ) ;
#614 =( NAMED_UNIT ( * ) SI_UNIT ( $, .STERADIAN. ) SOLID_ANGLE_UNIT ( ) );
#615 = EDGE_CURVE ( 'NONE', #741, #846, #303, .T. ) ;
#616 = DIRECTION ( 'NONE',  ( 0.2382055930957795165, 0.9712147524712996249, -0.000000000000000000 ) ) ;
#617 = AXIS2_PLACEMENT_3D ( 'NONE', #262, #172, #710 ) ;
#618 = LINE ( 'NONE', #1070, #1002 ) ;
#619 = VECTOR ( 'NONE', #106, 1000.000000000000114 ) ;
#620 = ORIENTED_EDGE ( 'NONE', *, *, #1148, .F. ) ;
#621 = AXIS2_PLACEMENT_3D ( 'NONE', #398, #780, #1145 ) ;
#622 = DIRECTION ( 'NONE',  ( -0.9712147524712972935, 0.2382055930957892864, 0.000000000000000000 ) ) ;
#623 = DIRECTION ( 'NONE',  ( -0.9712147524712974045, 0.2382055930957891476, 0.000000000000000000 ) ) ;
#624 = DIRECTION ( 'NONE',  ( 6.608470384673555954E-16, -1.652117596168388989E-16, -1.000000000000000000 ) ) ;
#625 = FACE_OUTER_BOUND ( 'NONE', #1060, .T. ) ;
#626 = EDGE_CURVE ( 'NONE', #839, #220, #1025, .T. ) ;
#627 = ORIENTED_EDGE ( 'NONE', *, *, #26, .F. ) ;
#628 = DIRECTION ( 'NONE',  ( 1.000000000000000000, 0.000000000000000000, 0.000000000000000000 ) ) ;
#629 = EDGE_CURVE ( 'NONE', #778, #793, #467, .T. ) ;
#630 = DIRECTION ( 'NONE',  ( 0.2382055930957887313, 0.9712147524712974045, 0.000000000000000000 ) ) ;
#631 = CYLINDRICAL_SURFACE ( 'NONE', #1057, 4.000000000000005329 ) ;
#632 = DIRECTION ( 'NONE',  ( 0.9712147524712977376, -0.2382055930957873713, 0.000000000000000000 ) ) ;
#633 = VERTEX_POINT ( 'NONE', #382 ) ;
#634 = DIRECTION ( 'NONE',  ( 0.9712147524712975155, -0.2382055930957886480, 0.000000000000000000 ) ) ;
#635 = ORIENTED_EDGE ( 'NONE', *, *, #894, .T. ) ;
#636 = CARTESIAN_POINT ( 'NONE',  ( 16.86423928239425862, 9.249080964606518407, -84.69999999999971863 ) ) ;
#637 = CARTESIAN_POINT ( 'NONE',  ( 4.949999999999999289, 6.062001655779397525E-16, 5.000000000000000000 ) ) ;
#638 = DIRECTION ( 'NONE',  ( -0.1561945666727421744, -0.9877263068997981232, 0.000000000000000000 ) ) ;
#639 = VERTEX_POINT ( 'NONE', #1019 ) ;
#640 = CIRCLE ( 'NONE', #201, 4.000000000000001776 ) ;
#641 = CARTESIAN_POINT ( 'NONE',  ( -16.32413765750757761, 14.30013378312400363, -84.69999999999971863 ) ) ;
#642 = CIRCLE ( 'NONE', #598, 4.000000000000006217 ) ;
#643 = VECTOR ( 'NONE', #411, 1000.000000000000114 ) ;
#644 = EDGE_CURVE ( 'NONE', #741, #998, #200, .T. ) ;
#645 = LINE ( 'NONE', #1104, #50 ) ;
#646 = LINE ( 'NONE', #637, #446 ) ;
#647 = PLANE ( 'NONE',  #541 ) ;
#648 = ORIENTED_EDGE ( 'NONE', *, *, #198, .F. ) ;
#649 = CARTESIAN_POINT ( 'NONE',  ( -8.110195116699857820, 21.55228159851701619, -84.69999999999971863 ) ) ;
#650 = DIRECTION ( 'NONE',  ( 0.2382055930957795165, 0.9712147524712996249, -0.000000000000000000 ) ) ;
#651 = CARTESIAN_POINT ( 'NONE',  ( 20.74909829227944513, 8.296258592223365369, -84.69999999999971863 ) ) ;
#652 = ORIENTED_EDGE ( 'NONE', *, *, #997, .F. ) ;
#653 = DIRECTION ( 'NONE',  ( 0.9712147524712972935, -0.2382055930957890089, 0.000000000000000000 ) ) ;
#654 = ORIENTED_EDGE ( 'NONE', *, *, #528, .F. ) ;
#655 = CARTESIAN_POINT ( 'NONE',  ( -13.46960238313809910, 7.047435777045125249, -84.69999999999971863 ) ) ;
#656 = DIRECTION ( 'NONE',  ( -0.1684367901945902912, -0.6867525374608738353, -0.7071067811865437980 ) ) ;
#657 = ADVANCED_FACE ( 'NONE', ( #114 ), #213, .F. ) ;
#658 = DIRECTION ( 'NONE',  ( 0.000000000000000000, 0.000000000000000000, 1.000000000000000000 ) ) ;
#659 = VERTEX_POINT ( 'NONE', #750 ) ;
#660 = ADVANCED_FACE ( 'NONE', ( #756 ), #1114, .T. ) ;
#661 = VECTOR ( 'NONE', #270, 1000.000000000000227 ) ;
#662 = AXIS2_PLACEMENT_3D ( 'NONE', #896, #707, #993 ) ;
#663 = DIRECTION ( 'NONE',  ( 1.000000000000000000, 0.000000000000000000, -0.000000000000000000 ) ) ;
#664 = AXIS2_PLACEMENT_3D ( 'NONE', #297, #940, #663 ) ;
#665 = CARTESIAN_POINT ( 'NONE',  ( -11.23905449209935981, 16.14185287160686144, -84.69999999999971863 ) ) ;
#666 = EDGE_LOOP ( 'NONE', ( #306, #865, #4, #549 ) ) ;
#667 = ADVANCED_FACE ( 'NONE', ( #935 ), #391, .F. ) ;
#668 = EDGE_LOOP ( 'NONE', ( #585, #564 ) ) ;
#669 = DIRECTION ( 'NONE',  ( 0.2382055930957892032, 0.9712147524712972935, -0.000000000000000000 ) ) ;
#670 = CARTESIAN_POINT ( 'NONE',  ( 18.83443383782186586, 5.676944777669575615, -64.19999999999997442 ) ) ;
#671 = CARTESIAN_POINT ( 'NONE',  ( 0.000000000000000000, 0.000000000000000000, 0.000000000000000000 ) ) ;
#672 = EDGE_LOOP ( 'NONE', ( #64, #199 ) ) ;
#673 = ORIENTED_EDGE ( 'NONE', *, *, #43, .F. ) ;
#674 = LINE ( 'NONE', #1135, #1006 ) ;
#675 = LINE ( 'NONE', #587, #425 ) ;
#676 = ORIENTED_EDGE ( 'NONE', *, *, #189, .F. ) ;
#677 = CARTESIAN_POINT ( 'NONE',  ( -21.76234281547841576, 15.63393856907355506, -89.69999999999998863 ) ) ;
#678 = AXIS2_PLACEMENT_3D ( 'NONE', #809, #357, #909 ) ;
#679 = VECTOR ( 'NONE', #234, 1000.000000000000227 ) ;
#680 = EDGE_CURVE ( 'NONE', #576, #149, #376, .T. ) ;
#681 = CARTESIAN_POINT ( 'NONE',  ( 4.580188061034265345, 60.65494107923573353, -89.69999999999998863 ) ) ;
#682 = CIRCLE ( 'NONE', #683, 3.999999999999994227 ) ;
#683 = AXIS2_PLACEMENT_3D ( 'NONE', #496, #774, #1130 ) ;
#684 = ORIENTED_EDGE ( 'NONE', *, *, #752, .T. ) ;
#685 = EDGE_CURVE ( 'NONE', #639, #436, #493, .T. ) ;
#686 = LINE ( 'NONE', #1036, #835 ) ;
#687 = DIRECTION ( 'NONE',  ( -0.9712147524712974045, 0.2382055930957892587, 0.000000000000000000 ) ) ;
#688 = ORIENTED_EDGE ( 'NONE', *, *, #405, .F. ) ;
#689 = DIRECTION ( 'NONE',  ( 0.000000000000000000, 0.000000000000000000, 1.000000000000000000 ) ) ;
#690 = CARTESIAN_POINT ( 'NONE',  ( -14.13890446444715465, 13.76417119865847738, -84.69999999999971863 ) ) ;
#691 = ORIENTED_EDGE ( 'NONE', *, *, #31, .F. ) ;
#692 = EDGE_CURVE ( 'NONE', #336, #976, #233, .T. ) ;
#693 = ORIENTED_EDGE ( 'NONE', *, *, #206, .T. ) ;
#694 = CARTESIAN_POINT ( 'NONE',  ( 3.096672710245099935, 12.62579178212622111, -3.988211689747996724E-17 ) ) ;
#695 = CARTESIAN_POINT ( 'NONE',  ( -6.515466113415283367, 11.89440382824325582, -79.69999999999971863 ) ) ;
#696 =( GEOMETRIC_REPRESENTATION_CONTEXT ( 3 ) GLOBAL_UNCERTAINTY_ASSIGNED_CONTEXT ( ( #468 ) ) GLOBAL_UNIT_ASSIGNED_CONTEXT ( ( #1098, #1016, #15 ) ) REPRESENTATION_CONTEXT ( 'NONE', 'WORKASPACE' ) );
#697 = EDGE_LOOP ( 'NONE', ( #703, #930, #569, #324 ) ) ;
#698 = AXIS2_PLACEMENT_3D ( 'NONE', #137, #1138, #1044 ) ;
#699 = VECTOR ( 'NONE', #290, 1000.000000000000000 ) ;
#700 = EDGE_LOOP ( 'NONE', ( #782, #572 ) ) ;
#701 = ADVANCED_FACE ( 'NONE', ( #855, #327 ), #499, .F. ) ;
#702 = DIRECTION ( 'NONE',  ( 0.000000000000000000, 0.000000000000000000, 1.000000000000000000 ) ) ;
#703 = ORIENTED_EDGE ( 'NONE', *, *, #511, .F. ) ;
#704 = DIRECTION ( 'NONE',  ( -0.2382055930957887313, -0.9712147524712974045, 0.000000000000000000 ) ) ;
#705 = ORIENTED_EDGE ( 'NONE', *, *, #692, .F. ) ;
#706 = CARTESIAN_POINT ( 'NONE',  ( -19.61849247761630721, 24.37487134131525224, -89.69999999999998863 ) ) ;
#707 = DIRECTION ( 'NONE',  ( 0.000000000000000000, 0.000000000000000000, 1.000000000000000000 ) ) ;
#708 = CARTESIAN_POINT ( 'NONE',  ( 3.012757610415866427, 50.74299392709592382, -2.000000000000085265 ) ) ;
#709 = ORIENTED_EDGE ( 'NONE', *, *, #292, .F. ) ;
#710 = DIRECTION ( 'NONE',  ( -0.9712147524712972935, 0.2382055930957893974, 0.000000000000000000 ) ) ;
#711 = FACE_OUTER_BOUND ( 'NONE', #1144, .T. ) ;
#712 = DIRECTION ( 'NONE',  ( -0.2382055930957892587, -0.9712147524712974045, -0.000000000000000000 ) ) ;
#713 = CARTESIAN_POINT ( 'NONE',  ( 23.16351736874435474, 13.88191496544573234, -89.69999999999997442 ) ) ;
#714 = ORIENTED_EDGE ( 'NONE', *, *, #325, .T. ) ;
#715 = AXIS2_PLACEMENT_3D ( 'NONE', #194, #848, #1095 ) ;
#716 = EDGE_CURVE ( 'NONE', #1021, #846, #1046, .T. ) ;
#717 = FACE_BOUND ( 'NONE', #965, .T. ) ;
#718 = CARTESIAN_POINT ( 'NONE',  ( 4.692135739413818563, -1.576820282377112248, 5.999999999999999112 ) ) ;
#719 = DIRECTION ( 'NONE',  ( -0.9712147524712974045, 0.2382055930957891476, 0.000000000000000000 ) ) ;
#720 = PLANE ( 'NONE',  #596 ) ;
#721 = ORIENTED_EDGE ( 'NONE', *, *, #746, .T. ) ;
#722 = LINE ( 'NONE', #157, #178 ) ;
#723 = FILL_AREA_STYLE_COLOUR ( '', #1100 ) ;
#724 = DIRECTION ( 'NONE',  ( 0.9712147524712977376, -0.2382055930957873713, 0.000000000000000000 ) ) ;
#725 = FACE_BOUND ( 'NONE', #672, .T. ) ;
#726 = ORIENTED_EDGE ( 'NONE', *, *, #1063, .T. ) ;
#727 = EDGE_CURVE ( 'NONE', #280, #1147, #37, .T. ) ;
#728 = LINE ( 'NONE', #93, #732 ) ;
#729 = CARTESIAN_POINT ( 'NONE',  ( -19.61849247761630721, 24.37487134131525224, -79.69999999999998863 ) ) ;
#730 = CARTESIAN_POINT ( 'NONE',  ( 3.012757610415866427, 50.74299392709592382, -2.000000000000057288 ) ) ;
#731 = EDGE_LOOP ( 'NONE', ( #191, #124 ) ) ;
#732 = VECTOR ( 'NONE', #281, 1000.000000000000114 ) ;
#733 = STYLED_ITEM ( 'NONE', ( #286 ), #126 ) ;
#734 = LINE ( 'NONE', #10, #125 ) ;
#735 = EDGE_CURVE ( 'NONE', #639, #741, #44, .T. ) ;
#736 = CIRCLE ( 'NONE', #715, 4.000000000000001776 ) ;
#737 = ORIENTED_EDGE ( 'NONE', *, *, #932, .F. ) ;
#738 = CARTESIAN_POINT ( 'NONE',  ( 16.86423928239425862, 9.249080964606516631, -84.69999999999971863 ) ) ;
#739 = DIRECTION ( 'NONE',  ( 6.938893903907232322E-16, 0.000000000000000000, 1.000000000000000000 ) ) ;
#740 = DIRECTION ( 'NONE',  ( 1.000000000000000000, 0.000000000000000000, 0.000000000000000000 ) ) ;
#741 = VERTEX_POINT ( 'NONE', #136 ) ;
#742 = CARTESIAN_POINT ( 'NONE',  ( 21.24867643393400840, 8.173729247165834266, -64.19999999999997442 ) ) ;
#743 = ORIENTED_EDGE ( 'NONE', *, *, #692, .T. ) ;
#744 = DIRECTION ( 'NONE',  ( -0.1106396438647836156, -0.6996510132150628447, 0.7058663676026857292 ) ) ;
#745 = EDGE_CURVE ( 'NONE', #149, #576, #35, .T. ) ;
#746 = EDGE_CURVE ( 'NONE', #436, #53, #312, .T. ) ;
#747 = CARTESIAN_POINT ( 'NONE',  ( 12.94803633994966141, 0.5680971094527782483, -64.19999999999997442 ) ) ;
#748 = PRODUCT_CONTEXT ( 'NONE', #613, 'mechanical' ) ;
#749 = ORIENTED_EDGE ( 'NONE', *, *, #440, .F. ) ;
#750 = CARTESIAN_POINT ( 'NONE',  ( 18.33485569616731681, 5.799474122727096059, -84.69999999999971863 ) ) ;
#751 = LINE ( 'NONE', #115, #945 ) ;
#752 = EDGE_CURVE ( 'NONE', #1157, #314, #674, .T. ) ;
#753 = ORIENTED_EDGE ( 'NONE', *, *, #914, .T. ) ;
#754 = AXIS2_PLACEMENT_3D ( 'NONE', #567, #560, #202 ) ;
#755 = ORIENTED_EDGE ( 'NONE', *, *, #217, .F. ) ;
#756 = FACE_OUTER_BOUND ( 'NONE', #380, .T. ) ;
#757 = AXIS2_PLACEMENT_3D ( 'NONE', #694, #51, #594 ) ;
#758 = CARTESIAN_POINT ( 'NONE',  ( 3.012757610415863319, 50.74299392709592382, -2.000000000000057288 ) ) ;
#759 = EDGE_LOOP ( 'NONE', ( #17, #289, #1143, #1149, #726 ) ) ;
#760 = ORIENTED_EDGE ( 'NONE', *, *, #777, .T. ) ;
#761 = DIRECTION ( 'NONE',  ( 0.2382055930957892309, 0.9712147524712972935, 0.000000000000000000 ) ) ;
#762 = CARTESIAN_POINT ( 'NONE',  ( -13.42428768515978277, 16.67781545607239124, -84.69999999999971863 ) ) ;
#763 = ORIENTED_EDGE ( 'NONE', *, *, #528, .T. ) ;
#764 = EDGE_CURVE ( 'NONE', #998, #561, #491, .T. ) ;
#765 = DIRECTION ( 'NONE',  ( -0.2382055930957887313, -0.9712147524712974045, 0.000000000000000000 ) ) ;
#766 = CYLINDRICAL_SURFACE ( 'NONE', #1075, 2.250000000000004441 ) ;
#767 = ORIENTED_EDGE ( 'NONE', *, *, #1158, .T. ) ;
#768 = DIRECTION ( 'NONE',  ( -0.9712147524712970714, 0.2382055930957893419, 0.000000000000000000 ) ) ;
#769 = AXIS2_PLACEMENT_3D ( 'NONE', #351, #996, #249 ) ;
#770 = VECTOR ( 'NONE', #460, 1000.000000000000000 ) ;
#771 = CARTESIAN_POINT ( 'NONE',  ( 12.27873425864057744, 7.284832531066157024, -79.69999999999997442 ) ) ;
#772 = VECTOR ( 'NONE', #1041, 1000.000000000000000 ) ;
#773 = ORIENTED_EDGE ( 'NONE', *, *, #680, .T. ) ;
#774 = DIRECTION ( 'NONE',  ( 0.2382055930957892309, 0.9712147524712972935, 0.000000000000000000 ) ) ;
#775 = EDGE_CURVE ( 'NONE', #604, #144, #946, .T. ) ;
#776 = CARTESIAN_POINT ( 'NONE',  ( 0.000000000000000000, 0.000000000000000000, 5.000000000000000000 ) ) ;
#777 = EDGE_CURVE ( 'NONE', #280, #817, #682, .T. ) ;
#778 = VERTEX_POINT ( 'NONE', #677 ) ;
#779 = ORIENTED_EDGE ( 'NONE', *, *, #1035, .T. ) ;
#780 = DIRECTION ( 'NONE',  ( -0.2382055930957871770, -0.9712147524712978486, 0.000000000000000000 ) ) ;
#781 = LINE ( 'NONE', #681, #679 ) ;
#782 = ORIENTED_EDGE ( 'NONE', *, *, #180, .F. ) ;
#783 = PRODUCT ( '010_019_Left_right_bearing_mount_back_1', '010_019_Left_right_bearing_mount_back_1', '', ( #748 ) ) ;
#784 = EDGE_CURVE ( 'NONE', #150, #611, #141, .T. ) ;
#785 = ORIENTED_EDGE ( 'NONE', *, *, #501, .F. ) ;
#786 = DIRECTION ( 'NONE',  ( -0.2382055930957892587, -0.9712147524712974045, -0.000000000000000000 ) ) ;
#787 = PLANE ( 'NONE',  #791 ) ;
#788 = VECTOR ( 'NONE', #244, 1000.000000000000114 ) ;
#789 = ORIENTED_EDGE ( 'NONE', *, *, #823, .T. ) ;
#790 = AXIS2_PLACEMENT_3D ( 'NONE', #392, #849, #843 ) ;
#791 = AXIS2_PLACEMENT_3D ( 'NONE', #972, #152, #630 ) ;
#792 = CARTESIAN_POINT ( 'NONE',  ( 20.80780169916286937, 46.37848132003383483, -49.69999999999986073 ) ) ;
#793 = VERTEX_POINT ( 'NONE', #416 ) ;
#794 = CARTESIAN_POINT ( 'NONE',  ( 16.64920064476145001, 6.212907362135099198, -64.19999999999997442 ) ) ;
#795 = DIRECTION ( 'NONE',  ( -0.2382055930957887868, -0.9712147524712975155, 0.000000000000000000 ) ) ;
#796 = FACE_OUTER_BOUND ( 'NONE', #1085, .T. ) ;
#797 = CARTESIAN_POINT ( 'NONE',  ( 18.79305098262355145, 14.95384013437677240, -64.19999999999997442 ) ) ;
#798 = ORIENTED_EDGE ( 'NONE', *, *, #273, .T. ) ;
#799 = PLANE ( 'NONE',  #808 ) ;
#800 = PLANE ( 'NONE',  #1042 ) ;
#801 = FACE_BOUND ( 'NONE', #419, .T. ) ;
#802 = ADVANCED_FACE ( 'NONE', ( #240 ), #317, .F. ) ;
#803 = CARTESIAN_POINT ( 'NONE',  ( -19.61849247761630721, 24.37487134131525224, -79.69999999999998863 ) ) ;
#804 = ORIENTED_EDGE ( 'NONE', *, *, #784, .F. ) ;
#805 = DIRECTION ( 'NONE',  ( -0.000000000000000000, -0.000000000000000000, -1.000000000000000000 ) ) ;
#806 = DIRECTION ( 'NONE',  ( -0.000000000000000000, -0.000000000000000000, 1.000000000000000000 ) ) ;
#807 = DIRECTION ( 'NONE',  ( 0.9712147524712972935, -0.2382055930957892032, 0.000000000000000000 ) ) ;
#808 = AXIS2_PLACEMENT_3D ( 'NONE', #971, #75, #622 ) ;
#809 = CARTESIAN_POINT ( 'NONE',  ( -26.61841657783489623, 16.82496653455249103, -40.19999999999999574 ) ) ;
#810 = VECTOR ( 'NONE', #828, 1000.000000000000000 ) ;
#811 = ORIENTED_EDGE ( 'NONE', *, *, #1018, .T. ) ;
#812 = PRESENTATION_LAYER_ASSIGNMENT (  '', '', ( #159 ) ) ;
#813 = LINE ( 'NONE', #177, #852 ) ;
#814 = CARTESIAN_POINT ( 'NONE',  ( 6.307338967056319134, -12.74298237044946269, -89.69999999999970441 ) ) ;
#815 = EDGE_CURVE ( 'NONE', #1005, #1033, #224, .T. ) ;
#816 = PLANE ( 'NONE',  #219 ) ;
#817 = VERTEX_POINT ( 'NONE', #1127 ) ;
#818 = DIRECTION ( 'NONE',  ( -0.2382055930957887313, -0.9712147524712974045, 0.000000000000000000 ) ) ;
#819 = ORIENTED_EDGE ( 'NONE', *, *, #727, .F. ) ;
#820 = CARTESIAN_POINT ( 'NONE',  ( -4.133410182457796900, 21.60655135295682072, -79.69999999999971863 ) ) ;
#821 = CARTESIAN_POINT ( 'NONE',  ( 12.27873425864054902, 7.284832531066164130, -47.70000000000000284 ) ) ;
#822 =( NAMED_UNIT ( * ) PLANE_ANGLE_UNIT ( ) SI_UNIT ( $, .RADIAN. ) );
#823 = EDGE_CURVE ( 'NONE', #150, #287, #686, .T. ) ;
#824 = ORIENTED_EDGE ( 'NONE', *, *, #1076, .F. ) ;
#825 = CARTESIAN_POINT ( 'NONE',  ( -4.371615775553369332, 20.63533660048499740, -79.69999999999971863 ) ) ;
#826 = VERTEX_POINT ( 'NONE', #216 ) ;
#827 = FACE_BOUND ( 'NONE', #700, .T. ) ;
#828 = DIRECTION ( 'NONE',  ( -6.608470384673555954E-16, 1.652117596168388989E-16, 1.000000000000000000 ) ) ;
#829 = ORIENTED_EDGE ( 'NONE', *, *, #905, .T. ) ;
#830 = AXIS2_PLACEMENT_3D ( 'NONE', #458, #99, #464 ) ;
#831 = CLOSED_SHELL ( 'NONE', ( #845, #657, #97, #132, #667, #954, #1077, #111, #701, #570, #1140, #1165, #869, #396, #1179, #381, #802, #448, #231, #481, #1049, #1125, #1087, #660, #438, #535, #973, #356, #866, #941, #832, #25, #295, #463, #117, #46, #251 ) ) ;
#832 = ADVANCED_FACE ( 'NONE', ( #586 ), #955, .F. ) ;
#833 = CARTESIAN_POINT ( 'NONE',  ( 23.16351736874435474, 13.88191496544573234, -89.69999999999997442 ) ) ;
#834 = CIRCLE ( 'NONE', #300, 3.999999999999994227 ) ;
#835 = VECTOR ( 'NONE', #590, 1000.000000000000114 ) ;
#836 = ORIENTED_EDGE ( 'NONE', *, *, #607, .T. ) ;
#837 = CARTESIAN_POINT ( 'NONE',  ( 19.54905061710923420, 8.590589035083464609, -64.19999999999997442 ) ) ;
#838 = PLANE ( 'NONE',  #1004 ) ;
#839 = VERTEX_POINT ( 'NONE', #151 ) ;
#840 = EDGE_LOOP ( 'NONE', ( #454, #58, #673, #508, #684, #378, #109, #1113 ) ) ;
#841 = EDGE_CURVE ( 'NONE', #1013, #358, #514, .T. ) ;
#842 = DIRECTION ( 'NONE',  ( -0.2382055930957892587, -0.9712147524712974045, -0.000000000000000000 ) ) ;
#843 = DIRECTION ( 'NONE',  ( 1.000000000000000000, 0.000000000000000000, 0.000000000000000000 ) ) ;
#844 = SURFACE_SIDE_STYLE ('',( #107 ) ) ;
#845 = ADVANCED_FACE ( 'NONE', ( #1089 ), #880, .F. ) ;
#846 = VERTEX_POINT ( 'NONE', #339 ) ;
#847 = VERTEX_POINT ( 'NONE', #267 ) ;
#848 = DIRECTION ( 'NONE',  ( 0.2382055930957892309, 0.9712147524712972935, 0.000000000000000000 ) ) ;
#849 = DIRECTION ( 'NONE',  ( 0.000000000000000000, 0.000000000000000000, 1.000000000000000000 ) ) ;
#850 = DIRECTION ( 'NONE',  ( 0.000000000000000000, 0.000000000000000000, 1.000000000000000000 ) ) ;
#851 = ORIENTED_EDGE ( 'NONE', *, *, #1050, .T. ) ;
#852 = VECTOR ( 'NONE', #379, 1000.000000000000114 ) ;
#853 = VECTOR ( 'NONE', #616, 1000.000000000000114 ) ;
#854 = ORIENTED_EDGE ( 'NONE', *, *, #858, .F. ) ;
#855 = FACE_BOUND ( 'NONE', #731, .T. ) ;
#856 = DIRECTION ( 'NONE',  ( 0.000000000000000000, 0.000000000000000000, 1.000000000000000000 ) ) ;
#857 = ORIENTED_EDGE ( 'NONE', *, *, #1029, .F. ) ;
#858 = EDGE_CURVE ( 'NONE', #243, #422, #18, .T. ) ;
#859 = APPLICATION_CONTEXT ( 'automotive_design' ) ;
#860 = CARTESIAN_POINT ( 'NONE',  ( 20.80780169916286582, 46.37848132003383483, -115.0864105916004263 ) ) ;
#861 = DIRECTION ( 'NONE',  ( 0.9712147524712972935, -0.2382055930957893974, 0.000000000000000000 ) ) ;
#862 = ORIENTED_EDGE ( 'NONE', *, *, #527, .F. ) ;
#863 = DIRECTION ( 'NONE',  ( -0.1561945666727420357, -0.9877263068997981232, 0.000000000000000000 ) ) ;
#864 = PLANE ( 'NONE',  #158 ) ;
#865 = ORIENTED_EDGE ( 'NONE', *, *, #989, .F. ) ;
#866 = ADVANCED_FACE ( 'NONE', ( #985 ), #904, .F. ) ;
#867 = CARTESIAN_POINT ( 'NONE',  ( 14.40861383108381055, 16.02919185181745476, -84.69999999999971863 ) ) ;
#868 = VECTOR ( 'NONE', #432, 1000.000000000000000 ) ;
#869 = ADVANCED_FACE ( 'NONE', ( #884 ), #427, .F. ) ;
#870 = AXIS2_PLACEMENT_3D ( 'NONE', #776, #956, #871 ) ;
#871 = DIRECTION ( 'NONE',  ( -1.000000000000000000, 0.000000000000000000, 0.000000000000000000 ) ) ;
#872 = VECTOR ( 'NONE', #669, 1000.000000000000114 ) ;
#873 = ORIENTED_EDGE ( 'NONE', *, *, #1174, .F. ) ;
#874 = ORIENTED_EDGE ( 'NONE', *, *, #81, .F. ) ;
#875 = CARTESIAN_POINT ( 'NONE',  ( 21.73428381016959676, 8.054626450617956124, -47.70000000000000284 ) ) ;
#876 = EDGE_CURVE ( 'NONE', #976, #847, #274, .T. ) ;
#877 = LINE ( 'NONE', #695, #964 ) ;
#878 = ORIENTED_EDGE ( 'NONE', *, *, #527, .T. ) ;
#879 = ORIENTED_EDGE ( 'NONE', *, *, #644, .T. ) ;
#880 = CYLINDRICAL_SURFACE ( 'NONE', #1136, 3.999999999999994227 ) ;
#881 = CARTESIAN_POINT ( 'NONE',  ( -4.889245219154004118, 0.7731631050300734609, 5.999999999999999112 ) ) ;
#882 = EDGE_LOOP ( 'NONE', ( #721, #386, #145, #444, #878, #368, #1102, #1178 ) ) ;
#883 = ORIENTED_EDGE ( 'NONE', *, *, #891, .F. ) ;
#884 = FACE_OUTER_BOUND ( 'NONE', #103, .T. ) ;
#885 = CIRCLE ( 'NONE', #944, 4.949999999999999289 ) ;
#886 = CARTESIAN_POINT ( 'NONE',  ( -4.949999999999999289, 0.000000000000000000, 0.000000000000000000 ) ) ;
#887 = CIRCLE ( 'NONE', #754, 4.949999999999999289 ) ;
#888 = EDGE_LOOP ( 'NONE', ( #390, #212, #654, #857 ) ) ;
#889 = CIRCLE ( 'NONE', #393, 2.250000000000004441 ) ;
#890 = PLANE ( 'NONE',  #502 ) ;
#891 = EDGE_CURVE ( 'NONE', #321, #847, #256, .T. ) ;
#892 = ORIENTED_EDGE ( 'NONE', *, *, #363, .T. ) ;
#893 = CARTESIAN_POINT ( 'NONE',  ( 14.90819197273835783, 15.90666250675993076, -64.19999999999997442 ) ) ;
#894 = EDGE_CURVE ( 'NONE', #1028, #1157, #166, .T. ) ;
#895 = DIRECTION ( 'NONE',  ( 0.2382055930957892309, 0.9712147524712972935, 0.000000000000000000 ) ) ;
#896 = CARTESIAN_POINT ( 'NONE',  ( 0.000000000000000000, 0.000000000000000000, 16.00000000000000000 ) ) ;
#897 = DIRECTION ( 'NONE',  ( -0.9712147524712972935, 0.2382055930957893974, 0.000000000000000000 ) ) ;
#898 = ORIENTED_EDGE ( 'NONE', *, *, #602, .T. ) ;
#899 = CARTESIAN_POINT ( 'NONE',  ( -15.65483557619852206, 7.583398361510653274, -84.69999999999971863 ) ) ;
#900 = DIRECTION ( 'NONE',  ( 0.9712147524712997360, -0.2382055930957795442, 0.000000000000000000 ) ) ;
#901 = FACE_OUTER_BOUND ( 'NONE', #575, .T. ) ;
#902 = FACE_BOUND ( 'NONE', #558, .T. ) ;
#903 = ORIENTED_EDGE ( 'NONE', *, *, #384, .F. ) ;
#904 = CYLINDRICAL_SURFACE ( 'NONE', #408, 2.249999999999997780 ) ;
#905 = EDGE_CURVE ( 'NONE', #211, #462, #722, .T. ) ;
#906 = FACE_OUTER_BOUND ( 'NONE', #556, .T. ) ;
#907 = DIRECTION ( 'NONE',  ( 0.2382055930957892032, 0.9712147524712972935, -0.000000000000000000 ) ) ;
#908 = VECTOR ( 'NONE', #702, 1000.000000000000000 ) ;
#909 = DIRECTION ( 'NONE',  ( 0.000000000000000000, 0.000000000000000000, 1.000000000000000000 ) ) ;
#910 = ORIENTED_EDGE ( 'NONE', *, *, #735, .F. ) ;
#911 = CIRCLE ( 'NONE', #316, 2.250000000000004441 ) ;
#912 = LINE ( 'NONE', #1107, #65 ) ;
#913 = ORIENTED_EDGE ( 'NONE', *, *, #401, .F. ) ;
#914 = EDGE_CURVE ( 'NONE', #998, #988, #1068, .T. ) ;
#915 = LINE ( 'NONE', #183, #68 ) ;
#916 = EDGE_LOOP ( 'NONE', ( #873, #507 ) ) ;
#917 = CARTESIAN_POINT ( 'NONE',  ( 20.80780169916286582, 46.37848132003383483, -49.69999999999992468 ) ) ;
#918 = CARTESIAN_POINT ( 'NONE',  ( 11.44753287785586338, 18.52517910301451565, 27.28120640432639732 ) ) ;
#919 = LINE ( 'NONE', #1015, #299 ) ;
#920 = ORIENTED_EDGE ( 'NONE', *, *, #147, .T. ) ;
#921 = LINE ( 'NONE', #104, #1097 ) ;
#922 = ORIENTED_EDGE ( 'NONE', *, *, #273, .F. ) ;
#923 = LINE ( 'NONE', #275, #1079 ) ;
#924 = UNCERTAINTY_MEASURE_WITH_UNIT (LENGTH_MEASURE( 1.000000000000000082E-05 ), #515, 'distance_accuracy_value', 'NONE');
#925 = LINE ( 'NONE', #383, #127 ) ;
#926 = ORIENTED_EDGE ( 'NONE', *, *, #26, .T. ) ;
#927 = AXIS2_PLACEMENT_3D ( 'NONE', #547, #1168, #96 ) ;
#928 = EDGE_CURVE ( 'NONE', #36, #287, #534, .T. ) ;
#929 = CIRCLE ( 'NONE', #394, 4.000000000000006217 ) ;
#930 = ORIENTED_EDGE ( 'NONE', *, *, #142, .T. ) ;
#931 = CARTESIAN_POINT ( 'NONE',  ( 18.79305098262355145, 14.95384013437677240, -64.19999999999997442 ) ) ;
#932 = EDGE_CURVE ( 'NONE', #462, #139, #487, .T. ) ;
#933 = DIRECTION ( 'NONE',  ( 0.2382055930957892309, 0.9712147524712972935, 0.000000000000000000 ) ) ;
#934 = ORIENTED_EDGE ( 'NONE', *, *, #685, .F. ) ;
#935 = FACE_OUTER_BOUND ( 'NONE', #697, .T. ) ;
#936 = FACE_OUTER_BOUND ( 'NONE', #92, .T. ) ;
#937 = CARTESIAN_POINT ( 'NONE',  ( 0.000000000000000000, 0.000000000000000000, 0.000000000000000000 ) ) ;
#938 = EDGE_LOOP ( 'NONE', ( #205, #85, #372, #54, #755, #431 ) ) ;
#939 = ORIENTED_EDGE ( 'NONE', *, *, #1018, .F. ) ;
#940 = DIRECTION ( 'NONE',  ( 0.000000000000000000, 0.000000000000000000, 1.000000000000000000 ) ) ;
#941 = ADVANCED_FACE ( 'NONE', ( #529, #717 ), #799, .T. ) ;
#942 = LINE ( 'NONE', #1032, #810 ) ;
#943 = ORIENTED_EDGE ( 'NONE', *, *, #571, .T. ) ;
#944 = AXIS2_PLACEMENT_3D ( 'NONE', #337, #1066, #435 ) ;
#945 = VECTOR ( 'NONE', #739, 1000.000000000000000 ) ;
#946 = LINE ( 'NONE', #875, #16 ) ;
#947 = AXIS2_PLACEMENT_3D ( 'NONE', #608, #795, #168 ) ;
#948 = LINE ( 'NONE', #1131, #563 ) ;
#949 = EDGE_CURVE ( 'NONE', #314, #778, #612, .T. ) ;
#950 = ORIENTED_EDGE ( 'NONE', *, *, #775, .F. ) ;
#951 = CARTESIAN_POINT ( 'NONE',  ( 17.36381742404881834, 9.126551619548990857, -64.19999999999997442 ) ) ;
#952 = DIRECTION ( 'NONE',  ( 0.9712147524712974045, -0.2382055930957886758, 0.000000000000000000 ) ) ;
#953 = ORIENTED_EDGE ( 'NONE', *, *, #43, .T. ) ;
#954 = ADVANCED_FACE ( 'NONE', ( #1164 ), #1180, .F. ) ;
#955 = CYLINDRICAL_SURFACE ( 'NONE', #110, 4.000000000000005329 ) ;
#956 = DIRECTION ( 'NONE',  ( -0.000000000000000000, -0.000000000000000000, -1.000000000000000000 ) ) ;
#957 = VERTEX_POINT ( 'NONE', #445 ) ;
#958 = ORIENTED_EDGE ( 'NONE', *, *, #340, .F. ) ;
#959 = PRESENTATION_LAYER_ASSIGNMENT (  '', '', ( #733 ) ) ;
#960 = EDGE_CURVE ( 'NONE', #229, #150, #813, .T. ) ;
#961 = CARTESIAN_POINT ( 'NONE',  ( 18.90215695439657750, 38.60876330026348313, 5.999999999999999112 ) ) ;
#962 = AXIS2_PLACEMENT_3D ( 'NONE', #690, #328, #143 ) ;
#963 = CARTESIAN_POINT ( 'NONE',  ( -9.539428675274596259, 15.72499308368922222, -84.69999999999971863 ) ) ;
#964 = VECTOR ( 'NONE', #148, 999.9999999999998863 ) ;
#965 = EDGE_LOOP ( 'NONE', ( #874, #785 ) ) ;
#966 = ORIENTED_EDGE ( 'NONE', *, *, #716, .T. ) ;
#967 = DIRECTION ( 'NONE',  ( 0.1684367901945900692, 0.6867525374608739464, 0.7071067811865437980 ) ) ;
#968 = DIRECTION ( 'NONE',  ( -0.9877263068997982343, 0.1561945666727420357, 0.000000000000000000 ) ) ;
#969 = ORIENTED_EDGE ( 'NONE', *, *, #208, .T. ) ;
#970 = ORIENTED_EDGE ( 'NONE', *, *, #784, .T. ) ;
#971 = CARTESIAN_POINT ( 'NONE',  ( 4.525906268819836598, 18.45308029695399910, 1.115851571149159409E-15 ) ) ;
#972 = CARTESIAN_POINT ( 'NONE',  ( 21.73428381016959676, 8.054626450617956124, -47.70000000000000284 ) ) ;
#973 = ADVANCED_FACE ( 'NONE', ( #453 ), #542, .F. ) ;
#974 = ORIENTED_EDGE ( 'NONE', *, *, #1080, .T. ) ;
#975 = DIRECTION ( 'NONE',  ( -1.000000000000000000, 0.000000000000000000, 0.000000000000000000 ) ) ;
#976 = VERTEX_POINT ( 'NONE', #742 ) ;
#977 = CARTESIAN_POINT ( 'NONE',  ( 15.13326953301007904, 0.03213452498725295758, -64.19999999999997442 ) ) ;
#978 = AXIS2_PLACEMENT_3D ( 'NONE', #423, #983, #1169 ) ;
#979 = SURFACE_STYLE_FILL_AREA ( #1064 ) ;
#980 = AXIS2_PLACEMENT_3D ( 'NONE', #355, #169, #531 ) ;
#981 = PLANE ( 'NONE',  #88 ) ;
#982 = CIRCLE ( 'NONE', #108, 2.249999999999997335 ) ;
#983 = DIRECTION ( 'NONE',  ( 0.2382055930957892309, 0.9712147524712972935, 0.000000000000000000 ) ) ;
#984 = VERTEX_POINT ( 'NONE', #833 ) ;
#985 = FACE_OUTER_BOUND ( 'NONE', #294, .T. ) ;
#986 = FACE_OUTER_BOUND ( 'NONE', #1132, .T. ) ;
#987 = CARTESIAN_POINT ( 'NONE',  ( 4.580188061034265345, 60.65494107923573353, 5.999999999999999112 ) ) ;
#988 = VERTEX_POINT ( 'NONE', #192 ) ;
#989 = EDGE_CURVE ( 'NONE', #984, #793, #912, .T. ) ;
#990 = EDGE_CURVE ( 'NONE', #1099, #39, #272, .T. ) ;
#991 = DIRECTION ( 'NONE',  ( 0.2382055930957892309, 0.9712147524712974045, -0.000000000000000000 ) ) ;
#992 = DIRECTION ( 'NONE',  ( 0.2382055930957892309, 0.9712147524712972935, 0.000000000000000000 ) ) ;
#993 = DIRECTION ( 'NONE',  ( 1.000000000000000000, 0.000000000000000000, 0.000000000000000000 ) ) ;
#994 = LINE ( 'NONE', #525, #661 ) ;
#995 = VERTEX_POINT ( 'NONE', #641 ) ;
#996 = DIRECTION ( 'NONE',  ( 0.000000000000000000, 0.000000000000000000, 1.000000000000000000 ) ) ;
#997 = EDGE_CURVE ( 'NONE', #1065, #296, #734, .T. ) ;
#998 = VERTEX_POINT ( 'NONE', #365 ) ;
#999 = CYLINDRICAL_SURFACE ( 'NONE', #204, 3.999999999999994227 ) ;
#1000 = MECHANICAL_DESIGN_GEOMETRIC_PRESENTATION_REPRESENTATION (  '', ( #733 ), #485 ) ;
#1001 = PLANE ( 'NONE',  #980 ) ;
#1002 = VECTOR ( 'NONE', #1177, 1000.000000000000114 ) ;
#1003 = FACE_OUTER_BOUND ( 'NONE', #155, .T. ) ;
#1004 = AXIS2_PLACEMENT_3D ( 'NONE', #123, #856, #38 ) ;
#1005 = VERTEX_POINT ( 'NONE', #550 ) ;
#1006 = VECTOR ( 'NONE', #1141, 1000.000000000000114 ) ;
#1007 = CARTESIAN_POINT ( 'NONE',  ( -19.61849247761630721, 24.37487134131525224, -89.69999999999998863 ) ) ;
#1008 = DIRECTION ( 'NONE',  ( 0.2256429896175456973, 0.6714446457630340870, -0.7058663676026857292 ) ) ;
#1009 = UNCERTAINTY_MEASURE_WITH_UNIT (LENGTH_MEASURE( 1.000000000000000082E-05 ), #197, 'distance_accuracy_value', 'NONE');
#1010 = CARTESIAN_POINT ( 'NONE',  ( 24.00448311046021743, 55.89082921731998965, 5.999999999999999112 ) ) ;
#1011 = ORIENTED_EDGE ( 'NONE', *, *, #196, .T. ) ;
#1012 = CARTESIAN_POINT ( 'NONE',  ( 3.012757610415866427, 50.74299392709592382, -49.69999999999989626 ) ) ;
#1013 = VERTEX_POINT ( 'NONE', #649 ) ;
#1014 = PLANE ( 'NONE',  #566 ) ;
#1015 = CARTESIAN_POINT ( 'NONE',  ( 16.81892458441594584, -0.3812987144207483081, -84.69999999999971863 ) ) ;
#1016 =( NAMED_UNIT ( * ) PLANE_ANGLE_UNIT ( ) SI_UNIT ( $, .RADIAN. ) );
#1017 = ORIENTED_EDGE ( 'NONE', *, *, #752, .F. ) ;
#1018 = EDGE_CURVE ( 'NONE', #957, #826, #1101, .T. ) ;
#1019 = CARTESIAN_POINT ( 'NONE',  ( 1.758813249921151289, 42.81343620538411443, 5.999999999999999112 ) ) ;
#1020 = FILL_AREA_STYLE ('',( #279 ) ) ;
#1021 = VERTEX_POINT ( 'NONE', #917 ) ;
#1022 = VECTOR ( 'NONE', #170, 1000.000000000000000 ) ;
#1023 = CIRCLE ( 'NONE', #962, 2.250000000000004441 ) ;
#1024 = AXIS2_PLACEMENT_3D ( 'NONE', #565, #1109, #6 ) ;
#1025 = LINE ( 'NONE', #655, #872 ) ;
#1026 = DIRECTION ( 'NONE',  ( 0.2382055930957892032, 0.9712147524712972935, -0.000000000000000000 ) ) ;
#1027 = DIRECTION ( 'NONE',  ( 0.2382055930957873713, 0.9712147524712977376, 0.000000000000000000 ) ) ;
#1028 = VERTEX_POINT ( 'NONE', #1007 ) ;
#1029 = EDGE_CURVE ( 'NONE', #817, #176, #728, .T. ) ;
#1030 = ORIENTED_EDGE ( 'NONE', *, *, #876, .T. ) ;
#1031 = DIRECTION ( 'NONE',  ( -0.3185495519953742138, -0.9479062099825839027, 0.000000000000000000 ) ) ;
#1032 = CARTESIAN_POINT ( 'NONE',  ( 21.01966703088223198, 5.140982193204063577, -47.70000000000000284 ) ) ;
#1033 = VERTEX_POINT ( 'NONE', #1012 ) ;
#1034 = ORIENTED_EDGE ( 'NONE', *, *, #626, .F. ) ;
#1035 = EDGE_CURVE ( 'NONE', #826, #364, #19, .T. ) ;
#1036 = CARTESIAN_POINT ( 'NONE',  ( 12.99335103792794399, 10.19847678848005046, -79.69999999999997442 ) ) ;
#1037 = CARTESIAN_POINT ( 'NONE',  ( 16.14962250310689029, 6.335436707192621419, -84.69999999999971863 ) ) ;
#1038 = ORIENTED_EDGE ( 'NONE', *, *, #292, .T. ) ;
#1039 = VECTOR ( 'NONE', #195, 1000.000000000000114 ) ;
#1040 = VECTOR ( 'NONE', #406, 1000.000000000000114 ) ;
#1041 = DIRECTION ( 'NONE',  ( -8.673617379884042375E-16, 1.626303258728257884E-16, 1.000000000000000000 ) ) ;
#1042 = AXIS2_PLACEMENT_3D ( 'NONE', #245, #900, #258 ) ;
#1043 = EDGE_CURVE ( 'NONE', #611, #604, #921, .T. ) ;
#1044 = DIRECTION ( 'NONE',  ( -0.9712147524712974045, 0.2382055930957886758, 0.000000000000000000 ) ) ;
#1045 = ORIENTED_EDGE ( 'NONE', *, *, #196, .F. ) ;
#1046 = LINE ( 'NONE', #860, #239 ) ;
#1047 = FACE_OUTER_BOUND ( 'NONE', #882, .T. ) ;
#1048 = ORIENTED_EDGE ( 'NONE', *, *, #716, .F. ) ;
#1049 = ADVANCED_FACE ( 'NONE', ( #265 ), #72, .F. ) ;
#1050 = EDGE_CURVE ( 'NONE', #1028, #778, #618, .T. ) ;
#1051 = CARTESIAN_POINT ( 'NONE',  ( 0.000000000000000000, 0.000000000000000000, 5.999999999999999112 ) ) ;
#1052 = DIRECTION ( 'NONE',  ( 0.2382055930957795165, 0.9712147524712996249, -0.000000000000000000 ) ) ;
#1053 = ORIENTED_EDGE ( 'NONE', *, *, #340, .T. ) ;
#1054 = EDGE_LOOP ( 'NONE', ( #824, #1139 ) ) ;
#1055 = AXIS2_PLACEMENT_3D ( 'NONE', #937, #850, #740 ) ;
#1056 = CARTESIAN_POINT ( 'NONE',  ( -4.889245219154004118, 0.7731631050300734609, 5.999999999999999112 ) ) ;
#1057 = AXIS2_PLACEMENT_3D ( 'NONE', #429, #712, #807 ) ;
#1058 = DIRECTION ( 'NONE',  ( 0.2382055930957892309, 0.9712147524712974045, -0.000000000000000000 ) ) ;
#1059 = MECHANICAL_DESIGN_GEOMETRIC_PRESENTATION_REPRESENTATION (  '', ( #159 ), #1120 ) ;
#1060 = EDGE_LOOP ( 'NONE', ( #248, #121, #1170, #920, #1038, #261 ) ) ;
#1061 = ORIENTED_EDGE ( 'NONE', *, *, #384, .T. ) ;
#1062 = DIRECTION ( 'NONE',  ( 0.9712147524712974045, -0.2382055930957893974, 0.000000000000000000 ) ) ;
#1063 = EDGE_CURVE ( 'NONE', #296, #53, #91, .T. ) ;
#1064 = FILL_AREA_STYLE ('',( #723 ) ) ;
#1065 = VERTEX_POINT ( 'NONE', #548 ) ;
#1066 = DIRECTION ( 'NONE',  ( 0.000000000000000000, 0.000000000000000000, 1.000000000000000000 ) ) ;
#1067 = VERTEX_POINT ( 'NONE', #708 ) ;
#1068 = LINE ( 'NONE', #334, #908 ) ;
#1069 = FACE_BOUND ( 'NONE', #1054, .T. ) ;
#1070 = CARTESIAN_POINT ( 'NONE',  ( -21.04772603619105098, 18.54758282648744938, -89.69999999999998863 ) ) ;
#1071 = ORIENTED_EDGE ( 'NONE', *, *, #284, .F. ) ;
#1072 = DIRECTION ( 'NONE',  ( -0.9712147524712972935, 0.2382055930957892864, 0.000000000000000000 ) ) ;
#1073 = AXIS2_PLACEMENT_3D ( 'NONE', #63, #253, #451 ) ;
#1074 = DIRECTION ( 'NONE',  ( 0.9712147524712974045, -0.2382055930957886758, 0.000000000000000000 ) ) ;
#1075 = AXIS2_PLACEMENT_3D ( 'NONE', #500, #1058, #687 ) ;
#1076 = EDGE_CURVE ( 'NONE', #817, #280, #517, .T. ) ;
#1077 = ADVANCED_FACE ( 'NONE', ( #84 ), #430, .T. ) ;
#1078 = LINE ( 'NONE', #259, #221 ) ;
#1079 = VECTOR ( 'NONE', #573, 1000.000000000000114 ) ;
#1080 = EDGE_CURVE ( 'NONE', #1033, #1021, #343, .T. ) ;
#1081 = CARTESIAN_POINT ( 'NONE',  ( 12.97938027250907567, 10.20190333698967322, -84.69999999999971863 ) ) ;
#1082 = EDGE_LOOP ( 'NONE', ( #424, #910, #94, #1045 ) ) ;
#1083 = DIRECTION ( 'NONE',  ( -0.000000000000000000, 0.000000000000000000, 1.000000000000000000 ) ) ;
#1084 = CARTESIAN_POINT ( 'NONE',  ( 16.86423928239425862, 9.249080964606518407, -84.69999999999971863 ) ) ;
#1085 = EDGE_LOOP ( 'NONE', ( #397, #898, #1106, #475, #1071 ) ) ;
#1086 = LINE ( 'NONE', #713, #350 ) ;
#1087 = ADVANCED_FACE ( 'NONE', ( #1003 ), #816, .T. ) ;
#1088 = ORIENTED_EDGE ( 'NONE', *, *, #928, .F. ) ;
#1089 = FACE_OUTER_BOUND ( 'NONE', #888, .T. ) ;
#1090 = DIRECTION ( 'NONE',  ( -0.000000000000000000, -0.000000000000000000, 1.000000000000000000 ) ) ;
#1091 = DIRECTION ( 'NONE',  ( -0.000000000000000000, -0.000000000000000000, -1.000000000000000000 ) ) ;
#1092 = ORIENTED_EDGE ( 'NONE', *, *, #607, .F. ) ;
#1093 = DIRECTION ( 'NONE',  ( -0.9712147524712977376, 0.2382055930957871215, 0.000000000000000000 ) ) ;
#1094 = ORIENTED_EDGE ( 'NONE', *, *, #589, .F. ) ;
#1095 = DIRECTION ( 'NONE',  ( -0.9712147524712972935, 0.2382055930957893974, 0.000000000000000000 ) ) ;
#1096 = CARTESIAN_POINT ( 'NONE',  ( -4.889245219154012112, 0.7731631050300755703, 16.00000000000000000 ) ) ;
#1097 = VECTOR ( 'NONE', #653, 1000.000000000000227 ) ;
#1098 =( LENGTH_UNIT ( ) NAMED_UNIT ( * ) SI_UNIT ( .MILLI., .METRE. ) );
#1099 = VERTEX_POINT ( 'NONE', #443 ) ;
#1100 = COLOUR_RGB ( '',0.5019607843137254832, 0.000000000000000000, 0.5019607843137254832 ) ;
#1101 = LINE ( 'NONE', #825, #1117 ) ;
#1102 = ORIENTED_EDGE ( 'NONE', *, *, #554, .T. ) ;
#1103 = EDGE_CURVE ( 'NONE', #988, #1065, #994, .T. ) ;
#1104 = CARTESIAN_POINT ( 'NONE',  ( 6.307338967056319134, -12.74298237044946269, -89.69999999999970441 ) ) ;
#1105 = CARTESIAN_POINT ( 'NONE',  ( 21.01966703088223198, 5.140982193204063577, -47.70000000000000284 ) ) ;
#1106 = ORIENTED_EDGE ( 'NONE', *, *, #31, .T. ) ;
#1107 = CARTESIAN_POINT ( 'NONE',  ( 21.73428381016962518, 8.054626450617949018, -89.69999999999997442 ) ) ;
#1108 = ORIENTED_EDGE ( 'NONE', *, *, #307, .T. ) ;
#1109 = DIRECTION ( 'NONE',  ( -0.9712147524712974045, 0.2382055930957887313, 0.000000000000000000 ) ) ;
#1110 = LINE ( 'NONE', #1115, #1152 ) ;
#1111 = APPLICATION_PROTOCOL_DEFINITION ( 'draft international standard', 'automotive_design', 1998, #859 ) ;
#1112 = EDGE_LOOP ( 'NONE', ( #414, #512, #484, #540 ) ) ;
#1113 = ORIENTED_EDGE ( 'NONE', *, *, #960, .F. ) ;
#1114 = PLANE ( 'NONE',  #664 ) ;
#1115 = CARTESIAN_POINT ( 'NONE',  ( 12.44845819829509814, 0.6906264545103055763, -84.69999999999971863 ) ) ;
#1116 = ORIENTED_EDGE ( 'NONE', *, *, #989, .T. ) ;
#1117 = VECTOR ( 'NONE', #369, 1000.000000000000000 ) ;
#1118 = EDGE_CURVE ( 'NONE', #321, #336, #640, .T. ) ;
#1119 = AXIS2_PLACEMENT_3D ( 'NONE', #342, #361, #1161 ) ;
#1120 =( GEOMETRIC_REPRESENTATION_CONTEXT ( 3 ) GLOBAL_UNCERTAINTY_ASSIGNED_CONTEXT ( ( #924 ) ) GLOBAL_UNIT_ASSIGNED_CONTEXT ( ( #515, #433, #614 ) ) REPRESENTATION_CONTEXT ( 'NONE', 'WORKASPACE' ) );
#1121 = ORIENTED_EDGE ( 'NONE', *, *, #626, .T. ) ;
#1122 = CARTESIAN_POINT ( 'NONE',  ( -15.87991313647024683, 23.45792634328333293, -84.69999999999971863 ) ) ;
#1123 = CARTESIAN_POINT ( 'NONE',  ( -17.30914669504498349, 17.63063782845553717, -84.69999999999971863 ) ) ;
#1124 = EDGE_LOOP ( 'NONE', ( #580, #59, #495, #705 ) ) ;
#1125 = ADVANCED_FACE ( 'NONE', ( #154, #725, #902, #625 ), #348, .T. ) ;
#1126 = VERTEX_POINT ( 'NONE', #532 ) ;
#1127 = CARTESIAN_POINT ( 'NONE',  ( 22.17833185085417824, 14.12354710705114336, -84.69999999999971863 ) ) ;
#1128 = DIRECTION ( 'NONE',  ( 0.2382055930957892309, 0.9712147524712972935, 0.000000000000000000 ) ) ;
#1129 = ORIENTED_EDGE ( 'NONE', *, *, #57, .T. ) ;
#1130 = DIRECTION ( 'NONE',  ( -0.9712147524712974045, 0.2382055930957889811, 0.000000000000000000 ) ) ;
#1131 = CARTESIAN_POINT ( 'NONE',  ( -17.84006876925894503, 8.119360945976179522, -84.69999999999971863 ) ) ;
#1132 = EDGE_LOOP ( 'NONE', ( #605, #970, #153, #533, #597, #969 ) ) ;
#1133 = CIRCLE ( 'NONE', #1119, 2.250000000000004441 ) ;
#1134 = VECTOR ( 'NONE', #1031, 1000.000000000000114 ) ;
#1135 = CARTESIAN_POINT ( 'NONE',  ( -21.04772603619105098, 18.54758282648744938, -79.69999999999998863 ) ) ;
#1136 = AXIS2_PLACEMENT_3D ( 'NONE', #60, #66, #1062 ) ;
#1137 = EDGE_CURVE ( 'NONE', #984, #633, #1086, .T. ) ;
#1138 = DIRECTION ( 'NONE',  ( 0.2382055930957892309, 0.9712147524712972935, 0.000000000000000000 ) ) ;
#1139 = ORIENTED_EDGE ( 'NONE', *, *, #777, .F. ) ;
#1140 = ADVANCED_FACE ( 'NONE', ( #185, #175 ), #720, .T. ) ;
#1141 = DIRECTION ( 'NONE',  ( -0.2382055930957887313, -0.9712147524712974045, 0.000000000000000000 ) ) ;
#1142 = DIRECTION ( 'NONE',  ( 0.2382055930957892309, 0.9712147524712972935, 0.000000000000000000 ) ) ;
#1143 = ORIENTED_EDGE ( 'NONE', *, *, #1103, .T. ) ;
#1144 = EDGE_LOOP ( 'NONE', ( #819, #760, #186, #749 ) ) ;
#1145 = DIRECTION ( 'NONE',  ( 0.9712147524712977376, -0.2382055930957871492, 0.000000000000000000 ) ) ;
#1146 = CYLINDRICAL_SURFACE ( 'NONE', #870, 4.949999999999999289 ) ;
#1147 = VERTEX_POINT ( 'NONE', #1081 ) ;
#1148 = EDGE_CURVE ( 'NONE', #139, #462, #885, .T. ) ;
#1149 = ORIENTED_EDGE ( 'NONE', *, *, #997, .T. ) ;
#1150 = CARTESIAN_POINT ( 'NONE',  ( -8.110195116699857820, 21.55228159851701619, -84.69999999999971863 ) ) ;
#1151 = VECTOR ( 'NONE', #187, 1000.000000000000114 ) ;
#1152 = VECTOR ( 'NONE', #1026, 1000.000000000000114 ) ;
#1153 = CARTESIAN_POINT ( 'NONE',  ( 17.36381742404881834, 9.126551619548990857, -64.19999999999997442 ) ) ;
#1154 = AXIS2_PLACEMENT_3D ( 'NONE', #636, #181, #69 ) ;
#1155 = EDGE_LOOP ( 'NONE', ( #767, #652, #648, #329 ) ) ;
#1156 = CARTESIAN_POINT ( 'NONE',  ( 3.096672710245095494, 12.62579178212621933, 0.000000000000000000 ) ) ;
#1157 = VERTEX_POINT ( 'NONE', #803 ) ;
#1158 = EDGE_CURVE ( 'NONE', #1099, #296, #610, .T. ) ;
#1159 = DIRECTION ( 'NONE',  ( -0.2382055930957892309, -0.9712147524712972935, -0.000000000000000000 ) ) ;
#1160 = DIRECTION ( 'NONE',  ( 0.2382055930957886480, 0.9712147524712976265, -0.000000000000000000 ) ) ;
#1161 = DIRECTION ( 'NONE',  ( 0.9712147524712974045, -0.2382055930957886758, 0.000000000000000000 ) ) ;
#1162 = CARTESIAN_POINT ( 'NONE',  ( 4.580188061034265345, 60.65494107923573353, 16.00000000000000000 ) ) ;
#1163 = EDGE_LOOP ( 'NONE', ( #62, #232, #753, #349, #829, #28 ) ) ;
#1164 = FACE_OUTER_BOUND ( 'NONE', #42, .T. ) ;
#1165 = ADVANCED_FACE ( 'NONE', ( #518 ), #890, .F. ) ;
#1166 = PRODUCT_DEFINITION ( 'UNKNOWN', '', #539, #552 ) ;
#1167 = CARTESIAN_POINT ( 'NONE',  ( 16.14962250310689029, 6.335436707192621419, -84.69999999999971863 ) ) ;
#1168 = DIRECTION ( 'NONE',  ( -0.2382055930957895640, -0.9712147524712972935, -4.866144553921974900E-17 ) ) ;
#1169 = DIRECTION ( 'NONE',  ( -0.9712147524712974045, 0.2382055930957889811, 0.000000000000000000 ) ) ;
#1170 = ORIENTED_EDGE ( 'NONE', *, *, #629, .T. ) ;
#1171 = CARTESIAN_POINT ( 'NONE',  ( 12.27873425864054902, 7.284832531066164130, -47.70000000000000284 ) ) ;
#1172 = CIRCLE ( 'NONE', #236, 4.000000000000005329 ) ;
#1173 = CIRCLE ( 'NONE', #14, 2.250000000000004441 ) ;
#1174 = EDGE_CURVE ( 'NONE', #358, #179, #1172, .T. ) ;
#1175 = CARTESIAN_POINT ( 'NONE',  ( 14.67900608933383744, 9.785043549072041102, -84.69999999999971863 ) ) ;
#1176 = AXIS2_PLACEMENT_3D ( 'NONE', #931, #842, #122 ) ;
#1177 = DIRECTION ( 'NONE',  ( -0.2382055930957887313, -0.9712147524712974045, 0.000000000000000000 ) ) ;
#1178 = ORIENTED_EDGE ( 'NONE', *, *, #685, .T. ) ;
#1179 = ADVANCED_FACE ( 'NONE', ( #461 ), #647, .F. ) ;
#1180 = CYLINDRICAL_SURFACE ( 'NONE', #156, 2.250000000000004885 ) ;
ENDSEC;
END-ISO-10303-21;
