ISO-10303-21;
HEADER;
FILE_DESCRIPTION (( 'STEP AP214' ),
    '1' );
FILE_NAME ('010_013_Front_back_bearing_lock_2.STEP',
    '2024-07-21T08:36:51',
    ( '' ),
    ( '' ),
    'SwSTEP 2.0',
    'SolidWorks 2019',
    '' );
FILE_SCHEMA (( 'AUTOMOTIVE_DESIGN' ));
ENDSEC;

DATA;
#1 =( NAMED_UNIT ( * ) SI_UNIT ( $, .STERADIAN. ) SOLID_ANGLE_UNIT ( ) );
#2 = ORIENTED_EDGE ( 'NONE', *, *, #15, .T. ) ;
#3 = CARTESIAN_POINT ( 'NONE',  ( -13.36319701317137998, 34.72377035666543321, 46.30000000000018900 ) ) ;
#4 = EDGE_LOOP ( 'NONE', ( #311, #1036, #611, #1057, #408 ) ) ;
#5 = CARTESIAN_POINT ( 'NONE',  ( 43.67017627033155946, 22.33423839131426192, 41.00000000000000000 ) ) ;
#6 = DIRECTION ( 'NONE',  ( 1.799543832226189684E-15, -3.964109683421829816E-15, -1.000000000000000000 ) ) ;
#7 = ORIENTED_EDGE ( 'NONE', *, *, #681, .F. ) ;
#8 = AXIS2_PLACEMENT_3D ( 'NONE', #192, #212, #492 ) ;
#9 = DIRECTION ( 'NONE',  ( 0.4553361547666759934, -0.8903195977638017622, 3.714397489708602105E-15 ) ) ;
#10 = EDGE_CURVE ( 'NONE', #148, #822, #264, .T. ) ;
#11 = ORIENTED_EDGE ( 'NONE', *, *, #1124, .T. ) ;
#12 = AXIS2_PLACEMENT_3D ( 'NONE', #367, #102, #13 ) ;
#13 = DIRECTION ( 'NONE',  ( 1.000000000000000000, 0.000000000000000000, 0.000000000000000000 ) ) ;
#14 = CARTESIAN_POINT ( 'NONE',  ( -5.078389705632870843, 32.44990603476458091, 55.30000000000020322 ) ) ;
#15 = EDGE_CURVE ( 'NONE', #1169, #961, #1009, .T. ) ;
#16 = LINE ( 'NONE', #570, #1076 ) ;
#17 = AXIS2_PLACEMENT_3D ( 'NONE', #286, #31, #731 ) ;
#18 = VERTEX_POINT ( 'NONE', #462 ) ;
#19 = VECTOR ( 'NONE', #69, 1000.000000000000227 ) ;
#20 = CARTESIAN_POINT ( 'NONE',  ( -6.828389705632872619, 32.44990603476458091, 51.30000000000018190 ) ) ;
#21 = CARTESIAN_POINT ( 'NONE',  ( 13.95010937138163953, 43.97165639065626408, 55.30000000000019611 ) ) ;
#22 = LINE ( 'NONE', #948, #881 ) ;
#23 = FILL_AREA_STYLE_COLOUR ( '', #161 ) ;
#24 = ORIENTED_EDGE ( 'NONE', *, *, #1000, .F. ) ;
#25 = CARTESIAN_POINT ( 'NONE',  ( 27.87206927946459345, 33.34887935279932947, 35.50000000000000711 ) ) ;
#26 = CARTESIAN_POINT ( 'NONE',  ( 15.70010937138164131, 43.97165639065626408, 30.50000000000000000 ) ) ;
#27 = EDGE_CURVE ( 'NONE', #77, #347, #176, .T. ) ;
#28 = CARTESIAN_POINT ( 'NONE',  ( 16.48866541036877820, 55.60686929675532042, 51.30000000000018190 ) ) ;
#29 = ORIENTED_EDGE ( 'NONE', *, *, #60, .T. ) ;
#30 = VECTOR ( 'NONE', #44, 1000.000000000000000 ) ;
#31 = DIRECTION ( 'NONE',  ( 1.799543832226189684E-15, -3.964109683421829816E-15, -1.000000000000000000 ) ) ;
#32 = CYLINDRICAL_SURFACE ( 'NONE', #63, 4.949999999999999289 ) ;
#33 = ORIENTED_EDGE ( 'NONE', *, *, #544, .F. ) ;
#34 = DIRECTION ( 'NONE',  ( 1.000000000000000000, 0.000000000000000000, 0.000000000000000000 ) ) ;
#35 = DIRECTION ( 'NONE',  ( 4.279875033642743657E-17, 2.188856502311649891E-17, 1.000000000000000000 ) ) ;
#36 = LINE ( 'NONE', #111, #707 ) ;
#37 = EDGE_CURVE ( 'NONE', #942, #18, #86, .T. ) ;
#38 = EDGE_LOOP ( 'NONE', ( #534, #247 ) ) ;
#39 = CARTESIAN_POINT ( 'NONE',  ( 12.45010937138163953, 43.97165639065626408, 51.30000000000018190 ) ) ;
#40 = DIRECTION ( 'NONE',  ( -1.000000000000000000, 0.000000000000000000, 0.000000000000000000 ) ) ;
#41 = FACE_OUTER_BOUND ( 'NONE', #640, .T. ) ;
#42 = EDGE_CURVE ( 'NONE', #1106, #783, #444, .T. ) ;
#43 = ORIENTED_EDGE ( 'NONE', *, *, #560, .F. ) ;
#44 = DIRECTION ( 'NONE',  ( 0.000000000000000000, 0.000000000000000000, -1.000000000000000000 ) ) ;
#45 = AXIS2_PLACEMENT_3D ( 'NONE', #663, #377, #1029 ) ;
#46 = LINE ( 'NONE', #1062, #54 ) ;
#47 = AXIS2_PLACEMENT_3D ( 'NONE', #715, #9, #1014 ) ;
#48 = EDGE_CURVE ( 'NONE', #94, #403, #450, .T. ) ;
#49 = LINE ( 'NONE', #672, #105 ) ;
#50 = VERTEX_POINT ( 'NONE', #294 ) ;
#51 = ORIENTED_EDGE ( 'NONE', *, *, #595, .T. ) ;
#52 = AXIS2_PLACEMENT_3D ( 'NONE', #790, #166, #720 ) ;
#53 = CARTESIAN_POINT ( 'NONE',  ( 23.31870773179783285, 42.25207533043732155, 32.50000000000000000 ) ) ;
#54 = VECTOR ( 'NONE', #963, 1000.000000000000000 ) ;
#55 = SURFACE_STYLE_USAGE ( .BOTH. , #237 ) ;
#56 = EDGE_LOOP ( 'NONE', ( #527, #262, #542, #559 ) ) ;
#57 = ORIENTED_EDGE ( 'NONE', *, *, #523, .F. ) ;
#58 = EDGE_CURVE ( 'NONE', #812, #61, #564, .T. ) ;
#59 =( LENGTH_UNIT ( ) NAMED_UNIT ( * ) SI_UNIT ( .MILLI., .METRE. ) );
#60 = EDGE_CURVE ( 'NONE', #961, #1056, #1109, .T. ) ;
#61 = VERTEX_POINT ( 'NONE', #485 ) ;
#62 = VERTEX_POINT ( 'NONE', #580 ) ;
#63 = AXIS2_PLACEMENT_3D ( 'NONE', #860, #315, #231 ) ;
#64 = DIRECTION ( 'NONE',  ( 0.4553361547666759934, -0.8903195977638017622, 3.714397489708602105E-15 ) ) ;
#65 = CARTESIAN_POINT ( 'NONE',  ( 15.70010937138164131, 43.97165639065626408, 55.30000000000019611 ) ) ;
#66 = ORIENTED_EDGE ( 'NONE', *, *, #609, .T. ) ;
#67 = CARTESIAN_POINT ( 'NONE',  ( -9.813064361302684221E-13, -8.343700375852773830E-13, 55.30000000000034532 ) ) ;
#68 = ORIENTED_EDGE ( 'NONE', *, *, #620, .T. ) ;
#69 = DIRECTION ( 'NONE',  ( -0.8903195977638012071, -0.4553361547666769371, 0.000000000000000000 ) ) ;
#70 = CARTESIAN_POINT ( 'NONE',  ( 18.76534618413115751, 51.15527130807515022, 55.30000000000017479 ) ) ;
#71 = EDGE_CURVE ( 'NONE', #783, #213, #479, .T. ) ;
#72 = ORIENTED_EDGE ( 'NONE', *, *, #27, .F. ) ;
#73 = FACE_OUTER_BOUND ( 'NONE', #789, .T. ) ;
#74 = ORIENTED_EDGE ( 'NONE', *, *, #537, .F. ) ;
#75 = DIRECTION ( 'NONE',  ( -0.3219712827549274237, 0.6295510250020677212, 0.7071067811865421326 ) ) ;
#76 = DIRECTION ( 'NONE',  ( 1.000000000000000000, 0.000000000000000000, 0.000000000000000000 ) ) ;
#77 = VERTEX_POINT ( 'NONE', #941 ) ;
#78 = PRODUCT_DEFINITION_SHAPE ( 'NONE', 'NONE',  #838 ) ;
#79 = CARTESIAN_POINT ( 'NONE',  ( 18.95010937138163953, 43.97165639065626408, 51.30000000000018190 ) ) ;
#80 = EDGE_CURVE ( 'NONE', #178, #655, #869, .T. ) ;
#81 = ADVANCED_FACE ( 'NONE', ( #756, #1131 ), #104, .F. ) ;
#82 = ORIENTED_EDGE ( 'NONE', *, *, #502, .T. ) ;
#83 = CARTESIAN_POINT ( 'NONE',  ( -10.07838970563287262, 32.44990603476458091, 60.49238815542530290 ) ) ;
#84 = CARTESIAN_POINT ( 'NONE',  ( 23.31870773179783285, 42.25207533043732155, 100.5195568060177465 ) ) ;
#85 = VECTOR ( 'NONE', #897, 1000.000000000000000 ) ;
#86 = LINE ( 'NONE', #260, #811 ) ;
#87 = DIRECTION ( 'NONE',  ( -1.000000000000000000, 0.000000000000000000, 4.279875033642743657E-17 ) ) ;
#88 = ORIENTED_EDGE ( 'NONE', *, *, #476, .T. ) ;
#89 = CARTESIAN_POINT ( 'NONE',  ( -3.578389705632871731, 32.44990603476458091, 30.50000000000000000 ) ) ;
#90 = PRODUCT ( '010_013_Front_back_bearing_lock_2', '010_013_Front_back_bearing_lock_2', '', ( #480 ) ) ;
#91 = DIRECTION ( 'NONE',  ( 0.000000000000000000, 0.000000000000000000, -1.000000000000000000 ) ) ;
#92 = ORIENTED_EDGE ( 'NONE', *, *, #10, .T. ) ;
#93 = CARTESIAN_POINT ( 'NONE',  ( 15.43933467479755883, 77.53405345266999404, 86.37500000000008527 ) ) ;
#94 = VERTEX_POINT ( 'NONE', #28 ) ;
#95 = FACE_OUTER_BOUND ( 'NONE', #333, .T. ) ;
#96 = FACE_OUTER_BOUND ( 'NONE', #938, .T. ) ;
#97 = ADVANCED_FACE ( 'NONE', ( #217 ), #740, .T. ) ;
#98 = DIRECTION ( 'NONE',  ( -0.8903195977638013181, -0.4553361547666769371, 0.000000000000000000 ) ) ;
#99 = CYLINDRICAL_SURFACE ( 'NONE', #827, 3.249999999999999556 ) ;
#100 = ORIENTED_EDGE ( 'NONE', *, *, #430, .F. ) ;
#101 = EDGE_CURVE ( 'NONE', #1154, #62, #453, .T. ) ;
#102 = DIRECTION ( 'NONE',  ( 0.000000000000000000, 0.000000000000000000, -1.000000000000000000 ) ) ;
#103 = CARTESIAN_POINT ( 'NONE',  ( -24.74660088226721655, 56.98176030062145969, 55.29999999999999005 ) ) ;
#104 = PLANE ( 'NONE',  #1025 ) ;
#105 = VECTOR ( 'NONE', #779, 1000.000000000000000 ) ;
#106 = DIRECTION ( 'NONE',  ( -0.8903195977638007630, -0.4553361547666778808, 0.000000000000000000 ) ) ;
#107 = ORIENTED_EDGE ( 'NONE', *, *, #1070, .T. ) ;
#108 = CARTESIAN_POINT ( 'NONE',  ( -2.378967735984752530, 56.29431479875787403, 60.24974746830594086 ) ) ;
#109 = CARTESIAN_POINT ( 'NONE',  ( -4.128967735984752530, 56.29431479875787403, 55.30000000000011084 ) ) ;
#110 = VECTOR ( 'NONE', #98, 999.9999999999998863 ) ;
#111 = CARTESIAN_POINT ( 'NONE',  ( -13.36319701317137998, 34.72377035666543321, 32.50000000000000000 ) ) ;
#112 = AXIS2_PLACEMENT_3D ( 'NONE', #1027, #488, #934 ) ;
#113 = CIRCLE ( 'NONE', #813, 4.949999999999999289 ) ;
#114 = ORIENTED_EDGE ( 'NONE', *, *, #10, .F. ) ;
#115 = VECTOR ( 'NONE', #541, 1000.000000000000000 ) ;
#116 = EDGE_CURVE ( 'NONE', #553, #134, #604, .T. ) ;
#117 = LINE ( 'NONE', #202, #732 ) ;
#118 = CARTESIAN_POINT ( 'NONE',  ( 7.426458294923327763, 73.43602805976995285, 114.1757946928611318 ) ) ;
#119 = CARTESIAN_POINT ( 'NONE',  ( 4.556266011568928853, -1.934667938386777530, 30.50000000000000000 ) ) ;
#120 =( NAMED_UNIT ( * ) SI_UNIT ( $, .STERADIAN. ) SOLID_ANGLE_UNIT ( ) );
#121 = VERTEX_POINT ( 'NONE', #654 ) ;
#122 = EDGE_CURVE ( 'NONE', #776, #403, #22, .T. ) ;
#123 = FACE_OUTER_BOUND ( 'NONE', #338, .T. ) ;
#124 = CARTESIAN_POINT ( 'NONE',  ( -13.36319701317137998, 34.72377035666543321, 30.50000000000000000 ) ) ;
#125 =( GEOMETRIC_REPRESENTATION_CONTEXT ( 3 ) GLOBAL_UNCERTAINTY_ASSIGNED_CONTEXT ( ( #405 ) ) GLOBAL_UNIT_ASSIGNED_CONTEXT ( ( #1116, #1110, #565 ) ) REPRESENTATION_CONTEXT ( 'NONE', 'WORKASPACE' ) );
#126 = CARTESIAN_POINT ( 'NONE',  ( 15.04124609897233356, 67.22172949121460306, 76.35000000000005116 ) ) ;
#127 = VECTOR ( 'NONE', #442, 1000.000000000000000 ) ;
#128 = EDGE_LOOP ( 'NONE', ( #139, #809 ) ) ;
#129 = CIRCLE ( 'NONE', #335, 1.749999999999999778 ) ;
#130 = CARTESIAN_POINT ( 'NONE',  ( 4.949999999999999289, -6.062001655779397525E-16, 41.00000000000000000 ) ) ;
#131 = DIRECTION ( 'NONE',  ( 0.000000000000000000, -1.000000000000000000, 3.965082230804126670E-15 ) ) ;
#132 = DIRECTION ( 'NONE',  ( -0.4553361547666759379, 0.8903195977638016512, -3.714397489708601316E-15 ) ) ;
#133 = APPLICATION_PROTOCOL_DEFINITION ( 'draft international standard', 'automotive_design', 1998, #1184 ) ;
#134 = VERTEX_POINT ( 'NONE', #300 ) ;
#135 = CARTESIAN_POINT ( 'NONE',  ( -6.828389705632872619, 32.44990603476458091, 30.50000000000000000 ) ) ;
#136 = UNCERTAINTY_MEASURE_WITH_UNIT (LENGTH_MEASURE( 1.000000000000000082E-05 ), #486, 'distance_accuracy_value', 'NONE');
#137 = CYLINDRICAL_SURFACE ( 'NONE', #582, 1.750000000000001554 ) ;
#138 = PLANE ( 'NONE',  #944 ) ;
#139 = ORIENTED_EDGE ( 'NONE', *, *, #223, .T. ) ;
#140 = DIRECTION ( 'NONE',  ( 0.8903195977638010961, 0.4553361547666772702, -6.136759256766102028E-17 ) ) ;
#141 = ADVANCED_FACE ( 'NONE', ( #310 ), #305, .T. ) ;
#142 = LINE ( 'NONE', #53, #287 ) ;
#143 = CARTESIAN_POINT ( 'NONE',  ( 13.39159959992261939, 76.48678029669710554, 66.35000000000002274 ) ) ;
#144 = ORIENTED_EDGE ( 'NONE', *, *, #328, .F. ) ;
#145 = VERTEX_POINT ( 'NONE', #649 ) ;
#146 = FACE_OUTER_BOUND ( 'NONE', #916, .T. ) ;
#147 = LINE ( 'NONE', #321, #256 ) ;
#148 = VERTEX_POINT ( 'NONE', #852 ) ;
#149 = ORIENTED_EDGE ( 'NONE', *, *, #346, .T. ) ;
#150 = AXIS2_PLACEMENT_3D ( 'NONE', #436, #456, #363 ) ;
#151 = CARTESIAN_POINT ( 'NONE',  ( 16.48866541036878886, 55.60686929675533463, 55.30000000000006111 ) ) ;
#152 = EDGE_CURVE ( 'NONE', #996, #1158, #16, .T. ) ;
#153 = DIRECTION ( 'NONE',  ( 0.000000000000000000, 0.000000000000000000, -1.000000000000000000 ) ) ;
#154 = ORIENTED_EDGE ( 'NONE', *, *, #152, .T. ) ;
#155 = DIRECTION ( 'NONE',  ( 1.000000000000000000, 0.000000000000000000, 0.000000000000000000 ) ) ;
#156 = FILL_AREA_STYLE_COLOUR ( '', #1021 ) ;
#157 = ORIENTED_EDGE ( 'NONE', *, *, #507, .F. ) ;
#158 = FACE_OUTER_BOUND ( 'NONE', #901, .T. ) ;
#159 = DIRECTION ( 'NONE',  ( 1.799543832226189684E-15, -3.964109683421829816E-15, -1.000000000000000000 ) ) ;
#160 = EDGE_CURVE ( 'NONE', #354, #213, #36, .T. ) ;
#161 = COLOUR_RGB ( '',0.2509803921568627416, 0.000000000000000000, 0.5019607843137254832 ) ;
#162 = DIRECTION ( 'NONE',  ( 1.000000000000000000, 0.000000000000000000, 0.000000000000000000 ) ) ;
#163 = ORIENTED_EDGE ( 'NONE', *, *, #378, .F. ) ;
#164 = DIRECTION ( 'NONE',  ( 1.799543832226190078E-15, -3.964109683421830605E-15, -1.000000000000000000 ) ) ;
#165 = ORIENTED_EDGE ( 'NONE', *, *, #1070, .F. ) ;
#166 = DIRECTION ( 'NONE',  ( -0.000000000000000000, -0.000000000000000000, 1.000000000000000000 ) ) ;
#167 = AXIS2_PLACEMENT_3D ( 'NONE', #303, #210, #653 ) ;
#168 = EDGE_CURVE ( 'NONE', #783, #659, #1115, .T. ) ;
#169 = DIRECTION ( 'NONE',  ( 0.000000000000000000, 0.000000000000000000, -1.000000000000000000 ) ) ;
#170 = AXIS2_PLACEMENT_3D ( 'NONE', #764, #1137, #676 ) ;
#171 = EDGE_CURVE ( 'NONE', #566, #366, #1024, .T. ) ;
#172 = DIRECTION ( 'NONE',  ( -0.4553361547666759379, 0.8903195977638016512, -3.714397489708601316E-15 ) ) ;
#173 = CARTESIAN_POINT ( 'NONE',  ( 16.48866541036878886, 55.60686929675533463, 55.30000000000006111 ) ) ;
#174 = EDGE_LOOP ( 'NONE', ( #878, #538, #503, #154, #270, #285 ) ) ;
#175 = LINE ( 'NONE', #83, #417 ) ;
#176 = LINE ( 'NONE', #896, #624 ) ;
#177 = CARTESIAN_POINT ( 'NONE',  ( 15.04124609897233356, 67.22172949121460306, 76.35000000000005116 ) ) ;
#178 = VERTEX_POINT ( 'NONE', #937 ) ;
#179 = FACE_OUTER_BOUND ( 'NONE', #339, .T. ) ;
#180 = CARTESIAN_POINT ( 'NONE',  ( 23.31870773179783285, 42.25207533043732155, 30.50000000000000000 ) ) ;
#181 = CIRCLE ( 'NONE', #719, 2.749999999999905409 ) ;
#182 = EDGE_LOOP ( 'NONE', ( #184, #839, #718, #1003 ) ) ;
#183 = LINE ( 'NONE', #93, #581 ) ;
#184 = ORIENTED_EDGE ( 'NONE', *, *, #840, .T. ) ;
#185 = EDGE_CURVE ( 'NONE', #145, #566, #508, .T. ) ;
#186 = CARTESIAN_POINT ( 'NONE',  ( 7.426458294923389047, 73.43602805976982495, 86.37500000000008527 ) ) ;
#187 = ADVANCED_FACE ( 'NONE', ( #848 ), #32, .T. ) ;
#188 = ORIENTED_EDGE ( 'NONE', *, *, #435, .F. ) ;
#189 = CARTESIAN_POINT ( 'NONE',  ( 4.949999999999999289, -6.062001655779397525E-16, 35.50000000000000711 ) ) ;
#190 = VERTEX_POINT ( 'NONE', #143 ) ;
#191 = PLANE ( 'NONE',  #112 ) ;
#192 = CARTESIAN_POINT ( 'NONE',  ( 0.000000000000000000, 0.000000000000000000, 30.50000000000000000 ) ) ;
#193 = DIRECTION ( 'NONE',  ( -0.8903195977638025393, -0.4553361547666743836, 0.000000000000000000 ) ) ;
#194 = ORIENTED_EDGE ( 'NONE', *, *, #476, .F. ) ;
#195 = CARTESIAN_POINT ( 'NONE',  ( -13.36319701317137998, 34.72377035666543321, 32.50000000000000000 ) ) ;
#196 = DIRECTION ( 'NONE',  ( 1.000000000000000000, 0.000000000000000000, 0.000000000000000000 ) ) ;
#197 = EDGE_CURVE ( 'NONE', #1098, #985, #425, .T. ) ;
#198 = DIRECTION ( 'NONE',  ( -0.8903195977638016512, -0.4553361547666759379, -0.000000000000000000 ) ) ;
#199 = AXIS2_PLACEMENT_3D ( 'NONE', #1055, #1139, #243 ) ;
#200 = SURFACE_STYLE_USAGE ( .BOTH. , #949 ) ;
#201 = ORIENTED_EDGE ( 'NONE', *, *, #711, .F. ) ;
#202 = CARTESIAN_POINT ( 'NONE',  ( -24.74660088226721655, 56.98176030062145259, 55.29999999999987637 ) ) ;
#203 = DIRECTION ( 'NONE',  ( 0.4553361547666759934, -0.8903195977638017622, 3.714397489708602105E-15 ) ) ;
#204 = VECTOR ( 'NONE', #1174, 1000.000000000000114 ) ;
#205 = DIRECTION ( 'NONE',  ( -0.4553361547666759934, 0.8903195977638017622, -3.714397489708602894E-15 ) ) ;
#206 = EDGE_CURVE ( 'NONE', #626, #730, #147, .T. ) ;
#207 = CIRCLE ( 'NONE', #627, 4.949999999999999289 ) ;
#208 = ORIENTED_EDGE ( 'NONE', *, *, #160, .F. ) ;
#209 = VECTOR ( 'NONE', #75, 1000.000000000000114 ) ;
#210 = DIRECTION ( 'NONE',  ( 4.279875033642743657E-17, 2.188856502311649891E-17, 1.000000000000000000 ) ) ;
#211 = DIRECTION ( 'NONE',  ( 1.000000000000000000, 0.000000000000000000, 0.000000000000000000 ) ) ;
#212 = DIRECTION ( 'NONE',  ( -0.000000000000000000, -0.000000000000000000, 1.000000000000000000 ) ) ;
#213 = VERTEX_POINT ( 'NONE', #975 ) ;
#214 = CARTESIAN_POINT ( 'NONE',  ( -10.07838970563287262, 32.44990603476458091, 51.30000000000018190 ) ) ;
#215 = DIRECTION ( 'NONE',  ( -0.8903195977638012071, -0.4553361547666769371, 0.000000000000000000 ) ) ;
#216 = MECHANICAL_DESIGN_GEOMETRIC_PRESENTATION_REPRESENTATION (  '', ( #984 ), #125 ) ;
#217 = FACE_OUTER_BOUND ( 'NONE', #817, .T. ) ;
#218 = SHAPE_DEFINITION_REPRESENTATION ( #78, #225 ) ;
#219 = AXIS2_PLACEMENT_3D ( 'NONE', #383, #668, #1121 ) ;
#220 = ORIENTED_EDGE ( 'NONE', *, *, #1033, .F. ) ;
#221 = VECTOR ( 'NONE', #823, 1000.000000000000000 ) ;
#222 = CARTESIAN_POINT ( 'NONE',  ( 24.54605777013119194, 59.72766149739376118, 55.30000000000006111 ) ) ;
#223 = EDGE_CURVE ( 'NONE', #555, #416, #368, .T. ) ;
#224 = FILL_AREA_STYLE ('',( #156 ) ) ;
#225 = ADVANCED_BREP_SHAPE_REPRESENTATION ( '010_013_Front_back_bearing_lock_2', ( #293, #443 ), #528 ) ;
#226 = ORIENTED_EDGE ( 'NONE', *, *, #168, .T. ) ;
#227 = AXIS2_PLACEMENT_3D ( 'NONE', #273, #636, #893 ) ;
#228 = ADVANCED_FACE ( 'NONE', ( #687, #1156 ), #767, .F. ) ;
#229 = PLANE ( 'NONE',  #690 ) ;
#230 = DIRECTION ( 'NONE',  ( 0.000000000000000000, 0.000000000000000000, -1.000000000000000000 ) ) ;
#231 = DIRECTION ( 'NONE',  ( -1.000000000000000000, 0.000000000000000000, 0.000000000000000000 ) ) ;
#232 = ORIENTED_EDGE ( 'NONE', *, *, #907, .F. ) ;
#233 = ORIENTED_EDGE ( 'NONE', *, *, #116, .T. ) ;
#234 = PLANE ( 'NONE',  #884 ) ;
#235 = CARTESIAN_POINT ( 'NONE',  ( -6.828389705632872619, 32.44990603476458091, 60.24974746830602612 ) ) ;
#236 = PRODUCT_DEFINITION_FORMATION_WITH_SPECIFIED_SOURCE ( 'ANY', '', #90, .NOT_KNOWN. ) ;
#237 = SURFACE_SIDE_STYLE ('',( #684 ) ) ;
#238 = EDGE_LOOP ( 'NONE', ( #576, #163, #248, #74, #302, #673, #358 ) ) ;
#239 = ORIENTED_EDGE ( 'NONE', *, *, #468, .F. ) ;
#240 = EDGE_CURVE ( 'NONE', #433, #932, #49, .T. ) ;
#241 = AXIS2_PLACEMENT_3D ( 'NONE', #429, #610, #337 ) ;
#242 = VECTOR ( 'NONE', #438, 1000.000000000000114 ) ;
#243 = DIRECTION ( 'NONE',  ( -1.000000000000000000, 0.000000000000000000, 4.279875033642743657E-17 ) ) ;
#244 = ORIENTED_EDGE ( 'NONE', *, *, #42, .T. ) ;
#245 = EDGE_LOOP ( 'NONE', ( #452, #516 ) ) ;
#246 = DIRECTION ( 'NONE',  ( 1.799543832226189684E-15, -3.964109683421829816E-15, -1.000000000000000000 ) ) ;
#247 = ORIENTED_EDGE ( 'NONE', *, *, #803, .T. ) ;
#248 = ORIENTED_EDGE ( 'NONE', *, *, #328, .T. ) ;
#249 = ADVANCED_FACE ( 'NONE', ( #865 ), #138, .F. ) ;
#250 = DIRECTION ( 'NONE',  ( -0.000000000000000000, -0.000000000000000000, 1.000000000000000000 ) ) ;
#251 = DIRECTION ( 'NONE',  ( -0.3908420077549049076, -0.9204577801149353977, -0.000000000000000000 ) ) ;
#252 = VERTEX_POINT ( 'NONE', #959 ) ;
#253 = CARTESIAN_POINT ( 'NONE',  ( 13.95010937138164131, 43.97165639065626408, 60.24974746830602612 ) ) ;
#254 = ORIENTED_EDGE ( 'NONE', *, *, #1170, .T. ) ;
#255 = ADVANCED_FACE ( 'NONE', ( #1040 ), #678, .F. ) ;
#256 = VECTOR ( 'NONE', #332, 1000.000000000000000 ) ;
#257 = CARTESIAN_POINT ( 'NONE',  ( 24.54605777013119194, 59.72766149739376118, 51.30000000000018190 ) ) ;
#258 = AXIS2_PLACEMENT_3D ( 'NONE', #319, #577, #34 ) ;
#259 = PLANE ( 'NONE',  #579 ) ;
#260 = CARTESIAN_POINT ( 'NONE',  ( 17.48962499282269789, 68.47390391682290556, 76.35000000000005116 ) ) ;
#261 = CARTESIAN_POINT ( 'NONE',  ( 23.31870773179783285, 42.25207533043732155, 45.50000000000009948 ) ) ;
#262 = ORIENTED_EDGE ( 'NONE', *, *, #152, .F. ) ;
#263 = EDGE_CURVE ( 'NONE', #464, #822, #413, .T. ) ;
#264 = CIRCLE ( 'NONE', #355, 1.750000000000001554 ) ;
#265 = DIRECTION ( 'NONE',  ( 0.000000000000000000, 0.000000000000000000, -1.000000000000000000 ) ) ;
#266 = VECTOR ( 'NONE', #1119, 999.9999999999998863 ) ;
#267 = AXIS2_PLACEMENT_3D ( 'NONE', #918, #203, #1108 ) ;
#268 = CARTESIAN_POINT ( 'NONE',  ( 17.22643332474221722, 27.90438172201129774, 35.50000000000000711 ) ) ;
#269 = AXIS2_PLACEMENT_3D ( 'NONE', #863, #859, #336 ) ;
#270 = ORIENTED_EDGE ( 'NONE', *, *, #651, .T. ) ;
#271 = CARTESIAN_POINT ( 'NONE',  ( -10.07838970563287262, 32.44990603476458091, 30.50000000000000000 ) ) ;
#272 = EDGE_LOOP ( 'NONE', ( #873, #82 ) ) ;
#273 = CARTESIAN_POINT ( 'NONE',  ( 0.000000000000000000, 0.000000000000000000, 30.50000000000000000 ) ) ;
#274 = DIRECTION ( 'NONE',  ( -0.9204577801149353977, 0.3908420077549049076, 0.000000000000000000 ) ) ;
#275 = CARTESIAN_POINT ( 'NONE',  ( 16.48866541029765997, 55.60686929689438784, 51.30000000000018190 ) ) ;
#276 = CARTESIAN_POINT ( 'NONE',  ( 16.53318139025697420, 55.62963610449367025, 55.30000000000008953 ) ) ;
#277 = EDGE_CURVE ( 'NONE', #252, #190, #603, .T. ) ;
#278 = ORIENTED_EDGE ( 'NONE', *, *, #263, .T. ) ;
#279 = ADVANCED_FACE ( 'NONE', ( #597 ), #774, .F. ) ;
#280 = CARTESIAN_POINT ( 'NONE',  ( 16.53318139025687827, 55.62963610449387630, 86.37500000000014211 ) ) ;
#281 = DIRECTION ( 'NONE',  ( -0.8903195977638007630, -0.4553361547666778808, 0.000000000000000000 ) ) ;
#282 = AXIS2_PLACEMENT_3D ( 'NONE', #325, #943, #962 ) ;
#283 = DIRECTION ( 'NONE',  ( 4.279875033642743657E-17, 2.188856502311649891E-17, 1.000000000000000000 ) ) ;
#284 = DIRECTION ( 'NONE',  ( -0.8903195977638012071, -0.4553361547666768816, 4.807122121530766582E-17 ) ) ;
#285 = ORIENTED_EDGE ( 'NONE', *, *, #509, .T. ) ;
#286 = CARTESIAN_POINT ( 'NONE',  ( -6.828389705632872619, 32.44990603476458091, 55.30000000000020322 ) ) ;
#287 = VECTOR ( 'NONE', #969, 1000.000000000000000 ) ;
#288 = ORIENTED_EDGE ( 'NONE', *, *, #489, .T. ) ;
#289 = DIRECTION ( 'NONE',  ( -0.4553361547666759379, 0.8903195977638016512, -3.714397489708601316E-15 ) ) ;
#290 = ORIENTED_EDGE ( 'NONE', *, *, #875, .T. ) ;
#291 = ADVANCED_FACE ( 'NONE', ( #41 ), #501, .F. ) ;
#292 = FACE_OUTER_BOUND ( 'NONE', #238, .T. ) ;
#293 = MANIFOLD_SOLID_BREP ( 'Lustro1', #1179 ) ;
#294 = CARTESIAN_POINT ( 'NONE',  ( -5.878967735984752530, 56.29431479875787403, 51.30000000000018190 ) ) ;
#295 = ORIENTED_EDGE ( 'NONE', *, *, #409, .F. ) ;
#296 = DIRECTION ( 'NONE',  ( -0.4553361547666769371, 0.8903195977638013181, 0.000000000000000000 ) ) ;
#297 = ADVANCED_FACE ( 'NONE', ( #815 ), #327, .F. ) ;
#298 = EDGE_CURVE ( 'NONE', #134, #50, #895, .T. ) ;
#299 = LINE ( 'NONE', #118, #455 ) ;
#300 = CARTESIAN_POINT ( 'NONE',  ( -5.878967735984752530, 56.29431479875787403, 55.30000000000011084 ) ) ;
#301 = VECTOR ( 'NONE', #345, 1000.000000000000114 ) ;
#302 = ORIENTED_EDGE ( 'NONE', *, *, #409, .T. ) ;
#303 = CARTESIAN_POINT ( 'NONE',  ( -6.828389705632872619, 32.44990603476458091, 51.30000000000018190 ) ) ;
#304 = VECTOR ( 'NONE', #557, 1000.000000000000000 ) ;
#305 = PLANE ( 'NONE',  #45 ) ;
#306 = AXIS2_PLACEMENT_3D ( 'NONE', #109, #6, #131 ) ;
#307 = ORIENTED_EDGE ( 'NONE', *, *, #398, .F. ) ;
#308 = DIRECTION ( 'NONE',  ( 0.8903195977638012071, 0.4553361547666768816, -4.807122121530767199E-17 ) ) ;
#309 = CARTESIAN_POINT ( 'NONE',  ( 24.54605777013119194, 59.72766149739376118, 55.30000000000006111 ) ) ;
#310 = FACE_OUTER_BOUND ( 'NONE', #1150, .T. ) ;
#311 = ORIENTED_EDGE ( 'NONE', *, *, #430, .T. ) ;
#312 = ADVANCED_FACE ( 'NONE', ( #900 ), #259, .F. ) ;
#313 = DIRECTION ( 'NONE',  ( -0.4553361547666759934, 0.8903195977638017622, -3.714397489708602894E-15 ) ) ;
#314 = PLANE ( 'NONE',  #170 ) ;
#315 = DIRECTION ( 'NONE',  ( -0.000000000000000000, -0.000000000000000000, 1.000000000000000000 ) ) ;
#316 = MECHANICAL_DESIGN_GEOMETRIC_PRESENTATION_REPRESENTATION (  '', ( #1038 ), #526 ) ;
#317 = ORIENTED_EDGE ( 'NONE', *, *, #544, .T. ) ;
#318 = AXIS2_PLACEMENT_3D ( 'NONE', #763, #1051, #140 ) ;
#319 = CARTESIAN_POINT ( 'NONE',  ( -6.828389705632872619, 32.44990603476458091, 60.49238815542530290 ) ) ;
#320 = DIRECTION ( 'NONE',  ( 0.000000000000000000, -1.000000000000000000, 3.965082230804126670E-15 ) ) ;
#321 = CARTESIAN_POINT ( 'NONE',  ( -3.578389705632871731, 32.44990603476458091, 60.49238815542530290 ) ) ;
#322 = ORIENTED_EDGE ( 'NONE', *, *, #101, .T. ) ;
#323 = CIRCLE ( 'NONE', #773, 1.749999999999999778 ) ;
#324 = CIRCLE ( 'NONE', #478, 3.250000000000000888 ) ;
#325 = CARTESIAN_POINT ( 'NONE',  ( -41.27873685247948288, 89.30707533016945376, 55.29999999999987637 ) ) ;
#326 = LINE ( 'NONE', #400, #376 ) ;
#327 = CYLINDRICAL_SURFACE ( 'NONE', #1099, 2.749999999999896527 ) ;
#328 = EDGE_CURVE ( 'NONE', #121, #1169, #1091, .T. ) ;
#329 = ORIENTED_EDGE ( 'NONE', *, *, #116, .F. ) ;
#330 = EDGE_LOOP ( 'NONE', ( #908, #43, #278, #114 ) ) ;
#331 = ADVANCED_FACE ( 'NONE', ( #888 ), #913, .F. ) ;
#332 = DIRECTION ( 'NONE',  ( 0.000000000000000000, 0.000000000000000000, -1.000000000000000000 ) ) ;
#333 = EDGE_LOOP ( 'NONE', ( #1162, #1011, #1026, #165 ) ) ;
#334 = EDGE_LOOP ( 'NONE', ( #201, #689 ) ) ;
#335 = AXIS2_PLACEMENT_3D ( 'NONE', #670, #675, #1072 ) ;
#336 = DIRECTION ( 'NONE',  ( -0.8903195977638024283, -0.4553361547666746612, 0.000000000000000000 ) ) ;
#337 = DIRECTION ( 'NONE',  ( -0.8903195977638012071, -0.4553361547666768816, -0.000000000000000000 ) ) ;
#338 = EDGE_LOOP ( 'NONE', ( #540, #57, #446, #866 ) ) ;
#339 = EDGE_LOOP ( 'NONE', ( #342, #295, #617, #855, #157 ) ) ;
#340 = CARTESIAN_POINT ( 'NONE',  ( -29.36997962927563677, 66.02186103335480993, 81.45377034864773691 ) ) ;
#341 = CARTESIAN_POINT ( 'NONE',  ( 12.59286720512197100, 65.96955506560630056, 76.35000000000005116 ) ) ;
#342 = ORIENTED_EDGE ( 'NONE', *, *, #816, .F. ) ;
#343 = DIRECTION ( 'NONE',  ( 0.000000000000000000, 0.000000000000000000, -1.000000000000000000 ) ) ;
#344 = ORIENTED_EDGE ( 'NONE', *, *, #449, .F. ) ;
#345 = DIRECTION ( 'NONE',  ( -0.4553361547666770481, 0.8903195977638012071, -5.030698080332742940E-15 ) ) ;
#346 = EDGE_CURVE ( 'NONE', #659, #961, #631, .T. ) ;
#347 = VERTEX_POINT ( 'NONE', #268 ) ;
#348 = CARTESIAN_POINT ( 'NONE',  ( -41.27873685247948288, 89.30707533016946797, 51.30000000000018190 ) ) ;
#349 = ORIENTED_EDGE ( 'NONE', *, *, #647, .T. ) ;
#350 = DIRECTION ( 'NONE',  ( 1.000000000000000000, 0.000000000000000000, 0.000000000000000000 ) ) ;
#351 = CARTESIAN_POINT ( 'NONE',  ( 15.04124609897233356, 67.22172949121456043, 66.35000000000005116 ) ) ;
#352 = ORIENTED_EDGE ( 'NONE', *, *, #681, .T. ) ;
#353 = DIRECTION ( 'NONE',  ( 0.000000000000000000, 0.000000000000000000, -1.000000000000000000 ) ) ;
#354 = VERTEX_POINT ( 'NONE', #796 ) ;
#355 = AXIS2_PLACEMENT_3D ( 'NONE', #990, #283, #1167 ) ;
#356 = CYLINDRICAL_SURFACE ( 'NONE', #52, 4.949999999999999289 ) ;
#357 = CARTESIAN_POINT ( 'NONE',  ( -10.97741757125997708, 24.71200785566359670, 100.5195568060177465 ) ) ;
#358 = ORIENTED_EDGE ( 'NONE', *, *, #48, .F. ) ;
#359 = DIRECTION ( 'NONE',  ( -0.8903195977638007630, -0.4553361547666778808, 0.000000000000000000 ) ) ;
#360 = EDGE_CURVE ( 'NONE', #1140, #1133, #461, .T. ) ;
#361 = ORIENTED_EDGE ( 'NONE', *, *, #868, .T. ) ;
#362 = LINE ( 'NONE', #340, #209 ) ;
#363 = DIRECTION ( 'NONE',  ( 1.000000000000000000, 0.000000000000000000, 0.000000000000000000 ) ) ;
#364 = ORIENTED_EDGE ( 'NONE', *, *, #792, .T. ) ;
#365 = FACE_OUTER_BOUND ( 'NONE', #861, .T. ) ;
#366 = VERTEX_POINT ( 'NONE', #1097 ) ;
#367 = CARTESIAN_POINT ( 'NONE',  ( 15.70010937138164131, 43.97165639065626408, 60.24974746830602612 ) ) ;
#368 = CIRCLE ( 'NONE', #748, 1.750000000000001554 ) ;
#369 = CARTESIAN_POINT ( 'NONE',  ( 15.43933467479765653, 77.53405345266976667, 51.30000000000018190 ) ) ;
#370 = ORIENTED_EDGE ( 'NONE', *, *, #360, .F. ) ;
#371 = LINE ( 'NONE', #173, #85 ) ;
#372 = EDGE_CURVE ( 'NONE', #932, #1030, #964, .T. ) ;
#373 = VERTEX_POINT ( 'NONE', #341 ) ;
#374 = CARTESIAN_POINT ( 'NONE',  ( -24.74660088226720589, 56.98176030062143838, 51.30000000000018190 ) ) ;
#375 = AXIS2_PLACEMENT_3D ( 'NONE', #697, #64, #801 ) ;
#376 = VECTOR ( 'NONE', #230, 1000.000000000000000 ) ;
#377 = DIRECTION ( 'NONE',  ( -0.9727618320353221826, -0.2318068552378976521, 0.000000000000000000 ) ) ;
#378 = EDGE_CURVE ( 'NONE', #121, #599, #980, .T. ) ;
#379 = ORIENTED_EDGE ( 'NONE', *, *, #197, .T. ) ;
#380 = ADVANCED_FACE ( 'NONE', ( #637 ), #704, .F. ) ;
#381 = CARTESIAN_POINT ( 'NONE',  ( -5.078389705632870843, 32.44990603476458091, 51.30000000000018190 ) ) ;
#382 = CARTESIAN_POINT ( 'NONE',  ( -6.828389705632872619, 32.44990603476458091, 51.30000000000018190 ) ) ;
#383 = CARTESIAN_POINT ( 'NONE',  ( -4.128967735984752530, 56.29431479875787403, 55.30000000000011084 ) ) ;
#384 = ADVANCED_FACE ( 'NONE', ( #713 ), #1075, .F. ) ;
#385 = ORIENTED_EDGE ( 'NONE', *, *, #537, .T. ) ;
#386 = CARTESIAN_POINT ( 'NONE',  ( 18.76534618413106514, 51.15527130807532785, 30.50000000000000000 ) ) ;
#387 = DIRECTION ( 'NONE',  ( -0.000000000000000000, -0.000000000000000000, 1.000000000000000000 ) ) ;
#388 = DIRECTION ( 'NONE',  ( -1.000000000000000000, 0.000000000000000000, 0.000000000000000000 ) ) ;
#389 = FILL_AREA_STYLE ('',( #23 ) ) ;
#390 = AXIS2_PLACEMENT_3D ( 'NONE', #135, #856, #1042 ) ;
#391 = VERTEX_POINT ( 'NONE', #448 ) ;
#392 = DIRECTION ( 'NONE',  ( -0.000000000000000000, -0.000000000000000000, 1.000000000000000000 ) ) ;
#393 = DIRECTION ( 'NONE',  ( 0.2318068552378975411, -0.9727618320353221826, 0.000000000000000000 ) ) ;
#394 = DIRECTION ( 'NONE',  ( 1.000000000000000000, 0.000000000000000000, 0.000000000000000000 ) ) ;
#395 = ADVANCED_FACE ( 'NONE', ( #96 ), #1172, .F. ) ;
#396 = VECTOR ( 'NONE', #215, 1000.000000000000227 ) ;
#397 = ORIENTED_EDGE ( 'NONE', *, *, #927, .F. ) ;
#398 = EDGE_CURVE ( 'NONE', #566, #77, #1180, .T. ) ;
#399 = CYLINDRICAL_SURFACE ( 'NONE', #563, 1.749999999999999778 ) ;
#400 = CARTESIAN_POINT ( 'NONE',  ( -8.578389705632874396, 32.44990603476458091, 60.24974746830602612 ) ) ;
#401 = DIRECTION ( 'NONE',  ( 0.2318068552378975966, -0.9727618320353221826, 4.273281194645487953E-15 ) ) ;
#402 = SURFACE_STYLE_FILL_AREA ( #389 ) ;
#403 = VERTEX_POINT ( 'NONE', #1002 ) ;
#404 = CARTESIAN_POINT ( 'NONE',  ( 24.54605777013113510, 59.72766149739390329, 86.37500000000014211 ) ) ;
#405 = UNCERTAINTY_MEASURE_WITH_UNIT (LENGTH_MEASURE( 1.000000000000000082E-05 ), #1116, 'distance_accuracy_value', 'NONE');
#406 = FACE_OUTER_BOUND ( 'NONE', #472, .T. ) ;
#407 = CARTESIAN_POINT ( 'NONE',  ( 0.000000000000000000, 0.000000000000000000, 41.00000000000000000 ) ) ;
#408 = ORIENTED_EDGE ( 'NONE', *, *, #42, .F. ) ;
#409 = EDGE_CURVE ( 'NONE', #366, #776, #1008, .T. ) ;
#410 = VECTOR ( 'NONE', #284, 1000.000000000000114 ) ;
#411 = CARTESIAN_POINT ( 'NONE',  ( 15.04124609897233356, 67.22172949121456043, 66.35000000000005116 ) ) ;
#412 = PLANE ( 'NONE',  #628 ) ;
#413 = LINE ( 'NONE', #1148, #903 ) ;
#414 = ORIENTED_EDGE ( 'NONE', *, *, #27, .T. ) ;
#415 = CIRCLE ( 'NONE', #736, 1.750000000000001554 ) ;
#416 = VERTEX_POINT ( 'NONE', #21 ) ;
#417 = VECTOR ( 'NONE', #265, 1000.000000000000000 ) ;
#418 = EDGE_CURVE ( 'NONE', #18, #391, #1146, .T. ) ;
#419 = DIRECTION ( 'NONE',  ( 4.279875033642743657E-17, 2.188856502311649891E-17, 1.000000000000000000 ) ) ;
#420 = ORIENTED_EDGE ( 'NONE', *, *, #1111, .F. ) ;
#421 = EDGE_LOOP ( 'NONE', ( #531, #11 ) ) ;
#422 = CARTESIAN_POINT ( 'NONE',  ( -4.128967735984752530, 56.29431479875787403, 51.30000000000018190 ) ) ;
#423 = DIRECTION ( 'NONE',  ( -1.000000000000000000, 0.000000000000000000, 0.000000000000000000 ) ) ;
#424 = ORIENTED_EDGE ( 'NONE', *, *, #60, .F. ) ;
#425 = CIRCLE ( 'NONE', #562, 3.250000000000001332 ) ;
#426 = ORIENTED_EDGE ( 'NONE', *, *, #298, .F. ) ;
#427 = CIRCLE ( 'NONE', #390, 3.250000000000000888 ) ;
#428 = LINE ( 'NONE', #447, #115 ) ;
#429 = CARTESIAN_POINT ( 'NONE',  ( 23.31870773179783285, 42.25207533043732155, 100.5195568060177465 ) ) ;
#430 = EDGE_CURVE ( 'NONE', #1106, #1164, #744, .T. ) ;
#431 = VERTEX_POINT ( 'NONE', #1018 ) ;
#432 = LINE ( 'NONE', #589, #242 ) ;
#433 = VERTEX_POINT ( 'NONE', #490 ) ;
#434 = CARTESIAN_POINT ( 'NONE',  ( 15.04124609897233356, 67.22172949121456043, 66.35000000000005116 ) ) ;
#435 = EDGE_CURVE ( 'NONE', #682, #433, #207, .T. ) ;
#436 = CARTESIAN_POINT ( 'NONE',  ( -6.828389705632872619, 32.44990603476458091, 60.49238815542530290 ) ) ;
#437 = ORIENTED_EDGE ( 'NONE', *, *, #702, .T. ) ;
#438 = DIRECTION ( 'NONE',  ( 0.4553361547666768816, -0.8903195977638012071, 0.000000000000000000 ) ) ;
#439 = EDGE_LOOP ( 'NONE', ( #601, #695, #571, #874, #1153, #583, #824, #845 ) ) ;
#440 = AXIS2_PLACEMENT_3D ( 'NONE', #784, #974, #320 ) ;
#441 = CYLINDRICAL_SURFACE ( 'NONE', #739, 2.749999999999905409 ) ;
#442 = DIRECTION ( 'NONE',  ( 0.000000000000000000, 0.000000000000000000, -1.000000000000000000 ) ) ;
#443 = AXIS2_PLACEMENT_3D ( 'NONE', #955, #761, #1128 ) ;
#444 = LINE ( 'NONE', #804, #204 ) ;
#445 = LINE ( 'NONE', #189, #493 ) ;
#446 = ORIENTED_EDGE ( 'NONE', *, *, #1144, .F. ) ;
#447 = CARTESIAN_POINT ( 'NONE',  ( 12.45010937138163953, 43.97165639065626408, 60.49238815542530290 ) ) ;
#448 = CARTESIAN_POINT ( 'NONE',  ( 8.494841812221887167, 73.98243144548051475, 76.35000000000002274 ) ) ;
#449 = EDGE_CURVE ( 'NONE', #976, #626, #662, .T. ) ;
#450 = LINE ( 'NONE', #275, #771 ) ;
#451 = DIRECTION ( 'NONE',  ( 4.279875033642743657E-17, 2.188856502311649891E-17, 1.000000000000000000 ) ) ;
#452 = ORIENTED_EDGE ( 'NONE', *, *, #372, .T. ) ;
#453 = CIRCLE ( 'NONE', #1122, 1.749999999999999778 ) ;
#454 = CARTESIAN_POINT ( 'NONE',  ( 18.76534618413106514, 51.15527130807532785, 30.50000000000000000 ) ) ;
#455 = VECTOR ( 'NONE', #667, 1000.000000000000000 ) ;
#456 = DIRECTION ( 'NONE',  ( 0.000000000000000000, 0.000000000000000000, -1.000000000000000000 ) ) ;
#457 = EDGE_LOOP ( 'NONE', ( #1050, #885, #420, #680 ) ) ;
#458 = CARTESIAN_POINT ( 'NONE',  ( 17.45010937138164309, 43.97165639065626408, 51.30000000000018190 ) ) ;
#459 = EDGE_LOOP ( 'NONE', ( #998, #364, #1123, #769, #787 ) ) ;
#460 = LINE ( 'NONE', #25, #266 ) ;
#461 = LINE ( 'NONE', #614, #301 ) ;
#462 = CARTESIAN_POINT ( 'NONE',  ( 13.39159959992260873, 76.48678029669713396, 76.35000000000002274 ) ) ;
#463 = LINE ( 'NONE', #650, #1118 ) ;
#464 = VERTEX_POINT ( 'NONE', #14 ) ;
#465 = DIRECTION ( 'NONE',  ( 1.000000000000000000, 0.000000000000000000, 0.000000000000000000 ) ) ;
#466 = AXIS2_PLACEMENT_3D ( 'NONE', #591, #153, #520 ) ;
#467 = CARTESIAN_POINT ( 'NONE',  ( 0.000000000000000000, 0.000000000000000000, 35.50000000000000711 ) ) ;
#468 = EDGE_CURVE ( 'NONE', #433, #518, #113, .T. ) ;
#469 = PRESENTATION_LAYER_ASSIGNMENT (  '', '', ( #984 ) ) ;
#470 = CARTESIAN_POINT ( 'NONE',  ( 12.59286720512196567, 65.96955506560624372, 66.35000000000005116 ) ) ;
#471 = CARTESIAN_POINT ( 'NONE',  ( -34.90823857876349479, 51.78479390060498844, 80.85000000000009379 ) ) ;
#472 = EDGE_LOOP ( 'NONE', ( #548, #239, #188, #1080, #414, #1183 ) ) ;
#473 = FACE_OUTER_BOUND ( 'NONE', #174, .T. ) ;
#474 = VECTOR ( 'NONE', #1126, 1000.000000000000227 ) ;
#475 = DIRECTION ( 'NONE',  ( 2.113561803401556434E-15, -2.397927698225669515E-15, -1.000000000000000000 ) ) ;
#476 = EDGE_CURVE ( 'NONE', #134, #553, #737, .T. ) ;
#477 = VECTOR ( 'NONE', #552, 1000.000000000000114 ) ;
#478 = AXIS2_PLACEMENT_3D ( 'NONE', #1001, #250, #350 ) ;
#479 = LINE ( 'NONE', #829, #304 ) ;
#480 = PRODUCT_CONTEXT ( 'NONE', #515, 'mechanical' ) ;
#481 = ORIENTED_EDGE ( 'NONE', *, *, #803, .F. ) ;
#482 = DIRECTION ( 'NONE',  ( -0.8903195977638012071, -0.4553361547666767706, -0.000000000000000000 ) ) ;
#483 = CARTESIAN_POINT ( 'NONE',  ( 0.000000000000000000, 0.000000000000000000, 41.00000000000000000 ) ) ;
#484 = CIRCLE ( 'NONE', #440, 1.750000000000001554 ) ;
#485 = CARTESIAN_POINT ( 'NONE',  ( 8.494841812221876509, 73.98243144548045791, 66.35000000000002274 ) ) ;
#486 =( LENGTH_UNIT ( ) NAMED_UNIT ( * ) SI_UNIT ( .MILLI., .METRE. ) );
#487 = ORIENTED_EDGE ( 'NONE', *, *, #660, .T. ) ;
#488 = DIRECTION ( 'NONE',  ( 0.8903195977638013181, 0.4553361547666767706, 0.000000000000000000 ) ) ;
#489 = EDGE_CURVE ( 'NONE', #806, #1133, #299, .T. ) ;
#490 = CARTESIAN_POINT ( 'NONE',  ( -4.949999999999999289, 0.000000000000000000, 35.50000000000000711 ) ) ;
#491 = EDGE_CURVE ( 'NONE', #1030, #932, #970, .T. ) ;
#492 = DIRECTION ( 'NONE',  ( 1.000000000000000000, 0.000000000000000000, 0.000000000000000000 ) ) ;
#493 = VECTOR ( 'NONE', #634, 1000.000000000000000 ) ;
#494 = ORIENTED_EDGE ( 'NONE', *, *, #831, .T. ) ;
#495 = CARTESIAN_POINT ( 'NONE',  ( -4.128967735984752530, 56.29431479875787403, 60.24974746830594086 ) ) ;
#496 = DIRECTION ( 'NONE',  ( 1.000000000000000000, 0.000000000000000000, 0.000000000000000000 ) ) ;
#497 = DIRECTION ( 'NONE',  ( -1.000000000000000000, 0.000000000000000000, 4.279875033642743657E-17 ) ) ;
#498 = ORIENTED_EDGE ( 'NONE', *, *, #168, .F. ) ;
#499 = DIRECTION ( 'NONE',  ( 0.8903195977638013181, 0.4553361547666769371, -2.028333194566942414E-16 ) ) ;
#500 = DIRECTION ( 'NONE',  ( 0.000000000000000000, 0.000000000000000000, -1.000000000000000000 ) ) ;
#501 = CYLINDRICAL_SURFACE ( 'NONE', #466, 3.249999999999999556 ) ;
#502 = EDGE_CURVE ( 'NONE', #655, #178, #606, .T. ) ;
#503 = ORIENTED_EDGE ( 'NONE', *, *, #965, .T. ) ;
#504 = FACE_OUTER_BOUND ( 'NONE', #782, .T. ) ;
#505 = CARTESIAN_POINT ( 'NONE',  ( -2.378967735984752085, 56.29431479875787403, 55.30000000000011084 ) ) ;
#506 = CARTESIAN_POINT ( 'NONE',  ( -6.828389705632872619, 32.44990603476458091, 60.24974746830602612 ) ) ;
#507 = EDGE_CURVE ( 'NONE', #354, #145, #940, .T. ) ;
#508 = CIRCLE ( 'NONE', #8, 4.949999999999996625 ) ;
#509 = EDGE_CURVE ( 'NONE', #1140, #599, #754, .T. ) ;
#510 = ORIENTED_EDGE ( 'NONE', *, *, #919, .F. ) ;
#511 = ORIENTED_EDGE ( 'NONE', *, *, #1144, .T. ) ;
#512 = CARTESIAN_POINT ( 'NONE',  ( 16.53318139025686762, 55.62963610449393315, 114.1757946928612171 ) ) ;
#513 = DIRECTION ( 'NONE',  ( -0.4553361547666759379, 0.8903195977638016512, -3.714397489708601316E-15 ) ) ;
#514 = AXIS2_PLACEMENT_3D ( 'NONE', #126, #205, #198 ) ;
#515 = APPLICATION_CONTEXT ( 'automotive_design' ) ;
#516 = ORIENTED_EDGE ( 'NONE', *, *, #491, .T. ) ;
#517 = AXIS2_PLACEMENT_3D ( 'NONE', #988, #169, #76 ) ;
#518 = VERTEX_POINT ( 'NONE', #578 ) ;
#519 = DIRECTION ( 'NONE',  ( 0.000000000000000000, 0.000000000000000000, -1.000000000000000000 ) ) ;
#520 = DIRECTION ( 'NONE',  ( 1.000000000000000000, 0.000000000000000000, 0.000000000000000000 ) ) ;
#521 = EDGE_LOOP ( 'NONE', ( #72, #307, #752, #385, #1065 ) ) ;
#522 = DIRECTION ( 'NONE',  ( 0.4553361547666759934, -0.8903195977638017622, 3.714397489708602105E-15 ) ) ;
#523 = EDGE_CURVE ( 'NONE', #665, #1071, #946, .T. ) ;
#524 = VERTEX_POINT ( 'NONE', #686 ) ;
#525 = CARTESIAN_POINT ( 'NONE',  ( 23.31870773179782574, 42.25207533043731445, 55.30000000000021743 ) ) ;
#526 =( GEOMETRIC_REPRESENTATION_CONTEXT ( 3 ) GLOBAL_UNCERTAINTY_ASSIGNED_CONTEXT ( ( #585 ) ) GLOBAL_UNIT_ASSIGNED_CONTEXT ( ( #59, #791, #1 ) ) REPRESENTATION_CONTEXT ( 'NONE', 'WORKASPACE' ) );
#527 = ORIENTED_EDGE ( 'NONE', *, *, #674, .F. ) ;
#528 =( GEOMETRIC_REPRESENTATION_CONTEXT ( 3 ) GLOBAL_UNCERTAINTY_ASSIGNED_CONTEXT ( ( #136 ) ) GLOBAL_UNIT_ASSIGNED_CONTEXT ( ( #486, #853, #120 ) ) REPRESENTATION_CONTEXT ( 'NONE', 'WORKASPACE' ) );
#529 = FACE_BOUND ( 'NONE', #272, .T. ) ;
#530 = CARTESIAN_POINT ( 'NONE',  ( 15.04124609897233356, 67.22172949121460306, 76.35000000000005116 ) ) ;
#531 = ORIENTED_EDGE ( 'NONE', *, *, #1111, .T. ) ;
#532 = CARTESIAN_POINT ( 'NONE',  ( 17.48962499282269434, 68.47390391682290556, 76.35000000000005116 ) ) ;
#533 = CIRCLE ( 'NONE', #17, 1.750000000000001554 ) ;
#534 = ORIENTED_EDGE ( 'NONE', *, *, #560, .T. ) ;
#535 = CIRCLE ( 'NONE', #775, 2.749999999999905409 ) ;
#536 = CARTESIAN_POINT ( 'NONE',  ( 15.70010937138164131, 43.97165639065626408, 55.30000000000019611 ) ) ;
#537 = EDGE_CURVE ( 'NONE', #366, #1169, #142, .T. ) ;
#538 = ORIENTED_EDGE ( 'NONE', *, *, #709, .F. ) ;
#539 = PLANE ( 'NONE',  #847 ) ;
#540 = ORIENTED_EDGE ( 'NONE', *, *, #965, .F. ) ;
#541 = DIRECTION ( 'NONE',  ( 0.000000000000000000, 0.000000000000000000, -1.000000000000000000 ) ) ;
#542 = ORIENTED_EDGE ( 'NONE', *, *, #1141, .F. ) ;
#543 = DIRECTION ( 'NONE',  ( 0.8903195977638013181, 0.4553361547666768261, -3.408365023473895540E-16 ) ) ;
#544 = EDGE_CURVE ( 'NONE', #431, #50, #952, .T. ) ;
#545 = ORIENTED_EDGE ( 'NONE', *, *, #197, .F. ) ;
#546 = FACE_OUTER_BOUND ( 'NONE', #457, .T. ) ;
#547 = CARTESIAN_POINT ( 'NONE',  ( 0.000000000000000000, 0.000000000000000000, 41.00000000000000000 ) ) ;
#548 = ORIENTED_EDGE ( 'NONE', *, *, #1170, .F. ) ;
#549 = FACE_BOUND ( 'NONE', #882, .T. ) ;
#550 = ORIENTED_EDGE ( 'NONE', *, *, #749, .F. ) ;
#551 = DIRECTION ( 'NONE',  ( 0.8903195977638013181, 0.4553361547666767151, -6.136759256765992327E-17 ) ) ;
#552 = DIRECTION ( 'NONE',  ( -0.4553361547666770481, 0.8903195977638012071, 0.000000000000000000 ) ) ;
#553 = VERTEX_POINT ( 'NONE', #505 ) ;
#554 = CARTESIAN_POINT ( 'NONE',  ( -4.815171068574835012, -1.147443933427590990, 35.50000000000000711 ) ) ;
#555 = VERTEX_POINT ( 'NONE', #586 ) ;
#556 = CARTESIAN_POINT ( 'NONE',  ( -15.63987778700479758, 39.17536834548450742, 51.30000000000018190 ) ) ;
#557 = DIRECTION ( 'NONE',  ( 0.000000000000000000, 1.734723475976939426E-15, -1.000000000000000000 ) ) ;
#558 = DIRECTION ( 'NONE',  ( 0.000000000000000000, 0.000000000000000000, -1.000000000000000000 ) ) ;
#559 = ORIENTED_EDGE ( 'NONE', *, *, #875, .F. ) ;
#560 = EDGE_CURVE ( 'NONE', #464, #977, #484, .T. ) ;
#561 = DIRECTION ( 'NONE',  ( -0.8903195977638012071, -0.4553361547666768816, -0.000000000000000000 ) ) ;
#562 = AXIS2_PLACEMENT_3D ( 'NONE', #954, #419, #423 ) ;
#563 = AXIS2_PLACEMENT_3D ( 'NONE', #495, #1130, #594 ) ;
#564 = LINE ( 'NONE', #470, #931 ) ;
#565 =( NAMED_UNIT ( * ) SI_UNIT ( $, .STERADIAN. ) SOLID_ANGLE_UNIT ( ) );
#566 = VERTEX_POINT ( 'NONE', #1053 ) ;
#567 = LINE ( 'NONE', #556, #1083 ) ;
#568 = VECTOR ( 'NONE', #738, 1000.000000000000227 ) ;
#569 = VECTOR ( 'NONE', #703, 1000.000000000000000 ) ;
#570 = CARTESIAN_POINT ( 'NONE',  ( 24.54605777013114576, 59.72766149739390329, 86.37500000000014211 ) ) ;
#571 = ORIENTED_EDGE ( 'NONE', *, *, #372, .F. ) ;
#572 = ADVANCED_FACE ( 'NONE', ( #953 ), #137, .F. ) ;
#573 = CARTESIAN_POINT ( 'NONE',  ( 24.54605777013119194, 59.72766149739376118, 55.30000000000006111 ) ) ;
#574 = EDGE_CURVE ( 'NONE', #252, #812, #181, .T. ) ;
#575 = DIRECTION ( 'NONE',  ( 4.279875033642743657E-17, 2.188856502311649891E-17, 1.000000000000000000 ) ) ;
#576 = ORIENTED_EDGE ( 'NONE', *, *, #1177, .T. ) ;
#577 = DIRECTION ( 'NONE',  ( 0.000000000000000000, 0.000000000000000000, -1.000000000000000000 ) ) ;
#578 = CARTESIAN_POINT ( 'NONE',  ( -4.815171068574840341, -1.147443933427592322, 35.50000000000000711 ) ) ;
#579 = AXIS2_PLACEMENT_3D ( 'NONE', #721, #802, #1161 ) ;
#580 = CARTESIAN_POINT ( 'NONE',  ( 13.95010937138163953, 43.97165639065626408, 51.30000000000018190 ) ) ;
#581 = VECTOR ( 'NONE', #830, 1000.000000000000114 ) ;
#582 = AXIS2_PLACEMENT_3D ( 'NONE', #235, #500, #851 ) ;
#583 = ORIENTED_EDGE ( 'NONE', *, *, #647, .F. ) ;
#584 = FACE_OUTER_BOUND ( 'NONE', #334, .T. ) ;
#585 = UNCERTAINTY_MEASURE_WITH_UNIT (LENGTH_MEASURE( 1.000000000000000082E-05 ), #59, 'distance_accuracy_value', 'NONE');
#586 = CARTESIAN_POINT ( 'NONE',  ( 17.45010937138164309, 43.97165639065626408, 55.30000000000019611 ) ) ;
#587 = VECTOR ( 'NONE', #1082, 1000.000000000000000 ) ;
#588 = ORIENTED_EDGE ( 'NONE', *, *, #780, .T. ) ;
#589 = CARTESIAN_POINT ( 'NONE',  ( -41.27873685247948288, 89.30707533016946797, 51.30000000000018190 ) ) ;
#590 = EDGE_CURVE ( 'NONE', #373, #942, #935, .T. ) ;
#591 = CARTESIAN_POINT ( 'NONE',  ( 15.70010937138164131, 43.97165639065626408, 60.49238815542530290 ) ) ;
#592 = EDGE_LOOP ( 'NONE', ( #545, #727 ) ) ;
#593 = EDGE_LOOP ( 'NONE', ( #194, #867, #33, #735 ) ) ;
#594 = DIRECTION ( 'NONE',  ( 1.000000000000000000, 0.000000000000000000, 0.000000000000000000 ) ) ;
#595 = EDGE_CURVE ( 'NONE', #985, #1098, #679, .T. ) ;
#596 = CARTESIAN_POINT ( 'NONE',  ( 15.70010937138164131, 43.97165639065626408, 51.30000000000018190 ) ) ;
#597 = FACE_OUTER_BOUND ( 'NONE', #330, .T. ) ;
#598 = AXIS2_PLACEMENT_3D ( 'NONE', #547, #1069, #162 ) ;
#599 = VERTEX_POINT ( 'NONE', #151 ) ;
#600 = CIRCLE ( 'NONE', #47, 2.749999999999894751 ) ;
#601 = ORIENTED_EDGE ( 'NONE', *, *, #781, .T. ) ;
#602 = CARTESIAN_POINT ( 'NONE',  ( 15.04124609897233356, 67.22172949121456043, 66.35000000000005116 ) ) ;
#603 = LINE ( 'NONE', #971, #1136 ) ;
#604 = CIRCLE ( 'NONE', #219, 1.750000000000001554 ) ;
#605 = EDGE_LOOP ( 'NONE', ( #487, #1049, #973, #107 ) ) ;
#606 = CIRCLE ( 'NONE', #755, 3.249999999999999556 ) ;
#607 = ORIENTED_EDGE ( 'NONE', *, *, #854, .T. ) ;
#608 = ADVANCED_FACE ( 'NONE', ( #406 ), #412, .F. ) ;
#609 = EDGE_CURVE ( 'NONE', #347, #1169, #46, .T. ) ;
#610 = DIRECTION ( 'NONE',  ( -0.4553361547666769371, 0.8903195977638013181, 0.000000000000000000 ) ) ;
#611 = ORIENTED_EDGE ( 'NONE', *, *, #660, .F. ) ;
#612 = ORIENTED_EDGE ( 'NONE', *, *, #986, .F. ) ;
#613 = DIRECTION ( 'NONE',  ( -0.8903195977638007630, -0.4553361547666778808, 0.000000000000000000 ) ) ;
#614 = CARTESIAN_POINT ( 'NONE',  ( 16.53318139025697775, 55.62963610449366314, 55.30000000000011795 ) ) ;
#615 = ORIENTED_EDGE ( 'NONE', *, *, #674, .T. ) ;
#616 = PLANE ( 'NONE',  #282 ) ;
#617 = ORIENTED_EDGE ( 'NONE', *, *, #171, .F. ) ;
#618 = AXIS2_PLACEMENT_3D ( 'NONE', #348, #451, #87 ) ;
#619 = FACE_OUTER_BOUND ( 'NONE', #593, .T. ) ;
#620 = EDGE_CURVE ( 'NONE', #977, #148, #326, .T. ) ;
#621 = CARTESIAN_POINT ( 'NONE',  ( 4.556266011568931518, -1.934667938386779973, 32.50000000000000000 ) ) ;
#622 = EDGE_LOOP ( 'NONE', ( #144, #24, #149, #1129 ) ) ;
#623 = LINE ( 'NONE', #554, #221 ) ;
#624 = VECTOR ( 'NONE', #1077, 1000.000000000000000 ) ;
#625 = AXIS2_PLACEMENT_3D ( 'NONE', #573, #753, #826 ) ;
#626 = VERTEX_POINT ( 'NONE', #778 ) ;
#627 = AXIS2_PLACEMENT_3D ( 'NONE', #467, #387, #196 ) ;
#628 = AXIS2_PLACEMENT_3D ( 'NONE', #759, #519, #693 ) ;
#629 = CARTESIAN_POINT ( 'NONE',  ( 15.04124609897233356, 67.22172949121456043, 66.35000000000005116 ) ) ;
#630 = PRODUCT_RELATED_PRODUCT_CATEGORY ( 'part', '', ( #90 ) ) ;
#631 = LINE ( 'NONE', #357, #657 ) ;
#632 = ADVANCED_FACE ( 'NONE', ( #146 ), #314, .T. ) ;
#633 = ORIENTED_EDGE ( 'NONE', *, *, #1017, .F. ) ;
#634 = DIRECTION ( 'NONE',  ( -0.000000000000000000, -0.000000000000000000, 1.000000000000000000 ) ) ;
#635 = ORIENTED_EDGE ( 'NONE', *, *, #1084, .T. ) ;
#636 = DIRECTION ( 'NONE',  ( 0.000000000000000000, 0.000000000000000000, -1.000000000000000000 ) ) ;
#637 = FACE_OUTER_BOUND ( 'NONE', #182, .T. ) ;
#638 = DIRECTION ( 'NONE',  ( 0.3219712827549268686, -0.6295510250020680543, -0.7071067811865422437 ) ) ;
#639 = FACE_OUTER_BOUND ( 'NONE', #777, .T. ) ;
#640 = EDGE_LOOP ( 'NONE', ( #714, #51, #950, #922 ) ) ;
#641 = DIRECTION ( 'NONE',  ( -0.8903195977638007630, -0.4553361547666778808, 0.000000000000000000 ) ) ;
#642 = VECTOR ( 'NONE', #343, 1000.000000000000000 ) ;
#643 = CARTESIAN_POINT ( 'NONE',  ( 4.556266011568930629, -1.934667938386779529, 32.50000000000000000 ) ) ;
#644 = ORIENTED_EDGE ( 'NONE', *, *, #101, .F. ) ;
#645 = CARTESIAN_POINT ( 'NONE',  ( 16.53318139025686762, 55.62963610449393315, 114.1757946928612171 ) ) ;
#646 = ORIENTED_EDGE ( 'NONE', *, *, #1084, .F. ) ;
#647 = EDGE_CURVE ( 'NONE', #145, #518, #1039, .T. ) ;
#648 = DIRECTION ( 'NONE',  ( -0.8903195977638012071, -0.4553361547666770481, 0.000000000000000000 ) ) ;
#649 = CARTESIAN_POINT ( 'NONE',  ( -4.815171068574840341, -1.147443933427592322, 30.50000000000000000 ) ) ;
#650 = CARTESIAN_POINT ( 'NONE',  ( 15.43933467479765653, 77.53405345266976667, 55.30000000000006111 ) ) ;
#651 = EDGE_CURVE ( 'NONE', #1158, #1140, #1147, .T. ) ;
#652 = ORIENTED_EDGE ( 'NONE', *, *, #507, .T. ) ;
#653 = DIRECTION ( 'NONE',  ( -1.000000000000000000, 0.000000000000000000, 0.000000000000000000 ) ) ;
#654 = CARTESIAN_POINT ( 'NONE',  ( 23.31870773179783285, 42.25207533043732155, 55.30000000000021743 ) ) ;
#655 = VERTEX_POINT ( 'NONE', #1068 ) ;
#656 = LINE ( 'NONE', #386, #474 ) ;
#657 = VECTOR ( 'NONE', #698, 1000.000000000000000 ) ;
#658 = CARTESIAN_POINT ( 'NONE',  ( -10.97741757125993090, 24.71200785566340841, 55.30000000000022453 ) ) ;
#659 = VERTEX_POINT ( 'NONE', #807 ) ;
#660 = EDGE_CURVE ( 'NONE', #213, #524, #362, .T. ) ;
#661 = CARTESIAN_POINT ( 'NONE',  ( 7.426458294923311776, 73.43602805976995285, 86.37500000000008527 ) ) ;
#662 = CIRCLE ( 'NONE', #871, 3.250000000000001332 ) ;
#663 = CARTESIAN_POINT ( 'NONE',  ( -4.815171068574835012, -1.147443933427590990, 32.50000000000000000 ) ) ;
#664 = EDGE_CURVE ( 'NONE', #730, #1149, #324, .T. ) ;
#665 = VERTEX_POINT ( 'NONE', #1090 ) ;
#666 = CARTESIAN_POINT ( 'NONE',  ( -10.97741757125997708, 24.71200785566359670, 45.50000000000009948 ) ) ;
#667 = DIRECTION ( 'NONE',  ( 1.914247704897083543E-15, -4.599326246951599694E-15, -1.000000000000000000 ) ) ;
#668 = DIRECTION ( 'NONE',  ( 1.799543832226189684E-15, -3.964109683421829816E-15, -1.000000000000000000 ) ) ;
#669 = ORIENTED_EDGE ( 'NONE', *, *, #574, .T. ) ;
#670 = CARTESIAN_POINT ( 'NONE',  ( 15.70010937138164131, 43.97165639065626408, 51.30000000000018190 ) ) ;
#671 = DIRECTION ( 'NONE',  ( -0.8903195977638007630, -0.4553361547666778808, 0.000000000000000000 ) ) ;
#672 = CARTESIAN_POINT ( 'NONE',  ( -4.949999999999999289, 0.000000000000000000, 35.50000000000000711 ) ) ;
#673 = ORIENTED_EDGE ( 'NONE', *, *, #122, .T. ) ;
#674 = EDGE_CURVE ( 'NONE', #1158, #806, #1096, .T. ) ;
#675 = DIRECTION ( 'NONE',  ( 4.279875033642743657E-17, 2.188856502311649891E-17, 1.000000000000000000 ) ) ;
#676 = DIRECTION ( 'NONE',  ( 0.8903195977638012071, 0.4553361547666768816, 0.000000000000000000 ) ) ;
#677 = CIRCLE ( 'NONE', #167, 3.250000000000001332 ) ;
#678 = PLANE ( 'NONE',  #241 ) ;
#679 = CIRCLE ( 'NONE', #836, 3.250000000000001332 ) ;
#680 = ORIENTED_EDGE ( 'NONE', *, *, #58, .F. ) ;
#681 = EDGE_CURVE ( 'NONE', #373, #391, #1081, .T. ) ;
#682 = VERTEX_POINT ( 'NONE', #712 ) ;
#683 = PLANE ( 'NONE',  #318 ) ;
#684 = SURFACE_STYLE_FILL_AREA ( #224 ) ;
#685 = EDGE_LOOP ( 'NONE', ( #635, #746 ) ) ;
#686 = CARTESIAN_POINT ( 'NONE',  ( -15.63987778700479403, 39.17536834548450031, 51.30000000000018190 ) ) ;
#687 = FACE_OUTER_BOUND ( 'NONE', #592, .T. ) ;
#688 = EDGE_CURVE ( 'NONE', #976, #1149, #175, .T. ) ;
#689 = ORIENTED_EDGE ( 'NONE', *, *, #574, .F. ) ;
#690 = AXIS2_PLACEMENT_3D ( 'NONE', #411, #313, #883 ) ;
#691 = ORIENTED_EDGE ( 'NONE', *, *, #360, .T. ) ;
#692 = ADVANCED_FACE ( 'NONE', ( #546 ), #441, .F. ) ;
#693 = DIRECTION ( 'NONE',  ( 1.000000000000000000, 0.000000000000000000, 0.000000000000000000 ) ) ;
#694 = DIRECTION ( 'NONE',  ( 0.000000000000000000, 0.000000000000000000, -1.000000000000000000 ) ) ;
#695 = ORIENTED_EDGE ( 'NONE', *, *, #1157, .T. ) ;
#696 = ORIENTED_EDGE ( 'NONE', *, *, #792, .F. ) ;
#697 = CARTESIAN_POINT ( 'NONE',  ( 15.04124609897233356, 67.22172949121460306, 76.35000000000005116 ) ) ;
#698 = DIRECTION ( 'NONE',  ( 0.000000000000000000, 0.000000000000000000, -1.000000000000000000 ) ) ;
#699 = EDGE_LOOP ( 'NONE', ( #612, #1117, #832, #633 ) ) ;
#700 = CYLINDRICAL_SURFACE ( 'NONE', #258, 3.250000000000000888 ) ;
#701 = ORIENTED_EDGE ( 'NONE', *, *, #418, .F. ) ;
#702 = EDGE_CURVE ( 'NONE', #985, #655, #428, .T. ) ;
#703 = DIRECTION ( 'NONE',  ( -0.4553361547666769926, 0.8903195977638012071, -1.969672569253197063E-15 ) ) ;
#704 = CYLINDRICAL_SURFACE ( 'NONE', #150, 3.250000000000000888 ) ;
#705 = CARTESIAN_POINT ( 'NONE',  ( -10.97741757125997708, 24.71200785566360025, 45.50000000000009948 ) ) ;
#706 = CARTESIAN_POINT ( 'NONE',  ( 16.53318139025691735, 55.62963610449380525, 86.37500000000011369 ) ) ;
#707 = VECTOR ( 'NONE', #837, 1000.000000000000000 ) ;
#708 = ORIENTED_EDGE ( 'NONE', *, *, #1124, .F. ) ;
#709 = EDGE_CURVE ( 'NONE', #1071, #94, #978, .T. ) ;
#710 = CIRCLE ( 'NONE', #1102, 2.749999999999905409 ) ;
#711 = EDGE_CURVE ( 'NONE', #812, #252, #535, .T. ) ;
#712 = CARTESIAN_POINT ( 'NONE',  ( 4.949999999999999289, -6.062001655779397525E-16, 35.50000000000000711 ) ) ;
#713 = FACE_OUTER_BOUND ( 'NONE', #1020, .T. ) ;
#714 = ORIENTED_EDGE ( 'NONE', *, *, #702, .F. ) ;
#715 = CARTESIAN_POINT ( 'NONE',  ( 10.94322070607224973, 75.23460587108881725, 76.35000000000000853 ) ) ;
#716 = VECTOR ( 'NONE', #1035, 999.9999999999998863 ) ;
#717 = VECTOR ( 'NONE', #551, 1000.000000000000000 ) ;
#718 = ORIENTED_EDGE ( 'NONE', *, *, #664, .F. ) ;
#719 = AXIS2_PLACEMENT_3D ( 'NONE', #602, #876, #671 ) ;
#720 = DIRECTION ( 'NONE',  ( -1.000000000000000000, 0.000000000000000000, 0.000000000000000000 ) ) ;
#721 = CARTESIAN_POINT ( 'NONE',  ( -15.63987778700479403, 39.17536834548450031, 51.30000000000018190 ) ) ;
#722 = ORIENTED_EDGE ( 'NONE', *, *, #37, .F. ) ;
#723 = FACE_OUTER_BOUND ( 'NONE', #914, .T. ) ;
#724 = ORIENTED_EDGE ( 'NONE', *, *, #378, .T. ) ;
#725 = LINE ( 'NONE', #374, #568 ) ;
#726 = CARTESIAN_POINT ( 'NONE',  ( -5.878967735984751641, 56.29431479875787403, 60.24974746830594086 ) ) ;
#727 = ORIENTED_EDGE ( 'NONE', *, *, #595, .F. ) ;
#728 = CARTESIAN_POINT ( 'NONE',  ( 10.94322070607224973, 75.23460587108877462, 66.35000000000002274 ) ) ;
#729 = ADVANCED_FACE ( 'NONE', ( #619 ), #795, .F. ) ;
#730 = VERTEX_POINT ( 'NONE', #89 ) ;
#731 = DIRECTION ( 'NONE',  ( 0.000000000000000000, -1.000000000000000000, 3.965082230804126670E-15 ) ) ;
#732 = VECTOR ( 'NONE', #482, 1000.000000000000227 ) ;
#733 = ORIENTED_EDGE ( 'NONE', *, *, #80, .F. ) ;
#734 = LINE ( 'NONE', #3, #410 ) ;
#735 = ORIENTED_EDGE ( 'NONE', *, *, #854, .F. ) ;
#736 = AXIS2_PLACEMENT_3D ( 'NONE', #536, #159, #880 ) ;
#737 = CIRCLE ( 'NONE', #306, 1.750000000000001554 ) ;
#738 = DIRECTION ( 'NONE',  ( 0.8903195977638012071, 0.4553361547666767706, -4.807122121530767815E-17 ) ) ;
#739 = AXIS2_PLACEMENT_3D ( 'NONE', #629, #994, #613 ) ;
#740 = PLANE ( 'NONE',  #514 ) ;
#741 = EDGE_LOOP ( 'NONE', ( #793, #344 ) ) ;
#742 = ADVANCED_FACE ( 'NONE', ( #987 ), #356, .T. ) ;
#743 = DIRECTION ( 'NONE',  ( 4.279875033642743657E-17, 2.188856502311649891E-17, 1.000000000000000000 ) ) ;
#744 = LINE ( 'NONE', #103, #834 ) ;
#745 = DIRECTION ( 'NONE',  ( -0.8903195977638010961, -0.4553361547666772702, 6.136759256766110656E-17 ) ) ;
#746 = ORIENTED_EDGE ( 'NONE', *, *, #418, .T. ) ;
#747 = CARTESIAN_POINT ( 'NONE',  ( 12.59286720512196212, 65.96955506560624372, 66.35000000000005116 ) ) ;
#748 = AXIS2_PLACEMENT_3D ( 'NONE', #65, #246, #785 ) ;
#749 = EDGE_CURVE ( 'NONE', #416, #555, #415, .T. ) ;
#750 = AXIS2_PLACEMENT_3D ( 'NONE', #195, #296, #561 ) ;
#751 = CARTESIAN_POINT ( 'NONE',  ( -41.27873685247948288, 89.30707533016946797, 51.30000000000018190 ) ) ;
#752 = ORIENTED_EDGE ( 'NONE', *, *, #171, .T. ) ;
#753 = DIRECTION ( 'NONE',  ( -0.4553361547666769926, 0.8903195977638013181, 0.000000000000000000 ) ) ;
#754 = LINE ( 'NONE', #309, #396 ) ;
#755 = AXIS2_PLACEMENT_3D ( 'NONE', #26, #1028, #211 ) ;
#756 = FACE_OUTER_BOUND ( 'NONE', #741, .T. ) ;
#757 = EDGE_LOOP ( 'NONE', ( #481, #68, #510, #904 ) ) ;
#758 = CARTESIAN_POINT ( 'NONE',  ( 18.95010937138163953, 43.97165639065626408, 60.49238815542530290 ) ) ;
#759 = CARTESIAN_POINT ( 'NONE',  ( 0.000000000000000000, 0.000000000000000000, 35.50000000000000711 ) ) ;
#760 = DIRECTION ( 'NONE',  ( -0.000000000000000000, -0.000000000000000000, 1.000000000000000000 ) ) ;
#761 = DIRECTION ( 'NONE',  ( 0.000000000000000000, 0.000000000000000000, 1.000000000000000000 ) ) ;
#762 = ORIENTED_EDGE ( 'NONE', *, *, #489, .F. ) ;
#763 = CARTESIAN_POINT ( 'NONE',  ( -1.053829644181330423E-12, -6.730698926669404939E-13, 86.37500000000022737 ) ) ;
#764 = CARTESIAN_POINT ( 'NONE',  ( 23.31870773179783285, 42.25207533043732155, 45.50000000000009948 ) ) ;
#765 = VECTOR ( 'NONE', #91, 1000.000000000000000 ) ;
#766 = ADVANCED_FACE ( 'NONE', ( #529, #886, #179 ), #1165, .T. ) ;
#767 = PLANE ( 'NONE',  #199 ) ;
#768 = VECTOR ( 'NONE', #794, 1000.000000000000000 ) ;
#769 = ORIENTED_EDGE ( 'NONE', *, *, #709, .T. ) ;
#770 = FACE_OUTER_BOUND ( 'NONE', #4, .T. ) ;
#771 = VECTOR ( 'NONE', #638, 999.9999999999998863 ) ;
#772 = DIRECTION ( 'NONE',  ( -0.000000000000000000, -0.000000000000000000, 1.000000000000000000 ) ) ;
#773 = AXIS2_PLACEMENT_3D ( 'NONE', #1012, #392, #465 ) ;
#774 = CYLINDRICAL_SURFACE ( 'NONE', #864, 1.750000000000001554 ) ;
#775 = AXIS2_PLACEMENT_3D ( 'NONE', #434, #522, #641 ) ;
#776 = VERTEX_POINT ( 'NONE', #454 ) ;
#777 = EDGE_LOOP ( 'NONE', ( #379, #437, #733, #1095 ) ) ;
#778 = CARTESIAN_POINT ( 'NONE',  ( -3.578389705632871731, 32.44990603476458091, 51.30000000000018190 ) ) ;
#779 = DIRECTION ( 'NONE',  ( -0.000000000000000000, -0.000000000000000000, 1.000000000000000000 ) ) ;
#780 = EDGE_CURVE ( 'NONE', #942, #373, #889, .T. ) ;
#781 = EDGE_CURVE ( 'NONE', #77, #682, #1145, .T. ) ;
#782 = EDGE_LOOP ( 'NONE', ( #691, #993, #244, #226, #1041, #724, #892 ) ) ;
#783 = VERTEX_POINT ( 'NONE', #1185 ) ;
#784 = CARTESIAN_POINT ( 'NONE',  ( -6.828389705632872619, 32.44990603476458091, 55.30000000000020322 ) ) ;
#785 = DIRECTION ( 'NONE',  ( 0.000000000000000000, -1.000000000000000000, 3.965082230804126670E-15 ) ) ;
#786 = VECTOR ( 'NONE', #995, 1000.000000000000000 ) ;
#787 = ORIENTED_EDGE ( 'NONE', *, *, #870, .F. ) ;
#788 = CIRCLE ( 'NONE', #1138, 1.750000000000001554 ) ;
#789 = EDGE_LOOP ( 'NONE', ( #1104, #1101, #646, #7 ) ) ;
#790 = CARTESIAN_POINT ( 'NONE',  ( 0.000000000000000000, 0.000000000000000000, 35.50000000000000711 ) ) ;
#791 =( NAMED_UNIT ( * ) PLANE_ANGLE_UNIT ( ) SI_UNIT ( $, .RADIAN. ) );
#792 = EDGE_CURVE ( 'NONE', #1164, #665, #725, .T. ) ;
#793 = ORIENTED_EDGE ( 'NONE', *, *, #840, .F. ) ;
#794 = DIRECTION ( 'NONE',  ( -0.000000000000000000, -0.000000000000000000, 1.000000000000000000 ) ) ;
#795 = CYLINDRICAL_SURFACE ( 'NONE', #989, 1.749999999999999778 ) ;
#796 = CARTESIAN_POINT ( 'NONE',  ( -13.36319701317137998, 34.72377035666543321, 30.50000000000000000 ) ) ;
#797 = EDGE_LOOP ( 'NONE', ( #1176, #92 ) ) ;
#798 = FACE_BOUND ( 'NONE', #128, .T. ) ;
#799 = ADVANCED_FACE ( 'NONE', ( #473 ), #1107, .F. ) ;
#800 = ORIENTED_EDGE ( 'NONE', *, *, #590, .F. ) ;
#801 = DIRECTION ( 'NONE',  ( -0.8903195977638024283, -0.4553361547666746612, 0.000000000000000000 ) ) ;
#802 = DIRECTION ( 'NONE',  ( 0.3219712827549222611, -0.6295510250020586174, 0.7071067811865527908 ) ) ;
#803 = EDGE_CURVE ( 'NONE', #977, #464, #533, .T. ) ;
#804 = CARTESIAN_POINT ( 'NONE',  ( -41.27873685247948288, 89.30707533016945376, 55.29999999999987637 ) ) ;
#805 = DIRECTION ( 'NONE',  ( -0.4553361547666768261, 0.8903195977638013181, -3.097303128173543925E-15 ) ) ;
#806 = VERTEX_POINT ( 'NONE', #661 ) ;
#807 = CARTESIAN_POINT ( 'NONE',  ( -10.97741757125997708, 24.71200785566359670, 55.30000000000020322 ) ) ;
#808 = DIRECTION ( 'NONE',  ( -0.4553361547666759379, 0.8903195977638016512, -3.714397489708601316E-15 ) ) ;
#809 = ORIENTED_EDGE ( 'NONE', *, *, #749, .T. ) ;
#810 = CARTESIAN_POINT ( 'NONE',  ( 24.54605777013119194, 59.72766149739376118, 51.30000000000018190 ) ) ;
#811 = VECTOR ( 'NONE', #172, 1000.000000000000227 ) ;
#812 = VERTEX_POINT ( 'NONE', #747 ) ;
#813 = AXIS2_PLACEMENT_3D ( 'NONE', #1114, #926, #1120 ) ;
#814 = DIRECTION ( 'NONE',  ( 1.000000000000000000, 0.000000000000000000, 0.000000000000000000 ) ) ;
#815 = FACE_OUTER_BOUND ( 'NONE', #849, .T. ) ;
#816 = EDGE_CURVE ( 'NONE', #776, #354, #656, .T. ) ;
#817 = EDGE_LOOP ( 'NONE', ( #800, #1089 ) ) ;
#818 = CARTESIAN_POINT ( 'NONE',  ( 7.426458294923440562, 73.43602805976968284, 55.30000000000001847 ) ) ;
#819 = ADVANCED_FACE ( 'NONE', ( #292 ), #191, .T. ) ;
#820 = EDGE_LOOP ( 'NONE', ( #322, #1159 ) ) ;
#821 = DIRECTION ( 'NONE',  ( 0.000000000000000000, 0.000000000000000000, -1.000000000000000000 ) ) ;
#822 = VERTEX_POINT ( 'NONE', #381 ) ;
#823 = DIRECTION ( 'NONE',  ( -0.2318068552378976521, 0.9727618320353221826, 0.000000000000000000 ) ) ;
#824 = ORIENTED_EDGE ( 'NONE', *, *, #185, .T. ) ;
#825 = VECTOR ( 'NONE', #401, 1000.000000000000114 ) ;
#826 = DIRECTION ( 'NONE',  ( -0.8903195977638012071, -0.4553361547666769371, -0.000000000000000000 ) ) ;
#827 = AXIS2_PLACEMENT_3D ( 'NONE', #1182, #353, #1105 ) ;
#828 = DIRECTION ( 'NONE',  ( 4.279875033642743657E-17, 2.188856502311649891E-17, 1.000000000000000000 ) ) ;
#829 = CARTESIAN_POINT ( 'NONE',  ( -13.36319701317138353, 34.72377035666544032, 55.29999999999987637 ) ) ;
#830 = DIRECTION ( 'NONE',  ( 0.4553361547666772147, -0.8903195977638009850, 1.969672569253197063E-15 ) ) ;
#831 = EDGE_CURVE ( 'NONE', #1056, #347, #460, .T. ) ;
#832 = ORIENTED_EDGE ( 'NONE', *, *, #907, .T. ) ;
#833 = VECTOR ( 'NONE', #821, 1000.000000000000000 ) ;
#834 = VECTOR ( 'NONE', #475, 1000.000000000000000 ) ;
#835 = LINE ( 'NONE', #924, #1155 ) ;
#836 = AXIS2_PLACEMENT_3D ( 'NONE', #596, #35, #40 ) ;
#837 = DIRECTION ( 'NONE',  ( -0.000000000000000000, -0.000000000000000000, 1.000000000000000000 ) ) ;
#838 = PRODUCT_DEFINITION ( 'UNKNOWN', '', #236, #857 ) ;
#839 = ORIENTED_EDGE ( 'NONE', *, *, #688, .T. ) ;
#840 = EDGE_CURVE ( 'NONE', #626, #976, #677, .T. ) ;
#841 = LINE ( 'NONE', #758, #30 ) ;
#842 = AXIS2_PLACEMENT_3D ( 'NONE', #422, #1046, #496 ) ;
#843 = DIRECTION ( 'NONE',  ( -0.000000000000000000, -0.000000000000000000, 1.000000000000000000 ) ) ;
#844 = DIRECTION ( 'NONE',  ( -0.000000000000000000, -0.000000000000000000, 1.000000000000000000 ) ) ;
#845 = ORIENTED_EDGE ( 'NONE', *, *, #398, .T. ) ;
#846 = DIRECTION ( 'NONE',  ( 0.4553361547666770481, -0.8903195977638012071, 0.000000000000000000 ) ) ;
#847 = AXIS2_PLACEMENT_3D ( 'NONE', #471, #805, #543 ) ;
#848 = FACE_OUTER_BOUND ( 'NONE', #439, .T. ) ;
#849 = EDGE_LOOP ( 'NONE', ( #722, #588, #352, #701 ) ) ;
#850 = FACE_OUTER_BOUND ( 'NONE', #1061, .T. ) ;
#851 = DIRECTION ( 'NONE',  ( 1.000000000000000000, 0.000000000000000000, 0.000000000000000000 ) ) ;
#852 = CARTESIAN_POINT ( 'NONE',  ( -8.578389705632874396, 32.44990603476458091, 51.30000000000018190 ) ) ;
#853 =( NAMED_UNIT ( * ) PLANE_ANGLE_UNIT ( ) SI_UNIT ( $, .RADIAN. ) );
#854 = EDGE_CURVE ( 'NONE', #553, #431, #939, .T. ) ;
#855 = ORIENTED_EDGE ( 'NONE', *, *, #185, .F. ) ;
#856 = DIRECTION ( 'NONE',  ( -0.000000000000000000, -0.000000000000000000, 1.000000000000000000 ) ) ;
#857 = PRODUCT_DEFINITION_CONTEXT ( 'detailed design', #1184, 'design' ) ;
#858 = ADVANCED_FACE ( 'NONE', ( #123 ), #1103, .F. ) ;
#859 = DIRECTION ( 'NONE',  ( 0.4553361547666759934, -0.8903195977638017622, 3.714397489708602105E-15 ) ) ;
#860 = CARTESIAN_POINT ( 'NONE',  ( 0.000000000000000000, 0.000000000000000000, 35.50000000000000711 ) ) ;
#861 = EDGE_LOOP ( 'NONE', ( #511, #696, #100, #397, #762, #290 ) ) ;
#862 = LINE ( 'NONE', #253, #642 ) ;
#863 = CARTESIAN_POINT ( 'NONE',  ( 15.04124609897233356, 67.22172949121460306, 76.35000000000005116 ) ) ;
#864 = AXIS2_PLACEMENT_3D ( 'NONE', #506, #872, #1064 ) ;
#865 = FACE_OUTER_BOUND ( 'NONE', #245, .T. ) ;
#866 = ORIENTED_EDGE ( 'NONE', *, *, #1141, .T. ) ;
#867 = ORIENTED_EDGE ( 'NONE', *, *, #298, .T. ) ;
#868 = EDGE_CURVE ( 'NONE', #50, #431, #323, .T. ) ;
#869 = CIRCLE ( 'NONE', #968, 3.249999999999999556 ) ;
#870 = EDGE_CURVE ( 'NONE', #524, #94, #567, .T. ) ;
#871 = AXIS2_PLACEMENT_3D ( 'NONE', #382, #828, #936 ) ;
#872 = DIRECTION ( 'NONE',  ( 0.000000000000000000, 0.000000000000000000, -1.000000000000000000 ) ) ;
#873 = ORIENTED_EDGE ( 'NONE', *, *, #80, .T. ) ;
#874 = ORIENTED_EDGE ( 'NONE', *, *, #240, .F. ) ;
#875 = EDGE_CURVE ( 'NONE', #806, #967, #1007, .T. ) ;
#876 = DIRECTION ( 'NONE',  ( 0.4553361547666759934, -0.8903195977638017622, 3.714397489708602105E-15 ) ) ;
#877 = DIRECTION ( 'NONE',  ( 1.000000000000000000, 0.000000000000000000, 0.000000000000000000 ) ) ;
#878 = ORIENTED_EDGE ( 'NONE', *, *, #1177, .F. ) ;
#879 = ORIENTED_EDGE ( 'NONE', *, *, #664, .T. ) ;
#880 = DIRECTION ( 'NONE',  ( 0.000000000000000000, -1.000000000000000000, 3.965082230804126670E-15 ) ) ;
#881 = VECTOR ( 'NONE', #760, 1000.000000000000000 ) ;
#882 = EDGE_LOOP ( 'NONE', ( #317, #361 ) ) ;
#883 = DIRECTION ( 'NONE',  ( -0.8903195977638016512, -0.4553361547666759379, -0.000000000000000000 ) ) ;
#884 = AXIS2_PLACEMENT_3D ( 'NONE', #67, #164, #1163 ) ;
#885 = ORIENTED_EDGE ( 'NONE', *, *, #277, .T. ) ;
#886 = FACE_BOUND ( 'NONE', #1073, .T. ) ;
#887 = ADVANCED_FACE ( 'NONE', ( #917 ), #912, .F. ) ;
#888 = FACE_OUTER_BOUND ( 'NONE', #521, .T. ) ;
#889 = CIRCLE ( 'NONE', #375, 2.749999999999894751 ) ;
#890 = EDGE_LOOP ( 'NONE', ( #233, #88 ) ) ;
#891 = FACE_BOUND ( 'NONE', #890, .T. ) ;
#892 = ORIENTED_EDGE ( 'NONE', *, *, #509, .F. ) ;
#893 = DIRECTION ( 'NONE',  ( 1.000000000000000000, 0.000000000000000000, 0.000000000000000000 ) ) ;
#894 = ADVANCED_FACE ( 'NONE', ( #95 ), #1016, .T. ) ;
#895 = LINE ( 'NONE', #726, #127 ) ;
#896 = CARTESIAN_POINT ( 'NONE',  ( 4.556266011568931518, -1.934667938386779973, 35.50000000000000711 ) ) ;
#897 = DIRECTION ( 'NONE',  ( -0.000000000000000000, -0.000000000000000000, 1.000000000000000000 ) ) ;
#898 = ORIENTED_EDGE ( 'NONE', *, *, #651, .F. ) ;
#899 = CARTESIAN_POINT ( 'NONE',  ( -4.128967735984752530, 56.29431479875787403, 60.24974746830594086 ) ) ;
#900 = FACE_OUTER_BOUND ( 'NONE', #605, .T. ) ;
#901 = EDGE_LOOP ( 'NONE', ( #426, #329, #607, #1005 ) ) ;
#902 = PLANE ( 'NONE',  #618 ) ;
#903 = VECTOR ( 'NONE', #1048, 1000.000000000000000 ) ;
#904 = ORIENTED_EDGE ( 'NONE', *, *, #263, .F. ) ;
#905 = DIRECTION ( 'NONE',  ( -0.4553361547666759379, 0.8903195977638016512, -3.714397489708601316E-15 ) ) ;
#906 = DIRECTION ( 'NONE',  ( -0.8903195977638025393, -0.4553361547666743836, 0.000000000000000000 ) ) ;
#907 = EDGE_CURVE ( 'NONE', #555, #1154, #835, .T. ) ;
#908 = ORIENTED_EDGE ( 'NONE', *, *, #620, .F. ) ;
#909 = CARTESIAN_POINT ( 'NONE',  ( -8.591638129348575958, 14.70024535466177618, 35.50000000000000711 ) ) ;
#910 = ORIENTED_EDGE ( 'NONE', *, *, #688, .F. ) ;
#911 = VECTOR ( 'NONE', #393, 1000.000000000000227 ) ;
#912 = CYLINDRICAL_SURFACE ( 'NONE', #12, 1.750000000000001554 ) ;
#913 = PLANE ( 'NONE',  #923 ) ;
#914 = EDGE_LOOP ( 'NONE', ( #615, #288, #370, #898 ) ) ;
#915 = FACE_BOUND ( 'NONE', #685, .T. ) ;
#916 = EDGE_LOOP ( 'NONE', ( #66, #2, #29, #494 ) ) ;
#917 = FACE_OUTER_BOUND ( 'NONE', #699, .T. ) ;
#918 = CARTESIAN_POINT ( 'NONE',  ( 10.94322070607224973, 75.23460587108881725, 76.35000000000000853 ) ) ;
#919 = EDGE_CURVE ( 'NONE', #822, #148, #788, .T. ) ;
#920 = CARTESIAN_POINT ( 'NONE',  ( 15.70010937138164131, 43.97165639065626408, 51.30000000000018190 ) ) ;
#921 = DIRECTION ( 'NONE',  ( 0.4553361547666759934, -0.8903195977638017622, 3.714397489708602105E-15 ) ) ;
#922 = ORIENTED_EDGE ( 'NONE', *, *, #502, .F. ) ;
#923 = AXIS2_PLACEMENT_3D ( 'NONE', #621, #274, #251 ) ;
#924 = CARTESIAN_POINT ( 'NONE',  ( 17.45010937138164309, 43.97165639065626408, 60.24974746830602612 ) ) ;
#925 = AXIS2_PLACEMENT_3D ( 'NONE', #177, #289, #193 ) ;
#926 = DIRECTION ( 'NONE',  ( -0.000000000000000000, -0.000000000000000000, 1.000000000000000000 ) ) ;
#927 = EDGE_CURVE ( 'NONE', #1133, #1106, #117, .T. ) ;
#928 = CARTESIAN_POINT ( 'NONE',  ( -12.06395589039126115, 29.27159262208484236, 50.05422785545015074 ) ) ;
#929 = APPLICATION_PROTOCOL_DEFINITION ( 'draft international standard', 'automotive_design', 1998, #515 ) ;
#930 = EDGE_CURVE ( 'NONE', #1098, #178, #841, .T. ) ;
#931 = VECTOR ( 'NONE', #132, 1000.000000000000227 ) ;
#932 = VERTEX_POINT ( 'NONE', #1135 ) ;
#933 = AXIS2_PLACEMENT_3D ( 'NONE', #5, #648, #846 ) ;
#934 = DIRECTION ( 'NONE',  ( -0.4553361547666767706, 0.8903195977638013181, 0.000000000000000000 ) ) ;
#935 = CIRCLE ( 'NONE', #269, 2.749999999999894751 ) ;
#936 = DIRECTION ( 'NONE',  ( -1.000000000000000000, 0.000000000000000000, 0.000000000000000000 ) ) ;
#937 = CARTESIAN_POINT ( 'NONE',  ( 18.95010937138163953, 43.97165639065626408, 30.50000000000000000 ) ) ;
#938 = EDGE_LOOP ( 'NONE', ( #1093, #669, #1112, #708 ) ) ;
#939 = LINE ( 'NONE', #108, #833 ) ;
#940 = LINE ( 'NONE', #124, #911 ) ;
#941 = CARTESIAN_POINT ( 'NONE',  ( 4.556266011568931518, -1.934667938386779973, 35.50000000000000711 ) ) ;
#942 = VERTEX_POINT ( 'NONE', #532 ) ;
#943 = DIRECTION ( 'NONE',  ( 0.8903195977638013181, 0.4553361547666769371, 7.898823171348233744E-16 ) ) ;
#944 = AXIS2_PLACEMENT_3D ( 'NONE', #407, #694, #877 ) ;
#945 = ADVANCED_FACE ( 'NONE', ( #158 ), #399, .F. ) ;
#946 = LINE ( 'NONE', #369, #1063 ) ;
#947 = AXIS2_PLACEMENT_3D ( 'NONE', #645, #1086, #1010 ) ;
#948 = CARTESIAN_POINT ( 'NONE',  ( 18.76534618413106514, 51.15527130807532785, 32.50000000000000000 ) ) ;
#949 = SURFACE_SIDE_STYLE ('',( #402 ) ) ;
#950 = ORIENTED_EDGE ( 'NONE', *, *, #930, .T. ) ;
#951 = LINE ( 'NONE', #525, #1059 ) ;
#952 = CIRCLE ( 'NONE', #842, 1.749999999999999778 ) ;
#953 = FACE_OUTER_BOUND ( 'NONE', #757, .T. ) ;
#954 = CARTESIAN_POINT ( 'NONE',  ( 15.70010937138164131, 43.97165639065626408, 51.30000000000018190 ) ) ;
#955 = CARTESIAN_POINT ( 'NONE',  ( 0.000000000000000000, 0.000000000000000000, 0.000000000000000000 ) ) ;
#956 = ORIENTED_EDGE ( 'NONE', *, *, #986, .T. ) ;
#957 = FACE_OUTER_BOUND ( 'NONE', #56, .T. ) ;
#958 = CARTESIAN_POINT ( 'NONE',  ( -4.815171068574840341, -1.147443933427592322, 32.50000000000000000 ) ) ;
#959 = CARTESIAN_POINT ( 'NONE',  ( 17.48962499282270500, 68.47390391682287714, 66.35000000000005116 ) ) ;
#960 = EDGE_LOOP ( 'NONE', ( #1060, #1066, #972, #982 ) ) ;
#961 = VERTEX_POINT ( 'NONE', #666 ) ;
#962 = DIRECTION ( 'NONE',  ( -0.4553361547666768816, 0.8903195977638012071, 0.000000000000000000 ) ) ;
#963 = DIRECTION ( 'NONE',  ( 0.3289652681565978787, 0.7747341239026181992, 0.5399711933126620789 ) ) ;
#964 = CIRCLE ( 'NONE', #598, 4.949999999999999289 ) ;
#965 = EDGE_CURVE ( 'NONE', #1071, #996, #1032, .T. ) ;
#966 = ORIENTED_EDGE ( 'NONE', *, *, #449, .T. ) ;
#967 = VERTEX_POINT ( 'NONE', #1143 ) ;
#968 = AXIS2_PLACEMENT_3D ( 'NONE', #1019, #844, #394 ) ;
#969 = DIRECTION ( 'NONE',  ( -0.000000000000000000, -0.000000000000000000, 1.000000000000000000 ) ) ;
#970 = CIRCLE ( 'NONE', #1125, 4.949999999999999289 ) ;
#971 = CARTESIAN_POINT ( 'NONE',  ( 17.48962499282270144, 68.47390391682287714, 66.35000000000005116 ) ) ;
#972 = ORIENTED_EDGE ( 'NONE', *, *, #240, .T. ) ;
#973 = ORIENTED_EDGE ( 'NONE', *, *, #48, .T. ) ;
#974 = DIRECTION ( 'NONE',  ( 1.799543832226189684E-15, -3.964109683421829816E-15, -1.000000000000000000 ) ) ;
#975 = CARTESIAN_POINT ( 'NONE',  ( -13.36319701317138353, 34.72377035666545453, 46.30000000000018900 ) ) ;
#976 = VERTEX_POINT ( 'NONE', #214 ) ;
#977 = VERTEX_POINT ( 'NONE', #1037 ) ;
#978 = LINE ( 'NONE', #257, #19 ) ;
#979 = ADVANCED_FACE ( 'NONE', ( #850 ), #700, .F. ) ;
#980 = LINE ( 'NONE', #70, #786 ) ;
#981 = VECTOR ( 'NONE', #1013, 1000.000000000000114 ) ;
#982 = ORIENTED_EDGE ( 'NONE', *, *, #491, .F. ) ;
#983 = FACE_BOUND ( 'NONE', #38, .T. ) ;
#984 = STYLED_ITEM ( 'NONE', ( #1132 ), #225 ) ;
#985 = VERTEX_POINT ( 'NONE', #39 ) ;
#986 = EDGE_CURVE ( 'NONE', #416, #62, #862, .T. ) ;
#987 = FACE_OUTER_BOUND ( 'NONE', #960, .T. ) ;
#988 = CARTESIAN_POINT ( 'NONE',  ( 15.70010937138164131, 43.97165639065626408, 60.24974746830602612 ) ) ;
#989 = AXIS2_PLACEMENT_3D ( 'NONE', #899, #1178, #155 ) ;
#990 = CARTESIAN_POINT ( 'NONE',  ( -6.828389705632872619, 32.44990603476458091, 51.30000000000018190 ) ) ;
#991 = FACE_OUTER_BOUND ( 'NONE', #459, .T. ) ;
#992 = VECTOR ( 'NONE', #772, 1000.000000000000000 ) ;
#993 = ORIENTED_EDGE ( 'NONE', *, *, #927, .T. ) ;
#994 = DIRECTION ( 'NONE',  ( -0.4553361547666759379, 0.8903195977638016512, -3.714397489708601316E-15 ) ) ;
#995 = DIRECTION ( 'NONE',  ( -0.4553361547666769926, 0.8903195977638012071, -4.348721907735675589E-15 ) ) ;
#996 = VERTEX_POINT ( 'NONE', #404 ) ;
#997 = CARTESIAN_POINT ( 'NONE',  ( -24.74660088226721655, 56.98176030062145259, 55.29999999999987637 ) ) ;
#998 = ORIENTED_EDGE ( 'NONE', *, *, #1022, .F. ) ;
#999 = ADVANCED_FACE ( 'NONE', ( #584 ), #229, .T. ) ;
#1000 = EDGE_CURVE ( 'NONE', #659, #121, #951, .T. ) ;
#1001 = CARTESIAN_POINT ( 'NONE',  ( -6.828389705632872619, 32.44990603476458091, 30.50000000000000000 ) ) ;
#1002 = CARTESIAN_POINT ( 'NONE',  ( 18.76534618413106514, 51.15527130807532785, 46.30000000000018900 ) ) ;
#1003 = ORIENTED_EDGE ( 'NONE', *, *, #206, .F. ) ;
#1004 = CARTESIAN_POINT ( 'NONE',  ( 10.94322070607224973, 75.23460587108877462, 66.35000000000002274 ) ) ;
#1005 = ORIENTED_EDGE ( 'NONE', *, *, #868, .F. ) ;
#1006 = CIRCLE ( 'NONE', #1079, 2.749999999999905409 ) ;
#1007 = LINE ( 'NONE', #186, #717 ) ;
#1008 = LINE ( 'NONE', #180, #477 ) ;
#1009 = LINE ( 'NONE', #705, #110 ) ;
#1010 = DIRECTION ( 'NONE',  ( -0.4553361547666769926, 0.8903195977638012071, 0.000000000000000000 ) ) ;
#1011 = ORIENTED_EDGE ( 'NONE', *, *, #816, .T. ) ;
#1012 = CARTESIAN_POINT ( 'NONE',  ( -4.128967735984752530, 56.29431479875787403, 51.30000000000018190 ) ) ;
#1013 = DIRECTION ( 'NONE',  ( 0.3908420077549049632, 0.9204577801149353977, 0.000000000000000000 ) ) ;
#1014 = DIRECTION ( 'NONE',  ( -0.8903195977638024283, -0.4553361547666746612, 0.000000000000000000 ) ) ;
#1015 = ORIENTED_EDGE ( 'NONE', *, *, #1033, .T. ) ;
#1016 = PLANE ( 'NONE',  #750 ) ;
#1017 = EDGE_CURVE ( 'NONE', #62, #1154, #129, .T. ) ;
#1018 = CARTESIAN_POINT ( 'NONE',  ( -2.378967735984752530, 56.29431479875787403, 51.30000000000018190 ) ) ;
#1019 = CARTESIAN_POINT ( 'NONE',  ( 15.70010937138164131, 43.97165639065626408, 30.50000000000000000 ) ) ;
#1020 = EDGE_LOOP ( 'NONE', ( #550, #956, #644, #232 ) ) ;
#1021 = COLOUR_RGB ( '',0.2509803921568627416, 0.000000000000000000, 0.5019607843137254832 ) ;
#1022 = EDGE_CURVE ( 'NONE', #1164, #524, #432, .T. ) ;
#1023 = DIRECTION ( 'NONE',  ( 0.000000000000000000, 0.000000000000000000, -1.000000000000000000 ) ) ;
#1024 = LINE ( 'NONE', #119, #981 ) ;
#1025 = AXIS2_PLACEMENT_3D ( 'NONE', #751, #1127, #497 ) ;
#1026 = ORIENTED_EDGE ( 'NONE', *, *, #160, .T. ) ;
#1027 = CARTESIAN_POINT ( 'NONE',  ( 18.76534618413106514, 51.15527130807532785, 32.50000000000000000 ) ) ;
#1028 = DIRECTION ( 'NONE',  ( -0.000000000000000000, -0.000000000000000000, 1.000000000000000000 ) ) ;
#1029 = DIRECTION ( 'NONE',  ( 0.2318068552378976521, -0.9727618320353221826, 0.000000000000000000 ) ) ;
#1030 = VERTEX_POINT ( 'NONE', #130 ) ;
#1031 = ADVANCED_FACE ( 'NONE', ( #770 ), #616, .F. ) ;
#1032 = LINE ( 'NONE', #222, #768 ) ;
#1033 = EDGE_CURVE ( 'NONE', #1149, #730, #427, .T. ) ;
#1034 = DIRECTION ( 'NONE',  ( 1.000000000000000000, 0.000000000000000000, 0.000000000000000000 ) ) ;
#1035 = DIRECTION ( 'NONE',  ( 0.1662544565528718266, -0.6976756126320468043, -0.6968559357677936994 ) ) ;
#1036 = ORIENTED_EDGE ( 'NONE', *, *, #1022, .T. ) ;
#1037 = CARTESIAN_POINT ( 'NONE',  ( -8.578389705632874396, 32.44990603476458091, 55.30000000000020322 ) ) ;
#1038 = STYLED_ITEM ( 'NONE', ( #1152 ), #293 ) ;
#1039 = LINE ( 'NONE', #958, #992 ) ;
#1040 = FACE_OUTER_BOUND ( 'NONE', #622, .T. ) ;
#1041 = ORIENTED_EDGE ( 'NONE', *, *, #1000, .T. ) ;
#1042 = DIRECTION ( 'NONE',  ( 1.000000000000000000, 0.000000000000000000, 0.000000000000000000 ) ) ;
#1043 = AXIS2_PLACEMENT_3D ( 'NONE', #1160, #1171, #814 ) ;
#1044 = AXIS2_PLACEMENT_3D ( 'NONE', #351, #808, #281 ) ;
#1045 = ADVANCED_FACE ( 'NONE', ( #957 ), #683, .T. ) ;
#1046 = DIRECTION ( 'NONE',  ( -0.000000000000000000, -0.000000000000000000, 1.000000000000000000 ) ) ;
#1047 = VECTOR ( 'NONE', #1151, 1000.000000000000000 ) ;
#1048 = DIRECTION ( 'NONE',  ( 0.000000000000000000, 0.000000000000000000, -1.000000000000000000 ) ) ;
#1049 = ORIENTED_EDGE ( 'NONE', *, *, #870, .T. ) ;
#1050 = ORIENTED_EDGE ( 'NONE', *, *, #711, .T. ) ;
#1051 = DIRECTION ( 'NONE',  ( -8.422263635025798364E-16, 1.781580973210946171E-15, 1.000000000000000000 ) ) ;
#1052 = ADVANCED_FACE ( 'NONE', ( #891, #798, #983, #504 ), #234, .F. ) ;
#1053 = CARTESIAN_POINT ( 'NONE',  ( 4.556266011568927965, -1.934667938386777308, 30.50000000000000000 ) ) ;
#1054 = ADVANCED_FACE ( 'NONE', ( #73 ), #1168, .F. ) ;
#1055 = CARTESIAN_POINT ( 'NONE',  ( -41.27873685247948288, 89.30707533016946797, 51.30000000000018190 ) ) ;
#1056 = VERTEX_POINT ( 'NONE', #909 ) ;
#1057 = ORIENTED_EDGE ( 'NONE', *, *, #71, .F. ) ;
#1058 = DIRECTION ( 'NONE',  ( 0.4553361547666770481, -0.8903195977638012071, -8.673617379884039170E-17 ) ) ;
#1059 = VECTOR ( 'NONE', #499, 999.9999999999998863 ) ;
#1060 = ORIENTED_EDGE ( 'NONE', *, *, #1157, .F. ) ;
#1061 = EDGE_LOOP ( 'NONE', ( #910, #966, #1085, #220 ) ) ;
#1062 = CARTESIAN_POINT ( 'NONE',  ( 7.717597320997297672, 5.510468309887337490, 19.89197684081236872 ) ) ;
#1063 = VECTOR ( 'NONE', #1058, 1000.000000000000114 ) ;
#1064 = DIRECTION ( 'NONE',  ( 1.000000000000000000, 0.000000000000000000, 0.000000000000000000 ) ) ;
#1065 = ORIENTED_EDGE ( 'NONE', *, *, #609, .F. ) ;
#1066 = ORIENTED_EDGE ( 'NONE', *, *, #435, .T. ) ;
#1067 = ADVANCED_FACE ( 'NONE', ( #1175, #915, #365 ), #539, .T. ) ;
#1068 = CARTESIAN_POINT ( 'NONE',  ( 12.45010937138163953, 43.97165639065626408, 30.50000000000000000 ) ) ;
#1069 = DIRECTION ( 'NONE',  ( -0.000000000000000000, -0.000000000000000000, 1.000000000000000000 ) ) ;
#1070 = EDGE_CURVE ( 'NONE', #403, #213, #734, .T. ) ;
#1071 = VERTEX_POINT ( 'NONE', #810 ) ;
#1072 = DIRECTION ( 'NONE',  ( -1.000000000000000000, 0.000000000000000000, 0.000000000000000000 ) ) ;
#1073 = EDGE_LOOP ( 'NONE', ( #879, #1015 ) ) ;
#1074 = CARTESIAN_POINT ( 'NONE',  ( 12.59286720512196922, 65.96955506560630056, 76.35000000000005116 ) ) ;
#1075 = CYLINDRICAL_SURFACE ( 'NONE', #517, 1.750000000000001554 ) ;
#1076 = VECTOR ( 'NONE', #745, 1000.000000000000114 ) ;
#1077 = DIRECTION ( 'NONE',  ( 0.3908420077549049076, 0.9204577801149353977, 0.000000000000000000 ) ) ;
#1078 = CARTESIAN_POINT ( 'NONE',  ( -24.74660088226720589, 56.98176030062144548, 51.30000000000018190 ) ) ;
#1079 = AXIS2_PLACEMENT_3D ( 'NONE', #1004, #921, #359 ) ;
#1080 = ORIENTED_EDGE ( 'NONE', *, *, #781, .F. ) ;
#1081 = LINE ( 'NONE', #1074, #1088 ) ;
#1082 = DIRECTION ( 'NONE',  ( -0.000000000000000000, -0.000000000000000000, 1.000000000000000000 ) ) ;
#1083 = VECTOR ( 'NONE', #308, 1000.000000000000114 ) ;
#1084 = EDGE_CURVE ( 'NONE', #391, #18, #600, .T. ) ;
#1085 = ORIENTED_EDGE ( 'NONE', *, *, #206, .T. ) ;
#1086 = DIRECTION ( 'NONE',  ( 0.8903195977638012071, 0.4553361547666769926, -3.899472811601422864E-16 ) ) ;
#1087 = ADVANCED_FACE ( 'NONE', ( #549, #991 ), #902, .F. ) ;
#1088 = VECTOR ( 'NONE', #905, 1000.000000000000227 ) ;
#1089 = ORIENTED_EDGE ( 'NONE', *, *, #780, .F. ) ;
#1090 = CARTESIAN_POINT ( 'NONE',  ( 15.43933467479765653, 77.53405345266976667, 51.30000000000018190 ) ) ;
#1091 = LINE ( 'NONE', #84, #765 ) ;
#1092 = ADVANCED_FACE ( 'NONE', ( #639 ), #99, .F. ) ;
#1093 = ORIENTED_EDGE ( 'NONE', *, *, #277, .F. ) ;
#1094 = PLANE ( 'NONE',  #947 ) ;
#1095 = ORIENTED_EDGE ( 'NONE', *, *, #930, .F. ) ;
#1096 = LINE ( 'NONE', #280, #569 ) ;
#1097 = CARTESIAN_POINT ( 'NONE',  ( 23.31870773179783285, 42.25207533043732155, 30.50000000000000000 ) ) ;
#1098 = VERTEX_POINT ( 'NONE', #79 ) ;
#1099 = AXIS2_PLACEMENT_3D ( 'NONE', #530, #1166, #906 ) ;
#1100 = DIRECTION ( 'NONE',  ( 0.4553361547666759934, -0.8903195977638017622, 3.714397489708602105E-15 ) ) ;
#1101 = ORIENTED_EDGE ( 'NONE', *, *, #37, .T. ) ;
#1102 = AXIS2_PLACEMENT_3D ( 'NONE', #728, #1100, #106 ) ;
#1103 = PLANE ( 'NONE',  #933 ) ;
#1104 = ORIENTED_EDGE ( 'NONE', *, *, #590, .T. ) ;
#1105 = DIRECTION ( 'NONE',  ( 1.000000000000000000, 0.000000000000000000, 0.000000000000000000 ) ) ;
#1106 = VERTEX_POINT ( 'NONE', #997 ) ;
#1107 = PLANE ( 'NONE',  #625 ) ;
#1108 = DIRECTION ( 'NONE',  ( -0.8903195977638024283, -0.4553361547666746612, 0.000000000000000000 ) ) ;
#1109 = LINE ( 'NONE', #928, #716 ) ;
#1110 =( NAMED_UNIT ( * ) PLANE_ANGLE_UNIT ( ) SI_UNIT ( $, .RADIAN. ) );
#1111 = EDGE_CURVE ( 'NONE', #61, #190, #1006, .T. ) ;
#1112 = ORIENTED_EDGE ( 'NONE', *, *, #58, .T. ) ;
#1113 = DIRECTION ( 'NONE',  ( -1.000000000000000000, 0.000000000000000000, 0.000000000000000000 ) ) ;
#1114 = CARTESIAN_POINT ( 'NONE',  ( 0.000000000000000000, 0.000000000000000000, 35.50000000000000711 ) ) ;
#1115 = LINE ( 'NONE', #658, #825 ) ;
#1116 =( LENGTH_UNIT ( ) NAMED_UNIT ( * ) SI_UNIT ( .MILLI., .METRE. ) );
#1117 = ORIENTED_EDGE ( 'NONE', *, *, #223, .F. ) ;
#1118 = VECTOR ( 'NONE', #558, 1000.000000000000000 ) ;
#1119 = DIRECTION ( 'NONE',  ( 0.8903195977638013181, 0.4553361547666769371, 0.000000000000000000 ) ) ;
#1120 = DIRECTION ( 'NONE',  ( 1.000000000000000000, 0.000000000000000000, 0.000000000000000000 ) ) ;
#1121 = DIRECTION ( 'NONE',  ( 0.000000000000000000, -1.000000000000000000, 3.965082230804126670E-15 ) ) ;
#1122 = AXIS2_PLACEMENT_3D ( 'NONE', #920, #575, #388 ) ;
#1123 = ORIENTED_EDGE ( 'NONE', *, *, #523, .T. ) ;
#1124 = EDGE_CURVE ( 'NONE', #190, #61, #710, .T. ) ;
#1125 = AXIS2_PLACEMENT_3D ( 'NONE', #483, #843, #1034 ) ;
#1126 = DIRECTION ( 'NONE',  ( -0.8903195977638012071, -0.4553361547666768816, -0.000000000000000000 ) ) ;
#1127 = DIRECTION ( 'NONE',  ( 4.279875033642743657E-17, 2.188856502311649891E-17, 1.000000000000000000 ) ) ;
#1128 = DIRECTION ( 'NONE',  ( 1.000000000000000000, 0.000000000000000000, 0.000000000000000000 ) ) ;
#1129 = ORIENTED_EDGE ( 'NONE', *, *, #15, .F. ) ;
#1130 = DIRECTION ( 'NONE',  ( 0.000000000000000000, 0.000000000000000000, -1.000000000000000000 ) ) ;
#1131 = FACE_BOUND ( 'NONE', #797, .T. ) ;
#1132 = PRESENTATION_STYLE_ASSIGNMENT (( #200 ) ) ;
#1133 = VERTEX_POINT ( 'NONE', #818 ) ;
#1134 = ADVANCED_FACE ( 'NONE', ( #723 ), #1094, .F. ) ;
#1135 = CARTESIAN_POINT ( 'NONE',  ( -4.949999999999999289, 0.000000000000000000, 41.00000000000000000 ) ) ;
#1136 = VECTOR ( 'NONE', #513, 1000.000000000000227 ) ;
#1137 = DIRECTION ( 'NONE',  ( 0.3219712827549263690, -0.6295510250020668330, 0.7071067811865434649 ) ) ;
#1138 = AXIS2_PLACEMENT_3D ( 'NONE', #20, #743, #1113 ) ;
#1139 = DIRECTION ( 'NONE',  ( 4.279875033642743657E-17, 2.188856502311649891E-17, 1.000000000000000000 ) ) ;
#1140 = VERTEX_POINT ( 'NONE', #276 ) ;
#1141 = EDGE_CURVE ( 'NONE', #967, #996, #183, .T. ) ;
#1142 = ORIENTED_EDGE ( 'NONE', *, *, #346, .F. ) ;
#1143 = CARTESIAN_POINT ( 'NONE',  ( 15.43933467479759614, 77.53405345266992299, 86.37500000000011369 ) ) ;
#1144 = EDGE_CURVE ( 'NONE', #967, #665, #463, .T. ) ;
#1145 = CIRCLE ( 'NONE', #1043, 4.949999999999999289 ) ;
#1146 = CIRCLE ( 'NONE', #267, 2.749999999999894751 ) ;
#1147 = LINE ( 'NONE', #512, #1047 ) ;
#1148 = CARTESIAN_POINT ( 'NONE',  ( -5.078389705632870843, 32.44990603476458091, 60.24974746830602612 ) ) ;
#1149 = VERTEX_POINT ( 'NONE', #271 ) ;
#1150 = EDGE_LOOP ( 'NONE', ( #254, #424, #1142, #498, #1181, #208, #652, #349 ) ) ;
#1151 = DIRECTION ( 'NONE',  ( 1.914247704897083543E-15, -4.599326246951599694E-15, -1.000000000000000000 ) ) ;
#1152 = PRESENTATION_STYLE_ASSIGNMENT (( #55 ) ) ;
#1153 = ORIENTED_EDGE ( 'NONE', *, *, #468, .T. ) ;
#1154 = VERTEX_POINT ( 'NONE', #458 ) ;
#1155 = VECTOR ( 'NONE', #1023, 1000.000000000000000 ) ;
#1156 = FACE_BOUND ( 'NONE', #820, .T. ) ;
#1157 = EDGE_CURVE ( 'NONE', #682, #1030, #445, .T. ) ;
#1158 = VERTEX_POINT ( 'NONE', #706 ) ;
#1159 = ORIENTED_EDGE ( 'NONE', *, *, #1017, .T. ) ;
#1160 = CARTESIAN_POINT ( 'NONE',  ( 0.000000000000000000, 0.000000000000000000, 35.50000000000000711 ) ) ;
#1161 = DIRECTION ( 'NONE',  ( 0.8903195977638012071, 0.4553361547666768816, -4.807122121530767199E-17 ) ) ;
#1162 = ORIENTED_EDGE ( 'NONE', *, *, #122, .F. ) ;
#1163 = DIRECTION ( 'NONE',  ( 0.4553361547666772702, -0.8903195977638010961, 4.348721907735676378E-15 ) ) ;
#1164 = VERTEX_POINT ( 'NONE', #1078 ) ;
#1165 = PLANE ( 'NONE',  #227 ) ;
#1166 = DIRECTION ( 'NONE',  ( -0.4553361547666759379, 0.8903195977638016512, -3.714397489708601316E-15 ) ) ;
#1167 = DIRECTION ( 'NONE',  ( -1.000000000000000000, 0.000000000000000000, 0.000000000000000000 ) ) ;
#1168 = CYLINDRICAL_SURFACE ( 'NONE', #925, 2.749999999999896527 ) ;
#1169 = VERTEX_POINT ( 'NONE', #261 ) ;
#1170 = EDGE_CURVE ( 'NONE', #518, #1056, #623, .T. ) ;
#1171 = DIRECTION ( 'NONE',  ( -0.000000000000000000, -0.000000000000000000, 1.000000000000000000 ) ) ;
#1172 = CYLINDRICAL_SURFACE ( 'NONE', #1044, 2.749999999999905409 ) ;
#1173 = PRESENTATION_LAYER_ASSIGNMENT (  '', '', ( #1038 ) ) ;
#1174 = DIRECTION ( 'NONE',  ( 0.4553361547666768816, -0.8903195977638012071, 0.000000000000000000 ) ) ;
#1175 = FACE_BOUND ( 'NONE', #421, .T. ) ;
#1176 = ORIENTED_EDGE ( 'NONE', *, *, #919, .T. ) ;
#1177 = EDGE_CURVE ( 'NONE', #94, #599, #371, .T. ) ;
#1178 = DIRECTION ( 'NONE',  ( 0.000000000000000000, 0.000000000000000000, -1.000000000000000000 ) ) ;
#1179 = CLOSED_SHELL ( 'NONE', ( #729, #380, #1092, #384, #572, #692, #1054, #187, #1052, #894, #608, #742, #249, #141, #331, #819, #255, #1031, #1087, #1067, #799, #858, #1134, #1045, #312, #632, #766, #297, #97, #395, #999, #279, #887, #228, #291, #81, #979, #945 ) ) ;
#1180 = LINE ( 'NONE', #643, #587 ) ;
#1181 = ORIENTED_EDGE ( 'NONE', *, *, #71, .T. ) ;
#1182 = CARTESIAN_POINT ( 'NONE',  ( 15.70010937138164131, 43.97165639065626408, 60.49238815542530290 ) ) ;
#1183 = ORIENTED_EDGE ( 'NONE', *, *, #831, .F. ) ;
#1184 = APPLICATION_CONTEXT ( 'automotive_design' ) ;
#1185 = CARTESIAN_POINT ( 'NONE',  ( -13.36319701317138353, 34.72377035666544032, 55.29999999999987637 ) ) ;
ENDSEC;
END-ISO-10303-21;
