ISO-10303-21;
HEADER;
FILE_DESCRIPTION (( 'STEP AP214' ),
    '1' );
FILE_NAME ('010_009_Front_back_servo_lock_1.STEP',
    '2024-07-21T08:35:21',
    ( '' ),
    ( '' ),
    'SwSTEP 2.0',
    'SolidWorks 2019',
    '' );
FILE_SCHEMA (( 'AUTOMOTIVE_DESIGN' ));
ENDSEC;

DATA;
#1 = ORIENTED_EDGE ( 'NONE', *, *, #248, .T. ) ;
#2 = DIRECTION ( 'NONE',  ( 1.000000000000000000, 0.000000000000000000, 0.000000000000000000 ) ) ;
#3 = ORIENTED_EDGE ( 'NONE', *, *, #418, .F. ) ;
#4 = ADVANCED_FACE ( 'NONE', ( #145 ), #30, .F. ) ;
#5 = DIRECTION ( 'NONE',  ( 0.000000000000000000, 0.000000000000000000, -1.000000000000000000 ) ) ;
#6 = AXIS2_PLACEMENT_3D ( 'NONE', #532, #230, #489 ) ;
#7 = VERTEX_POINT ( 'NONE', #25 ) ;
#8 = VECTOR ( 'NONE', #79, 1000.000000000000000 ) ;
#9 = DIRECTION ( 'NONE',  ( 1.000000000000000000, 0.000000000000000000, 0.000000000000000000 ) ) ;
#10 = ORIENTED_EDGE ( 'NONE', *, *, #104, .F. ) ;
#11 = DIRECTION ( 'NONE',  ( -1.000000000000000000, 0.000000000000000000, 0.000000000000000000 ) ) ;
#12 = EDGE_CURVE ( 'NONE', #215, #137, #538, .T. ) ;
#13 = EDGE_CURVE ( 'NONE', #293, #179, #80, .T. ) ;
#14 = ORIENTED_EDGE ( 'NONE', *, *, #505, .T. ) ;
#15 = FACE_OUTER_BOUND ( 'NONE', #433, .T. ) ;
#16 = ORIENTED_EDGE ( 'NONE', *, *, #55, .T. ) ;
#17 = AXIS2_PLACEMENT_3D ( 'NONE', #443, #311, #94 ) ;
#18 = CIRCLE ( 'NONE', #276, 1.750000000000070166 ) ;
#19 = FACE_BOUND ( 'NONE', #497, .T. ) ;
#20 = ORIENTED_EDGE ( 'NONE', *, *, #23, .F. ) ;
#21 = CARTESIAN_POINT ( 'NONE',  ( 6.513674098182923089, -12.10927535993234372, 3.000000000000000000 ) ) ;
#22 = ORIENTED_EDGE ( 'NONE', *, *, #368, .T. ) ;
#23 = EDGE_CURVE ( 'NONE', #293, #7, #403, .T. ) ;
#24 = LINE ( 'NONE', #109, #129 ) ;
#25 = CARTESIAN_POINT ( 'NONE',  ( 5.217190196429882576, 11.27034874202492531, 3.000000000000000000 ) ) ;
#26 = DIRECTION ( 'NONE',  ( 0.000000000000000000, 0.000000000000000000, 1.000000000000000000 ) ) ;
#27 =( GEOMETRIC_REPRESENTATION_CONTEXT ( 3 ) GLOBAL_UNCERTAINTY_ASSIGNED_CONTEXT ( ( #206 ) ) GLOBAL_UNIT_ASSIGNED_CONTEXT ( ( #121, #158, #76 ) ) REPRESENTATION_CONTEXT ( 'NONE', 'WORKASPACE' ) );
#28 = DIRECTION ( 'NONE',  ( -0.000000000000000000, -0.000000000000000000, 1.000000000000000000 ) ) ;
#29 = EDGE_CURVE ( 'NONE', #43, #184, #322, .T. ) ;
#30 = CYLINDRICAL_SURFACE ( 'NONE', #246, 3.000000000000000444 ) ;
#31 = CARTESIAN_POINT ( 'NONE',  ( 0.000000000000000000, 0.000000000000000000, 1.000000000000000000 ) ) ;
#32 = CARTESIAN_POINT ( 'NONE',  ( 8.263674098183001249, -12.10927535993234372, 3.000000000000000000 ) ) ;
#33 = DIRECTION ( 'NONE',  ( 0.000000000000000000, 0.000000000000000000, -1.000000000000000000 ) ) ;
#34 = AXIS2_PLACEMENT_3D ( 'NONE', #315, #64, #479 ) ;
#35 = AXIS2_PLACEMENT_3D ( 'NONE', #438, #277, #319 ) ;
#36 = DIRECTION ( 'NONE',  ( 0.000000000000000000, 0.000000000000000000, 1.000000000000000000 ) ) ;
#37 = ORIENTED_EDGE ( 'NONE', *, *, #314, .T. ) ;
#38 = ADVANCED_FACE ( 'NONE', ( #442 ), #331, .F. ) ;
#39 = DIRECTION ( 'NONE',  ( 1.000000000000000000, 0.000000000000000000, -0.000000000000000000 ) ) ;
#40 = ORIENTED_EDGE ( 'NONE', *, *, #389, .T. ) ;
#41 = APPLICATION_PROTOCOL_DEFINITION ( 'draft international standard', 'automotive_design', 1998, #366 ) ;
#42 = ADVANCED_FACE ( 'NONE', ( #65 ), #61, .F. ) ;
#43 = VERTEX_POINT ( 'NONE', #233 ) ;
#44 = VECTOR ( 'NONE', #275, 1000.000000000000000 ) ;
#45 = ORIENTED_EDGE ( 'NONE', *, *, #353, .F. ) ;
#46 = SURFACE_SIDE_STYLE ('',( #469 ) ) ;
#47 = CARTESIAN_POINT ( 'NONE',  ( -8.980103034029104592, -11.69564492096658093, 0.000000000000000000 ) ) ;
#48 = ADVANCED_FACE ( 'NONE', ( #192 ), #365, .F. ) ;
#49 = VERTEX_POINT ( 'NONE', #110 ) ;
#50 = DIRECTION ( 'NONE',  ( -1.000000000000000000, 0.000000000000000000, 0.000000000000000000 ) ) ;
#51 = ORIENTED_EDGE ( 'NONE', *, *, #55, .F. ) ;
#52 = DIRECTION ( 'NONE',  ( 0.000000000000000000, 0.000000000000000000, -1.000000000000000000 ) ) ;
#53 = VECTOR ( 'NONE', #327, 1000.000000000000000 ) ;
#54 = EDGE_LOOP ( 'NONE', ( #78, #439 ) ) ;
#55 = EDGE_CURVE ( 'NONE', #339, #519, #112, .T. ) ;
#56 = CYLINDRICAL_SURFACE ( 'NONE', #17, 1.750000000000070166 ) ;
#57 = ORIENTED_EDGE ( 'NONE', *, *, #13, .T. ) ;
#58 = CYLINDRICAL_SURFACE ( 'NONE', #229, 1.750000000000078826 ) ;
#59 = ORIENTED_EDGE ( 'NONE', *, *, #306, .F. ) ;
#60 = DIRECTION ( 'NONE',  ( -0.000000000000000000, -0.000000000000000000, 1.000000000000000000 ) ) ;
#61 = CYLINDRICAL_SURFACE ( 'NONE', #6, 3.000000000000000444 ) ;
#62 = AXIS2_PLACEMENT_3D ( 'NONE', #238, #408, #364 ) ;
#63 = AXIS2_PLACEMENT_3D ( 'NONE', #546, #295, #503 ) ;
#64 = DIRECTION ( 'NONE',  ( 0.000000000000000000, 0.000000000000000000, 1.000000000000000000 ) ) ;
#65 = FACE_OUTER_BOUND ( 'NONE', #444, .T. ) ;
#66 = ADVANCED_FACE ( 'NONE', ( #154 ), #284, .F. ) ;
#67 = FACE_OUTER_BOUND ( 'NONE', #482, .T. ) ;
#68 = VERTEX_POINT ( 'NONE', #175 ) ;
#69 = DIRECTION ( 'NONE',  ( 1.000000000000000000, 0.000000000000000000, 0.000000000000000000 ) ) ;
#70 = ORIENTED_EDGE ( 'NONE', *, *, #441, .F. ) ;
#71 = LINE ( 'NONE', #286, #349 ) ;
#72 = CIRCLE ( 'NONE', #452, 3.000000000000000444 ) ;
#73 = DIRECTION ( 'NONE',  ( -1.000000000000000000, 0.000000000000000000, 0.000000000000000000 ) ) ;
#74 = FACE_OUTER_BOUND ( 'NONE', #430, .T. ) ;
#75 = DIRECTION ( 'NONE',  ( 1.000000000000000000, 0.000000000000000000, 0.000000000000000000 ) ) ;
#76 =( NAMED_UNIT ( * ) SI_UNIT ( $, .STERADIAN. ) SOLID_ANGLE_UNIT ( ) );
#77 = DIRECTION ( 'NONE',  ( 1.000000000000000000, 0.000000000000000000, 0.000000000000000000 ) ) ;
#78 = ORIENTED_EDGE ( 'NONE', *, *, #181, .F. ) ;
#79 = DIRECTION ( 'NONE',  ( -0.000000000000000000, -0.000000000000000000, 1.000000000000000000 ) ) ;
#80 = CIRCLE ( 'NONE', #139, 1.750000000000042411 ) ;
#81 = PRESENTATION_LAYER_ASSIGNMENT (  '', '', ( #380 ) ) ;
#82 = EDGE_CURVE ( 'NONE', #250, #529, #336, .T. ) ;
#83 = CARTESIAN_POINT ( 'NONE',  ( 19.99094855594721665, -0.6016442748612035318, 3.000000000000000000 ) ) ;
#84 = ORIENTED_EDGE ( 'NONE', *, *, #465, .F. ) ;
#85 = DIRECTION ( 'NONE',  ( 0.000000000000000000, 0.000000000000000000, 1.000000000000000000 ) ) ;
#86 = AXIS2_PLACEMENT_3D ( 'NONE', #473, #458, #500 ) ;
#87 = ORIENTED_EDGE ( 'NONE', *, *, #92, .F. ) ;
#88 = DIRECTION ( 'NONE',  ( -0.000000000000000000, -0.000000000000000000, 1.000000000000000000 ) ) ;
#89 = ORIENTED_EDGE ( 'NONE', *, *, #382, .F. ) ;
#90 =( LENGTH_UNIT ( ) NAMED_UNIT ( * ) SI_UNIT ( .MILLI., .METRE. ) );
#91 = CARTESIAN_POINT ( 'NONE',  ( 15.67813519400784017, 12.41757129387275427, 3.000000000000000000 ) ) ;
#92 = EDGE_CURVE ( 'NONE', #49, #299, #334, .T. ) ;
#93 = VERTEX_POINT ( 'NONE', #455 ) ;
#94 = DIRECTION ( 'NONE',  ( 1.000000000000000000, 0.000000000000000000, 0.000000000000000000 ) ) ;
#95 = CIRCLE ( 'NONE', #407, 20.00000000000000000 ) ;
#96 = EDGE_LOOP ( 'NONE', ( #59, #134 ) ) ;
#97 = AXIS2_PLACEMENT_3D ( 'NONE', #288, #376, #328 ) ;
#98 = ADVANCED_FACE ( 'NONE', ( #343 ), #345, .T. ) ;
#99 = DIRECTION ( 'NONE',  ( 0.000000000000000000, 0.000000000000000000, 1.000000000000000000 ) ) ;
#100 = ORIENTED_EDGE ( 'NONE', *, *, #181, .T. ) ;
#101 = LINE ( 'NONE', #226, #514 ) ;
#102 = VERTEX_POINT ( 'NONE', #47 ) ;
#103 = PLANE ( 'NONE',  #468 ) ;
#104 = EDGE_CURVE ( 'NONE', #93, #102, #523, .T. ) ;
#105 = DIRECTION ( 'NONE',  ( -0.000000000000000000, -0.000000000000000000, -1.000000000000000000 ) ) ;
#106 = CIRCLE ( 'NONE', #340, 3.000000000000000444 ) ;
#107 = VECTOR ( 'NONE', #163, 1000.000000000000000 ) ;
#108 = CIRCLE ( 'NONE', #317, 1.750000000000042411 ) ;
#109 = CARTESIAN_POINT ( 'NONE',  ( -5.480103034028963371, -11.69564492096658093, -13.71781649631013522 ) ) ;
#110 = CARTESIAN_POINT ( 'NONE',  ( -4.526813221885257477, 11.66893807411609707, 0.000000000000000000 ) ) ;
#111 = DIRECTION ( 'NONE',  ( 0.000000000000000000, 0.000000000000000000, 1.000000000000000000 ) ) ;
#112 = LINE ( 'NONE', #281, #358 ) ;
#113 = ADVANCED_FACE ( 'NONE', ( #128 ), #386, .F. ) ;
#114 = DIRECTION ( 'NONE',  ( -0.000000000000000000, -0.000000000000000000, 1.000000000000000000 ) ) ;
#115 = ORIENTED_EDGE ( 'NONE', *, *, #168, .F. ) ;
#116 = CIRCLE ( 'NONE', #530, 1.750000000000070166 ) ;
#117 = CARTESIAN_POINT ( 'NONE',  ( -3.000000000000000444, 0.000000000000000000, 0.000000000000000000 ) ) ;
#118 = CARTESIAN_POINT ( 'NONE',  ( 0.000000000000000000, 0.000000000000000000, 3.000000000000000000 ) ) ;
#119 = CYLINDRICAL_SURFACE ( 'NONE', #424, 1.750000000000042411 ) ;
#120 = EDGE_LOOP ( 'NONE', ( #266, #463, #235, #37 ) ) ;
#121 =( LENGTH_UNIT ( ) NAMED_UNIT ( * ) SI_UNIT ( .MILLI., .METRE. ) );
#122 = UNCERTAINTY_MEASURE_WITH_UNIT (LENGTH_MEASURE( 1.000000000000000082E-05 ), #543, 'distance_accuracy_value', 'NONE');
#123 = DIRECTION ( 'NONE',  ( 0.000000000000000000, 0.000000000000000000, 1.000000000000000000 ) ) ;
#124 = EDGE_LOOP ( 'NONE', ( #517, #527, #476, #351 ) ) ;
#125 = APPLICATION_CONTEXT ( 'automotive_design' ) ;
#126 = CARTESIAN_POINT ( 'NONE',  ( 6.513674098182923089, -12.10927535993234372, 3.000000000000000000 ) ) ;
#127 = EDGE_LOOP ( 'NONE', ( #378, #290 ) ) ;
#128 = FACE_OUTER_BOUND ( 'NONE', #120, .T. ) ;
#129 = VECTOR ( 'NONE', #60, 1000.000000000000000 ) ;
#130 = ORIENTED_EDGE ( 'NONE', *, *, #133, .T. ) ;
#131 = CARTESIAN_POINT ( 'NONE',  ( 0.000000000000000000, 0.000000000000000000, 0.000000000000000000 ) ) ;
#132 = DIRECTION ( 'NONE',  ( 0.000000000000000000, 0.000000000000000000, 1.000000000000000000 ) ) ;
#133 = EDGE_CURVE ( 'NONE', #184, #466, #316, .T. ) ;
#134 = ORIENTED_EDGE ( 'NONE', *, *, #248, .F. ) ;
#135 = DIRECTION ( 'NONE',  ( 1.000000000000000000, 0.000000000000000000, 0.000000000000000000 ) ) ;
#136 = EDGE_CURVE ( 'NONE', #225, #164, #213, .T. ) ;
#137 = VERTEX_POINT ( 'NONE', #412 ) ;
#138 = DIRECTION ( 'NONE',  ( -0.000000000000000000, -0.000000000000000000, 1.000000000000000000 ) ) ;
#139 = AXIS2_PLACEMENT_3D ( 'NONE', #241, #105, #200 ) ;
#140 = EDGE_LOOP ( 'NONE', ( #536, #169, #512, #51 ) ) ;
#141 = CIRCLE ( 'NONE', #400, 20.00000000000000000 ) ;
#142 = FACE_BOUND ( 'NONE', #54, .T. ) ;
#143 = ORIENTED_EDGE ( 'NONE', *, *, #136, .F. ) ;
#144 = DIRECTION ( 'NONE',  ( -0.000000000000000000, -0.000000000000000000, -1.000000000000000000 ) ) ;
#145 = FACE_OUTER_BOUND ( 'NONE', #420, .T. ) ;
#146 = FACE_BOUND ( 'NONE', #212, .T. ) ;
#147 = CARTESIAN_POINT ( 'NONE',  ( -6.276813221885292116, 11.66893807411609707, -13.71781649631013522 ) ) ;
#148 = AXIS2_PLACEMENT_3D ( 'NONE', #173, #509, #350 ) ;
#149 = MECHANICAL_DESIGN_GEOMETRIC_PRESENTATION_REPRESENTATION (  '', ( #380 ), #27 ) ;
#150 = SURFACE_SIDE_STYLE ('',( #199 ) ) ;
#151 = ADVANCED_FACE ( 'NONE', ( #202 ), #119, .F. ) ;
#152 = DIRECTION ( 'NONE',  ( 1.000000000000000000, 0.000000000000000000, 0.000000000000000000 ) ) ;
#153 = DIRECTION ( 'NONE',  ( 1.000000000000000000, 0.000000000000000000, 0.000000000000000000 ) ) ;
#154 = FACE_OUTER_BOUND ( 'NONE', #140, .T. ) ;
#155 = SURFACE_STYLE_USAGE ( .BOTH. , #150 ) ;
#156 = DIRECTION ( 'NONE',  ( -0.000000000000000000, -0.000000000000000000, -1.000000000000000000 ) ) ;
#157 = CIRCLE ( 'NONE', #504, 3.000000000000000444 ) ;
#158 =( NAMED_UNIT ( * ) PLANE_ANGLE_UNIT ( ) SI_UNIT ( $, .RADIAN. ) );
#159 = AXIS2_PLACEMENT_3D ( 'NONE', #347, #300, #165 ) ;
#160 = CARTESIAN_POINT ( 'NONE',  ( 4.763674098182844929, -12.10927535993234372, 3.000000000000000000 ) ) ;
#161 = CARTESIAN_POINT ( 'NONE',  ( 4.763674098182844929, -12.10927535993234372, -13.71781649631013522 ) ) ;
#162 = EDGE_CURVE ( 'NONE', #250, #502, #106, .T. ) ;
#163 = DIRECTION ( 'NONE',  ( -0.000000000000000000, -0.000000000000000000, -1.000000000000000000 ) ) ;
#164 = VERTEX_POINT ( 'NONE', #32 ) ;
#165 = DIRECTION ( 'NONE',  ( -1.000000000000000000, 0.000000000000000000, 0.000000000000000000 ) ) ;
#166 = FACE_OUTER_BOUND ( 'NONE', #223, .T. ) ;
#167 =( GEOMETRIC_REPRESENTATION_CONTEXT ( 3 ) GLOBAL_UNCERTAINTY_ASSIGNED_CONTEXT ( ( #122 ) ) GLOBAL_UNIT_ASSIGNED_CONTEXT ( ( #543, #251, #172 ) ) REPRESENTATION_CONTEXT ( 'NONE', 'WORKASPACE' ) );
#168 = EDGE_CURVE ( 'NONE', #375, #198, #253, .T. ) ;
#169 = ORIENTED_EDGE ( 'NONE', *, *, #29, .T. ) ;
#170 = DIRECTION ( 'NONE',  ( 1.000000000000000000, 0.000000000000000000, 0.000000000000000000 ) ) ;
#171 = EDGE_LOOP ( 'NONE', ( #344, #346, #22, #207 ) ) ;
#172 =( NAMED_UNIT ( * ) SI_UNIT ( $, .STERADIAN. ) SOLID_ANGLE_UNIT ( ) );
#173 = CARTESIAN_POINT ( 'NONE',  ( 0.000000000000000000, 0.000000000000000000, 1.000000000000000000 ) ) ;
#174 = EDGE_LOOP ( 'NONE', ( #100, #318, #508, #272 ) ) ;
#175 = CARTESIAN_POINT ( 'NONE',  ( -20.00000000000000000, 0.000000000000000000, 0.000000000000000000 ) ) ;
#176 = CIRCLE ( 'NONE', #413, 1.750000000000042411 ) ;
#177 = VECTOR ( 'NONE', #337, 1000.000000000000000 ) ;
#178 = CIRCLE ( 'NONE', #159, 3.000000000000000444 ) ;
#179 = VERTEX_POINT ( 'NONE', #205 ) ;
#180 = CARTESIAN_POINT ( 'NONE',  ( -8.980103034029104592, -11.69564492096658093, -13.71781649631013522 ) ) ;
#181 = EDGE_CURVE ( 'NONE', #179, #293, #176, .T. ) ;
#182 = ORIENTED_EDGE ( 'NONE', *, *, #82, .F. ) ;
#183 = FACE_OUTER_BOUND ( 'NONE', #124, .T. ) ;
#184 = VERTEX_POINT ( 'NONE', #91 ) ;
#185 = CARTESIAN_POINT ( 'NONE',  ( -4.526813221885257477, 11.66893807411609707, -13.71781649631013522 ) ) ;
#186 = CLOSED_SHELL ( 'NONE', ( #4, #151, #447, #464, #292, #522, #279, #297, #369, #113, #258, #38, #48, #66, #42, #98 ) ) ;
#187 = ORIENTED_EDGE ( 'NONE', *, *, #395, .F. ) ;
#188 = AXIS2_PLACEMENT_3D ( 'NONE', #21, #99, #269 ) ;
#189 = CARTESIAN_POINT ( 'NONE',  ( 19.99094855594718467, -0.6016442748611062763, 0.000000000000000000 ) ) ;
#190 = ORIENTED_EDGE ( 'NONE', *, *, #314, .F. ) ;
#191 = DIRECTION ( 'NONE',  ( -0.000000000000000000, -0.000000000000000000, 1.000000000000000000 ) ) ;
#192 = FACE_OUTER_BOUND ( 'NONE', #385, .T. ) ;
#193 = EDGE_CURVE ( 'NONE', #137, #215, #116, .T. ) ;
#194 = CARTESIAN_POINT ( 'NONE',  ( 5.217190196429882576, 11.27034874202492531, 0.000000000000000000 ) ) ;
#195 = CARTESIAN_POINT ( 'NONE',  ( 15.67813519400784017, 12.41757129387275427, -13.71781649631013522 ) ) ;
#196 = AXIS2_PLACEMENT_3D ( 'NONE', #237, #111, #39 ) ;
#197 = EDGE_CURVE ( 'NONE', #484, #529, #157, .T. ) ;
#198 = VERTEX_POINT ( 'NONE', #470 ) ;
#199 = SURFACE_STYLE_FILL_AREA ( #373 ) ;
#200 = DIRECTION ( 'NONE',  ( 1.000000000000000000, 0.000000000000000000, 0.000000000000000000 ) ) ;
#201 = DIRECTION ( 'NONE',  ( 1.000000000000000000, 0.000000000000000000, 0.000000000000000000 ) ) ;
#202 = FACE_OUTER_BOUND ( 'NONE', #174, .T. ) ;
#203 = ORIENTED_EDGE ( 'NONE', *, *, #395, .T. ) ;
#204 = DIRECTION ( 'NONE',  ( -1.000000000000000000, 0.000000000000000000, 0.000000000000000000 ) ) ;
#205 = CARTESIAN_POINT ( 'NONE',  ( 8.717190196429967841, 11.27034874202492531, 0.000000000000000000 ) ) ;
#206 = UNCERTAINTY_MEASURE_WITH_UNIT (LENGTH_MEASURE( 1.000000000000000082E-05 ), #121, 'distance_accuracy_value', 'NONE');
#207 = ORIENTED_EDGE ( 'NONE', *, *, #306, .T. ) ;
#208 = DIRECTION ( 'NONE',  ( -1.000000000000000000, 0.000000000000000000, 0.000000000000000000 ) ) ;
#209 =( NAMED_UNIT ( * ) PLANE_ANGLE_UNIT ( ) SI_UNIT ( $, .RADIAN. ) );
#210 = EDGE_CURVE ( 'NONE', #102, #215, #374, .T. ) ;
#211 = EDGE_CURVE ( 'NONE', #7, #474, #294, .T. ) ;
#212 = EDGE_LOOP ( 'NONE', ( #10, #89 ) ) ;
#213 = CIRCLE ( 'NONE', #221, 1.750000000000078826 ) ;
#214 = VECTOR ( 'NONE', #323, 1000.000000000000000 ) ;
#215 = VERTEX_POINT ( 'NONE', #540 ) ;
#216 = DIRECTION ( 'NONE',  ( -1.000000000000000000, 0.000000000000000000, 0.000000000000000000 ) ) ;
#217 = ORIENTED_EDGE ( 'NONE', *, *, #368, .F. ) ;
#218 = DIRECTION ( 'NONE',  ( -0.000000000000000000, -0.000000000000000000, -1.000000000000000000 ) ) ;
#219 = ORIENTED_EDGE ( 'NONE', *, *, #193, .T. ) ;
#220 = CARTESIAN_POINT ( 'NONE',  ( 3.000000000000000444, 3.673940397442060361E-16, 1.000000000000000000 ) ) ;
#221 = AXIS2_PLACEMENT_3D ( 'NONE', #126, #132, #309 ) ;
#222 = AXIS2_PLACEMENT_3D ( 'NONE', #131, #472, #379 ) ;
#223 = EDGE_LOOP ( 'NONE', ( #3, #545, #437, #16 ) ) ;
#224 = DIRECTION ( 'NONE',  ( 1.000000000000000000, 0.000000000000000000, 0.000000000000000000 ) ) ;
#225 = VERTEX_POINT ( 'NONE', #160 ) ;
#226 = CARTESIAN_POINT ( 'NONE',  ( -3.000000000000000444, 0.000000000000000000, 1.000000000000000000 ) ) ;
#227 = EDGE_LOOP ( 'NONE', ( #310, #259 ) ) ;
#228 = FACE_OUTER_BOUND ( 'NONE', #313, .T. ) ;
#229 = AXIS2_PLACEMENT_3D ( 'NONE', #475, #138, #321 ) ;
#230 = DIRECTION ( 'NONE',  ( -0.000000000000000000, -0.000000000000000000, -1.000000000000000000 ) ) ;
#231 = COLOUR_RGB ( '',0.000000000000000000, 0.000000000000000000, 1.000000000000000000 ) ;
#232 = CARTESIAN_POINT ( 'NONE',  ( -8.026813221885326755, 11.66893807411609707, 0.000000000000000000 ) ) ;
#233 = CARTESIAN_POINT ( 'NONE',  ( 15.67813519400784017, 12.41757129387275427, 0.000000000000000000 ) ) ;
#234 = DIRECTION ( 'NONE',  ( -0.000000000000000000, -0.000000000000000000, -1.000000000000000000 ) ) ;
#235 = ORIENTED_EDGE ( 'NONE', *, *, #457, .T. ) ;
#236 = PRODUCT ( '010_009_Front_back_servo_lock_1', '010_009_Front_back_servo_lock_1', '', ( #342 ) ) ;
#237 = CARTESIAN_POINT ( 'NONE',  ( 0.000000000000000000, 0.000000000000000000, 0.000000000000000000 ) ) ;
#238 = CARTESIAN_POINT ( 'NONE',  ( -7.230103034029033537, -11.69564492096658093, 3.000000000000000000 ) ) ;
#239 = AXIS2_PLACEMENT_3D ( 'NONE', #498, #114, #283 ) ;
#240 = DIRECTION ( 'NONE',  ( -0.000000000000000000, -0.000000000000000000, -1.000000000000000000 ) ) ;
#241 = CARTESIAN_POINT ( 'NONE',  ( 6.967190196429925209, 11.27034874202492531, 0.000000000000000000 ) ) ;
#242 = LINE ( 'NONE', #406, #254 ) ;
#243 = DIRECTION ( 'NONE',  ( 0.000000000000000000, 0.000000000000000000, 1.000000000000000000 ) ) ;
#244 = DIRECTION ( 'NONE',  ( 1.000000000000000000, 0.000000000000000000, 0.000000000000000000 ) ) ;
#245 = ORIENTED_EDGE ( 'NONE', *, *, #162, .T. ) ;
#246 = AXIS2_PLACEMENT_3D ( 'NONE', #405, #156, #73 ) ;
#247 = DIRECTION ( 'NONE',  ( -0.3144603417101392573, 0.9492706113071985863, 0.000000000000000000 ) ) ;
#248 = EDGE_CURVE ( 'NONE', #393, #361, #477, .T. ) ;
#249 = CYLINDRICAL_SURFACE ( 'NONE', #487, 20.00000000000000000 ) ;
#250 = VERTEX_POINT ( 'NONE', #526 ) ;
#251 =( NAMED_UNIT ( * ) PLANE_ANGLE_UNIT ( ) SI_UNIT ( $, .RADIAN. ) );
#252 = EDGE_LOOP ( 'NONE', ( #521, #245 ) ) ;
#253 = CIRCLE ( 'NONE', #86, 1.750000000000078826 ) ;
#254 = VECTOR ( 'NONE', #456, 1000.000000000000000 ) ;
#255 = DIRECTION ( 'NONE',  ( -0.000000000000000000, -0.000000000000000000, 1.000000000000000000 ) ) ;
#256 = ORIENTED_EDGE ( 'NONE', *, *, #418, .T. ) ;
#257 = CARTESIAN_POINT ( 'NONE',  ( -6.276813221885292116, 11.66893807411609707, 0.000000000000000000 ) ) ;
#258 = ADVANCED_FACE ( 'NONE', ( #15 ), #56, .F. ) ;
#259 = ORIENTED_EDGE ( 'NONE', *, *, #544, .F. ) ;
#260 =( NAMED_UNIT ( * ) SI_UNIT ( $, .STERADIAN. ) SOLID_ANGLE_UNIT ( ) );
#261 = CARTESIAN_POINT ( 'NONE',  ( 0.000000000000000000, 0.000000000000000000, 0.000000000000000000 ) ) ;
#262 = ORIENTED_EDGE ( 'NONE', *, *, #268, .F. ) ;
#263 = CARTESIAN_POINT ( 'NONE',  ( 0.000000000000000000, 0.000000000000000000, 0.000000000000000000 ) ) ;
#264 = AXIS2_PLACEMENT_3D ( 'NONE', #414, #36, #135 ) ;
#265 = CIRCLE ( 'NONE', #341, 20.00000000000000000 ) ;
#266 = ORIENTED_EDGE ( 'NONE', *, *, #488, .F. ) ;
#267 = EDGE_CURVE ( 'NONE', #93, #137, #24, .T. ) ;
#268 = EDGE_CURVE ( 'NONE', #68, #339, #95, .T. ) ;
#269 = DIRECTION ( 'NONE',  ( 1.000000000000000000, 0.000000000000000000, 0.000000000000000000 ) ) ;
#270 = ORIENTED_EDGE ( 'NONE', *, *, #544, .T. ) ;
#271 = LINE ( 'NONE', #524, #214 ) ;
#272 = ORIENTED_EDGE ( 'NONE', *, *, #389, .F. ) ;
#273 = DIRECTION ( 'NONE',  ( 1.000000000000000000, 0.000000000000000000, -0.000000000000000000 ) ) ;
#274 = VECTOR ( 'NONE', #486, 1000.000000000000114 ) ;
#275 = DIRECTION ( 'NONE',  ( -0.000000000000000000, -0.000000000000000000, 1.000000000000000000 ) ) ;
#276 = AXIS2_PLACEMENT_3D ( 'NONE', #332, #240, #153 ) ;
#277 = DIRECTION ( 'NONE',  ( -0.000000000000000000, -0.000000000000000000, -1.000000000000000000 ) ) ;
#278 = ORIENTED_EDGE ( 'NONE', *, *, #197, .T. ) ;
#279 = ADVANCED_FACE ( 'NONE', ( #436 ), #394, .T. ) ;
#280 = FILL_AREA_STYLE_COLOUR ( '', #231 ) ;
#281 = CARTESIAN_POINT ( 'NONE',  ( 19.99094855594721665, -0.6016442748612035318, -13.71781649631013522 ) ) ;
#282 = PRODUCT_DEFINITION_SHAPE ( 'NONE', 'NONE',  #531 ) ;
#283 = DIRECTION ( 'NONE',  ( 1.000000000000000000, 0.000000000000000000, 0.000000000000000000 ) ) ;
#284 = PLANE ( 'NONE',  #547 ) ;
#285 = STYLED_ITEM ( 'NONE', ( #381 ), #301 ) ;
#286 = CARTESIAN_POINT ( 'NONE',  ( -20.00000000000000000, 0.000000000000000000, 3.000000000000000000 ) ) ;
#287 = CARTESIAN_POINT ( 'NONE',  ( 6.967190196429925209, 11.27034874202492531, 3.000000000000000000 ) ) ;
#288 = CARTESIAN_POINT ( 'NONE',  ( -7.230103034029033537, -11.69564492096658093, -13.71781649631013522 ) ) ;
#289 = DIRECTION ( 'NONE',  ( -0.000000000000000000, -0.000000000000000000, -1.000000000000000000 ) ) ;
#290 = ORIENTED_EDGE ( 'NONE', *, *, #12, .F. ) ;
#291 = LINE ( 'NONE', #490, #8 ) ;
#292 = ADVANCED_FACE ( 'NONE', ( #183 ), #58, .F. ) ;
#293 = VERTEX_POINT ( 'NONE', #194 ) ;
#294 = CIRCLE ( 'NONE', #495, 1.750000000000042411 ) ;
#295 = DIRECTION ( 'NONE',  ( -0.000000000000000000, -0.000000000000000000, -1.000000000000000000 ) ) ;
#296 = ORIENTED_EDGE ( 'NONE', *, *, #382, .T. ) ;
#297 = ADVANCED_FACE ( 'NONE', ( #228, #518, #357, #483, #19 ), #103, .T. ) ;
#298 = SHAPE_DEFINITION_REPRESENTATION ( #282, #301 ) ;
#299 = VERTEX_POINT ( 'NONE', #232 ) ;
#300 = DIRECTION ( 'NONE',  ( 0.000000000000000000, 0.000000000000000000, -1.000000000000000000 ) ) ;
#301 = ADVANCED_BREP_SHAPE_REPRESENTATION ( '010_009_Front_back_servo_lock_1', ( #391, #222 ), #167 ) ;
#302 = CARTESIAN_POINT ( 'NONE',  ( 0.000000000000000000, 0.000000000000000000, 1.000000000000000000 ) ) ;
#303 = AXIS2_PLACEMENT_3D ( 'NONE', #147, #410, #534 ) ;
#304 = PRESENTATION_LAYER_ASSIGNMENT (  '', '', ( #285 ) ) ;
#305 = CARTESIAN_POINT ( 'NONE',  ( -7.230103034029033537, -11.69564492096658093, 3.000000000000000000 ) ) ;
#306 = EDGE_CURVE ( 'NONE', #361, #393, #513, .T. ) ;
#307 = ORIENTED_EDGE ( 'NONE', *, *, #82, .T. ) ;
#308 = SURFACE_STYLE_USAGE ( .BOTH. , #46 ) ;
#309 = DIRECTION ( 'NONE',  ( 1.000000000000000000, 0.000000000000000000, 0.000000000000000000 ) ) ;
#310 = ORIENTED_EDGE ( 'NONE', *, *, #197, .F. ) ;
#311 = DIRECTION ( 'NONE',  ( -0.000000000000000000, -0.000000000000000000, 1.000000000000000000 ) ) ;
#312 = EDGE_CURVE ( 'NONE', #184, #519, #402, .T. ) ;
#313 = EDGE_LOOP ( 'NONE', ( #480, #130, #256 ) ) ;
#314 = EDGE_CURVE ( 'NONE', #164, #225, #478, .T. ) ;
#315 = CARTESIAN_POINT ( 'NONE',  ( -6.276813221885292116, 11.66893807411609707, 3.000000000000000000 ) ) ;
#316 = CIRCLE ( 'NONE', #451, 20.00000000000000000 ) ;
#317 = AXIS2_PLACEMENT_3D ( 'NONE', #549, #123, #170 ) ;
#318 = ORIENTED_EDGE ( 'NONE', *, *, #23, .T. ) ;
#319 = DIRECTION ( 'NONE',  ( 1.000000000000000000, 0.000000000000000000, 0.000000000000000000 ) ) ;
#320 = EDGE_LOOP ( 'NONE', ( #87, #45 ) ) ;
#321 = DIRECTION ( 'NONE',  ( 1.000000000000000000, 0.000000000000000000, 0.000000000000000000 ) ) ;
#322 = LINE ( 'NONE', #195, #44 ) ;
#323 = DIRECTION ( 'NONE',  ( -0.000000000000000000, -0.000000000000000000, 1.000000000000000000 ) ) ;
#324 = AXIS2_PLACEMENT_3D ( 'NONE', #329, #446, #152 ) ;
#325 = EDGE_CURVE ( 'NONE', #299, #393, #271, .T. ) ;
#326 =( GEOMETRIC_REPRESENTATION_CONTEXT ( 3 ) GLOBAL_UNCERTAINTY_ASSIGNED_CONTEXT ( ( #415 ) ) GLOBAL_UNIT_ASSIGNED_CONTEXT ( ( #90, #209, #260 ) ) REPRESENTATION_CONTEXT ( 'NONE', 'WORKASPACE' ) );
#327 = DIRECTION ( 'NONE',  ( -0.000000000000000000, -0.000000000000000000, 1.000000000000000000 ) ) ;
#328 = DIRECTION ( 'NONE',  ( 1.000000000000000000, 0.000000000000000000, 0.000000000000000000 ) ) ;
#329 = CARTESIAN_POINT ( 'NONE',  ( 6.967190196429925209, 11.27034874202492531, -13.71781649631013522 ) ) ;
#330 = CARTESIAN_POINT ( 'NONE',  ( 0.000000000000000000, 0.000000000000000000, 0.000000000000000000 ) ) ;
#331 = CYLINDRICAL_SURFACE ( 'NONE', #303, 1.750000000000034417 ) ;
#332 = CARTESIAN_POINT ( 'NONE',  ( -7.230103034029033537, -11.69564492096658093, 0.000000000000000000 ) ) ;
#333 = ORIENTED_EDGE ( 'NONE', *, *, #12, .T. ) ;
#334 = CIRCLE ( 'NONE', #434, 1.750000000000034417 ) ;
#335 = PRODUCT_DEFINITION_FORMATION_WITH_SPECIFIED_SOURCE ( 'ANY', '', #236, .NOT_KNOWN. ) ;
#336 = LINE ( 'NONE', #220, #107 ) ;
#337 = DIRECTION ( 'NONE',  ( -0.000000000000000000, -0.000000000000000000, 1.000000000000000000 ) ) ;
#338 = PRODUCT_DEFINITION_CONTEXT ( 'detailed design', #125, 'design' ) ;
#339 = VERTEX_POINT ( 'NONE', #189 ) ;
#340 = AXIS2_PLACEMENT_3D ( 'NONE', #302, #52, #216 ) ;
#341 = AXIS2_PLACEMENT_3D ( 'NONE', #448, #493, #69 ) ;
#342 = PRODUCT_CONTEXT ( 'NONE', #366, 'mechanical' ) ;
#343 = FACE_OUTER_BOUND ( 'NONE', #252, .T. ) ;
#344 = ORIENTED_EDGE ( 'NONE', *, *, #325, .F. ) ;
#345 = PLANE ( 'NONE',  #148 ) ;
#346 = ORIENTED_EDGE ( 'NONE', *, *, #353, .T. ) ;
#347 = CARTESIAN_POINT ( 'NONE',  ( 0.000000000000000000, 0.000000000000000000, 0.000000000000000000 ) ) ;
#348 = VECTOR ( 'NONE', #88, 1000.000000000000000 ) ;
#349 = VECTOR ( 'NONE', #371, 1000.000000000000000 ) ;
#350 = DIRECTION ( 'NONE',  ( -1.000000000000000000, 0.000000000000000000, -0.000000000000000000 ) ) ;
#351 = ORIENTED_EDGE ( 'NONE', *, *, #457, .F. ) ;
#352 = DIRECTION ( 'NONE',  ( -0.000000000000000000, -0.000000000000000000, 1.000000000000000000 ) ) ;
#353 = EDGE_CURVE ( 'NONE', #299, #49, #496, .T. ) ;
#354 = ORIENTED_EDGE ( 'NONE', *, *, #104, .T. ) ;
#355 = DIRECTION ( 'NONE',  ( 0.000000000000000000, 0.000000000000000000, 1.000000000000000000 ) ) ;
#356 = ORIENTED_EDGE ( 'NONE', *, *, #210, .F. ) ;
#357 = FACE_BOUND ( 'NONE', #96, .T. ) ;
#358 = VECTOR ( 'NONE', #28, 1000.000000000000000 ) ;
#359 = EDGE_LOOP ( 'NONE', ( #423, #471 ) ) ;
#360 = FACE_BOUND ( 'NONE', #320, .T. ) ;
#361 = VERTEX_POINT ( 'NONE', #481 ) ;
#362 = EDGE_CURVE ( 'NONE', #502, #484, #101, .T. ) ;
#363 = CARTESIAN_POINT ( 'NONE',  ( 15.67813519400784017, 12.41757129387275427, 3.000000000000000000 ) ) ;
#364 = DIRECTION ( 'NONE',  ( 1.000000000000000000, 0.000000000000000000, 0.000000000000000000 ) ) ;
#365 = CYLINDRICAL_SURFACE ( 'NONE', #324, 1.750000000000042411 ) ;
#366 = APPLICATION_CONTEXT ( 'automotive_design' ) ;
#367 = CARTESIAN_POINT ( 'NONE',  ( 8.263674098183001249, -12.10927535993234372, 0.000000000000000000 ) ) ;
#368 = EDGE_CURVE ( 'NONE', #49, #361, #397, .T. ) ;
#369 = ADVANCED_FACE ( 'NONE', ( #528, #142, #360, #146, #445, #67 ), #404, .F. ) ;
#370 = EDGE_LOOP ( 'NONE', ( #84, #417, #494, #203 ) ) ;
#371 = DIRECTION ( 'NONE',  ( -0.000000000000000000, -0.000000000000000000, -1.000000000000000000 ) ) ;
#372 = DIRECTION ( 'NONE',  ( -0.9492706113071985863, -0.3144603417101392573, 0.000000000000000000 ) ) ;
#373 = FILL_AREA_STYLE ('',( #280 ) ) ;
#374 = LINE ( 'NONE', #180, #348 ) ;
#375 = VERTEX_POINT ( 'NONE', #367 ) ;
#376 = DIRECTION ( 'NONE',  ( -0.000000000000000000, -0.000000000000000000, 1.000000000000000000 ) ) ;
#377 = DIRECTION ( 'NONE',  ( 0.000000000000000000, 0.000000000000000000, 1.000000000000000000 ) ) ;
#378 = ORIENTED_EDGE ( 'NONE', *, *, #193, .F. ) ;
#379 = DIRECTION ( 'NONE',  ( 1.000000000000000000, 0.000000000000000000, 0.000000000000000000 ) ) ;
#380 = STYLED_ITEM ( 'NONE', ( #537 ), #391 ) ;
#381 = PRESENTATION_STYLE_ASSIGNMENT (( #308 ) ) ;
#382 = EDGE_CURVE ( 'NONE', #102, #93, #18, .T. ) ;
#383 = ORIENTED_EDGE ( 'NONE', *, *, #267, .F. ) ;
#384 = DIRECTION ( 'NONE',  ( 1.000000000000000000, 0.000000000000000000, 0.000000000000000000 ) ) ;
#385 = EDGE_LOOP ( 'NONE', ( #20, #57, #40, #14 ) ) ;
#386 = CYLINDRICAL_SURFACE ( 'NONE', #388, 1.750000000000078826 ) ;
#387 = ORIENTED_EDGE ( 'NONE', *, *, #92, .T. ) ;
#388 = AXIS2_PLACEMENT_3D ( 'NONE', #515, #352, #77 ) ;
#389 = EDGE_CURVE ( 'NONE', #179, #474, #242, .T. ) ;
#390 = CIRCLE ( 'NONE', #63, 1.750000000000078826 ) ;
#391 = MANIFOLD_SOLID_BREP ( 'Wytnij-wyci¹gniêcie2', #186 ) ;
#392 = CARTESIAN_POINT ( 'NONE',  ( -7.230103034029033537, -11.69564492096658093, 0.000000000000000000 ) ) ;
#393 = VERTEX_POINT ( 'NONE', #411 ) ;
#394 = CYLINDRICAL_SURFACE ( 'NONE', #485, 20.00000000000000000 ) ;
#395 = EDGE_CURVE ( 'NONE', #43, #68, #141, .T. ) ;
#396 = EDGE_LOOP ( 'NONE', ( #115, #491 ) ) ;
#397 = LINE ( 'NONE', #185, #435 ) ;
#398 = ORIENTED_EDGE ( 'NONE', *, *, #162, .F. ) ;
#399 = DIRECTION ( 'NONE',  ( 0.000000000000000000, 0.000000000000000000, 1.000000000000000000 ) ) ;
#400 = AXIS2_PLACEMENT_3D ( 'NONE', #330, #26, #201 ) ;
#401 = ORIENTED_EDGE ( 'NONE', *, *, #210, .T. ) ;
#402 = LINE ( 'NONE', #363, #274 ) ;
#403 = LINE ( 'NONE', #449, #53 ) ;
#404 = PLANE ( 'NONE',  #196 ) ;
#405 = CARTESIAN_POINT ( 'NONE',  ( 0.000000000000000000, 0.000000000000000000, 1.000000000000000000 ) ) ;
#406 = CARTESIAN_POINT ( 'NONE',  ( 8.717190196429967841, 11.27034874202492531, -13.71781649631013522 ) ) ;
#407 = AXIS2_PLACEMENT_3D ( 'NONE', #263, #355, #224 ) ;
#408 = DIRECTION ( 'NONE',  ( 0.000000000000000000, 0.000000000000000000, 1.000000000000000000 ) ) ;
#409 = FACE_OUTER_BOUND ( 'NONE', #422, .T. ) ;
#410 = DIRECTION ( 'NONE',  ( -0.000000000000000000, -0.000000000000000000, 1.000000000000000000 ) ) ;
#411 = CARTESIAN_POINT ( 'NONE',  ( -8.026813221885326755, 11.66893807411609707, 3.000000000000000000 ) ) ;
#412 = CARTESIAN_POINT ( 'NONE',  ( -5.480103034028963371, -11.69564492096658093, 3.000000000000000000 ) ) ;
#413 = AXIS2_PLACEMENT_3D ( 'NONE', #542, #511, #244 ) ;
#414 = CARTESIAN_POINT ( 'NONE',  ( -6.276813221885292116, 11.66893807411609707, 3.000000000000000000 ) ) ;
#415 = UNCERTAINTY_MEASURE_WITH_UNIT (LENGTH_MEASURE( 1.000000000000000082E-05 ), #90, 'distance_accuracy_value', 'NONE');
#416 = COLOUR_RGB ( '',0.000000000000000000, 0.000000000000000000, 1.000000000000000000 ) ;
#417 = ORIENTED_EDGE ( 'NONE', *, *, #133, .F. ) ;
#418 = EDGE_CURVE ( 'NONE', #466, #519, #265, .T. ) ;
#419 = CARTESIAN_POINT ( 'NONE',  ( -3.000000000000000444, 0.000000000000000000, 1.000000000000000000 ) ) ;
#420 = EDGE_LOOP ( 'NONE', ( #398, #307, #270, #548 ) ) ;
#421 = CARTESIAN_POINT ( 'NONE',  ( 3.000000000000000444, 3.673940397442060361E-16, 0.000000000000000000 ) ) ;
#422 = EDGE_LOOP ( 'NONE', ( #387, #525, #1, #217 ) ) ;
#423 = ORIENTED_EDGE ( 'NONE', *, *, #505, .F. ) ;
#424 = AXIS2_PLACEMENT_3D ( 'NONE', #432, #255, #9 ) ;
#425 = MECHANICAL_DESIGN_GEOMETRIC_PRESENTATION_REPRESENTATION (  '', ( #285 ), #326 ) ;
#426 = DIRECTION ( 'NONE',  ( 0.3144603417101392573, -0.9492706113071985863, 0.000000000000000000 ) ) ;
#427 = ORIENTED_EDGE ( 'NONE', *, *, #362, .T. ) ;
#428 = FILL_AREA_STYLE ('',( #510 ) ) ;
#429 = DIRECTION ( 'NONE',  ( 1.000000000000000000, 0.000000000000000000, 0.000000000000000000 ) ) ;
#430 = EDGE_LOOP ( 'NONE', ( #354, #401, #333, #383 ) ) ;
#431 = DIRECTION ( 'NONE',  ( -0.000000000000000000, -0.000000000000000000, -1.000000000000000000 ) ) ;
#432 = CARTESIAN_POINT ( 'NONE',  ( 6.967190196429925209, 11.27034874202492531, -13.71781649631013522 ) ) ;
#433 = EDGE_LOOP ( 'NONE', ( #356, #296, #461, #219 ) ) ;
#434 = AXIS2_PLACEMENT_3D ( 'NONE', #257, #289, #467 ) ;
#435 = VECTOR ( 'NONE', #191, 1000.000000000000000 ) ;
#436 = FACE_OUTER_BOUND ( 'NONE', #370, .T. ) ;
#437 = ORIENTED_EDGE ( 'NONE', *, *, #268, .T. ) ;
#438 = CARTESIAN_POINT ( 'NONE',  ( -6.276813221885292116, 11.66893807411609707, 0.000000000000000000 ) ) ;
#439 = ORIENTED_EDGE ( 'NONE', *, *, #13, .F. ) ;
#440 = CARTESIAN_POINT ( 'NONE',  ( 0.000000000000000000, 0.000000000000000000, 3.000000000000000000 ) ) ;
#441 = EDGE_CURVE ( 'NONE', #502, #250, #72, .T. ) ;
#442 = FACE_OUTER_BOUND ( 'NONE', #171, .T. ) ;
#443 = CARTESIAN_POINT ( 'NONE',  ( -7.230103034029033537, -11.69564492096658093, -13.71781649631013522 ) ) ;
#444 = EDGE_LOOP ( 'NONE', ( #182, #70, #427, #278 ) ) ;
#445 = FACE_BOUND ( 'NONE', #396, .T. ) ;
#446 = DIRECTION ( 'NONE',  ( -0.000000000000000000, -0.000000000000000000, 1.000000000000000000 ) ) ;
#447 = ADVANCED_FACE ( 'NONE', ( #409 ), #533, .F. ) ;
#448 = CARTESIAN_POINT ( 'NONE',  ( 0.000000000000000000, 0.000000000000000000, 3.000000000000000000 ) ) ;
#449 = CARTESIAN_POINT ( 'NONE',  ( 5.217190196429882576, 11.27034874202492531, -13.71781649631013522 ) ) ;
#450 = CYLINDRICAL_SURFACE ( 'NONE', #97, 1.750000000000070166 ) ;
#451 = AXIS2_PLACEMENT_3D ( 'NONE', #118, #377, #2 ) ;
#452 = AXIS2_PLACEMENT_3D ( 'NONE', #31, #33, #204 ) ;
#453 = CARTESIAN_POINT ( 'NONE',  ( 15.67813519400784017, 12.41757129387275427, -13.71781649631013522 ) ) ;
#454 = CARTESIAN_POINT ( 'NONE',  ( -20.00000000000000000, 0.000000000000000000, 3.000000000000000000 ) ) ;
#455 = CARTESIAN_POINT ( 'NONE',  ( -5.480103034028963371, -11.69564492096658093, 0.000000000000000000 ) ) ;
#456 = DIRECTION ( 'NONE',  ( -0.000000000000000000, -0.000000000000000000, 1.000000000000000000 ) ) ;
#457 = EDGE_CURVE ( 'NONE', #375, #164, #291, .T. ) ;
#458 = DIRECTION ( 'NONE',  ( -0.000000000000000000, -0.000000000000000000, -1.000000000000000000 ) ) ;
#459 = CARTESIAN_POINT ( 'NONE',  ( 15.67813519400784017, 12.41757129387275427, 0.000000000000000000 ) ) ;
#460 = AXIS2_PLACEMENT_3D ( 'NONE', #392, #218, #75 ) ;
#461 = ORIENTED_EDGE ( 'NONE', *, *, #267, .T. ) ;
#462 = CARTESIAN_POINT ( 'NONE',  ( 0.000000000000000000, 0.000000000000000000, 3.000000000000000000 ) ) ;
#463 = ORIENTED_EDGE ( 'NONE', *, *, #516, .T. ) ;
#464 = ADVANCED_FACE ( 'NONE', ( #74 ), #450, .F. ) ;
#465 = EDGE_CURVE ( 'NONE', #466, #68, #71, .T. ) ;
#466 = VERTEX_POINT ( 'NONE', #454 ) ;
#467 = DIRECTION ( 'NONE',  ( 1.000000000000000000, 0.000000000000000000, 0.000000000000000000 ) ) ;
#468 = AXIS2_PLACEMENT_3D ( 'NONE', #440, #399, #273 ) ;
#469 = SURFACE_STYLE_FILL_AREA ( #428 ) ;
#470 = CARTESIAN_POINT ( 'NONE',  ( 4.763674098182844929, -12.10927535993234372, 0.000000000000000000 ) ) ;
#471 = ORIENTED_EDGE ( 'NONE', *, *, #211, .F. ) ;
#472 = DIRECTION ( 'NONE',  ( 0.000000000000000000, 0.000000000000000000, 1.000000000000000000 ) ) ;
#473 = CARTESIAN_POINT ( 'NONE',  ( 6.513674098182923089, -12.10927535993234372, 0.000000000000000000 ) ) ;
#474 = VERTEX_POINT ( 'NONE', #535 ) ;
#475 = CARTESIAN_POINT ( 'NONE',  ( 6.513674098182923089, -12.10927535993234372, -13.71781649631013522 ) ) ;
#476 = ORIENTED_EDGE ( 'NONE', *, *, #136, .T. ) ;
#477 = CIRCLE ( 'NONE', #264, 1.750000000000034417 ) ;
#478 = CIRCLE ( 'NONE', #188, 1.750000000000078826 ) ;
#479 = DIRECTION ( 'NONE',  ( 1.000000000000000000, 0.000000000000000000, 0.000000000000000000 ) ) ;
#480 = ORIENTED_EDGE ( 'NONE', *, *, #312, .F. ) ;
#481 = CARTESIAN_POINT ( 'NONE',  ( -4.526813221885257477, 11.66893807411609707, 3.000000000000000000 ) ) ;
#482 = EDGE_LOOP ( 'NONE', ( #187, #506, #262 ) ) ;
#483 = FACE_BOUND ( 'NONE', #127, .T. ) ;
#484 = VERTEX_POINT ( 'NONE', #117 ) ;
#485 = AXIS2_PLACEMENT_3D ( 'NONE', #520, #144, #11 ) ;
#486 = DIRECTION ( 'NONE',  ( 0.3144603417101392573, -0.9492706113071985863, 0.000000000000000000 ) ) ;
#487 = AXIS2_PLACEMENT_3D ( 'NONE', #462, #431, #208 ) ;
#488 = EDGE_CURVE ( 'NONE', #198, #225, #541, .T. ) ;
#489 = DIRECTION ( 'NONE',  ( -1.000000000000000000, 0.000000000000000000, 0.000000000000000000 ) ) ;
#490 = CARTESIAN_POINT ( 'NONE',  ( 8.263674098183001249, -12.10927535993234372, -13.71781649631013522 ) ) ;
#491 = ORIENTED_EDGE ( 'NONE', *, *, #516, .F. ) ;
#492 = PRODUCT_RELATED_PRODUCT_CATEGORY ( 'part', '', ( #236 ) ) ;
#493 = DIRECTION ( 'NONE',  ( 0.000000000000000000, 0.000000000000000000, 1.000000000000000000 ) ) ;
#494 = ORIENTED_EDGE ( 'NONE', *, *, #29, .F. ) ;
#495 = AXIS2_PLACEMENT_3D ( 'NONE', #287, #243, #429 ) ;
#496 = CIRCLE ( 'NONE', #35, 1.750000000000034417 ) ;
#497 = EDGE_LOOP ( 'NONE', ( #190, #143 ) ) ;
#498 = CARTESIAN_POINT ( 'NONE',  ( -6.276813221885292116, 11.66893807411609707, -13.71781649631013522 ) ) ;
#499 = EDGE_CURVE ( 'NONE', #339, #43, #501, .T. ) ;
#500 = DIRECTION ( 'NONE',  ( 1.000000000000000000, 0.000000000000000000, 0.000000000000000000 ) ) ;
#501 = LINE ( 'NONE', #459, #539 ) ;
#502 = VERTEX_POINT ( 'NONE', #419 ) ;
#503 = DIRECTION ( 'NONE',  ( 1.000000000000000000, 0.000000000000000000, 0.000000000000000000 ) ) ;
#504 = AXIS2_PLACEMENT_3D ( 'NONE', #261, #5, #50 ) ;
#505 = EDGE_CURVE ( 'NONE', #474, #7, #108, .T. ) ;
#506 = ORIENTED_EDGE ( 'NONE', *, *, #499, .F. ) ;
#507 = APPLICATION_PROTOCOL_DEFINITION ( 'draft international standard', 'automotive_design', 1998, #125 ) ;
#508 = ORIENTED_EDGE ( 'NONE', *, *, #211, .T. ) ;
#509 = DIRECTION ( 'NONE',  ( 0.000000000000000000, 0.000000000000000000, -1.000000000000000000 ) ) ;
#510 = FILL_AREA_STYLE_COLOUR ( '', #416 ) ;
#511 = DIRECTION ( 'NONE',  ( -0.000000000000000000, -0.000000000000000000, -1.000000000000000000 ) ) ;
#512 = ORIENTED_EDGE ( 'NONE', *, *, #312, .T. ) ;
#513 = CIRCLE ( 'NONE', #34, 1.750000000000034417 ) ;
#514 = VECTOR ( 'NONE', #234, 1000.000000000000000 ) ;
#515 = CARTESIAN_POINT ( 'NONE',  ( 6.513674098182923089, -12.10927535993234372, -13.71781649631013522 ) ) ;
#516 = EDGE_CURVE ( 'NONE', #198, #375, #390, .T. ) ;
#517 = ORIENTED_EDGE ( 'NONE', *, *, #168, .T. ) ;
#518 = FACE_BOUND ( 'NONE', #359, .T. ) ;
#519 = VERTEX_POINT ( 'NONE', #83 ) ;
#520 = CARTESIAN_POINT ( 'NONE',  ( 0.000000000000000000, 0.000000000000000000, 3.000000000000000000 ) ) ;
#521 = ORIENTED_EDGE ( 'NONE', *, *, #441, .T. ) ;
#522 = ADVANCED_FACE ( 'NONE', ( #166 ), #249, .T. ) ;
#523 = CIRCLE ( 'NONE', #460, 1.750000000000070166 ) ;
#524 = CARTESIAN_POINT ( 'NONE',  ( -8.026813221885326755, 11.66893807411609707, -13.71781649631013522 ) ) ;
#525 = ORIENTED_EDGE ( 'NONE', *, *, #325, .T. ) ;
#526 = CARTESIAN_POINT ( 'NONE',  ( 3.000000000000000444, 3.673940397442060361E-16, 1.000000000000000000 ) ) ;
#527 = ORIENTED_EDGE ( 'NONE', *, *, #488, .T. ) ;
#528 = FACE_BOUND ( 'NONE', #227, .T. ) ;
#529 = VERTEX_POINT ( 'NONE', #421 ) ;
#530 = AXIS2_PLACEMENT_3D ( 'NONE', #305, #85, #384 ) ;
#531 = PRODUCT_DEFINITION ( 'UNKNOWN', '', #335, #338 ) ;
#532 = CARTESIAN_POINT ( 'NONE',  ( 0.000000000000000000, 0.000000000000000000, 1.000000000000000000 ) ) ;
#533 = CYLINDRICAL_SURFACE ( 'NONE', #239, 1.750000000000034417 ) ;
#534 = DIRECTION ( 'NONE',  ( 1.000000000000000000, 0.000000000000000000, 0.000000000000000000 ) ) ;
#535 = CARTESIAN_POINT ( 'NONE',  ( 8.717190196429967841, 11.27034874202492531, 3.000000000000000000 ) ) ;
#536 = ORIENTED_EDGE ( 'NONE', *, *, #499, .T. ) ;
#537 = PRESENTATION_STYLE_ASSIGNMENT (( #155 ) ) ;
#538 = CIRCLE ( 'NONE', #62, 1.750000000000070166 ) ;
#539 = VECTOR ( 'NONE', #247, 1000.000000000000000 ) ;
#540 = CARTESIAN_POINT ( 'NONE',  ( -8.980103034029104592, -11.69564492096658093, 3.000000000000000000 ) ) ;
#541 = LINE ( 'NONE', #161, #177 ) ;
#542 = CARTESIAN_POINT ( 'NONE',  ( 6.967190196429925209, 11.27034874202492531, 0.000000000000000000 ) ) ;
#543 =( LENGTH_UNIT ( ) NAMED_UNIT ( * ) SI_UNIT ( .MILLI., .METRE. ) );
#544 = EDGE_CURVE ( 'NONE', #529, #484, #178, .T. ) ;
#545 = ORIENTED_EDGE ( 'NONE', *, *, #465, .T. ) ;
#546 = CARTESIAN_POINT ( 'NONE',  ( 6.513674098182923089, -12.10927535993234372, 0.000000000000000000 ) ) ;
#547 = AXIS2_PLACEMENT_3D ( 'NONE', #453, #372, #426 ) ;
#548 = ORIENTED_EDGE ( 'NONE', *, *, #362, .F. ) ;
#549 = CARTESIAN_POINT ( 'NONE',  ( 6.967190196429925209, 11.27034874202492531, 3.000000000000000000 ) ) ;
ENDSEC;
END-ISO-10303-21;
