ISO-10303-21;
HEADER;
FILE_DESCRIPTION (( 'STEP AP214' ),
    '1' );
FILE_NAME ('010_012_Front_back_servo_lock_2.STEP',
    '2024-07-21T08:36:25',
    ( '' ),
    ( '' ),
    'SwSTEP 2.0',
    'SolidWorks 2019',
    '' );
FILE_SCHEMA (( 'AUTOMOTIVE_DESIGN' ));
ENDSEC;

DATA;
#1 = CARTESIAN_POINT ( 'NONE',  ( -5.480103034028963371, -11.69564492096658093, 23.00000000000000355 ) ) ;
#2 = AXIS2_PLACEMENT_3D ( 'NONE', #136, #212, #85 ) ;
#3 = ADVANCED_FACE ( 'NONE', ( #543 ), #332, .F. ) ;
#4 = CARTESIAN_POINT ( 'NONE',  ( -3.000000000000000444, 0.000000000000000000, 25.00000000000000000 ) ) ;
#5 = DIRECTION ( 'NONE',  ( -0.000000000000000000, -0.000000000000000000, 1.000000000000000000 ) ) ;
#6 = FACE_BOUND ( 'NONE', #358, .T. ) ;
#7 = FACE_OUTER_BOUND ( 'NONE', #232, .T. ) ;
#8 = EDGE_CURVE ( 'NONE', #350, #300, #166, .T. ) ;
#9 = ORIENTED_EDGE ( 'NONE', *, *, #130, .T. ) ;
#10 = VECTOR ( 'NONE', #41, 1000.000000000000000 ) ;
#11 = DIRECTION ( 'NONE',  ( 0.000000000000000000, 0.000000000000000000, -1.000000000000000000 ) ) ;
#12 = VERTEX_POINT ( 'NONE', #296 ) ;
#13 = PRODUCT_DEFINITION ( 'UNKNOWN', '', #107, #74 ) ;
#14 = CARTESIAN_POINT ( 'NONE',  ( 0.000000000000000000, 0.000000000000000000, 25.00000000000000000 ) ) ;
#15 = ORIENTED_EDGE ( 'NONE', *, *, #345, .F. ) ;
#16 =( NAMED_UNIT ( * ) PLANE_ANGLE_UNIT ( ) SI_UNIT ( $, .RADIAN. ) );
#17 = DIRECTION ( 'NONE',  ( 0.000000000000000000, 0.000000000000000000, -1.000000000000000000 ) ) ;
#18 = ORIENTED_EDGE ( 'NONE', *, *, #246, .F. ) ;
#19 = CIRCLE ( 'NONE', #326, 3.000000000000000444 ) ;
#20 = DIRECTION ( 'NONE',  ( 0.000000000000000000, 0.000000000000000000, -1.000000000000000000 ) ) ;
#21 = ORIENTED_EDGE ( 'NONE', *, *, #262, .T. ) ;
#22 = DIRECTION ( 'NONE',  ( 0.000000000000000000, 0.000000000000000000, -1.000000000000000000 ) ) ;
#23 = ORIENTED_EDGE ( 'NONE', *, *, #402, .T. ) ;
#24 = FACE_OUTER_BOUND ( 'NONE', #366, .T. ) ;
#25 = EDGE_CURVE ( 'NONE', #518, #138, #468, .T. ) ;
#26 = VERTEX_POINT ( 'NONE', #459 ) ;
#27 = CARTESIAN_POINT ( 'NONE',  ( 0.000000000000000000, 0.000000000000000000, 26.00000000000000355 ) ) ;
#28 = CARTESIAN_POINT ( 'NONE',  ( 0.000000000000000000, 0.000000000000000000, 26.00000000000000355 ) ) ;
#29 = ORIENTED_EDGE ( 'NONE', *, *, #435, .F. ) ;
#30 = EDGE_CURVE ( 'NONE', #452, #109, #460, .T. ) ;
#31 = CARTESIAN_POINT ( 'NONE',  ( 6.513674098182923089, -12.10927535993234372, 39.71781649631013522 ) ) ;
#32 = ORIENTED_EDGE ( 'NONE', *, *, #88, .T. ) ;
#33 = ADVANCED_FACE ( 'NONE', ( #545 ), #329, .F. ) ;
#34 = DIRECTION ( 'NONE',  ( -1.000000000000000000, 0.000000000000000000, 0.000000000000000000 ) ) ;
#35 = SURFACE_STYLE_USAGE ( .BOTH. , #417 ) ;
#36 = CARTESIAN_POINT ( 'NONE',  ( -5.480103034028963371, -11.69564492096658093, 39.71781649631013522 ) ) ;
#37 = LINE ( 'NONE', #206, #42 ) ;
#38 = DIRECTION ( 'NONE',  ( 0.3144603417101392573, -0.9492706113071985863, 0.000000000000000000 ) ) ;
#39 = CARTESIAN_POINT ( 'NONE',  ( 5.217190196429882576, 11.27034874202492531, 23.00000000000000355 ) ) ;
#40 = EDGE_CURVE ( 'NONE', #240, #452, #463, .T. ) ;
#41 = DIRECTION ( 'NONE',  ( -0.000000000000000000, -0.000000000000000000, 1.000000000000000000 ) ) ;
#42 = VECTOR ( 'NONE', #125, 1000.000000000000000 ) ;
#43 = ORIENTED_EDGE ( 'NONE', *, *, #345, .T. ) ;
#44 = MANIFOLD_SOLID_BREP ( 'Lustro1', #409 ) ;
#45 = AXIS2_PLACEMENT_3D ( 'NONE', #359, #110, #148 ) ;
#46 = FILL_AREA_STYLE_COLOUR ( '', #172 ) ;
#47 = CARTESIAN_POINT ( 'NONE',  ( 5.217190196429882576, 11.27034874202492531, 26.00000000000000355 ) ) ;
#48 = EDGE_LOOP ( 'NONE', ( #403, #185 ) ) ;
#49 = PRESENTATION_STYLE_ASSIGNMENT (( #180 ) ) ;
#50 = DIRECTION ( 'NONE',  ( 0.000000000000000000, 0.000000000000000000, -1.000000000000000000 ) ) ;
#51 = AXIS2_PLACEMENT_3D ( 'NONE', #137, #50, #313 ) ;
#52 = ORIENTED_EDGE ( 'NONE', *, *, #475, .T. ) ;
#53 = PRODUCT_CONTEXT ( 'NONE', #114, 'mechanical' ) ;
#54 = CARTESIAN_POINT ( 'NONE',  ( 6.513674098182923089, -12.10927535993234372, 23.00000000000000355 ) ) ;
#55 = ORIENTED_EDGE ( 'NONE', *, *, #179, .F. ) ;
#56 = DIRECTION ( 'NONE',  ( 1.000000000000000000, 0.000000000000000000, 0.000000000000000000 ) ) ;
#57 = EDGE_LOOP ( 'NONE', ( #526, #294, #52, #282 ) ) ;
#58 = LINE ( 'NONE', #382, #122 ) ;
#59 = PRODUCT ( '010_012_Front_back_servo_lock_2', '010_012_Front_back_servo_lock_2', '', ( #53 ) ) ;
#60 = EDGE_LOOP ( 'NONE', ( #225, #323, #274, #492 ) ) ;
#61 = AXIS2_PLACEMENT_3D ( 'NONE', #389, #11, #183 ) ;
#62 = FACE_BOUND ( 'NONE', #522, .T. ) ;
#63 = FACE_BOUND ( 'NONE', #117, .T. ) ;
#64 = ORIENTED_EDGE ( 'NONE', *, *, #420, .T. ) ;
#65 = LINE ( 'NONE', #226, #164 ) ;
#66 = ORIENTED_EDGE ( 'NONE', *, *, #234, .T. ) ;
#67 = ADVANCED_BREP_SHAPE_REPRESENTATION ( '010_012_Front_back_servo_lock_2', ( #44, #2 ), #479 ) ;
#68 = AXIS2_PLACEMENT_3D ( 'NONE', #28, #396, #410 ) ;
#69 = AXIS2_PLACEMENT_3D ( 'NONE', #155, #20, #116 ) ;
#70 = DIRECTION ( 'NONE',  ( 1.000000000000000000, 0.000000000000000000, 0.000000000000000000 ) ) ;
#71 = ORIENTED_EDGE ( 'NONE', *, *, #252, .T. ) ;
#72 = CYLINDRICAL_SURFACE ( 'NONE', #79, 1.750000000000042411 ) ;
#73 = ORIENTED_EDGE ( 'NONE', *, *, #475, .F. ) ;
#74 = PRODUCT_DEFINITION_CONTEXT ( 'detailed design', #437, 'design' ) ;
#75 = EDGE_CURVE ( 'NONE', #300, #350, #271, .T. ) ;
#76 = CARTESIAN_POINT ( 'NONE',  ( 4.763674098182844929, -12.10927535993234372, 39.71781649631013522 ) ) ;
#77 = ORIENTED_EDGE ( 'NONE', *, *, #75, .F. ) ;
#78 = CARTESIAN_POINT ( 'NONE',  ( 15.67813519400784017, 12.41757129387275427, 23.00000000000000355 ) ) ;
#79 = AXIS2_PLACEMENT_3D ( 'NONE', #501, #290, #239 ) ;
#80 = PRESENTATION_STYLE_ASSIGNMENT (( #35 ) ) ;
#81 = DIRECTION ( 'NONE',  ( 1.000000000000000000, 0.000000000000000000, 0.000000000000000000 ) ) ;
#82 = EDGE_CURVE ( 'NONE', #429, #105, #86, .T. ) ;
#83 = CARTESIAN_POINT ( 'NONE',  ( -7.230103034029033537, -11.69564492096658093, 23.00000000000000355 ) ) ;
#84 = CARTESIAN_POINT ( 'NONE',  ( -7.230103034029033537, -11.69564492096658093, 23.00000000000000355 ) ) ;
#85 = DIRECTION ( 'NONE',  ( 1.000000000000000000, 0.000000000000000000, 0.000000000000000000 ) ) ;
#86 = CIRCLE ( 'NONE', #243, 1.750000000000042411 ) ;
#87 = EDGE_LOOP ( 'NONE', ( #472, #260, #445, #153 ) ) ;
#88 = EDGE_CURVE ( 'NONE', #531, #429, #37, .T. ) ;
#89 = CARTESIAN_POINT ( 'NONE',  ( -8.026813221885326755, 11.66893807411609707, 39.71781649631013522 ) ) ;
#90 = ORIENTED_EDGE ( 'NONE', *, *, #202, .F. ) ;
#91 = PRODUCT_RELATED_PRODUCT_CATEGORY ( 'part', '', ( #59 ) ) ;
#92 = CARTESIAN_POINT ( 'NONE',  ( 0.000000000000000000, 0.000000000000000000, 23.00000000000000355 ) ) ;
#93 = ORIENTED_EDGE ( 'NONE', *, *, #100, .F. ) ;
#94 =( NAMED_UNIT ( * ) PLANE_ANGLE_UNIT ( ) SI_UNIT ( $, .RADIAN. ) );
#95 = CARTESIAN_POINT ( 'NONE',  ( 19.99094855594721665, -0.6016442748612035318, 39.71781649631013522 ) ) ;
#96 = VECTOR ( 'NONE', #257, 1000.000000000000000 ) ;
#97 = ORIENTED_EDGE ( 'NONE', *, *, #426, .F. ) ;
#98 =( LENGTH_UNIT ( ) NAMED_UNIT ( * ) SI_UNIT ( .MILLI., .METRE. ) );
#99 = FACE_OUTER_BOUND ( 'NONE', #178, .T. ) ;
#100 = EDGE_CURVE ( 'NONE', #325, #111, #352, .T. ) ;
#101 = ORIENTED_EDGE ( 'NONE', *, *, #8, .T. ) ;
#102 = CARTESIAN_POINT ( 'NONE',  ( -7.230103034029033537, -11.69564492096658093, 26.00000000000000355 ) ) ;
#103 = ORIENTED_EDGE ( 'NONE', *, *, #293, .F. ) ;
#104 = DIRECTION ( 'NONE',  ( 0.000000000000000000, 0.000000000000000000, -1.000000000000000000 ) ) ;
#105 = VERTEX_POINT ( 'NONE', #39 ) ;
#106 = STYLED_ITEM ( 'NONE', ( #80 ), #44 ) ;
#107 = PRODUCT_DEFINITION_FORMATION_WITH_SPECIFIED_SOURCE ( 'ANY', '', #59, .NOT_KNOWN. ) ;
#108 = DIRECTION ( 'NONE',  ( 0.000000000000000000, 0.000000000000000000, -1.000000000000000000 ) ) ;
#109 = VERTEX_POINT ( 'NONE', #1 ) ;
#110 = DIRECTION ( 'NONE',  ( -0.000000000000000000, -0.000000000000000000, -1.000000000000000000 ) ) ;
#111 = VERTEX_POINT ( 'NONE', #510 ) ;
#112 = CARTESIAN_POINT ( 'NONE',  ( 6.967190196429925209, 11.27034874202492531, 23.00000000000000355 ) ) ;
#113 = ORIENTED_EDGE ( 'NONE', *, *, #457, .T. ) ;
#114 = APPLICATION_CONTEXT ( 'automotive_design' ) ;
#115 = MECHANICAL_DESIGN_GEOMETRIC_PRESENTATION_REPRESENTATION (  '', ( #106 ), #489 ) ;
#116 = DIRECTION ( 'NONE',  ( 1.000000000000000000, 0.000000000000000000, 0.000000000000000000 ) ) ;
#117 = EDGE_LOOP ( 'NONE', ( #43, #191 ) ) ;
#118 = CYLINDRICAL_SURFACE ( 'NONE', #469, 1.750000000000078826 ) ;
#119 =( LENGTH_UNIT ( ) NAMED_UNIT ( * ) SI_UNIT ( .MILLI., .METRE. ) );
#120 = CARTESIAN_POINT ( 'NONE',  ( 8.717190196429967841, 11.27034874202492531, 23.00000000000000355 ) ) ;
#121 = DIRECTION ( 'NONE',  ( 0.3144603417101392573, -0.9492706113071985863, 0.000000000000000000 ) ) ;
#122 = VECTOR ( 'NONE', #320, 1000.000000000000000 ) ;
#123 = STYLED_ITEM ( 'NONE', ( #49 ), #67 ) ;
#124 = LINE ( 'NONE', #78, #298 ) ;
#125 = DIRECTION ( 'NONE',  ( 0.000000000000000000, 0.000000000000000000, -1.000000000000000000 ) ) ;
#126 = CARTESIAN_POINT ( 'NONE',  ( 6.513674098182923089, -12.10927535993234372, 23.00000000000000355 ) ) ;
#127 = DIRECTION ( 'NONE',  ( 1.000000000000000000, 0.000000000000000000, 0.000000000000000000 ) ) ;
#128 = DIRECTION ( 'NONE',  ( 0.000000000000000000, 0.000000000000000000, -1.000000000000000000 ) ) ;
#129 = CARTESIAN_POINT ( 'NONE',  ( 6.513674098182923089, -12.10927535993234372, 26.00000000000000355 ) ) ;
#130 = EDGE_CURVE ( 'NONE', #325, #348, #268, .T. ) ;
#131 = AXIS2_PLACEMENT_3D ( 'NONE', #102, #306, #56 ) ;
#132 = CARTESIAN_POINT ( 'NONE',  ( 3.000000000000000444, -3.673940397442060361E-16, 25.00000000000000000 ) ) ;
#133 = VECTOR ( 'NONE', #546, 1000.000000000000000 ) ;
#134 = ORIENTED_EDGE ( 'NONE', *, *, #412, .F. ) ;
#135 = ADVANCED_FACE ( 'NONE', ( #99 ), #181, .T. ) ;
#136 = CARTESIAN_POINT ( 'NONE',  ( 0.000000000000000000, 0.000000000000000000, 0.000000000000000000 ) ) ;
#137 = CARTESIAN_POINT ( 'NONE',  ( 6.967190196429925209, 11.27034874202492531, 26.00000000000000355 ) ) ;
#138 = VERTEX_POINT ( 'NONE', #341 ) ;
#139 = CARTESIAN_POINT ( 'NONE',  ( 0.000000000000000000, 0.000000000000000000, 26.00000000000000355 ) ) ;
#140 = ORIENTED_EDGE ( 'NONE', *, *, #330, .T. ) ;
#141 = ADVANCED_FACE ( 'NONE', ( #266 ), #217, .F. ) ;
#142 = FILL_AREA_STYLE ('',( #215 ) ) ;
#143 = CARTESIAN_POINT ( 'NONE',  ( 4.763674098182844929, -12.10927535993234372, 23.00000000000000355 ) ) ;
#144 = AXIS2_PLACEMENT_3D ( 'NONE', #503, #328, #292 ) ;
#145 = EDGE_LOOP ( 'NONE', ( #197, #303 ) ) ;
#146 = DIRECTION ( 'NONE',  ( 1.000000000000000000, 0.000000000000000000, 0.000000000000000000 ) ) ;
#147 = VERTEX_POINT ( 'NONE', #143 ) ;
#148 = DIRECTION ( 'NONE',  ( -1.000000000000000000, 0.000000000000000000, 0.000000000000000000 ) ) ;
#149 = VERTEX_POINT ( 'NONE', #47 ) ;
#150 = CARTESIAN_POINT ( 'NONE',  ( 0.000000000000000000, 0.000000000000000000, 23.00000000000000355 ) ) ;
#151 = ORIENTED_EDGE ( 'NONE', *, *, #202, .T. ) ;
#152 = CARTESIAN_POINT ( 'NONE',  ( -6.276813221885292116, 11.66893807411609707, 26.00000000000000355 ) ) ;
#153 = ORIENTED_EDGE ( 'NONE', *, *, #398, .F. ) ;
#154 = CARTESIAN_POINT ( 'NONE',  ( -6.276813221885292116, 11.66893807411609707, 39.71781649631013522 ) ) ;
#155 = CARTESIAN_POINT ( 'NONE',  ( -7.230103034029033537, -11.69564492096658093, 39.71781649631013522 ) ) ;
#156 = ORIENTED_EDGE ( 'NONE', *, *, #275, .T. ) ;
#157 = AXIS2_PLACEMENT_3D ( 'NONE', #126, #424, #374 ) ;
#158 = DIRECTION ( 'NONE',  ( 0.000000000000000000, 0.000000000000000000, -1.000000000000000000 ) ) ;
#159 = CARTESIAN_POINT ( 'NONE',  ( 15.67813519400784017, 12.41757129387275427, 39.71781649631013522 ) ) ;
#160 = DIRECTION ( 'NONE',  ( 0.000000000000000000, 0.000000000000000000, -1.000000000000000000 ) ) ;
#161 =( NAMED_UNIT ( * ) PLANE_ANGLE_UNIT ( ) SI_UNIT ( $, .RADIAN. ) );
#162 = CARTESIAN_POINT ( 'NONE',  ( -8.980103034029104592, -11.69564492096658093, 23.00000000000000355 ) ) ;
#163 = AXIS2_PLACEMENT_3D ( 'NONE', #249, #339, #423 ) ;
#164 = VECTOR ( 'NONE', #233, 1000.000000000000000 ) ;
#165 = DIRECTION ( 'NONE',  ( 1.000000000000000000, 0.000000000000000000, 0.000000000000000000 ) ) ;
#166 = CIRCLE ( 'NONE', #534, 1.750000000000078826 ) ;
#167 = CARTESIAN_POINT ( 'NONE',  ( 0.000000000000000000, 0.000000000000000000, 25.00000000000000000 ) ) ;
#168 = CARTESIAN_POINT ( 'NONE',  ( 19.99094855594718467, -0.6016442748611062763, 26.00000000000000355 ) ) ;
#169 = CARTESIAN_POINT ( 'NONE',  ( -8.980103034029104592, -11.69564492096658093, 39.71781649631013522 ) ) ;
#170 = EDGE_CURVE ( 'NONE', #361, #240, #507, .T. ) ;
#171 = CYLINDRICAL_SURFACE ( 'NONE', #442, 3.000000000000000444 ) ;
#172 = COLOUR_RGB ( '',0.000000000000000000, 0.000000000000000000, 1.000000000000000000 ) ;
#173 = FACE_BOUND ( 'NONE', #145, .T. ) ;
#174 = VERTEX_POINT ( 'NONE', #224 ) ;
#175 = APPLICATION_PROTOCOL_DEFINITION ( 'draft international standard', 'automotive_design', 1998, #114 ) ;
#176 = DIRECTION ( 'NONE',  ( -0.000000000000000000, -0.000000000000000000, 1.000000000000000000 ) ) ;
#177 = PRODUCT_DEFINITION_SHAPE ( 'NONE', 'NONE',  #13 ) ;
#178 = EDGE_LOOP ( 'NONE', ( #267, #134 ) ) ;
#179 = EDGE_CURVE ( 'NONE', #485, #325, #213, .T. ) ;
#180 = SURFACE_STYLE_USAGE ( .BOTH. , #265 ) ;
#181 = PLANE ( 'NONE',  #288 ) ;
#182 = ORIENTED_EDGE ( 'NONE', *, *, #488, .T. ) ;
#183 = DIRECTION ( 'NONE',  ( 1.000000000000000000, 0.000000000000000000, 0.000000000000000000 ) ) ;
#184 = AXIS2_PLACEMENT_3D ( 'NONE', #438, #514, #146 ) ;
#185 = ORIENTED_EDGE ( 'NONE', *, *, #30, .T. ) ;
#186 = DIRECTION ( 'NONE',  ( 1.000000000000000000, 0.000000000000000000, 0.000000000000000000 ) ) ;
#187 = FACE_OUTER_BOUND ( 'NONE', #386, .T. ) ;
#188 = EDGE_LOOP ( 'NONE', ( #411, #414, #15, #73 ) ) ;
#189 = ADVANCED_FACE ( 'NONE', ( #7, #6, #173, #311, #517 ), #347, .T. ) ;
#190 = DIRECTION ( 'NONE',  ( -0.000000000000000000, -0.000000000000000000, -1.000000000000000000 ) ) ;
#191 = ORIENTED_EDGE ( 'NONE', *, *, #351, .T. ) ;
#192 = AXIS2_PLACEMENT_3D ( 'NONE', #150, #444, #533 ) ;
#193 = DIRECTION ( 'NONE',  ( 0.000000000000000000, 0.000000000000000000, -1.000000000000000000 ) ) ;
#194 = EDGE_LOOP ( 'NONE', ( #77, #441, #529, #319 ) ) ;
#195 = ADVANCED_FACE ( 'NONE', ( #344 ), #171, .F. ) ;
#196 = DIRECTION ( 'NONE',  ( 1.000000000000000000, 0.000000000000000000, 0.000000000000000000 ) ) ;
#197 = ORIENTED_EDGE ( 'NONE', *, *, #205, .T. ) ;
#198 = CYLINDRICAL_SURFACE ( 'NONE', #418, 20.00000000000000000 ) ;
#199 = VERTEX_POINT ( 'NONE', #434 ) ;
#200 = CIRCLE ( 'NONE', #364, 20.00000000000000000 ) ;
#201 = LINE ( 'NONE', #248, #354 ) ;
#202 = EDGE_CURVE ( 'NONE', #454, #111, #259, .T. ) ;
#203 = ORIENTED_EDGE ( 'NONE', *, *, #100, .T. ) ;
#204 = DIRECTION ( 'NONE',  ( 1.000000000000000000, 0.000000000000000000, 0.000000000000000000 ) ) ;
#205 = EDGE_CURVE ( 'NONE', #12, #394, #216, .T. ) ;
#206 = CARTESIAN_POINT ( 'NONE',  ( 8.717190196429967841, 11.27034874202492531, 39.71781649631013522 ) ) ;
#207 = DIRECTION ( 'NONE',  ( -0.000000000000000000, -0.000000000000000000, -1.000000000000000000 ) ) ;
#208 = AXIS2_PLACEMENT_3D ( 'NONE', #453, #365, #495 ) ;
#209 = AXIS2_PLACEMENT_3D ( 'NONE', #241, #506, #286 ) ;
#210 = DIRECTION ( 'NONE',  ( 0.000000000000000000, 0.000000000000000000, -1.000000000000000000 ) ) ;
#211 = DIRECTION ( 'NONE',  ( 1.000000000000000000, 0.000000000000000000, 0.000000000000000000 ) ) ;
#212 = DIRECTION ( 'NONE',  ( 0.000000000000000000, 0.000000000000000000, 1.000000000000000000 ) ) ;
#213 = LINE ( 'NONE', #430, #378 ) ;
#214 = VERTEX_POINT ( 'NONE', #132 ) ;
#215 = FILL_AREA_STYLE_COLOUR ( '', #218 ) ;
#216 = CIRCLE ( 'NONE', #184, 1.750000000000034417 ) ;
#217 = CYLINDRICAL_SURFACE ( 'NONE', #61, 1.750000000000078826 ) ;
#218 = COLOUR_RGB ( '',0.000000000000000000, 0.000000000000000000, 1.000000000000000000 ) ;
#219 = AXIS2_PLACEMENT_3D ( 'NONE', #159, #427, #121 ) ;
#220 = ORIENTED_EDGE ( 'NONE', *, *, #8, .F. ) ;
#221 = SURFACE_STYLE_FILL_AREA ( #142 ) ;
#222 = CARTESIAN_POINT ( 'NONE',  ( 15.67813519400784017, 12.41757129387275427, 39.71781649631013522 ) ) ;
#223 = VERTEX_POINT ( 'NONE', #519 ) ;
#224 = CARTESIAN_POINT ( 'NONE',  ( -3.000000000000000444, 0.000000000000000000, 25.00000000000000000 ) ) ;
#225 = ORIENTED_EDGE ( 'NONE', *, *, #40, .F. ) ;
#226 = CARTESIAN_POINT ( 'NONE',  ( 3.000000000000000444, -3.673940397442060361E-16, 25.00000000000000000 ) ) ;
#227 = AXIS2_PLACEMENT_3D ( 'NONE', #167, #334, #513 ) ;
#228 = ORIENTED_EDGE ( 'NONE', *, *, #360, .T. ) ;
#229 = DIRECTION ( 'NONE',  ( -1.000000000000000000, 0.000000000000000000, 0.000000000000000000 ) ) ;
#230 = ORIENTED_EDGE ( 'NONE', *, *, #542, .F. ) ;
#231 = DIRECTION ( 'NONE',  ( -0.000000000000000000, -0.000000000000000000, 1.000000000000000000 ) ) ;
#232 = EDGE_LOOP ( 'NONE', ( #182, #400, #103 ) ) ;
#233 = DIRECTION ( 'NONE',  ( -0.000000000000000000, -0.000000000000000000, 1.000000000000000000 ) ) ;
#234 = EDGE_CURVE ( 'NONE', #518, #394, #440, .T. ) ;
#235 = ORIENTED_EDGE ( 'NONE', *, *, #179, .T. ) ;
#236 = AXIS2_PLACEMENT_3D ( 'NONE', #152, #108, #196 ) ;
#237 = FACE_BOUND ( 'NONE', #482, .T. ) ;
#238 = ORIENTED_EDGE ( 'NONE', *, *, #360, .F. ) ;
#239 = DIRECTION ( 'NONE',  ( 1.000000000000000000, 0.000000000000000000, 0.000000000000000000 ) ) ;
#240 = VERTEX_POINT ( 'NONE', #521 ) ;
#241 = CARTESIAN_POINT ( 'NONE',  ( 0.000000000000000000, 0.000000000000000000, 23.00000000000000355 ) ) ;
#242 = CARTESIAN_POINT ( 'NONE',  ( 6.967190196429925209, 11.27034874202492531, 23.00000000000000355 ) ) ;
#243 = AXIS2_PLACEMENT_3D ( 'NONE', #242, #421, #127 ) ;
#244 = VECTOR ( 'NONE', #210, 1000.000000000000000 ) ;
#245 = DIRECTION ( 'NONE',  ( -0.000000000000000000, -0.000000000000000000, 1.000000000000000000 ) ) ;
#246 = EDGE_CURVE ( 'NONE', #485, #199, #393, .T. ) ;
#247 = DIRECTION ( 'NONE',  ( 1.000000000000000000, 0.000000000000000000, 0.000000000000000000 ) ) ;
#248 = CARTESIAN_POINT ( 'NONE',  ( -4.526813221885257477, 11.66893807411609707, 39.71781649631013522 ) ) ;
#249 = CARTESIAN_POINT ( 'NONE',  ( 0.000000000000000000, 0.000000000000000000, 26.00000000000000355 ) ) ;
#250 = DIRECTION ( 'NONE',  ( -0.000000000000000000, -0.000000000000000000, 1.000000000000000000 ) ) ;
#251 = DIRECTION ( 'NONE',  ( 0.000000000000000000, 0.000000000000000000, -1.000000000000000000 ) ) ;
#252 = EDGE_CURVE ( 'NONE', #531, #149, #335, .T. ) ;
#253 = AXIS2_PLACEMENT_3D ( 'NONE', #154, #273, #70 ) ;
#254 = MECHANICAL_DESIGN_GEOMETRIC_PRESENTATION_REPRESENTATION (  '', ( #123 ), #343 ) ;
#255 = SURFACE_STYLE_FILL_AREA ( #377 ) ;
#256 =( NAMED_UNIT ( * ) SI_UNIT ( $, .STERADIAN. ) SOLID_ANGLE_UNIT ( ) );
#257 = DIRECTION ( 'NONE',  ( 0.000000000000000000, 0.000000000000000000, -1.000000000000000000 ) ) ;
#258 = ORIENTED_EDGE ( 'NONE', *, *, #484, .T. ) ;
#259 = LINE ( 'NONE', #525, #532 ) ;
#260 = ORIENTED_EDGE ( 'NONE', *, *, #330, .F. ) ;
#261 = AXIS2_PLACEMENT_3D ( 'NONE', #381, #373, #504 ) ;
#262 = EDGE_CURVE ( 'NONE', #111, #485, #200, .T. ) ;
#263 = DIRECTION ( 'NONE',  ( 1.000000000000000000, 0.000000000000000000, 0.000000000000000000 ) ) ;
#264 = EDGE_LOOP ( 'NONE', ( #55, #540, #279, #431 ) ) ;
#265 = SURFACE_SIDE_STYLE ('',( #221 ) ) ;
#266 = FACE_OUTER_BOUND ( 'NONE', #321, .T. ) ;
#267 = ORIENTED_EDGE ( 'NONE', *, *, #375, .F. ) ;
#268 = LINE ( 'NONE', #222, #96 ) ;
#269 = ORIENTED_EDGE ( 'NONE', *, *, #252, .F. ) ;
#270 = DIRECTION ( 'NONE',  ( 1.000000000000000000, 0.000000000000000000, 0.000000000000000000 ) ) ;
#271 = CIRCLE ( 'NONE', #515, 1.750000000000078826 ) ;
#272 = EDGE_LOOP ( 'NONE', ( #277, #151, #93, #9 ) ) ;
#273 = DIRECTION ( 'NONE',  ( 0.000000000000000000, 0.000000000000000000, -1.000000000000000000 ) ) ;
#274 = ORIENTED_EDGE ( 'NONE', *, *, #542, .T. ) ;
#275 = EDGE_CURVE ( 'NONE', #223, #147, #362, .T. ) ;
#276 = FACE_OUTER_BOUND ( 'NONE', #439, .T. ) ;
#277 = ORIENTED_EDGE ( 'NONE', *, *, #293, .T. ) ;
#278 = CARTESIAN_POINT ( 'NONE',  ( 8.263674098183001249, -12.10927535993234372, 26.00000000000000355 ) ) ;
#279 = ORIENTED_EDGE ( 'NONE', *, *, #488, .F. ) ;
#280 = AXIS2_PLACEMENT_3D ( 'NONE', #450, #193, #186 ) ;
#281 = CARTESIAN_POINT ( 'NONE',  ( -3.000000000000000444, 0.000000000000000000, 26.00000000000000355 ) ) ;
#282 = ORIENTED_EDGE ( 'NONE', *, *, #351, .F. ) ;
#283 = UNCERTAINTY_MEASURE_WITH_UNIT (LENGTH_MEASURE( 1.000000000000000082E-05 ), #305, 'distance_accuracy_value', 'NONE');
#284 = DIRECTION ( 'NONE',  ( 0.000000000000000000, 0.000000000000000000, -1.000000000000000000 ) ) ;
#285 = EDGE_CURVE ( 'NONE', #350, #223, #58, .T. ) ;
#286 = DIRECTION ( 'NONE',  ( 1.000000000000000000, 0.000000000000000000, 0.000000000000000000 ) ) ;
#287 =( NAMED_UNIT ( * ) SI_UNIT ( $, .STERADIAN. ) SOLID_ANGLE_UNIT ( ) );
#288 = AXIS2_PLACEMENT_3D ( 'NONE', #391, #428, #473 ) ;
#289 = AXIS2_PLACEMENT_3D ( 'NONE', #399, #357, #530 ) ;
#290 = DIRECTION ( 'NONE',  ( 0.000000000000000000, 0.000000000000000000, -1.000000000000000000 ) ) ;
#291 = ORIENTED_EDGE ( 'NONE', *, *, #385, .F. ) ;
#292 = DIRECTION ( 'NONE',  ( -1.000000000000000000, 0.000000000000000000, 0.000000000000000000 ) ) ;
#293 = EDGE_CURVE ( 'NONE', #348, #454, #478, .T. ) ;
#294 = ORIENTED_EDGE ( 'NONE', *, *, #412, .T. ) ;
#295 = CARTESIAN_POINT ( 'NONE',  ( 0.000000000000000000, 0.000000000000000000, 25.00000000000000000 ) ) ;
#296 = CARTESIAN_POINT ( 'NONE',  ( -4.526813221885257477, 11.66893807411609707, 23.00000000000000355 ) ) ;
#297 = PRESENTATION_LAYER_ASSIGNMENT (  '', '', ( #106 ) ) ;
#298 = VECTOR ( 'NONE', #38, 1000.000000000000114 ) ;
#299 = DIRECTION ( 'NONE',  ( 1.000000000000000000, 0.000000000000000000, 0.000000000000000000 ) ) ;
#300 = VERTEX_POINT ( 'NONE', #406 ) ;
#301 = ADVANCED_FACE ( 'NONE', ( #363 ), #316, .F. ) ;
#302 = DIRECTION ( 'NONE',  ( -0.000000000000000000, -0.000000000000000000, 1.000000000000000000 ) ) ;
#303 = ORIENTED_EDGE ( 'NONE', *, *, #398, .T. ) ;
#304 = ADVANCED_FACE ( 'NONE', ( #63, #539, #62, #237, #491, #446 ), #324, .F. ) ;
#305 =( LENGTH_UNIT ( ) NAMED_UNIT ( * ) SI_UNIT ( .MILLI., .METRE. ) );
#306 = DIRECTION ( 'NONE',  ( 0.000000000000000000, 0.000000000000000000, -1.000000000000000000 ) ) ;
#307 = ORIENTED_EDGE ( 'NONE', *, *, #262, .F. ) ;
#308 = AXIS2_PLACEMENT_3D ( 'NONE', #54, #483, #299 ) ;
#309 = APPLICATION_PROTOCOL_DEFINITION ( 'draft international standard', 'automotive_design', 1998, #437 ) ;
#310 = AXIS2_PLACEMENT_3D ( 'NONE', #331, #158, #165 ) ;
#311 = FACE_BOUND ( 'NONE', #48, .T. ) ;
#312 = ORIENTED_EDGE ( 'NONE', *, *, #82, .F. ) ;
#313 = DIRECTION ( 'NONE',  ( 1.000000000000000000, 0.000000000000000000, 0.000000000000000000 ) ) ;
#314 = ORIENTED_EDGE ( 'NONE', *, *, #205, .F. ) ;
#315 = CYLINDRICAL_SURFACE ( 'NONE', #497, 1.750000000000034417 ) ;
#316 = CYLINDRICAL_SURFACE ( 'NONE', #253, 1.750000000000034417 ) ;
#317 = VECTOR ( 'NONE', #251, 1000.000000000000000 ) ;
#318 = CIRCLE ( 'NONE', #45, 3.000000000000000444 ) ;
#319 = ORIENTED_EDGE ( 'NONE', *, *, #285, .F. ) ;
#320 = DIRECTION ( 'NONE',  ( 0.000000000000000000, 0.000000000000000000, -1.000000000000000000 ) ) ;
#321 = EDGE_LOOP ( 'NONE', ( #29, #220, #390, #477 ) ) ;
#322 = CARTESIAN_POINT ( 'NONE',  ( -6.276813221885292116, 11.66893807411609707, 39.71781649631013522 ) ) ;
#323 = ORIENTED_EDGE ( 'NONE', *, *, #170, .F. ) ;
#324 = PLANE ( 'NONE',  #68 ) ;
#325 = VERTEX_POINT ( 'NONE', #486 ) ;
#326 = AXIS2_PLACEMENT_3D ( 'NONE', #27, #190, #229 ) ;
#327 = AXIS2_PLACEMENT_3D ( 'NONE', #112, #231, #368 ) ;
#328 = DIRECTION ( 'NONE',  ( -0.000000000000000000, -0.000000000000000000, 1.000000000000000000 ) ) ;
#329 = CYLINDRICAL_SURFACE ( 'NONE', #227, 3.000000000000000444 ) ;
#330 = EDGE_CURVE ( 'NONE', #138, #518, #405, .T. ) ;
#331 = CARTESIAN_POINT ( 'NONE',  ( 6.967190196429925209, 11.27034874202492531, 39.71781649631013522 ) ) ;
#332 = PLANE ( 'NONE',  #219 ) ;
#333 = FACE_OUTER_BOUND ( 'NONE', #272, .T. ) ;
#334 = DIRECTION ( 'NONE',  ( -0.000000000000000000, -0.000000000000000000, 1.000000000000000000 ) ) ;
#335 = CIRCLE ( 'NONE', #51, 1.750000000000042411 ) ;
#336 = AXIS2_PLACEMENT_3D ( 'NONE', #527, #104, #270 ) ;
#337 = ADVANCED_FACE ( 'NONE', ( #276 ), #315, .F. ) ;
#338 = CYLINDRICAL_SURFACE ( 'NONE', #310, 1.750000000000042411 ) ;
#339 = DIRECTION ( 'NONE',  ( -0.000000000000000000, -0.000000000000000000, 1.000000000000000000 ) ) ;
#340 = CYLINDRICAL_SURFACE ( 'NONE', #433, 1.750000000000070166 ) ;
#341 = CARTESIAN_POINT ( 'NONE',  ( -4.526813221885257477, 11.66893807411609707, 26.00000000000000355 ) ) ;
#342 = VECTOR ( 'NONE', #349, 1000.000000000000000 ) ;
#343 =( GEOMETRIC_REPRESENTATION_CONTEXT ( 3 ) GLOBAL_UNCERTAINTY_ASSIGNED_CONTEXT ( ( #538 ) ) GLOBAL_UNIT_ASSIGNED_CONTEXT ( ( #98, #16, #353 ) ) REPRESENTATION_CONTEXT ( 'NONE', 'WORKASPACE' ) );
#344 = FACE_OUTER_BOUND ( 'NONE', #57, .T. ) ;
#345 = EDGE_CURVE ( 'NONE', #371, #26, #449, .T. ) ;
#346 = EDGE_LOOP ( 'NONE', ( #90, #258, #18, #307 ) ) ;
#347 = PLANE ( 'NONE',  #387 ) ;
#348 = VERTEX_POINT ( 'NONE', #448 ) ;
#349 = DIRECTION ( 'NONE',  ( 0.000000000000000000, 0.000000000000000000, -1.000000000000000000 ) ) ;
#350 = VERTEX_POINT ( 'NONE', #278 ) ;
#351 = EDGE_CURVE ( 'NONE', #26, #371, #19, .T. ) ;
#352 = CIRCLE ( 'NONE', #163, 20.00000000000000000 ) ;
#353 =( NAMED_UNIT ( * ) SI_UNIT ( $, .STERADIAN. ) SOLID_ANGLE_UNIT ( ) );
#354 = VECTOR ( 'NONE', #284, 1000.000000000000000 ) ;
#355 = DIRECTION ( 'NONE',  ( -1.000000000000000000, 0.000000000000000000, 0.000000000000000000 ) ) ;
#356 = ORIENTED_EDGE ( 'NONE', *, *, #420, .F. ) ;
#357 = DIRECTION ( 'NONE',  ( -0.000000000000000000, -0.000000000000000000, 1.000000000000000000 ) ) ;
#358 = EDGE_LOOP ( 'NONE', ( #392, #228 ) ) ;
#359 = CARTESIAN_POINT ( 'NONE',  ( 0.000000000000000000, 0.000000000000000000, 25.00000000000000000 ) ) ;
#360 = EDGE_CURVE ( 'NONE', #105, #429, #523, .T. ) ;
#361 = VERTEX_POINT ( 'NONE', #493 ) ;
#362 = CIRCLE ( 'NONE', #308, 1.750000000000078826 ) ;
#363 = FACE_OUTER_BOUND ( 'NONE', #87, .T. ) ;
#364 = AXIS2_PLACEMENT_3D ( 'NONE', #139, #476, #263 ) ;
#365 = DIRECTION ( 'NONE',  ( -0.000000000000000000, -0.000000000000000000, -1.000000000000000000 ) ) ;
#366 = EDGE_LOOP ( 'NONE', ( #291, #474, #97, #230 ) ) ;
#367 = ADVANCED_FACE ( 'NONE', ( #24 ), #498, .F. ) ;
#368 = DIRECTION ( 'NONE',  ( 1.000000000000000000, 0.000000000000000000, 0.000000000000000000 ) ) ;
#369 = ORIENTED_EDGE ( 'NONE', *, *, #25, .F. ) ;
#370 = LINE ( 'NONE', #422, #133 ) ;
#371 = VERTEX_POINT ( 'NONE', #281 ) ;
#372 = CARTESIAN_POINT ( 'NONE',  ( 8.717190196429967841, 11.27034874202492531, 26.00000000000000355 ) ) ;
#373 = DIRECTION ( 'NONE',  ( 0.000000000000000000, 0.000000000000000000, -1.000000000000000000 ) ) ;
#374 = DIRECTION ( 'NONE',  ( 1.000000000000000000, 0.000000000000000000, 0.000000000000000000 ) ) ;
#375 = EDGE_CURVE ( 'NONE', #174, #214, #318, .T. ) ;
#376 = DIRECTION ( 'NONE',  ( 1.000000000000000000, 0.000000000000000000, 0.000000000000000000 ) ) ;
#377 = FILL_AREA_STYLE ('',( #46 ) ) ;
#378 = VECTOR ( 'NONE', #471, 1000.000000000000000 ) ;
#379 = CIRCLE ( 'NONE', #289, 1.750000000000034417 ) ;
#380 = CARTESIAN_POINT ( 'NONE',  ( -20.00000000000000000, 0.000000000000000000, 23.00000000000000355 ) ) ;
#381 = CARTESIAN_POINT ( 'NONE',  ( -6.276813221885292116, 11.66893807411609707, 26.00000000000000355 ) ) ;
#382 = CARTESIAN_POINT ( 'NONE',  ( 8.263674098183001249, -12.10927535993234372, 39.71781649631013522 ) ) ;
#383 = EDGE_CURVE ( 'NONE', #214, #26, #65, .T. ) ;
#384 = DIRECTION ( 'NONE',  ( 0.000000000000000000, 0.000000000000000000, -1.000000000000000000 ) ) ;
#385 = EDGE_CURVE ( 'NONE', #240, #361, #516, .T. ) ;
#386 = EDGE_LOOP ( 'NONE', ( #356, #269, #32, #238 ) ) ;
#387 = AXIS2_PLACEMENT_3D ( 'NONE', #92, #384, #481 ) ;
#388 = AXIS2_PLACEMENT_3D ( 'NONE', #295, #207, #548 ) ;
#389 = CARTESIAN_POINT ( 'NONE',  ( 6.513674098182923089, -12.10927535993234372, 39.71781649631013522 ) ) ;
#390 = ORIENTED_EDGE ( 'NONE', *, *, #285, .T. ) ;
#391 = CARTESIAN_POINT ( 'NONE',  ( 0.000000000000000000, 0.000000000000000000, 25.00000000000000000 ) ) ;
#392 = ORIENTED_EDGE ( 'NONE', *, *, #82, .T. ) ;
#393 = LINE ( 'NONE', #95, #432 ) ;
#394 = VERTEX_POINT ( 'NONE', #536 ) ;
#395 = AXIS2_PLACEMENT_3D ( 'NONE', #83, #250, #204 ) ;
#396 = DIRECTION ( 'NONE',  ( 0.000000000000000000, 0.000000000000000000, -1.000000000000000000 ) ) ;
#397 = EDGE_LOOP ( 'NONE', ( #203, #21, #235 ) ) ;
#398 = EDGE_CURVE ( 'NONE', #394, #12, #379, .T. ) ;
#399 = CARTESIAN_POINT ( 'NONE',  ( -6.276813221885292116, 11.66893807411609707, 23.00000000000000355 ) ) ;
#400 = ORIENTED_EDGE ( 'NONE', *, *, #484, .F. ) ;
#401 = DIRECTION ( 'NONE',  ( 1.000000000000000000, 0.000000000000000000, 0.000000000000000000 ) ) ;
#402 = EDGE_CURVE ( 'NONE', #149, #531, #461, .T. ) ;
#403 = ORIENTED_EDGE ( 'NONE', *, *, #426, .T. ) ;
#404 = ADVANCED_FACE ( 'NONE', ( #187 ), #338, .F. ) ;
#405 = CIRCLE ( 'NONE', #236, 1.750000000000034417 ) ;
#406 = CARTESIAN_POINT ( 'NONE',  ( 4.763674098182844929, -12.10927535993234372, 26.00000000000000355 ) ) ;
#407 = VECTOR ( 'NONE', #470, 1000.000000000000000 ) ;
#408 = ORIENTED_EDGE ( 'NONE', *, *, #88, .F. ) ;
#409 = CLOSED_SHELL ( 'NONE', ( #33, #505, #337, #367, #512, #466, #528, #189, #304, #141, #502, #301, #404, #3, #195, #135 ) ) ;
#410 = DIRECTION ( 'NONE',  ( 1.000000000000000000, 0.000000000000000000, 0.000000000000000000 ) ) ;
#411 = ORIENTED_EDGE ( 'NONE', *, *, #375, .T. ) ;
#412 = EDGE_CURVE ( 'NONE', #214, #174, #490, .T. ) ;
#413 = FACE_OUTER_BOUND ( 'NONE', #194, .T. ) ;
#414 = ORIENTED_EDGE ( 'NONE', *, *, #383, .T. ) ;
#415 = UNCERTAINTY_MEASURE_WITH_UNIT (LENGTH_MEASURE( 1.000000000000000082E-05 ), #119, 'distance_accuracy_value', 'NONE');
#416 = CARTESIAN_POINT ( 'NONE',  ( -8.026813221885326755, 11.66893807411609707, 26.00000000000000355 ) ) ;
#417 = SURFACE_SIDE_STYLE ('',( #255 ) ) ;
#418 = AXIS2_PLACEMENT_3D ( 'NONE', #455, #245, #34 ) ;
#419 = FACE_OUTER_BOUND ( 'NONE', #346, .T. ) ;
#420 = EDGE_CURVE ( 'NONE', #149, #105, #370, .T. ) ;
#421 = DIRECTION ( 'NONE',  ( -0.000000000000000000, -0.000000000000000000, 1.000000000000000000 ) ) ;
#422 = CARTESIAN_POINT ( 'NONE',  ( 5.217190196429882576, 11.27034874202492531, 39.71781649631013522 ) ) ;
#423 = DIRECTION ( 'NONE',  ( 1.000000000000000000, 0.000000000000000000, 0.000000000000000000 ) ) ;
#424 = DIRECTION ( 'NONE',  ( -0.000000000000000000, -0.000000000000000000, 1.000000000000000000 ) ) ;
#425 = PRESENTATION_LAYER_ASSIGNMENT (  '', '', ( #123 ) ) ;
#426 = EDGE_CURVE ( 'NONE', #109, #452, #451, .T. ) ;
#427 = DIRECTION ( 'NONE',  ( -0.9492706113071985863, -0.3144603417101392573, 0.000000000000000000 ) ) ;
#428 = DIRECTION ( 'NONE',  ( 0.000000000000000000, 0.000000000000000000, 1.000000000000000000 ) ) ;
#429 = VERTEX_POINT ( 'NONE', #120 ) ;
#430 = CARTESIAN_POINT ( 'NONE',  ( 15.67813519400784017, 12.41757129387275427, 26.00000000000000355 ) ) ;
#431 = ORIENTED_EDGE ( 'NONE', *, *, #130, .F. ) ;
#432 = VECTOR ( 'NONE', #17, 1000.000000000000000 ) ;
#433 = AXIS2_PLACEMENT_3D ( 'NONE', #462, #128, #376 ) ;
#434 = CARTESIAN_POINT ( 'NONE',  ( 19.99094855594721665, -0.6016442748612035318, 23.00000000000000355 ) ) ;
#435 = EDGE_CURVE ( 'NONE', #300, #147, #511, .T. ) ;
#436 = ORIENTED_EDGE ( 'NONE', *, *, #402, .F. ) ;
#437 = APPLICATION_CONTEXT ( 'automotive_design' ) ;
#438 = CARTESIAN_POINT ( 'NONE',  ( -6.276813221885292116, 11.66893807411609707, 23.00000000000000355 ) ) ;
#439 = EDGE_LOOP ( 'NONE', ( #369, #66, #314, #496 ) ) ;
#440 = LINE ( 'NONE', #89, #342 ) ;
#441 = ORIENTED_EDGE ( 'NONE', *, *, #435, .T. ) ;
#442 = AXIS2_PLACEMENT_3D ( 'NONE', #14, #176, #355 ) ;
#443 = CIRCLE ( 'NONE', #209, 20.00000000000000000 ) ;
#444 = DIRECTION ( 'NONE',  ( -0.000000000000000000, -0.000000000000000000, 1.000000000000000000 ) ) ;
#445 = ORIENTED_EDGE ( 'NONE', *, *, #524, .T. ) ;
#446 = FACE_OUTER_BOUND ( 'NONE', #397, .T. ) ;
#447 = ORIENTED_EDGE ( 'NONE', *, *, #385, .T. ) ;
#448 = CARTESIAN_POINT ( 'NONE',  ( 15.67813519400784017, 12.41757129387275427, 23.00000000000000355 ) ) ;
#449 = CIRCLE ( 'NONE', #208, 3.000000000000000444 ) ;
#450 = CARTESIAN_POINT ( 'NONE',  ( -7.230103034029033537, -11.69564492096658093, 26.00000000000000355 ) ) ;
#451 = CIRCLE ( 'NONE', #395, 1.750000000000070166 ) ;
#452 = VERTEX_POINT ( 'NONE', #162 ) ;
#453 = CARTESIAN_POINT ( 'NONE',  ( 0.000000000000000000, 0.000000000000000000, 26.00000000000000355 ) ) ;
#454 = VERTEX_POINT ( 'NONE', #380 ) ;
#455 = CARTESIAN_POINT ( 'NONE',  ( 0.000000000000000000, 0.000000000000000000, 23.00000000000000355 ) ) ;
#456 = CARTESIAN_POINT ( 'NONE',  ( 6.513674098182923089, -12.10927535993234372, 26.00000000000000355 ) ) ;
#457 = EDGE_CURVE ( 'NONE', #147, #223, #499, .T. ) ;
#458 = LINE ( 'NONE', #4, #10 ) ;
#459 = CARTESIAN_POINT ( 'NONE',  ( 3.000000000000000444, -3.673940397442060361E-16, 26.00000000000000355 ) ) ;
#460 = CIRCLE ( 'NONE', #549, 1.750000000000070166 ) ;
#461 = CIRCLE ( 'NONE', #336, 1.750000000000042411 ) ;
#462 = CARTESIAN_POINT ( 'NONE',  ( -7.230103034029033537, -11.69564492096658093, 39.71781649631013522 ) ) ;
#463 = LINE ( 'NONE', #169, #317 ) ;
#464 = FACE_OUTER_BOUND ( 'NONE', #60, .T. ) ;
#465 = DIRECTION ( 'NONE',  ( 0.000000000000000000, 0.000000000000000000, -1.000000000000000000 ) ) ;
#466 = ADVANCED_FACE ( 'NONE', ( #333 ), #509, .T. ) ;
#467 = DIRECTION ( 'NONE',  ( 1.000000000000000000, 0.000000000000000000, 0.000000000000000000 ) ) ;
#468 = CIRCLE ( 'NONE', #261, 1.750000000000034417 ) ;
#469 = AXIS2_PLACEMENT_3D ( 'NONE', #31, #160, #81 ) ;
#470 = DIRECTION ( 'NONE',  ( 0.000000000000000000, 0.000000000000000000, -1.000000000000000000 ) ) ;
#471 = DIRECTION ( 'NONE',  ( -0.3144603417101392573, 0.9492706113071985863, 0.000000000000000000 ) ) ;
#472 = ORIENTED_EDGE ( 'NONE', *, *, #234, .F. ) ;
#473 = DIRECTION ( 'NONE',  ( -1.000000000000000000, 0.000000000000000000, 0.000000000000000000 ) ) ;
#474 = ORIENTED_EDGE ( 'NONE', *, *, #40, .T. ) ;
#475 = EDGE_CURVE ( 'NONE', #174, #371, #458, .T. ) ;
#476 = DIRECTION ( 'NONE',  ( -0.000000000000000000, -0.000000000000000000, 1.000000000000000000 ) ) ;
#477 = ORIENTED_EDGE ( 'NONE', *, *, #457, .F. ) ;
#478 = CIRCLE ( 'NONE', #192, 20.00000000000000000 ) ;
#479 =( GEOMETRIC_REPRESENTATION_CONTEXT ( 3 ) GLOBAL_UNCERTAINTY_ASSIGNED_CONTEXT ( ( #283 ) ) GLOBAL_UNIT_ASSIGNED_CONTEXT ( ( #305, #94, #256 ) ) REPRESENTATION_CONTEXT ( 'NONE', 'WORKASPACE' ) );
#480 = SHAPE_DEFINITION_REPRESENTATION ( #177, #67 ) ;
#481 = DIRECTION ( 'NONE',  ( 1.000000000000000000, 0.000000000000000000, 0.000000000000000000 ) ) ;
#482 = EDGE_LOOP ( 'NONE', ( #520, #447 ) ) ;
#483 = DIRECTION ( 'NONE',  ( -0.000000000000000000, -0.000000000000000000, 1.000000000000000000 ) ) ;
#484 = EDGE_CURVE ( 'NONE', #454, #199, #443, .T. ) ;
#485 = VERTEX_POINT ( 'NONE', #168 ) ;
#486 = CARTESIAN_POINT ( 'NONE',  ( 15.67813519400784017, 12.41757129387275427, 26.00000000000000355 ) ) ;
#487 = EDGE_LOOP ( 'NONE', ( #156, #113 ) ) ;
#488 = EDGE_CURVE ( 'NONE', #348, #199, #124, .T. ) ;
#489 =( GEOMETRIC_REPRESENTATION_CONTEXT ( 3 ) GLOBAL_UNCERTAINTY_ASSIGNED_CONTEXT ( ( #415 ) ) GLOBAL_UNIT_ASSIGNED_CONTEXT ( ( #119, #161, #287 ) ) REPRESENTATION_CONTEXT ( 'NONE', 'WORKASPACE' ) );
#490 = CIRCLE ( 'NONE', #388, 3.000000000000000444 ) ;
#491 = FACE_BOUND ( 'NONE', #508, .T. ) ;
#492 = ORIENTED_EDGE ( 'NONE', *, *, #30, .F. ) ;
#493 = CARTESIAN_POINT ( 'NONE',  ( -5.480103034028963371, -11.69564492096658093, 26.00000000000000355 ) ) ;
#494 = ORIENTED_EDGE ( 'NONE', *, *, #75, .T. ) ;
#495 = DIRECTION ( 'NONE',  ( -1.000000000000000000, 0.000000000000000000, 0.000000000000000000 ) ) ;
#496 = ORIENTED_EDGE ( 'NONE', *, *, #524, .F. ) ;
#497 = AXIS2_PLACEMENT_3D ( 'NONE', #322, #22, #401 ) ;
#498 = CYLINDRICAL_SURFACE ( 'NONE', #69, 1.750000000000070166 ) ;
#499 = CIRCLE ( 'NONE', #157, 1.750000000000078826 ) ;
#500 = EDGE_LOOP ( 'NONE', ( #436, #64, #312, #408 ) ) ;
#501 = CARTESIAN_POINT ( 'NONE',  ( 6.967190196429925209, 11.27034874202492531, 39.71781649631013522 ) ) ;
#502 = ADVANCED_FACE ( 'NONE', ( #464 ), #340, .F. ) ;
#503 = CARTESIAN_POINT ( 'NONE',  ( 0.000000000000000000, 0.000000000000000000, 23.00000000000000355 ) ) ;
#504 = DIRECTION ( 'NONE',  ( 1.000000000000000000, 0.000000000000000000, 0.000000000000000000 ) ) ;
#505 = ADVANCED_FACE ( 'NONE', ( #541 ), #72, .F. ) ;
#506 = DIRECTION ( 'NONE',  ( -0.000000000000000000, -0.000000000000000000, 1.000000000000000000 ) ) ;
#507 = CIRCLE ( 'NONE', #131, 1.750000000000070166 ) ;
#508 = EDGE_LOOP ( 'NONE', ( #101, #494 ) ) ;
#509 = CYLINDRICAL_SURFACE ( 'NONE', #144, 20.00000000000000000 ) ;
#510 = CARTESIAN_POINT ( 'NONE',  ( -20.00000000000000000, 0.000000000000000000, 26.00000000000000355 ) ) ;
#511 = LINE ( 'NONE', #76, #244 ) ;
#512 = ADVANCED_FACE ( 'NONE', ( #413 ), #118, .F. ) ;
#513 = DIRECTION ( 'NONE',  ( -1.000000000000000000, 0.000000000000000000, 0.000000000000000000 ) ) ;
#514 = DIRECTION ( 'NONE',  ( -0.000000000000000000, -0.000000000000000000, 1.000000000000000000 ) ) ;
#515 = AXIS2_PLACEMENT_3D ( 'NONE', #456, #465, #247 ) ;
#516 = CIRCLE ( 'NONE', #280, 1.750000000000070166 ) ;
#517 = FACE_BOUND ( 'NONE', #487, .T. ) ;
#518 = VERTEX_POINT ( 'NONE', #416 ) ;
#519 = CARTESIAN_POINT ( 'NONE',  ( 8.263674098183001249, -12.10927535993234372, 23.00000000000000355 ) ) ;
#520 = ORIENTED_EDGE ( 'NONE', *, *, #170, .T. ) ;
#521 = CARTESIAN_POINT ( 'NONE',  ( -8.980103034029104592, -11.69564492096658093, 26.00000000000000355 ) ) ;
#522 = EDGE_LOOP ( 'NONE', ( #140, #537 ) ) ;
#523 = CIRCLE ( 'NONE', #327, 1.750000000000042411 ) ;
#524 = EDGE_CURVE ( 'NONE', #138, #12, #201, .T. ) ;
#525 = CARTESIAN_POINT ( 'NONE',  ( -20.00000000000000000, 0.000000000000000000, 23.00000000000000355 ) ) ;
#526 = ORIENTED_EDGE ( 'NONE', *, *, #383, .F. ) ;
#527 = CARTESIAN_POINT ( 'NONE',  ( 6.967190196429925209, 11.27034874202492531, 26.00000000000000355 ) ) ;
#528 = ADVANCED_FACE ( 'NONE', ( #419 ), #198, .T. ) ;
#529 = ORIENTED_EDGE ( 'NONE', *, *, #275, .F. ) ;
#530 = DIRECTION ( 'NONE',  ( 1.000000000000000000, 0.000000000000000000, 0.000000000000000000 ) ) ;
#531 = VERTEX_POINT ( 'NONE', #372 ) ;
#532 = VECTOR ( 'NONE', #302, 1000.000000000000000 ) ;
#533 = DIRECTION ( 'NONE',  ( 1.000000000000000000, 0.000000000000000000, 0.000000000000000000 ) ) ;
#534 = AXIS2_PLACEMENT_3D ( 'NONE', #129, #547, #211 ) ;
#535 = EDGE_LOOP ( 'NONE', ( #71, #23 ) ) ;
#536 = CARTESIAN_POINT ( 'NONE',  ( -8.026813221885326755, 11.66893807411609707, 23.00000000000000355 ) ) ;
#537 = ORIENTED_EDGE ( 'NONE', *, *, #25, .T. ) ;
#538 = UNCERTAINTY_MEASURE_WITH_UNIT (LENGTH_MEASURE( 1.000000000000000082E-05 ), #98, 'distance_accuracy_value', 'NONE');
#539 = FACE_BOUND ( 'NONE', #535, .T. ) ;
#540 = ORIENTED_EDGE ( 'NONE', *, *, #246, .T. ) ;
#541 = FACE_OUTER_BOUND ( 'NONE', #500, .T. ) ;
#542 = EDGE_CURVE ( 'NONE', #361, #109, #544, .T. ) ;
#543 = FACE_OUTER_BOUND ( 'NONE', #264, .T. ) ;
#544 = LINE ( 'NONE', #36, #407 ) ;
#545 = FACE_OUTER_BOUND ( 'NONE', #188, .T. ) ;
#546 = DIRECTION ( 'NONE',  ( 0.000000000000000000, 0.000000000000000000, -1.000000000000000000 ) ) ;
#547 = DIRECTION ( 'NONE',  ( 0.000000000000000000, 0.000000000000000000, -1.000000000000000000 ) ) ;
#548 = DIRECTION ( 'NONE',  ( -1.000000000000000000, 0.000000000000000000, 0.000000000000000000 ) ) ;
#549 = AXIS2_PLACEMENT_3D ( 'NONE', #84, #5, #467 ) ;
ENDSEC;
END-ISO-10303-21;
