ISO-10303-21;
HEADER;
FILE_DESCRIPTION (( 'STEP AP214' ),
    '1' );
FILE_NAME ('010_020_Left_right_bearing_mount_back_2.STEP',
    '2024-07-21T08:39:39',
    ( '' ),
    ( '' ),
    'SwSTEP 2.0',
    'SolidWorks 2019',
    '' );
FILE_SCHEMA (( 'AUTOMOTIVE_DESIGN' ));
ENDSEC;

DATA;
#1 = VECTOR ( 'NONE', #1017, 1000.000000000000227 ) ;
#2 = ADVANCED_FACE ( 'NONE', ( #835 ), #485, .F. ) ;
#3 = DIRECTION ( 'NONE',  ( 0.9712147524712974045, -0.2382055930957888978, 2.125732041587263122E-14 ) ) ;
#4 = VERTEX_POINT ( 'NONE', #383 ) ;
#5 =( NAMED_UNIT ( * ) SI_UNIT ( $, .STERADIAN. ) SOLID_ANGLE_UNIT ( ) );
#6 = CARTESIAN_POINT ( 'NONE',  ( 77.50731894843856651, 32.47203879510131230, -115.0864105915993321 ) ) ;
#7 = ORIENTED_EDGE ( 'NONE', *, *, #521, .T. ) ;
#8 = VERTEX_POINT ( 'NONE', #1109 ) ;
#9 = CARTESIAN_POINT ( 'NONE',  ( 77.50731894843622172, 32.47203879510188784, -1.999999999999241940 ) ) ;
#10 = CARTESIAN_POINT ( 'NONE',  ( 71.90136927082546947, -13.89112892684862821, -84.69999999999902229 ) ) ;
#11 = VERTEX_POINT ( 'NONE', #768 ) ;
#12 = CARTESIAN_POINT ( 'NONE',  ( 77.74638391349935773, 0.4946140980753802596, -84.69999999999897966 ) ) ;
#13 = VERTEX_POINT ( 'NONE', #576 ) ;
#14 = DIRECTION ( 'NONE',  ( 0.2382055930957884260, 0.9712147524712974045, -8.677469957431128458E-30 ) ) ;
#15 = PRODUCT_RELATED_PRODUCT_CATEGORY ( 'part', '', ( #43 ) ) ;
#16 = ADVANCED_FACE ( 'NONE', ( #133 ), #320, .T. ) ;
#17 = DIRECTION ( 'NONE',  ( 0.9712147524712970714, -0.2382055930957903134, 2.125732041587262806E-14 ) ) ;
#18 = ORIENTED_EDGE ( 'NONE', *, *, #498, .F. ) ;
#19 = MECHANICAL_DESIGN_GEOMETRIC_PRESENTATION_REPRESENTATION (  '', ( #895 ), #351 ) ;
#20 = VECTOR ( 'NONE', #263, 1000.000000000000227 ) ;
#21 = DIRECTION ( 'NONE',  ( -0.8865161908357671594, 0.4626975722716101247, -2.064542318590479066E-14 ) ) ;
#22 = AXIS2_PLACEMENT_3D ( 'NONE', #814, #549, #995 ) ;
#23 = CIRCLE ( 'NONE', #689, 4.000000000000004441 ) ;
#24 = VERTEX_POINT ( 'NONE', #949 ) ;
#25 = PLANE ( 'NONE',  #898 ) ;
#26 = CARTESIAN_POINT ( 'NONE',  ( 59.71227485969022553, 36.83655140216379209, -49.69999999999967599 ) ) ;
#27 = DIRECTION ( 'NONE',  ( -0.2382055930957889811, -0.9712147524712974045, -3.155443620884047922E-30 ) ) ;
#28 = VERTEX_POINT ( 'NONE', #1023 ) ;
#29 = CARTESIAN_POINT ( 'NONE',  ( 52.56610706681685485, 7.700108828024592178, -79.69999999999954809 ) ) ;
#30 = PLANE ( 'NONE',  #1024 ) ;
#31 = PLANE ( 'NONE',  #135 ) ;
#32 = ADVANCED_FACE ( 'NONE', ( #405 ), #772, .F. ) ;
#33 = SURFACE_STYLE_USAGE ( .BOTH. , #546 ) ;
#34 = ORIENTED_EDGE ( 'NONE', *, *, #265, .T. ) ;
#35 = LINE ( 'NONE', #674, #234 ) ;
#36 = FACE_OUTER_BOUND ( 'NONE', #250, .T. ) ;
#37 = ORIENTED_EDGE ( 'NONE', *, *, #984, .F. ) ;
#38 = ADVANCED_FACE ( 'NONE', ( #850 ), #31, .T. ) ;
#39 = AXIS2_PLACEMENT_3D ( 'NONE', #275, #806, #64 ) ;
#40 = FACE_OUTER_BOUND ( 'NONE', #1066, .T. ) ;
#41 = CARTESIAN_POINT ( 'NONE',  ( 49.18489485254941940, -1.766980006573971806, -47.69999999999934204 ) ) ;
#42 = ORIENTED_EDGE ( 'NONE', *, *, #666, .T. ) ;
#43 = PRODUCT ( '010_020_Left_right_bearing_mount_back_2', '010_020_Left_right_bearing_mount_back_2', '', ( #843 ) ) ;
#44 = CARTESIAN_POINT ( 'NONE',  ( 77.50731894843622172, 32.47203879510188784, -1.999999999999241940 ) ) ;
#45 = EDGE_LOOP ( 'NONE', ( #501, #608 ) ) ;
#46 = DIRECTION ( 'NONE',  ( -0.2382055930957879264, -0.9712147524712976265, 9.167623962144362705E-18 ) ) ;
#47 = DIRECTION ( 'NONE',  ( -2.064542318590479066E-14, 5.063612617290155286E-15, 1.000000000000000000 ) ) ;
#48 = DIRECTION ( 'NONE',  ( -2.064542318590480013E-14, 5.063612617290160808E-15, 1.000000000000000000 ) ) ;
#49 = EDGE_CURVE ( 'NONE', #1130, #832, #862, .T. ) ;
#50 = CYLINDRICAL_SURFACE ( 'NONE', #231, 2.250000000000003553 ) ;
#51 = ORIENTED_EDGE ( 'NONE', *, *, #788, .F. ) ;
#52 = CARTESIAN_POINT ( 'NONE',  ( 73.41730038257682622, -7.710356089700804993, -84.69999999999902229 ) ) ;
#53 = CIRCLE ( 'NONE', #603, 2.249999999999997335 ) ;
#54 = DIRECTION ( 'NONE',  ( -0.8865161908357670484, 0.4626975722716101247, -2.064542318590478750E-14 ) ) ;
#55 = VECTOR ( 'NONE', #322, 999.9999999999998863 ) ;
#56 = DIRECTION ( 'NONE',  ( 0.9712147524712970714, -0.2382055930957903411, 2.125732041587262806E-14 ) ) ;
#57 = ORIENTED_EDGE ( 'NONE', *, *, #848, .F. ) ;
#58 = DIRECTION ( 'NONE',  ( -0.9712147524712975155, 0.2382055930957881484, -2.081668171172166304E-14 ) ) ;
#59 = ORIENTED_EDGE ( 'NONE', *, *, #970, .F. ) ;
#60 = DIRECTION ( 'NONE',  ( 0.9712147524712975155, -0.2382055930957883427, 1.850371707708590973E-14 ) ) ;
#61 = CARTESIAN_POINT ( 'NONE',  ( 50.84313781417574063, 7.093055562215640819, -64.19999999999959073 ) ) ;
#62 = ORIENTED_EDGE ( 'NONE', *, *, #229, .T. ) ;
#63 = ADVANCED_FACE ( 'NONE', ( #760 ), #390, .T. ) ;
#64 = DIRECTION ( 'NONE',  ( -0.8865161908357670484, 0.4626975722716101247, -2.064542318590478750E-14 ) ) ;
#65 = ORIENTED_EDGE ( 'NONE', *, *, #201, .T. ) ;
#66 = CARTESIAN_POINT ( 'NONE',  ( 73.86152490361416767, 1.447436470458534963, -84.69999999999906493 ) ) ;
#67 = CARTESIAN_POINT ( 'NONE',  ( 81.63124292338456200, -0.4582082743077734444, -84.69999999999889440 ) ) ;
#68 = ORIENTED_EDGE ( 'NONE', *, *, #283, .F. ) ;
#69 = EDGE_CURVE ( 'NONE', #91, #974, #221, .T. ) ;
#70 = FACE_OUTER_BOUND ( 'NONE', #1123, .T. ) ;
#71 = VERTEX_POINT ( 'NONE', #1151 ) ;
#72 = DIRECTION ( 'NONE',  ( 0.9712147524712975155, -0.2382055930957881207, 2.081668171172166304E-14 ) ) ;
#73 = AXIS2_PLACEMENT_3D ( 'NONE', #1177, #921, #173 ) ;
#74 = DIRECTION ( 'NONE',  ( 2.064542318590480013E-14, -5.063612617290160808E-15, -1.000000000000000000 ) ) ;
#75 = AXIS2_PLACEMENT_3D ( 'NONE', #577, #393, #120 ) ;
#76 = CIRCLE ( 'NONE', #533, 4.000000000000004441 ) ;
#77 = VERTEX_POINT ( 'NONE', #61 ) ;
#78 = CARTESIAN_POINT ( 'NONE',  ( 70.12294556246780530, 2.364381468490517779, -79.69999999999916440 ) ) ;
#79 = ORIENTED_EDGE ( 'NONE', *, *, #627, .T. ) ;
#80 = DIRECTION ( 'NONE',  ( -0.9712147524712975155, 0.2382055930957882317, -2.125732041587262175E-14 ) ) ;
#81 = EDGE_CURVE ( 'NONE', #762, #805, #1051, .T. ) ;
#82 = DIRECTION ( 'NONE',  ( -0.2382055930957882872, -0.9712147524712975155, 9.167623962140418401E-18 ) ) ;
#83 = EDGE_LOOP ( 'NONE', ( #211, #909, #42, #537 ) ) ;
#84 = CARTESIAN_POINT ( 'NONE',  ( 59.71227485969106397, 36.83655140216366419, -89.69999999999954809 ) ) ;
#85 = EDGE_LOOP ( 'NONE', ( #285, #482 ) ) ;
#86 = DIRECTION ( 'NONE',  ( -0.2382055930957891199, -0.9712147524712975155, -5.522026336547084039E-30 ) ) ;
#87 = LINE ( 'NONE', #622, #1041 ) ;
#88 = EDGE_CURVE ( 'NONE', #13, #946, #647, .T. ) ;
#89 = VERTEX_POINT ( 'NONE', #329 ) ;
#90 = LINE ( 'NONE', #998, #267 ) ;
#91 = VERTEX_POINT ( 'NONE', #427 ) ;
#92 = CARTESIAN_POINT ( 'NONE',  ( 61.22542351809295269, 4.546637772021912660, 6.193853313681601859E-13 ) ) ;
#93 = CARTESIAN_POINT ( 'NONE',  ( 59.71227485969105686, 36.83655140216357893, -89.69999999999929230 ) ) ;
#94 = CIRCLE ( 'NONE', #134, 4.000000000000004441 ) ;
#95 = CIRCLE ( 'NONE', #953, 2.250000000000003553 ) ;
#96 = ORIENTED_EDGE ( 'NONE', *, *, #229, .F. ) ;
#97 = AXIS2_PLACEMENT_3D ( 'NONE', #106, #480, #945 ) ;
#98 = ORIENTED_EDGE ( 'NONE', *, *, #305, .T. ) ;
#99 = LINE ( 'NONE', #9, #820 ) ;
#100 = DIRECTION ( 'NONE',  ( -2.203624201254528154E-14, 5.398162400392522692E-15, 1.000000000000000000 ) ) ;
#101 = ORIENTED_EDGE ( 'NONE', *, *, #1047, .T. ) ;
#102 = ADVANCED_FACE ( 'NONE', ( #597, #1135 ), #871, .F. ) ;
#103 = EDGE_CURVE ( 'NONE', #400, #981, #776, .T. ) ;
#104 = ORIENTED_EDGE ( 'NONE', *, *, #579, .F. ) ;
#105 = DIRECTION ( 'NONE',  ( 0.9712147524712970714, -0.2382055930957903411, 2.125732041587262806E-14 ) ) ;
#106 = CARTESIAN_POINT ( 'NONE',  ( 47.45785694594552950, 7.923348589541160614, -84.69999999999964757 ) ) ;
#107 = EDGE_LOOP ( 'NONE', ( #203, #374, #632, #986 ) ) ;
#108 = FILL_AREA_STYLE_COLOUR ( '', #743 ) ;
#109 = ADVANCED_FACE ( 'NONE', ( #1159 ), #50, .F. ) ;
#110 = ORIENTED_EDGE ( 'NONE', *, *, #237, .F. ) ;
#111 = DIRECTION ( 'NONE',  ( 0.9712147524712974045, -0.2382055930957886758, 2.125732041587262490E-14 ) ) ;
#112 = CARTESIAN_POINT ( 'NONE',  ( 58.45833049919433222, 28.90699368045227757, 6.000000000000438760 ) ) ;
#113 = DIRECTION ( 'NONE',  ( 0.9712147524712975155, -0.2382055930957883427, 1.850371707708590973E-14 ) ) ;
#114 = CIRCLE ( 'NONE', #212, 2.250000000000004441 ) ;
#115 = APPLICATION_CONTEXT ( 'automotive_design' ) ;
#116 = AXIS2_PLACEMENT_3D ( 'NONE', #290, #1031, #562 ) ;
#117 = PRESENTATION_STYLE_ASSIGNMENT (( #33 ) ) ;
#118 = VECTOR ( 'NONE', #691, 1000.000000000000114 ) ;
#119 = EDGE_LOOP ( 'NONE', ( #1089, #1020, #1075, #465 ) ) ;
#120 = DIRECTION ( 'NONE',  ( -0.8865161908357670484, 0.4626975722716101247, -2.067650203689527881E-14 ) ) ;
#121 = LINE ( 'NONE', #132, #154 ) ;
#122 = EDGE_CURVE ( 'NONE', #77, #448, #705, .T. ) ;
#123 = ORIENTED_EDGE ( 'NONE', *, *, #201, .F. ) ;
#124 =( NAMED_UNIT ( * ) SI_UNIT ( $, .STERADIAN. ) SOLID_ANGLE_UNIT ( ) );
#125 = ORIENTED_EDGE ( 'NONE', *, *, #1085, .T. ) ;
#126 = CYLINDRICAL_SURFACE ( 'NONE', #1140, 2.249999999999997335 ) ;
#127 = DIRECTION ( 'NONE',  ( -0.9712147524712970714, 0.2382055930957903411, -2.125732041587262806E-14 ) ) ;
#128 = EDGE_CURVE ( 'NONE', #77, #1019, #972, .T. ) ;
#129 = EDGE_CURVE ( 'NONE', #1099, #745, #346, .T. ) ;
#130 = ORIENTED_EDGE ( 'NONE', *, *, #938, .T. ) ;
#131 = DIRECTION ( 'NONE',  ( 0.2382055930957884260, 0.9712147524712974045, -8.677469957431128458E-30 ) ) ;
#132 = CARTESIAN_POINT ( 'NONE',  ( 49.89951163183678773, 1.146664250839920296, -47.69999999999934204 ) ) ;
#133 = FACE_OUTER_BOUND ( 'NONE', #1092, .T. ) ;
#134 = AXIS2_PLACEMENT_3D ( 'NONE', #443, #1169, #355 ) ;
#135 = AXIS2_PLACEMENT_3D ( 'NONE', #476, #842, #27 ) ;
#136 = DIRECTION ( 'NONE',  ( -0.2382055930957884815, -0.9712147524712976265, 7.888609052210118054E-30 ) ) ;
#137 = AXIS2_PLACEMENT_3D ( 'NONE', #1114, #662, #941 ) ;
#138 = ORIENTED_EDGE ( 'NONE', *, *, #1108, .F. ) ;
#139 = FACE_BOUND ( 'NONE', #1132, .T. ) ;
#140 = CARTESIAN_POINT ( 'NONE',  ( 74.08660246388589599, -14.42709151131415268, -84.69999999999897966 ) ) ;
#141 = EDGE_CURVE ( 'NONE', #1082, #477, #496, .T. ) ;
#142 = LINE ( 'NONE', #410, #1155 ) ;
#143 = DIRECTION ( 'NONE',  ( -0.2382055930957889534, -0.9712147524712974045, -3.155443620884047922E-30 ) ) ;
#144 = FACE_OUTER_BOUND ( 'NONE', #811, .T. ) ;
#145 = VERTEX_POINT ( 'NONE', #1045 ) ;
#146 = CARTESIAN_POINT ( 'NONE',  ( 41.61284230327164124, -6.462394435382840641, -84.69999999999969020 ) ) ;
#147 = EDGE_CURVE ( 'NONE', #175, #517, #782, .T. ) ;
#148 = CARTESIAN_POINT ( 'NONE',  ( 65.49297572046833693, -16.51298809956647062, -100.1368645245783853 ) ) ;
#149 = ORIENTED_EDGE ( 'NONE', *, *, #162, .T. ) ;
#150 = CARTESIAN_POINT ( 'NONE',  ( 52.32790147372079304, 6.728894075552624088, -79.69999999999954809 ) ) ;
#151 = VECTOR ( 'NONE', #266, 1000.000000000000000 ) ;
#152 = AXIS2_PLACEMENT_3D ( 'NONE', #1128, #206, #113 ) ;
#153 = CARTESIAN_POINT ( 'NONE',  ( 80.70400035973344188, 41.98438669238807819, 6.000000000000832223 ) ) ;
#154 = VECTOR ( 'NONE', #648, 1000.000000000000000 ) ;
#155 = CARTESIAN_POINT ( 'NONE',  ( 70.12294556246780530, 2.364381468490517779, -79.69999999999916440 ) ) ;
#156 = EDGE_CURVE ( 'NONE', #28, #994, #1056, .T. ) ;
#157 = VERTEX_POINT ( 'NONE', #1147 ) ;
#158 = DIRECTION ( 'NONE',  ( 0.2382055930957981404, 0.9712147524712950730, 2.035261135470210906E-28 ) ) ;
#159 = ORIENTED_EDGE ( 'NONE', *, *, #1001, .F. ) ;
#160 = CARTESIAN_POINT ( 'NONE',  ( 42.58781241817026597, 9.117803103529704245, -89.69999999999974705 ) ) ;
#161 = DIRECTION ( 'NONE',  ( -0.2382055930957879264, -0.9712147524712976265, 9.167623962144362705E-18 ) ) ;
#162 = EDGE_CURVE ( 'NONE', #1156, #553, #334, .T. ) ;
#163 = ORIENTED_EDGE ( 'NONE', *, *, #693, .F. ) ;
#164 = LINE ( 'NONE', #522, #644 ) ;
#165 = EDGE_LOOP ( 'NONE', ( #736, #313, #1148, #708, #471, #65, #722, #1168 ) ) ;
#166 = DIRECTION ( 'NONE',  ( -0.9712147524712970714, 0.2382055930957902856, -2.125732041587262806E-14 ) ) ;
#167 = CARTESIAN_POINT ( 'NONE',  ( 52.32790147372101330, 6.728894075552568133, -89.69999999999954809 ) ) ;
#168 = ORIENTED_EDGE ( 'NONE', *, *, #963, .T. ) ;
#169 = DIRECTION ( 'NONE',  ( 0.9712147524712975155, -0.2382055930957882317, 1.850371707708596338E-14 ) ) ;
#170 = VECTOR ( 'NONE', #707, 1000.000000000000000 ) ;
#171 = ORIENTED_EDGE ( 'NONE', *, *, #122, .T. ) ;
#172 = LINE ( 'NONE', #630, #767 ) ;
#173 = DIRECTION ( 'NONE',  ( -0.8865161908357671594, 0.4626975722716101247, -2.064542318590479066E-14 ) ) ;
#174 = AXIS2_PLACEMENT_3D ( 'NONE', #729, #987, #538 ) ;
#175 = VERTEX_POINT ( 'NONE', #611 ) ;
#176 = FACE_OUTER_BOUND ( 'NONE', #598, .T. ) ;
#177 = EDGE_CURVE ( 'NONE', #71, #456, #978, .T. ) ;
#178 = ADVANCED_FACE ( 'NONE', ( #431 ), #796, .T. ) ;
#179 = ORIENTED_EDGE ( 'NONE', *, *, #957, .T. ) ;
#180 = CARTESIAN_POINT ( 'NONE',  ( 45.21181212758330759, -22.28491228831969195, -89.69999999999954809 ) ) ;
#181 = DIRECTION ( 'NONE',  ( -0.9712147524712970714, 0.2382055930957903411, -2.125732041587262806E-14 ) ) ;
#182 = ORIENTED_EDGE ( 'NONE', *, *, #984, .T. ) ;
#183 = DIRECTION ( 'NONE',  ( 0.2382055930957981127, 0.9712147524712950730, 2.035261135470210906E-28 ) ) ;
#184 = ORIENTED_EDGE ( 'NONE', *, *, #177, .T. ) ;
#185 = DIRECTION ( 'NONE',  ( 0.9712147524712951840, -0.2382055930957981404, 2.125732041587262806E-14 ) ) ;
#186 = DIRECTION ( 'NONE',  ( 0.9712147524712977376, -0.2382055930957879819, 1.850371707708591289E-14 ) ) ;
#187 = ORIENTED_EDGE ( 'NONE', *, *, #675, .T. ) ;
#188 = FILL_AREA_STYLE ('',( #108 ) ) ;
#189 = ORIENTED_EDGE ( 'NONE', *, *, #445, .T. ) ;
#190 =( NAMED_UNIT ( * ) PLANE_ANGLE_UNIT ( ) SI_UNIT ( $, .RADIAN. ) );
#191 = DIRECTION ( 'NONE',  ( 0.9712147524712970714, -0.2382055930957903411, 2.125732041587262806E-14 ) ) ;
#192 = VECTOR ( 'NONE', #732, 1000.000000000000000 ) ;
#193 = ADVANCED_FACE ( 'NONE', ( #144 ), #500, .F. ) ;
#194 = VERTEX_POINT ( 'NONE', #447 ) ;
#195 = AXIS2_PLACEMENT_3D ( 'NONE', #874, #590, #54 ) ;
#196 = CARTESIAN_POINT ( 'NONE',  ( 51.32874519041175176, 6.973952765667657872, -79.69999999999957652 ) ) ;
#197 = EDGE_LOOP ( 'NONE', ( #216, #713, #821, #1007, #858, #515 ) ) ;
#198 = CARTESIAN_POINT ( 'NONE',  ( 61.08777239391020686, -16.19679550767637366, 7.226960277095380053E-13 ) ) ;
#199 = CARTESIAN_POINT ( 'NONE',  ( 56.69951724927305747, -13.90644252493183330, 6.000000000000619060 ) ) ;
#200 = EDGE_LOOP ( 'NONE', ( #395, #1059 ) ) ;
#201 = EDGE_CURVE ( 'NONE', #911, #1099, #87, .T. ) ;
#202 = DIRECTION ( 'NONE',  ( -2.064542318590479066E-14, 5.063612617290156864E-15, 1.000000000000000000 ) ) ;
#203 = ORIENTED_EDGE ( 'NONE', *, *, #635, .T. ) ;
#204 = DIRECTION ( 'NONE',  ( 0.2382055930957886758, 0.9712147524712974045, -3.155443620884047222E-30 ) ) ;
#205 = DIRECTION ( 'NONE',  ( 0.8865161908357669374, -0.4626975722716104023, 2.067650203689527565E-14 ) ) ;
#206 = DIRECTION ( 'NONE',  ( 0.2382055930957884815, 0.9712147524712976265, -8.677469957431129860E-30 ) ) ;
#207 = ORIENTED_EDGE ( 'NONE', *, *, #693, .T. ) ;
#208 = ADVANCED_FACE ( 'NONE', ( #823 ), #631, .F. ) ;
#209 = DIRECTION ( 'NONE',  ( 0.9712147524712975155, -0.2382055930957881207, 2.081668171172166304E-14 ) ) ;
#210 = DIRECTION ( 'NONE',  ( -0.8865161908357671594, 0.4626975722716101247, -2.064542318590479066E-14 ) ) ;
#211 = ORIENTED_EDGE ( 'NONE', *, *, #788, .T. ) ;
#212 = AXIS2_PLACEMENT_3D ( 'NONE', #528, #340, #256 ) ;
#213 = AXIS2_PLACEMENT_3D ( 'NONE', #1141, #791, #867 ) ;
#214 =( NAMED_UNIT ( * ) SI_UNIT ( $, .STERADIAN. ) SOLID_ANGLE_UNIT ( ) );
#215 = AXIS2_PLACEMENT_3D ( 'NONE', #1176, #982, #734 ) ;
#216 = ORIENTED_EDGE ( 'NONE', *, *, #793, .T. ) ;
#217 = DIRECTION ( 'NONE',  ( 0.9712147524712975155, -0.2382055930957882317, 1.850371707708596338E-14 ) ) ;
#218 = EDGE_CURVE ( 'NONE', #636, #885, #373, .T. ) ;
#219 = EDGE_CURVE ( 'NONE', #946, #316, #829, .T. ) ;
#220 = CYLINDRICAL_SURFACE ( 'NONE', #1179, 4.950000000000000178 ) ;
#221 = LINE ( 'NONE', #409, #435 ) ;
#222 = CARTESIAN_POINT ( 'NONE',  ( 77.50731894843804071, 32.47203879510144731, -89.69999999999890861 ) ) ;
#223 = DIRECTION ( 'NONE',  ( -0.2382055930957884260, -0.9712147524712974045, 7.888609052210116653E-30 ) ) ;
#224 = EDGE_LOOP ( 'NONE', ( #704, #1144, #1011, #1069 ) ) ;
#225 = DIRECTION ( 'NONE',  ( -2.064542318590480013E-14, 5.063612617290160808E-15, 1.000000000000000000 ) ) ;
#226 = PLANE ( 'NONE',  #1126 ) ;
#227 = ORIENTED_EDGE ( 'NONE', *, *, #237, .T. ) ;
#228 = ADVANCED_FACE ( 'NONE', ( #735 ), #539, .T. ) ;
#229 = EDGE_CURVE ( 'NONE', #979, #897, #451, .T. ) ;
#230 = AXIS2_PLACEMENT_3D ( 'NONE', #904, #449, #183 ) ;
#231 = AXIS2_PLACEMENT_3D ( 'NONE', #140, #519, #965 ) ;
#232 = AXIS2_PLACEMENT_3D ( 'NONE', #411, #682, #60 ) ;
#233 = DIRECTION ( 'NONE',  ( 0.9712147524712977376, -0.2382055930957879819, 1.850371707708591289E-14 ) ) ;
#234 = VECTOR ( 'NONE', #1030, 1000.000000000000000 ) ;
#235 = DIRECTION ( 'NONE',  ( -0.2382055930957884260, -0.9712147524712975155, 7.099748146989106249E-30 ) ) ;
#236 = DIRECTION ( 'NONE',  ( -0.2382055930957891199, -0.9712147524712975155, -5.522026336547084039E-30 ) ) ;
#237 = EDGE_CURVE ( 'NONE', #91, #145, #860, .T. ) ;
#238 = VERTEX_POINT ( 'NONE', #258 ) ;
#239 = CARTESIAN_POINT ( 'NONE',  ( 83.94058870595662825, -7.202441787167688680, -89.69999999999856755 ) ) ;
#240 = FACE_OUTER_BOUND ( 'NONE', #652, .T. ) ;
#241 = CARTESIAN_POINT ( 'NONE',  ( 41.11326416161666941, -6.339865090325212726, -64.19999999999971863 ) ) ;
#242 = EDGE_LOOP ( 'NONE', ( #34, #558 ) ) ;
#243 = CARTESIAN_POINT ( 'NONE',  ( 46.99966165948886498, -1.231017422108419357, -64.19999999999963336 ) ) ;
#244 = ADVANCED_FACE ( 'NONE', ( #1094 ), #551, .T. ) ;
#245 = DIRECTION ( 'NONE',  ( -0.2256429896175625727, -0.6714446457630295351, 0.7058663676026846190 ) ) ;
#246 = DIRECTION ( 'NONE',  ( -0.3185495519953776000, -0.9479062099825826815, -1.776760461749450932E-15 ) ) ;
#247 = ORIENTED_EDGE ( 'NONE', *, *, #849, .F. ) ;
#248 = LINE ( 'NONE', #947, #703 ) ;
#249 = AXIS2_PLACEMENT_3D ( 'NONE', #300, #202, #21 ) ;
#250 = EDGE_LOOP ( 'NONE', ( #792, #728, #18, #1164, #976, #168, #1014, #7 ) ) ;
#251 = FACE_OUTER_BOUND ( 'NONE', #618, .T. ) ;
#252 = CIRCLE ( 'NONE', #195, 4.949999999999999289 ) ;
#253 = ADVANCED_FACE ( 'NONE', ( #902, #983, #358 ), #616, .F. ) ;
#254 = DIRECTION ( 'NONE',  ( -0.2382055930957884260, -0.9712147524712975155, 7.099748146989106249E-30 ) ) ;
#255 = ORIENTED_EDGE ( 'NONE', *, *, #992, .F. ) ;
#256 = DIRECTION ( 'NONE',  ( -0.9712147524712974045, 0.2382055930957886758, -2.467162276944787333E-14 ) ) ;
#257 = ORIENTED_EDGE ( 'NONE', *, *, #1116, .T. ) ;
#258 = CARTESIAN_POINT ( 'NONE',  ( 40.44396208030773465, 0.3768703312881267475, -47.69999999999953388 ) ) ;
#259 = ORIENTED_EDGE ( 'NONE', *, *, #147, .T. ) ;
#260 = DIRECTION ( 'NONE',  ( -0.2382055930957884260, -0.9712147524712975155, 7.099748146989106249E-30 ) ) ;
#261 = ORIENTED_EDGE ( 'NONE', *, *, #963, .F. ) ;
#262 = PLANE ( 'NONE',  #174 ) ;
#263 = DIRECTION ( 'NONE',  ( 0.2382055930957884260, 0.9712147524712974045, -8.677469957431128458E-30 ) ) ;
#264 = ORIENTED_EDGE ( 'NONE', *, *, #1142, .T. ) ;
#265 = EDGE_CURVE ( 'NONE', #363, #316, #95, .T. ) ;
#266 = DIRECTION ( 'NONE',  ( -0.2382055930957889534, -0.9712147524712974045, -3.155443620884047922E-30 ) ) ;
#267 = VECTOR ( 'NONE', #3, 1000.000000000000114 ) ;
#268 = ORIENTED_EDGE ( 'NONE', *, *, #709, .T. ) ;
#269 = CARTESIAN_POINT ( 'NONE',  ( 45.31400660808343162, -0.8175841827005280171, -84.69999999999964757 ) ) ;
#270 = VECTOR ( 'NONE', #309, 1000.000000000000000 ) ;
#271 = DIRECTION ( 'NONE',  ( -0.2382055930957884815, -0.9712147524712976265, 7.888609052210118054E-30 ) ) ;
#272 = VECTOR ( 'NONE', #1035, 1000.000000000000000 ) ;
#273 = ORIENTED_EDGE ( 'NONE', *, *, #1124, .T. ) ;
#274 = EDGE_CURVE ( 'NONE', #462, #11, #721, .T. ) ;
#275 = CARTESIAN_POINT ( 'NONE',  ( 56.69951724927318537, -13.90644252493186528, 6.205011829393094110E-13 ) ) ;
#276 = ORIENTED_EDGE ( 'NONE', *, *, #473, .T. ) ;
#277 = DIRECTION ( 'NONE',  ( -0.2382055930957891199, -0.9712147524712975155, -5.522026336547084039E-30 ) ) ;
#278 = CARTESIAN_POINT ( 'NONE',  ( 83.22597192666924570, -10.11608604458158034, -89.69999999999856755 ) ) ;
#279 = AXIS2_PLACEMENT_3D ( 'NONE', #664, #385, #751 ) ;
#280 = ORIENTED_EDGE ( 'NONE', *, *, #438, .T. ) ;
#281 = ORIENTED_EDGE ( 'NONE', *, *, #421, .F. ) ;
#282 = CARTESIAN_POINT ( 'NONE',  ( 77.50731894843622172, 32.47203879510188784, -1.999999999999241940 ) ) ;
#283 = EDGE_CURVE ( 'NONE', #974, #368, #550, .T. ) ;
#284 = CARTESIAN_POINT ( 'NONE',  ( 46.02862338737079995, 2.096060074713379962, -84.69999999999964757 ) ) ;
#285 = ORIENTED_EDGE ( 'NONE', *, *, #651, .T. ) ;
#286 = ORIENTED_EDGE ( 'NONE', *, *, #747, .T. ) ;
#287 = LINE ( 'NONE', #398, #326 ) ;
#288 = VECTOR ( 'NONE', #225, 1000.000000000000000 ) ;
#289 = ADVANCED_FACE ( 'NONE', ( #544 ), #988, .T. ) ;
#290 = CARTESIAN_POINT ( 'NONE',  ( 56.69951724927285142, -13.90644252493178357, 16.00000000000062172 ) ) ;
#291 = PRESENTATION_LAYER_ASSIGNMENT (  '', '', ( #417 ) ) ;
#292 = ORIENTED_EDGE ( 'NONE', *, *, #950, .F. ) ;
#293 = VECTOR ( 'NONE', #701, 1000.000000000000000 ) ;
#294 = DIRECTION ( 'NONE',  ( -0.2382055930957884815, -0.9712147524712976265, 7.888609052210118054E-30 ) ) ;
#295 = ORIENTED_EDGE ( 'NONE', *, *, #575, .F. ) ;
#296 = FACE_OUTER_BOUND ( 'NONE', #224, .T. ) ;
#297 = FACE_OUTER_BOUND ( 'NONE', #197, .T. ) ;
#298 = DIRECTION ( 'NONE',  ( 0.9712147524712974045, -0.2382055930957889811, 2.125732041587262175E-14 ) ) ;
#299 = ADVANCED_FACE ( 'NONE', ( #366 ), #913, .F. ) ;
#300 = CARTESIAN_POINT ( 'NONE',  ( 49.89951163183678773, 1.146664250839920296, -47.69999999999934204 ) ) ;
#301 = ORIENTED_EDGE ( 'NONE', *, *, #810, .T. ) ;
#302 = DIRECTION ( 'NONE',  ( -0.2382055930957884260, -0.9712147524712975155, 7.099748146989106249E-30 ) ) ;
#303 = LINE ( 'NONE', #834, #671 ) ;
#304 = DIRECTION ( 'NONE',  ( 0.9712147524712977376, -0.2382055930957879819, 1.850371707708591289E-14 ) ) ;
#305 = EDGE_CURVE ( 'NONE', #432, #1064, #1088, .T. ) ;
#306 = ORIENTED_EDGE ( 'NONE', *, *, #559, .F. ) ;
#307 = CARTESIAN_POINT ( 'NONE',  ( 45.52904524571581391, 2.218589419771011428, -64.19999999999967599 ) ) ;
#308 = CARTESIAN_POINT ( 'NONE',  ( 42.14376437748560278, 3.048882447096535220, -84.69999999999973284 ) ) ;
#309 = DIRECTION ( 'NONE',  ( -2.064542318590480013E-14, 5.063612617290160808E-15, 1.000000000000000000 ) ) ;
#310 = CIRCLE ( 'NONE', #624, 2.250000000000003553 ) ;
#311 = AXIS2_PLACEMENT_3D ( 'NONE', #377, #441, #1002 ) ;
#312 = VECTOR ( 'NONE', #245, 999.9999999999998863 ) ;
#313 = ORIENTED_EDGE ( 'NONE', *, *, #1074, .T. ) ;
#314 = DIRECTION ( 'NONE',  ( -0.2382055930957884260, -0.9712147524712975155, 7.099748146989106249E-30 ) ) ;
#315 = CARTESIAN_POINT ( 'NONE',  ( 43.07341979440534629, 8.998700306981948671, -64.19999999999976126 ) ) ;
#316 = VERTEX_POINT ( 'NONE', #382 ) ;
#317 = CARTESIAN_POINT ( 'NONE',  ( 47.45785694594552950, 7.923348589541160614, -84.69999999999964757 ) ) ;
#318 = DIRECTION ( 'NONE',  ( -0.3185495519953773780, -0.9479062099825826815, -1.776760461749447382E-15 ) ) ;
#319 = ADVANCED_FACE ( 'NONE', ( #748 ), #474, .F. ) ;
#320 = PLANE ( 'NONE',  #401 ) ;
#321 = DIRECTION ( 'NONE',  ( -0.2382055930957884815, -0.9712147524712976265, 7.888609052210118054E-30 ) ) ;
#322 = DIRECTION ( 'NONE',  ( 0.1684367901945885981, 0.6867525374608741684, 0.7071067811865439090 ) ) ;
#323 = EDGE_CURVE ( 'NONE', #1112, #911, #404, .T. ) ;
#324 = DIRECTION ( 'NONE',  ( -0.2382055930957884260, -0.9712147524712974045, 7.888609052210116653E-30 ) ) ;
#325 = AXIS2_PLACEMENT_3D ( 'NONE', #657, #669, #1098 ) ;
#326 = VECTOR ( 'NONE', #753, 1000.000000000000000 ) ;
#327 = DIRECTION ( 'NONE',  ( -0.2382055930957884260, -0.9712147524712975155, 7.099748146989106249E-30 ) ) ;
#328 = CARTESIAN_POINT ( 'NONE',  ( 43.84339019431037343, 2.632022659178905322, -84.69999999999969020 ) ) ;
#329 = CARTESIAN_POINT ( 'NONE',  ( 41.64418623583061674, 3.171411792154166687, -64.19999999999976126 ) ) ;
#330 = ORIENTED_EDGE ( 'NONE', *, *, #218, .F. ) ;
#331 = ADVANCED_FACE ( 'NONE', ( #36 ), #488, .T. ) ;
#332 = DIRECTION ( 'NONE',  ( -0.2382055930957884260, -0.9712147524712975155, 7.099748146989106249E-30 ) ) ;
#333 = CARTESIAN_POINT ( 'NONE',  ( 63.00685621633025590, -26.64942489538196924, -89.69999999999915019 ) ) ;
#334 = LINE ( 'NONE', #697, #918 ) ;
#335 = EDGE_LOOP ( 'NONE', ( #905, #273 ) ) ;
#336 = PLANE ( 'NONE',  #836 ) ;
#337 = LINE ( 'NONE', #495, #293 ) ;
#338 = DIRECTION ( 'NONE',  ( -0.2382055930957884260, -0.9712147524712974045, 7.888609052210116653E-30 ) ) ;
#339 = ORIENTED_EDGE ( 'NONE', *, *, #793, .F. ) ;
#340 = DIRECTION ( 'NONE',  ( -0.2382055930957891199, -0.9712147524712975155, -5.522026336547084039E-30 ) ) ;
#341 = CIRCLE ( 'NONE', #971, 4.950000000000013500 ) ;
#342 = VECTOR ( 'NONE', #1107, 1000.000000000000000 ) ;
#343 = ORIENTED_EDGE ( 'NONE', *, *, #594, .F. ) ;
#344 = LINE ( 'NONE', #615, #1043 ) ;
#345 = AXIS2_PLACEMENT_3D ( 'NONE', #504, #235, #786 ) ;
#346 = LINE ( 'NONE', #155, #1009 ) ;
#347 = VERTEX_POINT ( 'NONE', #112 ) ;
#348 = DIRECTION ( 'NONE',  ( 2.064542318590480013E-14, -5.063612617290160808E-15, -1.000000000000000000 ) ) ;
#349 = EDGE_LOOP ( 'NONE', ( #110, #1033, #892, #563 ) ) ;
#350 = FACE_BOUND ( 'NONE', #453, .T. ) ;
#351 =( GEOMETRIC_REPRESENTATION_CONTEXT ( 3 ) GLOBAL_UNCERTAINTY_ASSIGNED_CONTEXT ( ( #653 ) ) GLOBAL_UNIT_ASSIGNED_CONTEXT ( ( #396, #923, #214 ) ) REPRESENTATION_CONTEXT ( 'NONE', 'WORKASPACE' ) );
#352 = CARTESIAN_POINT ( 'NONE',  ( 61.22542351809294559, 4.546637772021894897, 6.203820038278016818E-13 ) ) ;
#353 = ADVANCED_FACE ( 'NONE', ( #297 ), #220, .T. ) ;
#354 = ORIENTED_EDGE ( 'NONE', *, *, #1006, .F. ) ;
#355 = DIRECTION ( 'NONE',  ( 0.9712147524712975155, -0.2382055930957885925, 2.081668171172166304E-14 ) ) ;
#356 = ORIENTED_EDGE ( 'NONE', *, *, #970, .T. ) ;
#357 = PLANE ( 'NONE',  #437 ) ;
#358 = FACE_BOUND ( 'NONE', #371, .T. ) ;
#359 = EDGE_CURVE ( 'NONE', #415, #832, #626, .T. ) ;
#360 = VERTEX_POINT ( 'NONE', #841 ) ;
#361 = CARTESIAN_POINT ( 'NONE',  ( 61.08777239391012870, -16.19679550767630971, 5.000000000000722977 ) ) ;
#362 = VECTOR ( 'NONE', #868, 1000.000000000000227 ) ;
#363 = VERTEX_POINT ( 'NONE', #574 ) ;
#364 = CARTESIAN_POINT ( 'NONE',  ( 61.27970531030729973, 46.74849855430393575, 16.00000000000040856 ) ) ;
#365 = AXIS2_PLACEMENT_3D ( 'NONE', #1172, #271, #908 ) ;
#366 = FACE_OUTER_BOUND ( 'NONE', #1046, .T. ) ;
#367 = CIRCLE ( 'NONE', #628, 4.000000000000004441 ) ;
#368 = VERTEX_POINT ( 'NONE', #308 ) ;
#369 = CARTESIAN_POINT ( 'NONE',  ( 45.52904524571581391, 2.218589419771011428, -64.19999999999967599 ) ) ;
#370 = ADVANCED_FACE ( 'NONE', ( #1022 ), #30, .F. ) ;
#371 = EDGE_LOOP ( 'NONE', ( #512, #227 ) ) ;
#372 = CARTESIAN_POINT ( 'NONE',  ( 70.12294556246800425, 2.364381468490465821, -89.69999999999915019 ) ) ;
#373 = LINE ( 'NONE', #1005, #569 ) ;
#374 = ORIENTED_EDGE ( 'NONE', *, *, #848, .T. ) ;
#375 = ORIENTED_EDGE ( 'NONE', *, *, #884, .T. ) ;
#376 = DIRECTION ( 'NONE',  ( -0.1561945666727455329, -0.9877263068997976792, 1.776760461749375990E-15 ) ) ;
#377 = CARTESIAN_POINT ( 'NONE',  ( 179.3736526339244506, -43.99419098886233570, -89.69999999999642171 ) ) ;
#378 = EDGE_LOOP ( 'NONE', ( #787, #354, #442, #1173 ) ) ;
#379 = APPLICATION_PROTOCOL_DEFINITION ( 'draft international standard', 'automotive_design', 1998, #115 ) ;
#380 = ORIENTED_EDGE ( 'NONE', *, *, #610, .T. ) ;
#381 = DIRECTION ( 'NONE',  ( -0.2382055930957891199, -0.9712147524712975155, -5.522026336547084039E-30 ) ) ;
#382 = CARTESIAN_POINT ( 'NONE',  ( 74.13191716186419455, -4.796711832286878696, -84.69999999999902229 ) ) ;
#383 = CARTESIAN_POINT ( 'NONE',  ( 80.70400035973541719, 41.98438669238759502, -89.69999999999889440 ) ) ;
#384 = VECTOR ( 'NONE', #1113, 1000.000000000000000 ) ;
#385 = DIRECTION ( 'NONE',  ( 0.000000000000000000, 0.000000000000000000, 1.000000000000000000 ) ) ;
#386 = ORIENTED_EDGE ( 'NONE', *, *, #129, .T. ) ;
#387 = DIRECTION ( 'NONE',  ( 0.9712147524712975155, -0.2382055930957882040, 2.125732041587262490E-14 ) ) ;
#388 = FACE_OUTER_BOUND ( 'NONE', #349, .T. ) ;
#389 = EDGE_CURVE ( 'NONE', #145, #368, #557, .T. ) ;
#390 = PLANE ( 'NONE',  #935 ) ;
#391 =( LENGTH_UNIT ( ) NAMED_UNIT ( * ) SI_UNIT ( .MILLI., .METRE. ) );
#392 = ORIENTED_EDGE ( 'NONE', *, *, #81, .T. ) ;
#393 = DIRECTION ( 'NONE',  ( 2.064542318590480013E-14, -5.063612617290160808E-15, -1.000000000000000000 ) ) ;
#394 = DIRECTION ( 'NONE',  ( -2.064542318590480013E-14, 5.063612617290160808E-15, 1.000000000000000000 ) ) ;
#395 = ORIENTED_EDGE ( 'NONE', *, *, #564, .T. ) ;
#396 =( LENGTH_UNIT ( ) NAMED_UNIT ( * ) SI_UNIT ( .MILLI., .METRE. ) );
#397 = ORIENTED_EDGE ( 'NONE', *, *, #914, .F. ) ;
#398 = CARTESIAN_POINT ( 'NONE',  ( 57.80663011492276127, 29.06683338239373526, 6.000000000000424549 ) ) ;
#399 = CARTESIAN_POINT ( 'NONE',  ( 56.69951724927307879, -13.90644252493183863, 5.000000000000619949 ) ) ;
#400 = VERTEX_POINT ( 'NONE', #41 ) ;
#401 = AXIS2_PLACEMENT_3D ( 'NONE', #1029, #298, #663 ) ;
#402 = VECTOR ( 'NONE', #394, 1000.000000000000000 ) ;
#403 = FACE_OUTER_BOUND ( 'NONE', #200, .T. ) ;
#404 = LINE ( 'NONE', #1013, #342 ) ;
#405 = FACE_OUTER_BOUND ( 'NONE', #107, .T. ) ;
#406 = DIRECTION ( 'NONE',  ( 0.3185495519953774890, 0.9479062099825826815, 1.776760461749448171E-15 ) ) ;
#407 = EDGE_CURVE ( 'NONE', #900, #400, #121, .T. ) ;
#408 = DIRECTION ( 'NONE',  ( -0.9712147524712976265, 0.2382055930957879264, -2.125732041587262806E-14 ) ) ;
#409 = CARTESIAN_POINT ( 'NONE',  ( 51.34271595583072667, 6.970526217158007576, -84.69999999999956231 ) ) ;
#410 = CARTESIAN_POINT ( 'NONE',  ( 51.32874519041175176, 6.973952765667657872, -79.69999999999957652 ) ) ;
#411 = CARTESIAN_POINT ( 'NONE',  ( 46.02862338737079995, 2.096060074713379962, -84.69999999999964757 ) ) ;
#412 = CARTESIAN_POINT ( 'NONE',  ( 75.60253357563725274, -8.246318674166332130, -84.69999999999897966 ) ) ;
#413 = ADVANCED_FACE ( 'NONE', ( #388 ), #1028, .F. ) ;
#414 = AXIS2_PLACEMENT_3D ( 'NONE', #958, #332, #1149 ) ;
#415 = VERTEX_POINT ( 'NONE', #484 ) ;
#416 = AXIS2_PLACEMENT_3D ( 'NONE', #6, #464, #191 ) ;
#417 = STYLED_ITEM ( 'NONE', ( #583 ), #581 ) ;
#418 = CARTESIAN_POINT ( 'NONE',  ( 51.81027203011884552, -13.13327941990169201, 16.00000000000051870 ) ) ;
#419 = CARTESIAN_POINT ( 'NONE',  ( 41.15857885959510298, 3.290514588702017296, -47.69999999999953388 ) ) ;
#420 = CARTESIAN_POINT ( 'NONE',  ( 50.84313781417574063, 7.093055562215641707, -64.19999999999959073 ) ) ;
#421 = EDGE_CURVE ( 'NONE', #658, #1003, #303, .T. ) ;
#422 = EDGE_CURVE ( 'NONE', #157, #24, #568, .T. ) ;
#423 = ORIENTED_EDGE ( 'NONE', *, *, #878, .F. ) ;
#424 = DIRECTION ( 'NONE',  ( -2.064542318590480013E-14, 5.063612617290160808E-15, 1.000000000000000000 ) ) ;
#425 = ORIENTED_EDGE ( 'NONE', *, *, #505, .T. ) ;
#426 = CYLINDRICAL_SURFACE ( 'NONE', #687, 4.000000000000003553 ) ;
#427 = CARTESIAN_POINT ( 'NONE',  ( 51.34271595583072667, 6.970526217158006688, -84.69999999999956231 ) ) ;
#428 = ORIENTED_EDGE ( 'NONE', *, *, #1091, .F. ) ;
#429 = CARTESIAN_POINT ( 'NONE',  ( 43.34381205265540160, 2.754552004236533236, -64.19999999999971863 ) ) ;
#430 = ORIENTED_EDGE ( 'NONE', *, *, #141, .T. ) ;
#431 = FACE_OUTER_BOUND ( 'NONE', #844, .T. ) ;
#432 = VERTEX_POINT ( 'NONE', #854 ) ;
#433 = VECTOR ( 'NONE', #406, 1000.000000000000114 ) ;
#434 = CARTESIAN_POINT ( 'NONE',  ( 45.21181212758310153, -22.28491228831963866, -79.69999999999954809 ) ) ;
#435 = VECTOR ( 'NONE', #338, 1000.000000000000227 ) ;
#436 = ADVANCED_FACE ( 'NONE', ( #1127 ), #754, .F. ) ;
#437 = AXIS2_PLACEMENT_3D ( 'NONE', #180, #185, #720 ) ;
#438 = EDGE_CURVE ( 'NONE', #553, #8, #846, .T. ) ;
#439 = ORIENTED_EDGE ( 'NONE', *, *, #761, .F. ) ;
#440 = VECTOR ( 'NONE', #739, 1000.000000000000114 ) ;
#441 = DIRECTION ( 'NONE',  ( 2.064542318590478750E-14, -5.063612617290157653E-15, -1.000000000000000000 ) ) ;
#442 = ORIENTED_EDGE ( 'NONE', *, *, #968, .T. ) ;
#443 = CARTESIAN_POINT ( 'NONE',  ( 76.31715035492462107, -5.332674416752433366, -84.69999999999897966 ) ) ;
#444 = ORIENTED_EDGE ( 'NONE', *, *, #128, .F. ) ;
#445 = EDGE_CURVE ( 'NONE', #448, #89, #1119, .T. ) ;
#446 = LINE ( 'NONE', #372, #991 ) ;
#447 = CARTESIAN_POINT ( 'NONE',  ( 43.12877341502300510, -0.2816215982350016023, -84.69999999999969020 ) ) ;
#448 = VERTEX_POINT ( 'NONE', #578 ) ;
#449 = DIRECTION ( 'NONE',  ( -0.9712147524712951840, 0.2382055930957981404, -2.125732041587262806E-14 ) ) ;
#450 = ORIENTED_EDGE ( 'NONE', *, *, #521, .F. ) ;
#451 = LINE ( 'NONE', #167, #1062 ) ;
#452 = EDGE_CURVE ( 'NONE', #4, #1003, #948, .T. ) ;
#453 = EDGE_LOOP ( 'NONE', ( #750, #966 ) ) ;
#454 = CARTESIAN_POINT ( 'NONE',  ( 49.89951163183701510, 1.146664250839863231, -79.69999999999957652 ) ) ;
#455 = VECTOR ( 'NONE', #516, 999.9999999999998863 ) ;
#456 = VERTEX_POINT ( 'NONE', #778 ) ;
#457 = DIRECTION ( 'NONE',  ( 0.2382055930957882040, 0.9712147524712975155, -8.583473624226028017E-17 ) ) ;
#458 = DIRECTION ( 'NONE',  ( -0.1561945666727449222, -0.9877263068997976792, 1.776760461749386640E-15 ) ) ;
#459 = ORIENTED_EDGE ( 'NONE', *, *, #156, .T. ) ;
#460 = UNCERTAINTY_MEASURE_WITH_UNIT (LENGTH_MEASURE( 1.000000000000000082E-05 ), #822, 'distance_accuracy_value', 'NONE');
#461 = EDGE_CURVE ( 'NONE', #24, #838, #337, .T. ) ;
#462 = VERTEX_POINT ( 'NONE', #1060 ) ;
#463 = CARTESIAN_POINT ( 'NONE',  ( 45.21181212758330759, -22.28491228831969195, -89.69999999999954809 ) ) ;
#464 = DIRECTION ( 'NONE',  ( 0.2382055930957903411, 0.9712147524712970714, 3.392101892450350763E-29 ) ) ;
#465 = ORIENTED_EDGE ( 'NONE', *, *, #700, .F. ) ;
#466 = EDGE_LOOP ( 'NONE', ( #936, #526, #830, #770 ) ) ;
#467 = FACE_OUTER_BOUND ( 'NONE', #335, .T. ) ;
#468 = CARTESIAN_POINT ( 'NONE',  ( 43.57299793606033234, 8.876170961924314540, -84.69999999999973284 ) ) ;
#469 = VERTEX_POINT ( 'NONE', #609 ) ;
#470 = SURFACE_STYLE_FILL_AREA ( #188 ) ;
#471 = ORIENTED_EDGE ( 'NONE', *, *, #1116, .F. ) ;
#472 = CARTESIAN_POINT ( 'NONE',  ( 77.74638391349935773, 0.4946140980753802596, -84.69999999999897966 ) ) ;
#473 = EDGE_CURVE ( 'NONE', #11, #360, #499, .T. ) ;
#474 = CYLINDRICAL_SURFACE ( 'NONE', #877, 2.250000000000003997 ) ;
#475 = VECTOR ( 'NONE', #715, 1000.000000000000000 ) ;
#476 = CARTESIAN_POINT ( 'NONE',  ( 49.89951163183678773, 1.146664250839920296, -47.69999999999934204 ) ) ;
#477 = VERTEX_POINT ( 'NONE', #160 ) ;
#478 = FACE_OUTER_BOUND ( 'NONE', #1117, .T. ) ;
#479 = EDGE_CURVE ( 'NONE', #517, #175, #939, .T. ) ;
#480 = DIRECTION ( 'NONE',  ( -0.2382055930957884815, -0.9712147524712976265, 7.888609052210118054E-30 ) ) ;
#481 = EDGE_LOOP ( 'NONE', ( #57, #535, #268, #614 ) ) ;
#482 = ORIENTED_EDGE ( 'NONE', *, *, #761, .T. ) ;
#483 = CARTESIAN_POINT ( 'NONE',  ( 70.36115115556383159, 3.335596220962447678, -79.69999999999916440 ) ) ;
#484 = CARTESIAN_POINT ( 'NONE',  ( 61.08777239390992264, -16.19679550767622445, 16.00000000000072120 ) ) ;
#485 = CYLINDRICAL_SURFACE ( 'NONE', #837, 2.250000000000003553 ) ;
#486 = ADVANCED_FACE ( 'NONE', ( #139, #240 ), #1139, .F. ) ;
#487 = FACE_OUTER_BOUND ( 'NONE', #816, .T. ) ;
#488 = PLANE ( 'NONE',  #325 ) ;
#489 = ORIENTED_EDGE ( 'NONE', *, *, #323, .T. ) ;
#490 = AXIS2_PLACEMENT_3D ( 'NONE', #556, #136, #1058 ) ;
#491 = AXIS2_PLACEMENT_3D ( 'NONE', #684, #591, #960 ) ;
#492 = EDGE_CURVE ( 'NONE', #1099, #805, #1146, .T. ) ;
#493 = CIRCLE ( 'NONE', #1161, 2.249999999999997780 ) ;
#494 = CARTESIAN_POINT ( 'NONE',  ( 85.36982226453115175, -1.375153272339821431, -79.69999999999858176 ) ) ;
#495 = CARTESIAN_POINT ( 'NONE',  ( 59.71227485969157556, 36.83655140216345103, -115.0864105915997300 ) ) ;
#496 = LINE ( 'NONE', #876, #1102 ) ;
#497 = CARTESIAN_POINT ( 'NONE',  ( 59.71227485968924498, 36.83655140216402657, -1.999999999999631406 ) ) ;
#498 = EDGE_CURVE ( 'NONE', #645, #1156, #596, .T. ) ;
#499 = LINE ( 'NONE', #882, #118 ) ;
#500 = CYLINDRICAL_SURFACE ( 'NONE', #365, 4.000000000000003553 ) ;
#501 = ORIENTED_EDGE ( 'NONE', *, *, #716, .F. ) ;
#502 = DIRECTION ( 'NONE',  ( 0.1561945666727451165, 0.9877263068997976792, -1.776760461749383879E-15 ) ) ;
#503 = ADVANCED_FACE ( 'NONE', ( #251 ), #426, .F. ) ;
#504 = CARTESIAN_POINT ( 'NONE',  ( 46.02862338737079995, 2.096060074713379962, -84.69999999999964757 ) ) ;
#505 = EDGE_CURVE ( 'NONE', #360, #238, #870, .T. ) ;
#506 = DIRECTION ( 'NONE',  ( -0.9712147524712976265, 0.2382055930957879264, -2.125732041587262806E-14 ) ) ;
#507 = AXIS2_PLACEMENT_3D ( 'NONE', #12, #294, #928 ) ;
#508 = EDGE_LOOP ( 'NONE', ( #425, #295, #430, #264 ) ) ;
#509 = AXIS2_PLACEMENT_3D ( 'NONE', #284, #1073, #642 ) ;
#510 = AXIS2_PLACEMENT_3D ( 'NONE', #92, #457, #387 ) ;
#511 = CYLINDRICAL_SURFACE ( 'NONE', #683, 4.000000000000004441 ) ;
#512 = ORIENTED_EDGE ( 'NONE', *, *, #940, .T. ) ;
#513 = DIRECTION ( 'NONE',  ( -1.032573497605237254E-14, 2.519479334156779667E-15, 1.000000000000000000 ) ) ;
#514 = DIRECTION ( 'NONE',  ( 1.016016130621422060E-14, -2.479651979025546955E-15, -1.000000000000000000 ) ) ;
#515 = ORIENTED_EDGE ( 'NONE', *, *, #49, .F. ) ;
#516 = DIRECTION ( 'NONE',  ( -0.1684367901945885981, -0.6867525374608741684, -0.7071067811865439090 ) ) ;
#517 = VERTEX_POINT ( 'NONE', #328 ) ;
#518 = CARTESIAN_POINT ( 'NONE',  ( 46.95827880429054346, 8.045877934598795633, -64.19999999999967599 ) ) ;
#519 = DIRECTION ( 'NONE',  ( 0.2382055930957884815, 0.9712147524712976265, -8.677469957431129860E-30 ) ) ;
#520 = ORIENTED_EDGE ( 'NONE', *, *, #156, .F. ) ;
#521 = EDGE_CURVE ( 'NONE', #1003, #8, #866, .T. ) ;
#522 = CARTESIAN_POINT ( 'NONE',  ( 83.94058870595641508, -7.202441787167638054, -79.69999999999858176 ) ) ;
#523 = ORIENTED_EDGE ( 'NONE', *, *, #1154, .F. ) ;
#524 = CARTESIAN_POINT ( 'NONE',  ( 77.74638391349935773, 0.4946140980753802596, -84.69999999999897966 ) ) ;
#525 = DIRECTION ( 'NONE',  ( -0.1684367901946104695, -0.6867525374608610678, 0.7071067811865513475 ) ) ;
#526 = ORIENTED_EDGE ( 'NONE', *, *, #1154, .T. ) ;
#527 = EDGE_CURVE ( 'NONE', #805, #157, #964, .T. ) ;
#528 = CARTESIAN_POINT ( 'NONE',  ( 75.60253357563725274, -8.246318674166332130, -84.69999999999897966 ) ) ;
#529 = CLOSED_SHELL ( 'NONE', ( #413, #503, #1143, #299, #32, #109, #353, #617, #486, #102, #756, #208, #370, #178, #906, #331, #593, #775, #228, #1036, #436, #659, #38, #1165, #63, #16, #2, #319, #724, #688, #863, #253, #193, #831, #244, #930, #289 ) ) ;
#530 = CIRCLE ( 'NONE', #587, 2.250000000000004441 ) ;
#531 = VERTEX_POINT ( 'NONE', #66 ) ;
#532 = FACE_OUTER_BOUND ( 'NONE', #887, .T. ) ;
#533 = AXIS2_PLACEMENT_3D ( 'NONE', #307, #302, #1021 ) ;
#534 = CARTESIAN_POINT ( 'NONE',  ( 70.36115115556361843, 3.335596220962510294, -79.69999999999916440 ) ) ;
#535 = ORIENTED_EDGE ( 'NONE', *, *, #686, .T. ) ;
#536 = CYLINDRICAL_SURFACE ( 'NONE', #507, 4.000000000000004441 ) ;
#537 = ORIENTED_EDGE ( 'NONE', *, *, #575, .T. ) ;
#538 = DIRECTION ( 'NONE',  ( -2.064542318590479697E-14, 5.063612617290160808E-15, 1.000000000000000000 ) ) ;
#539 = PLANE ( 'NONE',  #311 ) ;
#540 = ORIENTED_EDGE ( 'NONE', *, *, #505, .F. ) ;
#541 = CARTESIAN_POINT ( 'NONE',  ( 80.70400035973324293, 41.98438669238812793, 16.00000000000083134 ) ) ;
#542 = ORIENTED_EDGE ( 'NONE', *, *, #780, .T. ) ;
#543 = FACE_BOUND ( 'NONE', #85, .T. ) ;
#544 = FACE_OUTER_BOUND ( 'NONE', #1004, .T. ) ;
#545 = ORIENTED_EDGE ( 'NONE', *, *, #651, .F. ) ;
#546 = SURFACE_SIDE_STYLE ('',( #470 ) ) ;
#547 = VECTOR ( 'NONE', #654, 1000.000000000000000 ) ;
#548 = ORIENTED_EDGE ( 'NONE', *, *, #323, .F. ) ;
#549 = DIRECTION ( 'NONE',  ( -0.2382055930957891199, -0.9712147524712975155, -5.522026336547084039E-30 ) ) ;
#550 = CIRCLE ( 'NONE', #509, 4.000000000000004441 ) ;
#551 = PLANE ( 'NONE',  #1137 ) ;
#552 = VECTOR ( 'NONE', #143, 1000.000000000000000 ) ;
#553 = VERTEX_POINT ( 'NONE', #888 ) ;
#554 = PLANE ( 'NONE',  #249 ) ;
#555 = ORIENTED_EDGE ( 'NONE', *, *, #49, .T. ) ;
#556 = CARTESIAN_POINT ( 'NONE',  ( 47.45785694594552950, 7.923348589541160614, -84.69999999999964757 ) ) ;
#557 = LINE ( 'NONE', #468, #670 ) ;
#558 = ORIENTED_EDGE ( 'NONE', *, *, #950, .T. ) ;
#559 = EDGE_CURVE ( 'NONE', #368, #974, #706, .T. ) ;
#560 = ORIENTED_EDGE ( 'NONE', *, *, #219, .F. ) ;
#561 = LINE ( 'NONE', #1097, #973 ) ;
#562 = DIRECTION ( 'NONE',  ( -0.8865161908357671594, 0.4626975722716098471, -2.032605284982919830E-14 ) ) ;
#563 = ORIENTED_EDGE ( 'NONE', *, *, #389, .F. ) ;
#564 = EDGE_CURVE ( 'NONE', #802, #885, #252, .T. ) ;
#565 = ORIENTED_EDGE ( 'NONE', *, *, #968, .F. ) ;
#566 = DIRECTION ( 'NONE',  ( 2.064542318590480013E-14, -5.063612617290160808E-15, -1.000000000000000000 ) ) ;
#567 = CIRCLE ( 'NONE', #1100, 4.000000000000004441 ) ;
#568 = LINE ( 'NONE', #26, #606 ) ;
#569 = VECTOR ( 'NONE', #74, 1000.000000000000000 ) ;
#570 = VECTOR ( 'NONE', #80, 1000.000000000000114 ) ;
#571 = CARTESIAN_POINT ( 'NONE',  ( 74.08660246388589599, -14.42709151131415268, -84.69999999999897966 ) ) ;
#572 = ORIENTED_EDGE ( 'NONE', *, *, #740, .T. ) ;
#573 = CARTESIAN_POINT ( 'NONE',  ( 70.12294556246800425, 2.364381468490465821, -89.69999999999915019 ) ) ;
#574 = CARTESIAN_POINT ( 'NONE',  ( 78.50238354798504758, -5.868637001217929416, -84.69999999999893703 ) ) ;
#575 = EDGE_CURVE ( 'NONE', #1082, #238, #959, .T. ) ;
#576 = CARTESIAN_POINT ( 'NONE',  ( 77.78776676869766504, -8.782281258631858378, -84.69999999999893703 ) ) ;
#577 = CARTESIAN_POINT ( 'NONE',  ( 56.69951724927305747, -13.90644252493183330, 6.000000000000619060 ) ) ;
#578 = CARTESIAN_POINT ( 'NONE',  ( 43.07341979440534629, 8.998700306981950447, -64.19999999999976126 ) ) ;
#579 = EDGE_CURVE ( 'NONE', #745, #807, #679, .T. ) ;
#580 = ORIENTED_EDGE ( 'NONE', *, *, #1124, .F. ) ;
#581 = MANIFOLD_SOLID_BREP ( 'Lustro1', #529 ) ;
#582 = LINE ( 'NONE', #962, #779 ) ;
#583 = PRESENTATION_STYLE_ASSIGNMENT (( #1150 ) ) ;
#584 = CIRCLE ( 'NONE', #39, 4.949999999999999289 ) ;
#585 = CARTESIAN_POINT ( 'NONE',  ( 49.18489485254941940, -1.766980006573971806, -47.69999999999934204 ) ) ;
#586 = VECTOR ( 'NONE', #56, 1000.000000000000000 ) ;
#587 = AXIS2_PLACEMENT_3D ( 'NONE', #269, #86, #907 ) ;
#588 = VECTOR ( 'NONE', #828, 1000.000000000000000 ) ;
#589 = CARTESIAN_POINT ( 'NONE',  ( 56.69951724927318537, -13.90644252493186528, 6.205011829393094110E-13 ) ) ;
#590 = DIRECTION ( 'NONE',  ( 2.064542318590480013E-14, -5.063612617290160808E-15, -1.000000000000000000 ) ) ;
#591 = DIRECTION ( 'NONE',  ( 2.064542318590480013E-14, -5.063612617290160808E-15, -1.000000000000000000 ) ) ;
#592 = ORIENTED_EDGE ( 'NONE', *, *, #579, .T. ) ;
#593 = ADVANCED_FACE ( 'NONE', ( #1157 ), #226, .F. ) ;
#594 = EDGE_CURVE ( 'NONE', #477, #979, #172, .T. ) ;
#595 = CARTESIAN_POINT ( 'NONE',  ( 77.74638391349935773, 0.4946140980753802596, -84.69999999999897966 ) ) ;
#596 = LINE ( 'NONE', #1042, #312 ) ;
#597 = FACE_BOUND ( 'NONE', #795, .T. ) ;
#598 = EDGE_LOOP ( 'NONE', ( #439, #184, #719, #1162 ) ) ;
#599 = CARTESIAN_POINT ( 'NONE',  ( 51.32874519041151729, 6.973952765667713827, -47.69999999999934204 ) ) ;
#600 = ORIENTED_EDGE ( 'NONE', *, *, #128, .T. ) ;
#601 = SURFACE_STYLE_FILL_AREA ( #790 ) ;
#602 = DIRECTION ( 'NONE',  ( 7.196948688478284717E-15, -1.774603454483669093E-15, -1.000000000000000000 ) ) ;
#603 = AXIS2_PLACEMENT_3D ( 'NONE', #1153, #633, #169 ) ;
#604 = ORIENTED_EDGE ( 'NONE', *, *, #1068, .F. ) ;
#605 = VECTOR ( 'NONE', #1061, 1000.000000000000227 ) ;
#606 = VECTOR ( 'NONE', #127, 1000.000000000000000 ) ;
#607 = CARTESIAN_POINT ( 'NONE',  ( 42.58781241816983254, 9.117803103529809050, -47.69999999999953388 ) ) ;
#608 = ORIENTED_EDGE ( 'NONE', *, *, #675, .F. ) ;
#609 = CARTESIAN_POINT ( 'NONE',  ( 47.49923980114385103, -1.353546767166054376, -84.69999999999960494 ) ) ;
#610 = EDGE_CURVE ( 'NONE', #745, #1112, #446, .T. ) ;
#611 = CARTESIAN_POINT ( 'NONE',  ( 48.21385658043122646, 1.560097490247854379, -84.69999999999960494 ) ) ;
#612 = EDGE_LOOP ( 'NONE', ( #990, #98, #872, #890, #865, #79, #555, #1025 ) ) ;
#613 = LINE ( 'NONE', #361, #170 ) ;
#614 = ORIENTED_EDGE ( 'NONE', *, *, #479, .F. ) ;
#615 = CARTESIAN_POINT ( 'NONE',  ( 51.81027203011903026, -13.13327941990173997, 6.000000000000514255 ) ) ;
#616 = PLANE ( 'NONE',  #819 ) ;
#617 = ADVANCED_FACE ( 'NONE', ( #532 ), #357, .F. ) ;
#618 = EDGE_LOOP ( 'NONE', ( #929, #600, #1086, #660 ) ) ;
#619 = DIRECTION ( 'NONE',  ( -0.8865161908357671594, 0.4626975722716098471, -2.032605284982919830E-14 ) ) ;
#620 = ORIENTED_EDGE ( 'NONE', *, *, #780, .F. ) ;
#621 = CARTESIAN_POINT ( 'NONE',  ( 47.71427843877623332, 1.682626835305485846, -64.19999999999963336 ) ) ;
#622 = CARTESIAN_POINT ( 'NONE',  ( 85.36982226453115175, -1.375153272339821431, -79.69999999999858176 ) ) ;
#623 = ORIENTED_EDGE ( 'NONE', *, *, #700, .T. ) ;
#624 = AXIS2_PLACEMENT_3D ( 'NONE', #678, #1145, #233 ) ;
#625 = CARTESIAN_POINT ( 'NONE',  ( 52.32790147372101330, 6.728894075552568133, -89.69999999999954809 ) ) ;
#626 = CIRCLE ( 'NONE', #116, 4.950000000000013500 ) ;
#627 = EDGE_CURVE ( 'NONE', #347, #1130, #344, .T. ) ;
#628 = AXIS2_PLACEMENT_3D ( 'NONE', #524, #714, #72 ) ;
#629 = ORIENTED_EDGE ( 'NONE', *, *, #826, .T. ) ;
#630 = CARTESIAN_POINT ( 'NONE',  ( 42.58781241817026597, 9.117803103529704245, -89.69999999999974705 ) ) ;
#631 = PLANE ( 'NONE',  #416 ) ;
#632 = ORIENTED_EDGE ( 'NONE', *, *, #147, .F. ) ;
#633 = DIRECTION ( 'NONE',  ( -0.2382055930957884260, -0.9712147524712975155, 7.099748146989106249E-30 ) ) ;
#634 = EDGE_CURVE ( 'NONE', #1096, #456, #840, .T. ) ;
#635 = EDGE_CURVE ( 'NONE', #469, #194, #1103, .T. ) ;
#636 = VERTEX_POINT ( 'NONE', #1093 ) ;
#637 = FACE_OUTER_BOUND ( 'NONE', #757, .T. ) ;
#638 = DIRECTION ( 'NONE',  ( 0.2382055930957884815, 0.9712147524712976265, -8.677469957431129860E-30 ) ) ;
#639 = ORIENTED_EDGE ( 'NONE', *, *, #141, .F. ) ;
#640 = ORIENTED_EDGE ( 'NONE', *, *, #594, .T. ) ;
#641 = LINE ( 'NONE', #901, #570 ) ;
#642 = DIRECTION ( 'NONE',  ( 0.9712147524712975155, -0.2382055930957881484, 2.081668171172166304E-14 ) ) ;
#643 = VERTEX_POINT ( 'NONE', #621 ) ;
#644 = VECTOR ( 'NONE', #1163, 1000.000000000000000 ) ;
#645 = VERTEX_POINT ( 'NONE', #282 ) ;
#646 = CARTESIAN_POINT ( 'NONE',  ( 43.29849735467708172, -6.875827674790735422, -64.19999999999967599 ) ) ;
#647 = CIRCLE ( 'NONE', #799, 2.250000000000004441 ) ;
#648 = DIRECTION ( 'NONE',  ( -0.2382055930957889534, -0.9712147524712974045, -3.155443620884047922E-30 ) ) ;
#649 = CIRCLE ( 'NONE', #75, 4.949999999999999289 ) ;
#650 = PRODUCT_DEFINITION ( 'UNKNOWN', '', #1111, #1101 ) ;
#651 = EDGE_CURVE ( 'NONE', #531, #71, #367, .T. ) ;
#652 = EDGE_LOOP ( 'NONE', ( #620, #159 ) ) ;
#653 = UNCERTAINTY_MEASURE_WITH_UNIT (LENGTH_MEASURE( 1.000000000000000082E-05 ), #396, 'distance_accuracy_value', 'NONE');
#654 = DIRECTION ( 'NONE',  ( -0.9712147524712970714, 0.2382055930957903134, -2.125732041587262806E-14 ) ) ;
#655 = EDGE_LOOP ( 'NONE', ( #356, #171 ) ) ;
#656 = CYLINDRICAL_SURFACE ( 'NONE', #490, 4.000000000000003553 ) ;
#657 = CARTESIAN_POINT ( 'NONE',  ( 61.39165298868685028, -15.48326280730895377, 6.000000000000724754 ) ) ;
#658 = VERTEX_POINT ( 'NONE', #364 ) ;
#659 = ADVANCED_FACE ( 'NONE', ( #803, #1166, #350, #1072 ), #262, .T. ) ;
#660 = ORIENTED_EDGE ( 'NONE', *, *, #445, .F. ) ;
#661 = CARTESIAN_POINT ( 'NONE',  ( 76.27183565694630829, -14.96305409577967538, -84.69999999999893703 ) ) ;
#662 = DIRECTION ( 'NONE',  ( 2.064542318590479066E-14, -5.063612617290155286E-15, -1.000000000000000000 ) ) ;
#663 = DIRECTION ( 'NONE',  ( -0.2382055930957889811, -0.9712147524712974045, -3.155443620884047922E-30 ) ) ;
#664 = CARTESIAN_POINT ( 'NONE',  ( 0.000000000000000000, 0.000000000000000000, 0.000000000000000000 ) ) ;
#665 = ORIENTED_EDGE ( 'NONE', *, *, #938, .F. ) ;
#666 = EDGE_CURVE ( 'NONE', #900, #1082, #641, .T. ) ;
#667 = DIRECTION ( 'NONE',  ( 0.2382055930957884815, 0.9712147524712976265, -8.677469957431129860E-30 ) ) ;
#668 = CIRCLE ( 'NONE', #1158, 4.000000000000004441 ) ;
#669 = DIRECTION ( 'NONE',  ( 0.9479062099825827925, -0.3185495519953776555, 2.118293637635347083E-14 ) ) ;
#670 = VECTOR ( 'NONE', #859, 1000.000000000000227 ) ;
#671 = VECTOR ( 'NONE', #17, 1000.000000000000000 ) ;
#672 = DIRECTION ( 'NONE',  ( 0.2382055930957889811, 0.9712147524712974045, 3.155443620884047922E-30 ) ) ;
#673 = EDGE_LOOP ( 'NONE', ( #694, #392, #1052, #824 ) ) ;
#674 = CARTESIAN_POINT ( 'NONE',  ( 55.12264940479020936, 7.813174359106405120, 27.28120640432687694 ) ) ;
#675 = EDGE_CURVE ( 'NONE', #28, #954, #1010, .T. ) ;
#676 = DIRECTION ( 'NONE',  ( 0.2382055930957884815, 0.9712147524712976265, -8.677469957431129860E-30 ) ) ;
#677 = EDGE_LOOP ( 'NONE', ( #560, #101, #623, #292 ) ) ;
#678 = CARTESIAN_POINT ( 'NONE',  ( 76.31715035492463528, -5.332674416752405833, -84.69999999999897966 ) ) ;
#679 = LINE ( 'NONE', #333, #272 ) ;
#680 = ORIENTED_EDGE ( 'NONE', *, *, #527, .F. ) ;
#681 = PLANE ( 'NONE',  #725 ) ;
#682 = DIRECTION ( 'NONE',  ( -0.2382055930957884260, -0.9712147524712975155, 7.099748146989106249E-30 ) ) ;
#683 = AXIS2_PLACEMENT_3D ( 'NONE', #595, #321, #58 ) ;
#684 = CARTESIAN_POINT ( 'NONE',  ( 56.69951724927307879, -13.90644252493183863, 5.000000000000619949 ) ) ;
#685 = VECTOR ( 'NONE', #458, 1000.000000000000227 ) ;
#686 = EDGE_CURVE ( 'NONE', #194, #469, #530, .T. ) ;
#687 = AXIS2_PLACEMENT_3D ( 'NONE', #518, #1131, #774 ) ;
#688 = ADVANCED_FACE ( 'NONE', ( #637, #543 ), #912, .T. ) ;
#689 = AXIS2_PLACEMENT_3D ( 'NONE', #472, #314, #209 ) ;
#690 = DIRECTION ( 'NONE',  ( 0.9712147524712975155, -0.2382055930957881484, 2.081668171172166304E-14 ) ) ;
#691 = DIRECTION ( 'NONE',  ( -0.9712147524712974045, 0.2382055930957888978, -2.125732041587263122E-14 ) ) ;
#692 = CARTESIAN_POINT ( 'NONE',  ( 59.79618995951821603, -1.280650742805887532, 6.204095066996880730E-13 ) ) ;
#693 = EDGE_CURVE ( 'NONE', #1156, #347, #287, .T. ) ;
#694 = ORIENTED_EDGE ( 'NONE', *, *, #1091, .T. ) ;
#695 = LINE ( 'NONE', #239, #1121 ) ;
#696 = FILL_AREA_STYLE_COLOUR ( '', #727 ) ;
#697 = CARTESIAN_POINT ( 'NONE',  ( 61.39165298868685028, -15.48326280730895377, 6.000000000000724754 ) ) ;
#698 = ORIENTED_EDGE ( 'NONE', *, *, #103, .F. ) ;
#699 = DIRECTION ( 'NONE',  ( -0.2382055930957889534, -0.9712147524712974045, -3.155443620884047922E-30 ) ) ;
#700 = EDGE_CURVE ( 'NONE', #13, #363, #931, .T. ) ;
#701 = DIRECTION ( 'NONE',  ( -2.064542318590480013E-14, 5.063612617290160808E-15, 1.000000000000000000 ) ) ;
#702 = DIRECTION ( 'NONE',  ( 0.9712147524712975155, -0.2382055930957881484, 2.081668171172166304E-14 ) ) ;
#703 = VECTOR ( 'NONE', #502, 1000.000000000000114 ) ;
#704 = ORIENTED_EDGE ( 'NONE', *, *, #69, .F. ) ;
#705 = CIRCLE ( 'NONE', #744, 4.000000000000004441 ) ;
#706 = CIRCLE ( 'NONE', #345, 4.000000000000004441 ) ;
#707 = DIRECTION ( 'NONE',  ( 2.064542318590480013E-14, -5.063612617290160808E-15, -1.000000000000000000 ) ) ;
#708 = ORIENTED_EDGE ( 'NONE', *, *, #992, .T. ) ;
#709 = EDGE_CURVE ( 'NONE', #469, #175, #561, .T. ) ;
#710 = DIRECTION ( 'NONE',  ( -0.1561945666727455329, -0.9877263068997976792, 1.776760461749375990E-15 ) ) ;
#711 = ORIENTED_EDGE ( 'NONE', *, *, #498, .T. ) ;
#712 = DIRECTION ( 'NONE',  ( 0.9712147524712975155, -0.2382055930957881484, 2.081668171172166304E-14 ) ) ;
#713 = ORIENTED_EDGE ( 'NONE', *, *, #218, .T. ) ;
#714 = DIRECTION ( 'NONE',  ( -0.2382055930957884260, -0.9712147524712975155, 7.099748146989106249E-30 ) ) ;
#715 = DIRECTION ( 'NONE',  ( 2.064542318590480013E-14, -5.063612617290160808E-15, -1.000000000000000000 ) ) ;
#716 = EDGE_CURVE ( 'NONE', #954, #28, #493, .T. ) ;
#717 = ORIENTED_EDGE ( 'NONE', *, *, #627, .F. ) ;
#718 = LINE ( 'NONE', #1076, #151 ) ;
#719 = ORIENTED_EDGE ( 'NONE', *, *, #634, .F. ) ;
#720 = DIRECTION ( 'NONE',  ( -0.2382055930957981127, -0.9712147524712950730, -2.035261135470210906E-28 ) ) ;
#721 = LINE ( 'NONE', #278, #475 ) ;
#722 = ORIENTED_EDGE ( 'NONE', *, *, #492, .T. ) ;
#723 = EDGE_CURVE ( 'NONE', #636, #553, #649, .T. ) ;
#724 = ADVANCED_FACE ( 'NONE', ( #478 ), #126, .F. ) ;
#725 = AXIS2_PLACEMENT_3D ( 'NONE', #589, #47, #789 ) ;
#726 = LINE ( 'NONE', #899, #875 ) ;
#727 = COLOUR_RGB ( '',0.5019607843137254832, 0.000000000000000000, 0.5019607843137254832 ) ;
#728 = ORIENTED_EDGE ( 'NONE', *, *, #162, .F. ) ;
#729 = CARTESIAN_POINT ( 'NONE',  ( 88.08204568902472431, -11.30711401006028005, -40.19999999999848228 ) ) ;
#730 = DIRECTION ( 'NONE',  ( 0.9712147524712975155, -0.2382055930957882317, 1.850371707708596338E-14 ) ) ;
#731 = ORIENTED_EDGE ( 'NONE', *, *, #810, .F. ) ;
#732 = DIRECTION ( 'NONE',  ( -2.064542318590480013E-14, 5.063612617290160808E-15, 1.000000000000000000 ) ) ;
#733 = ORIENTED_EDGE ( 'NONE', *, *, #723, .F. ) ;
#734 = DIRECTION ( 'NONE',  ( 0.9712147524712975155, -0.2382055930957885925, 2.081668171172166304E-14 ) ) ;
#735 = FACE_OUTER_BOUND ( 'NONE', #1180, .T. ) ;
#736 = ORIENTED_EDGE ( 'NONE', *, *, #1085, .F. ) ;
#737 = CARTESIAN_POINT ( 'NONE',  ( 61.27970531030948109, 46.74849855430340284, -89.69999999999930651 ) ) ;
#738 = ORIENTED_EDGE ( 'NONE', *, *, #177, .F. ) ;
#739 = DIRECTION ( 'NONE',  ( 0.9712147524712974045, -0.2382055930957887313, 2.125732041587262806E-14 ) ) ;
#740 = EDGE_CURVE ( 'NONE', #838, #645, #99, .T. ) ;
#741 = DIRECTION ( 'NONE',  ( 0.9712147524712975155, -0.2382055930957881484, 2.081668171172166304E-14 ) ) ;
#742 = ORIENTED_EDGE ( 'NONE', *, *, #914, .T. ) ;
#743 = COLOUR_RGB ( '',0.5019607843137254832, 0.000000000000000000, 0.5019607843137254832 ) ;
#744 = AXIS2_PLACEMENT_3D ( 'NONE', #1067, #254, #702 ) ;
#745 = VERTEX_POINT ( 'NONE', #573 ) ;
#746 = FACE_BOUND ( 'NONE', #242, .T. ) ;
#747 = EDGE_CURVE ( 'NONE', #157, #645, #839, .T. ) ;
#748 = FACE_OUTER_BOUND ( 'NONE', #481, .T. ) ;
#749 = CIRCLE ( 'NONE', #1104, 4.949999999999999289 ) ;
#750 = ORIENTED_EDGE ( 'NONE', *, *, #88, .F. ) ;
#751 = DIRECTION ( 'NONE',  ( 1.000000000000000000, 0.000000000000000000, 0.000000000000000000 ) ) ;
#752 = ORIENTED_EDGE ( 'NONE', *, *, #1142, .F. ) ;
#753 = DIRECTION ( 'NONE',  ( -0.9712147524712970714, 0.2382055930957903411, -2.125732041587262806E-14 ) ) ;
#754 = PLANE ( 'NONE',  #137 ) ;
#755 = CARTESIAN_POINT ( 'NONE',  ( 41.15857885959510298, 3.290514588702017296, -47.69999999999953388 ) ) ;
#756 = ADVANCED_FACE ( 'NONE', ( #746, #467 ), #925, .T. ) ;
#757 = EDGE_LOOP ( 'NONE', ( #1057, #123, #548, #827 ) ) ;
#758 = CARTESIAN_POINT ( 'NONE',  ( 59.79618995951821603, -1.280650742805903075, 6.205011829393094110E-13 ) ) ;
#759 = DIRECTION ( 'NONE',  ( 0.9712147524712975155, -0.2382055930957883427, 1.850371707708590973E-14 ) ) ;
#760 = FACE_OUTER_BOUND ( 'NONE', #508, .T. ) ;
#761 = EDGE_CURVE ( 'NONE', #71, #531, #23, .T. ) ;
#762 = VERTEX_POINT ( 'NONE', #29 ) ;
#763 = FACE_OUTER_BOUND ( 'NONE', #612, .T. ) ;
#764 = CIRCLE ( 'NONE', #952, 4.000000000000004441 ) ;
#765 = CARTESIAN_POINT ( 'NONE',  ( 61.39165298868684317, -15.48326280730895377, 6.000000000000724754 ) ) ;
#766 = AXIS2_PLACEMENT_3D ( 'NONE', #692, #161, #506 ) ;
#767 = VECTOR ( 'NONE', #1171, 1000.000000000000000 ) ;
#768 = CARTESIAN_POINT ( 'NONE',  ( 83.22597192666924570, -10.11608604458158034, -89.69999999999856755 ) ) ;
#769 = DIRECTION ( 'NONE',  ( -0.9712147524712970714, 0.2382055930957903411, -2.125732041587262806E-14 ) ) ;
#770 = ORIENTED_EDGE ( 'NONE', *, *, #421, .T. ) ;
#771 = CARTESIAN_POINT ( 'NONE',  ( 63.00685621633004985, -26.64942489538191595, -79.69999999999916440 ) ) ;
#772 = CYLINDRICAL_SURFACE ( 'NONE', #152, 2.250000000000003997 ) ;
#773 = LINE ( 'NONE', #1133, #1178 ) ;
#774 = DIRECTION ( 'NONE',  ( -0.9712147524712977376, 0.2382055930957879819, -2.081668171172166620E-14 ) ) ;
#775 = ADVANCED_FACE ( 'NONE', ( #763 ), #25, .F. ) ;
#776 = LINE ( 'NONE', #585, #1122 ) ;
#777 = DIRECTION ( 'NONE',  ( -7.196948688478284717E-15, 1.774603454483669093E-15, 1.000000000000000000 ) ) ;
#778 = CARTESIAN_POINT ( 'NONE',  ( 80.20200936480981113, -6.285496789135591733, -84.69999999999889440 ) ) ;
#779 = VECTOR ( 'NONE', #424, 1000.000000000000000 ) ;
#780 = EDGE_CURVE ( 'NONE', #89, #1019, #76, .T. ) ;
#781 = DIRECTION ( 'NONE',  ( 2.025758586219982959E-14, -5.056868193918387290E-15, -1.000000000000000000 ) ) ;
#782 = CIRCLE ( 'NONE', #213, 2.250000000000003997 ) ;
#783 = VECTOR ( 'NONE', #513, 1000.000000000000000 ) ;
#784 = ORIENTED_EDGE ( 'NONE', *, *, #740, .F. ) ;
#785 = DIRECTION ( 'NONE',  ( -0.2382055930957884260, -0.9712147524712975155, 7.099748146989106249E-30 ) ) ;
#786 = DIRECTION ( 'NONE',  ( 0.9712147524712975155, -0.2382055930957881484, 2.081668171172166304E-14 ) ) ;
#787 = ORIENTED_EDGE ( 'NONE', *, *, #103, .T. ) ;
#788 = EDGE_CURVE ( 'NONE', #238, #400, #1026, .T. ) ;
#789 = DIRECTION ( 'NONE',  ( -0.8865161908357671594, 0.4626975722716101247, -2.064542318590479066E-14 ) ) ;
#790 = FILL_AREA_STYLE ('',( #696 ) ) ;
#791 = DIRECTION ( 'NONE',  ( -0.2382055930957884260, -0.9712147524712975155, 7.099748146989106249E-30 ) ) ;
#792 = ORIENTED_EDGE ( 'NONE', *, *, #438, .F. ) ;
#793 = EDGE_CURVE ( 'NONE', #1130, #636, #749, .T. ) ;
#794 = CARTESIAN_POINT ( 'NONE',  ( 85.36982226453135070, -1.375153272339871613, -89.69999999999856755 ) ) ;
#795 = EDGE_LOOP ( 'NONE', ( #259, #1037 ) ) ;
#796 = CYLINDRICAL_SURFACE ( 'NONE', #491, 4.950000000000000178 ) ;
#797 = VECTOR ( 'NONE', #881, 1000.000000000000227 ) ;
#798 = AXIS2_PLACEMENT_3D ( 'NONE', #996, #815, #741 ) ;
#799 = AXIS2_PLACEMENT_3D ( 'NONE', #412, #236, #956 ) ;
#800 = VECTOR ( 'NONE', #48, 1000.000000000000000 ) ;
#801 = DIRECTION ( 'NONE',  ( -0.9712147524712975155, 0.2382055930957882872, -2.125732041587262175E-14 ) ) ;
#802 = VERTEX_POINT ( 'NONE', #198 ) ;
#803 = FACE_BOUND ( 'NONE', #45, .T. ) ;
#804 = DIRECTION ( 'NONE',  ( -0.9712147524712975155, 0.2382055930957882595, -3.716940688786794130E-14 ) ) ;
#805 = VERTEX_POINT ( 'NONE', #483 ) ;
#806 = DIRECTION ( 'NONE',  ( 2.064542318590480013E-14, -5.063612617290160808E-15, -1.000000000000000000 ) ) ;
#807 = VERTEX_POINT ( 'NONE', #222 ) ;
#808 = CARTESIAN_POINT ( 'NONE',  ( 44.81442846642844557, -0.6950548376428931086, -64.19999999999967599 ) ) ;
#809 = DIRECTION ( 'NONE',  ( -0.9712147524712975155, 0.2382055930957882872, -2.125732041587262175E-14 ) ) ;
#810 = EDGE_CURVE ( 'NONE', #979, #1064, #853, .T. ) ;
#811 = EDGE_LOOP ( 'NONE', ( #444, #59, #189, #542 ) ) ;
#812 = LINE ( 'NONE', #910, #192 ) ;
#813 = ORIENTED_EDGE ( 'NONE', *, *, #666, .F. ) ;
#814 = CARTESIAN_POINT ( 'NONE',  ( 45.31400660808343162, -0.8175841827005280171, -84.69999999999964757 ) ) ;
#815 = DIRECTION ( 'NONE',  ( -0.2382055930957884260, -0.9712147524712975155, 7.099748146989106249E-30 ) ) ;
#816 = EDGE_LOOP ( 'NONE', ( #738, #545, #375, #580 ) ) ;
#817 = CIRCLE ( 'NONE', #414, 2.249999999999997335 ) ;
#818 = CARTESIAN_POINT ( 'NONE',  ( 49.91348239725599711, 1.143237702330225369, -84.69999999999956231 ) ) ;
#819 = AXIS2_PLACEMENT_3D ( 'NONE', #352, #82, #809 ) ;
#820 = VECTOR ( 'NONE', #105, 1000.000000000000000 ) ;
#821 = ORIENTED_EDGE ( 'NONE', *, *, #564, .F. ) ;
#822 =( LENGTH_UNIT ( ) NAMED_UNIT ( * ) SI_UNIT ( .MILLI., .METRE. ) );
#823 = FACE_OUTER_BOUND ( 'NONE', #942, .T. ) ;
#824 = ORIENTED_EDGE ( 'NONE', *, *, #422, .T. ) ;
#825 = LINE ( 'NONE', #737, #547 ) ;
#826 = EDGE_CURVE ( 'NONE', #347, #838, #35, .T. ) ;
#827 = ORIENTED_EDGE ( 'NONE', *, *, #610, .F. ) ;
#828 = DIRECTION ( 'NONE',  ( 0.2382055930957981404, 0.9712147524712950730, 2.035261135470210906E-28 ) ) ;
#829 = LINE ( 'NONE', #10, #20 ) ;
#830 = ORIENTED_EDGE ( 'NONE', *, *, #869, .T. ) ;
#831 = ADVANCED_FACE ( 'NONE', ( #296 ), #656, .F. ) ;
#832 = VERTEX_POINT ( 'NONE', #418 ) ;
#833 = CARTESIAN_POINT ( 'NONE',  ( 44.81442846642844557, -0.6950548376428931086, -64.19999999999967599 ) ) ;
#834 = CARTESIAN_POINT ( 'NONE',  ( 61.27970531030729973, 46.74849855430393575, 16.00000000000040856 ) ) ;
#835 = FACE_OUTER_BOUND ( 'NONE', #677, .T. ) ;
#836 = AXIS2_PLACEMENT_3D ( 'NONE', #44, #856, #769 ) ;
#837 = AXIS2_PLACEMENT_3D ( 'NONE', #571, #934, #304 ) ;
#838 = VERTEX_POINT ( 'NONE', #497 ) ;
#839 = LINE ( 'NONE', #1125, #384 ) ;
#840 = CIRCLE ( 'NONE', #215, 4.000000000000004441 ) ;
#841 = CARTESIAN_POINT ( 'NONE',  ( 40.44396208030816098, 0.3768703312880209433, -89.69999999999974705 ) ) ;
#842 = DIRECTION ( 'NONE',  ( 0.9712147524712974045, -0.2382055930957889811, 7.412503207414172982E-15 ) ) ;
#843 = PRODUCT_CONTEXT ( 'NONE', #847, 'mechanical' ) ;
#844 = EDGE_LOOP ( 'NONE', ( #330, #943, #280, #182, #1095, #138 ) ) ;
#845 = DIRECTION ( 'NONE',  ( -0.9712147524712972935, 0.2382055930957889811, -2.467162276944794591E-14 ) ) ;
#846 = LINE ( 'NONE', #765, #402 ) ;
#847 = APPLICATION_CONTEXT ( 'automotive_design' ) ;
#848 = EDGE_CURVE ( 'NONE', #194, #517, #1129, .T. ) ;
#849 = EDGE_CURVE ( 'NONE', #832, #658, #248, .T. ) ;
#850 = FACE_OUTER_BOUND ( 'NONE', #378, .T. ) ;
#851 = FACE_OUTER_BOUND ( 'NONE', #83, .T. ) ;
#852 = EDGE_LOOP ( 'NONE', ( #149, #733, #339, #717, #163 ) ) ;
#853 = LINE ( 'NONE', #463, #588 ) ;
#854 = CARTESIAN_POINT ( 'NONE',  ( 61.27970531030948109, 46.74849855430340284, -89.69999999999930651 ) ) ;
#855 = CARTESIAN_POINT ( 'NONE',  ( 51.81027203011904447, -13.13327941990174352, 6.000000000000514255 ) ) ;
#856 = DIRECTION ( 'NONE',  ( -0.1684367901945832136, -0.6867525374608760558, -0.7071067811865433539 ) ) ;
#857 =( GEOMETRIC_REPRESENTATION_CONTEXT ( 3 ) GLOBAL_UNCERTAINTY_ASSIGNED_CONTEXT ( ( #916 ) ) GLOBAL_UNIT_ASSIGNED_CONTEXT ( ( #391, #1008, #124 ) ) REPRESENTATION_CONTEXT ( 'NONE', 'WORKASPACE' ) );
#858 = ORIENTED_EDGE ( 'NONE', *, *, #359, .T. ) ;
#859 = DIRECTION ( 'NONE',  ( -0.2382055930957884260, -0.9712147524712974045, 7.888609052210116653E-30 ) ) ;
#860 = CIRCLE ( 'NONE', #798, 4.000000000000004441 ) ;
#861 =( GEOMETRIC_REPRESENTATION_CONTEXT ( 3 ) GLOBAL_UNCERTAINTY_ASSIGNED_CONTEXT ( ( #460 ) ) GLOBAL_UNIT_ASSIGNED_CONTEXT ( ( #822, #190, #5 ) ) REPRESENTATION_CONTEXT ( 'NONE', 'WORKASPACE' ) );
#862 = LINE ( 'NONE', #855, #270 ) ;
#863 = ADVANCED_FACE ( 'NONE', ( #487 ), #511, .F. ) ;
#864 = LINE ( 'NONE', #873, #362 ) ;
#865 = ORIENTED_EDGE ( 'NONE', *, *, #826, .F. ) ;
#866 = LINE ( 'NONE', #977, #1083 ) ;
#867 = DIRECTION ( 'NONE',  ( 0.9712147524712975155, -0.2382055930957883427, 1.850371707708590973E-14 ) ) ;
#868 = DIRECTION ( 'NONE',  ( -0.2382055930957884260, -0.9712147524712974045, 7.888609052210116653E-30 ) ) ;
#869 = EDGE_CURVE ( 'NONE', #432, #658, #582, .T. ) ;
#870 = LINE ( 'NONE', #1050, #783 ) ;
#871 = PLANE ( 'NONE',  #766 ) ;
#872 = ORIENTED_EDGE ( 'NONE', *, *, #1068, .T. ) ;
#873 = CARTESIAN_POINT ( 'NONE',  ( 73.86152490361416767, 1.447436470458534075, -84.69999999999906493 ) ) ;
#874 = CARTESIAN_POINT ( 'NONE',  ( 56.69951724927318537, -13.90644252493186528, 6.205011829393094110E-13 ) ) ;
#875 = VECTOR ( 'NONE', #801, 1000.000000000000114 ) ;
#876 = CARTESIAN_POINT ( 'NONE',  ( 42.58781241816983254, 9.117803103529809050, -47.69999999999953388 ) ) ;
#877 = AXIS2_PLACEMENT_3D ( 'NONE', #926, #676, #759 ) ;
#878 = EDGE_CURVE ( 'NONE', #994, #643, #817, .T. ) ;
#879 = AXIS2_PLACEMENT_3D ( 'NONE', #1134, #46, #408 ) ;
#880 = EDGE_LOOP ( 'NONE', ( #961, #96, #343, #639, #813, #565 ) ) ;
#881 = DIRECTION ( 'NONE',  ( 0.2382055930957884260, 0.9712147524712974045, -8.677469957431128458E-30 ) ) ;
#882 = CARTESIAN_POINT ( 'NONE',  ( 67.97909522460571452, -6.376551303751194055, -89.69999999999915019 ) ) ;
#883 = CARTESIAN_POINT ( 'NONE',  ( 70.36115115556407318, 3.335596220962395719, -79.69999999999916440 ) ) ;
#884 = EDGE_CURVE ( 'NONE', #531, #1096, #864, .T. ) ;
#885 = VERTEX_POINT ( 'NONE', #951 ) ;
#886 = CARTESIAN_POINT ( 'NONE',  ( 72.43229134503941680, -4.379852044369279440, -84.69999999999906493 ) ) ;
#887 = EDGE_LOOP ( 'NONE', ( #62, #125, #428, #604, #731 ) ) ;
#888 = CARTESIAN_POINT ( 'NONE',  ( 61.39165298868684317, -15.48326280730895377, 6.000000000000724754 ) ) ;
#889 = DIRECTION ( 'NONE',  ( -0.2382055930957884260, -0.9712147524712974045, 7.888609052210116653E-30 ) ) ;
#890 = ORIENTED_EDGE ( 'NONE', *, *, #461, .T. ) ;
#891 = CARTESIAN_POINT ( 'NONE',  ( 49.41390425560100397, 1.265767047387857724, -64.19999999999959073 ) ) ;
#892 = ORIENTED_EDGE ( 'NONE', *, *, #283, .T. ) ;
#893 = CARTESIAN_POINT ( 'NONE',  ( 70.99185283502049515, 44.36644262334596789, 6.000000000000619060 ) ) ;
#894 = CARTESIAN_POINT ( 'NONE',  ( 76.31715035492463528, -5.332674416752405833, -84.69999999999897966 ) ) ;
#895 = STYLED_ITEM ( 'NONE', ( #117 ), #1038 ) ;
#896 = VECTOR ( 'NONE', #324, 1000.000000000000227 ) ;
#897 = VERTEX_POINT ( 'NONE', #150 ) ;
#898 = AXIS2_PLACEMENT_3D ( 'NONE', #1106, #1118, #376 ) ;
#899 = CARTESIAN_POINT ( 'NONE',  ( 52.32790147372079304, 6.728894075552624088, -79.69999999999954809 ) ) ;
#900 = VERTEX_POINT ( 'NONE', #599 ) ;
#901 = CARTESIAN_POINT ( 'NONE',  ( 51.32874519041151729, 6.973952765667713827, -47.69999999999934204 ) ) ;
#902 = FACE_OUTER_BOUND ( 'NONE', #880, .T. ) ;
#903 = EDGE_LOOP ( 'NONE', ( #306, #68 ) ) ;
#904 = CARTESIAN_POINT ( 'NONE',  ( 63.00685621633025590, -26.64942489538196924, -89.69999999999915019 ) ) ;
#905 = ORIENTED_EDGE ( 'NONE', *, *, #634, .T. ) ;
#906 = ADVANCED_FACE ( 'NONE', ( #403 ), #681, .F. ) ;
#907 = DIRECTION ( 'NONE',  ( -0.9712147524712974045, 0.2382055930957889811, -2.467162276944787333E-14 ) ) ;
#908 = DIRECTION ( 'NONE',  ( -0.9712147524712977376, 0.2382055930957879819, -2.081668171172166620E-14 ) ) ;
#909 = ORIENTED_EDGE ( 'NONE', *, *, #407, .F. ) ;
#910 = CARTESIAN_POINT ( 'NONE',  ( 59.71227485969157556, 36.83655140216345103, -115.0864105915997300 ) ) ;
#911 = VERTEX_POINT ( 'NONE', #494 ) ;
#912 = PLANE ( 'NONE',  #510 ) ;
#913 = CYLINDRICAL_SURFACE ( 'NONE', #1081, 2.249999999999997335 ) ;
#914 = EDGE_CURVE ( 'NONE', #954, #643, #773, .T. ) ;
#915 = ORIENTED_EDGE ( 'NONE', *, *, #1032, .T. ) ;
#916 = UNCERTAINTY_MEASURE_WITH_UNIT (LENGTH_MEASURE( 1.000000000000000082E-05 ), #391, 'distance_accuracy_value', 'NONE');
#917 = APPLICATION_PROTOCOL_DEFINITION ( 'draft international standard', 'automotive_design', 1998, #847 ) ;
#918 = VECTOR ( 'NONE', #246, 1000.000000000000227 ) ;
#919 = VECTOR ( 'NONE', #1055, 1000.000000000000000 ) ;
#920 = ORIENTED_EDGE ( 'NONE', *, *, #274, .F. ) ;
#921 = DIRECTION ( 'NONE',  ( -2.064542318590479066E-14, 5.063612617290155286E-15, 1.000000000000000000 ) ) ;
#922 = ORIENTED_EDGE ( 'NONE', *, *, #635, .F. ) ;
#923 =( NAMED_UNIT ( * ) PLANE_ANGLE_UNIT ( ) SI_UNIT ( $, .RADIAN. ) );
#924 = ORIENTED_EDGE ( 'NONE', *, *, #878, .T. ) ;
#925 = PLANE ( 'NONE',  #1044 ) ;
#926 = CARTESIAN_POINT ( 'NONE',  ( 43.79807549633206776, -6.998357019848365113, -84.69999999999964757 ) ) ;
#927 = ORIENTED_EDGE ( 'NONE', *, *, #274, .T. ) ;
#928 = DIRECTION ( 'NONE',  ( -0.9712147524712975155, 0.2382055930957881484, -2.081668171172166304E-14 ) ) ;
#929 = ORIENTED_EDGE ( 'NONE', *, *, #122, .F. ) ;
#930 = ADVANCED_FACE ( 'NONE', ( #40 ), #336, .T. ) ;
#931 = LINE ( 'NONE', #661, #1 ) ;
#932 = PRODUCT_DEFINITION_SHAPE ( 'NONE', 'NONE',  #650 ) ;
#933 = DIRECTION ( 'NONE',  ( -2.064542318590479066E-14, 5.063612617290155286E-15, 1.000000000000000000 ) ) ;
#934 = DIRECTION ( 'NONE',  ( 0.2382055930957884815, 0.9712147524712976265, -8.677469957431129860E-30 ) ) ;
#935 = AXIS2_PLACEMENT_3D ( 'NONE', #755, #1120, #672 ) ;
#936 = ORIENTED_EDGE ( 'NONE', *, *, #452, .F. ) ;
#937 = DIRECTION ( 'NONE',  ( -0.8865161908357670484, 0.4626975722716101247, -2.067650203689527881E-14 ) ) ;
#938 = EDGE_CURVE ( 'NONE', #1112, #11, #695, .T. ) ;
#939 = CIRCLE ( 'NONE', #232, 2.250000000000003997 ) ;
#940 = EDGE_CURVE ( 'NONE', #145, #91, #764, .T. ) ;
#941 = DIRECTION ( 'NONE',  ( 0.8865161908357671594, -0.4626975722716101247, 2.064542318590479066E-14 ) ) ;
#942 = EDGE_LOOP ( 'NONE', ( #1138, #1170, #286, #784 ) ) ;
#943 = ORIENTED_EDGE ( 'NONE', *, *, #723, .T. ) ;
#944 = CARTESIAN_POINT ( 'NONE',  ( 56.69951724927305747, -13.90644252493183330, 6.000000000000619060 ) ) ;
#945 = DIRECTION ( 'NONE',  ( -0.9712147524712977376, 0.2382055930957879819, -2.081668171172166620E-14 ) ) ;
#946 = VERTEX_POINT ( 'NONE', #52 ) ;
#947 = CARTESIAN_POINT ( 'NONE',  ( 51.81027203011884552, -13.13327941990169201, 16.00000000000051870 ) ) ;
#948 = LINE ( 'NONE', #153, #800 ) ;
#949 = CARTESIAN_POINT ( 'NONE',  ( 59.71227485969023263, 36.83655140216378499, -49.69999999999968310 ) ) ;
#950 = EDGE_CURVE ( 'NONE', #316, #363, #310, .T. ) ;
#951 = CARTESIAN_POINT ( 'NONE',  ( 52.31126210463611415, -11.61608954218743150, 5.183063381690806147E-13 ) ) ;
#952 = AXIS2_PLACEMENT_3D ( 'NONE', #317, #785, #1054 ) ;
#953 = AXIS2_PLACEMENT_3D ( 'NONE', #894, #1167, #186 ) ;
#954 = VERTEX_POINT ( 'NONE', #243 ) ;
#955 = MECHANICAL_DESIGN_GEOMETRIC_PRESENTATION_REPRESENTATION (  '', ( #417 ), #861 ) ;
#956 = DIRECTION ( 'NONE',  ( -0.9712147524712974045, 0.2382055930957886758, -2.467162276944787333E-14 ) ) ;
#957 = EDGE_CURVE ( 'NONE', #807, #157, #1039, .T. ) ;
#958 = CARTESIAN_POINT ( 'NONE',  ( 45.52904524571581391, 2.218589419771011428, -64.19999999999967599 ) ) ;
#959 = LINE ( 'NONE', #419, #552 ) ;
#960 = DIRECTION ( 'NONE',  ( 0.8865161908357669374, -0.4626975722716104023, 2.067650203689527565E-14 ) ) ;
#961 = ORIENTED_EDGE ( 'NONE', *, *, #1074, .F. ) ;
#962 = CARTESIAN_POINT ( 'NONE',  ( 61.27970531030750578, 46.74849855430387890, 6.000000000000406786 ) ) ;
#963 = EDGE_CURVE ( 'NONE', #807, #4, #1034, .T. ) ;
#964 = LINE ( 'NONE', #148, #55 ) ;
#965 = DIRECTION ( 'NONE',  ( 0.9712147524712977376, -0.2382055930957879819, 1.850371707708591289E-14 ) ) ;
#966 = ORIENTED_EDGE ( 'NONE', *, *, #1047, .F. ) ;
#967 = CARTESIAN_POINT ( 'NONE',  ( 77.50731894843856651, 32.47203879510131230, -115.0864105915993321 ) ) ;
#968 = EDGE_CURVE ( 'NONE', #1152, #900, #142, .T. ) ;
#969 = SURFACE_SIDE_STYLE ('',( #601 ) ) ;
#970 = EDGE_CURVE ( 'NONE', #448, #77, #668, .T. ) ;
#971 = AXIS2_PLACEMENT_3D ( 'NONE', #1070, #348, #619 ) ;
#972 = LINE ( 'NONE', #420, #1160 ) ;
#973 = VECTOR ( 'NONE', #14, 1000.000000000000227 ) ;
#974 = VERTEX_POINT ( 'NONE', #818 ) ;
#975 = LINE ( 'NONE', #434, #989 ) ;
#976 = ORIENTED_EDGE ( 'NONE', *, *, #957, .F. ) ;
#977 = CARTESIAN_POINT ( 'NONE',  ( 80.70400035973324293, 41.98438669238812793, 16.00000000000083134 ) ) ;
#978 = LINE ( 'NONE', #67, #896 ) ;
#979 = VERTEX_POINT ( 'NONE', #625 ) ;
#980 = LINE ( 'NONE', #1084, #455 ) ;
#981 = VERTEX_POINT ( 'NONE', #1174 ) ;
#982 = DIRECTION ( 'NONE',  ( 0.2382055930957889534, 0.9712147524712975155, 2.366582715663036117E-30 ) ) ;
#983 = FACE_BOUND ( 'NONE', #655, .T. ) ;
#984 = EDGE_CURVE ( 'NONE', #8, #415, #341, .T. ) ;
#985 = DIRECTION ( 'NONE',  ( -0.2382055930957889534, -0.9712147524712974045, -3.155443620884047922E-30 ) ) ;
#986 = ORIENTED_EDGE ( 'NONE', *, *, #709, .F. ) ;
#987 = DIRECTION ( 'NONE',  ( -0.2382055930957890921, -0.9712147524712974045, -6.310887241768094443E-30 ) ) ;
#988 = PLANE ( 'NONE',  #73 ) ;
#989 = VECTOR ( 'NONE', #158, 1000.000000000000000 ) ;
#990 = ORIENTED_EDGE ( 'NONE', *, *, #869, .F. ) ;
#991 = VECTOR ( 'NONE', #1000, 999.9999999999998863 ) ;
#992 = EDGE_CURVE ( 'NONE', #981, #462, #90, .T. ) ;
#993 = CARTESIAN_POINT ( 'NONE',  ( 51.81027203011904447, -13.13327941990174352, 6.000000000000514255 ) ) ;
#994 = VERTEX_POINT ( 'NONE', #429 ) ;
#995 = DIRECTION ( 'NONE',  ( -0.9712147524712974045, 0.2382055930957889811, -2.467162276944787333E-14 ) ) ;
#996 = CARTESIAN_POINT ( 'NONE',  ( 47.45785694594552950, 7.923348589541160614, -84.69999999999964757 ) ) ;
#997 = ORIENTED_EDGE ( 'NONE', *, *, #716, .T. ) ;
#998 = CARTESIAN_POINT ( 'NONE',  ( 67.97909522460550136, -6.376551303751142541, -79.69999999999916440 ) ) ;
#999 = ORIENTED_EDGE ( 'NONE', *, *, #1032, .F. ) ;
#1000 = DIRECTION ( 'NONE',  ( 0.9712147524712976265, -0.2382055930957882317, 3.716940688786794130E-14 ) ) ;
#1001 = EDGE_CURVE ( 'NONE', #1019, #89, #567, .T. ) ;
#1002 = DIRECTION ( 'NONE',  ( -0.9712147524712974045, 0.2382055930957888701, -2.125732041587262490E-14 ) ) ;
#1003 = VERTEX_POINT ( 'NONE', #541 ) ;
#1004 = EDGE_LOOP ( 'NONE', ( #37, #450, #281, #247, #1049 ) ) ;
#1005 = CARTESIAN_POINT ( 'NONE',  ( 52.31126210463603599, -11.61608954218737111, 5.000000000000517808 ) ) ;
#1006 = EDGE_CURVE ( 'NONE', #1152, #981, #1065, .T. ) ;
#1007 = ORIENTED_EDGE ( 'NONE', *, *, #1053, .F. ) ;
#1008 =( NAMED_UNIT ( * ) PLANE_ANGLE_UNIT ( ) SI_UNIT ( $, .RADIAN. ) );
#1009 = VECTOR ( 'NONE', #781, 1000.000000000000000 ) ;
#1010 = CIRCLE ( 'NONE', #1027, 2.249999999999997780 ) ;
#1011 = ORIENTED_EDGE ( 'NONE', *, *, #389, .T. ) ;
#1012 = CARTESIAN_POINT ( 'NONE',  ( 49.18489485254941940, -1.766980006573971806, -47.69999999999934204 ) ) ;
#1013 = CARTESIAN_POINT ( 'NONE',  ( 85.36982226453135070, -1.375153272339871613, -89.69999999999856755 ) ) ;
#1014 = ORIENTED_EDGE ( 'NONE', *, *, #452, .T. ) ;
#1015 = CARTESIAN_POINT ( 'NONE',  ( 74.94997381939818126, 24.86216047727306133, 6.000000000000800249 ) ) ;
#1016 = ORIENTED_EDGE ( 'NONE', *, *, #473, .F. ) ;
#1017 = DIRECTION ( 'NONE',  ( 0.2382055930957884260, 0.9712147524712974045, -8.677469957431128458E-30 ) ) ;
#1018 = DIRECTION ( 'NONE',  ( 2.064542318590480013E-14, -5.063612617290160808E-15, -1.000000000000000000 ) ) ;
#1019 = VERTEX_POINT ( 'NONE', #891 ) ;
#1020 = ORIENTED_EDGE ( 'NONE', *, *, #219, .T. ) ;
#1021 = DIRECTION ( 'NONE',  ( 0.9712147524712975155, -0.2382055930957881484, 2.081668171172166304E-14 ) ) ;
#1022 = FACE_OUTER_BOUND ( 'NONE', #852, .T. ) ;
#1023 = CARTESIAN_POINT ( 'NONE',  ( 42.62919527336803327, -0.1590922531773701354, -64.19999999999971863 ) ) ;
#1024 = AXIS2_PLACEMENT_3D ( 'NONE', #199, #933, #210 ) ;
#1025 = ORIENTED_EDGE ( 'NONE', *, *, #849, .T. ) ;
#1026 = LINE ( 'NONE', #1012, #440 ) ;
#1027 = AXIS2_PLACEMENT_3D ( 'NONE', #808, #277, #1078 ) ;
#1028 = CYLINDRICAL_SURFACE ( 'NONE', #97, 4.000000000000003553 ) ;
#1029 = CARTESIAN_POINT ( 'NONE',  ( 83.94058870595662825, -7.202441787167688680, -89.69999999999856755 ) ) ;
#1030 = DIRECTION ( 'NONE',  ( 0.1106396438648005742, 0.6996510132150587369, -0.7058663676026870615 ) ) ;
#1031 = DIRECTION ( 'NONE',  ( 2.064542318590480013E-14, -5.063612617290160808E-15, -1.000000000000000000 ) ) ;
#1032 = EDGE_CURVE ( 'NONE', #643, #994, #53, .T. ) ;
#1033 = ORIENTED_EDGE ( 'NONE', *, *, #69, .T. ) ;
#1034 = LINE ( 'NONE', #1048, #433 ) ;
#1035 = DIRECTION ( 'NONE',  ( 0.2382055930957981404, 0.9712147524712950730, 2.035261135470210906E-28 ) ) ;
#1036 = ADVANCED_FACE ( 'NONE', ( #70 ), #1090, .F. ) ;
#1037 = ORIENTED_EDGE ( 'NONE', *, *, #479, .T. ) ;
#1038 = ADVANCED_BREP_SHAPE_REPRESENTATION ( '010_020_Left_right_bearing_mount_back_2', ( #581, #279 ), #857 ) ;
#1039 = LINE ( 'NONE', #967, #288 ) ;
#1040 = PRESENTATION_LAYER_ASSIGNMENT (  '', '', ( #895 ) ) ;
#1041 = VECTOR ( 'NONE', #804, 1000.000000000000000 ) ;
#1042 = CARTESIAN_POINT ( 'NONE',  ( 77.50731894843622172, 32.47203879510188784, -1.999999999999241940 ) ) ;
#1043 = VECTOR ( 'NONE', #710, 1000.000000000000114 ) ;
#1044 = AXIS2_PLACEMENT_3D ( 'NONE', #758, #204, #111 ) ;
#1045 = CARTESIAN_POINT ( 'NONE',  ( 43.57299793606033234, 8.876170961924316316, -84.69999999999973284 ) ) ;
#1046 = EDGE_LOOP ( 'NONE', ( #997, #459, #999, #397 ) ) ;
#1047 = EDGE_CURVE ( 'NONE', #946, #13, #114, .T. ) ;
#1048 = CARTESIAN_POINT ( 'NONE',  ( 80.70400035973541719, 41.98438669238759502, -89.69999999999889440 ) ) ;
#1049 = ORIENTED_EDGE ( 'NONE', *, *, #359, .F. ) ;
#1050 = CARTESIAN_POINT ( 'NONE',  ( 40.44396208030773465, 0.3768703312881267475, -47.69999999999953388 ) ) ;
#1051 = LINE ( 'NONE', #883, #586 ) ;
#1052 = ORIENTED_EDGE ( 'NONE', *, *, #527, .T. ) ;
#1053 = EDGE_CURVE ( 'NONE', #415, #802, #613, .T. ) ;
#1054 = DIRECTION ( 'NONE',  ( 0.9712147524712975155, -0.2382055930957881484, 2.081668171172166304E-14 ) ) ;
#1055 = DIRECTION ( 'NONE',  ( 0.2382055930957981404, 0.9712147524712950730, 2.035261135470210906E-28 ) ) ;
#1056 = LINE ( 'NONE', #241, #605 ) ;
#1057 = ORIENTED_EDGE ( 'NONE', *, *, #129, .F. ) ;
#1058 = DIRECTION ( 'NONE',  ( -0.9712147524712977376, 0.2382055930957879819, -2.081668171172166620E-14 ) ) ;
#1059 = ORIENTED_EDGE ( 'NONE', *, *, #1108, .T. ) ;
#1060 = CARTESIAN_POINT ( 'NONE',  ( 83.22597192666904675, -10.11608604458152882, -79.69999999999858176 ) ) ;
#1061 = DIRECTION ( 'NONE',  ( 0.2382055930957884260, 0.9712147524712974045, -8.677469957431128458E-30 ) ) ;
#1062 = VECTOR ( 'NONE', #100, 1000.000000000000000 ) ;
#1063 = VECTOR ( 'NONE', #223, 1000.000000000000227 ) ;
#1064 = VERTEX_POINT ( 'NONE', #84 ) ;
#1065 = LINE ( 'NONE', #454, #1080 ) ;
#1066 = EDGE_LOOP ( 'NONE', ( #629, #572, #711, #207 ) ) ;
#1067 = CARTESIAN_POINT ( 'NONE',  ( 46.95827880429054346, 8.045877934598795633, -64.19999999999967599 ) ) ;
#1068 = EDGE_CURVE ( 'NONE', #1064, #24, #812, .T. ) ;
#1069 = ORIENTED_EDGE ( 'NONE', *, *, #559, .T. ) ;
#1070 = CARTESIAN_POINT ( 'NONE',  ( 56.69951724927285142, -13.90644252493178357, 16.00000000000062172 ) ) ;
#1071 = ORIENTED_EDGE ( 'NONE', *, *, #686, .F. ) ;
#1072 = FACE_OUTER_BOUND ( 'NONE', #1175, .T. ) ;
#1073 = DIRECTION ( 'NONE',  ( -0.2382055930957884260, -0.9712147524712975155, 7.099748146989106249E-30 ) ) ;
#1074 = EDGE_CURVE ( 'NONE', #897, #1152, #726, .T. ) ;
#1075 = ORIENTED_EDGE ( 'NONE', *, *, #265, .F. ) ;
#1076 = CARTESIAN_POINT ( 'NONE',  ( 41.15857885959553641, 3.290514588701913379, -89.69999999999974705 ) ) ;
#1077 = EDGE_LOOP ( 'NONE', ( #922, #1071 ) ) ;
#1078 = DIRECTION ( 'NONE',  ( -0.9712147524712972935, 0.2382055930957889811, -2.467162276944794591E-14 ) ) ;
#1079 = CARTESIAN_POINT ( 'NONE',  ( 43.29849735467708172, -6.875827674790735422, -64.19999999999967599 ) ) ;
#1080 = VECTOR ( 'NONE', #985, 1000.000000000000000 ) ;
#1081 = AXIS2_PLACEMENT_3D ( 'NONE', #1079, #638, #730 ) ;
#1082 = VERTEX_POINT ( 'NONE', #607 ) ;
#1083 = VECTOR ( 'NONE', #318, 1000.000000000000227 ) ;
#1084 = CARTESIAN_POINT ( 'NONE',  ( 47.69793163172136730, -12.14847549250425907, -100.1368645245787121 ) ) ;
#1085 = EDGE_CURVE ( 'NONE', #897, #762, #975, .T. ) ;
#1086 = ORIENTED_EDGE ( 'NONE', *, *, #1001, .T. ) ;
#1087 = DIRECTION ( 'NONE',  ( -0.2382055930957902856, -0.9712147524712970714, -3.313215801928249583E-29 ) ) ;
#1088 = LINE ( 'NONE', #93, #685 ) ;
#1089 = ORIENTED_EDGE ( 'NONE', *, *, #88, .T. ) ;
#1090 = PLANE ( 'NONE',  #230 ) ;
#1091 = EDGE_CURVE ( 'NONE', #24, #762, #980, .T. ) ;
#1092 = EDGE_LOOP ( 'NONE', ( #927, #665, #489, #257 ) ) ;
#1093 = CARTESIAN_POINT ( 'NONE',  ( 52.31126210463600756, -11.61608954218737466, 6.000000000000516920 ) ) ;
#1094 = FACE_OUTER_BOUND ( 'NONE', #673, .T. ) ;
#1095 = ORIENTED_EDGE ( 'NONE', *, *, #1053, .T. ) ;
#1096 = VERTEX_POINT ( 'NONE', #886 ) ;
#1097 = CARTESIAN_POINT ( 'NONE',  ( 45.98330868939248717, -7.534319604313889585, -84.69999999999960494 ) ) ;
#1098 = DIRECTION ( 'NONE',  ( -0.3185495519953776000, -0.9479062099825826815, -1.776760461749450932E-15 ) ) ;
#1099 = VERTEX_POINT ( 'NONE', #78 ) ;
#1100 = AXIS2_PLACEMENT_3D ( 'NONE', #369, #260, #712 ) ;
#1101 = PRODUCT_DEFINITION_CONTEXT ( 'detailed design', #115, 'design' ) ;
#1102 = VECTOR ( 'NONE', #514, 1000.000000000000000 ) ;
#1103 = CIRCLE ( 'NONE', #22, 2.250000000000004441 ) ;
#1104 = AXIS2_PLACEMENT_3D ( 'NONE', #944, #566, #937 ) ;
#1105 = ORIENTED_EDGE ( 'NONE', *, *, #492, .F. ) ;
#1106 = CARTESIAN_POINT ( 'NONE',  ( 51.81027203011903026, -13.13327941990173997, 6.000000000000514255 ) ) ;
#1107 = DIRECTION ( 'NONE',  ( -2.064542318590480013E-14, 5.063612617290160808E-15, 1.000000000000000000 ) ) ;
#1108 = EDGE_CURVE ( 'NONE', #885, #802, #584, .T. ) ;
#1109 = CARTESIAN_POINT ( 'NONE',  ( 61.39165298868665133, -15.48326280730890403, 16.00000000000072475 ) ) ;
#1110 = SHAPE_DEFINITION_REPRESENTATION ( #932, #1038 ) ;
#1111 = PRODUCT_DEFINITION_FORMATION_WITH_SPECIFIED_SOURCE ( 'ANY', '', #43, .NOT_KNOWN. ) ;
#1112 = VERTEX_POINT ( 'NONE', #794 ) ;
#1113 = DIRECTION ( 'NONE',  ( -2.064542318590480013E-14, 5.063612617290160808E-15, 1.000000000000000000 ) ) ;
#1114 = CARTESIAN_POINT ( 'NONE',  ( 63.00685621633004985, -26.64942489538191595, -79.69999999999916440 ) ) ;
#1115 = ORIENTED_EDGE ( 'NONE', *, *, #305, .F. ) ;
#1116 = EDGE_CURVE ( 'NONE', #911, #462, #164, .T. ) ;
#1117 = EDGE_LOOP ( 'NONE', ( #520, #187, #742, #423 ) ) ;
#1118 = DIRECTION ( 'NONE',  ( 0.9877263068997976792, -0.1561945666727455329, 2.118293637635347398E-14 ) ) ;
#1119 = LINE ( 'NONE', #315, #1063 ) ;
#1120 = DIRECTION ( 'NONE',  ( -0.9712147524712974045, 0.2382055930957889811, -1.062866020793631087E-14 ) ) ;
#1121 = VECTOR ( 'NONE', #699, 1000.000000000000000 ) ;
#1122 = VECTOR ( 'NONE', #602, 1000.000000000000000 ) ;
#1123 = EDGE_LOOP ( 'NONE', ( #592, #179, #680, #1105, #386 ) ) ;
#1124 = EDGE_CURVE ( 'NONE', #456, #1096, #94, .T. ) ;
#1125 = CARTESIAN_POINT ( 'NONE',  ( 77.50731894843856651, 32.47203879510131230, -115.0864105915993321 ) ) ;
#1126 = AXIS2_PLACEMENT_3D ( 'NONE', #893, #1087, #166 ) ;
#1127 = FACE_OUTER_BOUND ( 'NONE', #165, .T. ) ;
#1128 = CARTESIAN_POINT ( 'NONE',  ( 43.79807549633206776, -6.998357019848365113, -84.69999999999964757 ) ) ;
#1129 = LINE ( 'NONE', #146, #797 ) ;
#1130 = VERTEX_POINT ( 'NONE', #993 ) ;
#1131 = DIRECTION ( 'NONE',  ( -0.2382055930957884815, -0.9712147524712976265, 7.888609052210118054E-30 ) ) ;
#1132 = EDGE_LOOP ( 'NONE', ( #915, #924 ) ) ;
#1133 = CARTESIAN_POINT ( 'NONE',  ( 45.48373054773750113, -7.411790259256258118, -64.19999999999963336 ) ) ;
#1134 = CARTESIAN_POINT ( 'NONE',  ( 59.79618995951821603, -1.280650742805887532, 6.204095066996880730E-13 ) ) ;
#1135 = FACE_OUTER_BOUND ( 'NONE', #903, .T. ) ;
#1136 = CARTESIAN_POINT ( 'NONE',  ( 46.95827880429054346, 8.045877934598795633, -64.19999999999967599 ) ) ;
#1137 = AXIS2_PLACEMENT_3D ( 'NONE', #534, #525, #181 ) ;
#1138 = ORIENTED_EDGE ( 'NONE', *, *, #461, .F. ) ;
#1139 = PLANE ( 'NONE',  #879 ) ;
#1140 = AXIS2_PLACEMENT_3D ( 'NONE', #646, #667, #217 ) ;
#1141 = CARTESIAN_POINT ( 'NONE',  ( 46.02862338737079995, 2.096060074713379962, -84.69999999999964757 ) ) ;
#1142 = EDGE_CURVE ( 'NONE', #477, #360, #718, .T. ) ;
#1143 = ADVANCED_FACE ( 'NONE', ( #176 ), #536, .F. ) ;
#1144 = ORIENTED_EDGE ( 'NONE', *, *, #940, .F. ) ;
#1145 = DIRECTION ( 'NONE',  ( -0.2382055930957884260, -0.9712147524712975155, 7.099748146989106249E-30 ) ) ;
#1146 = LINE ( 'NONE', #771, #919 ) ;
#1147 = CARTESIAN_POINT ( 'NONE',  ( 77.50731894843721648, 32.47203879510164626, -49.69999999999929230 ) ) ;
#1148 = ORIENTED_EDGE ( 'NONE', *, *, #1006, .T. ) ;
#1149 = DIRECTION ( 'NONE',  ( 0.9712147524712975155, -0.2382055930957882317, 1.850371707708596338E-14 ) ) ;
#1150 = SURFACE_STYLE_USAGE ( .BOTH. , #969 ) ;
#1151 = CARTESIAN_POINT ( 'NONE',  ( 81.63124292338456200, -0.4582082743077744991, -84.69999999999889440 ) ) ;
#1152 = VERTEX_POINT ( 'NONE', #196 ) ;
#1153 = CARTESIAN_POINT ( 'NONE',  ( 45.52904524571581391, 2.218589419771011428, -64.19999999999967599 ) ) ;
#1154 = EDGE_CURVE ( 'NONE', #4, #432, #825, .T. ) ;
#1155 = VECTOR ( 'NONE', #777, 1000.000000000000000 ) ;
#1156 = VERTEX_POINT ( 'NONE', #1015 ) ;
#1157 = FACE_OUTER_BOUND ( 'NONE', #466, .T. ) ;
#1158 = AXIS2_PLACEMENT_3D ( 'NONE', #1136, #327, #690 ) ;
#1159 = FACE_OUTER_BOUND ( 'NONE', #119, .T. ) ;
#1160 = VECTOR ( 'NONE', #889, 1000.000000000000227 ) ;
#1161 = AXIS2_PLACEMENT_3D ( 'NONE', #833, #381, #845 ) ;
#1162 = ORIENTED_EDGE ( 'NONE', *, *, #884, .F. ) ;
#1163 = DIRECTION ( 'NONE',  ( -0.2382055930957889534, -0.9712147524712974045, -3.155443620884047922E-30 ) ) ;
#1164 = ORIENTED_EDGE ( 'NONE', *, *, #747, .F. ) ;
#1165 = ADVANCED_FACE ( 'NONE', ( #851 ), #554, .T. ) ;
#1166 = FACE_BOUND ( 'NONE', #1077, .T. ) ;
#1167 = DIRECTION ( 'NONE',  ( -0.2382055930957884260, -0.9712147524712975155, 7.099748146989106249E-30 ) ) ;
#1168 = ORIENTED_EDGE ( 'NONE', *, *, #81, .F. ) ;
#1169 = DIRECTION ( 'NONE',  ( 0.2382055930957889534, 0.9712147524712975155, 2.366582715663036117E-30 ) ) ;
#1170 = ORIENTED_EDGE ( 'NONE', *, *, #422, .F. ) ;
#1171 = DIRECTION ( 'NONE',  ( 0.9712147524712975155, -0.2382055930957883427, 2.125732041587262490E-14 ) ) ;
#1172 = CARTESIAN_POINT ( 'NONE',  ( 46.95827880429054346, 8.045877934598795633, -64.19999999999967599 ) ) ;
#1173 = ORIENTED_EDGE ( 'NONE', *, *, #407, .T. ) ;
#1174 = CARTESIAN_POINT ( 'NONE',  ( 49.18489485254964677, -1.766980006574030870, -79.69999999999957652 ) ) ;
#1175 = EDGE_LOOP ( 'NONE', ( #255, #698, #51, #540, #1016, #920 ) ) ;
#1176 = CARTESIAN_POINT ( 'NONE',  ( 76.31715035492462107, -5.332674416752433366, -84.69999999999897966 ) ) ;
#1177 = CARTESIAN_POINT ( 'NONE',  ( 56.69951724927285142, -13.90644252493178357, 16.00000000000062172 ) ) ;
#1178 = VECTOR ( 'NONE', #131, 1000.000000000000227 ) ;
#1179 = AXIS2_PLACEMENT_3D ( 'NONE', #399, #1018, #205 ) ;
#1180 = EDGE_LOOP ( 'NONE', ( #301, #1115, #523, #261, #104, #380, #130, #276, #752, #640 ) ) ;
ENDSEC;
END-ISO-10303-21;
