ISO-10303-21;
HEADER;
FILE_DESCRIPTION (( 'STEP AP214' ),
    '1' );
FILE_NAME ('010_014_Wheel_mount.STEP',
    '2024-07-21T08:37:16',
    ( '' ),
    ( '' ),
    'SwSTEP 2.0',
    'SolidWorks 2019',
    '' );
FILE_SCHEMA (( 'AUTOMOTIVE_DESIGN' ));
ENDSEC;

DATA;
#1 = DIRECTION ( 'NONE',  ( -0.1724731828275083145, -0.9850142137072687154, 0.000000000000000000 ) ) ;
#2 = VERTEX_POINT ( 'NONE', #365 ) ;
#3 = VERTEX_POINT ( 'NONE', #1102 ) ;
#4 = LINE ( 'NONE', #462, #33 ) ;
#5 = CARTESIAN_POINT ( 'NONE',  ( -8.774999999999911537, 11.90784930203598968, 2.299999999999999822 ) ) ;
#6 = ORIENTED_EDGE ( 'NONE', *, *, #396, .T. ) ;
#7 = CIRCLE ( 'NONE', #797, 1.899999999999999689 ) ;
#8 = PRESENTATION_STYLE_ASSIGNMENT (( #925 ) ) ;
#9 = EDGE_CURVE ( 'NONE', #467, #733, #1034, .T. ) ;
#10 = ORIENTED_EDGE ( 'NONE', *, *, #794, .F. ) ;
#11 = FACE_OUTER_BOUND ( 'NONE', #354, .T. ) ;
#12 = CARTESIAN_POINT ( 'NONE',  ( -13.30570456204282870, -4.667951537024481290, 0.000000000000000000 ) ) ;
#13 = ADVANCED_FACE ( 'NONE', ( #1029 ), #197, .F. ) ;
#14 = CARTESIAN_POINT ( 'NONE',  ( 0.000000000000000000, 0.000000000000000000, 0.000000000000000000 ) ) ;
#15 = CARTESIAN_POINT ( 'NONE',  ( -10.69541689571855159, -9.189102397468486672, -42.93251095273883777 ) ) ;
#16 = EDGE_LOOP ( 'NONE', ( #571, #453 ) ) ;
#17 = AXIS2_PLACEMENT_3D ( 'NONE', #1033, #567, #1027 ) ;
#18 = FACE_OUTER_BOUND ( 'NONE', #697, .T. ) ;
#19 = AXIS2_PLACEMENT_3D ( 'NONE', #904, #1091, #619 ) ;
#20 = DIRECTION ( 'NONE',  ( -0.000000000000000000, -0.000000000000000000, -1.000000000000000000 ) ) ;
#21 = CARTESIAN_POINT ( 'NONE',  ( 13.30570456204474183, -4.667951537023347086, -42.93251095273883777 ) ) ;
#22 = FILL_AREA_STYLE ('',( #864 ) ) ;
#23 = ORIENTED_EDGE ( 'NONE', *, *, #56, .T. ) ;
#24 = CARTESIAN_POINT ( 'NONE',  ( 13.30570456204474183, -4.667951537023347974, 0.000000000000000000 ) ) ;
#25 = CARTESIAN_POINT ( 'NONE',  ( 19.90000000000000213, 2.437047130303233156E-15, 58.86854249492380831 ) ) ;
#26 = CARTESIAN_POINT ( 'NONE',  ( 11.60474041071213591, -6.699999999998910383, 2.299999999999999822 ) ) ;
#27 = VERTEX_POINT ( 'NONE', #761 ) ;
#28 = EDGE_CURVE ( 'NONE', #912, #27, #856, .T. ) ;
#29 = DIRECTION ( 'NONE',  ( 0.000000000000000000, 0.000000000000000000, 1.000000000000000000 ) ) ;
#30 = DIRECTION ( 'NONE',  ( 0.9850142137072688264, 0.1724731828275082868, 0.000000000000000000 ) ) ;
#31 = ORIENTED_EDGE ( 'NONE', *, *, #1142, .T. ) ;
#32 = VECTOR ( 'NONE', #962, 1000.000000000000000 ) ;
#33 = VECTOR ( 'NONE', #98, 1000.000000000000000 ) ;
#34 = FACE_OUTER_BOUND ( 'NONE', #285, .T. ) ;
#35 = DIRECTION ( 'NONE',  ( 1.000000000000000000, 0.000000000000000000, 0.000000000000000000 ) ) ;
#36 = EDGE_CURVE ( 'NONE', #750, #536, #767, .T. ) ;
#37 = DIRECTION ( 'NONE',  ( -0.000000000000000000, -0.000000000000000000, 1.000000000000000000 ) ) ;
#38 = PLANE ( 'NONE',  #397 ) ;
#39 = ADVANCED_FACE ( 'NONE', ( #939 ), #678, .F. ) ;
#40 = ORIENTED_EDGE ( 'NONE', *, *, #245, .F. ) ;
#41 = DIRECTION ( 'NONE',  ( 0.000000000000000000, 0.000000000000000000, -1.000000000000000000 ) ) ;
#42 = EDGE_CURVE ( 'NONE', #424, #520, #559, .T. ) ;
#43 = LINE ( 'NONE', #152, #478 ) ;
#44 = DIRECTION ( 'NONE',  ( 0.9850142137072689374, -0.1724731828275076206, 0.000000000000000000 ) ) ;
#45 = EDGE_LOOP ( 'NONE', ( #1164, #728, #995, #333 ) ) ;
#46 = DIRECTION ( 'NONE',  ( -0.000000000000000000, -0.000000000000000000, 1.000000000000000000 ) ) ;
#47 = AXIS2_PLACEMENT_3D ( 'NONE', #608, #985, #154 ) ;
#48 = FACE_OUTER_BOUND ( 'NONE', #279, .T. ) ;
#49 = DIRECTION ( 'NONE',  ( -0.000000000000000000, -0.000000000000000000, 1.000000000000000000 ) ) ;
#50 = VERTEX_POINT ( 'NONE', #841 ) ;
#51 = VECTOR ( 'NONE', #20, 1000.000000000000000 ) ;
#52 = FACE_OUTER_BOUND ( 'NONE', #1113, .T. ) ;
#53 = DIRECTION ( 'NONE',  ( 1.000000000000000000, 0.000000000000000000, 0.000000000000000000 ) ) ;
#54 = ORIENTED_EDGE ( 'NONE', *, *, #956, .F. ) ;
#55 = VERTEX_POINT ( 'NONE', #773 ) ;
#56 = EDGE_CURVE ( 'NONE', #665, #534, #570, .T. ) ;
#57 = CARTESIAN_POINT ( 'NONE',  ( 7.729159201800657186, 1.055159106790048984E-12, -42.93251095273883777 ) ) ;
#58 = ORIENTED_EDGE ( 'NONE', *, *, #936, .F. ) ;
#59 = ORIENTED_EDGE ( 'NONE', *, *, #42, .T. ) ;
#60 = AXIS2_PLACEMENT_3D ( 'NONE', #616, #49, #53 ) ;
#61 = CARTESIAN_POINT ( 'NONE',  ( -3.864579600899062495, -6.693648218653594384, 2.299999999999999822 ) ) ;
#62 = LINE ( 'NONE', #971, #463 ) ;
#63 = ORIENTED_EDGE ( 'NONE', *, *, #549, .F. ) ;
#64 = DIRECTION ( 'NONE',  ( -1.000000000000000000, 0.000000000000000000, 0.000000000000000000 ) ) ;
#65 = ORIENTED_EDGE ( 'NONE', *, *, #112, .F. ) ;
#66 = LINE ( 'NONE', #537, #807 ) ;
#67 = CIRCLE ( 'NONE', #107, 2.649999999999997691 ) ;
#68 = DIRECTION ( 'NONE',  ( 1.000000000000000000, 0.000000000000000000, 0.000000000000000000 ) ) ;
#69 = EDGE_CURVE ( 'NONE', #661, #1120, #287, .T. ) ;
#70 = ORIENTED_EDGE ( 'NONE', *, *, #585, .T. ) ;
#71 = AXIS2_PLACEMENT_3D ( 'NONE', #1065, #1057, #35 ) ;
#72 = CARTESIAN_POINT ( 'NONE',  ( -11.60474041071020679, -6.700000000000029488, 0.000000000000000000 ) ) ;
#73 = CARTESIAN_POINT ( 'NONE',  ( 4.974999999997296918, -11.90784930203592396, -3.000000000000000000 ) ) ;
#74 = EDGE_CURVE ( 'NONE', #721, #600, #398, .T. ) ;
#75 = DIRECTION ( 'NONE',  ( -0.000000000000000000, -0.000000000000000000, 1.000000000000000000 ) ) ;
#76 = EDGE_CURVE ( 'NONE', #491, #349, #1038, .T. ) ;
#77 = ORIENTED_EDGE ( 'NONE', *, *, #936, .T. ) ;
#78 = DIRECTION ( 'NONE',  ( 1.000000000000000000, 0.000000000000000000, 0.000000000000000000 ) ) ;
#79 = ORIENTED_EDGE ( 'NONE', *, *, #296, .F. ) ;
#80 = LINE ( 'NONE', #438, #235 ) ;
#81 = LINE ( 'NONE', #94, #684 ) ;
#82 = VECTOR ( 'NONE', #787, 1000.000000000000000 ) ;
#83 = EDGE_LOOP ( 'NONE', ( #404, #1194 ) ) ;
#84 = CARTESIAN_POINT ( 'NONE',  ( 8.775000000002492584, -11.90784930203592396, -3.000000000000000000 ) ) ;
#85 = VERTEX_POINT ( 'NONE', #931 ) ;
#86 = DIRECTION ( 'NONE',  ( -0.7668107407454598512, -0.6418732646538558573, 0.000000000000000000 ) ) ;
#87 = CYLINDRICAL_SURFACE ( 'NONE', #148, 1.900000000002598499 ) ;
#88 = CIRCLE ( 'NONE', #610, 2.650000000000000355 ) ;
#89 = ORIENTED_EDGE ( 'NONE', *, *, #378, .F. ) ;
#90 = DIRECTION ( 'NONE',  ( -0.000000000000000000, -0.000000000000000000, 1.000000000000000000 ) ) ;
#91 = ORIENTED_EDGE ( 'NONE', *, *, #1044, .T. ) ;
#92 = FACE_BOUND ( 'NONE', #743, .T. ) ;
#93 = EDGE_CURVE ( 'NONE', #55, #422, #472, .T. ) ;
#94 = CARTESIAN_POINT ( 'NONE',  ( 5.000000000000000000, 0.000000000000000000, -17.14213562373095101 ) ) ;
#95 = ORIENTED_EDGE ( 'NONE', *, *, #794, .T. ) ;
#96 = DIRECTION ( 'NONE',  ( -0.000000000000000000, -0.000000000000000000, 1.000000000000000000 ) ) ;
#97 = ORIENTED_EDGE ( 'NONE', *, *, #495, .F. ) ;
#98 = DIRECTION ( 'NONE',  ( 0.9392839235730117142, -0.3431409490534300666, 0.000000000000000000 ) ) ;
#99 = EDGE_CURVE ( 'NONE', #843, #641, #511, .T. ) ;
#100 = CARTESIAN_POINT ( 'NONE',  ( -8.774999999997124434, -11.90784930203661496, -8.374011537025108254 ) ) ;
#101 = CARTESIAN_POINT ( 'NONE',  ( 3.864579600900049261, 6.693648218653777349, 2.299999999999999822 ) ) ;
#102 = AXIS2_PLACEMENT_3D ( 'NONE', #57, #1169, #545 ) ;
#103 = CARTESIAN_POINT ( 'NONE',  ( -6.874999999999910294, 11.90784930203598968, 2.299999999999999822 ) ) ;
#104 = VERTEX_POINT ( 'NONE', #101 ) ;
#105 = CARTESIAN_POINT ( 'NONE',  ( -2.610287666322975486, -13.85705393449220679, -42.93251095273883777 ) ) ;
#106 = CARTESIAN_POINT ( 'NONE',  ( 8.775000000002492584, -11.90784930203592396, 2.299999999999999822 ) ) ;
#107 = AXIS2_PLACEMENT_3D ( 'NONE', #72, #676, #771 ) ;
#108 = DIRECTION ( 'NONE',  ( 0.000000000000000000, 0.000000000000000000, 1.000000000000000000 ) ) ;
#109 = LINE ( 'NONE', #121, #615 ) ;
#110 = AXIS2_PLACEMENT_3D ( 'NONE', #388, #108, #212 ) ;
#111 = EDGE_LOOP ( 'NONE', ( #123, #566, #327, #849 ) ) ;
#112 = EDGE_CURVE ( 'NONE', #854, #600, #673, .T. ) ;
#113 = DIRECTION ( 'NONE',  ( -1.000000000000000000, 0.000000000000000000, 0.000000000000000000 ) ) ;
#114 = DIRECTION ( 'NONE',  ( 0.000000000000000000, 0.000000000000000000, 1.000000000000000000 ) ) ;
#115 = DIRECTION ( 'NONE',  ( -1.000000000000000000, 0.000000000000000000, 0.000000000000000000 ) ) ;
#116 = EDGE_CURVE ( 'NONE', #556, #912, #151, .T. ) ;
#117 = VERTEX_POINT ( 'NONE', #754 ) ;
#118 = DIRECTION ( 'NONE',  ( 1.000000000000000000, 0.000000000000000000, 0.000000000000000000 ) ) ;
#119 = CARTESIAN_POINT ( 'NONE',  ( -11.60474041071020679, -6.700000000000029488, -42.93251095273883777 ) ) ;
#120 = CARTESIAN_POINT ( 'NONE',  ( 8.774999999998321698, 11.90784930203709280, -3.000000000000000000 ) ) ;
#121 = CARTESIAN_POINT ( 'NONE',  ( 10.69541689571983767, 9.189102397469193662, 2.299999999999999822 ) ) ;
#122 = CIRCLE ( 'NONE', #522, 2.649999999999999023 ) ;
#123 = ORIENTED_EDGE ( 'NONE', *, *, #660, .F. ) ;
#124 = CARTESIAN_POINT ( 'NONE',  ( 3.864579600901408174, -6.693648218652620940, 2.299999999999999822 ) ) ;
#125 = EDGE_CURVE ( 'NONE', #972, #1031, #307, .T. ) ;
#126 = CARTESIAN_POINT ( 'NONE',  ( 7.729159201800657186, 1.055159106790048984E-12, 2.299999999999999822 ) ) ;
#127 = CARTESIAN_POINT ( 'NONE',  ( -11.60474041071085516, 6.699999999999613820, -42.93251095273883777 ) ) ;
#128 = ORIENTED_EDGE ( 'NONE', *, *, #206, .F. ) ;
#129 = CIRCLE ( 'NONE', #488, 1.899999999999064659 ) ;
#130 = CIRCLE ( 'NONE', #655, 1.899999999999999689 ) ;
#131 = FACE_BOUND ( 'NONE', #933, .T. ) ;
#132 = CIRCLE ( 'NONE', #656, 2.649999999999997691 ) ;
#133 = CARTESIAN_POINT ( 'NONE',  ( 1.284469037195706312E-12, -13.39999999999929159, -42.93251095273883777 ) ) ;
#134 = DIRECTION ( 'NONE',  ( -0.000000000000000000, -0.000000000000000000, 1.000000000000000000 ) ) ;
#135 = DIRECTION ( 'NONE',  ( -0.9850142137072597226, -0.1724731828275601064, 0.000000000000000000 ) ) ;
#136 = UNCERTAINTY_MEASURE_WITH_UNIT (LENGTH_MEASURE( 1.000000000000000082E-05 ), #466, 'distance_accuracy_value', 'NONE');
#137 = VERTEX_POINT ( 'NONE', #120 ) ;
#138 = CARTESIAN_POINT ( 'NONE',  ( 6.874999999999894307, -11.90784930203592396, -3.000000000000000000 ) ) ;
#139 = EDGE_CURVE ( 'NONE', #1084, #1048, #483, .T. ) ;
#140 = DIRECTION ( 'NONE',  ( 0.7668107407454776148, -0.6418732646538347630, 0.000000000000000000 ) ) ;
#141 = DIRECTION ( 'NONE',  ( 1.000000000000000000, 0.000000000000000000, 0.000000000000000000 ) ) ;
#142 = EDGE_LOOP ( 'NONE', ( #239, #541, #968, #924 ) ) ;
#143 = ORIENTED_EDGE ( 'NONE', *, *, #116, .T. ) ;
#144 = CIRCLE ( 'NONE', #409, 2.649999999999997691 ) ;
#145 = CARTESIAN_POINT ( 'NONE',  ( -2.610287666324261124, 13.85705393449289780, -42.93251095273883777 ) ) ;
#146 = CARTESIAN_POINT ( 'NONE',  ( 0.000000000000000000, 0.000000000000000000, 58.86854249492380831 ) ) ;
#147 = ORIENTED_EDGE ( 'NONE', *, *, #413, .T. ) ;
#148 = AXIS2_PLACEMENT_3D ( 'NONE', #938, #1127, #222 ) ;
#149 = ORIENTED_EDGE ( 'NONE', *, *, #56, .F. ) ;
#150 =( GEOMETRIC_REPRESENTATION_CONTEXT ( 3 ) GLOBAL_UNCERTAINTY_ASSIGNED_CONTEXT ( ( #136 ) ) GLOBAL_UNIT_ASSIGNED_CONTEXT ( ( #466, #542, #371 ) ) REPRESENTATION_CONTEXT ( 'NONE', 'WORKASPACE' ) );
#151 = CIRCLE ( 'NONE', #828, 2.649999999999997691 ) ;
#152 = CARTESIAN_POINT ( 'NONE',  ( 2.610287666324261568, 13.85705393449289957, -42.93251095273883777 ) ) ;
#153 = ADVANCED_BREP_SHAPE_REPRESENTATION ( '010_014_Wheel_mount', ( #1092, #638 ), #475 ) ;
#154 = DIRECTION ( 'NONE',  ( 1.000000000000000000, 0.000000000000000000, 0.000000000000000000 ) ) ;
#155 = ORIENTED_EDGE ( 'NONE', *, *, #28, .T. ) ;
#156 = ORIENTED_EDGE ( 'NONE', *, *, #415, .F. ) ;
#157 = CARTESIAN_POINT ( 'NONE',  ( -19.90000000000000213, 0.000000000000000000, -3.000000000000000000 ) ) ;
#158 = DIRECTION ( 'NONE',  ( 0.1724731828275075929, 0.9850142137072688264, 0.000000000000000000 ) ) ;
#159 = ORIENTED_EDGE ( 'NONE', *, *, #353, .F. ) ;
#160 = CARTESIAN_POINT ( 'NONE',  ( 2.610287666325547207, -13.85705393449218903, 2.299999999999999822 ) ) ;
#161 = ORIENTED_EDGE ( 'NONE', *, *, #9, .T. ) ;
#162 = DIRECTION ( 'NONE',  ( -0.000000000000000000, -0.000000000000000000, 1.000000000000000000 ) ) ;
#163 = ADVANCED_FACE ( 'NONE', ( #580 ), #958, .F. ) ;
#164 = ADVANCED_FACE ( 'NONE', ( #979 ), #421, .F. ) ;
#165 = PLANE ( 'NONE',  #225 ) ;
#166 = ORIENTED_EDGE ( 'NONE', *, *, #884, .F. ) ;
#167 = CYLINDRICAL_SURFACE ( 'NONE', #306, 1.899999999999999689 ) ;
#168 = PRODUCT_DEFINITION ( 'UNKNOWN', '', #848, #408 ) ;
#169 = EDGE_CURVE ( 'NONE', #459, #1088, #893, .T. ) ;
#170 = DIRECTION ( 'NONE',  ( -0.000000000000000000, -0.000000000000000000, 1.000000000000000000 ) ) ;
#171 = FACE_OUTER_BOUND ( 'NONE', #430, .T. ) ;
#172 = ORIENTED_EDGE ( 'NONE', *, *, #1064, .F. ) ;
#173 = CARTESIAN_POINT ( 'NONE',  ( 0.000000000000000000, 0.000000000000000000, 2.299999999999996270 ) ) ;
#174 = ORIENTED_EDGE ( 'NONE', *, *, #500, .T. ) ;
#175 = CARTESIAN_POINT ( 'NONE',  ( 6.874999999999894307, -11.90784930203592396, 2.299999999999999822 ) ) ;
#176 = CARTESIAN_POINT ( 'NONE',  ( -2.610287666324261124, 13.85705393449289780, 0.000000000000000000 ) ) ;
#177 = ORIENTED_EDGE ( 'NONE', *, *, #742, .T. ) ;
#178 = SURFACE_SIDE_STYLE ('',( #1193 ) ) ;
#179 = ORIENTED_EDGE ( 'NONE', *, *, #1055, .F. ) ;
#180 = DIRECTION ( 'NONE',  ( 0.000000000000000000, 0.000000000000000000, 1.000000000000000000 ) ) ;
#181 = FACE_OUTER_BOUND ( 'NONE', #675, .T. ) ;
#182 = VECTOR ( 'NONE', #406, 1000.000000000000000 ) ;
#183 = ORIENTED_EDGE ( 'NONE', *, *, #597, .F. ) ;
#184 = DIRECTION ( 'NONE',  ( 1.000000000000000000, 0.000000000000000000, 0.000000000000000000 ) ) ;
#185 = EDGE_LOOP ( 'NONE', ( #611, #220, #878, #1157 ) ) ;
#186 = ADVANCED_FACE ( 'NONE', ( #414 ), #590, .F. ) ;
#187 = CARTESIAN_POINT ( 'NONE',  ( -10.69541689571921417, 9.189102397468072780, -42.93251095273883777 ) ) ;
#188 = FACE_OUTER_BOUND ( 'NONE', #1019, .T. ) ;
#189 = CIRCLE ( 'NONE', #1131, 1.900000000002597611 ) ;
#190 = VECTOR ( 'NONE', #682, 1000.000000000000000 ) ;
#191 = ORIENTED_EDGE ( 'NONE', *, *, #956, .T. ) ;
#192 = CARTESIAN_POINT ( 'NONE',  ( 3.864579600901408174, -6.693648218652620940, 0.000000000000000000 ) ) ;
#193 = AXIS2_PLACEMENT_3D ( 'NONE', #708, #255, #432 ) ;
#194 = EDGE_CURVE ( 'NONE', #85, #896, #339, .T. ) ;
#195 = ORIENTED_EDGE ( 'NONE', *, *, #811, .T. ) ;
#196 = PLANE ( 'NONE',  #17 ) ;
#197 = PLANE ( 'NONE',  #213 ) ;
#198 = ORIENTED_EDGE ( 'NONE', *, *, #112, .T. ) ;
#199 = CYLINDRICAL_SURFACE ( 'NONE', #1058, 2.649999999999999023 ) ;
#200 = CARTESIAN_POINT ( 'NONE',  ( 10.69541689572048959, -9.189102397467369343, -42.93251095273883777 ) ) ;
#201 = EDGE_CURVE ( 'NONE', #1031, #733, #1147, .T. ) ;
#202 = CARTESIAN_POINT ( 'NONE',  ( -11.60474041071085516, 6.699999999999613820, 0.000000000000000000 ) ) ;
#203 = AXIS2_PLACEMENT_3D ( 'NONE', #723, #275, #68 ) ;
#204 = DIRECTION ( 'NONE',  ( -0.1724731828275082313, 0.9850142137072687154, 0.000000000000000000 ) ) ;
#205 = ORIENTED_EDGE ( 'NONE', *, *, #961, .T. ) ;
#206 = EDGE_CURVE ( 'NONE', #973, #349, #699, .T. ) ;
#207 = PLANE ( 'NONE',  #552 ) ;
#208 = EDGE_CURVE ( 'NONE', #989, #1008, #62, .T. ) ;
#209 = DIRECTION ( 'NONE',  ( -0.000000000000000000, -0.000000000000000000, 1.000000000000000000 ) ) ;
#210 = AXIS2_PLACEMENT_3D ( 'NONE', #282, #369, #1010 ) ;
#211 = AXIS2_PLACEMENT_3D ( 'NONE', #806, #1082, #259 ) ;
#212 = DIRECTION ( 'NONE',  ( 1.000000000000000000, 0.000000000000000000, 0.000000000000000000 ) ) ;
#213 = AXIS2_PLACEMENT_3D ( 'NONE', #1123, #30, #657 ) ;
#214 = EDGE_LOOP ( 'NONE', ( #418, #283, #276, #917 ) ) ;
#215 = FACE_OUTER_BOUND ( 'NONE', #1184, .T. ) ;
#216 =( GEOMETRIC_REPRESENTATION_CONTEXT ( 3 ) GLOBAL_UNCERTAINTY_ASSIGNED_CONTEXT ( ( #690 ) ) GLOBAL_UNIT_ASSIGNED_CONTEXT ( ( #774, #755, #302 ) ) REPRESENTATION_CONTEXT ( 'NONE', 'WORKASPACE' ) );
#217 = DIRECTION ( 'NONE',  ( -0.000000000000000000, -0.000000000000000000, 1.000000000000000000 ) ) ;
#218 = DIRECTION ( 'NONE',  ( -0.7668107407454598512, -0.6418732646538558573, 0.000000000000000000 ) ) ;
#219 = SHAPE_DEFINITION_REPRESENTATION ( #332, #153 ) ;
#220 = ORIENTED_EDGE ( 'NONE', *, *, #497, .T. ) ;
#221 = DIRECTION ( 'NONE',  ( -1.000000000000000000, 0.000000000000000000, -0.000000000000000000 ) ) ;
#222 = DIRECTION ( 'NONE',  ( 1.000000000000000000, 0.000000000000000000, 0.000000000000000000 ) ) ;
#223 = DIRECTION ( 'NONE',  ( -0.000000000000000000, -0.000000000000000000, 1.000000000000000000 ) ) ;
#224 = APPLICATION_PROTOCOL_DEFINITION ( 'draft international standard', 'automotive_design', 1998, #659 ) ;
#225 = AXIS2_PLACEMENT_3D ( 'NONE', #256, #1101, #1005 ) ;
#226 = ORIENTED_EDGE ( 'NONE', *, *, #632, .T. ) ;
#227 = CARTESIAN_POINT ( 'NONE',  ( 2.610287666325547207, -13.85705393449218903, -42.93251095273883777 ) ) ;
#228 = EDGE_CURVE ( 'NONE', #393, #266, #1107, .T. ) ;
#229 = FACE_OUTER_BOUND ( 'NONE', #1112, .T. ) ;
#230 = ORIENTED_EDGE ( 'NONE', *, *, #245, .T. ) ;
#231 = AXIS2_PLACEMENT_3D ( 'NONE', #14, #951, #301 ) ;
#232 = ADVANCED_FACE ( 'NONE', ( #229 ), #1066, .F. ) ;
#233 = VECTOR ( 'NONE', #844, 1000.000000000000000 ) ;
#234 = DIRECTION ( 'NONE',  ( -0.000000000000000000, -0.000000000000000000, 1.000000000000000000 ) ) ;
#235 = VECTOR ( 'NONE', #451, 1000.000000000000000 ) ;
#236 = LINE ( 'NONE', #1072, #531 ) ;
#237 = DIRECTION ( 'NONE',  ( -0.000000000000000000, -0.000000000000000000, -1.000000000000000000 ) ) ;
#238 = ORIENTED_EDGE ( 'NONE', *, *, #533, .T. ) ;
#239 = ORIENTED_EDGE ( 'NONE', *, *, #845, .T. ) ;
#240 = DIRECTION ( 'NONE',  ( 0.7668107407454949342, 0.6418732646538141129, 0.000000000000000000 ) ) ;
#241 = CARTESIAN_POINT ( 'NONE',  ( 3.864579600900049261, 6.693648218653777349, 0.000000000000000000 ) ) ;
#242 = CARTESIAN_POINT ( 'NONE',  ( -2.610287666324261124, 13.85705393449289780, -42.93251095273883777 ) ) ;
#243 = EDGE_LOOP ( 'NONE', ( #480, #89 ) ) ;
#244 = AXIS2_PLACEMENT_3D ( 'NONE', #146, #237, #876 ) ;
#245 = EDGE_CURVE ( 'NONE', #1026, #536, #685, .T. ) ;
#246 = DIRECTION ( 'NONE',  ( -0.9392839235730126024, 0.3431409490534277351, 0.000000000000000000 ) ) ;
#247 = VERTEX_POINT ( 'NONE', #1052 ) ;
#248 = ORIENTED_EDGE ( 'NONE', *, *, #1141, .F. ) ;
#249 = VECTOR ( 'NONE', #204, 1000.000000000000227 ) ;
#250 = CARTESIAN_POINT ( 'NONE',  ( 11.60474041071149109, 6.700000000000736478, 2.299999999999999822 ) ) ;
#251 = ORIENTED_EDGE ( 'NONE', *, *, #253, .F. ) ;
#252 = ORIENTED_EDGE ( 'NONE', *, *, #1020, .T. ) ;
#253 = EDGE_CURVE ( 'NONE', #823, #1048, #838, .T. ) ;
#254 = EDGE_CURVE ( 'NONE', #117, #498, #603, .T. ) ;
#255 = DIRECTION ( 'NONE',  ( -0.000000000000000000, -0.000000000000000000, 1.000000000000000000 ) ) ;
#256 = CARTESIAN_POINT ( 'NONE',  ( 0.000000000000000000, 0.000000000000000000, 0.000000000000000000 ) ) ;
#257 = ADVANCED_FACE ( 'NONE', ( #326 ), #689, .T. ) ;
#258 = ORIENTED_EDGE ( 'NONE', *, *, #524, .F. ) ;
#259 = DIRECTION ( 'NONE',  ( -1.000000000000000000, 0.000000000000000000, 0.000000000000000000 ) ) ;
#260 = EDGE_LOOP ( 'NONE', ( #360, #1014, #808, #953 ) ) ;
#261 = CIRCLE ( 'NONE', #47, 2.650000000000000355 ) ;
#262 = DIRECTION ( 'NONE',  ( -0.1724731828275083145, -0.9850142137072687154, 0.000000000000000000 ) ) ;
#263 = DIRECTION ( 'NONE',  ( -0.9392839235729935066, -0.3431409490534798046, 0.000000000000000000 ) ) ;
#264 = EDGE_LOOP ( 'NONE', ( #1103, #177, #1176, #63 ) ) ;
#265 = LINE ( 'NONE', #918, #588 ) ;
#266 = VERTEX_POINT ( 'NONE', #507 ) ;
#267 = AXIS2_PLACEMENT_3D ( 'NONE', #970, #1068, #338 ) ;
#268 = AXIS2_PLACEMENT_3D ( 'NONE', #824, #908, #1097 ) ;
#269 = DIRECTION ( 'NONE',  ( -0.000000000000000000, -0.000000000000000000, 1.000000000000000000 ) ) ;
#270 = DIRECTION ( 'NONE',  ( 1.000000000000000000, 0.000000000000000000, 0.000000000000000000 ) ) ;
#271 = ORIENTED_EDGE ( 'NONE', *, *, #884, .T. ) ;
#272 = CARTESIAN_POINT ( 'NONE',  ( -5.000000000000000000, 6.123233995736766282E-16, -2.999999999999999112 ) ) ;
#273 = ORIENTED_EDGE ( 'NONE', *, *, #776, .T. ) ;
#274 = DIRECTION ( 'NONE',  ( -0.000000000000000000, -0.000000000000000000, 1.000000000000000000 ) ) ;
#275 = DIRECTION ( 'NONE',  ( 0.000000000000000000, 0.000000000000000000, 1.000000000000000000 ) ) ;
#276 = ORIENTED_EDGE ( 'NONE', *, *, #254, .F. ) ;
#277 = DIRECTION ( 'NONE',  ( 0.000000000000000000, 0.000000000000000000, 1.000000000000000000 ) ) ;
#278 = ADVANCED_FACE ( 'NONE', ( #883 ), #702, .F. ) ;
#279 = EDGE_LOOP ( 'NONE', ( #1006, #337, #757, #710 ) ) ;
#280 = LINE ( 'NONE', #1180, #384 ) ;
#281 = AXIS2_PLACEMENT_3D ( 'NONE', #1162, #134, #1075 ) ;
#282 = CARTESIAN_POINT ( 'NONE',  ( 11.60474041071213591, -6.699999999998910383, 0.000000000000000000 ) ) ;
#283 = ORIENTED_EDGE ( 'NONE', *, *, #415, .T. ) ;
#284 = CARTESIAN_POINT ( 'NONE',  ( 11.60474041071149109, 6.700000000000736478, 0.000000000000000000 ) ) ;
#285 = EDGE_LOOP ( 'NONE', ( #205, #314 ) ) ;
#286 = FACE_OUTER_BOUND ( 'NONE', #605, .T. ) ;
#287 = CIRCLE ( 'NONE', #231, 5.000000000000000000 ) ;
#288 = VECTOR ( 'NONE', #1126, 1000.000000000000000 ) ;
#289 = ORIENTED_EDGE ( 'NONE', *, *, #1179, .T. ) ;
#290 = VECTOR ( 'NONE', #1004, 1000.000000000000000 ) ;
#291 = ORIENTED_EDGE ( 'NONE', *, *, #585, .F. ) ;
#292 = EDGE_CURVE ( 'NONE', #459, #556, #1069, .T. ) ;
#293 = DIRECTION ( 'NONE',  ( -0.000000000000000000, -0.000000000000000000, 1.000000000000000000 ) ) ;
#294 = DIRECTION ( 'NONE',  ( 1.000000000000000000, 0.000000000000000000, 0.000000000000000000 ) ) ;
#295 = APPLICATION_PROTOCOL_DEFINITION ( 'draft international standard', 'automotive_design', 1998, #587 ) ;
#296 = EDGE_CURVE ( 'NONE', #1096, #989, #261, .T. ) ;
#297 = ORIENTED_EDGE ( 'NONE', *, *, #139, .F. ) ;
#298 = ADVANCED_FACE ( 'NONE', ( #514 ), #888, .F. ) ;
#299 = PLANE ( 'NONE',  #382 ) ;
#300 = CARTESIAN_POINT ( 'NONE',  ( 11.60474041071149109, 6.700000000000736478, 2.299999999999999822 ) ) ;
#301 = DIRECTION ( 'NONE',  ( 1.000000000000000000, 0.000000000000000000, 0.000000000000000000 ) ) ;
#302 =( NAMED_UNIT ( * ) SI_UNIT ( $, .STERADIAN. ) SOLID_ANGLE_UNIT ( ) );
#303 = ORIENTED_EDGE ( 'NONE', *, *, #208, .F. ) ;
#304 = CARTESIAN_POINT ( 'NONE',  ( 14.25474041071149145, 6.700000000000736478, 2.299999999999999822 ) ) ;
#305 = VECTOR ( 'NONE', #487, 1000.000000000000114 ) ;
#306 = AXIS2_PLACEMENT_3D ( 'NONE', #493, #1172, #777 ) ;
#307 = LINE ( 'NONE', #313, #612 ) ;
#308 = VECTOR ( 'NONE', #223, 1000.000000000000000 ) ;
#309 = VERTEX_POINT ( 'NONE', #452 ) ;
#310 = DIRECTION ( 'NONE',  ( -0.000000000000000000, -0.000000000000000000, 1.000000000000000000 ) ) ;
#311 = COLOUR_RGB ( '',0.5019607843137254832, 0.000000000000000000, 1.000000000000000000 ) ;
#312 = DIRECTION ( 'NONE',  ( -1.000000000000000000, 0.000000000000000000, 0.000000000000000000 ) ) ;
#313 = CARTESIAN_POINT ( 'NONE',  ( -10.69541689571855159, -9.189102397468486672, 0.000000000000000000 ) ) ;
#314 = ORIENTED_EDGE ( 'NONE', *, *, #99, .T. ) ;
#315 = ADVANCED_FACE ( 'NONE', ( #898, #188 ), #165, .F. ) ;
#316 = LINE ( 'NONE', #954, #550 ) ;
#317 = FACE_OUTER_BOUND ( 'NONE', #1081, .T. ) ;
#318 = CARTESIAN_POINT ( 'NONE',  ( 2.610287666325547207, -13.85705393449218903, -42.93251095273883777 ) ) ;
#319 =( NAMED_UNIT ( * ) SI_UNIT ( $, .STERADIAN. ) SOLID_ANGLE_UNIT ( ) );
#320 = ADVANCED_FACE ( 'NONE', ( #171 ), #993, .F. ) ;
#321 = VECTOR ( 'NONE', #426, 1000.000000000000000 ) ;
#322 = ORIENTED_EDGE ( 'NONE', *, *, #1119, .F. ) ;
#323 = CYLINDRICAL_SURFACE ( 'NONE', #984, 5.000000000000000000 ) ;
#324 = PRODUCT ( '010_014_Wheel_mount', '010_014_Wheel_mount', '', ( #1042 ) ) ;
#325 = DIRECTION ( 'NONE',  ( -0.000000000000000000, -0.000000000000000000, 1.000000000000000000 ) ) ;
#326 = FACE_OUTER_BOUND ( 'NONE', #813, .T. ) ;
#327 = ORIENTED_EDGE ( 'NONE', *, *, #693, .T. ) ;
#328 = ORIENTED_EDGE ( 'NONE', *, *, #194, .T. ) ;
#329 = CARTESIAN_POINT ( 'NONE',  ( -3.864579600899062939, -6.693648218653594384, 0.000000000000000000 ) ) ;
#330 = DIRECTION ( 'NONE',  ( -0.7668107407455123647, 0.6418732646537933517, 0.000000000000000000 ) ) ;
#331 = EDGE_CURVE ( 'NONE', #534, #510, #934, .T. ) ;
#332 = PRODUCT_DEFINITION_SHAPE ( 'NONE', 'NONE',  #168 ) ;
#333 = ORIENTED_EDGE ( 'NONE', *, *, #381, .F. ) ;
#334 = ORIENTED_EDGE ( 'NONE', *, *, #9, .F. ) ;
#335 = EDGE_CURVE ( 'NONE', #1084, #554, #1181, .T. ) ;
#336 = CARTESIAN_POINT ( 'NONE',  ( -3.864579600900125200, 6.693648218653342141, 0.000000000000000000 ) ) ;
#337 = ORIENTED_EDGE ( 'NONE', *, *, #296, .T. ) ;
#338 = DIRECTION ( 'NONE',  ( 1.000000000000000000, 0.000000000000000000, 0.000000000000000000 ) ) ;
#339 = LINE ( 'NONE', #1059, #423 ) ;
#340 = EDGE_CURVE ( 'NONE', #712, #1026, #122, .T. ) ;
#341 = ORIENTED_EDGE ( 'NONE', *, *, #738, .T. ) ;
#342 = ORIENTED_EDGE ( 'NONE', *, *, #997, .F. ) ;
#343 = VECTOR ( 'NONE', #460, 1000.000000000000227 ) ;
#344 = DIRECTION ( 'NONE',  ( -0.000000000000000000, -0.000000000000000000, -1.000000000000000000 ) ) ;
#345 = AXIS2_PLACEMENT_3D ( 'NONE', #998, #162, #897 ) ;
#346 = CARTESIAN_POINT ( 'NONE',  ( 0.000000000000000000, 0.000000000000000000, 0.000000000000000000 ) ) ;
#347 = ORIENTED_EDGE ( 'NONE', *, *, #292, .F. ) ;
#348 = DIRECTION ( 'NONE',  ( -1.000000000000000000, 0.000000000000000000, 0.000000000000000000 ) ) ;
#349 = VERTEX_POINT ( 'NONE', #923 ) ;
#350 = DIRECTION ( 'NONE',  ( -1.000000000000000000, 0.000000000000000000, 0.000000000000000000 ) ) ;
#351 = ORIENTED_EDGE ( 'NONE', *, *, #208, .T. ) ;
#352 = CARTESIAN_POINT ( 'NONE',  ( -13.30570456204282870, -4.667951537024482178, 2.299999999999999822 ) ) ;
#353 = EDGE_CURVE ( 'NONE', #410, #27, #144, .T. ) ;
#354 = EDGE_LOOP ( 'NONE', ( #289, #161, #582, #628 ) ) ;
#355 = CIRCLE ( 'NONE', #1087, 5.000000000000000000 ) ;
#356 = LINE ( 'NONE', #61, #1116 ) ;
#357 = DIRECTION ( 'NONE',  ( 0.000000000000000000, 0.000000000000000000, 1.000000000000000000 ) ) ;
#358 = ORIENTED_EDGE ( 'NONE', *, *, #340, .F. ) ;
#359 = LINE ( 'NONE', #441, #1166 ) ;
#360 = ORIENTED_EDGE ( 'NONE', *, *, #201, .T. ) ;
#361 = AXIS2_PLACEMENT_3D ( 'NONE', #119, #482, #395 ) ;
#362 = COLOUR_RGB ( '',0.5019607843137254832, 0.000000000000000000, 1.000000000000000000 ) ;
#363 = CARTESIAN_POINT ( 'NONE',  ( -7.729159201799991052, -3.485303408726214691E-13, 2.299999999999999822 ) ) ;
#364 = DIRECTION ( 'NONE',  ( -0.000000000000000000, -0.000000000000000000, -1.000000000000000000 ) ) ;
#365 = CARTESIAN_POINT ( 'NONE',  ( -4.974999999998994227, -11.90784930203661496, -3.000000000000000000 ) ) ;
#366 = CARTESIAN_POINT ( 'NONE',  ( -3.864579600900125200, 6.693648218653342141, 2.299999999999999822 ) ) ;
#367 = ORIENTED_EDGE ( 'NONE', *, *, #340, .T. ) ;
#368 = FACE_OUTER_BOUND ( 'NONE', #1130, .T. ) ;
#369 = DIRECTION ( 'NONE',  ( -0.000000000000000000, -0.000000000000000000, 1.000000000000000000 ) ) ;
#370 = ORIENTED_EDGE ( 'NONE', *, *, #228, .T. ) ;
#371 =( NAMED_UNIT ( * ) SI_UNIT ( $, .STERADIAN. ) SOLID_ANGLE_UNIT ( ) );
#372 = ORIENTED_EDGE ( 'NONE', *, *, #905, .T. ) ;
#373 = CARTESIAN_POINT ( 'NONE',  ( 3.864579600901408174, -6.693648218652620940, -42.93251095273883777 ) ) ;
#374 = DIRECTION ( 'NONE',  ( -0.000000000000000000, -0.000000000000000000, 1.000000000000000000 ) ) ;
#375 = ORIENTED_EDGE ( 'NONE', *, *, #672, .F. ) ;
#376 = CARTESIAN_POINT ( 'NONE',  ( 8.775000000002492584, -11.90784930203592396, -8.374011537025108254 ) ) ;
#377 = EDGE_CURVE ( 'NONE', #1120, #661, #355, .T. ) ;
#378 = EDGE_CURVE ( 'NONE', #981, #50, #7, .T. ) ;
#379 = ORIENTED_EDGE ( 'NONE', *, *, #626, .T. ) ;
#380 = DIRECTION ( 'NONE',  ( -0.000000000000000000, -0.000000000000000000, 1.000000000000000000 ) ) ;
#381 = EDGE_CURVE ( 'NONE', #247, #661, #81, .T. ) ;
#382 = AXIS2_PLACEMENT_3D ( 'NONE', #456, #551, #922 ) ;
#383 = CARTESIAN_POINT ( 'NONE',  ( 0.000000000000000000, 0.000000000000000000, -3.000000000000000000 ) ) ;
#384 = VECTOR ( 'NONE', #269, 1000.000000000000000 ) ;
#385 = ORIENTED_EDGE ( 'NONE', *, *, #768, .T. ) ;
#386 = DIRECTION ( 'NONE',  ( 0.9392839235730117142, -0.3431409490534300666, 0.000000000000000000 ) ) ;
#387 = DIRECTION ( 'NONE',  ( -1.000000000000000000, 0.000000000000000000, 0.000000000000000000 ) ) ;
#388 = CARTESIAN_POINT ( 'NONE',  ( 0.000000000000000000, 13.40000000000000036, 2.299999999999999822 ) ) ;
#389 = VERTEX_POINT ( 'NONE', #1080 ) ;
#390 = DIRECTION ( 'NONE',  ( -0.000000000000000000, -0.000000000000000000, 1.000000000000000000 ) ) ;
#391 = CARTESIAN_POINT ( 'NONE',  ( 14.25474041071149145, 6.700000000000736478, 0.000000000000000000 ) ) ;
#392 = DIRECTION ( 'NONE',  ( -1.000000000000000000, 0.000000000000000000, 0.000000000000000000 ) ) ;
#393 = VERTEX_POINT ( 'NONE', #648 ) ;
#394 = DIRECTION ( 'NONE',  ( 1.000000000000000000, 0.000000000000000000, 0.000000000000000000 ) ) ;
#395 = DIRECTION ( 'NONE',  ( 1.000000000000000000, 0.000000000000000000, 0.000000000000000000 ) ) ;
#396 = EDGE_CURVE ( 'NONE', #266, #641, #457, .T. ) ;
#397 = AXIS2_PLACEMENT_3D ( 'NONE', #484, #135, #1035 ) ;
#398 = LINE ( 'NONE', #945, #1074 ) ;
#399 = VECTOR ( 'NONE', #1023, 1000.000000000000000 ) ;
#400 = ORIENTED_EDGE ( 'NONE', *, *, #1179, .F. ) ;
#401 = DIRECTION ( 'NONE',  ( 0.000000000000000000, 0.000000000000000000, -1.000000000000000000 ) ) ;
#402 = DIRECTION ( 'NONE',  ( 1.000000000000000000, 0.000000000000000000, 0.000000000000000000 ) ) ;
#403 = DIRECTION ( 'NONE',  ( 1.000000000000000000, 0.000000000000000000, 0.000000000000000000 ) ) ;
#404 = ORIENTED_EDGE ( 'NONE', *, *, #69, .F. ) ;
#405 = FACE_OUTER_BOUND ( 'NONE', #920, .T. ) ;
#406 = DIRECTION ( 'NONE',  ( -0.000000000000000000, -0.000000000000000000, 1.000000000000000000 ) ) ;
#407 = DIRECTION ( 'NONE',  ( -0.3431409490534798601, 0.9392839235729936176, 0.000000000000000000 ) ) ;
#408 = PRODUCT_DEFINITION_CONTEXT ( 'detailed design', #659, 'design' ) ;
#409 = AXIS2_PLACEMENT_3D ( 'NONE', #439, #357, #270 ) ;
#410 = VERTEX_POINT ( 'NONE', #709 ) ;
#411 = CARTESIAN_POINT ( 'NONE',  ( 0.000000000000000000, 0.000000000000000000, -3.000000000000000000 ) ) ;
#412 = FACE_OUTER_BOUND ( 'NONE', #617, .T. ) ;
#413 = EDGE_CURVE ( 'NONE', #1043, #2, #563, .T. ) ;
#414 = FACE_OUTER_BOUND ( 'NONE', #877, .T. ) ;
#415 = EDGE_CURVE ( 'NONE', #422, #498, #817, .T. ) ;
#416 = ORIENTED_EDGE ( 'NONE', *, *, #811, .F. ) ;
#417 = DIRECTION ( 'NONE',  ( 0.1724731828275075929, 0.9850142137072688264, 0.000000000000000000 ) ) ;
#418 = ORIENTED_EDGE ( 'NONE', *, *, #93, .T. ) ;
#419 = ORIENTED_EDGE ( 'NONE', *, *, #427, .F. ) ;
#420 = DIRECTION ( 'NONE',  ( -0.6418732646538348741, -0.7668107407454777258, 0.000000000000000000 ) ) ;
#421 = CYLINDRICAL_SURFACE ( 'NONE', #281, 1.900000000002598499 ) ;
#422 = VERTEX_POINT ( 'NONE', #1093 ) ;
#423 = VECTOR ( 'NONE', #417, 1000.000000000000000 ) ;
#424 = VERTEX_POINT ( 'NONE', #444 ) ;
#425 = FACE_BOUND ( 'NONE', #243, .T. ) ;
#426 = DIRECTION ( 'NONE',  ( -0.000000000000000000, -0.000000000000000000, 1.000000000000000000 ) ) ;
#427 = EDGE_CURVE ( 'NONE', #1026, #459, #637, .T. ) ;
#428 = VERTEX_POINT ( 'NONE', #539 ) ;
#429 = DIRECTION ( 'NONE',  ( 0.7668107407454776148, -0.6418732646538348741, 0.000000000000000000 ) ) ;
#430 = EDGE_LOOP ( 'NONE', ( #183, #342, #704, #1053 ) ) ;
#431 = CIRCLE ( 'NONE', #1168, 2.649999999999999467 ) ;
#432 = DIRECTION ( 'NONE',  ( -1.000000000000000000, -1.636531581110195607E-15, 0.000000000000000000 ) ) ;
#433 = CIRCLE ( 'NONE', #19, 1.900000000002597611 ) ;
#434 = ADVANCED_FACE ( 'NONE', ( #911 ), #730, .F. ) ;
#435 = DIRECTION ( 'NONE',  ( -0.000000000000000000, -0.000000000000000000, 1.000000000000000000 ) ) ;
#436 = ORIENTED_EDGE ( 'NONE', *, *, #847, .F. ) ;
#437 = CARTESIAN_POINT ( 'NONE',  ( -10.69541689571855159, -9.189102397468486672, 0.000000000000000000 ) ) ;
#438 = CARTESIAN_POINT ( 'NONE',  ( 3.864579600900049261, 6.693648218653777349, -42.93251095273883777 ) ) ;
#439 = CARTESIAN_POINT ( 'NONE',  ( -11.60474041071085516, 6.699999999999613820, 2.299999999999999822 ) ) ;
#440 = ORIENTED_EDGE ( 'NONE', *, *, #758, .F. ) ;
#441 = CARTESIAN_POINT ( 'NONE',  ( -3.864579600900125200, 6.693648218653342141, 2.299999999999999822 ) ) ;
#442 = ORIENTED_EDGE ( 'NONE', *, *, #518, .F. ) ;
#443 = DIRECTION ( 'NONE',  ( 0.7668107407454776148, -0.6418732646538348741, 0.000000000000000000 ) ) ;
#444 = CARTESIAN_POINT ( 'NONE',  ( -7.729159201799991941, -3.478120569333498224E-13, 0.000000000000000000 ) ) ;
#445 = ORIENTED_EDGE ( 'NONE', *, *, #253, .T. ) ;
#446 = DIRECTION ( 'NONE',  ( -0.000000000000000000, -0.000000000000000000, 1.000000000000000000 ) ) ;
#447 = EDGE_CURVE ( 'NONE', #827, #721, #503, .T. ) ;
#448 = ORIENTED_EDGE ( 'NONE', *, *, #1146, .F. ) ;
#449 = VECTOR ( 'NONE', #217, 1000.000000000000000 ) ;
#450 = VECTOR ( 'NONE', #1135, 1000.000000000000000 ) ;
#451 = DIRECTION ( 'NONE',  ( -0.000000000000000000, -0.000000000000000000, 1.000000000000000000 ) ) ;
#452 = CARTESIAN_POINT ( 'NONE',  ( -2.610287666322975486, -13.85705393449220679, 0.000000000000000000 ) ) ;
#453 = ORIENTED_EDGE ( 'NONE', *, *, #76, .F. ) ;
#454 = FILL_AREA_STYLE ('',( #1089 ) ) ;
#455 = ORIENTED_EDGE ( 'NONE', *, *, #36, .T. ) ;
#456 = CARTESIAN_POINT ( 'NONE',  ( -3.864579600900125200, 6.693648218653342141, -42.93251095273883777 ) ) ;
#457 = LINE ( 'NONE', #1175, #977 ) ;
#458 = ADVANCED_FACE ( 'NONE', ( #181 ), #87, .F. ) ;
#459 = VERTEX_POINT ( 'NONE', #1028 ) ;
#460 = DIRECTION ( 'NONE',  ( -0.7668107407454598512, -0.6418732646538558573, 0.000000000000000000 ) ) ;
#461 = VERTEX_POINT ( 'NONE', #391 ) ;
#462 = CARTESIAN_POINT ( 'NONE',  ( 3.864579600901408174, -6.693648218652620940, 2.299999999999999822 ) ) ;
#463 = VECTOR ( 'NONE', #158, 1000.000000000000114 ) ;
#464 = CARTESIAN_POINT ( 'NONE',  ( -6.874999999999910294, 11.90784930203598968, -3.000000000000000000 ) ) ;
#465 = CARTESIAN_POINT ( 'NONE',  ( -7.729159201799991052, -3.485303408726214691E-13, 0.000000000000000000 ) ) ;
#466 =( LENGTH_UNIT ( ) NAMED_UNIT ( * ) SI_UNIT ( .MILLI., .METRE. ) );
#467 = VERTEX_POINT ( 'NONE', #928 ) ;
#468 = CARTESIAN_POINT ( 'NONE',  ( 19.90000000000000213, 2.437047130303233156E-15, -3.000000000000000000 ) ) ;
#469 = CIRCLE ( 'NONE', #1191, 19.90000000000000213 ) ;
#470 = CARTESIAN_POINT ( 'NONE',  ( -6.874999999998058442, -11.90784930203661496, -3.000000000000000000 ) ) ;
#471 = EDGE_CURVE ( 'NONE', #1043, #832, #1040, .T. ) ;
#472 = LINE ( 'NONE', #21, #745 ) ;
#473 = DIRECTION ( 'NONE',  ( -0.9392839235729935066, -0.3431409490534798046, 0.000000000000000000 ) ) ;
#474 = ORIENTED_EDGE ( 'NONE', *, *, #1163, .T. ) ;
#475 =( GEOMETRIC_REPRESENTATION_CONTEXT ( 3 ) GLOBAL_UNCERTAINTY_ASSIGNED_CONTEXT ( ( #871 ) ) GLOBAL_UNIT_ASSIGNED_CONTEXT ( ( #1139, #749, #319 ) ) REPRESENTATION_CONTEXT ( 'NONE', 'WORKASPACE' ) );
#476 = CARTESIAN_POINT ( 'NONE',  ( 3.864579600901408174, -6.693648218652620940, 0.000000000000000000 ) ) ;
#477 = DIRECTION ( 'NONE',  ( 1.000000000000000000, 0.000000000000000000, 0.000000000000000000 ) ) ;
#478 = VECTOR ( 'NONE', #874, 1000.000000000000000 ) ;
#479 = DIRECTION ( 'NONE',  ( 0.000000000000000000, 0.000000000000000000, -1.000000000000000000 ) ) ;
#480 = ORIENTED_EDGE ( 'NONE', *, *, #626, .F. ) ;
#481 = CARTESIAN_POINT ( 'NONE',  ( -8.774999999997124434, -11.90784930203661496, 2.299999999999999822 ) ) ;
#482 = DIRECTION ( 'NONE',  ( -0.000000000000000000, -0.000000000000000000, 1.000000000000000000 ) ) ;
#483 = LINE ( 'NONE', #1047, #308 ) ;
#484 = CARTESIAN_POINT ( 'NONE',  ( -3.864579600899062495, -6.693648218653594384, -42.93251095273883777 ) ) ;
#485 = ORIENTED_EDGE ( 'NONE', *, *, #331, .T. ) ;
#486 = CARTESIAN_POINT ( 'NONE',  ( 7.729159201800657186, 1.055159106790048984E-12, 2.299999999999999822 ) ) ;
#487 = DIRECTION ( 'NONE',  ( 0.7668107407454950453, 0.6418732646538141129, 0.000000000000000000 ) ) ;
#488 = AXIS2_PLACEMENT_3D ( 'NONE', #842, #645, #719 ) ;
#489 = DIRECTION ( 'NONE',  ( -0.000000000000000000, -0.000000000000000000, 1.000000000000000000 ) ) ;
#490 = AXIS2_PLACEMENT_3D ( 'NONE', #834, #654, #1021 ) ;
#491 = VERTEX_POINT ( 'NONE', #5 ) ;
#492 = AXIS2_PLACEMENT_3D ( 'NONE', #145, #506, #262 ) ;
#493 = CARTESIAN_POINT ( 'NONE',  ( 6.874999999998322231, 11.90784930203709280, -8.374011537025108254 ) ) ;
#494 = CARTESIAN_POINT ( 'NONE',  ( 14.25474041071213627, -6.699999999998910383, 2.299999999999999822 ) ) ;
#495 = EDGE_CURVE ( 'NONE', #428, #973, #508, .T. ) ;
#496 = CARTESIAN_POINT ( 'NONE',  ( 10.69541689571983767, 9.189102397469193662, -42.93251095273883777 ) ) ;
#497 = EDGE_CURVE ( 'NONE', #393, #843, #1117, .T. ) ;
#498 = VERTEX_POINT ( 'NONE', #126 ) ;
#499 = FACE_OUTER_BOUND ( 'NONE', #45, .T. ) ;
#500 = EDGE_CURVE ( 'NONE', #827, #854, #840, .T. ) ;
#501 = CARTESIAN_POINT ( 'NONE',  ( 6.874999999998322231, 11.90784930203709280, 2.299999999999999822 ) ) ;
#502 = DIRECTION ( 'NONE',  ( 1.000000000000000000, 0.000000000000000000, 0.000000000000000000 ) ) ;
#503 = CIRCLE ( 'NONE', #210, 2.649999999999999467 ) ;
#504 = ORIENTED_EDGE ( 'NONE', *, *, #74, .F. ) ;
#505 = ORIENTED_EDGE ( 'NONE', *, *, #447, .F. ) ;
#506 = DIRECTION ( 'NONE',  ( -0.9850142137072687154, 0.1724731828275083145, 0.000000000000000000 ) ) ;
#507 = CARTESIAN_POINT ( 'NONE',  ( -19.90000000000000213, 0.000000000000000000, 2.299999999999996270 ) ) ;
#508 = CIRCLE ( 'NONE', #1189, 1.900000000000000577 ) ;
#509 = AXIS2_PLACEMENT_3D ( 'NONE', #103, #277, #184 ) ;
#510 = VERTEX_POINT ( 'NONE', #106 ) ;
#511 = CIRCLE ( 'NONE', #589, 19.90000000000000213 ) ;
#512 = ORIENTED_EDGE ( 'NONE', *, *, #975, .F. ) ;
#513 = FACE_OUTER_BOUND ( 'NONE', #214, .T. ) ;
#514 = FACE_OUTER_BOUND ( 'NONE', #669, .T. ) ;
#515 = EDGE_LOOP ( 'NONE', ( #516, #23, #485, #179 ) ) ;
#516 = ORIENTED_EDGE ( 'NONE', *, *, #751, .F. ) ;
#517 = DIRECTION ( 'NONE',  ( 0.000000000000000000, 0.000000000000000000, 1.000000000000000000 ) ) ;
#518 = EDGE_CURVE ( 'NONE', #2, #1043, #784, .T. ) ;
#519 = DIRECTION ( 'NONE',  ( -0.000000000000000000, -0.000000000000000000, 1.000000000000000000 ) ) ;
#520 = VERTEX_POINT ( 'NONE', #12 ) ;
#521 = CARTESIAN_POINT ( 'NONE',  ( -6.874999999999910294, 11.90784930203598968, -3.000000000000000000 ) ) ;
#522 = AXIS2_PLACEMENT_3D ( 'NONE', #532, #435, #906 ) ;
#523 = ORIENTED_EDGE ( 'NONE', *, *, #1109, .F. ) ;
#524 = EDGE_CURVE ( 'NONE', #461, #823, #753, .T. ) ;
#525 = CARTESIAN_POINT ( 'NONE',  ( -7.729159201799991052, -3.485303408726214691E-13, -42.93251095273883777 ) ) ;
#526 = DIRECTION ( 'NONE',  ( -0.000000000000000000, -0.000000000000000000, 1.000000000000000000 ) ) ;
#527 = ORIENTED_EDGE ( 'NONE', *, *, #228, .F. ) ;
#528 = LINE ( 'NONE', #376, #703 ) ;
#529 = CIRCLE ( 'NONE', #490, 5.000000000000000000 ) ;
#530 = CARTESIAN_POINT ( 'NONE',  ( 4.974999999998322764, 11.90784930203709280, -8.374011537025108254 ) ) ;
#531 = VECTOR ( 'NONE', #785, 1000.000000000000227 ) ;
#532 = CARTESIAN_POINT ( 'NONE',  ( 0.000000000000000000, 13.40000000000000036, 0.000000000000000000 ) ) ;
#533 = EDGE_CURVE ( 'NONE', #3, #823, #609, .T. ) ;
#534 = VERTEX_POINT ( 'NONE', #766 ) ;
#535 = DIRECTION ( 'NONE',  ( -0.000000000000000000, -0.000000000000000000, -1.000000000000000000 ) ) ;
#536 = VERTEX_POINT ( 'NONE', #957 ) ;
#537 = CARTESIAN_POINT ( 'NONE',  ( -7.729159201799991052, -3.485303408726214691E-13, -42.93251095273883777 ) ) ;
#538 = ADVANCED_FACE ( 'NONE', ( #852 ), #950, .F. ) ;
#539 = CARTESIAN_POINT ( 'NONE',  ( -8.774999999999911537, 11.90784930203598968, -3.000000000000000000 ) ) ;
#540 = EDGE_CURVE ( 'NONE', #896, #1008, #1046, .T. ) ;
#541 = ORIENTED_EDGE ( 'NONE', *, *, #353, .T. ) ;
#542 =( NAMED_UNIT ( * ) PLANE_ANGLE_UNIT ( ) SI_UNIT ( $, .RADIAN. ) );
#543 = VERTEX_POINT ( 'NONE', #789 ) ;
#544 = CARTESIAN_POINT ( 'NONE',  ( 0.000000000000000000, 0.000000000000000000, 58.86854249492380831 ) ) ;
#545 = DIRECTION ( 'NONE',  ( 0.7668107407454950453, 0.6418732646538141129, 0.000000000000000000 ) ) ;
#546 = ORIENTED_EDGE ( 'NONE', *, *, #892, .F. ) ;
#547 = DIRECTION ( 'NONE',  ( -1.000000000000000000, 0.000000000000000000, 0.000000000000000000 ) ) ;
#548 = ORIENTED_EDGE ( 'NONE', *, *, #1062, .F. ) ;
#549 = EDGE_CURVE ( 'NONE', #137, #50, #1051, .T. ) ;
#550 = VECTOR ( 'NONE', #429, 1000.000000000000114 ) ;
#551 = DIRECTION ( 'NONE',  ( 0.3431409490534277351, 0.9392839235730126024, 0.000000000000000000 ) ) ;
#552 = AXIS2_PLACEMENT_3D ( 'NONE', #373, #1133, #386 ) ;
#553 = DIRECTION ( 'NONE',  ( -0.000000000000000000, -0.000000000000000000, 1.000000000000000000 ) ) ;
#554 = VERTEX_POINT ( 'NONE', #241 ) ;
#555 = CARTESIAN_POINT ( 'NONE',  ( 3.864579600900049261, 6.693648218653777349, 0.000000000000000000 ) ) ;
#556 = VERTEX_POINT ( 'NONE', #1158 ) ;
#557 = FACE_OUTER_BOUND ( 'NONE', #820, .T. ) ;
#558 = ADVANCED_FACE ( 'NONE', ( #586 ), #698, .F. ) ;
#559 = LINE ( 'NONE', #465, #1132 ) ;
#560 = ORIENTED_EDGE ( 'NONE', *, *, #194, .F. ) ;
#561 = CARTESIAN_POINT ( 'NONE',  ( 10.69541689572048782, -9.189102397467369343, 0.000000000000000000 ) ) ;
#562 = EDGE_CURVE ( 'NONE', #117, #1187, #607, .T. ) ;
#563 = CIRCLE ( 'NONE', #720, 1.899999999999064659 ) ;
#564 = DIRECTION ( 'NONE',  ( 0.9392839235730118252, 0.3431409490534294005, 0.000000000000000000 ) ) ;
#565 = DIRECTION ( 'NONE',  ( -0.000000000000000000, -0.000000000000000000, 1.000000000000000000 ) ) ;
#566 = ORIENTED_EDGE ( 'NONE', *, *, #74, .T. ) ;
#567 = DIRECTION ( 'NONE',  ( 0.3431409490534294005, -0.9392839235730119363, 0.000000000000000000 ) ) ;
#568 = VECTOR ( 'NONE', #677, 1000.000000000000000 ) ;
#569 = MECHANICAL_DESIGN_GEOMETRIC_PRESENTATION_REPRESENTATION (  '', ( #1000 ), #150 ) ;
#570 = LINE ( 'NONE', #846, #399 ) ;
#571 = ORIENTED_EDGE ( 'NONE', *, *, #1095, .F. ) ;
#572 = ADVANCED_FACE ( 'NONE', ( #317 ), #795, .F. ) ;
#573 = DIRECTION ( 'NONE',  ( -1.000000000000000000, 0.000000000000000000, 0.000000000000000000 ) ) ;
#574 = CARTESIAN_POINT ( 'NONE',  ( -10.69541689571855159, -9.189102397468486672, 2.299999999999999822 ) ) ;
#575 = DIRECTION ( 'NONE',  ( 0.000000000000000000, 0.000000000000000000, 1.000000000000000000 ) ) ;
#576 = ORIENTED_EDGE ( 'NONE', *, *, #1186, .T. ) ;
#577 = LINE ( 'NONE', #486, #861 ) ;
#578 = CARTESIAN_POINT ( 'NONE',  ( 3.864579600901408174, -6.693648218652620940, -42.93251095273883777 ) ) ;
#579 = AXIS2_PLACEMENT_3D ( 'NONE', #870, #780, #141 ) ;
#580 = FACE_OUTER_BOUND ( 'NONE', #142, .T. ) ;
#581 = AXIS2_PLACEMENT_3D ( 'NONE', #133, #1145, #402 ) ;
#582 = ORIENTED_EDGE ( 'NONE', *, *, #201, .F. ) ;
#583 = CARTESIAN_POINT ( 'NONE',  ( 4.974999999998322764, 11.90784930203709280, 2.299999999999999822 ) ) ;
#584 = ADVANCED_FACE ( 'NONE', ( #513 ), #964, .F. ) ;
#585 = EDGE_CURVE ( 'NONE', #712, #750, #43, .T. ) ;
#586 = FACE_OUTER_BOUND ( 'NONE', #1149, .T. ) ;
#587 = APPLICATION_CONTEXT ( 'automotive_design' ) ;
#588 = VECTOR ( 'NONE', #1002, 1000.000000000000000 ) ;
#589 = AXIS2_PLACEMENT_3D ( 'NONE', #383, #479, #115 ) ;
#590 = PLANE ( 'NONE',  #955 ) ;
#591 = CARTESIAN_POINT ( 'NONE',  ( 3.864579600900049261, 6.693648218653777349, 2.299999999999999822 ) ) ;
#592 = AXIS2_PLACEMENT_3D ( 'NONE', #175, #821, #915 ) ;
#593 = ORIENTED_EDGE ( 'NONE', *, *, #518, .T. ) ;
#594 = ADVANCED_FACE ( 'NONE', ( #48 ), #860, .F. ) ;
#595 = CIRCLE ( 'NONE', #967, 1.899999999999999689 ) ;
#596 = DIRECTION ( 'NONE',  ( -1.000000000000000000, 0.000000000000000000, 0.000000000000000000 ) ) ;
#597 = EDGE_CURVE ( 'NONE', #428, #491, #1153, .T. ) ;
#598 = DIRECTION ( 'NONE',  ( -0.9392839235729935066, -0.3431409490534798046, 0.000000000000000000 ) ) ;
#599 = ORIENTED_EDGE ( 'NONE', *, *, #768, .F. ) ;
#600 = VERTEX_POINT ( 'NONE', #494 ) ;
#601 = FACE_BOUND ( 'NONE', #739, .T. ) ;
#602 = PLANE ( 'NONE',  #492 ) ;
#603 = LINE ( 'NONE', #1159, #1182 ) ;
#604 = VECTOR ( 'NONE', #519, 1000.000000000000000 ) ;
#605 = EDGE_LOOP ( 'NONE', ( #639, #95, #651, #960 ) ) ;
#606 = ORIENTED_EDGE ( 'NONE', *, *, #930, .F. ) ;
#607 = LINE ( 'NONE', #976, #305 ) ;
#608 = CARTESIAN_POINT ( 'NONE',  ( 1.284469037195706312E-12, -13.39999999999929159, 2.299999999999999822 ) ) ;
#609 = CIRCLE ( 'NONE', #940, 2.649999999999999467 ) ;
#610 = AXIS2_PLACEMENT_3D ( 'NONE', #1054, #234, #596 ) ;
#611 = ORIENTED_EDGE ( 'NONE', *, *, #1119, .T. ) ;
#612 = VECTOR ( 'NONE', #674, 1000.000000000000114 ) ;
#613 = ADVANCED_FACE ( 'NONE', ( #412 ), #688, .F. ) ;
#614 = ORIENTED_EDGE ( 'NONE', *, *, #845, .F. ) ;
#615 = VECTOR ( 'NONE', #473, 1000.000000000000227 ) ;
#616 = CARTESIAN_POINT ( 'NONE',  ( 11.60474041071213591, -6.699999999998910383, -42.93251095273883777 ) ) ;
#617 = EDGE_LOOP ( 'NONE', ( #546, #706, #445, #297 ) ) ;
#618 = ORIENTED_EDGE ( 'NONE', *, *, #1167, .T. ) ;
#619 = DIRECTION ( 'NONE',  ( -1.000000000000000000, 0.000000000000000000, 0.000000000000000000 ) ) ;
#620 = CARTESIAN_POINT ( 'NONE',  ( -6.874999999998058442, -11.90784930203661496, -3.000000000000000000 ) ) ;
#621 = ORIENTED_EDGE ( 'NONE', *, *, #1141, .T. ) ;
#622 = FACE_BOUND ( 'NONE', #899, .T. ) ;
#623 = VECTOR ( 'NONE', #246, 1000.000000000000114 ) ;
#624 = EDGE_LOOP ( 'NONE', ( #191, #835 ) ) ;
#625 = DIRECTION ( 'NONE',  ( -1.000000000000000000, 0.000000000000000000, 0.000000000000000000 ) ) ;
#626 = EDGE_CURVE ( 'NONE', #50, #981, #595, .T. ) ;
#627 = CARTESIAN_POINT ( 'NONE',  ( 6.874999999998322231, 11.90784930203709280, 2.299999999999999822 ) ) ;
#628 = ORIENTED_EDGE ( 'NONE', *, *, #125, .F. ) ;
#629 = CARTESIAN_POINT ( 'NONE',  ( -7.729159201799991052, -3.485303408726214691E-13, 2.299999999999999822 ) ) ;
#630 = VECTOR ( 'NONE', #778, 1000.000000000000000 ) ;
#631 = CIRCLE ( 'NONE', #826, 1.899999999999064659 ) ;
#632 = EDGE_CURVE ( 'NONE', #1031, #309, #236, .T. ) ;
#633 = ORIENTED_EDGE ( 'NONE', *, *, #992, .T. ) ;
#634 = VECTOR ( 'NONE', #1134, 1000.000000000000000 ) ;
#635 = ADVANCED_FACE ( 'NONE', ( #52 ), #602, .F. ) ;
#636 = FACE_OUTER_BOUND ( 'NONE', #1076, .T. ) ;
#637 = LINE ( 'NONE', #176, #1032 ) ;
#638 = AXIS2_PLACEMENT_3D ( 'NONE', #762, #575, #664 ) ;
#639 = ORIENTED_EDGE ( 'NONE', *, *, #540, .T. ) ;
#640 = CARTESIAN_POINT ( 'NONE',  ( -5.000000000000000000, 6.123233995736766282E-16, 0.000000000000000000 ) ) ;
#641 = VERTEX_POINT ( 'NONE', #157 ) ;
#642 = FACE_BOUND ( 'NONE', #1071, .T. ) ;
#643 = DIRECTION ( 'NONE',  ( 1.000000000000000000, 0.000000000000000000, 0.000000000000000000 ) ) ;
#644 = ORIENTED_EDGE ( 'NONE', *, *, #1077, .F. ) ;
#645 = DIRECTION ( 'NONE',  ( 0.000000000000000000, 0.000000000000000000, 1.000000000000000000 ) ) ;
#646 = ORIENTED_EDGE ( 'NONE', *, *, #997, .T. ) ;
#647 = CARTESIAN_POINT ( 'NONE',  ( -3.864579600899062495, -6.693648218653594384, 2.299999999999999822 ) ) ;
#648 = CARTESIAN_POINT ( 'NONE',  ( 19.90000000000000213, 2.437047130303233156E-15, 2.299999999999996270 ) ) ;
#649 = EDGE_LOOP ( 'NONE', ( #258, #548, #890, #238 ) ) ;
#650 = DIRECTION ( 'NONE',  ( 1.000000000000000000, 0.000000000000000000, 0.000000000000000000 ) ) ;
#651 = ORIENTED_EDGE ( 'NONE', *, *, #500, .F. ) ;
#652 = ADVANCED_FACE ( 'NONE', ( #829 ), #1195, .T. ) ;
#653 = VECTOR ( 'NONE', #1007, 1000.000000000000114 ) ;
#654 = DIRECTION ( 'NONE',  ( -0.000000000000000000, -0.000000000000000000, 1.000000000000000000 ) ) ;
#655 = AXIS2_PLACEMENT_3D ( 'NONE', #670, #380, #573 ) ;
#656 = AXIS2_PLACEMENT_3D ( 'NONE', #729, #517, #800 ) ;
#657 = DIRECTION ( 'NONE',  ( -0.1724731828275082590, 0.9850142137072687154, 0.000000000000000000 ) ) ;
#658 = DIRECTION ( 'NONE',  ( -1.000000000000000000, 1.636531581110195607E-15, 0.000000000000000000 ) ) ;
#659 = APPLICATION_CONTEXT ( 'automotive_design' ) ;
#660 = EDGE_CURVE ( 'NONE', #721, #55, #707, .T. ) ;
#661 = VERTEX_POINT ( 'NONE', #1009 ) ;
#662 = CARTESIAN_POINT ( 'NONE',  ( 0.000000000000000000, 0.000000000000000000, 2.299999999999999822 ) ) ;
#663 = DIRECTION ( 'NONE',  ( -0.000000000000000000, -0.000000000000000000, 1.000000000000000000 ) ) ;
#664 = DIRECTION ( 'NONE',  ( 1.000000000000000000, 0.000000000000000000, 0.000000000000000000 ) ) ;
#665 = VERTEX_POINT ( 'NONE', #73 ) ;
#666 = DIRECTION ( 'NONE',  ( -0.1724731828275083145, -0.9850142137072687154, 0.000000000000000000 ) ) ;
#667 = CARTESIAN_POINT ( 'NONE',  ( -13.30570456204346108, 4.667951537024054076, -42.93251095273883777 ) ) ;
#668 = LINE ( 'NONE', #591, #249 ) ;
#669 = EDGE_LOOP ( 'NONE', ( #907, #696, #440, #744 ) ) ;
#670 = CARTESIAN_POINT ( 'NONE',  ( 6.874999999998322231, 11.90784930203709280, -3.000000000000000000 ) ) ;
#671 = CIRCLE ( 'NONE', #859, 1.900000000000000577 ) ;
#672 = EDGE_CURVE ( 'NONE', #1125, #1120, #280, .T. ) ;
#673 = CIRCLE ( 'NONE', #1056, 2.649999999999999467 ) ;
#674 = DIRECTION ( 'NONE',  ( 0.9392839235730119363, 0.3431409490534294005, 0.000000000000000000 ) ) ;
#675 = EDGE_LOOP ( 'NONE', ( #149, #54, #680, #385 ) ) ;
#676 = DIRECTION ( 'NONE',  ( -0.000000000000000000, -0.000000000000000000, 1.000000000000000000 ) ) ;
#677 = DIRECTION ( 'NONE',  ( -0.000000000000000000, -0.000000000000000000, 1.000000000000000000 ) ) ;
#678 = CYLINDRICAL_SURFACE ( 'NONE', #882, 2.649999999999999467 ) ;
#679 = SURFACE_SIDE_STYLE ('',( #946 ) ) ;
#680 = ORIENTED_EDGE ( 'NONE', *, *, #1055, .T. ) ;
#681 = EDGE_CURVE ( 'NONE', #554, #104, #80, .T. ) ;
#682 = DIRECTION ( 'NONE',  ( -0.7668107407455123647, 0.6418732646537933517, 0.000000000000000000 ) ) ;
#683 = CARTESIAN_POINT ( 'NONE',  ( -13.30570456204346286, 4.667951537024054076, -42.93251095273883777 ) ) ;
#684 = VECTOR ( 'NONE', #75, 1000.000000000000000 ) ;
#685 = LINE ( 'NONE', #242, #321 ) ;
#686 = ORIENTED_EDGE ( 'NONE', *, *, #975, .T. ) ;
#687 = DIRECTION ( 'NONE',  ( 1.000000000000000000, 0.000000000000000000, 0.000000000000000000 ) ) ;
#688 = CYLINDRICAL_SURFACE ( 'NONE', #71, 2.649999999999999467 ) ;
#689 = CYLINDRICAL_SURFACE ( 'NONE', #244, 19.90000000000000213 ) ;
#690 = UNCERTAINTY_MEASURE_WITH_UNIT (LENGTH_MEASURE( 1.000000000000000082E-05 ), #774, 'distance_accuracy_value', 'NONE');
#691 = ORIENTED_EDGE ( 'NONE', *, *, #714, .F. ) ;
#692 = AXIS2_PLACEMENT_3D ( 'NONE', #525, #810, #86 ) ;
#693 = EDGE_CURVE ( 'NONE', #600, #422, #903, .T. ) ;
#694 = CARTESIAN_POINT ( 'NONE',  ( -8.774999999997124434, -11.90784930203661496, -3.000000000000000000 ) ) ;
#695 = CARTESIAN_POINT ( 'NONE',  ( -3.864579600900125200, 6.693648218653342141, -42.93251095273883777 ) ) ;
#696 = ORIENTED_EDGE ( 'NONE', *, *, #930, .T. ) ;
#697 = EDGE_LOOP ( 'NONE', ( #322, #527 ) ) ;
#698 = CYLINDRICAL_SURFACE ( 'NONE', #267, 1.900000000000000577 ) ;
#699 = LINE ( 'NONE', #801, #779 ) ;
#700 = ORIENTED_EDGE ( 'NONE', *, *, #292, .T. ) ;
#701 = DIRECTION ( 'NONE',  ( 1.000000000000000000, 0.000000000000000000, 0.000000000000000000 ) ) ;
#702 = CYLINDRICAL_SURFACE ( 'NONE', #60, 2.649999999999999467 ) ;
#703 = VECTOR ( 'NONE', #96, 1000.000000000000000 ) ;
#704 = ORIENTED_EDGE ( 'NONE', *, *, #206, .T. ) ;
#705 = AXIS2_PLACEMENT_3D ( 'NONE', #741, #310, #394 ) ;
#706 = ORIENTED_EDGE ( 'NONE', *, *, #524, .T. ) ;
#707 = CIRCLE ( 'NONE', #193, 2.649999999999999467 ) ;
#708 = CARTESIAN_POINT ( 'NONE',  ( 11.60474041071213591, -6.699999999998910383, 0.000000000000000000 ) ) ;
#709 = CARTESIAN_POINT ( 'NONE',  ( -10.69541689571921417, 9.189102397468072780, 2.299999999999999822 ) ) ;
#710 = ORIENTED_EDGE ( 'NONE', *, *, #1020, .F. ) ;
#711 = DIRECTION ( 'NONE',  ( -0.000000000000000000, -0.000000000000000000, 1.000000000000000000 ) ) ;
#712 = VERTEX_POINT ( 'NONE', #734 ) ;
#713 = ADVANCED_FACE ( 'NONE', ( #368 ), #1079, .F. ) ;
#714 = EDGE_CURVE ( 'NONE', #1061, #467, #132, .T. ) ;
#715 = DIRECTION ( 'NONE',  ( 1.000000000000000000, 0.000000000000000000, 0.000000000000000000 ) ) ;
#716 = DIRECTION ( 'NONE',  ( -0.7668107407455122537, 0.6418732646537933517, 0.000000000000000000 ) ) ;
#717 = EDGE_CURVE ( 'NONE', #733, #1096, #356, .T. ) ;
#718 = ORIENTED_EDGE ( 'NONE', *, *, #471, .T. ) ;
#719 = DIRECTION ( 'NONE',  ( 1.000000000000000000, 0.000000000000000000, 0.000000000000000000 ) ) ;
#720 = AXIS2_PLACEMENT_3D ( 'NONE', #620, #526, #350 ) ;
#721 = VERTEX_POINT ( 'NONE', #910 ) ;
#722 = LINE ( 'NONE', #530, #290 ) ;
#723 = CARTESIAN_POINT ( 'NONE',  ( 6.874999999999894307, -11.90784930203592396, 2.299999999999999822 ) ) ;
#724 = EDGE_LOOP ( 'NONE', ( #1192, #1106, #400, #58 ) ) ;
#725 = CYLINDRICAL_SURFACE ( 'NONE', #268, 1.899999999999064659 ) ;
#726 = AXIS2_PLACEMENT_3D ( 'NONE', #470, #374, #387 ) ;
#727 = AXIS2_PLACEMENT_3D ( 'NONE', #1063, #46, #783 ) ;
#728 = ORIENTED_EDGE ( 'NONE', *, *, #672, .T. ) ;
#729 = CARTESIAN_POINT ( 'NONE',  ( -11.60474041071020679, -6.700000000000029488, 2.299999999999999822 ) ) ;
#730 = CYLINDRICAL_SURFACE ( 'NONE', #819, 2.649999999999999467 ) ;
#731 = ORIENTED_EDGE ( 'NONE', *, *, #892, .T. ) ;
#732 = FACE_OUTER_BOUND ( 'NONE', #866, .T. ) ;
#733 = VERTEX_POINT ( 'NONE', #647 ) ;
#734 = CARTESIAN_POINT ( 'NONE',  ( 2.610287666324261568, 13.85705393449289957, 0.000000000000000000 ) ) ;
#735 = CARTESIAN_POINT ( 'NONE',  ( -6.874999999999910294, 11.90784930203598968, -8.374011537025108254 ) ) ;
#736 = ORIENTED_EDGE ( 'NONE', *, *, #776, .F. ) ;
#737 = CARTESIAN_POINT ( 'NONE',  ( -6.874999999998058442, -11.90784930203661496, 2.299999999999999822 ) ) ;
#738 = EDGE_CURVE ( 'NONE', #912, #424, #1188, .T. ) ;
#739 = EDGE_LOOP ( 'NONE', ( #593, #147 ) ) ;
#740 = AXIS2_PLACEMENT_3D ( 'NONE', #735, #553, #916 ) ;
#741 = CARTESIAN_POINT ( 'NONE',  ( -6.874999999998058442, -11.90784930203661496, -8.374011537025108254 ) ) ;
#742 = EDGE_CURVE ( 'NONE', #389, #981, #722, .T. ) ;
#743 = EDGE_LOOP ( 'NONE', ( #599, #805 ) ) ;
#744 = ORIENTED_EDGE ( 'NONE', *, *, #562, .F. ) ;
#745 = VECTOR ( 'NONE', #1128, 1000.000000000000000 ) ;
#746 = CARTESIAN_POINT ( 'NONE',  ( -4.974999999998994227, -11.90784930203661496, -8.374011537025108254 ) ) ;
#747 = AXIS2_PLACEMENT_3D ( 'NONE', #662, #29, #1111 ) ;
#748 = DIRECTION ( 'NONE',  ( 0.000000000000000000, 0.000000000000000000, 1.000000000000000000 ) ) ;
#749 =( NAMED_UNIT ( * ) PLANE_ANGLE_UNIT ( ) SI_UNIT ( $, .RADIAN. ) );
#750 = VERTEX_POINT ( 'NONE', #1100 ) ;
#751 = EDGE_CURVE ( 'NONE', #665, #1078, #433, .T. ) ;
#752 = LINE ( 'NONE', #105, #288 ) ;
#753 = LINE ( 'NONE', #944, #880 ) ;
#754 = CARTESIAN_POINT ( 'NONE',  ( 7.729159201800657186, 1.054711873393898713E-12, 0.000000000000000000 ) ) ;
#755 =( NAMED_UNIT ( * ) PLANE_ANGLE_UNIT ( ) SI_UNIT ( $, .RADIAN. ) );
#756 = ADVANCED_FACE ( 'NONE', ( #636 ), #991, .F. ) ;
#757 = ORIENTED_EDGE ( 'NONE', *, *, #992, .F. ) ;
#758 = EDGE_CURVE ( 'NONE', #1187, #3, #1085, .T. ) ;
#759 = FACE_BOUND ( 'NONE', #872, .T. ) ;
#760 = AXIS2_PLACEMENT_3D ( 'NONE', #318, #44, #1154 ) ;
#761 = CARTESIAN_POINT ( 'NONE',  ( -13.30570456204346108, 4.667951537024054076, 2.299999999999999822 ) ) ;
#762 = CARTESIAN_POINT ( 'NONE',  ( 0.000000000000000000, 0.000000000000000000, 0.000000000000000000 ) ) ;
#763 = ORIENTED_EDGE ( 'NONE', *, *, #447, .T. ) ;
#764 = CARTESIAN_POINT ( 'NONE',  ( 10.69541689572048959, -9.189102397467369343, 2.299999999999999822 ) ) ;
#765 = AXIS2_PLACEMENT_3D ( 'NONE', #913, #90, #547 ) ;
#766 = CARTESIAN_POINT ( 'NONE',  ( 4.974999999997296918, -11.90784930203592396, 2.299999999999999822 ) ) ;
#767 = CIRCLE ( 'NONE', #110, 2.649999999999999023 ) ;
#768 = EDGE_CURVE ( 'NONE', #510, #534, #1022, .T. ) ;
#769 = DIRECTION ( 'NONE',  ( -0.000000000000000000, -0.000000000000000000, 1.000000000000000000 ) ) ;
#770 = VERTEX_POINT ( 'NONE', #363 ) ;
#771 = DIRECTION ( 'NONE',  ( -1.000000000000000000, 0.000000000000000000, 0.000000000000000000 ) ) ;
#772 = CARTESIAN_POINT ( 'NONE',  ( 13.30570456204474183, -4.667951537023347974, -42.93251095273883777 ) ) ;
#773 = CARTESIAN_POINT ( 'NONE',  ( 13.30570456204474183, -4.667951537023347974, 0.000000000000000000 ) ) ;
#774 =( LENGTH_UNIT ( ) NAMED_UNIT ( * ) SI_UNIT ( .MILLI., .METRE. ) );
#775 = ORIENTED_EDGE ( 'NONE', *, *, #549, .T. ) ;
#776 = EDGE_CURVE ( 'NONE', #424, #770, #66, .T. ) ;
#777 = DIRECTION ( 'NONE',  ( 1.000000000000000000, 0.000000000000000000, 0.000000000000000000 ) ) ;
#778 = DIRECTION ( 'NONE',  ( -0.000000000000000000, -0.000000000000000000, 1.000000000000000000 ) ) ;
#779 = VECTOR ( 'NONE', #796, 1000.000000000000000 ) ;
#780 = DIRECTION ( 'NONE',  ( -0.000000000000000000, -0.000000000000000000, -1.000000000000000000 ) ) ;
#781 = ADVANCED_FACE ( 'NONE', ( #642, #891, #425, #92, #759, #18 ), #1039, .T. ) ;
#782 = ORIENTED_EDGE ( 'NONE', *, *, #497, .F. ) ;
#783 = DIRECTION ( 'NONE',  ( 1.000000000000000000, 0.000000000000000000, 0.000000000000000000 ) ) ;
#784 = CIRCLE ( 'NONE', #726, 1.899999999999064659 ) ;
#785 = DIRECTION ( 'NONE',  ( 0.1724731828275600787, -0.9850142137072596116, 0.000000000000000000 ) ) ;
#786 = CIRCLE ( 'NONE', #211, 1.899999999999999689 ) ;
#787 = DIRECTION ( 'NONE',  ( -0.000000000000000000, -0.000000000000000000, 1.000000000000000000 ) ) ;
#788 = ORIENTED_EDGE ( 'NONE', *, *, #562, .T. ) ;
#789 = CARTESIAN_POINT ( 'NONE',  ( -4.974999999998994227, -11.90784930203661496, 2.299999999999999822 ) ) ;
#790 = CARTESIAN_POINT ( 'NONE',  ( -3.864579600899062495, -6.693648218653594384, -42.93251095273883777 ) ) ;
#791 = ADVANCED_FACE ( 'NONE', ( #937 ), #949, .F. ) ;
#792 = ORIENTED_EDGE ( 'NONE', *, *, #717, .F. ) ;
#793 = ORIENTED_EDGE ( 'NONE', *, *, #76, .T. ) ;
#794 = EDGE_CURVE ( 'NONE', #1008, #854, #4, .T. ) ;
#795 = PLANE ( 'NONE',  #982 ) ;
#796 = DIRECTION ( 'NONE',  ( -0.000000000000000000, -0.000000000000000000, 1.000000000000000000 ) ) ;
#797 = AXIS2_PLACEMENT_3D ( 'NONE', #627, #1105, #812 ) ;
#798 = ORIENTED_EDGE ( 'NONE', *, *, #495, .T. ) ;
#799 = ORIENTED_EDGE ( 'NONE', *, *, #1186, .F. ) ;
#800 = DIRECTION ( 'NONE',  ( 1.000000000000000000, 0.000000000000000000, 0.000000000000000000 ) ) ;
#801 = CARTESIAN_POINT ( 'NONE',  ( -4.974999999999909939, 11.90784930203598968, -8.374011537025108254 ) ) ;
#802 = ADVANCED_FACE ( 'NONE', ( #557 ), #199, .F. ) ;
#803 = AXIS2_PLACEMENT_3D ( 'NONE', #1045, #41, #1137 ) ;
#804 = ADVANCED_FACE ( 'NONE', ( #286 ), #207, .F. ) ;
#805 = ORIENTED_EDGE ( 'NONE', *, *, #331, .F. ) ;
#806 = CARTESIAN_POINT ( 'NONE',  ( 6.874999999998322231, 11.90784930203709280, -3.000000000000000000 ) ) ;
#807 = VECTOR ( 'NONE', #274, 1000.000000000000000 ) ;
#808 = ORIENTED_EDGE ( 'NONE', *, *, #830, .F. ) ;
#809 = VECTOR ( 'NONE', #443, 999.9999999999998863 ) ;
#810 = DIRECTION ( 'NONE',  ( -0.6418732646538559683, 0.7668107407454600732, 0.000000000000000000 ) ) ;
#811 = EDGE_CURVE ( 'NONE', #137, #389, #130, .T. ) ;
#812 = DIRECTION ( 'NONE',  ( 1.000000000000000000, 0.000000000000000000, 0.000000000000000000 ) ) ;
#813 = EDGE_LOOP ( 'NONE', ( #782, #370, #6, #1098 ) ) ;
#814 = CARTESIAN_POINT ( 'NONE',  ( -4.974999999999909939, 11.90784930203598968, -3.000000000000000000 ) ) ;
#815 = ORIENTED_EDGE ( 'NONE', *, *, #471, .F. ) ;
#816 = CARTESIAN_POINT ( 'NONE',  ( 11.60474041071213591, -6.699999999998910383, 2.299999999999999822 ) ) ;
#817 = LINE ( 'NONE', #999, #875 ) ;
#818 = ORIENTED_EDGE ( 'NONE', *, *, #1146, .T. ) ;
#819 = AXIS2_PLACEMENT_3D ( 'NONE', #822, #1190, #643 ) ;
#820 = EDGE_LOOP ( 'NONE', ( #70, #455, #40, #358 ) ) ;
#821 = DIRECTION ( 'NONE',  ( 0.000000000000000000, 0.000000000000000000, 1.000000000000000000 ) ) ;
#822 = CARTESIAN_POINT ( 'NONE',  ( 11.60474041071149109, 6.700000000000736478, -42.93251095273883777 ) ) ;
#823 = VERTEX_POINT ( 'NONE', #304 ) ;
#824 = CARTESIAN_POINT ( 'NONE',  ( -6.874999999998058442, -11.90784930203661496, -8.374011537025108254 ) ) ;
#825 = VECTOR ( 'NONE', #325, 1000.000000000000000 ) ;
#826 = AXIS2_PLACEMENT_3D ( 'NONE', #737, #1108, #650 ) ;
#827 = VERTEX_POINT ( 'NONE', #561 ) ;
#828 = AXIS2_PLACEMENT_3D ( 'NONE', #202, #769, #392 ) ;
#829 = FACE_OUTER_BOUND ( 'NONE', #185, .T. ) ;
#830 = EDGE_CURVE ( 'NONE', #309, #1096, #752, .T. ) ;
#831 = DIRECTION ( 'NONE',  ( 0.000000000000000000, 0.000000000000000000, 1.000000000000000000 ) ) ;
#832 = VERTEX_POINT ( 'NONE', #481 ) ;
#833 = ORIENTED_EDGE ( 'NONE', *, *, #42, .F. ) ;
#834 = CARTESIAN_POINT ( 'NONE',  ( 0.000000000000000000, 0.000000000000000000, -2.999999999999999112 ) ) ;
#835 = ORIENTED_EDGE ( 'NONE', *, *, #751, .T. ) ;
#836 = DIRECTION ( 'NONE',  ( -0.9392839235730126024, 0.3431409490534277351, 0.000000000000000000 ) ) ;
#837 = ORIENTED_EDGE ( 'NONE', *, *, #413, .F. ) ;
#838 = CIRCLE ( 'NONE', #1144, 2.649999999999999467 ) ;
#839 = LINE ( 'NONE', #187, #233 ) ;
#840 = LINE ( 'NONE', #200, #449 ) ;
#841 = CARTESIAN_POINT ( 'NONE',  ( 8.774999999998321698, 11.90784930203709280, 2.299999999999999822 ) ) ;
#842 = CARTESIAN_POINT ( 'NONE',  ( -6.874999999998058442, -11.90784930203661496, 2.299999999999999822 ) ) ;
#843 = VERTEX_POINT ( 'NONE', #468 ) ;
#844 = DIRECTION ( 'NONE',  ( -0.000000000000000000, -0.000000000000000000, 1.000000000000000000 ) ) ;
#845 = EDGE_CURVE ( 'NONE', #556, #410, #839, .T. ) ;
#846 = CARTESIAN_POINT ( 'NONE',  ( 4.974999999997296918, -11.90784930203592396, -8.374011537025108254 ) ) ;
#847 = EDGE_CURVE ( 'NONE', #536, #1088, #1121, .T. ) ;
#848 = PRODUCT_DEFINITION_FORMATION_WITH_SPECIFIED_SOURCE ( 'ANY', '', #324, .NOT_KNOWN. ) ;
#849 = ORIENTED_EDGE ( 'NONE', *, *, #93, .F. ) ;
#850 = LINE ( 'NONE', #24, #190 ) ;
#851 = AXIS2_PLACEMENT_3D ( 'NONE', #772, #983, #330 ) ;
#852 = FACE_OUTER_BOUND ( 'NONE', #724, .T. ) ;
#853 = DIRECTION ( 'NONE',  ( 1.000000000000000000, 0.000000000000000000, 0.000000000000000000 ) ) ;
#854 = VERTEX_POINT ( 'NONE', #764 ) ;
#855 = CARTESIAN_POINT ( 'NONE',  ( -2.610287666324261124, 13.85705393449289780, 2.299999999999999822 ) ) ;
#856 = LINE ( 'NONE', #667, #634 ) ;
#857 = ORIENTED_EDGE ( 'NONE', *, *, #36, .F. ) ;
#858 = FACE_BOUND ( 'NONE', #624, .T. ) ;
#859 = AXIS2_PLACEMENT_3D ( 'NONE', #521, #711, #64 ) ;
#860 = CYLINDRICAL_SURFACE ( 'NONE', #581, 2.650000000000000355 ) ;
#861 = VECTOR ( 'NONE', #240, 1000.000000000000000 ) ;
#862 = ADVANCED_FACE ( 'NONE', ( #215 ), #299, .F. ) ;
#863 = CARTESIAN_POINT ( 'NONE',  ( -6.874999999999910294, 11.90784930203598968, 2.299999999999999822 ) ) ;
#864 = FILL_AREA_STYLE_COLOUR ( '', #311 ) ;
#865 = VECTOR ( 'NONE', #170, 1000.000000000000000 ) ;
#866 = EDGE_LOOP ( 'NONE', ( #837, #718, #990, #166 ) ) ;
#867 = CARTESIAN_POINT ( 'NONE',  ( 0.000000000000000000, 0.000000000000000000, -17.14213562373095101 ) ) ;
#868 = EDGE_CURVE ( 'NONE', #247, #1125, #529, .T. ) ;
#869 = DIRECTION ( 'NONE',  ( 0.000000000000000000, 0.000000000000000000, 1.000000000000000000 ) ) ;
#870 = CARTESIAN_POINT ( 'NONE',  ( 0.000000000000000000, 0.000000000000000000, 2.299999999999996270 ) ) ;
#871 = UNCERTAINTY_MEASURE_WITH_UNIT (LENGTH_MEASURE( 1.000000000000000082E-05 ), #1139, 'distance_accuracy_value', 'NONE');
#872 = EDGE_LOOP ( 'NONE', ( #799, #251, #1136, #606, #156, #1036, #65, #10, #303, #79, #792, #334, #691, #172, #512, #159, #644, #436, #857, #902 ) ) ;
#873 = CYLINDRICAL_SURFACE ( 'NONE', #727, 5.000000000000000000 ) ;
#874 = DIRECTION ( 'NONE',  ( -0.000000000000000000, -0.000000000000000000, 1.000000000000000000 ) ) ;
#875 = VECTOR ( 'NONE', #716, 1000.000000000000227 ) ;
#876 = DIRECTION ( 'NONE',  ( -1.000000000000000000, 0.000000000000000000, 0.000000000000000000 ) ) ;
#877 = EDGE_LOOP ( 'NONE', ( #1178, #576, #1090, #1161 ) ) ;
#878 = ORIENTED_EDGE ( 'NONE', *, *, #961, .F. ) ;
#879 = ADVANCED_FACE ( 'NONE', ( #11 ), #196, .F. ) ;
#880 = VECTOR ( 'NONE', #1122, 1000.000000000000000 ) ;
#881 = AXIS2_PLACEMENT_3D ( 'NONE', #284, #446, #658 ) ;
#882 = AXIS2_PLACEMENT_3D ( 'NONE', #1118, #37, #1138 ) ;
#883 = FACE_OUTER_BOUND ( 'NONE', #1003, .T. ) ;
#884 = EDGE_CURVE ( 'NONE', #2, #543, #927, .T. ) ;
#885 = ORIENTED_EDGE ( 'NONE', *, *, #69, .T. ) ;
#886 = ORIENTED_EDGE ( 'NONE', *, *, #335, .T. ) ;
#887 = CARTESIAN_POINT ( 'NONE',  ( -8.774999999999911537, 11.90784930203598968, -8.374011537025108254 ) ) ;
#888 = PLANE ( 'NONE',  #102 ) ;
#889 = ORIENTED_EDGE ( 'NONE', *, *, #1099, .F. ) ;
#890 = ORIENTED_EDGE ( 'NONE', *, *, #758, .T. ) ;
#891 = FACE_BOUND ( 'NONE', #16, .T. ) ;
#892 = EDGE_CURVE ( 'NONE', #461, #1084, #431, .T. ) ;
#893 = LINE ( 'NONE', #695, #604 ) ;
#894 = EDGE_LOOP ( 'NONE', ( #815, #442, #271, #818 ) ) ;
#895 = DIRECTION ( 'NONE',  ( -0.000000000000000000, -0.000000000000000000, 1.000000000000000000 ) ) ;
#896 = VERTEX_POINT ( 'NONE', #476 ) ;
#897 = DIRECTION ( 'NONE',  ( 1.000000000000000000, 0.000000000000000000, 0.000000000000000000 ) ) ;
#898 = FACE_BOUND ( 'NONE', #83, .T. ) ;
#899 = EDGE_LOOP ( 'NONE', ( #914, #31 ) ) ;
#900 = FACE_BOUND ( 'NONE', #1170, .T. ) ;
#901 = VECTOR ( 'NONE', #666, 1000.000000000000000 ) ;
#902 = ORIENTED_EDGE ( 'NONE', *, *, #1167, .F. ) ;
#903 = CIRCLE ( 'NONE', #1060, 2.649999999999999467 ) ;
#904 = CARTESIAN_POINT ( 'NONE',  ( 6.874999999999894307, -11.90784930203592396, -3.000000000000000000 ) ) ;
#905 = EDGE_CURVE ( 'NONE', #55, #117, #850, .T. ) ;
#906 = DIRECTION ( 'NONE',  ( -1.000000000000000000, 0.000000000000000000, 0.000000000000000000 ) ) ;
#907 = ORIENTED_EDGE ( 'NONE', *, *, #254, .T. ) ;
#908 = DIRECTION ( 'NONE',  ( -0.000000000000000000, -0.000000000000000000, 1.000000000000000000 ) ) ;
#909 = ORIENTED_EDGE ( 'NONE', *, *, #742, .F. ) ;
#910 = CARTESIAN_POINT ( 'NONE',  ( 14.25474041071213627, -6.699999999998910383, 0.000000000000000000 ) ) ;
#911 = FACE_OUTER_BOUND ( 'NONE', #649, .T. ) ;
#912 = VERTEX_POINT ( 'NONE', #969 ) ;
#913 = CARTESIAN_POINT ( 'NONE',  ( 0.000000000000000000, 0.000000000000000000, -2.999999999999999112 ) ) ;
#914 = ORIENTED_EDGE ( 'NONE', *, *, #868, .T. ) ;
#915 = DIRECTION ( 'NONE',  ( 1.000000000000000000, 0.000000000000000000, 0.000000000000000000 ) ) ;
#916 = DIRECTION ( 'NONE',  ( 1.000000000000000000, 0.000000000000000000, 0.000000000000000000 ) ) ;
#917 = ORIENTED_EDGE ( 'NONE', *, *, #905, .F. ) ;
#918 = CARTESIAN_POINT ( 'NONE',  ( -13.30570456204282870, -4.667951537024482178, -42.93251095273883777 ) ) ;
#919 = VECTOR ( 'NONE', #565, 1000.000000000000000 ) ;
#920 = EDGE_LOOP ( 'NONE', ( #375, #1110, #948, #885 ) ) ;
#921 = VECTOR ( 'NONE', #564, 1000.000000000000227 ) ;
#922 = DIRECTION ( 'NONE',  ( -0.9392839235730126024, 0.3431409490534277351, 0.000000000000000000 ) ) ;
#923 = CARTESIAN_POINT ( 'NONE',  ( -4.974999999999909939, 11.90784930203598968, 2.299999999999999822 ) ) ;
#924 = ORIENTED_EDGE ( 'NONE', *, *, #116, .F. ) ;
#925 = SURFACE_STYLE_USAGE ( .BOTH. , #178 ) ;
#926 = ORIENTED_EDGE ( 'NONE', *, *, #169, .T. ) ;
#927 = LINE ( 'NONE', #746, #965 ) ;
#928 = CARTESIAN_POINT ( 'NONE',  ( -10.69541689571855159, -9.189102397468486672, 2.299999999999999822 ) ) ;
#929 = ADVANCED_FACE ( 'NONE', ( #601, #131, #900, #858, #622, #34 ), #974, .T. ) ;
#930 = EDGE_CURVE ( 'NONE', #498, #3, #577, .T. ) ;
#931 = CARTESIAN_POINT ( 'NONE',  ( 2.610287666325547207, -13.85705393449218903, 0.000000000000000000 ) ) ;
#932 = CARTESIAN_POINT ( 'NONE',  ( -2.610287666322975486, -13.85705393449220679, 2.299999999999999822 ) ) ;
#933 = EDGE_LOOP ( 'NONE', ( #646, #798 ) ) ;
#934 = CIRCLE ( 'NONE', #203, 1.900000000002598499 ) ;
#935 = PRODUCT_RELATED_PRODUCT_CATEGORY ( 'part', '', ( #324 ) ) ;
#936 = EDGE_CURVE ( 'NONE', #520, #972, #67, .T. ) ;
#937 = FACE_OUTER_BOUND ( 'NONE', #894, .T. ) ;
#938 = CARTESIAN_POINT ( 'NONE',  ( 6.874999999999894307, -11.90784930203592396, -8.374011537025108254 ) ) ;
#939 = FACE_OUTER_BOUND ( 'NONE', #111, .T. ) ;
#940 = AXIS2_PLACEMENT_3D ( 'NONE', #300, #114, #477 ) ;
#941 = ORIENTED_EDGE ( 'NONE', *, *, #125, .T. ) ;
#942 = CIRCLE ( 'NONE', #881, 2.649999999999999467 ) ;
#943 = CARTESIAN_POINT ( 'NONE',  ( 11.60474041071149109, 6.700000000000736478, 0.000000000000000000 ) ) ;
#944 = CARTESIAN_POINT ( 'NONE',  ( 14.25474041071149145, 6.700000000000736478, -42.93251095273883777 ) ) ;
#945 = CARTESIAN_POINT ( 'NONE',  ( 14.25474041071213627, -6.699999999998910383, -42.93251095273883777 ) ) ;
#946 = SURFACE_STYLE_FILL_AREA ( #22 ) ;
#947 = MECHANICAL_DESIGN_GEOMETRIC_PRESENTATION_REPRESENTATION (  '', ( #1196 ), #216 ) ;
#948 = ORIENTED_EDGE ( 'NONE', *, *, #381, .T. ) ;
#949 = CYLINDRICAL_SURFACE ( 'NONE', #705, 1.899999999999064659 ) ;
#950 = CYLINDRICAL_SURFACE ( 'NONE', #361, 2.649999999999997691 ) ;
#951 = DIRECTION ( 'NONE',  ( 0.000000000000000000, 0.000000000000000000, 1.000000000000000000 ) ) ;
#952 = PRESENTATION_STYLE_ASSIGNMENT (( #1129 ) ) ;
#953 = ORIENTED_EDGE ( 'NONE', *, *, #632, .F. ) ;
#954 = CARTESIAN_POINT ( 'NONE',  ( -13.30570456204346286, 4.667951537024054076, 2.299999999999999822 ) ) ;
#955 = AXIS2_PLACEMENT_3D ( 'NONE', #496, #407, #598 ) ;
#956 = EDGE_CURVE ( 'NONE', #1078, #665, #189, .T. ) ;
#957 = CARTESIAN_POINT ( 'NONE',  ( -2.610287666324261124, 13.85705393449289780, 2.299999999999999822 ) ) ;
#958 = CYLINDRICAL_SURFACE ( 'NONE', #994, 2.649999999999997691 ) ;
#959 = LINE ( 'NONE', #15, #919 ) ;
#960 = ORIENTED_EDGE ( 'NONE', *, *, #1163, .F. ) ;
#961 = EDGE_CURVE ( 'NONE', #641, #843, #1073, .T. ) ;
#962 = DIRECTION ( 'NONE',  ( -0.000000000000000000, -0.000000000000000000, 1.000000000000000000 ) ) ;
#963 = AXIS2_PLACEMENT_3D ( 'NONE', #863, #1041, #853 ) ;
#964 = PLANE ( 'NONE',  #851 ) ;
#965 = VECTOR ( 'NONE', #1115, 1000.000000000000000 ) ;
#966 = DIRECTION ( 'NONE',  ( 0.000000000000000000, 0.000000000000000000, 1.000000000000000000 ) ) ;
#967 = AXIS2_PLACEMENT_3D ( 'NONE', #501, #869, #701 ) ;
#968 = ORIENTED_EDGE ( 'NONE', *, *, #28, .F. ) ;
#969 = CARTESIAN_POINT ( 'NONE',  ( -13.30570456204346108, 4.667951537024054076, 0.000000000000000000 ) ) ;
#970 = CARTESIAN_POINT ( 'NONE',  ( -6.874999999999910294, 11.90784930203598968, -8.374011537025108254 ) ) ;
#971 = CARTESIAN_POINT ( 'NONE',  ( 2.610287666325547207, -13.85705393449218903, 2.299999999999999822 ) ) ;
#972 = VERTEX_POINT ( 'NONE', #437 ) ;
#973 = VERTEX_POINT ( 'NONE', #814 ) ;
#974 = PLANE ( 'NONE',  #1114 ) ;
#975 = EDGE_CURVE ( 'NONE', #27, #770, #316, .T. ) ;
#976 = CARTESIAN_POINT ( 'NONE',  ( 7.729159201800657186, 1.055159106790048984E-12, 0.000000000000000000 ) ) ;
#977 = VECTOR ( 'NONE', #364, 1000.000000000000000 ) ;
#978 = ADVANCED_FACE ( 'NONE', ( #1143 ), #167, .F. ) ;
#979 = FACE_OUTER_BOUND ( 'NONE', #515, .T. ) ;
#980 = ORIENTED_EDGE ( 'NONE', *, *, #738, .F. ) ;
#981 = VERTEX_POINT ( 'NONE', #583 ) ;
#982 = AXIS2_PLACEMENT_3D ( 'NONE', #683, #420, #140 ) ;
#983 = DIRECTION ( 'NONE',  ( 0.6418732646537933517, 0.7668107407455123647, 0.000000000000000000 ) ) ;
#984 = AXIS2_PLACEMENT_3D ( 'NONE', #867, #1177, #687 ) ;
#985 = DIRECTION ( 'NONE',  ( 0.000000000000000000, 0.000000000000000000, 1.000000000000000000 ) ) ;
#986 = ORIENTED_EDGE ( 'NONE', *, *, #660, .T. ) ;
#987 = CARTESIAN_POINT ( 'NONE',  ( 8.774999999998321698, 11.90784930203709280, -8.374011537025108254 ) ) ;
#988 = DIRECTION ( 'NONE',  ( -0.000000000000000000, -0.000000000000000000, 1.000000000000000000 ) ) ;
#989 = VERTEX_POINT ( 'NONE', #160 ) ;
#990 = ORIENTED_EDGE ( 'NONE', *, *, #1099, .T. ) ;
#991 = CYLINDRICAL_SURFACE ( 'NONE', #345, 1.899999999999999689 ) ;
#992 = EDGE_CURVE ( 'NONE', #85, #989, #1049, .T. ) ;
#993 = CYLINDRICAL_SURFACE ( 'NONE', #740, 1.900000000000000577 ) ;
#994 = AXIS2_PLACEMENT_3D ( 'NONE', #127, #489, #403 ) ;
#995 = ORIENTED_EDGE ( 'NONE', *, *, #377, .T. ) ;
#996 = CARTESIAN_POINT ( 'NONE',  ( 10.69541689571983589, 9.189102397469193662, 2.299999999999999822 ) ) ;
#997 = EDGE_CURVE ( 'NONE', #973, #428, #671, .T. ) ;
#998 = CARTESIAN_POINT ( 'NONE',  ( 6.874999999998322231, 11.90784930203709280, -8.374011537025108254 ) ) ;
#999 = CARTESIAN_POINT ( 'NONE',  ( 13.30570456204474183, -4.667951537023347974, 2.299999999999999822 ) ) ;
#1000 = STYLED_ITEM ( 'NONE', ( #8 ), #1092 ) ;
#1001 = ORIENTED_EDGE ( 'NONE', *, *, #427, .T. ) ;
#1002 = DIRECTION ( 'NONE',  ( -0.000000000000000000, -0.000000000000000000, 1.000000000000000000 ) ) ;
#1003 = EDGE_LOOP ( 'NONE', ( #504, #505, #174, #198 ) ) ;
#1004 = DIRECTION ( 'NONE',  ( -0.000000000000000000, -0.000000000000000000, 1.000000000000000000 ) ) ;
#1005 = DIRECTION ( 'NONE',  ( -1.000000000000000000, 0.000000000000000000, -0.000000000000000000 ) ) ;
#1006 = ORIENTED_EDGE ( 'NONE', *, *, #830, .T. ) ;
#1007 = DIRECTION ( 'NONE',  ( -0.1724731828275082590, 0.9850142137072687154, 0.000000000000000000 ) ) ;
#1008 = VERTEX_POINT ( 'NONE', #124 ) ;
#1009 = CARTESIAN_POINT ( 'NONE',  ( 5.000000000000000000, 0.000000000000000000, 0.000000000000000000 ) ) ;
#1010 = DIRECTION ( 'NONE',  ( -1.000000000000000000, 0.000000000000000000, 0.000000000000000000 ) ) ;
#1011 = ADVANCED_FACE ( 'NONE', ( #405 ), #323, .F. ) ;
#1012 = EDGE_LOOP ( 'NONE', ( #1017, #618, #291, #248 ) ) ;
#1013 = LINE ( 'NONE', #555, #653 ) ;
#1014 = ORIENTED_EDGE ( 'NONE', *, *, #717, .T. ) ;
#1015 = CARTESIAN_POINT ( 'NONE',  ( 0.000000000000000000, 13.40000000000000036, -42.93251095273883777 ) ) ;
#1016 = CARTESIAN_POINT ( 'NONE',  ( 10.69541689571983767, 9.189102397469193662, 0.000000000000000000 ) ) ;
#1017 = ORIENTED_EDGE ( 'NONE', *, *, #681, .T. ) ;
#1018 = LINE ( 'NONE', #192, #450 ) ;
#1019 = EDGE_LOOP ( 'NONE', ( #886, #621, #367, #1001, #700, #143, #341, #59, #77, #941, #226, #252, #328, #474, #763, #986, #372, #788, #1148, #731 ) ) ;
#1020 = EDGE_CURVE ( 'NONE', #309, #85, #88, .T. ) ;
#1021 = DIRECTION ( 'NONE',  ( -1.000000000000000000, 0.000000000000000000, 0.000000000000000000 ) ) ;
#1022 = CIRCLE ( 'NONE', #592, 1.900000000002598499 ) ;
#1023 = DIRECTION ( 'NONE',  ( -0.000000000000000000, -0.000000000000000000, 1.000000000000000000 ) ) ;
#1024 = CARTESIAN_POINT ( 'NONE',  ( 10.69541689571983589, 9.189102397469193662, 0.000000000000000000 ) ) ;
#1025 = ADVANCED_FACE ( 'NONE', ( #499 ), #873, .F. ) ;
#1026 = VERTEX_POINT ( 'NONE', #1151 ) ;
#1027 = DIRECTION ( 'NONE',  ( 0.9392839235730119363, 0.3431409490534294005, 0.000000000000000000 ) ) ;
#1028 = CARTESIAN_POINT ( 'NONE',  ( -3.864579600900125644, 6.693648218653342141, 0.000000000000000000 ) ) ;
#1029 = FACE_OUTER_BOUND ( 'NONE', #1012, .T. ) ;
#1030 = FACE_OUTER_BOUND ( 'NONE', #260, .T. ) ;
#1031 = VERTEX_POINT ( 'NONE', #329 ) ;
#1032 = VECTOR ( 'NONE', #1, 1000.000000000000000 ) ;
#1033 = CARTESIAN_POINT ( 'NONE',  ( -10.69541689571855159, -9.189102397468486672, -42.93251095273883777 ) ) ;
#1034 = LINE ( 'NONE', #574, #921 ) ;
#1035 = DIRECTION ( 'NONE',  ( 0.1724731828275600787, -0.9850142137072596116, 0.000000000000000000 ) ) ;
#1036 = ORIENTED_EDGE ( 'NONE', *, *, #693, .F. ) ;
#1037 = CIRCLE ( 'NONE', #509, 1.900000000000000577 ) ;
#1038 = CIRCLE ( 'NONE', #963, 1.900000000000000577 ) ;
#1039 = PLANE ( 'NONE',  #747 ) ;
#1040 = LINE ( 'NONE', #100, #568 ) ;
#1041 = DIRECTION ( 'NONE',  ( 0.000000000000000000, 0.000000000000000000, 1.000000000000000000 ) ) ;
#1042 = PRODUCT_CONTEXT ( 'NONE', #587, 'mechanical' ) ;
#1043 = VERTEX_POINT ( 'NONE', #694 ) ;
#1044 = EDGE_CURVE ( 'NONE', #389, #137, #786, .T. ) ;
#1045 = CARTESIAN_POINT ( 'NONE',  ( 0.000000000000000000, 0.000000000000000000, -3.000000000000000000 ) ) ;
#1046 = LINE ( 'NONE', #578, #825 ) ;
#1047 = CARTESIAN_POINT ( 'NONE',  ( 10.69541689571983589, 9.189102397469193662, -42.93251095273883777 ) ) ;
#1048 = VERTEX_POINT ( 'NONE', #996 ) ;
#1049 = LINE ( 'NONE', #227, #32 ) ;
#1050 = VECTOR ( 'NONE', #263, 1000.000000000000114 ) ;
#1051 = LINE ( 'NONE', #987, #630 ) ;
#1052 = CARTESIAN_POINT ( 'NONE',  ( 5.000000000000000000, 0.000000000000000000, -2.999999999999999112 ) ) ;
#1053 = ORIENTED_EDGE ( 'NONE', *, *, #1095, .T. ) ;
#1054 = CARTESIAN_POINT ( 'NONE',  ( 1.284469037195706312E-12, -13.39999999999929159, 0.000000000000000000 ) ) ;
#1055 = EDGE_CURVE ( 'NONE', #1078, #510, #528, .T. ) ;
#1056 = AXIS2_PLACEMENT_3D ( 'NONE', #26, #748, #294 ) ;
#1057 = DIRECTION ( 'NONE',  ( -0.000000000000000000, -0.000000000000000000, 1.000000000000000000 ) ) ;
#1058 = AXIS2_PLACEMENT_3D ( 'NONE', #1015, #390, #118 ) ;
#1059 = CARTESIAN_POINT ( 'NONE',  ( 2.610287666325547207, -13.85705393449218903, 0.000000000000000000 ) ) ;
#1060 = AXIS2_PLACEMENT_3D ( 'NONE', #816, #180, #715 ) ;
#1061 = VERTEX_POINT ( 'NONE', #352 ) ;
#1062 = EDGE_CURVE ( 'NONE', #1187, #461, #942, .T. ) ;
#1063 = CARTESIAN_POINT ( 'NONE',  ( 0.000000000000000000, 0.000000000000000000, -17.14213562373095101 ) ) ;
#1064 = EDGE_CURVE ( 'NONE', #770, #1061, #1185, .T. ) ;
#1065 = CARTESIAN_POINT ( 'NONE',  ( 11.60474041071149109, 6.700000000000736478, -42.93251095273883777 ) ) ;
#1066 = PLANE ( 'NONE',  #760 ) ;
#1067 = ORIENTED_EDGE ( 'NONE', *, *, #847, .T. ) ;
#1068 = DIRECTION ( 'NONE',  ( -0.000000000000000000, -0.000000000000000000, 1.000000000000000000 ) ) ;
#1069 = LINE ( 'NONE', #336, #623 ) ;
#1070 = ORIENTED_EDGE ( 'NONE', *, *, #1064, .T. ) ;
#1071 = EDGE_LOOP ( 'NONE', ( #448, #889 ) ) ;
#1072 = CARTESIAN_POINT ( 'NONE',  ( -3.864579600899062495, -6.693648218653594384, 0.000000000000000000 ) ) ;
#1073 = CIRCLE ( 'NONE', #803, 19.90000000000000213 ) ;
#1074 = VECTOR ( 'NONE', #663, 1000.000000000000000 ) ;
#1075 = DIRECTION ( 'NONE',  ( 1.000000000000000000, 0.000000000000000000, 0.000000000000000000 ) ) ;
#1076 = EDGE_LOOP ( 'NONE', ( #909, #416, #775, #379 ) ) ;
#1077 = EDGE_CURVE ( 'NONE', #1088, #410, #359, .T. ) ;
#1078 = VERTEX_POINT ( 'NONE', #84 ) ;
#1079 = PLANE ( 'NONE',  #692 ) ;
#1080 = CARTESIAN_POINT ( 'NONE',  ( 4.974999999998322764, 11.90784930203709280, -3.000000000000000000 ) ) ;
#1081 = EDGE_LOOP ( 'NONE', ( #155, #686, #736, #980 ) ) ;
#1082 = DIRECTION ( 'NONE',  ( -0.000000000000000000, -0.000000000000000000, 1.000000000000000000 ) ) ;
#1083 = ADVANCED_FACE ( 'NONE', ( #732 ), #725, .F. ) ;
#1084 = VERTEX_POINT ( 'NONE', #1024 ) ;
#1085 = LINE ( 'NONE', #1104, #865 ) ;
#1086 = DIRECTION ( 'NONE',  ( 1.000000000000000000, 0.000000000000000000, 0.000000000000000000 ) ) ;
#1087 = AXIS2_PLACEMENT_3D ( 'NONE', #346, #831, #1086 ) ;
#1088 = VERTEX_POINT ( 'NONE', #366 ) ;
#1089 = FILL_AREA_STYLE_COLOUR ( '', #362 ) ;
#1090 = ORIENTED_EDGE ( 'NONE', *, *, #681, .F. ) ;
#1091 = DIRECTION ( 'NONE',  ( -0.000000000000000000, -0.000000000000000000, 1.000000000000000000 ) ) ;
#1092 = MANIFOLD_SOLID_BREP ( 'Wytnij-wyci¹gniêcie6', #1152 ) ;
#1093 = CARTESIAN_POINT ( 'NONE',  ( 13.30570456204474183, -4.667951537023347086, 2.299999999999999822 ) ) ;
#1094 = PRESENTATION_LAYER_ASSIGNMENT (  '', '', ( #1000 ) ) ;
#1095 = EDGE_CURVE ( 'NONE', #349, #491, #1037, .T. ) ;
#1096 = VERTEX_POINT ( 'NONE', #932 ) ;
#1097 = DIRECTION ( 'NONE',  ( 1.000000000000000000, 0.000000000000000000, 0.000000000000000000 ) ) ;
#1098 = ORIENTED_EDGE ( 'NONE', *, *, #99, .F. ) ;
#1099 = EDGE_CURVE ( 'NONE', #832, #543, #129, .T. ) ;
#1100 = CARTESIAN_POINT ( 'NONE',  ( 2.610287666324261568, 13.85705393449289957, 2.299999999999999822 ) ) ;
#1101 = DIRECTION ( 'NONE',  ( 0.000000000000000000, 0.000000000000000000, -1.000000000000000000 ) ) ;
#1102 = CARTESIAN_POINT ( 'NONE',  ( 13.30570456204409702, 4.667951537025174069, 2.299999999999999822 ) ) ;
#1103 = ORIENTED_EDGE ( 'NONE', *, *, #1044, .F. ) ;
#1104 = CARTESIAN_POINT ( 'NONE',  ( 13.30570456204409702, 4.667951537025174069, -42.93251095273883777 ) ) ;
#1105 = DIRECTION ( 'NONE',  ( 0.000000000000000000, 0.000000000000000000, 1.000000000000000000 ) ) ;
#1106 = ORIENTED_EDGE ( 'NONE', *, *, #714, .T. ) ;
#1107 = CIRCLE ( 'NONE', #579, 19.90000000000000213 ) ;
#1108 = DIRECTION ( 'NONE',  ( 0.000000000000000000, 0.000000000000000000, 1.000000000000000000 ) ) ;
#1109 = EDGE_CURVE ( 'NONE', #520, #1061, #265, .T. ) ;
#1110 = ORIENTED_EDGE ( 'NONE', *, *, #868, .F. ) ;
#1111 = DIRECTION ( 'NONE',  ( 1.000000000000000000, 0.000000000000000000, -0.000000000000000000 ) ) ;
#1112 = EDGE_LOOP ( 'NONE', ( #633, #351, #1155, #560 ) ) ;
#1113 = EDGE_LOOP ( 'NONE', ( #230, #1067, #1140, #419 ) ) ;
#1114 = AXIS2_PLACEMENT_3D ( 'NONE', #411, #401, #221 ) ;
#1115 = DIRECTION ( 'NONE',  ( -0.000000000000000000, -0.000000000000000000, 1.000000000000000000 ) ) ;
#1116 = VECTOR ( 'NONE', #1165, 1000.000000000000227 ) ;
#1117 = LINE ( 'NONE', #25, #51 ) ;
#1118 = CARTESIAN_POINT ( 'NONE',  ( 11.60474041071213591, -6.699999999998910383, -42.93251095273883777 ) ) ;
#1119 = EDGE_CURVE ( 'NONE', #266, #393, #469, .T. ) ;
#1120 = VERTEX_POINT ( 'NONE', #640 ) ;
#1121 = LINE ( 'NONE', #855, #901 ) ;
#1122 = DIRECTION ( 'NONE',  ( -0.000000000000000000, -0.000000000000000000, 1.000000000000000000 ) ) ;
#1123 = CARTESIAN_POINT ( 'NONE',  ( 3.864579600900049261, 6.693648218653777349, -42.93251095273883777 ) ) ;
#1124 = CARTESIAN_POINT ( 'NONE',  ( 13.30570456204409702, 4.667951537025174957, 0.000000000000000000 ) ) ;
#1125 = VERTEX_POINT ( 'NONE', #272 ) ;
#1126 = DIRECTION ( 'NONE',  ( -0.000000000000000000, -0.000000000000000000, 1.000000000000000000 ) ) ;
#1127 = DIRECTION ( 'NONE',  ( -0.000000000000000000, -0.000000000000000000, 1.000000000000000000 ) ) ;
#1128 = DIRECTION ( 'NONE',  ( -0.000000000000000000, -0.000000000000000000, 1.000000000000000000 ) ) ;
#1129 = SURFACE_STYLE_USAGE ( .BOTH. , #679 ) ;
#1130 = EDGE_LOOP ( 'NONE', ( #273, #1070, #523, #833 ) ) ;
#1131 = AXIS2_PLACEMENT_3D ( 'NONE', #138, #895, #348 ) ;
#1132 = VECTOR ( 'NONE', #218, 1000.000000000000227 ) ;
#1133 = DIRECTION ( 'NONE',  ( -0.3431409490534300666, -0.9392839235730117142, 0.000000000000000000 ) ) ;
#1134 = DIRECTION ( 'NONE',  ( -0.000000000000000000, -0.000000000000000000, 1.000000000000000000 ) ) ;
#1135 = DIRECTION ( 'NONE',  ( 0.9392839235730117142, -0.3431409490534300666, 0.000000000000000000 ) ) ;
#1136 = ORIENTED_EDGE ( 'NONE', *, *, #533, .F. ) ;
#1137 = DIRECTION ( 'NONE',  ( -1.000000000000000000, 0.000000000000000000, 0.000000000000000000 ) ) ;
#1138 = DIRECTION ( 'NONE',  ( 1.000000000000000000, 0.000000000000000000, 0.000000000000000000 ) ) ;
#1139 =( LENGTH_UNIT ( ) NAMED_UNIT ( * ) SI_UNIT ( .MILLI., .METRE. ) );
#1140 = ORIENTED_EDGE ( 'NONE', *, *, #169, .F. ) ;
#1141 = EDGE_CURVE ( 'NONE', #554, #712, #1013, .T. ) ;
#1142 = EDGE_CURVE ( 'NONE', #1125, #247, #1150, .T. ) ;
#1143 = FACE_OUTER_BOUND ( 'NONE', #264, .T. ) ;
#1144 = AXIS2_PLACEMENT_3D ( 'NONE', #250, #966, #502 ) ;
#1145 = DIRECTION ( 'NONE',  ( -0.000000000000000000, -0.000000000000000000, 1.000000000000000000 ) ) ;
#1146 = EDGE_CURVE ( 'NONE', #543, #832, #631, .T. ) ;
#1147 = LINE ( 'NONE', #790, #82 ) ;
#1148 = ORIENTED_EDGE ( 'NONE', *, *, #1062, .T. ) ;
#1149 = EDGE_LOOP ( 'NONE', ( #97, #1173, #793, #128 ) ) ;
#1150 = CIRCLE ( 'NONE', #765, 5.000000000000000000 ) ;
#1151 = CARTESIAN_POINT ( 'NONE',  ( -2.610287666324261568, 13.85705393449289780, 0.000000000000000000 ) ) ;
#1152 = CLOSED_SHELL ( 'NONE', ( #652, #39, #613, #1025, #164, #978, #558, #1083, #781, #929, #315, #791, #320, #756, #458, #1011, #186, #434, #298, #584, #278, #804, #232, #594, #1183, #879, #538, #713, #572, #163, #862, #635, #802, #13, #257 ) ) ;
#1153 = LINE ( 'NONE', #887, #182 ) ;
#1154 = DIRECTION ( 'NONE',  ( 0.1724731828275075929, 0.9850142137072688264, 0.000000000000000000 ) ) ;
#1155 = ORIENTED_EDGE ( 'NONE', *, *, #540, .F. ) ;
#1156 = PRESENTATION_LAYER_ASSIGNMENT (  '', '', ( #1196 ) ) ;
#1157 = ORIENTED_EDGE ( 'NONE', *, *, #396, .F. ) ;
#1158 = CARTESIAN_POINT ( 'NONE',  ( -10.69541689571921417, 9.189102397468072780, 0.000000000000000000 ) ) ;
#1159 = CARTESIAN_POINT ( 'NONE',  ( 7.729159201800657186, 1.055159106790048984E-12, -42.93251095273883777 ) ) ;
#1160 = ORIENTED_EDGE ( 'NONE', *, *, #1077, .T. ) ;
#1161 = ORIENTED_EDGE ( 'NONE', *, *, #335, .F. ) ;
#1162 = CARTESIAN_POINT ( 'NONE',  ( 6.874999999999894307, -11.90784930203592396, -8.374011537025108254 ) ) ;
#1163 = EDGE_CURVE ( 'NONE', #896, #827, #1018, .T. ) ;
#1164 = ORIENTED_EDGE ( 'NONE', *, *, #1142, .F. ) ;
#1165 = DIRECTION ( 'NONE',  ( 0.1724731828275600787, -0.9850142137072596116, 0.000000000000000000 ) ) ;
#1166 = VECTOR ( 'NONE', #836, 1000.000000000000114 ) ;
#1167 = EDGE_CURVE ( 'NONE', #104, #750, #668, .T. ) ;
#1168 = AXIS2_PLACEMENT_3D ( 'NONE', #943, #293, #113 ) ;
#1169 = DIRECTION ( 'NONE',  ( 0.6418732646538141129, -0.7668107407454950453, 0.000000000000000000 ) ) ;
#1170 = EDGE_LOOP ( 'NONE', ( #195, #91 ) ) ;
#1171 = AXIS2_PLACEMENT_3D ( 'NONE', #544, #344, #625 ) ;
#1172 = DIRECTION ( 'NONE',  ( -0.000000000000000000, -0.000000000000000000, 1.000000000000000000 ) ) ;
#1173 = ORIENTED_EDGE ( 'NONE', *, *, #597, .T. ) ;
#1174 = CARTESIAN_POINT ( 'NONE',  ( -13.30570456204346286, 4.667951537024054076, 0.000000000000000000 ) ) ;
#1175 = CARTESIAN_POINT ( 'NONE',  ( -19.90000000000000213, 0.000000000000000000, 58.86854249492380831 ) ) ;
#1176 = ORIENTED_EDGE ( 'NONE', *, *, #378, .T. ) ;
#1177 = DIRECTION ( 'NONE',  ( -0.000000000000000000, -0.000000000000000000, 1.000000000000000000 ) ) ;
#1178 = ORIENTED_EDGE ( 'NONE', *, *, #139, .T. ) ;
#1179 = EDGE_CURVE ( 'NONE', #972, #467, #959, .T. ) ;
#1180 = CARTESIAN_POINT ( 'NONE',  ( -5.000000000000000000, 6.123233995736766282E-16, -17.14213562373095101 ) ) ;
#1181 = LINE ( 'NONE', #1016, #1050 ) ;
#1182 = VECTOR ( 'NONE', #988, 1000.000000000000000 ) ;
#1183 = ADVANCED_FACE ( 'NONE', ( #1030 ), #38, .F. ) ;
#1184 = EDGE_LOOP ( 'NONE', ( #926, #1160, #614, #347 ) ) ;
#1185 = LINE ( 'NONE', #629, #343 ) ;
#1186 = EDGE_CURVE ( 'NONE', #1048, #104, #109, .T. ) ;
#1187 = VERTEX_POINT ( 'NONE', #1124 ) ;
#1188 = LINE ( 'NONE', #1174, #809 ) ;
#1189 = AXIS2_PLACEMENT_3D ( 'NONE', #464, #209, #312 ) ;
#1190 = DIRECTION ( 'NONE',  ( -0.000000000000000000, -0.000000000000000000, 1.000000000000000000 ) ) ;
#1191 = AXIS2_PLACEMENT_3D ( 'NONE', #173, #535, #78 ) ;
#1192 = ORIENTED_EDGE ( 'NONE', *, *, #1109, .T. ) ;
#1193 = SURFACE_STYLE_FILL_AREA ( #454 ) ;
#1194 = ORIENTED_EDGE ( 'NONE', *, *, #377, .F. ) ;
#1195 = CYLINDRICAL_SURFACE ( 'NONE', #1171, 19.90000000000000213 ) ;
#1196 = STYLED_ITEM ( 'NONE', ( #952 ), #153 ) ;
ENDSEC;
END-ISO-10303-21;
