ISO-10303-21;
HEADER;
FILE_DESCRIPTION (( 'STEP AP214' ),
    '1' );
FILE_NAME ('010_010_Front_back_bearing_lock_1.STEP',
    '2024-07-21T08:35:38',
    ( '' ),
    ( '' ),
    'SwSTEP 2.0',
    'SolidWorks 2019',
    '' );
FILE_SCHEMA (( 'AUTOMOTIVE_DESIGN' ));
ENDSEC;

DATA;
#1 = DIRECTION ( 'NONE',  ( 0.000000000000000000, -1.000000000000000000, -2.973811673100436147E-15 ) ) ;
#2 = CARTESIAN_POINT ( 'NONE',  ( 7.426458294948980132, 73.43602805978298420, -14.29999999999995275 ) ) ;
#3 = DIRECTION ( 'NONE',  ( -0.000000000000000000, -0.000000000000000000, -1.000000000000000000 ) ) ;
#4 = ORIENTED_EDGE ( 'NONE', *, *, #528, .F. ) ;
#5 = ADVANCED_FACE ( 'NONE', ( #461 ), #1103, .F. ) ;
#6 = DIRECTION ( 'NONE',  ( -0.000000000000000000, -0.000000000000000000, 1.000000000000000000 ) ) ;
#7 = ADVANCED_FACE ( 'NONE', ( #289 ), #473, .F. ) ;
#8 = CIRCLE ( 'NONE', #58, 2.750000000016002755 ) ;
#9 = DIRECTION ( 'NONE',  ( 0.8903195977639759562, 0.4553361547663354325, 0.000000000000000000 ) ) ;
#10 = DIRECTION ( 'NONE',  ( -1.000000000000000000, 0.000000000000000000, 0.000000000000000000 ) ) ;
#11 = VECTOR ( 'NONE', #600, 1000.000000000000000 ) ;
#12 = CARTESIAN_POINT ( 'NONE',  ( -24.74660088226396226, 56.98176030062333552, -14.30000000000016414 ) ) ;
#13 = ORIENTED_EDGE ( 'NONE', *, *, #970, .F. ) ;
#14 = CARTESIAN_POINT ( 'NONE',  ( 18.95010937137660534, 43.97165639067142706, -19.49238815544992320 ) ) ;
#15 = DIRECTION ( 'NONE',  ( 9.506376166964814048E-17, 7.299954660870788817E-16, -1.000000000000000000 ) ) ;
#16 = DIRECTION ( 'NONE',  ( -0.000000000000000000, -0.000000000000000000, -1.000000000000000000 ) ) ;
#17 = VERTEX_POINT ( 'NONE', #1097 ) ;
#18 = CARTESIAN_POINT ( 'NONE',  ( 23.31870773179783285, 42.25207533043732155, -59.51955680601141552 ) ) ;
#19 = FACE_OUTER_BOUND ( 'NONE', #855, .T. ) ;
#20 = AXIS2_PLACEMENT_3D ( 'NONE', #924, #932, #1111 ) ;
#21 = DIRECTION ( 'NONE',  ( 0.8903195977638010961, 0.4553361547666773812, 4.165278799060982113E-16 ) ) ;
#22 = ORIENTED_EDGE ( 'NONE', *, *, #150, .F. ) ;
#23 = DIRECTION ( 'NONE',  ( 0.3219712827555979984, -0.6295510250017233300, 0.7071067811865434649 ) ) ;
#24 = DIRECTION ( 'NONE',  ( -8.622537070539964660E-16, 2.912524176298023170E-15, -1.000000000000000000 ) ) ;
#25 = ADVANCED_FACE ( 'NONE', ( #546 ), #993, .F. ) ;
#26 = DIRECTION ( 'NONE',  ( 0.1662544565528575879, -0.6976756126320183826, 0.6968559357678255628 ) ) ;
#27 = ORIENTED_EDGE ( 'NONE', *, *, #51, .T. ) ;
#28 = DIRECTION ( 'NONE',  ( 0.000000000000000000, 0.000000000000000000, -1.000000000000000000 ) ) ;
#29 = DIRECTION ( 'NONE',  ( 0.000000000000000000, 0.000000000000000000, 1.000000000000000000 ) ) ;
#30 = ORIENTED_EDGE ( 'NONE', *, *, #841, .F. ) ;
#31 = FILL_AREA_STYLE_COLOUR ( '', #231 ) ;
#32 = LINE ( 'NONE', #1069, #631 ) ;
#33 = APPLICATION_CONTEXT ( 'automotive_design' ) ;
#34 = CARTESIAN_POINT ( 'NONE',  ( 15.70010937136789586, 43.97165639067142706, -19.49238815544992320 ) ) ;
#35 = EDGE_CURVE ( 'NONE', #306, #300, #901, .T. ) ;
#36 = EDGE_LOOP ( 'NONE', ( #1184, #903, #261, #681 ) ) ;
#37 = CARTESIAN_POINT ( 'NONE',  ( 13.95010937135918283, 43.97165639067142706, -19.24974746833063577 ) ) ;
#38 = CARTESIAN_POINT ( 'NONE',  ( 0.000000000000000000, 0.000000000000000000, 0.000000000000000000 ) ) ;
#39 = LINE ( 'NONE', #1139, #1137 ) ;
#40 = VERTEX_POINT ( 'NONE', #293 ) ;
#41 = PLANE ( 'NONE',  #592 ) ;
#42 = AXIS2_PLACEMENT_3D ( 'NONE', #1073, #625, #160 ) ;
#43 = CARTESIAN_POINT ( 'NONE',  ( 7.426458294948850458, 73.43602805978326842, -45.37500000000017764 ) ) ;
#44 = CARTESIAN_POINT ( 'NONE',  ( -2.378967735992381538, 56.29431479875216837, -19.24974746828712568 ) ) ;
#45 = EDGE_CURVE ( 'NONE', #348, #158, #755, .T. ) ;
#46 = EDGE_LOOP ( 'NONE', ( #1086, #693 ) ) ;
#47 = CIRCLE ( 'NONE', #973, 3.250000000001565859 ) ;
#48 = EDGE_LOOP ( 'NONE', ( #965, #673 ) ) ;
#49 = CARTESIAN_POINT ( 'NONE',  ( 15.70010937136789586, 43.97165639067142706, -10.30000000000016236 ) ) ;
#50 = CARTESIAN_POINT ( 'NONE',  ( 12.45010937135918461, 43.97165639067142706, -19.49238815544992320 ) ) ;
#51 = EDGE_CURVE ( 'NONE', #1093, #80, #455, .T. ) ;
#52 = ORIENTED_EDGE ( 'NONE', *, *, #1157, .F. ) ;
#53 = ORIENTED_EDGE ( 'NONE', *, *, #528, .T. ) ;
#54 = EDGE_CURVE ( 'NONE', #1160, #153, #114, .T. ) ;
#55 = PRODUCT ( '010_010_Front_back_bearing_lock_1', '010_010_Front_back_bearing_lock_1', '', ( #138 ) ) ;
#56 = DIRECTION ( 'NONE',  ( -0.000000000000000000, -0.000000000000000000, 1.000000000000000000 ) ) ;
#57 = ORIENTED_EDGE ( 'NONE', *, *, #1142, .T. ) ;
#58 = AXIS2_PLACEMENT_3D ( 'NONE', #1089, #1083, #542 ) ;
#59 = ORIENTED_EDGE ( 'NONE', *, *, #116, .T. ) ;
#60 = VECTOR ( 'NONE', #441, 1000.000000000000000 ) ;
#61 = LINE ( 'NONE', #349, #745 ) ;
#62 = VECTOR ( 'NONE', #294, 1000.000000000000227 ) ;
#63 = VECTOR ( 'NONE', #938, 1000.000000000000227 ) ;
#64 = CARTESIAN_POINT ( 'NONE',  ( -4.128967735985727749, 56.29431479875216837, -14.30000000000011084 ) ) ;
#65 = EDGE_LOOP ( 'NONE', ( #1127, #977, #95, #67 ) ) ;
#66 = CARTESIAN_POINT ( 'NONE',  ( 15.43933467482313482, 77.53405345268322435, -45.37500000000018474 ) ) ;
#67 = ORIENTED_EDGE ( 'NONE', *, *, #982, .T. ) ;
#68 = LINE ( 'NONE', #1003, #1015 ) ;
#69 = PLANE ( 'NONE',  #262 ) ;
#70 = EDGE_CURVE ( 'NONE', #272, #344, #1029, .T. ) ;
#71 = ORIENTED_EDGE ( 'NONE', *, *, #859, .T. ) ;
#72 = DIRECTION ( 'NONE',  ( -1.000000000000000000, 0.000000000000000000, 0.000000000000000000 ) ) ;
#73 = VERTEX_POINT ( 'NONE', #2 ) ;
#74 = CARTESIAN_POINT ( 'NONE',  ( -5.878967735979075293, 56.29431479875216837, -14.30000000000010907 ) ) ;
#75 = VERTEX_POINT ( 'NONE', #1011 ) ;
#76 = DIRECTION ( 'NONE',  ( 1.000000000000000000, 0.000000000000000000, 0.000000000000000000 ) ) ;
#77 = CARTESIAN_POINT ( 'NONE',  ( -24.74660088226394805, 56.98176030062334263, -10.30000000000016236 ) ) ;
#78 = DIRECTION ( 'NONE',  ( -0.000000000000000000, -0.000000000000000000, 1.000000000000000000 ) ) ;
#79 = ADVANCED_FACE ( 'NONE', ( #753 ), #832, .T. ) ;
#80 = VERTEX_POINT ( 'NONE', #99 ) ;
#81 = CARTESIAN_POINT ( 'NONE',  ( -6.828389705632252671, 32.44990603475675783, -19.24974746833063577 ) ) ;
#82 = ORIENTED_EDGE ( 'NONE', *, *, #815, .F. ) ;
#83 = CARTESIAN_POINT ( 'NONE',  ( -4.815171068574858992, -1.147443933427545915, 8.500000000000000000 ) ) ;
#84 = AXIS2_PLACEMENT_3D ( 'NONE', #562, #274, #992 ) ;
#85 = DIRECTION ( 'NONE',  ( -0.000000000000000000, -0.000000000000000000, 1.000000000000000000 ) ) ;
#86 = CARTESIAN_POINT ( 'NONE',  ( 24.54605777015673240, 59.72766149740706965, -14.30000000000007176 ) ) ;
#87 = EDGE_CURVE ( 'NONE', #246, #203, #988, .T. ) ;
#88 = ORIENTED_EDGE ( 'NONE', *, *, #1070, .F. ) ;
#89 = DIRECTION ( 'NONE',  ( 0.000000000000000000, 0.000000000000000000, 1.000000000000000000 ) ) ;
#90 = FACE_OUTER_BOUND ( 'NONE', #737, .T. ) ;
#91 = DIRECTION ( 'NONE',  ( 0.000000000000000000, 0.000000000000000000, 1.000000000000000000 ) ) ;
#92 = LINE ( 'NONE', #474, #952 ) ;
#93 = EDGE_CURVE ( 'NONE', #360, #960, #1040, .T. ) ;
#94 = ADVANCED_FACE ( 'NONE', ( #225 ), #386, .T. ) ;
#95 = ORIENTED_EDGE ( 'NONE', *, *, #1123, .T. ) ;
#96 = ADVANCED_FACE ( 'NONE', ( #757, #579, #124 ), #105, .T. ) ;
#97 = DIRECTION ( 'NONE',  ( -0.4553361547666766596, 0.8903195977638013181, 5.030698080332743729E-15 ) ) ;
#98 = LINE ( 'NONE', #364, #324 ) ;
#99 = CARTESIAN_POINT ( 'NONE',  ( -10.07838970563381942, 32.44990603475675783, 10.50000000000000000 ) ) ;
#100 = DIRECTION ( 'NONE',  ( -0.8903195977638012071, -0.4553361547666769371, -0.000000000000000000 ) ) ;
#101 = EDGE_LOOP ( 'NONE', ( #1018, #816, #803, #331 ) ) ;
#102 = FACE_OUTER_BOUND ( 'NONE', #1106, .T. ) ;
#103 = VECTOR ( 'NONE', #651, 1000.000000000000000 ) ;
#104 = CARTESIAN_POINT ( 'NONE',  ( 0.000000000000000000, 0.000000000000000000, 5.500000000000000000 ) ) ;
#105 = PLANE ( 'NONE',  #311 ) ;
#106 = CIRCLE ( 'NONE', #590, 1.749999999993346211 ) ;
#107 = DIRECTION ( 'NONE',  ( -0.000000000000000000, -0.000000000000000000, 1.000000000000000000 ) ) ;
#108 = ORIENTED_EDGE ( 'NONE', *, *, #280, .F. ) ;
#109 = LINE ( 'NONE', #396, #603 ) ;
#110 = CARTESIAN_POINT ( 'NONE',  ( 17.45010937137660534, 43.97165639067142706, -10.30000000000016236 ) ) ;
#111 = AXIS2_PLACEMENT_3D ( 'NONE', #1118, #15, #392 ) ;
#112 = CARTESIAN_POINT ( 'NONE',  ( -34.90823857877861514, 51.78479390059739984, -39.85000000000020748 ) ) ;
#113 = CARTESIAN_POINT ( 'NONE',  ( 0.000000000000000000, 0.000000000000000000, 0.000000000000000000 ) ) ;
#114 = CIRCLE ( 'NONE', #292, 1.750000000001566303 ) ;
#115 = ORIENTED_EDGE ( 'NONE', *, *, #254, .F. ) ;
#116 = EDGE_CURVE ( 'NONE', #394, #971, #770, .T. ) ;
#117 = CYLINDRICAL_SURFACE ( 'NONE', #998, 2.750000000016002755 ) ;
#118 = CARTESIAN_POINT ( 'NONE',  ( -5.078389705630686812, 32.44990603475675783, -19.24974746833063577 ) ) ;
#119 = FACE_OUTER_BOUND ( 'NONE', #548, .T. ) ;
#120 = ORIENTED_EDGE ( 'NONE', *, *, #438, .T. ) ;
#121 = ADVANCED_FACE ( 'NONE', ( #119 ), #1125, .F. ) ;
#122 = CARTESIAN_POINT ( 'NONE',  ( 12.59286720509255098, 65.96955506559146443, -35.35000000000007958 ) ) ;
#123 = FACE_OUTER_BOUND ( 'NONE', #539, .T. ) ;
#124 = FACE_OUTER_BOUND ( 'NONE', #352, .T. ) ;
#125 = CIRCLE ( 'NONE', #1104, 1.749999999993346211 ) ;
#126 = PRODUCT_DEFINITION_CONTEXT ( 'detailed design', #33, 'design' ) ;
#127 = EDGE_LOOP ( 'NONE', ( #108, #381 ) ) ;
#128 = VECTOR ( 'NONE', #641, 1000.000000000000000 ) ;
#129 = CIRCLE ( 'NONE', #1007, 3.250000000001566303 ) ;
#130 = DIRECTION ( 'NONE',  ( -0.4553361547666767151, 0.8903195977638013181, 0.000000000000000000 ) ) ;
#131 = FACE_OUTER_BOUND ( 'NONE', #161, .T. ) ;
#132 = DIRECTION ( 'NONE',  ( -0.3219712827549263690, 0.6295510250020667220, -0.7071067811865434649 ) ) ;
#133 = ORIENTED_EDGE ( 'NONE', *, *, #1074, .T. ) ;
#134 = ADVANCED_FACE ( 'NONE', ( #1114 ), #568, .F. ) ;
#135 = LINE ( 'NONE', #327, #62 ) ;
#136 = CARTESIAN_POINT ( 'NONE',  ( -2.378967735992381538, 56.29431479875216837, -10.30000000000016236 ) ) ;
#137 = LINE ( 'NONE', #340, #228 ) ;
#138 = PRODUCT_CONTEXT ( 'NONE', #1043, 'mechanical' ) ;
#139 = AXIS2_PLACEMENT_3D ( 'NONE', #985, #657, #458 ) ;
#140 = EDGE_LOOP ( 'NONE', ( #624, #448, #792, #875 ) ) ;
#141 =( NAMED_UNIT ( * ) PLANE_ANGLE_UNIT ( ) SI_UNIT ( $, .RADIAN. ) );
#142 = LINE ( 'NONE', #979, #491 ) ;
#143 = ADVANCED_FACE ( 'NONE', ( #839, #299, #486 ), #412, .T. ) ;
#144 = CARTESIAN_POINT ( 'NONE',  ( -41.27873685246975555, 89.30707533015868194, -10.30000000000016236 ) ) ;
#145 = ORIENTED_EDGE ( 'NONE', *, *, #150, .T. ) ;
#146 = EDGE_LOOP ( 'NONE', ( #171, #200, #905, #451 ) ) ;
#147 = CIRCLE ( 'NONE', #534, 3.250000000001566303 ) ;
#148 = CARTESIAN_POINT ( 'NONE',  ( 24.54605777015673240, 59.72766149740706965, -10.30000000000016058 ) ) ;
#149 = CARTESIAN_POINT ( 'NONE',  ( 10.94322070605716846, 75.23460587108132813, -35.35000000000005116 ) ) ;
#150 = EDGE_CURVE ( 'NONE', #272, #394, #761, .T. ) ;
#151 = ORIENTED_EDGE ( 'NONE', *, *, #1026, .T. ) ;
#152 = VECTOR ( 'NONE', #1020, 1000.000000000000000 ) ;
#153 = VERTEX_POINT ( 'NONE', #493 ) ;
#154 = VECTOR ( 'NONE', #1177, 1000.000000000000000 ) ;
#155 = DIRECTION ( 'NONE',  ( -0.000000000000000000, -0.000000000000000000, -1.000000000000000000 ) ) ;
#156 = DIRECTION ( 'NONE',  ( -0.8903195977638012071, -0.4553361547666769926, -4.170304585768336524E-16 ) ) ;
#157 = ORIENTED_EDGE ( 'NONE', *, *, #720, .T. ) ;
#158 = VERTEX_POINT ( 'NONE', #593 ) ;
#159 = FACE_OUTER_BOUND ( 'NONE', #871, .T. ) ;
#160 = DIRECTION ( 'NONE',  ( -1.000000000000000000, 0.000000000000000000, 0.000000000000000000 ) ) ;
#161 = EDGE_LOOP ( 'NONE', ( #115, #229, #746, #82 ) ) ;
#162 = CARTESIAN_POINT ( 'NONE',  ( 13.39159959992186977, 76.48678029669697764, -35.35000000000005116 ) ) ;
#163 = CIRCLE ( 'NONE', #831, 3.250000000001565859 ) ;
#164 = ORIENTED_EDGE ( 'NONE', *, *, #1071, .F. ) ;
#165 = CIRCLE ( 'NONE', #885, 1.750000000001566303 ) ;
#166 = DIRECTION ( 'NONE',  ( -0.000000000000000000, -0.000000000000000000, 1.000000000000000000 ) ) ;
#167 = EDGE_CURVE ( 'NONE', #1055, #971, #851, .T. ) ;
#168 = CYLINDRICAL_SURFACE ( 'NONE', #1126, 1.749999999993346211 ) ;
#169 = EDGE_LOOP ( 'NONE', ( #357, #347 ) ) ;
#170 = CARTESIAN_POINT ( 'NONE',  ( 16.53318139028239742, 55.62963610450724161, -73.17579469286130234 ) ) ;
#171 = ORIENTED_EDGE ( 'NONE', *, *, #1179, .T. ) ;
#172 = DIRECTION ( 'NONE',  ( -0.000000000000000000, -0.000000000000000000, -1.000000000000000000 ) ) ;
#173 = ORIENTED_EDGE ( 'NONE', *, *, #395, .F. ) ;
#174 = DIRECTION ( 'NONE',  ( -0.4553361547666759934, 0.8903195977638017622, 3.714397489708602105E-15 ) ) ;
#175 = ADVANCED_FACE ( 'NONE', ( #676 ), #1027, .F. ) ;
#176 = CARTESIAN_POINT ( 'NONE',  ( 0.000000000000000000, 0.000000000000000000, 0.000000000000000000 ) ) ;
#177 = LINE ( 'NONE', #667, #535 ) ;
#178 = ORIENTED_EDGE ( 'NONE', *, *, #604, .T. ) ;
#179 = CARTESIAN_POINT ( 'NONE',  ( 13.95010937135918283, 43.97165639067142706, -10.30000000000016236 ) ) ;
#180 = EDGE_LOOP ( 'NONE', ( #595, #312, #1115, #341, #990 ) ) ;
#181 = CARTESIAN_POINT ( 'NONE',  ( -15.63987778694361452, 39.17536834550500657, -10.30000000000016236 ) ) ;
#182 = EDGE_CURVE ( 'NONE', #75, #678, #125, .T. ) ;
#183 = CARTESIAN_POINT ( 'NONE',  ( 15.04124609895725229, 67.22172949120707131, -25.35000000000007958 ) ) ;
#184 = DIRECTION ( 'NONE',  ( -0.4553361547666759379, 0.8903195977638016512, 3.714397489708601316E-15 ) ) ;
#185 = VERTEX_POINT ( 'NONE', #680 ) ;
#186 = FACE_OUTER_BOUND ( 'NONE', #65, .T. ) ;
#187 = AXIS2_PLACEMENT_3D ( 'NONE', #240, #259, #501 ) ;
#188 = EDGE_CURVE ( 'NONE', #80, #437, #147, .T. ) ;
#189 = CARTESIAN_POINT ( 'NONE',  ( 15.04124609895725229, 67.22172949120711394, -35.35000000000007958 ) ) ;
#190 = EDGE_CURVE ( 'NONE', #1183, #614, #1132, .T. ) ;
#191 = AXIS2_PLACEMENT_3D ( 'NONE', #510, #516, #1057 ) ;
#192 = CARTESIAN_POINT ( 'NONE',  ( -6.828389705632252671, 32.44990603475675783, -10.30000000000016236 ) ) ;
#193 = CARTESIAN_POINT ( 'NONE',  ( 16.53318139028239386, 55.62963610450722030, -45.37500000000019185 ) ) ;
#194 = EDGE_CURVE ( 'NONE', #1008, #394, #433, .T. ) ;
#195 = ORIENTED_EDGE ( 'NONE', *, *, #647, .T. ) ;
#196 = PLANE ( 'NONE',  #237 ) ;
#197 = DIRECTION ( 'NONE',  ( 1.000000000000000000, 0.000000000000000000, -0.000000000000000000 ) ) ;
#198 = CARTESIAN_POINT ( 'NONE',  ( 0.000000000000000000, 0.000000000000000000, 5.500000000000000000 ) ) ;
#199 = CARTESIAN_POINT ( 'NONE',  ( -13.36319701317435182, 34.72377035667945222, 10.50000000000000000 ) ) ;
#200 = ORIENTED_EDGE ( 'NONE', *, *, #1116, .T. ) ;
#201 = DIRECTION ( 'NONE',  ( -0.8903195977639759562, -0.4553361547663354325, 0.000000000000000000 ) ) ;
#202 = CARTESIAN_POINT ( 'NONE',  ( 43.67017627035721006, 22.33423839132737498, 0.000000000000000000 ) ) ;
#203 = VERTEX_POINT ( 'NONE', #861 ) ;
#204 = FACE_OUTER_BOUND ( 'NONE', #696, .T. ) ;
#205 = CARTESIAN_POINT ( 'NONE',  ( 23.31870773179783285, 42.25207533043732155, -4.500000000000073719 ) ) ;
#206 = EDGE_CURVE ( 'NONE', #488, #494, #931, .T. ) ;
#207 = DIRECTION ( 'NONE',  ( 0.4553361547666770481, -0.8903195977638012071, 0.000000000000000000 ) ) ;
#208 = CIRCLE ( 'NONE', #285, 1.749999999993347100 ) ;
#209 = DIRECTION ( 'NONE',  ( 1.000000000000000000, 0.000000000000000000, 0.000000000000000000 ) ) ;
#210 = ORIENTED_EDGE ( 'NONE', *, *, #280, .T. ) ;
#211 = DIRECTION ( 'NONE',  ( 1.000000000000000000, 0.000000000000000000, 0.000000000000000000 ) ) ;
#212 = PLANE ( 'NONE',  #111 ) ;
#213 = CARTESIAN_POINT ( 'NONE',  ( -6.828389705632252671, 32.44990603475675783, -19.49238815544992320 ) ) ;
#214 = PRESENTATION_STYLE_ASSIGNMENT (( #569 ) ) ;
#215 = ADVANCED_FACE ( 'NONE', ( #530, #786 ), #712, .F. ) ;
#216 = CLOSED_SHELL ( 'NONE', ( #524, #175, #134, #949, #402, #574, #1135, #79, #335, #911, #25, #94, #389, #1034, #383, #935, #945, #611, #495, #143, #824, #121, #1032, #545, #425, #519, #96, #900, #487, #5, #227, #791, #1058, #215, #7, #926, #781, #492 ) ) ;
#217 = ORIENTED_EDGE ( 'NONE', *, *, #271, .T. ) ;
#218 = FACE_OUTER_BOUND ( 'NONE', #46, .T. ) ;
#219 = CARTESIAN_POINT ( 'NONE',  ( 23.31870773179783285, 42.25207533043732155, 10.50000000000000000 ) ) ;
#220 = CARTESIAN_POINT ( 'NONE',  ( -6.828389705632252671, 32.44990603475675783, 10.50000000000000000 ) ) ;
#221 = ORIENTED_EDGE ( 'NONE', *, *, #857, .T. ) ;
#222 = FACE_OUTER_BOUND ( 'NONE', #1146, .T. ) ;
#223 = CARTESIAN_POINT ( 'NONE',  ( -41.27873685246975555, 89.30707533015868194, -10.30000000000016236 ) ) ;
#224 = CIRCLE ( 'NONE', #322, 4.949999999999999289 ) ;
#225 = FACE_OUTER_BOUND ( 'NONE', #295, .T. ) ;
#226 = APPLICATION_PROTOCOL_DEFINITION ( 'draft international standard', 'automotive_design', 1998, #33 ) ;
#227 = ADVANCED_FACE ( 'NONE', ( #334 ), #980, .T. ) ;
#228 = VECTOR ( 'NONE', #511, 1000.000000000000114 ) ;
#229 = ORIENTED_EDGE ( 'NONE', *, *, #1026, .F. ) ;
#230 = VECTOR ( 'NONE', #929, 1000.000000000000114 ) ;
#231 = COLOUR_RGB ( '',0.2509803921568627416, 0.000000000000000000, 0.5019607843137254832 ) ;
#232 = DIRECTION ( 'NONE',  ( -0.8903195977638016512, -0.4553361547666759379, 0.000000000000000000 ) ) ;
#233 = EDGE_LOOP ( 'NONE', ( #1153, #937 ) ) ;
#234 = VECTOR ( 'NONE', #406, 1000.000000000000000 ) ;
#235 = CARTESIAN_POINT ( 'NONE',  ( 15.70010937136789586, 43.97165639067142706, 10.50000000000000000 ) ) ;
#236 = CARTESIAN_POINT ( 'NONE',  ( 12.59286720509254920, 65.96955506559146443, -35.35000000000007958 ) ) ;
#237 = AXIS2_PLACEMENT_3D ( 'NONE', #759, #28, #1030 ) ;
#238 = EDGE_LOOP ( 'NONE', ( #543, #622 ) ) ;
#239 = ORIENTED_EDGE ( 'NONE', *, *, #1123, .F. ) ;
#240 = CARTESIAN_POINT ( 'NONE',  ( 15.70010937136789586, 43.97165639067142706, -19.24974746833063577 ) ) ;
#241 = CARTESIAN_POINT ( 'NONE',  ( -13.36319701317245645, 34.72377035667575029, -14.30000000000016414 ) ) ;
#242 = CARTESIAN_POINT ( 'NONE',  ( 15.70010937136789586, 43.97165639067142706, -14.30000000000016414 ) ) ;
#243 = ORIENTED_EDGE ( 'NONE', *, *, #45, .F. ) ;
#244 = EDGE_CURVE ( 'NONE', #153, #1160, #796, .T. ) ;
#245 = CIRCLE ( 'NONE', #1063, 1.750000000008711698 ) ;
#246 = VERTEX_POINT ( 'NONE', #1059 ) ;
#247 = AXIS2_PLACEMENT_3D ( 'NONE', #34, #1129, #934 ) ;
#248 = CARTESIAN_POINT ( 'NONE',  ( -6.828389705632252671, 32.44990603475675783, -14.30000000000017657 ) ) ;
#249 = ORIENTED_EDGE ( 'NONE', *, *, #1148, .T. ) ;
#250 = EDGE_LOOP ( 'NONE', ( #782, #893, #221, #819 ) ) ;
#251 = CARTESIAN_POINT ( 'NONE',  ( -24.74660088226396226, 56.98176030062333552, -10.30000000000016236 ) ) ;
#252 = ORIENTED_EDGE ( 'NONE', *, *, #856, .T. ) ;
#253 = ORIENTED_EDGE ( 'NONE', *, *, #308, .T. ) ;
#254 = EDGE_CURVE ( 'NONE', #203, #365, #692, .T. ) ;
#255 = CARTESIAN_POINT ( 'NONE',  ( 15.43933467482307975, 77.53405345268333804, -45.37500000000017764 ) ) ;
#256 = DIRECTION ( 'NONE',  ( -8.622537070539964660E-16, 2.912524176298023170E-15, -1.000000000000000000 ) ) ;
#257 = MECHANICAL_DESIGN_GEOMETRIC_PRESENTATION_REPRESENTATION (  '', ( #326 ), #880 ) ;
#258 = ORIENTED_EDGE ( 'NONE', *, *, #35, .F. ) ;
#259 = DIRECTION ( 'NONE',  ( -0.000000000000000000, -0.000000000000000000, 1.000000000000000000 ) ) ;
#260 = VECTOR ( 'NONE', #411, 1000.000000000000000 ) ;
#261 = ORIENTED_EDGE ( 'NONE', *, *, #859, .F. ) ;
#262 = AXIS2_PLACEMENT_3D ( 'NONE', #181, #351, #716 ) ;
#263 = DIRECTION ( 'NONE',  ( -0.8903195977638012071, -0.4553361547666769371, 0.000000000000000000 ) ) ;
#264 = VERTEX_POINT ( 'NONE', #508 ) ;
#265 = FACE_OUTER_BOUND ( 'NONE', #762, .T. ) ;
#266 = ORIENTED_EDGE ( 'NONE', *, *, #404, .F. ) ;
#267 = CARTESIAN_POINT ( 'NONE',  ( 15.70010937136789586, 43.97165639067142706, -10.30000000000016236 ) ) ;
#268 = ORIENTED_EDGE ( 'NONE', *, *, #1142, .F. ) ;
#269 = AXIS2_PLACEMENT_3D ( 'NONE', #1039, #1124, #497 ) ;
#270 = LINE ( 'NONE', #734, #531 ) ;
#271 = EDGE_CURVE ( 'NONE', #494, #541, #959, .T. ) ;
#272 = VERTEX_POINT ( 'NONE', #612 ) ;
#273 = AXIS2_PLACEMENT_3D ( 'NONE', #916, #91, #661 ) ;
#274 = DIRECTION ( 'NONE',  ( -0.000000000000000000, -0.000000000000000000, 1.000000000000000000 ) ) ;
#275 = DIRECTION ( 'NONE',  ( -0.8903195977638009850, -0.4553361547666771036, 0.000000000000000000 ) ) ;
#276 = ORIENTED_EDGE ( 'NONE', *, *, #663, .T. ) ;
#277 = EDGE_CURVE ( 'NONE', #995, #664, #478, .T. ) ;
#278 = CARTESIAN_POINT ( 'NONE',  ( 18.76534618409774069, 51.15527130811705803, 10.50000000000000000 ) ) ;
#279 = CARTESIAN_POINT ( 'NONE',  ( 12.59286720509255098, 65.96955506559142179, -25.35000000000007958 ) ) ;
#280 = EDGE_CURVE ( 'NONE', #1151, #733, #208, .T. ) ;
#281 = ORIENTED_EDGE ( 'NONE', *, *, #765, .F. ) ;
#282 = LINE ( 'NONE', #833, #498 ) ;
#283 = ORIENTED_EDGE ( 'NONE', *, *, #87, .T. ) ;
#284 = DIRECTION ( 'NONE',  ( -0.8903195977639758452, -0.4553361547663353770, -0.000000000000000000 ) ) ;
#285 = AXIS2_PLACEMENT_3D ( 'NONE', #64, #874, #976 ) ;
#286 = VECTOR ( 'NONE', #654, 999.9999999999998863 ) ;
#287 = AXIS2_PLACEMENT_3D ( 'NONE', #477, #837, #211 ) ;
#288 = PLANE ( 'NONE',  #464 ) ;
#289 = FACE_OUTER_BOUND ( 'NONE', #250, .T. ) ;
#290 = ORIENTED_EDGE ( 'NONE', *, *, #1064, .F. ) ;
#291 = PLANE ( 'NONE',  #751 ) ;
#292 = AXIS2_PLACEMENT_3D ( 'NONE', #192, #559, #10 ) ;
#293 = CARTESIAN_POINT ( 'NONE',  ( 17.48962499282195182, 68.47390391682272082, -25.35000000000007958 ) ) ;
#294 = DIRECTION ( 'NONE',  ( -0.4553361547666759379, 0.8903195977638016512, 3.714397489708601316E-15 ) ) ;
#295 = EDGE_LOOP ( 'NONE', ( #52, #527, #799, #834, #145, #923, #730, #823 ) ) ;
#296 = EDGE_CURVE ( 'NONE', #942, #972, #39, .T. ) ;
#297 = LINE ( 'NONE', #1128, #1054 ) ;
#298 = AXIS2_PLACEMENT_3D ( 'NONE', #529, #1167, #263 ) ;
#299 = FACE_BOUND ( 'NONE', #238, .T. ) ;
#300 = VERTEX_POINT ( 'NONE', #523 ) ;
#301 = CARTESIAN_POINT ( 'NONE',  ( -15.63987778699708819, 39.17536834547765068, -10.30000000000016236 ) ) ;
#302 = EDGE_CURVE ( 'NONE', #972, #650, #1052, .T. ) ;
#303 = LINE ( 'NONE', #118, #784 ) ;
#304 = DIRECTION ( 'NONE',  ( -0.8903195977638012071, -0.4553361547666770481, 0.000000000000000000 ) ) ;
#305 = AXIS2_PLACEMENT_3D ( 'NONE', #946, #499, #854 ) ;
#306 = VERTEX_POINT ( 'NONE', #251 ) ;
#307 = DIRECTION ( 'NONE',  ( -0.4553361547666759379, 0.8903195977638016512, 3.714397489708601316E-15 ) ) ;
#308 = EDGE_CURVE ( 'NONE', #344, #520, #137, .T. ) ;
#309 = AXIS2_PLACEMENT_3D ( 'NONE', #850, #24, #953 ) ;
#310 = CARTESIAN_POINT ( 'NONE',  ( -4.815171068574857216, -1.147443933427545470, 8.500000000000000000 ) ) ;
#311 = AXIS2_PLACEMENT_3D ( 'NONE', #480, #29, #575 ) ;
#312 = ORIENTED_EDGE ( 'NONE', *, *, #190, .T. ) ;
#313 = CARTESIAN_POINT ( 'NONE',  ( 4.556266011568931518, -1.934667938386779973, 8.500000000000000000 ) ) ;
#314 = PRODUCT_RELATED_PRODUCT_CATEGORY ( 'part', '', ( #55 ) ) ;
#315 = EDGE_CURVE ( 'NONE', #1151, #678, #323, .T. ) ;
#316 = LINE ( 'NONE', #1112, #152 ) ;
#317 = EDGE_CURVE ( 'NONE', #827, #373, #865, .T. ) ;
#318 = DIRECTION ( 'NONE',  ( 1.000000000000000000, 0.000000000000000000, 0.000000000000000000 ) ) ;
#319 = ORIENTED_EDGE ( 'NONE', *, *, #1050, .T. ) ;
#320 = DIRECTION ( 'NONE',  ( -0.000000000000000000, -0.000000000000000000, -1.000000000000000000 ) ) ;
#321 = LINE ( 'NONE', #148, #849 ) ;
#322 = AXIS2_PLACEMENT_3D ( 'NONE', #453, #800, #362 ) ;
#323 = LINE ( 'NONE', #44, #379 ) ;
#324 = VECTOR ( 'NONE', #544, 1000.000000000000114 ) ;
#325 = ORIENTED_EDGE ( 'NONE', *, *, #87, .F. ) ;
#326 = STYLED_ITEM ( 'NONE', ( #214 ), #375 ) ;
#327 = CARTESIAN_POINT ( 'NONE',  ( 17.48962499282195182, 68.47390391682276345, -35.35000000000007958 ) ) ;
#328 = CARTESIAN_POINT ( 'NONE',  ( 17.48962499282195182, 68.47390391682272082, -25.35000000000007958 ) ) ;
#329 = DIRECTION ( 'NONE',  ( -0.000000000000000000, -0.000000000000000000, 1.000000000000000000 ) ) ;
#330 = ORIENTED_EDGE ( 'NONE', *, *, #847, .T. ) ;
#331 = ORIENTED_EDGE ( 'NONE', *, *, #244, .T. ) ;
#332 = DIRECTION ( 'NONE',  ( 0.8903195977633154845, 0.4553361547676268439, -0.000000000000000000 ) ) ;
#333 = DIRECTION ( 'NONE',  ( -0.4553361547666759934, 0.8903195977638017622, 3.714397489708602105E-15 ) ) ;
#334 = FACE_OUTER_BOUND ( 'NONE', #169, .T. ) ;
#335 = ADVANCED_FACE ( 'NONE', ( #964, #426, #878, #780 ), #430, .F. ) ;
#336 = CIRCLE ( 'NONE', #1166, 3.250000000008711254 ) ;
#337 = ORIENTED_EDGE ( 'NONE', *, *, #190, .F. ) ;
#338 = VERTEX_POINT ( 'NONE', #236 ) ;
#339 = EDGE_CURVE ( 'NONE', #306, #960, #605, .T. ) ;
#340 = CARTESIAN_POINT ( 'NONE',  ( 4.556266011568932406, -1.934667938386779085, 10.50000000000000000 ) ) ;
#341 = ORIENTED_EDGE ( 'NONE', *, *, #93, .T. ) ;
#342 = COLOUR_RGB ( '',0.2509803921568627416, 0.000000000000000000, 0.5019607843137254832 ) ;
#343 =( GEOMETRIC_REPRESENTATION_CONTEXT ( 3 ) GLOBAL_UNCERTAINTY_ASSIGNED_CONTEXT ( ( #408 ) ) GLOBAL_UNIT_ASSIGNED_CONTEXT ( ( #1136, #141, #533 ) ) REPRESENTATION_CONTEXT ( 'NONE', 'WORKASPACE' ) );
#344 = VERTEX_POINT ( 'NONE', #422 ) ;
#345 = CARTESIAN_POINT ( 'NONE',  ( -3.578389705630686812, 32.44990603475675783, -10.30000000000016236 ) ) ;
#346 = DIRECTION ( 'NONE',  ( 0.4553361547666783249, -0.8903195977638005409, -2.985692640522281262E-15 ) ) ;
#347 = ORIENTED_EDGE ( 'NONE', *, *, #617, .T. ) ;
#348 = VERTEX_POINT ( 'NONE', #790 ) ;
#349 = CARTESIAN_POINT ( 'NONE',  ( -10.97741757126323670, 24.71200785567837954, -14.30000000000019433 ) ) ;
#350 = EDGE_CURVE ( 'NONE', #997, #409, #165, .T. ) ;
#351 = DIRECTION ( 'NONE',  ( 0.3219712827555942791, -0.6295510250017163356, -0.7071067811865515695 ) ) ;
#352 = EDGE_LOOP ( 'NONE', ( #626, #1075, #427, #253, #475 ) ) ;
#353 = AXIS2_PLACEMENT_3D ( 'NONE', #81, #996, #991 ) ;
#354 = CYLINDRICAL_SURFACE ( 'NONE', #187, 1.750000000008709922 ) ;
#355 = ORIENTED_EDGE ( 'NONE', *, *, #617, .F. ) ;
#356 = FACE_OUTER_BOUND ( 'NONE', #793, .T. ) ;
#357 = ORIENTED_EDGE ( 'NONE', *, *, #660, .T. ) ;
#358 = LINE ( 'NONE', #86, #1155 ) ;
#359 = EDGE_CURVE ( 'NONE', #664, #995, #690, .T. ) ;
#360 = VERTEX_POINT ( 'NONE', #920 ) ;
#361 = AXIS2_PLACEMENT_3D ( 'NONE', #1175, #813, #197 ) ;
#362 = DIRECTION ( 'NONE',  ( 1.000000000000000000, 0.000000000000000000, 0.000000000000000000 ) ) ;
#363 = VERTEX_POINT ( 'NONE', #899 ) ;
#364 = CARTESIAN_POINT ( 'NONE',  ( 18.76534618413112909, 51.15527130807520706, -14.30000000000014637 ) ) ;
#365 = VERTEX_POINT ( 'NONE', #1162 ) ;
#366 = ORIENTED_EDGE ( 'NONE', *, *, #703, .F. ) ;
#367 = DIRECTION ( 'NONE',  ( -0.000000000000000000, -0.000000000000000000, -1.000000000000000000 ) ) ;
#368 = DIRECTION ( 'NONE',  ( -0.9727618320353246251, -0.2318068552378879099, 0.000000000000000000 ) ) ;
#369 = DIRECTION ( 'NONE',  ( 0.000000000000000000, 0.000000000000000000, 1.000000000000000000 ) ) ;
#370 = ORIENTED_EDGE ( 'NONE', *, *, #663, .F. ) ;
#371 = DIRECTION ( 'NONE',  ( 0.000000000000000000, 0.000000000000000000, 1.000000000000000000 ) ) ;
#372 = CARTESIAN_POINT ( 'NONE',  ( -8.578389705633819418, 32.44990603475675783, -14.30000000000017479 ) ) ;
#373 = VERTEX_POINT ( 'NONE', #646 ) ;
#374 = CARTESIAN_POINT ( 'NONE',  ( -10.07838970563381942, 32.44990603475675783, -10.30000000000016236 ) ) ;
#375 = ADVANCED_BREP_SHAPE_REPRESENTATION ( '010_010_Front_back_bearing_lock_1', ( #1025, #570 ), #691 ) ;
#376 = VERTEX_POINT ( 'NONE', #826 ) ;
#377 = VECTOR ( 'NONE', #1161, 1000.000000000000114 ) ;
#378 = DIRECTION ( 'NONE',  ( -0.4553361547666759934, 0.8903195977638017622, 3.714397489708602105E-15 ) ) ;
#379 = VECTOR ( 'NONE', #56, 1000.000000000000000 ) ;
#380 = DIRECTION ( 'NONE',  ( -1.000000000000000000, 0.000000000000000000, -0.000000000000000000 ) ) ;
#381 = ORIENTED_EDGE ( 'NONE', *, *, #565, .F. ) ;
#382 = APPLICATION_PROTOCOL_DEFINITION ( 'draft international standard', 'automotive_design', 1998, #1043 ) ;
#383 = ADVANCED_FACE ( 'NONE', ( #729 ), #892, .T. ) ;
#384 = EDGE_LOOP ( 'NONE', ( #669, #133, #948, #13 ) ) ;
#385 = LINE ( 'NONE', #1009, #700 ) ;
#386 = CYLINDRICAL_SURFACE ( 'NONE', #957, 4.949999999999999289 ) ;
#387 = DIRECTION ( 'NONE',  ( 0.000000000000000000, 0.000000000000000000, 1.000000000000000000 ) ) ;
#388 = EDGE_LOOP ( 'NONE', ( #876, #748 ) ) ;
#389 = ADVANCED_FACE ( 'NONE', ( #265 ), #736, .F. ) ;
#390 = DIRECTION ( 'NONE',  ( -0.000000000000000000, -0.000000000000000000, 1.000000000000000000 ) ) ;
#391 = CIRCLE ( 'NONE', #910, 2.750000000016000978 ) ;
#392 = DIRECTION ( 'NONE',  ( 0.8903195977638005409, 0.4553361547666783249, 4.170304585768345398E-16 ) ) ;
#393 = CARTESIAN_POINT ( 'NONE',  ( 4.556266011568931518, -1.934667938386779973, 5.500000000000000000 ) ) ;
#394 = VERTEX_POINT ( 'NONE', #1090 ) ;
#395 = EDGE_CURVE ( 'NONE', #678, #75, #106, .T. ) ;
#396 = CARTESIAN_POINT ( 'NONE',  ( 16.53318139028250755, 55.62963610450697161, -14.30000000000005400 ) ) ;
#397 = CYLINDRICAL_SURFACE ( 'NONE', #269, 2.750000000016002755 ) ;
#398 = MECHANICAL_DESIGN_GEOMETRIC_PRESENTATION_REPRESENTATION (  '', ( #887 ), #343 ) ;
#399 = DIRECTION ( 'NONE',  ( -0.000000000000000000, -0.000000000000000000, 1.000000000000000000 ) ) ;
#400 = ORIENTED_EDGE ( 'NONE', *, *, #526, .T. ) ;
#401 = EDGE_CURVE ( 'NONE', #409, #997, #835, .T. ) ;
#402 = ADVANCED_FACE ( 'NONE', ( #818 ), #639, .F. ) ;
#403 = FACE_OUTER_BOUND ( 'NONE', #704, .T. ) ;
#404 = EDGE_CURVE ( 'NONE', #363, #185, #98, .T. ) ;
#405 = PLANE ( 'NONE',  #620 ) ;
#406 = DIRECTION ( 'NONE',  ( 0.3908420077549049076, 0.9204577801149353977, 0.000000000000000000 ) ) ;
#407 = VECTOR ( 'NONE', #132, 1000.000000000000114 ) ;
#408 = UNCERTAINTY_MEASURE_WITH_UNIT (LENGTH_MEASURE( 1.000000000000000082E-05 ), #1136, 'distance_accuracy_value', 'NONE');
#409 = VERTEX_POINT ( 'NONE', #372 ) ;
#410 = DIRECTION ( 'NONE',  ( 0.8903195977638013181, 0.4553361547666767151, 3.899472811601406100E-16 ) ) ;
#411 = DIRECTION ( 'NONE',  ( -0.8903195977633154845, -0.4553361547676266219, 0.000000000000000000 ) ) ;
#412 = PLANE ( 'NONE',  #1023 ) ;
#413 = ORIENTED_EDGE ( 'NONE', *, *, #513, .F. ) ;
#414 = CARTESIAN_POINT ( 'NONE',  ( 23.31870773179783285, 42.25207533043732155, 10.50000000000000000 ) ) ;
#415 = DIRECTION ( 'NONE',  ( 0.000000000000000000, 0.000000000000000000, 1.000000000000000000 ) ) ;
#416 = VECTOR ( 'NONE', #877, 1000.000000000000227 ) ;
#417 = DIRECTION ( 'NONE',  ( -0.4553361547666759934, 0.8903195977638017622, 3.714397489708602105E-15 ) ) ;
#418 = AXIS2_PLACEMENT_3D ( 'NONE', #149, #417, #1145 ) ;
#419 = ORIENTED_EDGE ( 'NONE', *, *, #188, .T. ) ;
#420 = LINE ( 'NONE', #1164, #435 ) ;
#421 = CARTESIAN_POINT ( 'NONE',  ( 23.31870773179783285, 42.25207533043732155, -59.51955680601141552 ) ) ;
#422 = CARTESIAN_POINT ( 'NONE',  ( 4.556266011568932406, -1.934667938386779085, 10.50000000000000000 ) ) ;
#423 = ORIENTED_EDGE ( 'NONE', *, *, #526, .F. ) ;
#424 = ORIENTED_EDGE ( 'NONE', *, *, #404, .T. ) ;
#425 = ADVANCED_FACE ( 'NONE', ( #630 ), #69, .F. ) ;
#426 = FACE_BOUND ( 'NONE', #1042, .T. ) ;
#427 = ORIENTED_EDGE ( 'NONE', *, *, #70, .T. ) ;
#428 = ORIENTED_EDGE ( 'NONE', *, *, #699, .F. ) ;
#429 = DIRECTION ( 'NONE',  ( -1.000000000000000000, 0.000000000000000000, 0.000000000000000000 ) ) ;
#430 = PLANE ( 'NONE',  #749 ) ;
#431 = AXIS2_PLACEMENT_3D ( 'NONE', #49, #789, #429 ) ;
#432 = VERTEX_POINT ( 'NONE', #1084 ) ;
#433 = CIRCLE ( 'NONE', #305, 4.949999999999999289 ) ;
#434 = VECTOR ( 'NONE', #724, 1000.000000000000114 ) ;
#435 = VECTOR ( 'NONE', #809, 1000.000000000000114 ) ;
#436 = PRODUCT_DEFINITION ( 'UNKNOWN', '', #629, #126 ) ;
#437 = VERTEX_POINT ( 'NONE', #652 ) ;
#438 = EDGE_CURVE ( 'NONE', #960, #1099, #1078, .T. ) ;
#439 = DIRECTION ( 'NONE',  ( 0.2318068552378881042, -0.9727618320353245140, -3.033068673832237804E-15 ) ) ;
#440 = EDGE_CURVE ( 'NONE', #890, #264, #454, .T. ) ;
#441 = DIRECTION ( 'NONE',  ( -0.000000000000000000, -0.000000000000000000, 1.000000000000000000 ) ) ;
#442 = ORIENTED_EDGE ( 'NONE', *, *, #1096, .F. ) ;
#443 = CARTESIAN_POINT ( 'NONE',  ( 23.31870773179783285, 42.25207533043732155, 8.500000000000000000 ) ) ;
#444 = ORIENTED_EDGE ( 'NONE', *, *, #660, .F. ) ;
#445 = PLANE ( 'NONE',  #298 ) ;
#446 = ORIENTED_EDGE ( 'NONE', *, *, #658, .T. ) ;
#447 = CARTESIAN_POINT ( 'NONE',  ( -15.63987778694361097, 39.17536834550500657, -10.30000000000016236 ) ) ;
#448 = ORIENTED_EDGE ( 'NONE', *, *, #677, .T. ) ;
#449 = VECTOR ( 'NONE', #284, 1000.000000000000227 ) ;
#450 = CARTESIAN_POINT ( 'NONE',  ( 18.95010937137660534, 43.97165639067142706, -10.30000000000016236 ) ) ;
#451 = ORIENTED_EDGE ( 'NONE', *, *, #296, .T. ) ;
#452 = AXIS2_PLACEMENT_3D ( 'NONE', #689, #774, #507 ) ;
#453 = CARTESIAN_POINT ( 'NONE',  ( 0.000000000000000000, 0.000000000000000000, 5.500000000000000000 ) ) ;
#454 = LINE ( 'NONE', #279, #764 ) ;
#455 = LINE ( 'NONE', #648, #644 ) ;
#456 =( NAMED_UNIT ( * ) PLANE_ANGLE_UNIT ( ) SI_UNIT ( $, .RADIAN. ) );
#457 = ORIENTED_EDGE ( 'NONE', *, *, #604, .F. ) ;
#458 = DIRECTION ( 'NONE',  ( 0.000000000000000000, -1.000000000000000000, -2.973811673088296761E-15 ) ) ;
#459 = ORIENTED_EDGE ( 'NONE', *, *, #35, .T. ) ;
#460 = DIRECTION ( 'NONE',  ( 0.000000000000000000, 0.000000000000000000, 1.000000000000000000 ) ) ;
#461 = FACE_OUTER_BOUND ( 'NONE', #913, .T. ) ;
#462 =( LENGTH_UNIT ( ) NAMED_UNIT ( * ) SI_UNIT ( .MILLI., .METRE. ) );
#463 = EDGE_LOOP ( 'NONE', ( #1068, #978, #53, #726, #897, #459 ) ) ;
#464 = AXIS2_PLACEMENT_3D ( 'NONE', #223, #683, #380 ) ;
#465 = CARTESIAN_POINT ( 'NONE',  ( 15.70010937136789586, 43.97165639067142706, 10.50000000000000000 ) ) ;
#466 = AXIS2_PLACEMENT_3D ( 'NONE', #202, #304, #207 ) ;
#467 = CARTESIAN_POINT ( 'NONE',  ( -4.128967735985727749, 56.29431479875216837, -19.24974746828712568 ) ) ;
#468 = ORIENTED_EDGE ( 'NONE', *, *, #638, .T. ) ;
#469 = LINE ( 'NONE', #1087, #128 ) ;
#470 = EDGE_LOOP ( 'NONE', ( #370, #829, #608, #576 ) ) ;
#471 = CARTESIAN_POINT ( 'NONE',  ( 10.94322070605716846, 75.23460587108128550, -25.35000000000004761 ) ) ;
#472 = DIRECTION ( 'NONE',  ( 0.000000000000000000, -1.000000000000000000, -2.973811673100436147E-15 ) ) ;
#473 = CYLINDRICAL_SURFACE ( 'NONE', #623, 3.250000000008711254 ) ;
#474 = CARTESIAN_POINT ( 'NONE',  ( -5.878967735979074405, 56.29431479875216837, -19.24974746828712568 ) ) ;
#475 = ORIENTED_EDGE ( 'NONE', *, *, #1064, .T. ) ;
#476 = CIRCLE ( 'NONE', #927, 2.750000000016002755 ) ;
#477 = CARTESIAN_POINT ( 'NONE',  ( 15.70010937136789586, 43.97165639067142706, -19.24974746833063577 ) ) ;
#478 = CIRCLE ( 'NONE', #418, 2.750000000016002755 ) ;
#479 = DIRECTION ( 'NONE',  ( 0.000000000000000000, 0.000000000000000000, 1.000000000000000000 ) ) ;
#480 = CARTESIAN_POINT ( 'NONE',  ( 0.000000000000000000, 0.000000000000000000, 10.50000000000000000 ) ) ;
#481 = LINE ( 'NONE', #649, #230 ) ;
#482 = ORIENTED_EDGE ( 'NONE', *, *, #1031, .T. ) ;
#483 = PLANE ( 'NONE',  #20 ) ;
#484 = FACE_OUTER_BOUND ( 'NONE', #146, .T. ) ;
#485 = AXIS2_PLACEMENT_3D ( 'NONE', #176, #369, #1169 ) ;
#486 = FACE_OUTER_BOUND ( 'NONE', #463, .T. ) ;
#487 = ADVANCED_FACE ( 'NONE', ( #538 ), #1004, .T. ) ;
#488 = VERTEX_POINT ( 'NONE', #807 ) ;
#489 = DIRECTION ( 'NONE',  ( -0.9204577801149353977, 0.3908420077549049076, 0.000000000000000000 ) ) ;
#490 = DIRECTION ( 'NONE',  ( -0.000000000000000000, -0.000000000000000000, 1.000000000000000000 ) ) ;
#491 = VECTOR ( 'NONE', #616, 1000.000000000000114 ) ;
#492 = ADVANCED_FACE ( 'NONE', ( #90 ), #168, .F. ) ;
#493 = CARTESIAN_POINT ( 'NONE',  ( -5.078389705630686812, 32.44990603475675783, -10.30000000000016236 ) ) ;
#494 = VERTEX_POINT ( 'NONE', #743 ) ;
#495 = ADVANCED_FACE ( 'NONE', ( #1102, #356 ), #288, .F. ) ;
#496 = FACE_OUTER_BOUND ( 'NONE', #710, .T. ) ;
#497 = DIRECTION ( 'NONE',  ( -0.8903195977638009850, -0.4553361547666771036, 0.000000000000000000 ) ) ;
#498 = VECTOR ( 'NONE', #3, 1000.000000000000000 ) ;
#499 = DIRECTION ( 'NONE',  ( 0.000000000000000000, 0.000000000000000000, 1.000000000000000000 ) ) ;
#500 = ORIENTED_EDGE ( 'NONE', *, *, #206, .T. ) ;
#501 = DIRECTION ( 'NONE',  ( 1.000000000000000000, 0.000000000000000000, 0.000000000000000000 ) ) ;
#502 = PLANE ( 'NONE',  #452 ) ;
#503 = DIRECTION ( 'NONE',  ( 0.4553361547666768261, -0.8903195977638012071, -0.000000000000000000 ) ) ;
#504 = EDGE_LOOP ( 'NONE', ( #173, #655 ) ) ;
#505 = DIRECTION ( 'NONE',  ( 0.000000000000000000, 0.000000000000000000, 1.000000000000000000 ) ) ;
#506 = VECTOR ( 'NONE', #914, 1000.000000000000227 ) ;
#507 = DIRECTION ( 'NONE',  ( -0.4553361547666768261, 0.8903195977638012071, 0.000000000000000000 ) ) ;
#508 = CARTESIAN_POINT ( 'NONE',  ( 8.494841812192465369, 73.98243144546563599, -25.35000000000004761 ) ) ;
#509 = ORIENTED_EDGE ( 'NONE', *, *, #440, .F. ) ;
#510 = CARTESIAN_POINT ( 'NONE',  ( 15.04124609895725229, 67.22172949120707131, -25.35000000000007958 ) ) ;
#511 = DIRECTION ( 'NONE',  ( 0.3908420077549049076, 0.9204577801149353977, 0.000000000000000000 ) ) ;
#512 = AXIS2_PLACEMENT_3D ( 'NONE', #659, #174, #551 ) ;
#513 = EDGE_CURVE ( 'NONE', #432, #942, #316, .T. ) ;
#514 = ORIENTED_EDGE ( 'NONE', *, *, #1154, .T. ) ;
#515 = ORIENTED_EDGE ( 'NONE', *, *, #54, .T. ) ;
#516 = DIRECTION ( 'NONE',  ( -0.4553361547666759934, 0.8903195977638017622, 3.714397489708602105E-15 ) ) ;
#517 = CARTESIAN_POINT ( 'NONE',  ( 15.04124609895725229, 67.22172949120707131, -25.35000000000007958 ) ) ;
#518 = AXIS2_PLACEMENT_3D ( 'NONE', #760, #838, #925 ) ;
#519 = ADVANCED_FACE ( 'NONE', ( #131 ), #405, .T. ) ;
#520 = VERTEX_POINT ( 'NONE', #219 ) ;
#521 = ORIENTED_EDGE ( 'NONE', *, *, #735, .F. ) ;
#522 = CARTESIAN_POINT ( 'NONE',  ( 15.04124609895725229, 67.22172949120707131, -25.35000000000007958 ) ) ;
#523 = CARTESIAN_POINT ( 'NONE',  ( 15.43933467482319521, 77.53405345268308224, -10.30000000000016236 ) ) ;
#524 = ADVANCED_FACE ( 'NONE', ( #19 ), #944, .F. ) ;
#525 = ORIENTED_EDGE ( 'NONE', *, *, #254, .T. ) ;
#526 = EDGE_CURVE ( 'NONE', #930, #1008, #642, .T. ) ;
#527 = ORIENTED_EDGE ( 'NONE', *, *, #744, .F. ) ;
#528 = EDGE_CURVE ( 'NONE', #632, #73, #589, .T. ) ;
#529 = CARTESIAN_POINT ( 'NONE',  ( 24.54605777015673240, 59.72766149740706965, -14.30000000000007176 ) ) ;
#530 = FACE_OUTER_BOUND ( 'NONE', #536, .T. ) ;
#531 = VECTOR ( 'NONE', #1173, 1000.000000000000000 ) ;
#532 = ORIENTED_EDGE ( 'NONE', *, *, #970, .T. ) ;
#533 =( NAMED_UNIT ( * ) SI_UNIT ( $, .STERADIAN. ) SOLID_ANGLE_UNIT ( ) );
#534 = AXIS2_PLACEMENT_3D ( 'NONE', #220, #583, #954 ) ;
#535 = VECTOR ( 'NONE', #902, 1000.000000000000000 ) ;
#536 = EDGE_LOOP ( 'NONE', ( #249, #276 ) ) ;
#537 = CYLINDRICAL_SURFACE ( 'NONE', #845, 3.250000000001566303 ) ;
#538 = FACE_OUTER_BOUND ( 'NONE', #48, .T. ) ;
#539 = EDGE_LOOP ( 'NONE', ( #355, #195, #330, #509 ) ) ;
#540 = DIRECTION ( 'NONE',  ( -0.000000000000000000, -0.000000000000000000, -1.000000000000000000 ) ) ;
#541 = VERTEX_POINT ( 'NONE', #110 ) ;
#542 = DIRECTION ( 'NONE',  ( -0.8903195977638009850, -0.4553361547666771036, 0.000000000000000000 ) ) ;
#543 = ORIENTED_EDGE ( 'NONE', *, *, #359, .F. ) ;
#544 = DIRECTION ( 'NONE',  ( -0.4553361547666770481, 0.8903195977638012071, 2.985692640522282051E-15 ) ) ;
#545 = ADVANCED_FACE ( 'NONE', ( #484 ), #212, .T. ) ;
#546 = FACE_OUTER_BOUND ( 'NONE', #1028, .T. ) ;
#547 = VECTOR ( 'NONE', #6, 1000.000000000000000 ) ;
#548 = EDGE_LOOP ( 'NONE', ( #713, #281, #252, #178 ) ) ;
#549 = CARTESIAN_POINT ( 'NONE',  ( 16.48866541039432931, 55.60686929676864310, -14.30000000000007176 ) ) ;
#550 = EDGE_LOOP ( 'NONE', ( #566, #514, #515, #908 ) ) ;
#551 = DIRECTION ( 'NONE',  ( -0.8903195977638009850, -0.4553361547666771036, 0.000000000000000000 ) ) ;
#552 = ORIENTED_EDGE ( 'NONE', *, *, #167, .T. ) ;
#553 = CARTESIAN_POINT ( 'NONE',  ( 15.70010937136789586, 43.97165639067142706, -10.30000000000016236 ) ) ;
#554 = EDGE_CURVE ( 'NONE', #997, #153, #303, .T. ) ;
#555 = ORIENTED_EDGE ( 'NONE', *, *, #359, .T. ) ;
#556 = VECTOR ( 'NONE', #698, 1000.000000000000000 ) ;
#557 = LINE ( 'NONE', #255, #377 ) ;
#558 = DIRECTION ( 'NONE',  ( -0.4553361547666759934, 0.8903195977638017622, 3.714397489708602894E-15 ) ) ;
#559 = DIRECTION ( 'NONE',  ( -0.000000000000000000, -0.000000000000000000, 1.000000000000000000 ) ) ;
#560 = ORIENTED_EDGE ( 'NONE', *, *, #244, .F. ) ;
#561 = DIRECTION ( 'NONE',  ( -0.4553361547666759934, 0.8903195977638017622, 3.714397489708602105E-15 ) ) ;
#562 = CARTESIAN_POINT ( 'NONE',  ( -6.828389705632252671, 32.44990603475675783, -19.24974746833063577 ) ) ;
#563 = DIRECTION ( 'NONE',  ( -0.000000000000000000, -0.000000000000000000, -1.000000000000000000 ) ) ;
#564 = SURFACE_STYLE_FILL_AREA ( #662 ) ;
#565 = EDGE_CURVE ( 'NONE', #733, #1151, #578, .T. ) ;
#566 = ORIENTED_EDGE ( 'NONE', *, *, #350, .T. ) ;
#567 = LINE ( 'NONE', #943, #1156 ) ;
#568 = CYLINDRICAL_SURFACE ( 'NONE', #247, 3.250000000008711254 ) ;
#569 = SURFACE_STYLE_USAGE ( .BOTH. , #1109 ) ;
#570 = AXIS2_PLACEMENT_3D ( 'NONE', #113, #387, #209 ) ;
#571 = ORIENTED_EDGE ( 'NONE', *, *, #116, .F. ) ;
#572 = CYLINDRICAL_SURFACE ( 'NONE', #287, 1.750000000008709922 ) ;
#573 = AXIS2_PLACEMENT_3D ( 'NONE', #517, #701, #232 ) ;
#574 = ADVANCED_FACE ( 'NONE', ( #123 ), #397, .F. ) ;
#575 = DIRECTION ( 'NONE',  ( 1.000000000000000000, 0.000000000000000000, -0.000000000000000000 ) ) ;
#576 = ORIENTED_EDGE ( 'NONE', *, *, #857, .F. ) ;
#577 = LINE ( 'NONE', #768, #1113 ) ;
#578 = CIRCLE ( 'NONE', #309, 1.749999999993347100 ) ;
#579 = FACE_BOUND ( 'NONE', #1067, .T. ) ;
#580 = ORIENTED_EDGE ( 'NONE', *, *, #982, .F. ) ;
#581 = EDGE_CURVE ( 'NONE', #627, #1093, #47, .T. ) ;
#582 = CARTESIAN_POINT ( 'NONE',  ( 18.76534618409774069, 51.15527130811705803, 10.50000000000000000 ) ) ;
#583 = DIRECTION ( 'NONE',  ( 0.000000000000000000, 0.000000000000000000, 1.000000000000000000 ) ) ;
#584 = SHAPE_DEFINITION_REPRESENTATION ( #1066, #375 ) ;
#585 = UNCERTAINTY_MEASURE_WITH_UNIT (LENGTH_MEASURE( 1.000000000000000082E-05 ), #685, 'distance_accuracy_value', 'NONE');
#586 = ORIENTED_EDGE ( 'NONE', *, *, #1050, .F. ) ;
#587 = VECTOR ( 'NONE', #172, 1000.000000000000000 ) ;
#588 = PLANE ( 'NONE',  #1105 ) ;
#589 = LINE ( 'NONE', #1033, #936 ) ;
#590 = AXIS2_PLACEMENT_3D ( 'NONE', #907, #460, #76 ) ;
#591 = AXIS2_PLACEMENT_3D ( 'NONE', #267, #78, #828 ) ;
#592 = AXIS2_PLACEMENT_3D ( 'NONE', #783, #332, #596 ) ;
#593 = CARTESIAN_POINT ( 'NONE',  ( -4.949999999999999289, 0.000000000000000000, 0.000000000000000000 ) ) ;
#594 = VECTOR ( 'NONE', #1046, 1000.000000000000000 ) ;
#595 = ORIENTED_EDGE ( 'NONE', *, *, #706, .F. ) ;
#596 = DIRECTION ( 'NONE',  ( -0.4553361547676267884, 0.8903195977633153735, 0.000000000000000000 ) ) ;
#597 = EDGE_CURVE ( 'NONE', #432, #1099, #321, .T. ) ;
#598 = DIRECTION ( 'NONE',  ( -0.8903195977638009850, -0.4553361547666771036, 0.000000000000000000 ) ) ;
#599 = AXIS2_PLACEMENT_3D ( 'NONE', #198, #563, #921 ) ;
#600 = DIRECTION ( 'NONE',  ( 1.914247704897083543E-15, -4.599326246951599694E-15, 1.000000000000000000 ) ) ;
#601 = ORIENTED_EDGE ( 'NONE', *, *, #302, .T. ) ;
#602 = CARTESIAN_POINT ( 'NONE',  ( 16.53318139028245071, 55.62963610450711371, -45.37500000000018474 ) ) ;
#603 = VECTOR ( 'NONE', #97, 1000.000000000000114 ) ;
#604 = EDGE_CURVE ( 'NONE', #300, #432, #142, .T. ) ;
#605 = LINE ( 'NONE', #144, #613 ) ;
#606 = CIRCLE ( 'NONE', #191, 2.750000000016002755 ) ;
#607 = ORIENTED_EDGE ( 'NONE', *, *, #45, .T. ) ;
#608 = ORIENTED_EDGE ( 'NONE', *, *, #703, .T. ) ;
#609 = LINE ( 'NONE', #1131, #656 ) ;
#610 = DIRECTION ( 'NONE',  ( -1.000000000000000000, 0.000000000000000000, 0.000000000000000000 ) ) ;
#611 = ADVANCED_FACE ( 'NONE', ( #705 ), #502, .F. ) ;
#612 = CARTESIAN_POINT ( 'NONE',  ( -4.815171068574857216, -1.147443933427545470, 10.50000000000000000 ) ) ;
#613 = VECTOR ( 'NONE', #870, 1000.000000000000114 ) ;
#614 = VERTEX_POINT ( 'NONE', #974 ) ;
#615 = EDGE_LOOP ( 'NONE', ( #1165, #27, #419, #239 ) ) ;
#616 = DIRECTION ( 'NONE',  ( 0.4553361547666770481, -0.8903195977638012071, 8.673617379884039170E-17 ) ) ;
#617 = EDGE_CURVE ( 'NONE', #40, #890, #606, .T. ) ;
#618 = EDGE_CURVE ( 'NONE', #614, #360, #860, .T. ) ;
#619 = CARTESIAN_POINT ( 'NONE',  ( 17.45010937137660534, 43.97165639067142706, -19.24974746833063577 ) ) ;
#620 = AXIS2_PLACEMENT_3D ( 'NONE', #205, #939, #9 ) ;
#621 = EDGE_CURVE ( 'NONE', #338, #1163, #1072, .T. ) ;
#622 = ORIENTED_EDGE ( 'NONE', *, *, #277, .F. ) ;
#623 = AXIS2_PLACEMENT_3D ( 'NONE', #1091, #85, #640 ) ;
#624 = ORIENTED_EDGE ( 'NONE', *, *, #1070, .T. ) ;
#625 = DIRECTION ( 'NONE',  ( -0.000000000000000000, -0.000000000000000000, 1.000000000000000000 ) ) ;
#626 = ORIENTED_EDGE ( 'NONE', *, *, #802, .T. ) ;
#627 = VERTEX_POINT ( 'NONE', #345 ) ;
#628 = LINE ( 'NONE', #278, #506 ) ;
#629 = PRODUCT_DEFINITION_FORMATION_WITH_SPECIFIED_SOURCE ( 'ANY', '', #55, .NOT_KNOWN. ) ;
#630 = FACE_OUTER_BOUND ( 'NONE', #36, .T. ) ;
#631 = VECTOR ( 'NONE', #155, 1000.000000000000000 ) ;
#632 = VERTEX_POINT ( 'NONE', #43 ) ;
#633 = DIRECTION ( 'NONE',  ( -0.4553361547676270660, 0.8903195977633152625, 0.000000000000000000 ) ) ;
#634 = VECTOR ( 'NONE', #884, 1000.000000000000114 ) ;
#635 = ORIENTED_EDGE ( 'NONE', *, *, #906, .F. ) ;
#636 = CARTESIAN_POINT ( 'NONE',  ( 12.45010937135918461, 43.97165639067142706, -10.30000000000016236 ) ) ;
#637 = ORIENTED_EDGE ( 'NONE', *, *, #727, .F. ) ;
#638 = EDGE_CURVE ( 'NONE', #363, #365, #778, .T. ) ;
#639 = CYLINDRICAL_SURFACE ( 'NONE', #84, 1.750000000001566303 ) ;
#640 = DIRECTION ( 'NONE',  ( 1.000000000000000000, 0.000000000000000000, 0.000000000000000000 ) ) ;
#641 = DIRECTION ( 'NONE',  ( -0.000000000000000000, -0.000000000000000000, 1.000000000000000000 ) ) ;
#642 = CIRCLE ( 'NONE', #1181, 4.949999999999999289 ) ;
#643 = EDGE_LOOP ( 'NONE', ( #586, #500, #217, #482 ) ) ;
#644 = VECTOR ( 'NONE', #1005, 1000.000000000000000 ) ;
#645 = CYLINDRICAL_SURFACE ( 'NONE', #353, 1.750000000001566303 ) ;
#646 = CARTESIAN_POINT ( 'NONE',  ( 12.45010937135918461, 43.97165639067142706, 10.50000000000000000 ) ) ;
#647 = EDGE_CURVE ( 'NONE', #40, #888, #864, .T. ) ;
#648 = CARTESIAN_POINT ( 'NONE',  ( -10.07838970563381942, 32.44990603475675783, -19.49238815544992320 ) ) ;
#649 = CARTESIAN_POINT ( 'NONE',  ( 7.426458294948920624, 73.43602805978314052, -45.37500000000017764 ) ) ;
#650 = VERTEX_POINT ( 'NONE', #1144 ) ;
#651 = DIRECTION ( 'NONE',  ( -0.8903195977638009850, -0.4553361547666773812, 0.000000000000000000 ) ) ;
#652 = CARTESIAN_POINT ( 'NONE',  ( -3.578389705630686812, 32.44990603475675783, 10.50000000000000000 ) ) ;
#653 = DIRECTION ( 'NONE',  ( 1.000000000000000000, 0.000000000000000000, 0.000000000000000000 ) ) ;
#654 = DIRECTION ( 'NONE',  ( 0.2318068552378879377, -0.9727618320353246251, 0.000000000000000000 ) ) ;
#655 = ORIENTED_EDGE ( 'NONE', *, *, #182, .F. ) ;
#656 = VECTOR ( 'NONE', #320, 1000.000000000000000 ) ;
#657 = DIRECTION ( 'NONE',  ( -8.622537070539964660E-16, 2.912524176298023170E-15, -1.000000000000000000 ) ) ;
#658 = EDGE_CURVE ( 'NONE', #344, #246, #32, .T. ) ;
#659 = CARTESIAN_POINT ( 'NONE',  ( 10.94322070605716846, 75.23460587108132813, -35.35000000000005116 ) ) ;
#660 = EDGE_CURVE ( 'NONE', #890, #40, #476, .T. ) ;
#661 = DIRECTION ( 'NONE',  ( 1.000000000000000000, 0.000000000000000000, 0.000000000000000000 ) ) ;
#662 = FILL_AREA_STYLE ('',( #917 ) ) ;
#663 = EDGE_CURVE ( 'NONE', #827, #1013, #687, .T. ) ;
#664 = VERTEX_POINT ( 'NONE', #794 ) ;
#665 = DIRECTION ( 'NONE',  ( -0.4553361547663354325, 0.8903195977639759562, 0.000000000000000000 ) ) ;
#666 = CARTESIAN_POINT ( 'NONE',  ( -41.27873685246975555, 89.30707533015868194, -14.30000000000016414 ) ) ;
#667 = CARTESIAN_POINT ( 'NONE',  ( -8.578389705633819418, 32.44990603475675783, -19.24974746833063577 ) ) ;
#668 = CIRCLE ( 'NONE', #139, 1.750000000008709922 ) ;
#669 = ORIENTED_EDGE ( 'NONE', *, *, #740, .F. ) ;
#670 = CARTESIAN_POINT ( 'NONE',  ( 12.59286720509254920, 65.96955506559142179, -25.35000000000007958 ) ) ;
#671 = CARTESIAN_POINT ( 'NONE',  ( 0.000000000000000000, 0.000000000000000000, 5.500000000000000000 ) ) ;
#672 =( NAMED_UNIT ( * ) SI_UNIT ( $, .STERADIAN. ) SOLID_ANGLE_UNIT ( ) );
#673 = ORIENTED_EDGE ( 'NONE', *, *, #740, .T. ) ;
#674 = LINE ( 'NONE', #122, #63 ) ;
#675 = VECTOR ( 'NONE', #503, 1000.000000000000114 ) ;
#676 = FACE_OUTER_BOUND ( 'NONE', #615, .T. ) ;
#677 = EDGE_CURVE ( 'NONE', #702, #360, #958, .T. ) ;
#678 = VERTEX_POINT ( 'NONE', #136 ) ;
#679 = FACE_OUTER_BOUND ( 'NONE', #140, .T. ) ;
#680 = CARTESIAN_POINT ( 'NONE',  ( 16.48866541039432931, 55.60686929676864310, -14.30000000000007176 ) ) ;
#681 = ORIENTED_EDGE ( 'NONE', *, *, #438, .F. ) ;
#682 = CARTESIAN_POINT ( 'NONE',  ( -4.949999999999999289, 0.000000000000000000, 5.500000000000000000 ) ) ;
#683 = DIRECTION ( 'NONE',  ( 0.000000000000000000, 0.000000000000000000, -1.000000000000000000 ) ) ;
#684 = CARTESIAN_POINT ( 'NONE',  ( -4.128967735985727749, 56.29431479875216837, -10.30000000000016236 ) ) ;
#685 =( LENGTH_UNIT ( ) NAMED_UNIT ( * ) SI_UNIT ( .MILLI., .METRE. ) );
#686 = EDGE_LOOP ( 'NONE', ( #560, #811 ) ) ;
#687 = CIRCLE ( 'NONE', #431, 3.250000000008711254 ) ;
#688 = DIRECTION ( 'NONE',  ( 1.000000000000000000, 0.000000000000000000, 0.000000000000000000 ) ) ;
#689 = CARTESIAN_POINT ( 'NONE',  ( -41.27873685246975555, 89.30707533015868194, -14.30000000000016414 ) ) ;
#690 = CIRCLE ( 'NONE', #512, 2.750000000016002755 ) ;
#691 =( GEOMETRIC_REPRESENTATION_CONTEXT ( 3 ) GLOBAL_UNCERTAINTY_ASSIGNED_CONTEXT ( ( #1037 ) ) GLOBAL_UNIT_ASSIGNED_CONTEXT ( ( #462, #456, #731 ) ) REPRESENTATION_CONTEXT ( 'NONE', 'WORKASPACE' ) );
#692 = LINE ( 'NONE', #1065, #634 ) ;
#693 = ORIENTED_EDGE ( 'NONE', *, *, #773, .T. ) ;
#694 = DIRECTION ( 'NONE',  ( 1.000000000000000000, 0.000000000000000000, 0.000000000000000000 ) ) ;
#695 = DIRECTION ( 'NONE',  ( -8.622537070539964660E-16, 2.912524176298023170E-15, -1.000000000000000000 ) ) ;
#696 = EDGE_LOOP ( 'NONE', ( #697, #723, #532, #555 ) ) ;
#697 = ORIENTED_EDGE ( 'NONE', *, *, #1074, .F. ) ;
#698 = DIRECTION ( 'NONE',  ( -0.000000000000000000, -0.000000000000000000, 1.000000000000000000 ) ) ;
#699 = EDGE_CURVE ( 'NONE', #158, #348, #1041, .T. ) ;
#700 = VECTOR ( 'NONE', #830, 1000.000000000000227 ) ;
#701 = DIRECTION ( 'NONE',  ( -0.4553361547666759934, 0.8903195977638017622, 3.714397489708602894E-15 ) ) ;
#702 = VERTEX_POINT ( 'NONE', #1051 ) ;
#703 = EDGE_CURVE ( 'NONE', #373, #804, #1133, .T. ) ;
#704 = EDGE_LOOP ( 'NONE', ( #283, #525, #164, #895, #446 ) ) ;
#705 = FACE_OUTER_BOUND ( 'NONE', #180, .T. ) ;
#706 = EDGE_CURVE ( 'NONE', #1183, #306, #270, .T. ) ;
#707 = CARTESIAN_POINT ( 'NONE',  ( -41.27873685246975555, 89.30707533015868194, -10.30000000000016236 ) ) ;
#708 = VECTOR ( 'NONE', #633, 1000.000000000000114 ) ;
#709 = ORIENTED_EDGE ( 'NONE', *, *, #1031, .F. ) ;
#710 = EDGE_LOOP ( 'NONE', ( #468, #1178, #1061, #1130 ) ) ;
#711 = CARTESIAN_POINT ( 'NONE',  ( -13.36319701317435182, 34.72377035667945222, -5.300000000023584512 ) ) ;
#712 = PLANE ( 'NONE',  #951 ) ;
#713 = ORIENTED_EDGE ( 'NONE', *, *, #513, .T. ) ;
#714 = ORIENTED_EDGE ( 'NONE', *, *, #597, .F. ) ;
#715 = CARTESIAN_POINT ( 'NONE',  ( -6.828389705632252671, 32.44990603475675783, -10.30000000000016236 ) ) ;
#716 = DIRECTION ( 'NONE',  ( 0.8903195977633155955, 0.4553361547676266219, 0.000000000000000000 ) ) ;
#717 = VERTEX_POINT ( 'NONE', #179 ) ;
#718 = SURFACE_STYLE_USAGE ( .BOTH. , #962 ) ;
#719 = ORIENTED_EDGE ( 'NONE', *, *, #271, .F. ) ;
#720 = EDGE_CURVE ( 'NONE', #1099, #185, #805, .T. ) ;
#721 = CARTESIAN_POINT ( 'NONE',  ( -24.74660088226395160, 56.98176030062334263, -14.30000000000016414 ) ) ;
#722 = DIRECTION ( 'NONE',  ( 0.2318068552378879099, -0.9727618320353246251, 0.000000000000000000 ) ) ;
#723 = ORIENTED_EDGE ( 'NONE', *, *, #621, .F. ) ;
#724 = DIRECTION ( 'NONE',  ( -0.4553361547666767151, 0.8903195977638013181, 6.066433020397333163E-16 ) ) ;
#725 = VECTOR ( 'NONE', #329, 1000.000000000000000 ) ;
#726 = ORIENTED_EDGE ( 'NONE', *, *, #727, .T. ) ;
#727 = EDGE_CURVE ( 'NONE', #73, #1183, #891, .T. ) ;
#728 = CARTESIAN_POINT ( 'NONE',  ( -6.828389705632252671, 32.44990603475675783, -19.49238815544992320 ) ) ;
#729 = FACE_OUTER_BOUND ( 'NONE', #1147, .T. ) ;
#730 = ORIENTED_EDGE ( 'NONE', *, *, #735, .T. ) ;
#731 =( NAMED_UNIT ( * ) SI_UNIT ( $, .STERADIAN. ) SOLID_ANGLE_UNIT ( ) );
#732 = AXIS2_PLACEMENT_3D ( 'NONE', #189, #558, #915 ) ;
#733 = VERTEX_POINT ( 'NONE', #74 ) ;
#734 = CARTESIAN_POINT ( 'NONE',  ( -24.74660088226396581, 56.98176030062333552, -14.30000000000018545 ) ) ;
#735 = EDGE_CURVE ( 'NONE', #1008, #158, #1094, .T. ) ;
#736 = PLANE ( 'NONE',  #361 ) ;
#737 = EDGE_LOOP ( 'NONE', ( #442, #771, #758, #1048 ) ) ;
#738 = DIRECTION ( 'NONE',  ( -0.000000000000000000, -0.000000000000000000, 1.000000000000000000 ) ) ;
#739 = ORIENTED_EDGE ( 'NONE', *, *, #1152, .F. ) ;
#740 = EDGE_CURVE ( 'NONE', #1163, #338, #8, .T. ) ;
#741 = DIRECTION ( 'NONE',  ( 1.000000000000000000, 0.000000000000000000, 0.000000000000000000 ) ) ;
#742 = EDGE_CURVE ( 'NONE', #614, #17, #61, .T. ) ;
#743 = CARTESIAN_POINT ( 'NONE',  ( 17.45010937137660534, 43.97165639067142706, -14.30000000000016414 ) ) ;
#744 = EDGE_CURVE ( 'NONE', #246, #930, #224, .T. ) ;
#745 = VECTOR ( 'NONE', #439, 1000.000000000000000 ) ;
#746 = ORIENTED_EDGE ( 'NONE', *, *, #167, .F. ) ;
#747 = DIRECTION ( 'NONE',  ( -1.000000000000000000, 0.000000000000000000, 0.000000000000000000 ) ) ;
#748 = ORIENTED_EDGE ( 'NONE', *, *, #847, .F. ) ;
#749 = AXIS2_PLACEMENT_3D ( 'NONE', #801, #795, #346 ) ;
#750 = CIRCLE ( 'NONE', #886, 3.250000000008711254 ) ;
#751 = AXIS2_PLACEMENT_3D ( 'NONE', #18, #665, #201 ) ;
#752 = DIRECTION ( 'NONE',  ( -0.8903195977638009850, -0.4553361547666773812, 0.000000000000000000 ) ) ;
#753 = FACE_OUTER_BOUND ( 'NONE', #1076, .T. ) ;
#754 = ORIENTED_EDGE ( 'NONE', *, *, #947, .T. ) ;
#755 = CIRCLE ( 'NONE', #485, 4.949999999999999289 ) ;
#756 = DIRECTION ( 'NONE',  ( -0.8903195977638009850, -0.4553361547666771036, 0.000000000000000000 ) ) ;
#757 = FACE_BOUND ( 'NONE', #1053, .T. ) ;
#758 = ORIENTED_EDGE ( 'NONE', *, *, #315, .T. ) ;
#759 = CARTESIAN_POINT ( 'NONE',  ( -41.27873685246975555, 89.30707533015868194, -10.30000000000016236 ) ) ;
#760 = CARTESIAN_POINT ( 'NONE',  ( -4.128967735985727749, 56.29431479875216837, -19.24974746828712568 ) ) ;
#761 = LINE ( 'NONE', #310, #1176 ) ;
#762 = EDGE_LOOP ( 'NONE', ( #428, #243 ) ) ;
#763 = DIRECTION ( 'NONE',  ( 0.000000000000000000, 0.000000000000000000, 1.000000000000000000 ) ) ;
#764 = VECTOR ( 'NONE', #986, 1000.000000000000227 ) ;
#765 = EDGE_CURVE ( 'NONE', #1002, #942, #557, .T. ) ;
#766 = DIRECTION ( 'NONE',  ( 0.000000000000000000, 0.000000000000000000, 1.000000000000000000 ) ) ;
#767 = EDGE_LOOP ( 'NONE', ( #1110, #71, #88, #290, #1174, #981, #424 ) ) ;
#768 = CARTESIAN_POINT ( 'NONE',  ( 16.48866541027025079, 55.60686929691284064, -10.30000000000016414 ) ) ;
#769 = DIRECTION ( 'NONE',  ( 1.000000000000000000, 0.000000000000000000, 0.000000000000000000 ) ) ;
#770 = LINE ( 'NONE', #1021, #975 ) ;
#771 = ORIENTED_EDGE ( 'NONE', *, *, #565, .T. ) ;
#772 = LINE ( 'NONE', #414, #708 ) ;
#773 = EDGE_CURVE ( 'NONE', #1093, #627, #163, .T. ) ;
#774 = DIRECTION ( 'NONE',  ( 0.8903195977638013181, 0.4553361547666768816, -0.000000000000000000 ) ) ;
#775 = DIRECTION ( 'NONE',  ( 1.000000000000000000, 0.000000000000000000, 0.000000000000000000 ) ) ;
#776 = ORIENTED_EDGE ( 'NONE', *, *, #206, .F. ) ;
#777 = VECTOR ( 'NONE', #785, 1000.000000000000000 ) ;
#778 = LINE ( 'NONE', #421, #777 ) ;
#779 = AXIS2_PLACEMENT_3D ( 'NONE', #1095, #999, #1 ) ;
#780 = FACE_OUTER_BOUND ( 'NONE', #798, .T. ) ;
#781 = ADVANCED_FACE ( 'NONE', ( #186 ), #537, .F. ) ;
#782 = ORIENTED_EDGE ( 'NONE', *, *, #317, .F. ) ;
#783 = CARTESIAN_POINT ( 'NONE',  ( 18.76534618409774069, 51.15527130811705803, 8.500000000000000000 ) ) ;
#784 = VECTOR ( 'NONE', #490, 1000.000000000000000 ) ;
#785 = DIRECTION ( 'NONE',  ( -0.000000000000000000, -0.000000000000000000, 1.000000000000000000 ) ) ;
#786 = FACE_BOUND ( 'NONE', #1088, .T. ) ;
#787 = ORIENTED_EDGE ( 'NONE', *, *, #618, .F. ) ;
#788 = ORIENTED_EDGE ( 'NONE', *, *, #647, .F. ) ;
#789 = DIRECTION ( 'NONE',  ( -0.000000000000000000, -0.000000000000000000, 1.000000000000000000 ) ) ;
#790 = CARTESIAN_POINT ( 'NONE',  ( 4.949999999999999289, 6.062001655779397525E-16, 0.000000000000000000 ) ) ;
#791 = ADVANCED_FACE ( 'NONE', ( #883 ), #645, .F. ) ;
#792 = ORIENTED_EDGE ( 'NONE', *, *, #821, .F. ) ;
#793 = EDGE_LOOP ( 'NONE', ( #1140, #120, #714, #457, #258 ) ) ;
#794 = CARTESIAN_POINT ( 'NONE',  ( 8.494841812192465369, 73.98243144546567862, -35.35000000000005116 ) ) ;
#795 = DIRECTION ( 'NONE',  ( 8.622537070539965646E-16, -2.912524176298023170E-15, 1.000000000000000000 ) ) ;
#796 = CIRCLE ( 'NONE', #42, 1.750000000001566303 ) ;
#797 = PRESENTATION_LAYER_ASSIGNMENT (  '', '', ( #887 ) ) ;
#798 = EDGE_LOOP ( 'NONE', ( #635, #1120, #266, #30, #1038, #337, #637 ) ) ;
#799 = ORIENTED_EDGE ( 'NONE', *, *, #658, .F. ) ;
#800 = DIRECTION ( 'NONE',  ( 0.000000000000000000, 0.000000000000000000, 1.000000000000000000 ) ) ;
#801 = CARTESIAN_POINT ( 'NONE',  ( -1.012980948405822561E-12, -6.306073160531013496E-13, -14.30000000000027782 ) ) ;
#802 = EDGE_CURVE ( 'NONE', #846, #376, #628, .T. ) ;
#803 = ORIENTED_EDGE ( 'NONE', *, *, #554, .T. ) ;
#804 = VERTEX_POINT ( 'NONE', #1100 ) ;
#805 = LINE ( 'NONE', #549, #1101 ) ;
#806 = CIRCLE ( 'NONE', #961, 2.750000000016000978 ) ;
#807 = CARTESIAN_POINT ( 'NONE',  ( 13.95010937135918283, 43.97165639067142706, -14.30000000000016236 ) ) ;
#808 = DIRECTION ( 'NONE',  ( -0.4553361547666759379, 0.8903195977638016512, 3.714397489708601316E-15 ) ) ;
#809 = DIRECTION ( 'NONE',  ( 0.8903195977639758452, 0.4553361547663354325, 0.000000000000000000 ) ) ;
#810 = EDGE_CURVE ( 'NONE', #494, #488, #668, .T. ) ;
#811 = ORIENTED_EDGE ( 'NONE', *, *, #54, .F. ) ;
#812 = CARTESIAN_POINT ( 'NONE',  ( -4.949999999999999289, 0.000000000000000000, 5.500000000000000000 ) ) ;
#813 = DIRECTION ( 'NONE',  ( 0.000000000000000000, 0.000000000000000000, 1.000000000000000000 ) ) ;
#814 = DIRECTION ( 'NONE',  ( -0.000000000000000000, 0.000000000000000000, 1.000000000000000000 ) ) ;
#815 = EDGE_CURVE ( 'NONE', #365, #1055, #817, .T. ) ;
#816 = ORIENTED_EDGE ( 'NONE', *, *, #401, .T. ) ;
#817 = LINE ( 'NONE', #1185, #449 ) ;
#818 = FACE_OUTER_BOUND ( 'NONE', #550, .T. ) ;
#819 = ORIENTED_EDGE ( 'NONE', *, *, #822, .T. ) ;
#820 = CARTESIAN_POINT ( 'NONE',  ( 17.48962499282195182, 68.47390391682276345, -35.35000000000007958 ) ) ;
#821 = EDGE_CURVE ( 'NONE', #376, #360, #68, .T. ) ;
#822 = EDGE_CURVE ( 'NONE', #804, #373, #336, .T. ) ;
#823 = ORIENTED_EDGE ( 'NONE', *, *, #699, .T. ) ;
#824 = ADVANCED_FACE ( 'NONE', ( #159 ), #445, .F. ) ;
#825 = DIRECTION ( 'NONE',  ( 1.000000000000000000, 0.000000000000000000, 0.000000000000000000 ) ) ;
#826 = CARTESIAN_POINT ( 'NONE',  ( -13.36319701317435182, 34.72377035667945222, 10.50000000000000000 ) ) ;
#827 = VERTEX_POINT ( 'NONE', #636 ) ;
#828 = DIRECTION ( 'NONE',  ( -1.000000000000000000, 0.000000000000000000, 0.000000000000000000 ) ) ;
#829 = ORIENTED_EDGE ( 'NONE', *, *, #317, .T. ) ;
#830 = DIRECTION ( 'NONE',  ( 0.8903195977639758452, 0.4553361547663353770, 5.584961854647190439E-16 ) ) ;
#831 = AXIS2_PLACEMENT_3D ( 'NONE', #715, #166, #904 ) ;
#832 = CYLINDRICAL_SURFACE ( 'NONE', #599, 4.949999999999999289 ) ;
#833 = CARTESIAN_POINT ( 'NONE',  ( 4.949999999999999289, 6.062001655779397525E-16, 5.500000000000000000 ) ) ;
#834 = ORIENTED_EDGE ( 'NONE', *, *, #70, .F. ) ;
#835 = CIRCLE ( 'NONE', #779, 1.750000000001566303 ) ;
#836 = CIRCLE ( 'NONE', #591, 1.750000000008711698 ) ;
#837 = DIRECTION ( 'NONE',  ( -0.000000000000000000, -0.000000000000000000, 1.000000000000000000 ) ) ;
#838 = DIRECTION ( 'NONE',  ( -0.000000000000000000, -0.000000000000000000, 1.000000000000000000 ) ) ;
#839 = FACE_BOUND ( 'NONE', #388, .T. ) ;
#840 = LINE ( 'NONE', #193, #434 ) ;
#841 = EDGE_CURVE ( 'NONE', #17, #363, #385, .T. ) ;
#842 = ORIENTED_EDGE ( 'NONE', *, *, #1179, .F. ) ;
#843 = PLANE ( 'NONE',  #898 ) ;
#844 = DIRECTION ( 'NONE',  ( -0.4553361547666773812, 0.8903195977638010961, 6.100358712377824207E-16 ) ) ;
#845 = AXIS2_PLACEMENT_3D ( 'NONE', #728, #896, #1077 ) ;
#846 = VERTEX_POINT ( 'NONE', #582 ) ;
#847 = EDGE_CURVE ( 'NONE', #888, #264, #806, .T. ) ;
#848 = LINE ( 'NONE', #14, #547 ) ;
#849 = VECTOR ( 'NONE', #1062, 1000.000000000000227 ) ;
#850 = CARTESIAN_POINT ( 'NONE',  ( -4.128967735985727749, 56.29431479875216837, -14.30000000000011084 ) ) ;
#851 = LINE ( 'NONE', #1035, #1085 ) ;
#852 = ORIENTED_EDGE ( 'NONE', *, *, #188, .F. ) ;
#853 = CARTESIAN_POINT ( 'NONE',  ( 10.94322070605716846, 75.23460587108128550, -25.35000000000004761 ) ) ;
#854 = DIRECTION ( 'NONE',  ( 1.000000000000000000, 0.000000000000000000, 0.000000000000000000 ) ) ;
#855 = EDGE_LOOP ( 'NONE', ( #210, #879, #1079, #872 ) ) ;
#856 = EDGE_CURVE ( 'NONE', #1002, #300, #297, .T. ) ;
#857 = EDGE_CURVE ( 'NONE', #1013, #804, #848, .T. ) ;
#858 = CARTESIAN_POINT ( 'NONE',  ( -10.97741757126326689, 24.71200785567851099, -4.500000000000073719 ) ) ;
#859 = EDGE_CURVE ( 'NONE', #1099, #702, #577, .T. ) ;
#860 = LINE ( 'NONE', #241, #594 ) ;
#861 = CARTESIAN_POINT ( 'NONE',  ( 17.22643332474500966, 27.90438172201787381, 5.500000000000000000 ) ) ;
#862 = ORIENTED_EDGE ( 'NONE', *, *, #597, .T. ) ;
#863 = SURFACE_STYLE_FILL_AREA ( #1080 ) ;
#864 = LINE ( 'NONE', #328, #416 ) ;
#865 = LINE ( 'NONE', #50, #60 ) ;
#866 = ORIENTED_EDGE ( 'NONE', *, *, #822, .F. ) ;
#867 = DIRECTION ( 'NONE',  ( -0.000000000000000000, -0.000000000000000000, 1.000000000000000000 ) ) ;
#868 = DIRECTION ( 'NONE',  ( -0.4553361547666759934, 0.8903195977638017622, 3.714397489708602105E-15 ) ) ;
#869 = AXIS2_PLACEMENT_3D ( 'NONE', #83, #368, #722 ) ;
#870 = DIRECTION ( 'NONE',  ( 0.4553361547666768261, -0.8903195977638012071, -0.000000000000000000 ) ) ;
#871 = EDGE_LOOP ( 'NONE', ( #157, #1141, #966, #1134, #413, #862 ) ) ;
#872 = ORIENTED_EDGE ( 'NONE', *, *, #315, .F. ) ;
#873 = AXIS2_PLACEMENT_3D ( 'NONE', #183, #808, #275 ) ;
#874 = DIRECTION ( 'NONE',  ( -8.622537070539964660E-16, 2.912524176298023170E-15, -1.000000000000000000 ) ) ;
#875 = ORIENTED_EDGE ( 'NONE', *, *, #802, .F. ) ;
#876 = ORIENTED_EDGE ( 'NONE', *, *, #941, .F. ) ;
#877 = DIRECTION ( 'NONE',  ( -0.4553361547666759379, 0.8903195977638016512, 3.714397489708601316E-15 ) ) ;
#878 = FACE_BOUND ( 'NONE', #233, .T. ) ;
#879 = ORIENTED_EDGE ( 'NONE', *, *, #1096, .T. ) ;
#880 =( GEOMETRIC_REPRESENTATION_CONTEXT ( 3 ) GLOBAL_UNCERTAINTY_ASSIGNED_CONTEXT ( ( #585 ) ) GLOBAL_UNIT_ASSIGNED_CONTEXT ( ( #685, #1036, #672 ) ) REPRESENTATION_CONTEXT ( 'NONE', 'WORKASPACE' ) );
#881 = ORIENTED_EDGE ( 'NONE', *, *, #1157, .T. ) ;
#882 = AXIS2_PLACEMENT_3D ( 'NONE', #235, #89, #825 ) ;
#883 = FACE_OUTER_BOUND ( 'NONE', #101, .T. ) ;
#884 = DIRECTION ( 'NONE',  ( 0.3289652681565540249, 0.7747341239025149484, -0.5399711933128367169 ) ) ;
#885 = AXIS2_PLACEMENT_3D ( 'NONE', #248, #256, #472 ) ;
#886 = AXIS2_PLACEMENT_3D ( 'NONE', #553, #738, #747 ) ;
#887 = STYLED_ITEM ( 'NONE', ( #950 ), #1025 ) ;
#888 = VERTEX_POINT ( 'NONE', #1014 ) ;
#889 = FACE_OUTER_BOUND ( 'NONE', #767, .T. ) ;
#890 = VERTEX_POINT ( 'NONE', #670 ) ;
#891 = LINE ( 'NONE', #721, #103 ) ;
#892 = PLANE ( 'NONE',  #869 ) ;
#893 = ORIENTED_EDGE ( 'NONE', *, *, #1148, .F. ) ;
#894 = CARTESIAN_POINT ( 'NONE',  ( -6.828389705632252671, 32.44990603475675783, 10.50000000000000000 ) ) ;
#895 = ORIENTED_EDGE ( 'NONE', *, *, #308, .F. ) ;
#896 = DIRECTION ( 'NONE',  ( -0.000000000000000000, -0.000000000000000000, 1.000000000000000000 ) ) ;
#897 = ORIENTED_EDGE ( 'NONE', *, *, #706, .T. ) ;
#898 = AXIS2_PLACEMENT_3D ( 'NONE', #313, #489, #919 ) ;
#899 = CARTESIAN_POINT ( 'NONE',  ( 23.31870773179783285, 42.25207533043732155, -14.30000000000017302 ) ) ;
#900 = ADVANCED_FACE ( 'NONE', ( #204 ), #117, .F. ) ;
#901 = LINE ( 'NONE', #77, #154 ) ;
#902 = DIRECTION ( 'NONE',  ( -0.000000000000000000, -0.000000000000000000, 1.000000000000000000 ) ) ;
#903 = ORIENTED_EDGE ( 'NONE', *, *, #677, .F. ) ;
#904 = DIRECTION ( 'NONE',  ( -1.000000000000000000, 0.000000000000000000, 0.000000000000000000 ) ) ;
#905 = ORIENTED_EDGE ( 'NONE', *, *, #765, .T. ) ;
#906 = EDGE_CURVE ( 'NONE', #650, #73, #109, .T. ) ;
#907 = CARTESIAN_POINT ( 'NONE',  ( -4.128967735985727749, 56.29431479875216837, -10.30000000000016236 ) ) ;
#908 = ORIENTED_EDGE ( 'NONE', *, *, #554, .F. ) ;
#909 = CARTESIAN_POINT ( 'NONE',  ( -2.378967735992381094, 56.29431479875216837, -14.30000000000011262 ) ) ;
#910 = AXIS2_PLACEMENT_3D ( 'NONE', #471, #378, #1019 ) ;
#911 = ADVANCED_FACE ( 'NONE', ( #679 ), #483, .T. ) ;
#912 = AXIS2_PLACEMENT_3D ( 'NONE', #213, #399, #318 ) ;
#913 = EDGE_LOOP ( 'NONE', ( #788, #444, #918, #1159 ) ) ;
#914 = DIRECTION ( 'NONE',  ( -0.8903195977633155955, -0.4553361547676266219, 0.000000000000000000 ) ) ;
#915 = DIRECTION ( 'NONE',  ( -0.8903195977638016512, -0.4553361547666759379, 0.000000000000000000 ) ) ;
#916 = CARTESIAN_POINT ( 'NONE',  ( 0.000000000000000000, 0.000000000000000000, 10.50000000000000000 ) ) ;
#917 = FILL_AREA_STYLE_COLOUR ( '', #342 ) ;
#918 = ORIENTED_EDGE ( 'NONE', *, *, #440, .T. ) ;
#919 = DIRECTION ( 'NONE',  ( -0.3908420077549049076, -0.9204577801149353977, 0.000000000000000000 ) ) ;
#920 = CARTESIAN_POINT ( 'NONE',  ( -13.36319701317245645, 34.72377035667575029, -5.300000000023584512 ) ) ;
#921 = DIRECTION ( 'NONE',  ( -1.000000000000000000, 0.000000000000000000, 0.000000000000000000 ) ) ;
#922 = DIRECTION ( 'NONE',  ( -0.8903195977638009850, -0.4553361547666771036, 0.000000000000000000 ) ) ;
#923 = ORIENTED_EDGE ( 'NONE', *, *, #194, .F. ) ;
#924 = CARTESIAN_POINT ( 'NONE',  ( -13.36319701317435182, 34.72377035667945222, 8.500000000000000000 ) ) ;
#925 = DIRECTION ( 'NONE',  ( 1.000000000000000000, 0.000000000000000000, 0.000000000000000000 ) ) ;
#926 = ADVANCED_FACE ( 'NONE', ( #218, #1117 ), #196, .F. ) ;
#927 = AXIS2_PLACEMENT_3D ( 'NONE', #522, #333, #598 ) ;
#928 = DIRECTION ( 'NONE',  ( -1.000000000000000000, 0.000000000000000000, 0.000000000000000000 ) ) ;
#929 = DIRECTION ( 'NONE',  ( 0.8903195977638013181, 0.4553361547666767706, 4.170304585768335045E-16 ) ) ;
#930 = VERTEX_POINT ( 'NONE', #1024 ) ;
#931 = CIRCLE ( 'NONE', #1121, 1.750000000008709922 ) ;
#932 = DIRECTION ( 'NONE',  ( -0.4553361547676266219, 0.8903195977633155955, 0.000000000000000000 ) ) ;
#933 = DIRECTION ( 'NONE',  ( 1.914247704897083543E-15, -4.599326246951599694E-15, 1.000000000000000000 ) ) ;
#934 = DIRECTION ( 'NONE',  ( 1.000000000000000000, 0.000000000000000000, 0.000000000000000000 ) ) ;
#935 = ADVANCED_FACE ( 'NONE', ( #403 ), #843, .F. ) ;
#936 = VECTOR ( 'NONE', #933, 1000.000000000000000 ) ;
#937 = ORIENTED_EDGE ( 'NONE', *, *, #401, .F. ) ;
#938 = DIRECTION ( 'NONE',  ( -0.4553361547666759379, 0.8903195977638016512, 3.714397489708601316E-15 ) ) ;
#939 = DIRECTION ( 'NONE',  ( 0.3219712827546846179, -0.6295510250021897347, -0.7071067811865441310 ) ) ;
#940 = DIRECTION ( 'NONE',  ( -0.2318068552378879377, 0.9727618320353246251, 0.000000000000000000 ) ) ;
#941 = EDGE_CURVE ( 'NONE', #264, #888, #391, .T. ) ;
#942 = VERTEX_POINT ( 'NONE', #1107 ) ;
#943 = CARTESIAN_POINT ( 'NONE',  ( -10.97741757126326689, 24.71200785567851099, -59.51955680601141552 ) ) ;
#944 = CYLINDRICAL_SURFACE ( 'NONE', #518, 1.749999999993346211 ) ;
#945 = ADVANCED_FACE ( 'NONE', ( #496 ), #291, .F. ) ;
#946 = CARTESIAN_POINT ( 'NONE',  ( 0.000000000000000000, 0.000000000000000000, 5.500000000000000000 ) ) ;
#947 = EDGE_CURVE ( 'NONE', #17, #1055, #567, .T. ) ;
#948 = ORIENTED_EDGE ( 'NONE', *, *, #277, .T. ) ;
#949 = ADVANCED_FACE ( 'NONE', ( #102 ), #572, .F. ) ;
#950 = PRESENTATION_STYLE_ASSIGNMENT (( #718 ) ) ;
#951 = AXIS2_PLACEMENT_3D ( 'NONE', #707, #969, #1158 ) ;
#952 = VECTOR ( 'NONE', #107, 1000.000000000000000 ) ;
#953 = DIRECTION ( 'NONE',  ( 0.000000000000000000, -1.000000000000000000, -2.973811673114403324E-15 ) ) ;
#954 = DIRECTION ( 'NONE',  ( 1.000000000000000000, 0.000000000000000000, 0.000000000000000000 ) ) ;
#955 = ORIENTED_EDGE ( 'NONE', *, *, #744, .T. ) ;
#956 = LINE ( 'NONE', #37, #556 ) ;
#957 = AXIS2_PLACEMENT_3D ( 'NONE', #671, #16, #928 ) ;
#958 = LINE ( 'NONE', #711, #260 ) ;
#959 = LINE ( 'NONE', #619, #725 ) ;
#960 = VERTEX_POINT ( 'NONE', #301 ) ;
#961 = AXIS2_PLACEMENT_3D ( 'NONE', #853, #561, #752 ) ;
#962 = SURFACE_SIDE_STYLE ('',( #863 ) ) ;
#963 = DIRECTION ( 'NONE',  ( -0.000000000000000000, -0.000000000000000000, 1.000000000000000000 ) ) ;
#964 = FACE_BOUND ( 'NONE', #127, .T. ) ;
#965 = ORIENTED_EDGE ( 'NONE', *, *, #621, .T. ) ;
#966 = ORIENTED_EDGE ( 'NONE', *, *, #302, .F. ) ;
#967 = CARTESIAN_POINT ( 'NONE',  ( -6.828389705632252671, 32.44990603475675783, -10.30000000000016236 ) ) ;
#968 = VECTOR ( 'NONE', #1182, 1000.000000000000114 ) ;
#969 = DIRECTION ( 'NONE',  ( 0.000000000000000000, 0.000000000000000000, -1.000000000000000000 ) ) ;
#970 = EDGE_CURVE ( 'NONE', #338, #664, #674, .T. ) ;
#971 = VERTEX_POINT ( 'NONE', #1044 ) ;
#972 = VERTEX_POINT ( 'NONE', #602 ) ;
#973 = AXIS2_PLACEMENT_3D ( 'NONE', #967, #963, #610 ) ;
#974 = CARTESIAN_POINT ( 'NONE',  ( -13.36319701317245645, 34.72377035667575029, -14.30000000000016414 ) ) ;
#975 = VECTOR ( 'NONE', #940, 999.9999999999998863 ) ;
#976 = DIRECTION ( 'NONE',  ( 0.000000000000000000, -1.000000000000000000, -2.973811673114403324E-15 ) ) ;
#977 = ORIENTED_EDGE ( 'NONE', *, *, #581, .F. ) ;
#978 = ORIENTED_EDGE ( 'NONE', *, *, #1116, .F. ) ;
#979 = CARTESIAN_POINT ( 'NONE',  ( 15.43933467482319521, 77.53405345268308224, -10.30000000000016236 ) ) ;
#980 = PLANE ( 'NONE',  #573 ) ;
#981 = ORIENTED_EDGE ( 'NONE', *, *, #638, .F. ) ;
#982 = EDGE_CURVE ( 'NONE', #437, #80, #129, .T. ) ;
#983 = ORIENTED_EDGE ( 'NONE', *, *, #810, .T. ) ;
#984 = AXIS2_PLACEMENT_3D ( 'NONE', #1149, #868, #1138 ) ;
#985 = CARTESIAN_POINT ( 'NONE',  ( 15.70010937136789586, 43.97165639067142706, -14.30000000000016414 ) ) ;
#986 = DIRECTION ( 'NONE',  ( -0.4553361547666759379, 0.8903195977638016512, 3.714397489708601316E-15 ) ) ;
#987 = PRESENTATION_LAYER_ASSIGNMENT (  '', '', ( #326 ) ) ;
#988 = LINE ( 'NONE', #393, #234 ) ;
#989 = LINE ( 'NONE', #443, #1045 ) ;
#990 = ORIENTED_EDGE ( 'NONE', *, *, #339, .F. ) ;
#991 = DIRECTION ( 'NONE',  ( 1.000000000000000000, 0.000000000000000000, 0.000000000000000000 ) ) ;
#992 = DIRECTION ( 'NONE',  ( 1.000000000000000000, 0.000000000000000000, 0.000000000000000000 ) ) ;
#993 = PLANE ( 'NONE',  #1143 ) ;
#994 = LINE ( 'NONE', #199, #286 ) ;
#995 = VERTEX_POINT ( 'NONE', #162 ) ;
#996 = DIRECTION ( 'NONE',  ( -0.000000000000000000, -0.000000000000000000, 1.000000000000000000 ) ) ;
#997 = VERTEX_POINT ( 'NONE', #1049 ) ;
#998 = AXIS2_PLACEMENT_3D ( 'NONE', #1122, #307, #756 ) ;
#999 = DIRECTION ( 'NONE',  ( -8.622537070539964660E-16, 2.912524176298023170E-15, -1.000000000000000000 ) ) ;
#1000 = ORIENTED_EDGE ( 'NONE', *, *, #906, .T. ) ;
#1001 = CARTESIAN_POINT ( 'NONE',  ( -8.578389705633819418, 32.44990603475675783, -10.30000000000016236 ) ) ;
#1002 = VERTEX_POINT ( 'NONE', #66 ) ;
#1003 = CARTESIAN_POINT ( 'NONE',  ( -13.36319701317435182, 34.72377035667945222, 8.500000000000000000 ) ) ;
#1004 = PLANE ( 'NONE',  #732 ) ;
#1005 = DIRECTION ( 'NONE',  ( -0.000000000000000000, -0.000000000000000000, 1.000000000000000000 ) ) ;
#1006 = AXIS2_PLACEMENT_3D ( 'NONE', #1012, #184, #922 ) ;
#1007 = AXIS2_PLACEMENT_3D ( 'NONE', #894, #505, #688 ) ;
#1008 = VERTEX_POINT ( 'NONE', #682 ) ;
#1009 = CARTESIAN_POINT ( 'NONE',  ( 23.31870773179781153, 42.25207533043730734, -14.30000000000017302 ) ) ;
#1010 = DIRECTION ( 'NONE',  ( -0.000000000000000000, -0.000000000000000000, 1.000000000000000000 ) ) ;
#1011 = CARTESIAN_POINT ( 'NONE',  ( -5.878967735979075293, 56.29431479875216837, -10.30000000000016236 ) ) ;
#1012 = CARTESIAN_POINT ( 'NONE',  ( 15.04124609895725229, 67.22172949120711394, -35.35000000000007958 ) ) ;
#1013 = VERTEX_POINT ( 'NONE', #450 ) ;
#1014 = CARTESIAN_POINT ( 'NONE',  ( 13.39159959992186977, 76.48678029669693501, -25.35000000000004761 ) ) ;
#1015 = VECTOR ( 'NONE', #367, 1000.000000000000000 ) ;
#1016 = CARTESIAN_POINT ( 'NONE',  ( -29.36997962926692907, 66.02186103334605605, -40.45377034864565502 ) ) ;
#1017 = FACE_OUTER_BOUND ( 'NONE', #384, .T. ) ;
#1018 = ORIENTED_EDGE ( 'NONE', *, *, #1154, .F. ) ;
#1019 = DIRECTION ( 'NONE',  ( -0.8903195977638009850, -0.4553361547666773812, 0.000000000000000000 ) ) ;
#1020 = DIRECTION ( 'NONE',  ( -0.000000000000000000, -0.000000000000000000, -1.000000000000000000 ) ) ;
#1021 = CARTESIAN_POINT ( 'NONE',  ( -4.815171068574858992, -1.147443933427545915, 5.500000000000000000 ) ) ;
#1022 = ORIENTED_EDGE ( 'NONE', *, *, #821, .T. ) ;
#1023 = AXIS2_PLACEMENT_3D ( 'NONE', #112, #844, #21 ) ;
#1024 = CARTESIAN_POINT ( 'NONE',  ( 4.949999999999999289, 6.062001655779397525E-16, 5.500000000000000000 ) ) ;
#1025 = MANIFOLD_SOLID_BREP ( 'Wytnij-wyci¹gniêcie4', #216 ) ;
#1026 = EDGE_CURVE ( 'NONE', #971, #203, #420, .T. ) ;
#1027 = CYLINDRICAL_SURFACE ( 'NONE', #912, 3.250000000001566303 ) ;
#1028 = EDGE_LOOP ( 'NONE', ( #59, #151, #325, #955, #400, #1060 ) ) ;
#1029 = CIRCLE ( 'NONE', #273, 4.950000000000001066 ) ;
#1030 = DIRECTION ( 'NONE',  ( -1.000000000000000000, 0.000000000000000000, -0.000000000000000000 ) ) ;
#1031 = EDGE_CURVE ( 'NONE', #541, #717, #245, .T. ) ;
#1032 = ADVANCED_FACE ( 'NONE', ( #222 ), #588, .F. ) ;
#1033 = CARTESIAN_POINT ( 'NONE',  ( 7.426458294948867334, 73.43602805978326842, -73.17579469286120286 ) ) ;
#1034 = ADVANCED_FACE ( 'NONE', ( #889 ), #41, .T. ) ;
#1035 = CARTESIAN_POINT ( 'NONE',  ( -12.06395589039264316, 29.27159262209191226, -9.054227855442691819 ) ) ;
#1036 =( NAMED_UNIT ( * ) PLANE_ANGLE_UNIT ( ) SI_UNIT ( $, .RADIAN. ) );
#1037 = UNCERTAINTY_MEASURE_WITH_UNIT (LENGTH_MEASURE( 1.000000000000000082E-05 ), #462, 'distance_accuracy_value', 'NONE');
#1038 = ORIENTED_EDGE ( 'NONE', *, *, #742, .F. ) ;
#1039 = CARTESIAN_POINT ( 'NONE',  ( 15.04124609895725229, 67.22172949120707131, -25.35000000000007958 ) ) ;
#1040 = LINE ( 'NONE', #1016, #407 ) ;
#1041 = CIRCLE ( 'NONE', #1082, 4.949999999999999289 ) ;
#1042 = EDGE_LOOP ( 'NONE', ( #1171, #776 ) ) ;
#1043 = APPLICATION_CONTEXT ( 'automotive_design' ) ;
#1044 = CARTESIAN_POINT ( 'NONE',  ( -8.591638129352183739, 14.70024535467756621, 5.500000000000000000 ) ) ;
#1045 = VECTOR ( 'NONE', #540, 1000.000000000000000 ) ;
#1046 = DIRECTION ( 'NONE',  ( 0.000000000000000000, 0.000000000000000000, 1.000000000000000000 ) ) ;
#1047 = CARTESIAN_POINT ( 'NONE',  ( 16.53318139028239742, 55.62963610450724161, -73.17579469286130234 ) ) ;
#1048 = ORIENTED_EDGE ( 'NONE', *, *, #395, .T. ) ;
#1049 = CARTESIAN_POINT ( 'NONE',  ( -5.078389705630686812, 32.44990603475675783, -14.30000000000017835 ) ) ;
#1050 = EDGE_CURVE ( 'NONE', #488, #717, #956, .T. ) ;
#1051 = CARTESIAN_POINT ( 'NONE',  ( 18.76534618409774069, 51.15527130811705803, -5.300000000023584512 ) ) ;
#1052 = LINE ( 'NONE', #1047, #11 ) ;
#1053 = EDGE_LOOP ( 'NONE', ( #866, #366 ) ) ;
#1054 = VECTOR ( 'NONE', #763, 1000.000000000000000 ) ;
#1055 = VERTEX_POINT ( 'NONE', #858 ) ;
#1056 = FACE_OUTER_BOUND ( 'NONE', #643, .T. ) ;
#1057 = DIRECTION ( 'NONE',  ( -0.8903195977638009850, -0.4553361547666771036, 0.000000000000000000 ) ) ;
#1058 = ADVANCED_FACE ( 'NONE', ( #1056 ), #354, .F. ) ;
#1059 = CARTESIAN_POINT ( 'NONE',  ( 4.556266011568931518, -1.934667938386779973, 5.500000000000000000 ) ) ;
#1060 = ORIENTED_EDGE ( 'NONE', *, *, #194, .T. ) ;
#1061 = ORIENTED_EDGE ( 'NONE', *, *, #947, .F. ) ;
#1062 = DIRECTION ( 'NONE',  ( -0.8903195977638012071, -0.4553361547666769371, -0.000000000000000000 ) ) ;
#1063 = AXIS2_PLACEMENT_3D ( 'NONE', #1170, #867, #72 ) ;
#1064 = EDGE_CURVE ( 'NONE', #520, #846, #772, .T. ) ;
#1065 = CARTESIAN_POINT ( 'NONE',  ( 7.717597321000400967, 5.510468309894646310, 21.10802315919424998 ) ) ;
#1066 = PRODUCT_DEFINITION_SHAPE ( 'NONE', 'NONE',  #436 ) ;
#1067 = EDGE_LOOP ( 'NONE', ( #580, #852 ) ) ;
#1068 = ORIENTED_EDGE ( 'NONE', *, *, #856, .F. ) ;
#1069 = CARTESIAN_POINT ( 'NONE',  ( 4.556266011568930629, -1.934667938386779529, 8.500000000000000000 ) ) ;
#1070 = EDGE_CURVE ( 'NONE', #846, #702, #609, .T. ) ;
#1071 = EDGE_CURVE ( 'NONE', #520, #365, #989, .T. ) ;
#1072 = CIRCLE ( 'NONE', #984, 2.750000000016002755 ) ;
#1073 = CARTESIAN_POINT ( 'NONE',  ( -6.828389705632252671, 32.44990603475675783, -10.30000000000016236 ) ) ;
#1074 = EDGE_CURVE ( 'NONE', #1163, #995, #135, .T. ) ;
#1075 = ORIENTED_EDGE ( 'NONE', *, *, #1152, .T. ) ;
#1076 = EDGE_LOOP ( 'NONE', ( #423, #881, #607, #521 ) ) ;
#1077 = DIRECTION ( 'NONE',  ( 1.000000000000000000, 0.000000000000000000, 0.000000000000000000 ) ) ;
#1078 = LINE ( 'NONE', #447, #968 ) ;
#1079 = ORIENTED_EDGE ( 'NONE', *, *, #182, .T. ) ;
#1080 = FILL_AREA_STYLE ('',( #31 ) ) ;
#1081 = ORIENTED_EDGE ( 'NONE', *, *, #742, .T. ) ;
#1082 = AXIS2_PLACEMENT_3D ( 'NONE', #38, #415, #694 ) ;
#1083 = DIRECTION ( 'NONE',  ( -0.4553361547666759934, 0.8903195977638017622, 3.714397489708602105E-15 ) ) ;
#1084 = CARTESIAN_POINT ( 'NONE',  ( 24.54605777015673240, 59.72766149740706965, -10.30000000000016058 ) ) ;
#1085 = VECTOR ( 'NONE', #26, 1000.000000000000000 ) ;
#1086 = ORIENTED_EDGE ( 'NONE', *, *, #581, .T. ) ;
#1087 = CARTESIAN_POINT ( 'NONE',  ( -3.578389705630686812, 32.44990603475675783, -19.49238815544992320 ) ) ;
#1088 = EDGE_LOOP ( 'NONE', ( #709, #268 ) ) ;
#1089 = CARTESIAN_POINT ( 'NONE',  ( 15.04124609895725229, 67.22172949120711394, -35.35000000000007958 ) ) ;
#1090 = CARTESIAN_POINT ( 'NONE',  ( -4.815171068574857216, -1.147443933427545470, 5.500000000000000000 ) ) ;
#1091 = CARTESIAN_POINT ( 'NONE',  ( 15.70010937136789586, 43.97165639067142706, -19.49238815544992320 ) ) ;
#1092 = CARTESIAN_POINT ( 'NONE',  ( 16.48866541035917166, 55.60686929675065215, -10.30000000000016236 ) ) ;
#1093 = VERTEX_POINT ( 'NONE', #374 ) ;
#1094 = LINE ( 'NONE', #812, #587 ) ;
#1095 = CARTESIAN_POINT ( 'NONE',  ( -6.828389705632252671, 32.44990603475675783, -14.30000000000017657 ) ) ;
#1096 = EDGE_CURVE ( 'NONE', #733, #75, #92, .T. ) ;
#1097 = CARTESIAN_POINT ( 'NONE',  ( -10.97741757126326689, 24.71200785567851099, -14.30000000000018012 ) ) ;
#1098 = CYLINDRICAL_SURFACE ( 'NONE', #1006, 2.750000000016002755 ) ;
#1099 = VERTEX_POINT ( 'NONE', #1092 ) ;
#1100 = CARTESIAN_POINT ( 'NONE',  ( 18.95010937137660534, 43.97165639067142706, 10.50000000000000000 ) ) ;
#1101 = VECTOR ( 'NONE', #1180, 1000.000000000000000 ) ;
#1102 = FACE_BOUND ( 'NONE', #504, .T. ) ;
#1103 = CYLINDRICAL_SURFACE ( 'NONE', #873, 2.750000000016002755 ) ;
#1104 = AXIS2_PLACEMENT_3D ( 'NONE', #684, #766, #775 ) ;
#1105 = AXIS2_PLACEMENT_3D ( 'NONE', #170, #410, #130 ) ;
#1106 = EDGE_LOOP ( 'NONE', ( #983, #319, #57, #719 ) ) ;
#1107 = CARTESIAN_POINT ( 'NONE',  ( 24.54605777015667556, 59.72766149740721175, -45.37500000000019185 ) ) ;
#1108 = CARTESIAN_POINT ( 'NONE',  ( 0.000000000000000000, 0.000000000000000000, 5.500000000000000000 ) ) ;
#1109 = SURFACE_SIDE_STYLE ('',( #564 ) ) ;
#1110 = ORIENTED_EDGE ( 'NONE', *, *, #720, .F. ) ;
#1111 = DIRECTION ( 'NONE',  ( -0.8903195977633155955, -0.4553361547676266219, 0.000000000000000000 ) ) ;
#1112 = CARTESIAN_POINT ( 'NONE',  ( 24.54605777015673240, 59.72766149740706965, -14.30000000000007176 ) ) ;
#1113 = VECTOR ( 'NONE', #23, 1000.000000000000114 ) ;
#1114 = FACE_OUTER_BOUND ( 'NONE', #470, .T. ) ;
#1115 = ORIENTED_EDGE ( 'NONE', *, *, #618, .T. ) ;
#1116 = EDGE_CURVE ( 'NONE', #632, #1002, #481, .T. ) ;
#1117 = FACE_BOUND ( 'NONE', #686, .T. ) ;
#1118 = CARTESIAN_POINT ( 'NONE',  ( -1.056377865817159416E-12, -5.019851907686357079E-13, -45.37500000000023448 ) ) ;
#1119 = DIRECTION ( 'NONE',  ( -0.000000000000000000, -0.000000000000000000, -1.000000000000000000 ) ) ;
#1120 = ORIENTED_EDGE ( 'NONE', *, *, #1172, .T. ) ;
#1121 = AXIS2_PLACEMENT_3D ( 'NONE', #242, #695, #1150 ) ;
#1122 = CARTESIAN_POINT ( 'NONE',  ( 15.04124609895725229, 67.22172949120711394, -35.35000000000007958 ) ) ;
#1123 = EDGE_CURVE ( 'NONE', #627, #437, #469, .T. ) ;
#1124 = DIRECTION ( 'NONE',  ( -0.4553361547666759379, 0.8903195977638016512, 3.714397489708601316E-15 ) ) ;
#1125 = PLANE ( 'NONE',  #466 ) ;
#1126 = AXIS2_PLACEMENT_3D ( 'NONE', #467, #1010, #1168 ) ;
#1127 = ORIENTED_EDGE ( 'NONE', *, *, #51, .F. ) ;
#1128 = CARTESIAN_POINT ( 'NONE',  ( 15.43933467482319521, 77.53405345268308224, -14.30000000000006999 ) ) ;
#1129 = DIRECTION ( 'NONE',  ( -0.000000000000000000, -0.000000000000000000, 1.000000000000000000 ) ) ;
#1130 = ORIENTED_EDGE ( 'NONE', *, *, #841, .T. ) ;
#1131 = CARTESIAN_POINT ( 'NONE',  ( 18.76534618409774069, 51.15527130811705803, 8.500000000000000000 ) ) ;
#1132 = LINE ( 'NONE', #666, #675 ) ;
#1133 = CIRCLE ( 'NONE', #882, 3.250000000008711254 ) ;
#1134 = ORIENTED_EDGE ( 'NONE', *, *, #296, .F. ) ;
#1135 = ADVANCED_FACE ( 'NONE', ( #1017 ), #1098, .F. ) ;
#1136 =( LENGTH_UNIT ( ) NAMED_UNIT ( * ) SI_UNIT ( .MILLI., .METRE. ) );
#1137 = VECTOR ( 'NONE', #156, 1000.000000000000000 ) ;
#1138 = DIRECTION ( 'NONE',  ( -0.8903195977638009850, -0.4553361547666771036, 0.000000000000000000 ) ) ;
#1139 = CARTESIAN_POINT ( 'NONE',  ( 24.54605777015667556, 59.72766149740721175, -45.37500000000019185 ) ) ;
#1140 = ORIENTED_EDGE ( 'NONE', *, *, #339, .T. ) ;
#1141 = ORIENTED_EDGE ( 'NONE', *, *, #1172, .F. ) ;
#1142 = EDGE_CURVE ( 'NONE', #717, #541, #836, .T. ) ;
#1143 = AXIS2_PLACEMENT_3D ( 'NONE', #1108, #814, #653 ) ;
#1144 = CARTESIAN_POINT ( 'NONE',  ( 16.53318139028250755, 55.62963610450697161, -14.30000000000006288 ) ) ;
#1145 = DIRECTION ( 'NONE',  ( -0.8903195977638009850, -0.4553361547666771036, 0.000000000000000000 ) ) ;
#1146 = EDGE_LOOP ( 'NONE', ( #842, #601, #1000, #4 ) ) ;
#1147 = EDGE_LOOP ( 'NONE', ( #571, #22, #739, #1022, #787, #1081, #754, #552 ) ) ;
#1148 = EDGE_CURVE ( 'NONE', #1013, #827, #750, .T. ) ;
#1149 = CARTESIAN_POINT ( 'NONE',  ( 15.04124609895725229, 67.22172949120711394, -35.35000000000007958 ) ) ;
#1150 = DIRECTION ( 'NONE',  ( 0.000000000000000000, -1.000000000000000000, -2.973811673088296761E-15 ) ) ;
#1151 = VERTEX_POINT ( 'NONE', #909 ) ;
#1152 = EDGE_CURVE ( 'NONE', #376, #272, #994, .T. ) ;
#1153 = ORIENTED_EDGE ( 'NONE', *, *, #350, .F. ) ;
#1154 = EDGE_CURVE ( 'NONE', #409, #1160, #177, .T. ) ;
#1155 = VECTOR ( 'NONE', #100, 1000.000000000000227 ) ;
#1156 = VECTOR ( 'NONE', #390, 1000.000000000000000 ) ;
#1157 = EDGE_CURVE ( 'NONE', #930, #348, #282, .T. ) ;
#1158 = DIRECTION ( 'NONE',  ( -1.000000000000000000, 0.000000000000000000, -0.000000000000000000 ) ) ;
#1159 = ORIENTED_EDGE ( 'NONE', *, *, #941, .T. ) ;
#1160 = VERTEX_POINT ( 'NONE', #1001 ) ;
#1161 = DIRECTION ( 'NONE',  ( 0.4553361547666772147, -0.8903195977638010961, -6.066433020397330205E-16 ) ) ;
#1162 = CARTESIAN_POINT ( 'NONE',  ( 23.31870773179783285, 42.25207533043732155, -4.500000000000073719 ) ) ;
#1163 = VERTEX_POINT ( 'NONE', #820 ) ;
#1164 = CARTESIAN_POINT ( 'NONE',  ( 27.87206927946117929, 33.34887935279758153, 5.500000000000000000 ) ) ;
#1165 = ORIENTED_EDGE ( 'NONE', *, *, #773, .F. ) ;
#1166 = AXIS2_PLACEMENT_3D ( 'NONE', #465, #371, #741 ) ;
#1167 = DIRECTION ( 'NONE',  ( -0.4553361547666769926, 0.8903195977638013181, 0.000000000000000000 ) ) ;
#1168 = DIRECTION ( 'NONE',  ( 1.000000000000000000, 0.000000000000000000, 0.000000000000000000 ) ) ;
#1169 = DIRECTION ( 'NONE',  ( 1.000000000000000000, 0.000000000000000000, 0.000000000000000000 ) ) ;
#1170 = CARTESIAN_POINT ( 'NONE',  ( 15.70010937136789586, 43.97165639067142706, -10.30000000000016236 ) ) ;
#1171 = ORIENTED_EDGE ( 'NONE', *, *, #810, .F. ) ;
#1172 = EDGE_CURVE ( 'NONE', #650, #185, #358, .T. ) ;
#1173 = DIRECTION ( 'NONE',  ( 2.777713878791513725E-16, -5.431268915019123563E-16, 1.000000000000000000 ) ) ;
#1174 = ORIENTED_EDGE ( 'NONE', *, *, #1071, .T. ) ;
#1175 = CARTESIAN_POINT ( 'NONE',  ( 0.000000000000000000, 0.000000000000000000, 0.000000000000000000 ) ) ;
#1176 = VECTOR ( 'NONE', #1119, 1000.000000000000000 ) ;
#1177 = DIRECTION ( 'NONE',  ( 0.8903195977638009850, 0.4553361547666773812, 0.000000000000000000 ) ) ;
#1178 = ORIENTED_EDGE ( 'NONE', *, *, #815, .T. ) ;
#1179 = EDGE_CURVE ( 'NONE', #972, #632, #840, .T. ) ;
#1180 = DIRECTION ( 'NONE',  ( -0.000000000000000000, -0.000000000000000000, -1.000000000000000000 ) ) ;
#1181 = AXIS2_PLACEMENT_3D ( 'NONE', #104, #479, #769 ) ;
#1182 = DIRECTION ( 'NONE',  ( 0.8903195977633153735, 0.4553361547676266219, 0.000000000000000000 ) ) ;
#1183 = VERTEX_POINT ( 'NONE', #12 ) ;
#1184 = ORIENTED_EDGE ( 'NONE', *, *, #93, .F. ) ;
#1185 = CARTESIAN_POINT ( 'NONE',  ( -10.97741757126327222, 24.71200785567851099, -4.500000000000071054 ) ) ;
ENDSEC;
END-ISO-10303-21;
